<svg xmlns="http://www.w3.org/2000/svg" xmlns:xlink="http://www.w3.org/1999/xlink" viewBox="0 0 518.9 743.6"><defs><pattern id="_10_lpi_10_" data-name="10 lpi 10%" width="72" height="72" patternTransform="translate(15.9 16.5) rotate(-45)" patternUnits="userSpaceOnUse" viewBox="0 0 72 72"><rect width="72" height="72" fill="none"/><line x1="71.8" y1="68.4" x2="144.3" y2="68.4" fill="none" stroke="#231815" stroke-width="0.57"/><line x1="71.8" y1="54" x2="144.3" y2="54" fill="none" stroke="#231815" stroke-width="0.57"/><line x1="71.8" y1="39.6" x2="144.3" y2="39.6" fill="none" stroke="#231815" stroke-width="0.57"/><line x1="71.8" y1="25.2" x2="144.3" y2="25.2" fill="none" stroke="#231815" stroke-width="0.57"/><line x1="71.8" y1="10.8" x2="144.3" y2="10.8" fill="none" stroke="#231815" stroke-width="0.57"/><line x1="71.8" y1="61.2" x2="144.3" y2="61.2" fill="none" stroke="#231815" stroke-width="0.57"/><line x1="71.8" y1="46.8" x2="144.3" y2="46.8" fill="none" stroke="#231815" stroke-width="0.57"/><line x1="71.8" y1="32.4" x2="144.3" y2="32.4" fill="none" stroke="#231815" stroke-width="0.57"/><line x1="71.8" y1="18" x2="144.3" y2="18" fill="none" stroke="#231815" stroke-width="0.57"/><line x1="71.8" y1="3.6" x2="144.3" y2="3.6" fill="none" stroke="#231815" stroke-width="0.57"/><line x1="70.9" y1="57.9" x2="143.4" y2="57.9" fill="none" stroke="#231815" stroke-width="0.57"/><line x1="70.9" y1="43.5" x2="143.4" y2="43.5" fill="none" stroke="#231815" stroke-width="0.57"/><line x1="70.9" y1="29.1" x2="143.4" y2="29.1" fill="none" stroke="#231815" stroke-width="0.57"/><line x1="70.9" y1="14.7" x2="143.4" y2="14.7" fill="none" stroke="#231815" stroke-width="0.57"/><line x1="70.9" y1="65.1" x2="143.4" y2="65.1" fill="none" stroke="#231815" stroke-width="0.57"/><line x1="70.9" y1="50.7" x2="143.4" y2="50.7" fill="none" stroke="#231815" stroke-width="0.57"/><line x1="70.9" y1="36.3" x2="143.4" y2="36.3" fill="none" stroke="#231815" stroke-width="0.57"/><line x1="70.9" y1="21.9" x2="143.4" y2="21.9" fill="none" stroke="#231815" stroke-width="0.57"/><line x1="70.9" y1="7.5" x2="143.4" y2="7.5" fill="none" stroke="#231815" stroke-width="0.57"/><line x1="-0.3" y1="68.4" x2="72.3" y2="68.4" fill="none" stroke="#231815" stroke-width="0.57"/><line x1="-0.3" y1="54" x2="72.3" y2="54" fill="none" stroke="#231815" stroke-width="0.57"/><line x1="-0.3" y1="39.6" x2="72.3" y2="39.6" fill="none" stroke="#231815" stroke-width="0.57"/><line x1="-0.3" y1="25.2" x2="72.3" y2="25.2" fill="none" stroke="#231815" stroke-width="0.57"/><line x1="-0.3" y1="10.8" x2="72.3" y2="10.8" fill="none" stroke="#231815" stroke-width="0.57"/><line x1="-0.3" y1="61.2" x2="72.3" y2="61.2" fill="none" stroke="#231815" stroke-width="0.57"/><line x1="-0.3" y1="46.8" x2="72.3" y2="46.8" fill="none" stroke="#231815" stroke-width="0.57"/><line x1="-0.3" y1="32.4" x2="72.3" y2="32.4" fill="none" stroke="#231815" stroke-width="0.57"/><line x1="-0.3" y1="18" x2="72.3" y2="18" fill="none" stroke="#231815" stroke-width="0.57"/><line x1="-0.3" y1="3.6" x2="72.3" y2="3.6" fill="none" stroke="#231815" stroke-width="0.57"/><line x1="-1.1" y1="72.3" x2="71.4" y2="72.3" fill="none" stroke="#231815" stroke-width="0.57"/><line x1="-1.1" y1="57.9" x2="71.4" y2="57.9" fill="none" stroke="#231815" stroke-width="0.57"/><line x1="-1.1" y1="43.5" x2="71.4" y2="43.5" fill="none" stroke="#231815" stroke-width="0.57"/><line x1="-1.1" y1="29.1" x2="71.4" y2="29.1" fill="none" stroke="#231815" stroke-width="0.57"/><line x1="-1.1" y1="14.7" x2="71.4" y2="14.7" fill="none" stroke="#231815" stroke-width="0.57"/><line x1="-1.1" y1="65.1" x2="71.4" y2="65.1" fill="none" stroke="#231815" stroke-width="0.57"/><line x1="-1.1" y1="50.7" x2="71.4" y2="50.7" fill="none" stroke="#231815" stroke-width="0.57"/><line x1="-1.1" y1="36.3" x2="71.4" y2="36.3" fill="none" stroke="#231815" stroke-width="0.57"/><line x1="-1.1" y1="21.9" x2="71.4" y2="21.9" fill="none" stroke="#231815" stroke-width="0.57"/><line x1="-1.1" y1="7.5" x2="71.4" y2="7.5" fill="none" stroke="#231815" stroke-width="0.57"/><line x1="-72.3" y1="68.4" x2="0.3" y2="68.4" fill="none" stroke="#231815" stroke-width="0.57"/><line x1="-72.3" y1="54" x2="0.3" y2="54" fill="none" stroke="#231815" stroke-width="0.57"/><line x1="-72.3" y1="39.6" x2="0.3" y2="39.6" fill="none" stroke="#231815" stroke-width="0.57"/><line x1="-72.3" y1="25.2" x2="0.3" y2="25.2" fill="none" stroke="#231815" stroke-width="0.57"/><line x1="-72.3" y1="10.8" x2="0.3" y2="10.8" fill="none" stroke="#231815" stroke-width="0.57"/><line x1="-72.3" y1="61.2" x2="0.3" y2="61.2" fill="none" stroke="#231815" stroke-width="0.57"/><line x1="-72.3" y1="46.8" x2="0.3" y2="46.8" fill="none" stroke="#231815" stroke-width="0.57"/><line x1="-72.3" y1="32.4" x2="0.3" y2="32.4" fill="none" stroke="#231815" stroke-width="0.57"/><line x1="-72.3" y1="18" x2="0.3" y2="18" fill="none" stroke="#231815" stroke-width="0.57"/><line x1="-72.3" y1="3.6" x2="0.3" y2="3.6" fill="none" stroke="#231815" stroke-width="0.57"/><line x1="70.9" y1="0.3" x2="143.4" y2="0.3" fill="none" stroke="#231815" stroke-width="0.57"/><line x1="-1.1" y1="0.3" x2="71.4" y2="0.3" fill="none" stroke="#231815" stroke-width="0.57"/></pattern></defs><g id="scale-1:1"><path d="M438.3,754.8v9.9H154.8v-10" transform="translate(-35.3 -21.9)" fill="none" stroke="#000" stroke-miterlimit="10" stroke-width="1.42"/><line x1="176.2" y1="732.9" x2="176.2" y2="742.9" fill="none" stroke="#000" stroke-miterlimit="10" stroke-width="1.42"/><line x1="232.9" y1="732.9" x2="232.9" y2="742.9" fill="none" stroke="#000" stroke-miterlimit="10" stroke-width="1.42"/><line x1="261.2" y1="732.9" x2="261.2" y2="742.9" fill="none" stroke="#000" stroke-miterlimit="10" stroke-width="1.42"/><line x1="204.5" y1="732.9" x2="204.5" y2="742.8" fill="none" stroke="#000" stroke-miterlimit="10" stroke-width="1.42"/><line x1="147.8" y1="732.9" x2="147.8" y2="742.9" fill="none" stroke="#000" stroke-miterlimit="10" stroke-width="1.42"/><text transform="translate(110.8 726.4)" font-size="34.02" font-family="SimSun">0</text><text transform="translate(252.8 726.4)" font-size="34.02" font-family="SimSun">5</text><text transform="translate(387.6 726.4)" font-size="34.02" font-family="SimSun">10cm</text></g><g id="outline"><path d="M99.4,158.9h71.8c47.1-.1,43.2.1,54.3-.1,6.9-.1,18-.4,33.1-.3H399.9c51.4,0,77.1.1,87.6-.2,4-.1,13.1-.4,25.2-.3,4.3.1,5.2.2,13,.2,10.1.2,16.7.1,20.4.1H553" transform="translate(-35.3 -21.9)" fill="none" stroke="#000" stroke-linecap="round" stroke-linejoin="round" stroke-width="1.42"/><path d="M516.9,156.7c.1-1.9.3-4.8.5-8.4s.5-6.8.5-7.7c.6-7.8.7-14.6,1.1-23.3s.4-5.7,1.5-24.1c.9-13.1.8-13.3,1.4-23,1-13.4.8-7.4,2.1-23.3,0,0,.5-3.3,1-7.4s.7-6.2,1.9-8.3a12.7,12.7,0,0,1,3.3-3.9c2-1.6,4-2.2,7.7-3.4a30,30,0,0,1,9.9-1.2,3.2,3.2,0,0,1,2.2.8,3.9,3.9,0,0,1,1,2.8c.1,4.9.2,7.4.2,7.7s-.2,3.4-.4,7.5c0,0-.1,3.4-.2,7.4s-.1,8.5-.1,10.5c.4,21.8.8,26.1.5,36.8-.2,5.7-.4,7.7-.4,14.6-.1,4.6-.1,9.4.1,15.6s.5,4.9,1.1,14.1c.3,5.2.6,11.7,1,16,.2,1.5.3,2.3.4,3.9,0,0,.1,1.6.3,4,0,0,.1,1.5.1,2.5s-.1.2-.1.4v.9l-.3.3-.8.3-.8.2-2.1.6-5.5,2.2-4.3,1.5-4.7,1.3-2.8.9-1.5.6-1.8.5-1,.5c-.1.1-.1.3-.2,1.2v2.6c0,1.2.1,2.1.1,2.4,0,2.1,0,6.9.1,7.8,0,2.8-.1,5.3-.1,10.2-.2,8.4-.2,12.6-.5,15.6s-.3,3.6-.6,8-.4,5.2-.5,6.7c-.2,3.2-.3,5.5-.3,5.9-.8,15.1-3.2,29.9-3.2,29.9a223.5,223.5,0,0,1-5.4,25.3,113.1,113.1,0,0,1-5.8,17.1c-2.1,4.3-4,7.6-6.1,11.2-3.6,6-6.9,10.9-9.5,14.4" transform="translate(-35.3 -21.9)" fill="none" stroke="#000" stroke-linecap="round" stroke-linejoin="round" stroke-width="1.42"/><path d="M490.1,462.3c-.1,8.1-.1,12-.3,22.1,0,2.2,0,2.5-.1,8.3s-.3,12.3-.3,15.8-.1,7.7,0,20.9.4,39.8.4,50.2c-.1,2.5-.1,5-.2,7.7s-.3,6-.3,7.7c-.2,3.9-.2,9.9-.1,21.7,0,2.2,0,5.2.1,9.2.1,8.7.1,13,.2,13.8.1,2.7.3,5.6.1,9.8s-.9,5.8-1.8,6.7-3,1.4-6.8,1.9a87.9,87.9,0,0,1-11.5.4,20.9,20.9,0,0,1-6.2-1c-1.1-.4-3-1.6-6.4-9.3-.8-1.8-1.9-4.5-4.9-13.7-.9-2.7-1.7-5.1-2.8-8.6s-1.4-5.2-3.7-13-2.8-9.8-4-14.5l-2-7.9c-3.2-13.1-3.7-15.1-4.8-18.7s-2.3-7.3-2.3-7.3c-.6-1.8-1.3-3.9-1.8-5.7-1.3-3.9-1.7-4.8-2.2-6.6l-1.1-4.4c-1.1-4.1-.9-4-1.5-5.9-1.2-4.6-2.3-5.8-3.6-10.2a30.4,30.4,0,0,0-.9-3.2l-1.2-3.1-1.4-3.5-1.8-4.8c-1-2.8-1.5-4.9-2.9-10.2s-2.5-9.4-3.8-13.3c-.6-1.8-1.3-3.8-2.3-6.5s-2.1-4.7-3.4-8.2c-.3-.8-.9-2.4-2.6-7.5s-3.1-9.8-3.3-10.6c-2.3-7.5-5-13.8-10.1-25.7L382,419.8l-2.6-6.2c-.8-2-1-2.7-1.8-4.5l-1.8-4.2a29.9,29.9,0,0,1-1.6-4.2,10.3,10.3,0,0,1,1.6-6.5l2.6-3.1a21.2,21.2,0,0,1,2.6-2.6l1.5-1.1,2.6-2a63.6,63.6,0,0,1,6.3-4l1.7-1,3.2-1.3,3.4-1.8c.7-.4,1.9-.9,3.2-1.7l7-3.9,5.9-3.2,2.7-1.6a5.2,5.2,0,0,0,1.1-.7c.8-.6.9-.9,1.6-1.4l1.6-1,3.2-1.7a27.2,27.2,0,0,1,2.5-1.5l2.5-1.2,1.6-.8,2.4-1.3,3.7-2.3,3.7-2.7,2.6-1.9,5.7-3.5,4-2.5a36.3,36.3,0,0,0,4-3c2.5-2.1,3.1-2.7,6-5s3.3-2.8,4.4-3.6a68.5,68.5,0,0,1,5.9-3.9c1.7-1,.9-.4,5.5-2.8a13.4,13.4,0,0,1,3.4-1.5l2.6-.4h4c2.6,0,3.9.1,4.3.4s1,2,1.2,4.6c0,.5.1,1.1,0,3.9s-.1,3.4-.3,4.8c-.2,2.9-.5,5.1-.6,5.8-.4,3.2-.7,3.8-1.2,6.5a66.7,66.7,0,0,0-.7,7.4c-.9,12.5-1,11.1-1.2,15.4-.1,2.6-.2,5.8-.3,12-.2,9.8-.1,12.2-.3,19.5s-.2,5.3-.4,13.7-.2,9.4-.5,23.7C490.2,459.6,490.2,457.2,490.1,462.3Z" transform="translate(-35.3 -21.9)" fill="none" stroke="#000" stroke-linecap="round" stroke-linejoin="round" stroke-width="1.42"/><path d="M550.2,23.7l-.8,4.8c0,.5-.4,2.9-.7,5.9-.7,5.7-1.1,11.5-1.3,14.3-.5,6.8-.7,12.1-.8,14.3s-.3,6.8-.3,12.3,0,8.1-.1,13.9c-.1,3.7-.2,5.3-.3,8.9-.3,5.6-.4,11.8-.5,24.1-.1,8.9-.2,13.4-.2,16.8.1,8.1.3,14.7.4,19.2" transform="translate(-35.3 -21.9)" fill="none" stroke="#000" stroke-linecap="round" stroke-linejoin="round" stroke-width="1.42"/><path d="M142.5,326.1c.1,1.9.1,3.8.1,5.6" transform="translate(-35.3 -21.9)" fill="none" stroke="#000" stroke-linecap="round" stroke-linejoin="round" stroke-width="1.42"/><path d="M142.7,343.2c.2,15.3.5,28.3.7,38.6.4,14.7.7,23.3.9,28.3s.8,17.7,1.9,35.1c.4,7.1.7,10.7,1.1,16.1s.9,8.7,1.8,18.4c.5,6.2.5,6.4,1,11.5s.9,9.8,1.6,14.9c1,8,2,13.7,4.1,19.8a22.2,22.2,0,0,0,3.9,7.1c1.2,1.3,4.7,5.3,8.4,4.6.7-.1,2-1.2,4.5-3.3s4.9-4.1,6.1-6,1.3-2.5,1.9-3.7,1.1-2.4,1.3-3c2.1-4.8,6.5-16.1,7.9-19.6,2.1-5.6,1.8-4.5,3.4-8.6,2.6-6.8,4.3-11.9,5.4-15,3.7-11.2,6.4-19.3,9.4-27.5,3.7-10.5,3.6-9.6,7.8-21.4,2.6-7.3,3.2-9.3,6.6-18.9,2.3-6.4,3-8.1,4.9-13.5l2-5.6" transform="translate(-35.3 -21.9)" fill="none" stroke="#000" stroke-linecap="round" stroke-linejoin="round" stroke-width="1.42" stroke-dasharray="11.48 11.48"/><path d="M231.1,386.1l1.8-5.4" transform="translate(-35.3 -21.9)" fill="none" stroke="#000" stroke-linecap="round" stroke-linejoin="round" stroke-width="1.42"/><path d="M267.8,402.8l1.2,7.4c.5,3.6,1.4,8.8,2.4,15.4s1.7,11.5,2.2,15.6c.9,7,1.3,10.5,1.5,12.1s.3,3,.6,5,.9,3.9,1.3,7,.2,2.3.6,5.1.4,2.3,1,6.1,1,6.2,1.2,7.3.5,4,.5,4.2a43.6,43.6,0,0,0,.6,4.7,35,35,0,0,0,.8,4.7c.3,1.7.4,2,.7,3.5s.7,3.7.8,4.7c.7,4,1,5.4,1.9,10.2,1.2,6.7,2.1,12.1,2.5,14.8.8,4.6,1.4,8.7,2.2,14.2s1.3,9.7,1.5,11c.4,3.6.3,3.6.8,9.2s.8,9.1,1.5,14.8.8,4.8,1.3,9,.5,5.5,1.1,13c.5,5.7.8,9.5,1.4,14.6s1.4,10.3,1.6,11.2.3,1.3,1.8,8.9c.5,2.5,1.3,6.8,2.8,12.1a24.5,24.5,0,0,0,2.1,5c1,1.5,2.8,4.4,5.2,4.4a5.4,5.4,0,0,0,3.1-1.8,11.5,11.5,0,0,0,2.5-4.5c.4-1.1.7-1.9,1-3s.8-3.4,1.5-7.6c.1-.5.3-1.5.7-4.1s.8-5.3,1.2-8.4.8-7.5,1.1-10c.7-7.1,1-7,2.5-19.1,1.4-10.5,1.4-12.1,2.4-18.8.3-1.7.6-4,1.1-7.4s.5-4.7,1.1-9.1.6-4.2,1.2-8.2.6-5.1.7-6.3c.7-6.2,1-11.1,1.1-13.3.2-4.6,1.1-11.7,2.7-25.9.8-7.3,1.5-12.5,2.3-19.2l3.5-26.9c1.2-9,1.5-11.4,2.2-15.4,1-6.4,1.3-6.6,2.3-13.4s1.1-7.8,2-11.8c.3-1.4,1.1-4.7,2.1-8.6s1.1-4,1.5-6.1a50.5,50.5,0,0,0,1-6.8" transform="translate(-35.3 -21.9)" fill="none" stroke="#000" stroke-linecap="round" stroke-linejoin="round" stroke-width="1.42"/><path d="M46.8,30.1a29.8,29.8,0,0,1,4.8-.3,17.1,17.1,0,0,1,4.8.9,11.9,11.9,0,0,1,4.1,2.2A15.2,15.2,0,0,1,62,34.7a27,27,0,0,1,3.1,4.1,65.6,65.6,0,0,1,4.9,9c.7,1.4,1.8,3.6,3,6.5s2.7,7.1,3.6,9.5,2.2,6.7,4.1,13.2c.5,1.5.7,2.1,1.1,3.6,1,3.3,1.3,3.9,1.7,5.3s.3,1.6,1,5.1,1.4,6.4,1.7,7.4.6,2.6,1.2,4.6c0,0,1.5,5.6,2.7,10.6.4,1.6.4,1.8,2.1,10.4,1.1,5.7,2,10,2.7,13.5,1,5.1,1.5,7.5,1.7,8.2.7,3.3.7,3.4,1.1,5.6.8,3.9.8,4.1,1.2,5.8a43.4,43.4,0,0,1,1,4.3c.3,1.4.3,1.8.6,3.2l.3,1.5c.2,1.1.2,1.4.1,1.5s-.8.1-2.2-.5l-2.8-1.4L92,163.4l-1.1-.7a5.2,5.2,0,0,1-1.1-1,3.6,3.6,0,0,1-.6-2c-.2-2-.2-2.9-.2-3a42.1,42.1,0,0,0-.8-5.3c-1-5.6-.7-5.5-1.6-10.1s-1.2-6.2-1.8-8.9l-1.6-7.1c-.6-3.3-.7-3.8-1.4-7.2s-1.4-6.8-1.8-8.4-1.3-5.2-2.7-10.1c-.5-1.9-.4-1.4-2.1-7.4-.7-2.1-1.3-4.1-2-6.6-1.4-5-1.4-4.9-2.4-8.3s-.7-2.4-2.6-8.7l-1.9-6.4c-1.1-3.6-1.7-5.1-2.1-6.4s-1.2-3.2-2-4.8a23.5,23.5,0,0,0-2.9-5,12,12,0,0,0-5.2-4.1,9.4,9.4,0,0,0-4.1-.6" transform="translate(-35.3 -21.9)" fill="none" stroke="#000" stroke-linecap="round" stroke-linejoin="round" stroke-width="1.42"/><path d="M46.4,75.2l3.1,11.6c1.5,5.8,1.5,6.2,3,11.9,2.5,9.7,2.9,10.5,4.2,16.3.4,1.7,1.1,4.6,2.3,10.4,2,9.2,2.4,11.3,3.2,15.3s2.4,10.4,4.3,17.8" transform="translate(-35.3 -21.9)" fill="none" stroke="#000" stroke-linecap="round" stroke-linejoin="round" stroke-width="1.42"/><path d="M79.5,163.6c-.9-2.7-2.3-6.8-3.8-11.7-2.2-6.9-4-12.7-5.9-20.4-1.1-4.1-.8-3.6-2.5-10.9s-2.6-10.4-3.6-14.1C60.8,95,60.3,93.8,58.9,88s-2.1-10.1-2.6-13" transform="translate(-35.3 -21.9)" fill="none" stroke="#000" stroke-linecap="round" stroke-linejoin="round" stroke-width="1.42"/><path d="M79.1,163.4h5.4a54.5,54.5,0,0,0,6.4-.7" transform="translate(-35.3 -21.9)" fill="none" stroke="#000" stroke-linecap="round" stroke-linejoin="round" stroke-width="1.42"/><path d="M108.5,179.5h23.8c18.4,0,34.1-.1,50.7-.3,47.7-.4,56.5-.7,90.6-.9h31.1" transform="translate(-35.3 -21.9)" fill="none" stroke="#000" stroke-linecap="round" stroke-linejoin="round" stroke-width="1.42"/><path d="M309.5,177.6h47.4c41.8-.1,99.8-.6,114.4-.8h35.2l21.4.2" transform="translate(-35.3 -21.9)" fill="none" stroke="#000" stroke-linecap="round" stroke-linejoin="round" stroke-width="1.42"/><path d="M553.5,168.2c-18.9.3-45.8.5-78.2.5-18.1.1-16.2,0-52.6,0-44.7-.1-67.3,0-80.8.1l-32.4.2" transform="translate(-35.3 -21.9)" fill="none" stroke="#000" stroke-linecap="round" stroke-linejoin="round" stroke-width="1.42"/><path d="M309.7,403.4h-1.8c-13.5,0-17.7-.2-30.1-.3h-6.3l-7.6-.4c-3.3-.3-3.4-.5-7.3-.9l-5.7-.4-8.1-.8c.2-.5.3-1,.5-1.4s.5-1.3.8-1.9.9-2.1.9-2.4.1-1.4-1.2-3.4a14,14,0,0,0-1.2-1.8h4.6c2.7.1,4.8.3,6.6.5l3.9.5c1.4.1,4.7.4,8.9.5h4.7l17.8-.6h11l9.5-.2C309.7,395.4,309.7,399.8,309.7,403.4Z" transform="translate(-35.3 -21.9)" fill="url(#_10_lpi_10_)"/><path d="M122.9,331.4c.1,1,.1,1,.3,2.7s.1.6.1.8a33.7,33.7,0,0,1-5.8-6.3,49.1,49.1,0,0,1-3.1-5.4c-3.5-7.1-5.3-10.7-6.6-13.8a106.2,106.2,0,0,1-4.1-10.5c-.7-1.9-1.8-5.5-3-10.1A130.7,130.7,0,0,1,97,268.5c-.1-.4-.2-2.2-.5-5.6s-.3-4.2-.5-6.2-.4-4.8-.8-8.3-.7-7.2-.9-8.9-.4-3.8-1-19.1-.4-12.1-.7-17.9c0-1.7-.3-6.4-.3-10.2v-7.6c0-3.9-.1-4.3-.5-4.8a9,9,0,0,0-2.8-1.6l-1.9-1-4.4-2.1a43.9,43.9,0,0,0-5.3-2.2l-4.9-1.3a13,13,0,0,0-2.9-.7c-1.3-.2-1.7-.1-2.2-.5s-.4-.5-.6-2.8v-2c-.1-1.6-.2-2-.4-3.6s-.2-3.3.1-3.6,2.8.5,6.7,2.4,0-.2,6.3,2.7c4.6,2.1,7.6,3.5,11.8,5.6l7.1,3.8c3.9,2.3,2.9,2,5.2,3.2s4.9,2.4,4.9,3.3-.6.5-1.5,1.7a14.5,14.5,0,0,0-1,1.8,17.4,17.4,0,0,0-1.5,3.6c-.5,1.6-.7,3-.8,6.9s-.1,5.9-.1,5.9c0,6.4,0,9.6.1,11.5.2,4.6.4,6,.8,12.8.3,5.1.5,8.7.9,15.9.6,12.6.5,13.4,1,17.6.2,1.9.7,5.3,1.8,12.1s1.5,8.9,1.9,10.8c1,4.1,2,7.3,2.7,9.7.1.2,1.1,3.1,3,8.9.9,2.8,1.4,4.2,2,5.6a65.7,65.7,0,0,0,3,6.1c.5,1.1,1.5,2.9,3.2,6.1s2.5,4.6,4.3,7.6a11.8,11.8,0,0,1-2.8,1.2c-1.5.4-2.1.1-2.6.7s-.2.5-.2,2.4S122.8,330.7,122.9,331.4Z" transform="translate(-35.3 -21.9)" fill="url(#_10_lpi_10_)"/><path d="M49.4,75.2h-3c-.2-.1-.1-.4-.2-.9l-.3-1.4c-.1-.6-.2-1-.2-1.2s-.4-1.9-.5-2.7c-.6-2.5-.6-2.9-1.2-5.8L43,59c-.5-2-.8-3.4-1.3-5.2l-1-3.4c-1.6-5.1-1.8-5.3-2.4-7.7a35.9,35.9,0,0,1-1-4.1c0-.1-.3-1.4-.6-2.5a3,3,0,0,0-.3-.9c-.3-.7-.4-.8-.4-1.1s.1-.3,1.1-.8a3.6,3.6,0,0,1,1-.5l2.6-1,2.8-1,1.3-.3c1.7-.4,1.9-.5,2.2-.4a10,10,0,0,1,.7,1.8,8.5,8.5,0,0,0,.3.9,4.7,4.7,0,0,1,.4,1.5c.4,1.9.9,3.8,1.4,5.7s.5,2.5.6,3c.7,3,.9,4.1,1.1,4.8s.2,1.2.4,2.1.4,2.6.7,4.3.6,3.7.8,4.5c.5,2.8.7,4.1.9,5.1s.7,3.4,1,5a15.7,15.7,0,0,0,.3,2,4.4,4.4,0,0,1,.2,1.2l.3,1.8c.2.8.3,1,.2,1.2s-.5.1-1.5.1H49.4Z" transform="translate(-35.3 -21.9)" fill="url(#_10_lpi_10_)"/><path d="M242.6,389.6a14,14,0,0,1,1.2,1.8c1.3,2,1.3,2.9,1.2,3.4s-.1.4-.9,2.4-.5,1.2-.8,1.9-.3.9-.5,1.4-.9,2.4-1.5,4.1c-2.3,6.3-2.4,6.8-3.5,9.5s-1.1,2.6-1.8,4.3c-2,4.9-3.2,8.4-4.7,12.4-3,8.5-3.1,8.2-6.3,17.2-3.8,10.8-6.5,19.1-9.7,29s-5.7,17.7-10.7,33.9c-2.8,9.1-4.3,13.7-6.2,20.1-1.3,4.1-5.1,16.8-9.9,33.4-1.8,6.3-3.5,12-6.7,23.4-4.4,15.3-3.8,13.5-4.5,16-3.6,12-7,22.2-9.1,30-.5,2-1,3.9-1.6,5.8s-1.3,4.6-2.1,7.1c-1.3,4.1-1.9,5-2.3,5.6a21.6,21.6,0,0,1-3.3,3.2l-2.3,1.6-2.5,1.4a14.2,14.2,0,0,1-3.8.4,24.4,24.4,0,0,0-3.9.2,16.8,16.8,0,0,1-2.7.6,8.8,8.8,0,0,1-3.4,0,10.3,10.3,0,0,1-6.3-3,10,10,0,0,1-2.6-4.5,20.7,20.7,0,0,1-1.1-5.5,70.3,70.3,0,0,1-.3-9.4c0-3.6-.1-7.1,0-10.6s0-7.4-.1-17.2c-.1-18.7-.2-17.6-.3-28.2,0-15.3.2-18.5-.1-29.5-.1-3-.1-3.8-.3-11.3-.3-9.1-.4-16.5-.5-20-.2-7.5-.2-9.1-.4-29.4-.2-16.9-.4-25.6-.5-34.7-.3-14.1-.4-12.1-.5-19.4-.2-14.5.1-18.4-.2-33-.1-6.6-.2-10.9-.6-16.8-.2-3.9-.4-6.1-.7-12.1-.2-3.2-.2-3.5-.5-10-.4-8.1-.4-6.3-.6-11.9-.2-2.7-.5-9.9-.9-13.4,0-.4-.2-1.4-.3-3s-.2-1.4-.2-1.9-.1-.5-.1-.8-.2-1.7-.3-2.7-.1-1.5-.2-3,0-2.2.2-2.4,1.1-.3,2.6-.7a11.8,11.8,0,0,0,2.8-1.2l.6-.2a17.9,17.9,0,0,1,3.2-.4,9.1,9.1,0,0,1,3.8.6,71.5,71.5,0,0,1,9.6,3.1,49.1,49.1,0,0,1,8.4,4.9c2.5,1.7,2.8,2.2,6.7,5.1,0,0,3.8,3,8.1,6,6.1,4.2,6,3.7,11.7,7.6s6,4.5,12,8.6c1.2.8,3.2,2.2,6,3.8l5.1,2.7c5.3,2.8,6.7,3.2,11.4,5.5s3.2,1.8,7.9,4.2c7.4,3.7,7.6,3.4,10.4,5.3s3.8,3.1,7.7,6.7C241,387.8,241.8,388.5,242.6,389.6Z" transform="translate(-35.3 -21.9)" fill="none" stroke="#000" stroke-linecap="round" stroke-linejoin="round" stroke-width="1.42"/><path d="M242.8,400.5l8.1.8,5.7.4c3.9.4,4,.6,7.3.9l7.6.4h6.3c12.4.1,16.6.3,30.1.3h1.8l14.1-.2c7.4-.1,14.8-.3,23.4-.7,7-.3,16.1-.8,27-1.8" transform="translate(-35.3 -21.9)" fill="none" stroke="#000" stroke-linecap="round" stroke-linejoin="round" stroke-width="1.42"/><path d="M52.6,54.2c.4,2.4.6,3.7.8,4.5.5,2.8.7,4.1.9,5.1s.7,3.4,1,5a15.7,15.7,0,0,0,.3,2,4.4,4.4,0,0,1,.2,1.2l.3,1.8c.2.8.3,1,.2,1.2s-.5.1-1.5.1H46.4c-.2-.1-.1-.4-.2-.9l-.3-1.4c-.1-.6-.2-1-.2-1.2s-.4-1.9-.5-2.7c-.6-2.5-.6-2.9-1.2-5.8L43,59c-.5-2-.8-3.4-1.3-5.2l-1-3.4c-1.6-5.1-1.8-5.3-2.4-7.7a35.9,35.9,0,0,1-1-4.1c0-.1-.3-1.4-.6-2.5a3,3,0,0,0-.3-.9c-.3-.7-.4-.8-.4-1.1s.1-.3,1.1-.8a3.6,3.6,0,0,1,1-.5l2.6-1,2.8-1,1.3-.3c1.7-.4,1.9-.5,2.2-.4a10,10,0,0,1,.7,1.8,8.5,8.5,0,0,0,.3.9,4.7,4.7,0,0,1,.4,1.5c.4,1.9.9,3.8,1.4,5.7s.5,2.5.6,3c.7,3,.9,4.1,1.1,4.8s.2,1.2.4,2.1S52.3,52.5,52.6,54.2Z" transform="translate(-35.3 -21.9)" fill="none" stroke="#000" stroke-linecap="round" stroke-linejoin="round" stroke-width="1.42"/><path d="M128.3,324.1c-1.8-3-3.2-5.6-4.3-7.6s-2.7-5-3.2-6.1a65.7,65.7,0,0,1-3-6.1c-.6-1.4-1.1-2.8-2-5.6-1.9-5.8-2.9-8.7-3-8.9-.7-2.4-1.7-5.6-2.7-9.7-.4-1.9-.8-3.8-1.9-10.8s-1.6-10.2-1.8-12.1c-.5-4.2-.4-5-1-17.6-.4-7.2-.6-10.8-.9-15.9-.4-6.8-.6-8.2-.8-12.8-.1-1.9-.1-5.1-.1-11.5,0,0-.1-2.5.1-5.9s.3-5.3.8-6.9A17.4,17.4,0,0,1,106,183a14.5,14.5,0,0,1,1-1.8c.9-1.2,1.4-1.2,1.5-1.7s-2.1-1.7-4.9-3.3-1.3-.9-5.2-3.2l-7.1-3.8c-4.2-2.1-7.2-3.5-11.8-5.6-6.3-2.9-3.4-1.4-6.3-2.7s-5.9-3.1-6.7-2.4-.3,1.4-.1,3.6.3,2,.4,3.6v2c.2,2.3.4,2.6.6,2.8s.9.3,2.2.5a13,13,0,0,1,2.9.7l4.9,1.3a43.9,43.9,0,0,1,5.3,2.2l4.4,2.1,1.9,1a9,9,0,0,1,2.8,1.6c.4.5.5.9.5,4.8v7.6c0,3.8.3,8.5.3,10.2.3,5.8,0,1.7.7,17.9s.8,17.1,1,19.1.5,4.4.9,8.9.6,6.7.8,8.3.3,3.7.5,6.2.4,5.2.5,5.6a130.7,130.7,0,0,0,3.7,20.3c1.2,4.6,2.3,8.2,3,10.1a106.2,106.2,0,0,0,4.1,10.5c1.3,3.1,3.1,6.7,6.6,13.8a49.1,49.1,0,0,0,3.1,5.4,33.7,33.7,0,0,0,5.8,6.3" transform="translate(-35.3 -21.9)" fill="none" stroke="#000" stroke-linecap="round" stroke-linejoin="round" stroke-width="1.42"/><path d="M309.5,158.4v31.2c-.1,11-.1,15.1-.2,26.7v42.6c.1,19.8.4,21.1.4,37.8,0,2.7,0,10.5-.1,26.2,0,18.1,0,17.4-.1,25.5,0,18.1.1,30.8.1,33.8v8c.1,5.2.1,9.6.1,13.2h0" transform="translate(-35.3 -21.9)" fill="none" stroke="#000" stroke-linecap="round" stroke-linejoin="round" stroke-width="1.42"/><path d="M242.6,389.6h4.6c2.7.1,4.8.3,6.6.5l3.9.5c1.4.1,4.7.4,8.9.5h4.7l17.8-.6h11l9.5-.2" transform="translate(-35.3 -21.9)" fill="none" stroke="#000" stroke-linecap="round" stroke-linejoin="round" stroke-width="1.42"/><path d="M309.6,331.5h-6.3a47.4,47.4,0,0,0-4.8.6l-2.7.6a29.2,29.2,0,0,0-4.2,1.6,37.7,37.7,0,0,0-9.2,6.4,55.6,55.6,0,0,0-4.6,4.8,45,45,0,0,0-4.1,4.7,44.1,44.1,0,0,0-5.5,9.5,19.8,19.8,0,0,0-2,5.3,32.2,32.2,0,0,0-.1,5.9c0,3,.1,4.4.2,5.5a28.6,28.6,0,0,0,1.4,6.5,30.2,30.2,0,0,0,4.4,8.1" transform="translate(-35.3 -21.9)" fill="none" stroke="#000" stroke-linecap="round" stroke-linejoin="round" stroke-width="1.42"/><path d="M309.3,224.8l24.2-.2c64.5-.3,75.9.1,105.2-.6,6.9-.2,12.6-.4,22-.5,15.6-.2,22.6.1,40.4.1,6,0,14.8,0,25.7-.2" transform="translate(-35.3 -21.9)" fill="none" stroke="#000" stroke-linecap="round" stroke-linejoin="round" stroke-width="1.42"/><path d="M309.7,306.2h28c63,.2,68.9.6,101.5.4l42.4-.2,31.2.2" transform="translate(-35.3 -21.9)" fill="none" stroke="#000" stroke-linecap="round" stroke-linejoin="round" stroke-width="1.42"/><path d="M309.7,300.4l9.9.4h4.9c1,0,1.4,0,1.8-.3a2.3,2.3,0,0,0,.7-1.1,16.6,16.6,0,0,0,.5-2.1,5.7,5.7,0,0,0-.7-3.6,5.2,5.2,0,0,0-2.6-1.4c-.7-.1-.6.1-3.3-.1h-1.7a4.7,4.7,0,0,0-1.7.2,3.3,3.3,0,0,0-1.6.9,3,3,0,0,0-.7,1.3,2.7,2.7,0,0,0,.6,2.1,3.8,3.8,0,0,0,2.5,1.1,8.9,8.9,0,0,0,3.2-.1" transform="translate(-35.3 -21.9)" fill="none" stroke="#000" stroke-linecap="round" stroke-linejoin="round" stroke-width="1.42"/><path d="M309.3,231.2c2-.2,3.8-.4,5.1-.4h7c1.2.1,1.6.1,1.8.3a6.2,6.2,0,0,1-.1.9l-.2,1c0,.4-.1,1.1-.2,2.5v2.5l-.5.3-.8.2-1.2.4-1.2.4-1.3.6-3.8,1.3a16.7,16.7,0,0,0-4.6,2.2" transform="translate(-35.3 -21.9)" fill="none" stroke="#000" stroke-linecap="round" stroke-linejoin="round" stroke-width="1.42"/><path d="M507.4,231.9l-1.7-.2-1.9-.2c-.6,0-1-.1-1.1.1s-.4.8-.5,2.4-.1,1-.1,1.5a30.2,30.2,0,0,1-.5,4.7c-.2,1.3-.4,2.3-.7,3.6a29.3,29.3,0,0,1-.8,3.6c-.3,1-.5,1.2-.9,2.6s-.2.9-.6,2.4-.4,1.7-.2,2.1.7.4,1.5.6a11.1,11.1,0,0,0,2.6.2h2" transform="translate(-35.3 -21.9)" fill="none" stroke="#000" stroke-linecap="round" stroke-linejoin="round" stroke-width="1.42"/><path d="M501.5,240.9h1.7c1.8.2,2.7.3,3,.8s.2.7-.5,2.5a23.6,23.6,0,0,1-1.8,3.5" transform="translate(-35.3 -21.9)" fill="none" stroke="#000" stroke-linecap="round" stroke-linejoin="round" stroke-width="1.42"/><path d="M488,231.7a23.6,23.6,0,0,1-.4,7.7,30.2,30.2,0,0,1-1.1,3.9,12.6,12.6,0,0,1-1.3,2.6,5.9,5.9,0,0,1-2.6,2.8,12.7,12.7,0,0,1-3.1.4h-3.7l-2.3-.2h-1.7c-1.3,0-1.7,0-2-.3a2.5,2.5,0,0,1-.1-1.1v-4.3c0-.8-.1-1.3-.1-1.6,0-2-.1-2.9-.1-3.8v-2.5c-.1-.8-.2-1.5-.2-1.9s-.1-1-.2-1.4-.5-1.2-.3-1.4.6,0,1.8.1h7.3a13.3,13.3,0,0,1,2,0c1.1.1,1.6.1,2.1.5s.4.7.5,2.5a20.1,20.1,0,0,1-.1,3.7,8.2,8.2,0,0,1-.9,3.6,4.6,4.6,0,0,1-2.3,2c-1.8.6-3.5-.7-3.9-1s-2.1-1.6-1.9-3.2a3.4,3.4,0,0,1,1.8-2.4,4.7,4.7,0,0,1,3.3-.7" transform="translate(-35.3 -21.9)" fill="none" stroke="#000" stroke-linecap="round" stroke-linejoin="round" stroke-width="1.42"/><path d="M485.8,306.5a45,45,0,0,0,2.5-4.4,31.6,31.6,0,0,0,2.2-5,22.4,22.4,0,0,0,.4-2.3,3.1,3.1,0,0,0-.1-1.8c-.2-.3-.6-.7-3.4-.9h-2.9a12,12,0,0,0-4,.4,2.4,2.4,0,0,0-1.5.8,3.2,3.2,0,0,0-.7,2.9,4.1,4.1,0,0,0,1.5,2.7,4.3,4.3,0,0,0,2,.8,3.7,3.7,0,0,0,2.6-.8,2.1,2.1,0,0,0,.9-1.5,1.3,1.3,0,0,0-.3-.9c0-.2-.3-.6-.8-1a6.3,6.3,0,0,0-2.8-.8" transform="translate(-35.3 -21.9)" fill="none" stroke="#000" stroke-linecap="round" stroke-linejoin="round" stroke-width="1.42"/><path d="M384.5,299.9c-.1.1-.3.2-1.4.3H371.7c-2.7-.1-4.8,0-8.5.1s-2.5.1-7.6.3H343.3l-3.7-.2-3.1-.4a4.9,4.9,0,0,1-2.8-1.8,3.3,3.3,0,0,1-.2-2.6,2,2,0,0,1,.9-1.2,4.1,4.1,0,0,1,2.1-.7h6.1l2.4.2h3.5l4.9.2,8.6.2h20.4c1.1,0,1.7,0,2,.3s.2.5.2,1.2.1.4,0,1.4v1.4C384.6,299.6,384.6,299.7,384.5,299.9Z" transform="translate(-35.3 -21.9)" fill="none" stroke="#000" stroke-linecap="round" stroke-linejoin="round" stroke-width="1.42"/><path d="M377.6,282.3c-.3.3-.7.3-2.7.3h-8.7l-6.1-.3c-1.7,0-3.3-.2-5-.3s-2.5.1-3-.4-.6-.7-.5-4.6c0-.6,0-.4.1-2.2s.1-3.1.1-5,.1-1.7.1-2.2a16.2,16.2,0,0,1-.1-2.2c-.1-1.3-.1-1.9.2-2.3s1.4-.5,2.8-.5h10.5l4.6.2c6.2.2,7.6,0,8.2,1s-.1.8-.1,3.7a30.5,30.5,0,0,0,0,3.1v5.5c0,1-.1,1.9-.1,2.9S378.1,281.9,377.6,282.3Z" transform="translate(-35.3 -21.9)" fill="none" stroke="#000" stroke-linecap="round" stroke-linejoin="round" stroke-width="2.27"/><path d="M400.1,270.4a1.7,1.7,0,0,1-.4-1.2,1.9,1.9,0,0,1,.3-1.6,2.3,2.3,0,0,1,1.9-.8,4.4,4.4,0,0,1,2,.5,3.6,3.6,0,0,1,1.4,1.1,4.9,4.9,0,0,1,.8,1.3,3.2,3.2,0,0,1-1.3,3c-.7.6-1.8.6-4,.7h-2.3c-4.6-.2-4.9-.3-5.2-.6s-.6-2.1-.3-4.2a10.5,10.5,0,0,1,.9-3.2c.6-1,1.2-2.4,2.6-3.1s1.2-.3,3.2-.3l4.4.2,9.3.3h13.7c3.6-.3,4.8-.7,5.6-1.1a8.5,8.5,0,0,0,3.5-2.7,9,9,0,0,0,1.7-3.4,9.7,9.7,0,0,0,.6-3.4c.2-1.6.2-2.3-.1-2.8s-1.1-.5-3.7-.5h-3.4l-6.3.3c-2.9.1-3.4.2-3.8-.3s-.5-.9-.1-4.7c.1-2.1.2-2,.3-3.3s.2-2.5.2-5.2c0-1,.1-2,.1-3s-.2-2.3.2-2.7,1.4-.4,3.6-.4h23.2c5,.1,5,.2,7.2.1h3.4c2.4-.1,4-.3,4.4.5a5.1,5.1,0,0,1,.2,1.3,3.9,3.9,0,0,1,.1.9,56.5,56.5,0,0,0,.2,6.3,36.3,36.3,0,0,0,.2,3.8c.1,2.3.2,3.2.3,4.5a54.8,54.8,0,0,1,.1,6.9c0,3.6-.2,6.4-.3,8.2s-.2,2.3-.4,4.7c-.1.8-.2,2.1-.4,3.6a59.6,59.6,0,0,1-1.2,7c-.7,3.3-1.1,4.9-2.2,6s-1.6,1.4-5.6,2.1a55.5,55.5,0,0,1-10.2.8h-9c-5.6-.2-6.4-.4-12.8-.6l-8.4-.2H403.5l-3.8.2c-3.2.2-4.1.3-4.8.9s-.6,1.2-1.1,2.9a16.9,16.9,0,0,0-.9,4,13.9,13.9,0,0,0-.4,3.2c-.1,2-.1,3.2.7,3.8s.8.3,3.3.4h8.4c5.2,0,5.8-.2,6.2-.7s.6-1.4,1-3.5a29.3,29.3,0,0,0,.6-3.3c.4-2.6.4-3.1.1-3.4s-.5-.3-2.2-.5l-3.7-.2a29.9,29.9,0,0,1-3,0c-2.2,0-2.8-.1-3.3.5s-.4.6-.7,1.4-.3,1.6-.4,1.9c-.2,2-.4,3,.1,3.6s1.7.7,4,.8a5.6,5.6,0,0,0,2.2-.1,2.9,2.9,0,0,0,1.7-2.4,2,2,0,0,0-1-1.3,3,3,0,0,0-2.5-.6" transform="translate(-35.3 -21.9)" fill="none" stroke="#000" stroke-linecap="round" stroke-linejoin="round" stroke-width="1.42"/><path d="M436.8,257.9a15.3,15.3,0,0,1,1.1,4.2c.1,1.3,0,2.3,0,3.1a24.7,24.7,0,0,1-.5,3c-.1.7-.7,2.5-2.8,5.4s-3.8,5.1-6.6,6.3-3.2.6-6.7.7-4.2-.1-11.2-.3l-7.4-.2h-5.1a20,20,0,0,0-3.2.2,14.1,14.1,0,0,0-3.9,1.4c-2.3,1.1-2.6,1.9-6.6,4.7a17.2,17.2,0,0,1-2.5,1.4,15.7,15.7,0,0,1-2.9.9,11,11,0,0,1-3.1.1H370l-8.1-.3h-7.2l-13.2.2c-2.5.1-4.6.1-7.5,0l-4-.3a67.7,67.7,0,0,1-6.9-.4l-2.5-.5-1.2-.4c-1.2-.6-1.3-2.8-1.3-4.8,0-4.6,0-6.9.1-7.7.2-4.2.4-6.2.5-7.2.8-4.2,1.2-7,3.3-8.8a11,11,0,0,1,3.3-1.9l2.1-.4c1.6-.2,2.2,0,4.6-.1h6.7c2.8,0,3-.1,7.1-.3l7.2-.2h6l8.1.6,6.2.6,7.3-.2h12.6c13-.1,15,.1,18.9-.3l5.4-.7,4.7-.6c2.6-.4,7.2-.8,16.1-1.2" transform="translate(-35.3 -21.9)" fill="none" stroke="#000" stroke-linecap="round" stroke-linejoin="round" stroke-width="1.42"/><path d="M387.5,256.7c0,6.4,0,11.3-.1,13.7v3.4c-.1,1.6-.1,2.5-.1,3-.1,2.4-.2,3.6-.3,4.5a13.2,13.2,0,0,1-2.1,4.5" transform="translate(-35.3 -21.9)" fill="none" stroke="#000" stroke-linecap="round" stroke-linejoin="round" stroke-width="1.42"/><path d="M343.6,256c0,1.2-.1,3.1-.3,5.5-.2,4.3-.4,6-.7,11.3-.2,2.9-.3,4.4-.4,6.4-.2,4.1-.2,7.4-.2,9.7" transform="translate(-35.3 -21.9)" fill="none" stroke="#000" stroke-linecap="round" stroke-linejoin="round" stroke-width="1.42"/><path d="M343.4,261.2a27,27,0,0,1-3.5.8l-4.6.5a33.1,33.1,0,0,0-6.2,1.7,7.9,7.9,0,0,0-3.1,1.7,8.6,8.6,0,0,0-1.3,3.1c-.3,1.1-.1,1.3-.4,2.7s-.5,1.1-.8,2.3-.8,2.6-.4,3.8a5.3,5.3,0,0,0,1.5,2.4,8.6,8.6,0,0,0,3.4,1,20.8,20.8,0,0,0,4,.1c4.3-.1,4.8-.3,5.3-.8s.5-1.3.8-2.9a24.4,24.4,0,0,0,.2-3.5,7.8,7.8,0,0,0-.6-3.3,3.1,3.1,0,0,0-1.1-1.4c-1.2-.8-3.3-.2-4.2,1.1a3.3,3.3,0,0,0-.5,2.9,3.1,3.1,0,0,0,2.3,2.1" transform="translate(-35.3 -21.9)" fill="none" stroke="#000" stroke-linecap="round" stroke-linejoin="round" stroke-width="1.42"/><path d="M438,285.8a13.7,13.7,0,0,0-1.3,2.7,30,30,0,0,0-1.4,6.6c-.7,3.7-.7,4.5-1.5,5s-1.4.2-3.5.2H427a24.6,24.6,0,0,1-2.8.2c-2.1.2-3.2.2-3.6-.2s-.3-1.3-.2-3.4c0-.6,0-1.3.1-2.7v-2c0-1.4-.1-1.8.2-2.1s.7-.3,1.6-.2,1.1-.1,3.7,0h2.5c1.7.1,2.2.1,2.5.4s.4,1,.5,2.1a9.3,9.3,0,0,1-.3,2.6c-.2.5-.3.8-.6,1s-.5.3-1.9.4h-2.1c-.8,0-1.2,0-1.4-.2s-.4-1.5-.3-2.5a5.3,5.3,0,0,1,.4-1.6" transform="translate(-35.3 -21.9)" fill="none" stroke="#000" stroke-linecap="round" stroke-linejoin="round" stroke-width="1.42"/><path d="M382.4,230.3l-11-.3h-6.2c-4.9.1-5.9.5-11,.6H333.7c-.6-.1-.9-.1-1.1.1s-.1.2-.1.9v1.1a7.9,7.9,0,0,1,.1,1.4c.1,1.3.1,2.7.1,3.2.1,3.6,0,4.1.2,6.2a7.5,7.5,0,0,0,.7,2.9,5.5,5.5,0,0,0,.8,1.5,6.7,6.7,0,0,0,3.7,2.1l4.1.3H347l2.4-.3c1.1-.1,1.5-.1,1.7-.4s.2-.6.2-1.9a5.7,5.7,0,0,1,.1-1.3c.1-1.5.2-3.3.2-3.8.2-3.6.4-4.1-.1-4.5s-1-.3-2.6-.4h-5.6c-2.1-.2-2.7-.4-3.1,0s-.2.3-.2,2,.1,1.9.2,2.4.3,2.1.9,2.7a4.3,4.3,0,0,0,2.7,1h1.1c1,0,1.4,0,1.7-.3s.4-.4.3-2.5-.1-1.3-.1-1.7" transform="translate(-35.3 -21.9)" fill="none" stroke="#000" stroke-linecap="round" stroke-linejoin="round" stroke-width="1.42"/><path d="M381.7,235.4c-.1.5-.1,1.3-.2,2.3s-.2,1.8-.7,4.9-.5,3.1-.6,4.3-.1.9-.2,2.2-.2,2.6-.6,2.9-.5.3-2.1.3h-3c-2.5-.1-2.4.1-3.2,0a5.3,5.3,0,0,1-3-1.3,4.8,4.8,0,0,1-1.2-3.6,3.5,3.5,0,0,1,.9-2.2,3.5,3.5,0,0,1,1.9-1.3h3.6l1,.3c1.1.4,1.1.6,1.4.6s.6-.6,1.1-3.2.4-2.2.2-2.4-1-.4-3-.3H359.4c-.3.1-.4.4-.4,1.6a6.2,6.2,0,0,0-.1,1.3,15.5,15.5,0,0,1-.4,2.9s-.1,1.2-.2,2.6-.2,2.5-.3,3.8a32.8,32.8,0,0,1-.4,4.8" transform="translate(-35.3 -21.9)" fill="none" stroke="#000" stroke-linecap="round" stroke-linejoin="round" stroke-width="1.42"/><path d="M438.9,236H436l-1.8-.2a15.3,15.3,0,0,0-2.9-.1,6,6,0,0,0-2.6.5,4.2,4.2,0,0,0-2.3,3.7,4.3,4.3,0,0,0,1.8,3.2,6,6,0,0,0,3,.7,13.8,13.8,0,0,0,2.9.1,10.7,10.7,0,0,0,2.3-.3c1.2-.2,1.6-.6,1.9-.4s.1,1.9-.2,2.9a12.9,12.9,0,0,1-1.2,2.6" transform="translate(-35.3 -21.9)" fill="none" stroke="#000" stroke-linecap="round" stroke-linejoin="round" stroke-width="1.42"/><path d="M447.6,242.3a2.7,2.7,0,0,1,1.8,1.2,3.9,3.9,0,0,1,.3,2.8,4.9,4.9,0,0,1-.8,2.1,4,4,0,0,1-3.1,1.3,4.4,4.4,0,0,1-1.8-.1c-.6-.2-.9-.2-1.1-.4s-.5-1,0-3.3.4-1.7.7-3.1.3-2.6.3-3,.1-.9.1-1.9,0-2.7.2-3,.7-.2,2.7.1l3.7.4,2.4.2,2.5.2c2,0,2.5-.2,3,.2a3,3,0,0,1,.6,1.8,3.7,3.7,0,0,1,.1,1.4c-.3,3.8-.5,5.8-.6,7.8a37.6,37.6,0,0,1-.3,4,6.1,6.1,0,0,1-.2,1.5,10.1,10.1,0,0,1-.4,2,23,23,0,0,1-.7,3c-.3,1.2-.4,2.3-.8,4.3-1,5.7-.6,5.2-1.2,7.3a23.4,23.4,0,0,1-2.8,6.3,6.6,6.6,0,0,1-1.6,2.1c-.6.6-1.6,1.2-7.1,1.4a40.6,40.6,0,0,1-5,0h-3.9" transform="translate(-35.3 -21.9)" fill="none" stroke="#000" stroke-linecap="round" stroke-linejoin="round" stroke-width="1.42"/><path d="M453.3,235.6a31.1,31.1,0,0,1,.3,4.8c0,.5,0,.2-.2,3.8s-.2,2.9-.2,3.3,0,1.2-.1,1.8a11.8,11.8,0,0,1-.5,3.1,6.7,6.7,0,0,1-.7,1.7c-.4.6-.7.8-.8,1.4v2.3a26.6,26.6,0,0,1,0,4,18.4,18.4,0,0,1-.4,2.9,9.6,9.6,0,0,1-1.1,2.8l-1.9,2.4a17.7,17.7,0,0,1-1.7,2c-.6.5-2,1.4-2.6,1s-.2-1.2.2-3.6a45.4,45.4,0,0,0,.5-6,15.1,15.1,0,0,0,.1-2.9,16.2,16.2,0,0,0,0-3.2,20,20,0,0,0-.4-2.1" transform="translate(-35.3 -21.9)" fill="none" stroke="#000" stroke-linecap="round" stroke-linejoin="round" stroke-width="1.42"/><path d="M420.5,262.6a14.8,14.8,0,0,1,0,3c-.2,1.6-.4,2.9-1.2,3.4a5.4,5.4,0,0,1-2.7-.2,16.2,16.2,0,0,1-2.7-.8c-2.1-.8-2.8-1.7-3.3-1.4s-.2.3-.2,2.1a10.7,10.7,0,0,0,0,2.8,5.6,5.6,0,0,0,.4,2c.7.9,1.8,1,3.1,1.2a16.5,16.5,0,0,0,3-.1l3.2-.2,3.2-.4,3.1-.3c1.4-.1,1.9,0,2.6-.4a3,3,0,0,0,1.3-1.2,3.4,3.4,0,0,0,.7-1.3c.2-.8.7-2.2,0-3s-1.4-.7-2.9-.7a12.1,12.1,0,0,0-3.3.5" transform="translate(-35.3 -21.9)" fill="none" stroke="#000" stroke-linecap="round" stroke-linejoin="round" stroke-width="1.42"/><path d="M309.3,250.7a64,64,0,0,1,6.9-4,45.4,45.4,0,0,1,4.4-1.9c2.8-1.3,4-1.7,4.4-1.3s-.2.7-.5,2.5a17,17,0,0,0-.4,2.2c-.1,1.3-.1,1.8-.2,3.1s-.2,1.9-.4,3.1-.7,3.9-2.1,4.8a2.3,2.3,0,0,1-2.1.5c-.6-.2-.9-.6-1.4-1.3a6.7,6.7,0,0,1-1.2-3.1,7.6,7.6,0,0,1-.1-1.4,3.2,3.2,0,0,1,.2-1.5,3.5,3.5,0,0,1,1.1-1.1l1.4-1.2" transform="translate(-35.3 -21.9)" fill="none" stroke="#000" stroke-linecap="round" stroke-linejoin="round" stroke-width="1.42"/><path d="M414.8,256c.3-2.2.5-4.1.6-5.3.3-3.7.1-4.6.5-7.5a25.8,25.8,0,0,0,.3-3.2,17.6,17.6,0,0,0,.2-2.5,14.2,14.2,0,0,0-.2-3.2,5.6,5.6,0,0,0-1.3-2.7c-.7-.7-1.6-1-3.8-1.2a50.9,50.9,0,0,0-5.5-.1c-3.1-.1-3.9-.3-6.6-.2s-3.8.5-4.3,1.1-.3.8-.4,3.5a21.4,21.4,0,0,0,.1,4.9,5.4,5.4,0,0,0,.8,2.7,6.2,6.2,0,0,0,3.6,1.8,8.2,8.2,0,0,0,2.3.3,4.3,4.3,0,0,0,2.1-.5,2.4,2.4,0,0,0,.2-4.5c-1.2-.8-2.2-.3-2.5-.9s.5-1.5.9-2a3.5,3.5,0,0,1,2.2-.9,5.7,5.7,0,0,1,3.3.5,6.2,6.2,0,0,1,2.5,2.2,7,7,0,0,1,1.3,2.2,9.7,9.7,0,0,1,.3,2.6,8.8,8.8,0,0,1-.2,1.8,6.9,6.9,0,0,1-1.2,3.4c-.3.4-.9.8-4.7,1.1l-5.3.2a35.3,35.3,0,0,1-5.2-.2c-2.1-.2-3.1-.3-4-.9s-1.9-2.4-2.5-4.1a17.3,17.3,0,0,1-.9-4,39,39,0,0,1-.1-4v-5.5" transform="translate(-35.3 -21.9)" fill="none" stroke="#000" stroke-linecap="round" stroke-linejoin="round" stroke-width="1.42"/><path d="M486.3,279.4c-.2.3-.6.5-5.7.7h-3.8l-4,.2c-2.6.1-3.9.1-4.3-.1s-.3-1.8-.4-7.7c-.1-1,0-2.1-.1-3.1s-.4-3.4.2-3.9,1-.3,2.5-.3h2.7l4.7-.2c2.1-.1,1.6,0,3.9,0s3.9-.3,4.4.4.2.3.3,2a26.1,26.1,0,0,1,.2,2.9v3.5C486.9,277.2,486.9,278.9,486.3,279.4Z" transform="translate(-35.3 -21.9)" fill="none" stroke="#000" stroke-linecap="round" stroke-linejoin="round" stroke-width="2.27"/><path d="M464.7,257.1h4.6c4.6-.1,5.2,0,7.7-.2l5.2-.5,4.2-.2h3.1c2,0,2.2,0,2.4.2s.2.2.5,1.8a11.3,11.3,0,0,0,.2,1.4l.7,5.1a64.3,64.3,0,0,1,.2,6.5c.1,4.4-.1,3.6,0,6,0,0,0,2.5-.1,5a14.4,14.4,0,0,1-.1,1.8,8.6,8.6,0,0,1-.1,1.5c-.1.6-.2,1-.4,1.1s-.8.3-1.9.3h-2l-3.3.2-3.7.2-3.6.2-6.1.4-7.4.3c-4,.1-4,0-7.7.2l-5.5.3-4.4.2-3.4.4H443a3,3,0,0,0-1.2.3c-.3.2-.4.5-.8,1.4s-.7,1.7-.7,1.9c-.6,2-.9,3.4-.4,4.8a4.2,4.2,0,0,0,.9,1.4c1,1.1,2.2,1.3,4.2,1.7a12.7,12.7,0,0,0,3.7.3c1.7,0,2.5-.1,3.4-.7s1.5-1.1,1.3-2.3a1.3,1.3,0,0,0-.6-.9c-.5-.5-1.2-.5-2.7-.7a4.8,4.8,0,0,0-1.6-.1h-1.6a1.5,1.5,0,0,1-.6-1.1,1.4,1.4,0,0,1,0-1.3c.2-.3.5-.5,1.5-.8a11.9,11.9,0,0,1,2.4-.3h16.2" transform="translate(-35.3 -21.9)" fill="none" stroke="#000" stroke-linecap="round" stroke-linejoin="round" stroke-width="1.42"/><path d="M475.6,287.6c-.1.7-.3,1.8-.6,3s-.6,2.3-1,4.1c-.9,3.7-.5,4.1-1.3,5a5.9,5.9,0,0,1-3.7,1.5h-4.1a9.4,9.4,0,0,1-3.5-.4,2.1,2.1,0,0,1-1.1-.5c-.4-.5-.4-1-.3-2.1s.1-1.3.3-1.5.9-.4,2-.5h2.1a1.9,1.9,0,0,1,1.3.3c.4.3.4.8.3,1.8a7.2,7.2,0,0,1-.2,1.7" transform="translate(-35.3 -21.9)" fill="none" stroke="#000" stroke-linecap="round" stroke-linejoin="round" stroke-width="1.42"/><path d="M496.3,231.4a15.5,15.5,0,0,1,.9,4.9c0,.4-.1,1.1-.2,2.6s-.3,3.8-.4,4.6a20.3,20.3,0,0,1-1.2,4.3,37.7,37.7,0,0,1-3.8,8.4" transform="translate(-35.3 -21.9)" fill="none" stroke="#000" stroke-linecap="round" stroke-linejoin="round" stroke-width="1.42"/><path d="M310.7,224.8v81.4" transform="translate(-35.3 -21.9)" fill="none" stroke="#000" stroke-miterlimit="10" stroke-width="2.27"/></g></svg>