<svg xmlns="http://www.w3.org/2000/svg" xmlns:xlink="http://www.w3.org/1999/xlink" viewBox="0 0 673 1217.1"><defs><pattern id="_10_lpi_10_" data-name="10 lpi 10%" width="72" height="72" patternTransform="translate(-20 27.6) rotate(-45)" patternUnits="userSpaceOnUse" viewBox="0 0 72 72"><rect width="72" height="72" fill="none"/><line x1="71.8" y1="68.4" x2="144.3" y2="68.4" fill="none" stroke="#231815" stroke-width="0.57"/><line x1="71.8" y1="54" x2="144.3" y2="54" fill="none" stroke="#231815" stroke-width="0.57"/><line x1="71.8" y1="39.6" x2="144.3" y2="39.6" fill="none" stroke="#231815" stroke-width="0.57"/><line x1="71.8" y1="25.2" x2="144.3" y2="25.2" fill="none" stroke="#231815" stroke-width="0.57"/><line x1="71.8" y1="10.8" x2="144.3" y2="10.8" fill="none" stroke="#231815" stroke-width="0.57"/><line x1="71.8" y1="61.2" x2="144.3" y2="61.2" fill="none" stroke="#231815" stroke-width="0.57"/><line x1="71.8" y1="46.8" x2="144.3" y2="46.8" fill="none" stroke="#231815" stroke-width="0.57"/><line x1="71.8" y1="32.4" x2="144.3" y2="32.4" fill="none" stroke="#231815" stroke-width="0.57"/><line x1="71.8" y1="18" x2="144.3" y2="18" fill="none" stroke="#231815" stroke-width="0.57"/><line x1="71.8" y1="3.6" x2="144.3" y2="3.6" fill="none" stroke="#231815" stroke-width="0.57"/><line x1="71.8" y1="72" x2="144.3" y2="72" fill="none" stroke="#231815" stroke-width="0.57"/><line x1="71.8" y1="57.6" x2="144.3" y2="57.6" fill="none" stroke="#231815" stroke-width="0.57"/><line x1="71.8" y1="43.2" x2="144.3" y2="43.2" fill="none" stroke="#231815" stroke-width="0.57"/><line x1="71.8" y1="28.8" x2="144.3" y2="28.8" fill="none" stroke="#231815" stroke-width="0.57"/><line x1="71.8" y1="14.4" x2="144.3" y2="14.4" fill="none" stroke="#231815" stroke-width="0.57"/><line x1="71.8" y1="64.8" x2="144.3" y2="64.8" fill="none" stroke="#231815" stroke-width="0.57"/><line x1="71.8" y1="50.4" x2="144.3" y2="50.4" fill="none" stroke="#231815" stroke-width="0.57"/><line x1="71.8" y1="36" x2="144.3" y2="36" fill="none" stroke="#231815" stroke-width="0.57"/><line x1="71.8" y1="21.6" x2="144.3" y2="21.6" fill="none" stroke="#231815" stroke-width="0.57"/><line x1="71.8" y1="7.2" x2="144.3" y2="7.2" fill="none" stroke="#231815" stroke-width="0.57"/><line x1="-0.3" y1="68.4" x2="72.3" y2="68.4" fill="none" stroke="#231815" stroke-width="0.57"/><line x1="-0.3" y1="54" x2="72.3" y2="54" fill="none" stroke="#231815" stroke-width="0.57"/><line x1="-0.3" y1="39.6" x2="72.3" y2="39.6" fill="none" stroke="#231815" stroke-width="0.57"/><line x1="-0.3" y1="25.2" x2="72.3" y2="25.2" fill="none" stroke="#231815" stroke-width="0.57"/><line x1="-0.3" y1="10.8" x2="72.3" y2="10.8" fill="none" stroke="#231815" stroke-width="0.57"/><line x1="-0.3" y1="61.2" x2="72.3" y2="61.2" fill="none" stroke="#231815" stroke-width="0.57"/><line x1="-0.3" y1="46.8" x2="72.3" y2="46.8" fill="none" stroke="#231815" stroke-width="0.57"/><line x1="-0.3" y1="32.4" x2="72.3" y2="32.4" fill="none" stroke="#231815" stroke-width="0.57"/><line x1="-0.3" y1="18" x2="72.3" y2="18" fill="none" stroke="#231815" stroke-width="0.57"/><line x1="-0.3" y1="3.6" x2="72.3" y2="3.6" fill="none" stroke="#231815" stroke-width="0.57"/><line x1="-0.3" y1="72" x2="72.3" y2="72" fill="none" stroke="#231815" stroke-width="0.57"/><line x1="-0.3" y1="57.6" x2="72.3" y2="57.6" fill="none" stroke="#231815" stroke-width="0.57"/><line x1="-0.3" y1="43.2" x2="72.3" y2="43.2" fill="none" stroke="#231815" stroke-width="0.57"/><line x1="-0.3" y1="28.8" x2="72.3" y2="28.8" fill="none" stroke="#231815" stroke-width="0.57"/><line x1="-0.3" y1="14.4" x2="72.3" y2="14.4" fill="none" stroke="#231815" stroke-width="0.57"/><line x1="-0.3" y1="64.8" x2="72.3" y2="64.8" fill="none" stroke="#231815" stroke-width="0.57"/><line x1="-0.3" y1="50.4" x2="72.3" y2="50.4" fill="none" stroke="#231815" stroke-width="0.57"/><line x1="-0.3" y1="36" x2="72.3" y2="36" fill="none" stroke="#231815" stroke-width="0.57"/><line x1="-0.3" y1="21.6" x2="72.3" y2="21.6" fill="none" stroke="#231815" stroke-width="0.57"/><line x1="-0.3" y1="7.2" x2="72.3" y2="7.2" fill="none" stroke="#231815" stroke-width="0.57"/><line x1="-72.3" y1="68.4" x2="0.3" y2="68.4" fill="none" stroke="#231815" stroke-width="0.57"/><line x1="-72.3" y1="54" x2="0.3" y2="54" fill="none" stroke="#231815" stroke-width="0.57"/><line x1="-72.3" y1="39.6" x2="0.3" y2="39.6" fill="none" stroke="#231815" stroke-width="0.57"/><line x1="-72.3" y1="25.2" x2="0.3" y2="25.2" fill="none" stroke="#231815" stroke-width="0.57"/><line x1="-72.3" y1="10.8" x2="0.3" y2="10.8" fill="none" stroke="#231815" stroke-width="0.57"/><line x1="-72.3" y1="61.2" x2="0.3" y2="61.2" fill="none" stroke="#231815" stroke-width="0.57"/><line x1="-72.3" y1="46.8" x2="0.3" y2="46.8" fill="none" stroke="#231815" stroke-width="0.57"/><line x1="-72.3" y1="32.4" x2="0.3" y2="32.4" fill="none" stroke="#231815" stroke-width="0.57"/><line x1="-72.3" y1="18" x2="0.3" y2="18" fill="none" stroke="#231815" stroke-width="0.57"/><line x1="-72.3" y1="3.6" x2="0.3" y2="3.6" fill="none" stroke="#231815" stroke-width="0.57"/><line x1="-72.3" y1="72" x2="0.3" y2="72" fill="none" stroke="#231815" stroke-width="0.57"/><line x1="-72.3" y1="57.6" x2="0.3" y2="57.6" fill="none" stroke="#231815" stroke-width="0.57"/><line x1="-72.3" y1="43.2" x2="0.3" y2="43.2" fill="none" stroke="#231815" stroke-width="0.57"/><line x1="-72.3" y1="28.8" x2="0.3" y2="28.8" fill="none" stroke="#231815" stroke-width="0.57"/><line x1="-72.3" y1="14.4" x2="0.3" y2="14.4" fill="none" stroke="#231815" stroke-width="0.57"/><line x1="-72.3" y1="64.8" x2="0.3" y2="64.8" fill="none" stroke="#231815" stroke-width="0.57"/><line x1="-72.3" y1="50.4" x2="0.3" y2="50.4" fill="none" stroke="#231815" stroke-width="0.57"/><line x1="-72.3" y1="36" x2="0.3" y2="36" fill="none" stroke="#231815" stroke-width="0.57"/><line x1="-72.3" y1="21.6" x2="0.3" y2="21.6" fill="none" stroke="#231815" stroke-width="0.57"/><line x1="-72.3" y1="7.2" x2="0.3" y2="7.2" fill="none" stroke="#231815" stroke-width="0.57"/><line x1="71.8" x2="144.3" fill="none" stroke="#231815" stroke-width="0.57"/><line x1="-0.3" x2="72.3" fill="none" stroke="#231815" stroke-width="0.57"/><line x1="-72.3" x2="0.3" fill="none" stroke="#231815" stroke-width="0.57"/></pattern></defs><g id="scale-1:1"><path d="M508.7,1230.8v9.9H225.2v-9.9" transform="translate(-23.4 -24.3)" fill="none" stroke="#000" stroke-miterlimit="10" stroke-width="1.42"/><line x1="258.5" y1="1206.5" x2="258.5" y2="1216.4" fill="none" stroke="#000" stroke-miterlimit="10" stroke-width="1.42"/><line x1="315.2" y1="1206.5" x2="315.2" y2="1216.4" fill="none" stroke="#000" stroke-miterlimit="10" stroke-width="1.42"/><line x1="343.5" y1="1206.5" x2="343.5" y2="1216.4" fill="none" stroke="#000" stroke-miterlimit="10" stroke-width="1.42"/><line x1="286.8" y1="1206.5" x2="286.8" y2="1216.4" fill="none" stroke="#000" stroke-miterlimit="10" stroke-width="1.42"/><line x1="230.2" y1="1206.5" x2="230.2" y2="1216.4" fill="none" stroke="#000" stroke-miterlimit="10" stroke-width="1.42"/><text transform="translate(193.1 1200)" font-size="34.02" font-family="SimSun">0</text><text transform="translate(335.1 1200)" font-size="34.02" font-family="SimSun">5</text><text transform="translate(469.9 1200)" font-size="34.02" font-family="SimSun">10cm</text></g><g id="outline"><path d="M243.6,796.3c.8-2.4,1.1-3.5,1-4.4a1.7,1.7,0,0,0-.3-1,84.2,84.2,0,0,0,10.1,5.1c2.9,1.1,6.4,2.3,15.4,4.1s15.5,2.7,16.6,2.9c12.8,1.7,24,2.6,32.6,3.1,11.6.7,19.9,1.2,31.3.6,6-.3,10.9-.8,14.4-1.2,0,6.3.1,11.9.1,16.8-26.6.4-47.8.7-72-3.3a250.6,250.6,0,0,1-52.4-14.8c.6-1.6,1.3-3.1,1.9-4.6A21.1,21.1,0,0,0,243.6,796.3Z" transform="translate(-23.4 -24.3)" fill="url(#_10_lpi_10_)"/><path d="M94.1,677.4h0c-.3.7-.5,1.5-.8,2.3a27.4,27.4,0,0,0-1.3,8.4c-.1,4.8-.8,9.6-1.1,14.3a144,144,0,0,1-12.6-21.5c-3.3-7.2-5.4-13.2-9.6-25.2-2.6-7.5-3.9-11.3-5.6-17a351.3,351.3,0,0,1-7.8-34.5c-1-5.8-1.8-10.8-2.4-14.5S51.3,579,50.4,572s-1.3-12-2-19.8c-1.7-20.5-2.5-30.7-2.7-33-.9-15.9-1.5-24.5-1-36.5.2-4.7.5-7.9.8-17.2.4-11.2.3-13.6.5-20.2.4-11.5,1.3-19.8,3.1-36.1,1.4-13,1.7-13.3,2.7-23.6.5-5,.5-6.2,1.8-21,.6-6.2.9-9.9,1.4-14.8.3-2.9,1.2-10.9,1.9-15.1.1-.4.3-1.7.5-3.5s.2-1.7.4-3.7.5-4.3.5-4.4a2,2,0,0,1,.1-.7c0-.4.1-.5,0-.6s0-.4-.6-.8l-.7-.6a9.1,9.1,0,0,1-1.6-1.1l-3.7-2.4L46.4,314l-8.3-4.5-6.6-3.7-4.8-2.9-1.6-1-.4-.2c-.5-.2-.5-.2-.5-.3s-.1-.3-.1-.8.1-.4.1-.7v-1.2c0-.9.1-1.8.2-4.1v-2.9c.1-1.4.1-2.5.1-3.1a60,60,0,0,1,.1-6.1c0-2.7-.1-4-.2-7v-3.3A143.8,143.8,0,0,1,36,281.8c1.7,1.5,5.8,5.8,14,14.4,5.5,5.7,7,7.3,9,9.7l6.2,7.4,2.5,3c1.4,1.6,2,1.8,2.4,2.8a9.6,9.6,0,0,1,.2,3.7c0,1.9-.2,3.3-.2,3.9-.3,2.2-.4,3.3-.7,5.1s-.7,5.4-1.7,13.9c-.7,6-.6,5.8-1.9,18.1s-1.6,13.9-2,19.5-.3,6.4-.6,13.7c-.6,10.8-1.1,14.7-1.7,23.3s-.7,15.3-1,26.2c-.8,31,.5,35.7-.1,63.4-.1,3.7-.3,11.1,0,21.1,0,1.8.2,9,.9,18.7.4,5.9,1.1,15.2,2.5,26.7,2.1,16.4,4.4,28.4,5.3,33a184.9,184.9,0,0,0,4.8,20c1.4,4.4,1.5,4.1,4.8,13.7,4.8,13.8,5,15.7,7.4,20.8A82.1,82.1,0,0,0,94.1,677.4Z" transform="translate(-23.4 -24.3)" fill="url(#_10_lpi_10_)"/><path d="M44.2,118.9c.3-10.2.3-18.7.2-25.2-.2-15.8-1-22.9-1.2-25.1-.8-6.4-1.8-11.6-2.5-15.2a29.4,29.4,0,0,1,6.1-8.9c2.8-2.8,5.7-4.4,11.5-7.5a58.4,58.4,0,0,1,12.3-4.9c5.4-1.6,7.3-1.6,8.4-.6s.9.9,1.4,5.4a45.4,45.4,0,0,1,.5,5.6c.1-.5.1-2.7,1,17,.5,12.2.6,15.1.6,16.6s.1,3.4.1,7.1c.2,7.7.3,8.2.3,11-.1,7.9-1.1,10.6-1.9,11.8h0a16.9,16.9,0,0,0-5.6-5.3,18.4,18.4,0,0,0-9.7-2.3,19,19,0,0,0-9.1,2.7c-3.6,2.1-5.5,4.8-7.2,7a35.4,35.4,0,0,0-4.8,9.6C44.5,118.1,44.3,118.5,44.2,118.9Z" transform="translate(-23.4 -24.3)" fill="url(#_10_lpi_10_)"/><path d="M90.9,702.4c.3-4.7,1-9.5,1.1-14.3a27.4,27.4,0,0,1,1.3-8.4c.3-.8.5-1.6.8-2.3a9.4,9.4,0,0,1,2.5-3.9c.7-.6,2.6-2,10.1-2.2a56,56,0,0,1,10.2.6,83.7,83.7,0,0,1,22.3,7c9.9,5,16,11,22.9,17.9,1.8,1.8,5.8,6.4,13.9,15.5,6.4,7.2,9.6,10.9,13.5,15.6,5.2,6.3,9.1,11.4,12.7,16,7.6,9.9,7.3,10,11.8,15.5,1.8,2.2,5.3,6,12.2,13.8a86.9,86.9,0,0,0,8.9,9.1l3.6,3.2c3.5,3,5.1,4.2,5.6,5.4a1.7,1.7,0,0,1,.3,1c.1.9-.2,2-1,4.4a21.1,21.1,0,0,1-1.3,3.3c-.6,1.5-1.3,3-1.9,4.6-1.3,3.2-2.6,6.4-4,9.6s-2.6,6.3-4,9.4c-4.6,11-8.5,21.4-14.4,36.9l-10.5,27.3c-3.6,9.3-6.1,15.5-13,33.3-15.1,38.7-14.9,38.2-15.1,38.6-9.8,25.9-17.4,47.8-20.8,57.6-6.5,19-6.4,19.7-10.7,31.2-2.5,7.1-5,13.5-8,23.3-2,6.9-3.5,11.8-3.5,11.8-2.8,9.9-3.4,12.4-5,16-.3.8-1.4,3.1-2.5,6.4-.2.3-.6,1.7-1.4,4-2.2,7.1-1.9,8.1-3.2,9.9s-3.5,2.9-5.7,3.9-3.5,1.4-12.9,1.6H97.5l-11.2-.2c-2.2-.3-10.7-1.6-13.8-7.3-1.3-2.4-.4-3.2,1.3-20.3.3-4,.6-6.8.7-8.6.4-4.4.5-7.7.7-11.2.6-10.3.9-17.3.9-17.3l1-22.7c.9-17.5,1.4-17.4,2.2-33.3.5-9.5.2-7.5,1-29.4.3-8.6.6-15.3,1.2-28.8.1-3.2.5-12.4,1.1-25.9,1-22.1,1-20.5,1.4-30.3s1.1-24.7,1.6-42.8c.4-15.3.3-16.3.7-29.2.1-2.4.5-13.2,1.2-27.7.1-2.2.2-4.6.8-15.6,1.5-29.1,1.4-26.5,1.5-29.3.5-10.9.8-27.6,1-39.4,0-1.1,0-2.2.1-3.2" transform="translate(-23.4 -24.3)" fill="none" stroke="#000" stroke-miterlimit="10" stroke-width="1.42"/><path d="M240.4,804.2A250.6,250.6,0,0,0,292.8,819c24.2,4,45.4,3.7,72,3.3h1.8c9-.2,15.4-.5,19.5-.8s8-.6,31.6-3.3,26.3-3.1,32.2-4.6c3.1-.9,6.3-1.9,12.6-3.4s9.5-2,13.6-3.4a53.6,53.6,0,0,0,12.3-6" transform="translate(-23.4 -24.3)" fill="none" stroke="#000" stroke-linecap="round" stroke-linejoin="round" stroke-width="1.42"/><path d="M359.4,292c.1,29.9.3,54.2.4,71.2.2,24.1.4,44.2.5,57.5.1,6.9.2,25.7.5,48.9.5,51.6,1.1,102.9,1.4,127.1,1,78.8,1.1,86.3,1.7,135.4.3,29.2.6,54.3.8,73.4,0,6.3.1,11.9.1,16.8" transform="translate(-23.4 -24.3)" fill="none" stroke="#000" stroke-linecap="round" stroke-linejoin="round" stroke-width="1.42"/><path d="M244.3,790.8h0a84.2,84.2,0,0,0,10.1,5.1c2.9,1.1,6.4,2.3,15.4,4.1s15.5,2.7,16.6,2.9c12.8,1.7,24,2.6,32.6,3.1,11.6.7,19.9,1.2,31.3.6,6-.3,10.9-.8,14.4-1.2" transform="translate(-23.4 -24.3)" fill="none" stroke="#000" stroke-linecap="round" stroke-linejoin="round" stroke-width="1.42"/><path d="M80.9,42.5h0c.1-.5.1-2.7,1,17,.5,12.2.6,15.1.6,16.6s.1,3.4.1,7.1c.2,7.7.3,8.2.3,11-.1,7.9-1.1,10.6-1.9,11.8l-.5.6a37.1,37.1,0,0,0-3.1,2.8,29.3,29.3,0,0,0-2.9,3.1,26.1,26.1,0,0,0-3,5.8,35.2,35.2,0,0,0-1.7,8.8c-.5,5.3-.6,8.7-.7,12-.3,5.8-.6,8.3-1,13s-.4,8.2-.6,25.1c-.1,14.8-.1,23.7-.5,35.1-.2,7.8-.3,7.1-.4,12-.1,8.7.1,11.1.2,28.3v16.5c-.1,4.6-.2,8.4-.3,11.1" transform="translate(-23.4 -24.3)" fill="none" stroke="#000" stroke-linecap="round" stroke-linejoin="round" stroke-width="1.42"/><path d="M90.9,702.5h0a144,144,0,0,1-12.6-21.5c-3.3-7.2-5.4-13.2-9.6-25.2-2.6-7.5-3.9-11.3-5.6-17a351.3,351.3,0,0,1-7.8-34.5c-1-5.8-1.8-10.8-2.4-14.5S51.3,579,50.4,572s-1.3-12-2-19.8c-1.7-20.5-2.5-30.7-2.7-33-.9-15.9-1.5-24.5-1-36.5.2-4.7.5-7.9.8-17.2.4-11.2.3-13.6.5-20.2.4-11.5,1.3-19.8,3.1-36.1,1.4-13,1.7-13.3,2.7-23.6.5-5,.5-6.2,1.8-21,.6-6.2.9-9.9,1.4-14.8.3-2.9,1.2-10.9,1.9-15.1.1-.4.3-1.7.5-3.5s.2-1.7.4-3.7.5-4.3.5-4.4a2,2,0,0,1,.1-.7c0-.4.1-.5,0-.6s0-.4-.6-.8l-.7-.6a9.1,9.1,0,0,1-1.6-1.1l-3.7-2.4L46.4,314l-8.3-4.5-6.6-3.7-4.8-2.9-1.6-1-.4-.2c-.5-.2-.5-.2-.5-.3s-.1-.3-.1-.8.1-.4.1-.7v-1.2c0-.9.1-1.8.2-4.1v-2.9c.1-1.4.1-2.5.1-3.1a60,60,0,0,1,.1-6.1c0-2.7-.1-4-.2-7V262.7c-.1-5.6-.1-8.3,0-11.2v-9.6c0-4.2-.1-4.8-.1-8.5,0-1.7.1-4.7.2-8.2s.4-5.9.6-10.2.3-8,.4-10.8c.1-7.4.5-11.3,2.1-37,.5-8.3.8-12.5,1-16.9.7-12.2,1.1-19.2,1.5-28.8.2-5.7.2-8.8.6-15.9s.4-9.8.7-13.1a127.6,127.6,0,0,1,3-20.7,80.5,80.5,0,0,1,2.8-9.4c1.2-3.3,2.2-6.3,3.5-9a29.4,29.4,0,0,1,6.1-8.9c2.8-2.8,5.7-4.4,11.5-7.5a58.4,58.4,0,0,1,12.3-4.9c5.4-1.6,7.3-1.6,8.4-.6s.9.9,1.4,5.4a45.4,45.4,0,0,1,.5,5.6" transform="translate(-23.4 -24.3)" fill="none" stroke="#000" stroke-linecap="round" stroke-linejoin="round" stroke-width="1.42"/><path d="M36.5,275.2c.1-11.6.2-25.2.3-37.5.2-26.3.3-31.9.5-39.8,0,0,.3-15.1,1.9-44.2.1-1.5.4-7,1.3-14.1.5-4.6,1.1-8.3,1.8-12.1a60.5,60.5,0,0,1,1.9-8.6c.1-.4.3-.8.4-1.2a35.4,35.4,0,0,1,4.8-9.6c1.7-2.2,3.6-4.9,7.2-7a19,19,0,0,1,9.1-2.7,18.4,18.4,0,0,1,9.7,2.3A16.9,16.9,0,0,1,81,106" transform="translate(-23.4 -24.3)" fill="none" stroke="#000" stroke-linecap="round" stroke-linejoin="round" stroke-width="1.42"/><path d="M40.7,53.4c.7,3.6,1.7,8.8,2.5,15.2.2,2.2,1,9.3,1.2,25.1.1,6.5.1,15-.2,25.2" transform="translate(-23.4 -24.3)" fill="none" stroke="#000" stroke-linecap="round" stroke-linejoin="round" stroke-width="1.42"/><path d="M24.4,272.2A143.8,143.8,0,0,1,36,281.8c1.7,1.5,5.8,5.8,14,14.4,5.5,5.7,7,7.3,9,9.7l6.2,7.4,2.5,3c1.4,1.6,2,1.8,2.4,2.8a9.6,9.6,0,0,1,.2,3.7c0,1.9-.2,3.3-.2,3.9-.3,2.2-.4,3.3-.7,5.1s-.7,5.4-1.7,13.9c-.7,6-.6,5.8-1.9,18.1s-1.6,13.9-2,19.5-.3,6.4-.6,13.7c-.6,10.8-1.1,14.7-1.7,23.3s-.7,15.3-1,26.2c-.8,31,.5,35.7-.1,63.4-.1,3.7-.3,11.1,0,21.1,0,1.8.2,9,.9,18.7.4,5.9,1.1,15.2,2.5,26.7,2.1,16.4,4.4,28.4,5.3,33a184.9,184.9,0,0,0,4.8,20c1.4,4.4,1.5,4.1,4.8,13.7,4.8,13.8,5,15.7,7.4,20.8a82.1,82.1,0,0,0,8,13.5" transform="translate(-23.4 -24.3)" fill="none" stroke="#000" stroke-linecap="round" stroke-linejoin="round" stroke-width="1.42"/><path d="M646.4,1112.8a23.3,23.3,0,0,1-4.7,3.6c-5.2,2.9-10.2,3.1-14.7,3.2l-7.4-.3c-6-.3-7.8-.3-9.3-1.8a14.3,14.3,0,0,1-2.3-3.7,14,14,0,0,1-1.2-3.4c-.3-.8-1.1-2.9-2.6-7.1s-2.4-5.8-4.2-10c-3.1-7.5-4.7-11.2-6-15.1-.3-.8-1.5-4.8-3.8-12.6-1.9-6.1-2.3-7.7-3.3-10.8-.2-.4-1.7-5.1-3.5-10.3-3.5-9.8-7-18-8.3-21.1s-5.2-13.6-11.9-32.2l-13-36.2c-8.1-22.7-10.6-29.7-14.7-39.5S529,900,529,900c-5.4-12.6-5.7-12.7-7.4-17.2s-1-3.1-6.2-18.4c-2.5-7.4-3-8.7-3.4-9.8s-1.1-2.8-6.1-14.6l-4.1-9.7c-1-2.3-2.2-4.8-3.6-7.7-4-8.7-5.3-10-7.9-16.3s-2.6-7.5-2.2-10.4a19.4,19.4,0,0,1,1.7-5.8c.7-1.5,1.6-2.8,5-7.1,1.4-1.8,1.4-1.6,6.5-7.5,2.5-2.9,3.3-3.9,5.7-6.5s2.5-2.9,3.6-4c3.1-3.4,3.6-3.6,6.5-6.7a66.3,66.3,0,0,0,5.9-6.9c1.7-2.4,1.4-2.5,3.1-4.7s1.9-2.2,5.6-6.3l4.4-5,4.9-5.7,10.1-11.5c6.7-7.4,6.3-6.3,12.6-13.3s7.9-9,9.6-11.6a31.9,31.9,0,0,1,4.2-5.7,37.8,37.8,0,0,1,5.7-4.9c1.4-1.1,2-1.5,5.6-4,6.5-4.6,6.4-4.6,7.7-5.3a39.8,39.8,0,0,1,8.4-3.6,39,39,0,0,1,13.6-2.6c3,0,5.1,0,7.7,1s5.9,3.6,8.9,6.7,4.5,4.5,5.3,7.1.7,3.6.4,8.6c-.1,3.4-.1,6.9-.4,10.3-.4,6.8-.3,11.8-.3,18.9,0,5.4.1,9.2.4,15.8.4,9.8.8,17.3.9,18.8,1.2,19.1,2.1,40.9,2.2,43.9.5,13.6,1.3,31.9,1.4,55.5,0,7.6,0,15.8.1,32,0,4.5.1,15.1.6,27.9.1,4.5.3,7.8.4,11,.4,7.7.9,13,1.1,16.6s1.3,16.5,1.6,29.7c.3,10.6-.1,10.7.1,25.2.1,11.2.4,19.4.7,27.4.2,3.6,1.1,28.5,2.3,41.5.2,1.8.6,5.7.8,11.1.1,1.8,0,1.7.2,7.4s.3,5.9.3,7.8c0,5.5-.3,7.6-.5,8.5a25.9,25.9,0,0,1-1.1,4.9A22.3,22.3,0,0,1,646.4,1112.8Z" transform="translate(-23.4 -24.3)" fill="none" stroke="#000" stroke-miterlimit="10" stroke-width="1.42"/><path d="M24.4,272.2a111.4,111.4,0,0,0,12.9,3.4,124,124,0,0,0,12.5,1.9c8.7,1.2,17.5,2.6,35.1,5.6l11.7,2,14.9,2.4c9.2,1.3,12.9,1.6,15,1.7l7,.3,13.3.2h16.5c4.8.1,6.5.3,11.8.5,13.2.5,15.2.2,28,.6,5.1.1,3.2.1,20,.9l23.6,1.1c6.7.2,7.1,0,28.6-.1,11.9,0,17.9-.1,23.9,0,15.3.1,15.7.5,25.3.4s11.7-.5,28-1c13.7-.4,24.3-.4,30.1-.5,19,0,20.1.4,33.4.1,7.5-.2,13.9-.6,22.6-1l22.3-1.3,16.2-1c24.2-1.7,26.3-2.2,38.3-2.9,9.9-.6,17-.8,31.2-1s23.2-.2,36.3-1.4l11.9-1.1c4.6-.4,13.3-1.2,24.5-1.9l9-.6c6.2-.6,6.7-.9,13.1-1.5l16.6-1.4,8.2-.8,4.7-.6,6.2-1,3.8-.6,8.1-1.1,2.1-.2c2.5-.1,3-.2,3.3.2s.3.8.3,2.5,0-1.6.2,2.8.2,4.7.3,7.9.2,2.8.2,4.3a12.1,12.1,0,0,0,.1,1.9c0,.6.1,1.2.1,2.1v1c.1.7.1.9,0,1.1s-.3.3-.8.6l-1.4.9-1.5,1.1-3.2,2.5c-1.5,1.2-2,1.7-3.8,3.3l-3.8,3.2c-3.9,3.3-4,3.3-5.4,4.6l-3.6,3.4c-2.7,2.7-2.8,2.9-3.5,3.2s-1.4.1-5.7.2h-2.1l-9,.3c-2.7.1-9,.2-16.4.8l-9.5.8-9.5.9s-7.5.7-17.2,1.3c-16.5,1-20.5.2-40.2,1.1l-17.6,1-25.7,1.3-7,.3c-4,.3-4.2.5-7.2.6H480.6c-4.4,0-7.1.2-10.6.4-9.4.5-9.7.1-27.4.5-9.5.3-9.9.4-14.9.4-7.8,0-8.4-.3-13.2,0s-6.6.6-12.3.7H387l-8.5.2h-6.1a64.1,64.1,0,0,1-7.1-.5,25.6,25.6,0,0,1-3.7-.5" transform="translate(-23.4 -24.3)" fill="none" stroke="#000" stroke-linecap="round" stroke-linejoin="round" stroke-width="1.42"/><path d="M359.5,311.7l5.7.7c4.6.4,8.6.6,12.3.6,5.5.1,6.9-.1,17.2-.5l15-.3c3.7-.2,9.4-.4,16.7-.9l10-.6,8.1-.2h9.1c9.4,0,19.4-.6,28.5-1.1l14.9-1,19.9-1c34-1.6,37.6-1.8,43.5-2.4l14.3-1.3c12-1.1,12-.9,20.8-1.7s12.3-1.4,20.7-2l10.1-.5c14.9-.5,22.1-1.3,35.3-2,8-.5,19.6-1,34-1.2" transform="translate(-23.4 -24.3)" fill="none" stroke="#000" stroke-linecap="round" stroke-linejoin="round" stroke-width="1.42"/><path d="M669.1,318.7c.2,5,.4,12.4.7,21.5.1,4.8.2,9.7.3,11.9.1,5.8.3,13.8,0,44.7-.2,16.2-.3,24.3-.4,31.9-.2,10.5-.4,14.8-.5,25.2s0,10.2-.1,21.4-.2,10.2-.5,27.8c-.2,11.4-.2,12.8-.3,18-.3,8-.6,10.7-1,19.7-1.1,18.9-.6,20.8-1.7,37.7-.5,7.7-.9,12.8-1.5,18s-.3,2.7-2,15.2-1.8,14.7-2.9,19.1a110.3,110.3,0,0,1-3.5,10.9c-2.1,5.8-3.1,7.4-6.6,16.1-1,2.4-2.2,5.4-3.5,9.1-2.3,6.5-3.9,12-4.9,16" transform="translate(-23.4 -24.3)" fill="none" stroke="#000" stroke-linecap="round" stroke-linejoin="round" stroke-width="1.42"/><path d="M360.1,394.7l22-1.2c13.6-.8,17.8-1.1,24.5-1.3,9.7-.3,16.6-.2,23,0,0,0,15.1.2,47.9.3,26.3.2,22.7-.5,54.2-.6,19.9,0,25.9.3,49.5.1,16.6-.1,25.2-.3,33.8-.7l16.3-.7c9.5-.5,14.3-.7,18.1-.7s12.1-.1,20.7.3" transform="translate(-23.4 -24.3)" fill="none" stroke="#000" stroke-linecap="round" stroke-linejoin="round" stroke-width="1.42"/><path d="M669.7,425.9c-3.3-.3-8-.7-13.5-.9-2-.1-7.2-.2-16.8-.1l-20.6.6-21.8.9c-10.9.3-10.6,0-32.4.2-15.6.2-23.3.3-32.5.6l-15.5.6-18.8.4c-13.8.2-17.8-.1-29.4-.1-3.6,0-20.7,0-42.1,1.1l-26.2,1.3-18.4.9c-9,.3-16.4.2-21.3.1" transform="translate(-23.4 -24.3)" fill="none" stroke="#000" stroke-linecap="round" stroke-linejoin="round" stroke-width="1.42"/><path d="M360.8,469.6c4.6,0,11.6-.1,20.1-.4,12.3-.5,14-1,25.4-1.5,14.1-.6,25.4-.5,32.2-.5,10.3.1,10.8.3,21.6.4,5.7,0,12.4,0,29-.3,26.4-.6,26.7-.9,44.8-1.1,15.3-.3,29.9-.3,31.3-.3,11,.1,15.3.2,25.3,0,7.6,0,5.7-.1,22.2-.4,23.3-.5,19.6-.2,30.3-.5,3-.1,6.4-.2,11.2-.1s11.5.4,14.9.7" transform="translate(-23.4 -24.3)" fill="none" stroke="#000" stroke-linecap="round" stroke-linejoin="round" stroke-width="1.42"/><path d="M540.8,284.7c-.1-2.7-.3-6.9-.6-11.9-.5-8.4-1.1-12.7-1.8-20.7-.5-6.3-.7-10.6-1.2-18.8-.6-10.8-.9-17.5-1.3-29.2-1-25.2-1-20.9-1.4-32.7,0,0-.6-20.5-.2-48.4,0-2.5.1-6.3.4-11.1s.9-6.8,1.6-13.8.4-7.7,1.3-17.4c.1-1.3.4-3.7,1-8.5s1-7.6,1.8-9.7a25.3,25.3,0,0,1,3.8-6,46,46,0,0,1,5.4-5.9,121.5,121.5,0,0,1,9.4-8.3c6.6-5.2,9.9-7.8,14.6-10.2A65.1,65.1,0,0,1,586,27.2a70.2,70.2,0,0,1,10.6-1.9,65.4,65.4,0,0,1,14.6.3c5.1.6,11.1,1.4,18,5a39.2,39.2,0,0,1,13,10.7c2.8,3.6,4.1,6.8,6.6,13A143.6,143.6,0,0,1,655,74.7a189,189,0,0,1,4.2,22.5c.7,5.8.6,6.9,1.5,14.7.4,3.5.9,7,2.3,16,2.6,16.1,3.8,24.1,5.4,32.5s2.2,10.3,3.1,16.8c.4,3.1.6,4.7,1.6,13.6,1.4,13,1.4,11.9,1.8,15.9.3,2.4,1.3,12.3,2.1,25.5.3,5.7.8,12.8.9,22.1s.1,14.6,0,19.9" transform="translate(-23.4 -24.3)" fill="none" stroke="#000" stroke-linecap="round" stroke-linejoin="round" stroke-width="1.42"/><path d="M560.7,41a54.6,54.6,0,0,1,20.6-6.9,57.3,57.3,0,0,1,18.2.6c6.6,1.1,10.8,1.8,15.1,5.1s4.6,4.5,7.5,9.1A86.9,86.9,0,0,1,631.3,68c1.2,3.6,2.4,7.8,4.8,19.6,1.5,7.9,2.3,12.8,4.8,28.6,3.5,22,3.8,24.1,4.6,29.6,1.3,9.5,2.1,16.7,2.6,21.9,1.9,17.2,2.8,29.1,2.9,31.7s.4,4.9.7,9.8c1.1,20.3,1.2,36.9,1.1,47.5,0,5.3-.1,12.2-.4,20.4" transform="translate(-23.4 -24.3)" fill="none" stroke="#000" stroke-linecap="round" stroke-linejoin="round" stroke-width="1.42"/><path d="M574.5,283.9c-.6-4.9-1.4-11.7-2.3-19.7-1.5-13.4-2.5-23.8-3.4-32.3-1.7-18.2-1.4-16.4-2.5-27.2s-1.8-14.9-2.2-22.5c-.4-5.3-.2-5.7-.6-21.1s-.5-18.4-.4-27c.2-13.4,1-18.2,3.6-23.3a38.2,38.2,0,0,1,7-9.4c3-2.9,7.1-7.1,13.7-8.9,3.3-.9,6.7-.7,13.6-.4a37,37,0,0,1,9.7,1.5,22.4,22.4,0,0,1,7.3,3.6c1.8,1.5,3.4,3.6,5.7,10.1a102.9,102.9,0,0,1,4.5,17.8c.4,2.6,1.2,7.4,1.7,13.4.3,3.4.3,4.1.5,7.9.6,8.7,1.3,11.1,2,18.6.5,5.1.2,4.2.8,15.6s1,12.9,1.3,20.1c.5,9.8.4,16.9.4,21.8-.1,10.4,0,27.4,1,56.2" transform="translate(-23.4 -24.3)" fill="none" stroke="#000" stroke-linecap="round" stroke-linejoin="round" stroke-width="1.42"/><path d="M589.8,283c-.4-3.2-1-8-1.5-13.8-.9-9.8-1.1-15.4-1.5-23.2-1-19.7-2-19.9-2.9-39-.3-5.4-.4-10.8-.7-21.7s-.5-19.3-.6-26.4c0-3.8-.1-9.6,0-17,.1-15.5.6-17.8,1.3-20a41.4,41.4,0,0,1,9.9-15.6,40.7,40.7,0,0,1,5.6-4.5,45.6,45.6,0,0,1,15-6.8" transform="translate(-23.4 -24.3)" fill="none" stroke="#000" stroke-linecap="round" stroke-linejoin="round" stroke-width="1.42"/><path d="M70.1,319.1c17.2-.1,30.3-.3,39.4-.5,11.9-.3,17.5-.6,26.5.1,4.5.4,7.9.8,14.5,1s6.7,0,15.6.1l14.2.3c6.6.1,10.8,0,17.4-.1s-5.6.1,26.5-.4c29.7-.5,44.5-.7,55.6-1,16.1-.4,15.9-.5,22.3-.5,12.4,0,19,.4,36.3.8l21.1.3" transform="translate(-23.4 -24.3)" fill="none" stroke="#000" stroke-linecap="round" stroke-linejoin="round" stroke-width="1.42"/><path d="M363.4,688.5a53.7,53.7,0,0,0-13.3-.1c-11.9,1.4-20.3,6.7-24.5,9.4a69.8,69.8,0,0,0-9.1,7,67.9,67.9,0,0,0-11.9,14.4,81.9,81.9,0,0,0-9.2,19,75.2,75.2,0,0,0-3.4,28,55.6,55.6,0,0,0,.7,7.6,81.9,81.9,0,0,0,4.2,16.2,80.9,80.9,0,0,0,7.2,15" transform="translate(-23.4 -24.3)" fill="none" stroke="#000" stroke-linecap="round" stroke-linejoin="round" stroke-width="1.42"/><path d="M296,819.5a129.6,129.6,0,0,0,.9,14.4c.6,5.5,1.3,9.6,1.5,11.1,1.7,9.4,3.9,24.7,8.3,55.2,2.7,19.2,2.9,21.7,5,35,1.5,9.3,2,11.3,3.8,22.4.6,3.6,2.1,12.6,5.7,36.7,2.4,16,2.9,20,6.7,45.7.8,5.5,2.7,17.9,5.1,31.6,0,0,1.5,8.5,4,20,.1.9.8,4.2,1.9,8.5s1.2,4.7,1.8,6.8c1.6,5.2,2.5,7.9,4.6,9.8a13.2,13.2,0,0,0,4.6,2.5c2.1.7,3.6.8,9.3,1l7.6.3c5,.1,7.4.1,10.1-.5s5.9-1.4,8.7-4,3.5-5.1,4.9-9.2a49.3,49.3,0,0,0,2.1-9.4c.8-5.8.9-9.2,1.3-14.6.6-7.9,1.3-13.9,2-21s.7-5,1.5-11.6c1.4-12.7,1.3-14.8,2.5-24.8.8-6.5,1.5-11.3,2.4-17.2s2.1-12.8,3.3-20.1c2.6-14.4,4.7-24.9,5.6-29.8,2.9-14.6,5.1-28.5,9.4-56.5,3.7-23.9,5.5-35.8,6.6-44.8.5-3.7,1.4-11.8,3.2-22.8,1.3-7.6,2.5-13.8,3.4-17.9" transform="translate(-23.4 -24.3)" fill="none" stroke="#000" stroke-linecap="round" stroke-linejoin="round" stroke-width="1.42"/><path d="M102.5,671.6c.2,2,.5,4,.7,5.9" transform="translate(-23.4 -24.3)" fill="none" stroke="#000" stroke-linecap="round" stroke-linejoin="round" stroke-width="1.42"/><path d="M104.7,689.5c11.9,95.6,16.4,134.2,17.7,147.5,1,11.2,3,22.3,3.8,33.5a152.7,152.7,0,0,0,2.7,18.2c3,13.8,6,17.2,8.4,19.1.8.7,6.2,4.8,12.3,3.5,4-.8,6.3-3.5,11-9.3,11.4-13.9,13-16.4,13-16.4,14.9-23.1,22.3-34.6,26.7-42.4s6.7-12.3,12.6-23.6,10.6-20.4,14.6-28.5" transform="translate(-23.4 -24.3)" fill="none" stroke="#000" stroke-linecap="round" stroke-linejoin="round" stroke-width="1.42" stroke-dasharray="12.05 12.05"/><path d="M230.3,785.8q1.3-2.8,2.7-5.4" transform="translate(-23.4 -24.3)" fill="none" stroke="#000" stroke-linecap="round" stroke-linejoin="round" stroke-width="1.42"/></g></svg>