<svg xmlns="http://www.w3.org/2000/svg" xmlns:xlink="http://www.w3.org/1999/xlink" viewBox="0 0 881 1352.5"><defs><pattern id="_10_lpi_10_" data-name="10 lpi 10%" width="72" height="72" patternTransform="translate(-6 59.1) rotate(-45)" patternUnits="userSpaceOnUse" viewBox="0 0 72 72"><rect width="72" height="72" fill="none"/><line x1="71.8" y1="66.6" x2="144.3" y2="66.6" fill="none" stroke="#231815" stroke-width="0.57"/><line x1="71.8" y1="52.2" x2="144.3" y2="52.2" fill="none" stroke="#231815" stroke-width="0.57"/><line x1="71.8" y1="37.8" x2="144.3" y2="37.8" fill="none" stroke="#231815" stroke-width="0.57"/><line x1="71.8" y1="23.4" x2="144.3" y2="23.4" fill="none" stroke="#231815" stroke-width="0.57"/><line x1="71.8" y1="9" x2="144.3" y2="9" fill="none" stroke="#231815" stroke-width="0.57"/><line x1="71.8" y1="59.4" x2="144.3" y2="59.4" fill="none" stroke="#231815" stroke-width="0.57"/><line x1="71.8" y1="45" x2="144.3" y2="45" fill="none" stroke="#231815" stroke-width="0.57"/><line x1="71.8" y1="30.6" x2="144.3" y2="30.6" fill="none" stroke="#231815" stroke-width="0.57"/><line x1="71.8" y1="16.2" x2="144.3" y2="16.2" fill="none" stroke="#231815" stroke-width="0.57"/><line x1="71.8" y1="1.8" x2="144.3" y2="1.8" fill="none" stroke="#231815" stroke-width="0.57"/><line x1="71.8" y1="70.2" x2="144.3" y2="70.2" fill="none" stroke="#231815" stroke-width="0.57"/><line x1="71.8" y1="55.8" x2="144.3" y2="55.8" fill="none" stroke="#231815" stroke-width="0.57"/><line x1="71.8" y1="41.4" x2="144.3" y2="41.4" fill="none" stroke="#231815" stroke-width="0.57"/><line x1="71.8" y1="27" x2="144.3" y2="27" fill="none" stroke="#231815" stroke-width="0.57"/><line x1="71.8" y1="12.6" x2="144.3" y2="12.6" fill="none" stroke="#231815" stroke-width="0.57"/><line x1="71.8" y1="63" x2="144.3" y2="63" fill="none" stroke="#231815" stroke-width="0.57"/><line x1="71.8" y1="48.6" x2="144.3" y2="48.6" fill="none" stroke="#231815" stroke-width="0.57"/><line x1="71.8" y1="34.2" x2="144.3" y2="34.2" fill="none" stroke="#231815" stroke-width="0.57"/><line x1="71.8" y1="19.8" x2="144.3" y2="19.8" fill="none" stroke="#231815" stroke-width="0.57"/><line x1="71.8" y1="5.4" x2="144.3" y2="5.4" fill="none" stroke="#231815" stroke-width="0.57"/><line x1="-0.3" y1="66.6" x2="72.3" y2="66.6" fill="none" stroke="#231815" stroke-width="0.57"/><line x1="-0.3" y1="52.2" x2="72.3" y2="52.2" fill="none" stroke="#231815" stroke-width="0.57"/><line x1="-0.3" y1="37.8" x2="72.3" y2="37.8" fill="none" stroke="#231815" stroke-width="0.57"/><line x1="-0.3" y1="23.4" x2="72.3" y2="23.4" fill="none" stroke="#231815" stroke-width="0.57"/><line x1="-0.3" y1="9" x2="72.3" y2="9" fill="none" stroke="#231815" stroke-width="0.57"/><line x1="-0.3" y1="59.4" x2="72.3" y2="59.4" fill="none" stroke="#231815" stroke-width="0.57"/><line x1="-0.3" y1="45" x2="72.3" y2="45" fill="none" stroke="#231815" stroke-width="0.57"/><line x1="-0.3" y1="30.6" x2="72.3" y2="30.6" fill="none" stroke="#231815" stroke-width="0.57"/><line x1="-0.3" y1="16.2" x2="72.3" y2="16.2" fill="none" stroke="#231815" stroke-width="0.57"/><line x1="-0.3" y1="1.8" x2="72.3" y2="1.8" fill="none" stroke="#231815" stroke-width="0.57"/><line x1="-0.3" y1="70.2" x2="72.3" y2="70.2" fill="none" stroke="#231815" stroke-width="0.57"/><line x1="-0.3" y1="55.8" x2="72.3" y2="55.8" fill="none" stroke="#231815" stroke-width="0.57"/><line x1="-0.3" y1="41.4" x2="72.3" y2="41.4" fill="none" stroke="#231815" stroke-width="0.57"/><line x1="-0.3" y1="27" x2="72.3" y2="27" fill="none" stroke="#231815" stroke-width="0.57"/><line x1="-0.3" y1="12.6" x2="72.3" y2="12.6" fill="none" stroke="#231815" stroke-width="0.57"/><line x1="-0.3" y1="63" x2="72.3" y2="63" fill="none" stroke="#231815" stroke-width="0.57"/><line x1="-0.3" y1="48.6" x2="72.3" y2="48.6" fill="none" stroke="#231815" stroke-width="0.57"/><line x1="-0.3" y1="34.2" x2="72.3" y2="34.2" fill="none" stroke="#231815" stroke-width="0.57"/><line x1="-0.3" y1="19.8" x2="72.3" y2="19.8" fill="none" stroke="#231815" stroke-width="0.57"/><line x1="-0.3" y1="5.4" x2="72.3" y2="5.4" fill="none" stroke="#231815" stroke-width="0.57"/><line x1="-72.3" y1="66.6" x2="0.3" y2="66.6" fill="none" stroke="#231815" stroke-width="0.57"/><line x1="-72.3" y1="52.2" x2="0.3" y2="52.2" fill="none" stroke="#231815" stroke-width="0.57"/><line x1="-72.3" y1="37.8" x2="0.3" y2="37.8" fill="none" stroke="#231815" stroke-width="0.57"/><line x1="-72.3" y1="23.4" x2="0.3" y2="23.4" fill="none" stroke="#231815" stroke-width="0.57"/><line x1="-72.3" y1="9" x2="0.3" y2="9" fill="none" stroke="#231815" stroke-width="0.57"/><line x1="-72.3" y1="59.4" x2="0.3" y2="59.4" fill="none" stroke="#231815" stroke-width="0.57"/><line x1="-72.3" y1="45" x2="0.3" y2="45" fill="none" stroke="#231815" stroke-width="0.57"/><line x1="-72.3" y1="30.6" x2="0.3" y2="30.6" fill="none" stroke="#231815" stroke-width="0.57"/><line x1="-72.3" y1="16.2" x2="0.3" y2="16.2" fill="none" stroke="#231815" stroke-width="0.57"/><line x1="-72.3" y1="1.8" x2="0.3" y2="1.8" fill="none" stroke="#231815" stroke-width="0.57"/><line x1="-72.3" y1="70.2" x2="0.3" y2="70.2" fill="none" stroke="#231815" stroke-width="0.57"/><line x1="-72.3" y1="55.8" x2="0.3" y2="55.8" fill="none" stroke="#231815" stroke-width="0.57"/><line x1="-72.3" y1="41.4" x2="0.3" y2="41.4" fill="none" stroke="#231815" stroke-width="0.57"/><line x1="-72.3" y1="27" x2="0.3" y2="27" fill="none" stroke="#231815" stroke-width="0.57"/><line x1="-72.3" y1="12.6" x2="0.3" y2="12.6" fill="none" stroke="#231815" stroke-width="0.57"/><line x1="-72.3" y1="63" x2="0.3" y2="63" fill="none" stroke="#231815" stroke-width="0.57"/><line x1="-72.3" y1="48.6" x2="0.3" y2="48.6" fill="none" stroke="#231815" stroke-width="0.57"/><line x1="-72.3" y1="34.2" x2="0.3" y2="34.2" fill="none" stroke="#231815" stroke-width="0.57"/><line x1="-72.3" y1="19.8" x2="0.3" y2="19.8" fill="none" stroke="#231815" stroke-width="0.57"/><line x1="-72.3" y1="5.4" x2="0.3" y2="5.4" fill="none" stroke="#231815" stroke-width="0.57"/></pattern></defs><g id="scale-1:1"><path d="M632.2,1357.3v10H348.7v-10" transform="translate(-49.2 -15.4)" fill="none" stroke="#000" stroke-miterlimit="10" stroke-width="1.42"/><line x1="356.3" y1="1341.9" x2="356.3" y2="1351.8" fill="none" stroke="#000" stroke-miterlimit="10" stroke-width="1.42"/><line x1="412.9" y1="1341.9" x2="412.9" y2="1351.8" fill="none" stroke="#000" stroke-miterlimit="10" stroke-width="1.42"/><line x1="441.3" y1="1341.9" x2="441.3" y2="1351.8" fill="none" stroke="#000" stroke-miterlimit="10" stroke-width="1.42"/><line x1="384.6" y1="1341.9" x2="384.6" y2="1351.8" fill="none" stroke="#000" stroke-miterlimit="10" stroke-width="1.42"/><line x1="327.9" y1="1341.9" x2="327.9" y2="1351.8" fill="none" stroke="#000" stroke-miterlimit="10" stroke-width="1.42"/><text transform="translate(290.8 1335.4)" font-size="34.02" font-family="SimSun">0</text><text transform="translate(432.8 1335.4)" font-size="34.02" font-family="SimSun">5</text><text transform="translate(567.7 1335.4)" font-size="34.02" font-family="SimSun">10cm</text></g><g id="outline"><path d="M125.2,246.6l24,.2c44.5.2,77.7-.3,90-.4,47.1-.6,94.3-.7,141.4-1.1,96.6-.8,95.7-.6,142.8-1.1l99.1-1,76.9-.8c87-.6,122.5-.4,144.2-.9,3.9-.1,15.8-.5,31.6-.3h54.2" transform="translate(-49.2 -15.4)" fill="none" stroke="#000" stroke-linecap="round" stroke-linejoin="round" stroke-width="1.42"/><path d="M846.8,241.4c.1-2.8.1-7.4,0-12.9,0-8.3-.2-11.5-.2-18.5s.1-3.7.2-15.7c0-9.2,0-17.8.4-25.2,0-.3.1-2.1.2-4.4.3-4.9.3-6.3.5-9.4.1-1.5.1-2.9.3-6.9.6-13.2.5-11.9.6-13.8.5-7.2.8-8.2,1.8-20.9.1-.7.3-3.6.7-7.6s.4-4.7.5-5.9c.4-4.4.9-7.8,1.3-10.8s.8-4.9,1.2-7.6c1-6.2,1.8-10.7,3-16.6a97.2,97.2,0,0,1,2.2-9.9,101.5,101.5,0,0,1,4.3-12,68,68,0,0,1,4-7.8,52.3,52.3,0,0,1,4.8-7.1,22.9,22.9,0,0,1,12.4-9,41.1,41.1,0,0,1,7.9-2l8-.7,7.9-.3h7.7a8.2,8.2,0,0,1,2.2.2,4.1,4.1,0,0,1,1.5.5l1.2.7c.6.4.5.5,1,.9s1.1.4,1.7.9a3.3,3.3,0,0,1,1,1.2,30,30,0,0,1,2.3,7.2c.7,3,.8,3.9.9,4.3s.3,2.9.4,3.9a36.8,36.8,0,0,1,.2,3.9c.2,8,.1,13.9.1,13.9V69.4c0,2.1.1,7.9.1,19.5,0,9,.1,10.6.1,13.6,0,7.1-.1,8-.1,13.7,0,11.6.1,12.7.2,25.3,0,8.1-.1,7.5-.1,14.2,0,10,.2,11.6.2,20.5.1,5.4,0,11-.1,22.2s-.1,13.7-.1,20.6.1,5.7.2,12.3v16.6c0,5.2-.1,8.6-.1,13.6,0,1.2,0,4.9.1,7.4V275c-.1.5-.1.8-.2.9s-.4.2-1.5.3h-9.1l-24.7.7-19.2.3-30.9.4-59.4.8c-7.7.2-20.9.4-37.2.5h-9.4c-14.7,0-18.6-.1-28.2.1l-9,.2-18.3.4-11.3.2-28.8.3-19.8.2c-23.8.2-47.2.6-75.4,1.1l-31.2.4H489.3" transform="translate(-49.2 -15.4)" fill="none" stroke="#000" stroke-linecap="round" stroke-linejoin="round" stroke-width="1.42"/><path d="M68.1,26a73.2,73.2,0,0,1,11.7,1.8,59.4,59.4,0,0,1,11.1,3.5c5,2.3,9.6,4.3,13,9.1,2.3,3,3.2,6.1,4.5,9.9s1.2,4.7,2,8.5c1.1,5.4,1.5,9.5,1.7,10.9.3,3.2.3,4.5.6,9.4.5,7.9,1,14.4,1.5,20s.7,6.6,1,10.6.3,5.7.6,10.1.6,7.8.9,10.9c.7,8.1.5,9,1.4,21.7l1.6,21.2c.5,7.3.9,11.9,1.3,16.3,2.1,26.2,3.1,39.3,4,52.8.1,2.7.5,9.3,1.2,18.4.3,4.9.7,8.9.8,11.3" transform="translate(-49.2 -15.4)" fill="none" stroke="#000" stroke-linecap="round" stroke-linejoin="round" stroke-width="1.42"/><path d="M891.5,17.7a36.5,36.5,0,0,1,3.4,8.7,47.6,47.6,0,0,1,1,7.7,95.5,95.5,0,0,1,.2,10.8c-.1,6.9-.1,10.3-.3,14.4s-.4,5-1.5,17.1c-.7,8-1.1,12.1-1.5,17.5-.1,2.3-.3,6.2-.8,14-.6,11.7-.7,14.4-1.2,20.6s-.5,7.2-.7,10.5c-.9,12.4-1.2,20.5-1.6,29.1-.9,19.9-1.6,21.2-2.9,44.6-.7,11.6-1.1,21.4-1.3,28.6" transform="translate(-49.2 -15.4)" fill="none" stroke="#000" stroke-linecap="round" stroke-linejoin="round" stroke-width="1.42"/><path d="M894.2,77.8a10.3,10.3,0,0,0-1.4-3.9,7,7,0,0,0-1.9-2.1,6.8,6.8,0,0,0-3.6-1,8.1,8.1,0,0,0-3,.6,6.1,6.1,0,0,0-2,1.3,9.3,9.3,0,0,0-2.3,3.9c-.3,1.1-.4,1.9-.7,3.5s-.3,2.3-.4,2.5c-.2,2.6-.6,4.4-1.8,13.6s-1.6,12.6-1.9,15.5c-.5,5.8-.3,6.3-1.1,14.6-.3,3.7-.6,6.5-.9,10.2-.9,8.3-1.1,9.7-1.5,14.7-.2,2.1-.3,4.4-.6,8.9-.3,6.3-.6,11-.6,12-.3,6.9-.5,10.4-.6,14.5s0,7.7.1,13.7c.1,8.5.3,8.2.2,12.9s-.1,6.2-.1,11.1c.1,2.7.1,3.6.2,7.1s.2,7.6.2,9.7" transform="translate(-49.2 -15.4)" fill="none" stroke="#000" stroke-linecap="round" stroke-linejoin="round" stroke-width="1.42"/><path d="M52.1,77.9a18.4,18.4,0,0,1,6.5,4.9A19.7,19.7,0,0,1,62,88.2a20.9,20.9,0,0,1,1.4,4.3,75.2,75.2,0,0,1,1.6,8.6c.3,2.3.4,5.6.7,12.2,0,.8.1,2.5.2,3.8.5,13.8.6,35.2.6,35.2.1,9,.3,16.7.7,32.1.5,18.5.9,23.1,1.4,42.1.3,12,.5,21.7.6,27.7" transform="translate(-49.2 -15.4)" fill="none" stroke="#000" stroke-linecap="round" stroke-linejoin="round" stroke-width="1.42"/><path d="M84,76.8a27,27,0,0,1,4.5,5.4,26.7,26.7,0,0,1,1.7,3.2c1,2.1,1.7,4.4,2.5,9.5.5,3.3.8,5.7,1,8,.4,4.4.6,8.2.7,11.5s.2,3.7.2,4.2c.3,7.8.9,20,1.2,24.7.6,11.9,1.7,33.7,3.8,59,.5,5.9.9,10.2,1.4,17.4.6,10.5.5,11.9,1.2,24.2.3,4.2.6,7.7.9,14.1.2,4.1.4,7.5.5,9.8" transform="translate(-49.2 -15.4)" fill="none" stroke="#000" stroke-linecap="round" stroke-linejoin="round" stroke-width="1.42"/><path d="M491.7,970.1c10.7.1,18.5,0,22-.1,11.7-.2,20.7-.6,24.9-.9s31.5-1.7,50.3-4.7c6.7-1,13.3-1.8,19.9-3a49.2,49.2,0,0,1,5.2-.8c3.1-.3,3.6-.1,6.5-.5l5.3-.9,4.8-.5" transform="translate(-49.2 -15.4)" fill="none" stroke="#000" stroke-linecap="round" stroke-linejoin="round" stroke-width="1.42"/><path d="M723.5,1188.8c11,.2,19.9.2,25.9.1s8.9-.1,23.4-.4l21.2-.3,30.7-.5h18.6c2.4.1,2.8.4,3,.6s.3.7.6,2.5a32.8,32.8,0,0,1,.2,3.4c0,.3,0,1.8.1,4.7s.2,3.6.2,4.3c.3,4.7.2,11,.2,15.9s.1,8.1.3,15.7c.2,4.2.4,10.3.5,14,.2,6,.2,6.4.2,8,.1,6.1-.2,6.9.1,11.1,0,.6.2,3.5.3,6.7.1,1.1.1,2.2.2,3.3s0,2.3.1,3.4.2,2.3-.3,2.7-.6.2-1.6.2H837.3c-6.9,0-22.1.4-22.1.4l-30.7.4-25,.2H723.1c-.8-.1-1.2-.1-1.4-.3s-.5-1-.6-3.5-.1-2.6-.1-3.2-.1-1.6-.1-2.9v-2.7c0-2.1-1.1-23.7-1.3-28.1,0-.9-.1-2.5,0-4.7s.1-2.4.1-2.7c.2-3.4.4-10.7.3-16.5s-.2-8.6-.6-15.6c-.2-5.3-.5-10.9-1.1-18.2-.9-10.1-1.8-17.5-2.8-25.7s-1.8-13.8-3-19.2a125.7,125.7,0,0,0-4.1-15.3c-1-3.8-2.5-9.2-4.6-15.8l-.7-2c-1.5-4.5-4.6-13.9-8.6-23.7-1.5-3.7-2.9-6.8-4.8-12-.9-2.6-1.3-4-2.4-6.7s-1.7-3.8-3.8-8.5l-4.1-9.3c-3-7.1-2.7-6.5-4.1-9.6s-2.1-4.4-5.2-11.1c-1.8-3.9-2.8-6-4.1-9.1-2.1-4.7-2.3-5.4-3.9-9.2l-4.2-8.6c-5.4-11-5.1-10.6-6.3-12.9-3.1-6-5.2-9.5-6.2-11.1a56.3,56.3,0,0,0-5.3-7.5c-2.2-2.6-4.3-4.7-4.3-4.7l-2.1-2.2c-2.1-2.1-3.3-2.9-3.1-3.7s.4-.4,1.2-1.4l1.1-1.5a23.5,23.5,0,0,1,2.7-3.6,9.1,9.1,0,0,1,2.8-2.3,13.9,13.9,0,0,1,3.3-1l2.2-.4,2.3-.6,4-1.3,4.9-2,13.4-5.8c3.6-1.5,3.9-1.5,8-3.1s7.5-3.1,15.2-6.6c4.1-1.9,17.7-8.1,41-19.8l14.2-7.1c9.2-4.8,16.1-8.5,21.5-11.5,10.2-5.5,17.8-9.9,20.7-11.5,14.3-8.1,19.9-11.6,22-13,4.1-2.6,6.9-4.4,10.8-7.1s4.4-3.3,7.8-5.5,3.8-2.4,6.1-4.1,3.9-3,5-3.9a47.1,47.1,0,0,1,5,4.9l3.6,4.3,2.9,3.4,2.6,2.6a7.9,7.9,0,0,1,1.8,2.3,8.9,8.9,0,0,1,.8,2.6,14.7,14.7,0,0,1,.4,2.3c.3,2.8.8,4.8,1.3,9.8,1.1,9.5,1.8,21.3,1.8,21.3,0,1.9.5,9.3.7,20.1.1,8.7.4,22.1-.4,37.8-.4,6.5-1,15.4-1.1,17.5-.3,3.7-.5,7-.8,10.6-.4,5.4-.6,8.1-1,11.7-.2,1.8-.3,2.7-1.5,12.4-1.7,12.8-1.7,12.6-1.9,14.4-.6,5.2-.7,6.9-1.4,11.8-.3,2.7-.3,2.7-.9,7.1s-.9,6.3-1.4,10.6c-.1.4-.7,5.1-1.4,9.8-1.6,11.4-2,12.2-3.1,20.6-.1.4-.5,4-1.4,11.1-1.1,8.6-1.2,10.2-1.3,11-1,8.4-.8,7.6-1.4,12-.1.5-.7,4.5-1.1,8.2-.1.8-.3,2.3-.5,4.3s-.1,2-.1,2.6c-.1,2.3-.1,4.1-.1,4.7-.1,7.1,0,17,0,17v5c.1,3.9.3,7.2.5,13.2.1,2,.2,3,.2,3.8.3,4.7.6,8.6.8,11.2" transform="translate(-49.2 -15.4)" fill="none" stroke="#000" stroke-linecap="round" stroke-linejoin="round" stroke-width="1.42"/><path d="M636.2,951.6l7.6,9.6c4.9,6.6,3.4,5.1,7,9.8a25.4,25.4,0,0,1,3.1,4.7,30.9,30.9,0,0,1,2.3,5.7c.6,1.7,1.8,4.1,4,8.8,3.7,7.9,4.3,8.7,7.2,14.9s2.8,6,6.1,13c2.5,5.2,2.8,5.6,4.8,9.9s1.8,4.1,5.5,12.2c4.6,10.2,5.3,11.7,7.2,16.2s3,7.2,3,7.2l2.6,6.6c1,2.5,1.2,2.8,3.7,8.7,3.3,7.8,4.1,9.9,4.8,11.7s.8,2.2,1.9,5.1l4.5,11.1c2.4,5.9,3,7.2,3.9,9.9s1.3,4.4,1.6,5.5c.7,3.1,1.1,5.4,1.3,6.9,1,6.5,1.3,6.6,2.5,13.6s1.4,10.2,1.6,12.1c.7,6.9.9,12.1,1.1,17.8,0,2.3.1,6,.1,10.8s-.2,5.7-.2,10.2c0,1.3,0,3.8.5,13.6.2,4.7.3,7.2.5,9.9.5,10.9.3,11.3.7,21.1s.7,11.2,1,20.6c.2,4,.2,5.1.3,9.4.2,7.2.6,13.1.8,16.9" transform="translate(-49.2 -15.4)" fill="none" stroke="#000" stroke-linecap="round" stroke-linejoin="round" stroke-width="1.42"/><path d="M117.2,272.6l12.6-.3c24-.4,33.2,0,58.1-.1,19-.1,17.9-.3,44.9-.4h31.3c39.5.1,60.5-.4,142.6-.9l63.7-.3h18.9" transform="translate(-49.2 -15.4)" fill="none" stroke="#000" stroke-linecap="round" stroke-linejoin="round" stroke-width="1.42"/><path d="M491.6,956.2c.1,5.3.1,10,.1,13.9l-16.1-.4c-11.5-.4-24.9-1.4-51.6-3.3-15.1-1.1-21.9-1.7-29.3-2.7-4.2-.6-6.7-1-11.7-1.5-6.9-.6-9.8-.5-15-1.4a76.5,76.5,0,0,1-9.7-2.5c1.8-2,1.9-2.4,2-2.8s-.9-2.5-2.9-5a22.6,22.6,0,0,0-3-3.1,17.2,17.2,0,0,0-2.7-2l17.8,2.6c8.3,1.1,22.2,3,39.9,4.7,10,1,20.2,2,34.2,2.7,16.1.8,29.4.8,36.7.8Z" transform="translate(-49.2 -15.4)" fill="url(#_10_lpi_10_)"/><path d="M84.3,74.2c.1,1.6.1,2.2-.3,2.6s-.8.4-2.7.5a23.5,23.5,0,0,1-2.8,0H65.6l-6.8.3H55.5c-2.9.1-3.2.4-3.8,0s-.8-1.5-1-6.3c0-.4-.1-2.6-.1-4.9-.2-4.8-.2-4.4-.3-6.5-.1-5,.1-9.2.2-11.7s.3-4.5.4-5.8a54.4,54.4,0,0,1,.8-6.9c.7-3.1,1.4-6.3,4-8.1s3.6-1.2,7.5-1.5a29,29,0,0,1,5.6.1,11.4,11.4,0,0,1,4.9,1.6c1.3,1,1.9,2.2,2.7,4.1a72.1,72.1,0,0,1,3.3,8.6,118.4,118.4,0,0,1,2.4,12.9c.7,4.5.5,4,1.6,11.9,0,0,.1.7.5,5.1C84.3,70.8,84.2,70.1,84.3,74.2Z" transform="translate(-49.2 -15.4)" fill="url(#_10_lpi_10_)"/><path d="M51.9,246.5l7.9,3.7c2.3,1,5.5,2.5,20.4,8.4l12.2,4.8,9.1,3.6,7.1,2.5,5.4,1.9,1.5.6.7.3h.2a3.9,3.9,0,0,1,1.3.5c.5.3.4,1.1.4,2.2s0,1.2-.2,3.4,0,0-.3,3.5-.3,3.2-.4,4.4-.3,2.8-.6,4.9c-.6,4.8-1,7.5-1,7.5-2.3,15-1.3,8.9-2.8,17.9-1.1,7.1-1,6.3-3.2,21-6.9,44.3-10.4,66.4-13.9,87-2.9,16.9-3.7,21-7.9,45.5-2.6,14.8-3.9,22.5-5.3,31.5-3,19.2-5.1,34.9-6.6,46.3-.8,6.4-1.7,14-2.8,24.3-.5,5.3-.3,3.4-1.9,20.4s-1.9,18.9-2.2,24.9-.3,6.5-.7,12.9-.8,10.9-1.1,14.8c-.6,9.1-.5,16.1-.4,23.5a348.9,348.9,0,0,0,2.7,36.6,297,297,0,0,0,8.2,40.9,290.6,290.6,0,0,0,10.6,31c2.4,6,4.3,10.5,7.4,16.6a178.8,178.8,0,0,0,15.5,24.4c3.3,4.4,6.3,8,8.5,10.5a12.4,12.4,0,0,0-2,2.1,13.3,13.3,0,0,0-2.1,3.3,21,21,0,0,0-.9,3.8,3.5,3.5,0,0,0-.3,1.2,139.4,139.4,0,0,1-9.5-11.2c-3.1-4-12.8-16.9-22.8-39.1a280,280,0,0,1-13.9-38.4A389,389,0,0,1,55.8,692c-.7-6.7-1.1-12-1.3-15-.6-7.5-1.3-20.6-.8-44.2.2-4.5,1.2-42.5,5.9-77.6,1.4-9.9,3-19.4,3-19.4.4-2.7,2-11.8,4.4-23.7.2-.9,1.1-5.4,3-14.3,1.1-5.4,2.3-10.8,3.4-16.2s1.8-8.3,2.7-13.2c.2-.7.5-2.4,1.1-5.7.3-1.5.6-3.2,1-5.5s.5-3,.5-3.4-.5-2.5-1.8-6.2c-.4-1.1-.7-2.3-1.2-3.4a69.5,69.5,0,0,1-2.9-17,101.7,101.7,0,0,1,.7-18.4,114.2,114.2,0,0,1,7.8-29.7,139.7,139.7,0,0,1,6.4-12.6,40.6,40.6,0,0,1,3.8-6.1c1.6-2,1.9-2,2.4-3.2s.7-2.3,1-7.6c0,0,.2-2.4.5-5.3s.3-4.1.5-5.9c1.3-12.3,1.4-12.7,1.5-13.7.3-4,.5-7.2.7-9.3s.2-4.6.4-8.1.1-2.9.2-6.7c.1-2,.1-3.9.2-5.8a25.6,25.6,0,0,0-.2-6.6,4,4,0,0,0-.9-2.2c-.4-.4-.7-.5-3.1-1.2l-2-.7-3.5-.7a34.8,34.8,0,0,1-6.1-1.7l-11.2-2.5-9.2-2-5-1.2-2.6-.9c-1.8-.5-2.2-.6-2.6-1.1s-.1-.8-.1-2.4-.1-1.6-.1-2.5c-.1-4.7-.1-3.8-.2-6.4v-5.4c0-1.5,0-2.8-.1-4.3v-2.1a4.5,4.5,0,0,0-.1-1.2v-1.6C51.8,246.8,51.8,246.6,51.9,246.5Z" transform="translate(-49.2 -15.4)" fill="url(#_10_lpi_10_)"/><path d="M489.2,244.5c0,4.2.1,10.1.1,17.2v18.9c0,9.1.1,10.1.1,17.8s-.1,14-.1,16.3c-.2,27.8,0,131.6.3,178.3,0,2.1.1,8.5.1,13,.1,20.9.2,31.4.2,41.4.1,7.7,0,4.7,0,30.6,0,14.3.1,17.6.1,19.6,0,11.5.1,13.5,0,21.6,0,11.4-.1,10.4,0,17.1,0,9.6.2,11.1.3,21.4v31.4c0,7.4.1,13,.1,16.1.1,14.4.1,28.8.2,43.1.2,34.1.1,49.8.3,98.1.3,38.4.4,46.9.6,84.2.1,9.6.1,18.2.1,25.6.1,5.3.1,10,.1,13.9" transform="translate(-49.2 -15.4)" fill="none" stroke="#000" stroke-linecap="round" stroke-linejoin="round" stroke-width="1.42"/><path d="M84,76.8c-.3.4-.8.4-2.7.5a23.5,23.5,0,0,1-2.8,0H65.6l-6.8.3H55.5c-2.9.1-3.2.4-3.8,0s-.8-1.5-1-6.3c0-.4-.1-2.6-.1-4.9-.2-4.8-.2-4.4-.3-6.5-.1-5,.1-9.2.2-11.7s.3-4.5.4-5.8a54.4,54.4,0,0,1,.8-6.9c.7-3.1,1.4-6.3,4-8.1s3.6-1.2,7.5-1.5a29,29,0,0,1,5.6.1,11.4,11.4,0,0,1,4.9,1.6c1.3,1,1.9,2.2,2.7,4.1a72.1,72.1,0,0,1,3.3,8.6,118.4,118.4,0,0,1,2.4,12.9c.7,4.5.5,4,1.6,11.9,0,0,.1.7.5,5.1.1.5,0-.2.1,3.9C84.4,75.8,84.4,76.4,84,76.8Z" transform="translate(-49.2 -15.4)" fill="none" stroke="#000" stroke-linecap="round" stroke-linejoin="round" stroke-width="2.27"/><path d="M69,246.1l-7.8.3H53.4c-1.1,0-1.3-.1-1.5.1s-.1.3,0,1.6v1.6a4.5,4.5,0,0,1,.1,1.2V253c.1,1.5.1,2.8.1,4.3v5.4c.1,2.6.1,1.7.2,6.4,0,.9.1,1.7.1,2.5s-.2,2,.1,2.4.8.6,2.6,1.1l2.6.9,5,1.2,9.2,2,11.2,2.5a34.8,34.8,0,0,0,6.1,1.7l3.5.7,2,.7c2.4.7,2.7.8,3.1,1.2a4,4,0,0,1,.9,2.2,25.6,25.6,0,0,1,.2,6.6c-.1,1.9-.1,3.8-.2,5.8-.1,3.8-.1,4-.2,6.7s-.3,6.1-.4,8.1-.4,5.3-.7,9.3c-.1,1-.2,1.4-1.5,13.7-.2,1.8-.3,3.5-.5,5.9s-.5,5.3-.5,5.3c-.3,5.3-.2,6.1-1,7.6s-.8,1.2-2.4,3.2a40.6,40.6,0,0,0-3.8,6.1,139.7,139.7,0,0,0-6.4,12.6,114.2,114.2,0,0,0-7.8,29.7,101.7,101.7,0,0,0-.7,18.4,69.5,69.5,0,0,0,2.9,17c.5,1.1.8,2.3,1.2,3.4,1.3,3.7,1.7,4.6,1.8,6.2s-.2,1.4-.5,3.4-.7,4-1,5.5c-.6,3.3-.9,5-1.1,5.7-.9,4.9-1.9,9.3-2.7,13.2s-2.3,10.8-3.4,16.2c-1.9,8.9-2.8,13.4-3,14.3-2.4,11.9-4,21-4.4,23.7,0,0-1.6,9.5-3,19.4-4.7,35.1-5.7,73.1-5.9,77.6-.5,23.6.2,36.7.8,44.2.2,3,.6,8.3,1.3,15a389,389,0,0,0,12.4,58.5,280,280,0,0,0,13.9,38.4c10,22.2,19.7,35.1,22.8,39.1a139.4,139.4,0,0,0,9.5,11.2" transform="translate(-49.2 -15.4)" fill="none" stroke="#000" stroke-linejoin="round" stroke-width="2.27"/><path d="M119.7,828.8c-2.2-2.5-5.2-6.1-8.5-10.5a178.8,178.8,0,0,1-15.5-24.4c-3.1-6.1-5-10.6-7.4-16.6a290.6,290.6,0,0,1-10.6-31,297,297,0,0,1-8.2-40.9,348.9,348.9,0,0,1-2.7-36.6c-.1-7.4-.2-14.4.4-23.5.3-3.9.7-7.4,1.1-14.8s.4-8.1.7-12.9.6-8.4,2.2-24.9,1.4-15.1,1.9-20.4c1.1-10.3,2-17.9,2.8-24.3,1.5-11.4,3.6-27.1,6.6-46.3,1.4-9,2.7-16.7,5.3-31.5,4.2-24.5,5-28.6,7.9-45.5,3.5-20.6,7-42.7,13.9-87,2.2-14.7,2.1-13.9,3.2-21,1.5-9,.5-2.9,2.8-17.9,0,0,.4-2.7,1-7.5.3-2.1.5-4,.6-4.9s.2-2.3.4-4.4.1-1.3.3-3.5.1-1.7.2-3.4.1-1.9-.4-2.2a3.9,3.9,0,0,0-1.3-.5h-.2l-.7-.3-1.5-.6-5.4-1.9-7.1-2.5-9.1-3.6-12.2-4.8c-14.9-5.9-18.1-7.4-20.4-8.4l-7.9-3.7" transform="translate(-49.2 -15.4)" fill="none" stroke="#000" stroke-linejoin="round" stroke-width="2.27"/><path d="M149.8,1280.2a25.1,25.1,0,0,1-.1-2.9c-.1-1.4-.1-2.4-.2-4,0,0-.1-1.7-.1-3.3-.1-4.3-.2-9.3-.2-9.3-.1-9.3-.3-13.6-.4-23.3s.1-7.7,0-17.7c0-5.7-.1-11.5-.4-22.8s-.2-10.5-.3-16.7c-.1-2.3-.3-13.1-.4-28s0-17.6-.4-24-.7-11-1.7-17.5a163.2,163.2,0,0,0-5.3-22.6c-3.3-11.4-6.4-19.9-7.3-22.3,0,0-8.6-23.8-15.7-49.3a413.5,413.5,0,0,1-10.7-50.4,317.8,317.8,0,0,1-3.9-47,248.4,248.4,0,0,1,1.7-32.2c.5-4.1,1.4-11.7,3.5-21.4,0,0,2-9.5,6-24.4a13.3,13.3,0,0,1,.5-1.9,3.5,3.5,0,0,1,.3-1.2,21,21,0,0,1,.9-3.8,13.3,13.3,0,0,1,2.1-3.3,12.4,12.4,0,0,1,2-2.1l1.4-1.3c2.8-2.7,3.3-3.4,4.3-3.4s.5.1,2.3,1.7,2.4,2.1,3.3,2.9l2.6,2.3c2.5,2.3,4.9,4,6.3,5.1,5.3,3.8,1.3,1,12.3,9.2,6.1,4.4,9.1,6.7,12.3,8.9s7.5,5.3,12.3,8.5,9.5,6,13.7,8.5c12.7,7.5,21,12.4,32.9,18.7,18.1,9.7,32.4,16.2,43.6,21.2,9.6,4.4,16.8,7.4,23.3,10.2,0,0,20.6,8.7,40.4,16.2l13.5,5,3,1.1c3.1,1.1,3.7,1.3,4.5,1.8a17.2,17.2,0,0,1,2.7,2,22.6,22.6,0,0,1,3,3.1c2,2.5,3.1,3.7,2.9,5s-.2.8-2,2.8" transform="translate(-49.2 -15.4)" fill="none" stroke="#000" stroke-linecap="round" stroke-linejoin="round" stroke-width="1.42"/><path d="M149.8,1280.2h0" transform="translate(-49.2 -15.4)" fill="none" stroke="#000" stroke-linecap="round" stroke-linejoin="round" stroke-width="1.42"/><path d="M149.8,1280.2c0,2.5-.1,3.3.5,3.8s.7.3,1.8.3l2.5.2h3.6l4.9.2h7.8c5,0,8.7.2,13.3.3s11.8.3,23.6.4c13.8.2,12,0,24.7.1l22.2.3h18c1.4-.1,2.1-.1,2.4-.5s.2-.3.2-1.3a13.4,13.4,0,0,0-.1-2c-.1-1.6-.1-2.3-.1-2.6a5.4,5.4,0,0,1-.1-1.1c0-1.7-.1-3.8-.3-8-.1-1.6-.2-2.8-.2-3.1-.3-7.1-.5-20.8-.6-28.6s-.2-5.3-.4-14.2c-.3-13.7-.5-20.5-.3-28.4.3-10.5,1-18.5,1.5-24.2a233.4,233.4,0,0,1,3.4-25.7,104.5,104.5,0,0,1,3.3-13.7c.2-.5.5-1.3,3.8-10.7l2.2-6c3-8.5,6.6-18,8.5-23.1,7.9-20.8,6.4-17,9.1-24.2s5.8-15.1,10.3-26.3c2.6-6.5,4.5-11.1,7.2-17.5,3.4-8.1,6.3-14.4,7.9-17.8,5.6-12.5,6.6-14,9.1-20,1.2-3.1,1.9-4.6,3.3-7.7a60.9,60.9,0,0,1,3.5-6.8,71.1,71.1,0,0,1,4.7-5.9l4.4-4.7s1.3-1.4,2.9-3.4" transform="translate(-49.2 -15.4)" fill="none" stroke="#000" stroke-linecap="round" stroke-linejoin="round" stroke-width="1.42"/><path d="M358.3,958.3a76.5,76.5,0,0,0,9.7,2.5c5.2.9,8.1.8,15,1.4,5,.5,7.5.9,11.7,1.5,7.4,1,14.2,1.6,29.3,2.7,26.7,1.9,40.1,2.9,51.6,3.3l16.1.4" transform="translate(-49.2 -15.4)" fill="none" stroke="#000" stroke-linecap="round" stroke-linejoin="round" stroke-width="2.27"/><path d="M351.7,945.4l17.8,2.6c8.3,1.1,22.2,3,39.9,4.7,10,1,20.2,2,34.2,2.7,16.1.8,29.4.8,36.7.8h11.3" transform="translate(-49.2 -15.4)" fill="none" stroke="#000" stroke-linecap="round" stroke-linejoin="round" stroke-width="2.27"/><path d="M135.9,833c-.7,2-1.4,4.3-2.2,6.7" transform="translate(-49.2 -15.4)" fill="none" stroke="#000" stroke-linecap="round" stroke-linejoin="round" stroke-width="1.42"/><path d="M129.9,853a238.3,238.3,0,0,0-5.9,32.1c-1,9.3-2.9,26.7-.3,47.5.9,7.5,2.2,13.8,2.6,16.1a160.3,160.3,0,0,0,6.1,22.1,143.5,143.5,0,0,0,13.7,28c8.1,12.8,15.8,25,30.9,35.2a92.6,92.6,0,0,0,37.7,14.4,98.6,98.6,0,0,0,16.2,1.1,83.5,83.5,0,0,0,21.3-3,87.3,87.3,0,0,0,16.3-6.3,132.4,132.4,0,0,0,33.1-23.3,153.6,153.6,0,0,0,23.2-30.5c1.3-2.4,5.1-9.2,8.8-16.3l5-9.7,2.1-4.3" transform="translate(-49.2 -15.4)" fill="none" stroke="#000" stroke-linecap="round" stroke-linejoin="round" stroke-width="1.42" stroke-dasharray="13.81 13.81"/><path d="M343.6,949.8c.9-2.1,1.9-4.2,2.8-6.5" transform="translate(-49.2 -15.4)" fill="none" stroke="#000" stroke-linecap="round" stroke-linejoin="round" stroke-width="1.42"/><path d="M490.9,832.6l-4.3,1.9c-4.8,2.4-6.8,3.6-9.8,5.2-5.6,2.9-5.3,1.8-13.4,5.6a79,79,0,0,0-9.6,4.9c-3.1,2-3.6,2.6-7.1,4.6s-4.8,2.5-7.8,4.2-3.9,2.6-8.6,6.2c-8.4,6.4-8.7,6.2-14.2,10.5a98.7,98.7,0,0,0-9.2,7.9,63.1,63.1,0,0,0-14.3,21.1,35.6,35.6,0,0,0-2.7,12,56.5,56.5,0,0,0,.4,7.3c.2,1.7.5,3,.9,5.4a112.3,112.3,0,0,0,3.1,12.4,52.1,52.1,0,0,0,2.3,5.8l2.3,4.1" transform="translate(-49.2 -15.4)" fill="none" stroke="#000" stroke-linecap="round" stroke-linejoin="round" stroke-width="1.42"/><path d="M389,962.9c.1,2.9.3,7,.8,11.9a164.3,164.3,0,0,0,3.5,18.9c2.3,10.4,4.1,18.3,7.3,31,2.7,10.5,4.9,18.4,5.7,21.2,1.3,4.6,4,14.1,7.9,26.5l7.7,23.7c3.5,10.8,5.8,17.7,8.7,27.8,1.5,4.9,2.3,7.4,2.5,8.6,2.5,10,2.6,17.6,2.6,33.4,0,20.9-.2,17.9,0,26.1.2,13.2.5,15,.5,26.9,0,6.4-.1,9.4-.1,17.8.1,5,.1,6.7.2,13.3s0,11.2-.1,13.2-.2,9.8-.3,12.9c-.2,6.9,0,1.6-.1,3.4s.1,1.8.1,2.6-.1,2.1.3,2.4h21.3l8.2.2h23.9l36.4.3h28.6c.8,0,1.3,0,1.6-.3s.5-1,.6-1.6c.1-2.4.2-3.6.2-4.1s.1-2.4.1-3.7c.1-4.9.1-7.4.1-8.9,0-3.3.2-9.4.3-21.6,0-5.3.3-16.4.8-38.4,0-2.1.1-7.7.2-10.2.1-4.7.3-15.7.6-24.8l.3-16.4c.2-7.4.3-10.5.2-15.5,0-1.5-.1-2.8,0-4.9,0-.3,0-5.6.5-10.7s1-7.4,3.4-17.8c1.9-8.5,2.9-12.7,3.7-15.8,2.9-11.5,4.1-13.4,9.1-30.8,3.2-11.2,3-11,5.8-20.5,3.4-11.9,4.1-13.4,5.3-18.9.9-4,1.6-7.5,3.3-14.9.6-2.5,1.1-4.2,1.9-7.6,3.9-15.3,4.9-18,6.1-24.6.5-2.4,1.1-6.1,1.6-10.9" transform="translate(-49.2 -15.4)" fill="none" stroke="#000" stroke-linecap="round" stroke-linejoin="round" stroke-width="1.42"/><path d="M541.2,1285.4c.2-11.6.2-20.9.2-27.3,0-4.9,0-9.7.2-16.7s.2-8.3.3-13.7c.2-7.3.1-10.3.1-19.3,0-1.8,0-26.8.6-43.2.1-2.5.2-4.4.2-7.6s-.1-7.3-.1-13.7c0-.7,0-2.1.1-4a54.8,54.8,0,0,1,.5-5.7,35.1,35.1,0,0,1,1.1-4.9c.3-1,.5-1.8.8-3.1s.1-1.4.3-2.5a25.1,25.1,0,0,1,.9-3.4c.5-1.7.3-1.7,1-4.2a28.6,28.6,0,0,1,.7-2.8c.2-.7.6-1.8,1.1-3.1l1.5-3.1a5.9,5.9,0,0,0,.7-1.4,38.3,38.3,0,0,0,2-4.4,109.4,109.4,0,0,0,4.3-13.9c3-13.5,2.1-8.5,3.8-16.7,3.4-15.8,3.1-17,5.2-24.8.7-2.6,1.5-5.4,2.7-10.2s1.1-5,2.3-10.3l2.3-9.9c2-8.2,2-9.2,5.2-23.5,1.7-7.8,1.8-8.2,2.5-11.8,1.3-6.4,2.2-11.6,2.8-15.1" transform="translate(-49.2 -15.4)" fill="none" stroke="#000" stroke-linecap="round" stroke-linejoin="round" stroke-width="1.42"/><path d="M401.6,964.5c1.1,4.8,2.7,11.4,4.7,19.5s4.8,19,7.9,29.7c1.8,6.7,1.2,4,12.4,38.5,0,0,9.8,30.2,13,37.8.3.6,1.3,3,2.4,6.2s.6,2.2,1.5,4.8,1.8,4.7,3,8.2c.4,1.4.5,1.8.9,2.9a11.3,11.3,0,0,1,1.4,5.9c0,1.6.1,2,.1,3.1.2,2.7.1,4.8.1,5.8-.1,8,0,16,0,24-.1,5-.3,25,.4,42,.1,2.2.4,8.1.4,16.1.1,4.8,0,8.3,0,9.8-.3,11.3.1,19.7.3,34.3.2,7.6.3,18.3.4,31.6" transform="translate(-49.2 -15.4)" fill="none" stroke="#000" stroke-linecap="round" stroke-linejoin="round" stroke-width="1.42"/><path d="M489.2,340.3h40c33.3-.1,46.6-.4,84.6-.4h22.1c28.4-.1,37.6-.4,70.8-.7s53.3-.6,74-.5c9.1,0,16.5.1,28.2-.1l27-.4c11.8-.2,9.6,0,12.2-.1,11.7-.5,23.4.2,35.1-.2,1-.1,4-.2,4.6,1.2s-1.3,3.1-1.4,3.3a8,8,0,0,1-2.5,1.6l-1.8.3-3.6.2H849.2c-21.8-.1-54.5.1-54.5.1-41.7.3-80.8.8-80.8.8-78.1.9-80.5,1.3-106,1.2h-12l-31.8.2-33.3.6c-10,.2-24.2.4-41.6.4" transform="translate(-49.2 -15.4)" fill="none" stroke="#000" stroke-linecap="round" stroke-linejoin="round" stroke-width="1.42"/><path d="M914.6,276.6a31.5,31.5,0,0,0-8.1,1.1,23.1,23.1,0,0,0-6.5,2.7,20.4,20.4,0,0,0-4.7,4.5,26.7,26.7,0,0,0-3.3,5.5,71,71,0,0,0-4.4,12,110.9,110.9,0,0,0-2.7,14.6c-.3,2.6-.4,5.6-.4,5.6-.1,1.8,0,1.1-.2,5.6,0,1.7-.1,2.5,0,3.7a17.9,17.9,0,0,0,.6,3.7,14.5,14.5,0,0,0,1.4,2.6" transform="translate(-49.2 -15.4)" fill="none" stroke="#000" stroke-linecap="round" stroke-linejoin="round" stroke-width="1.42"/><path d="M885,343.5c.2,2.5.2,3.9.2,4.8s0,.8.1,2v1.6a7.8,7.8,0,0,1-.2,1.9,11.9,11.9,0,0,1-.3,1.7c-.2.8-.4,1.4-.4,1.6a20.2,20.2,0,0,0-.8,4c-.3,2-.4,3.6-.5,4.6-.2,4.3-.3,3.3-.8,9.8-.2,3.4-.3,5.5-.4,8a106.3,106.3,0,0,0,.2,13.5c.4,3.9,1.3,7.4,3,14.6a155.9,155.9,0,0,0,6.5,20.2,21.6,21.6,0,0,0,2.2,4.2l.9,1.4,1.6,2.7c1.8,2.9,1.9,3.3,2.6,4.2l.9,1.2a7.5,7.5,0,0,1,1,1.4c0,.6-.5.8-1.4,2s-1.9,2.8-1.8,3.1.4.6,1,1.2,2,1.3,2.1,2a3.8,3.8,0,0,1-.4,1.2c-.4,1-.7,1.2-.9,1.8a5.1,5.1,0,0,0-.3,1.7,15.1,15.1,0,0,0,.5,5l.3,2.9c.5,3.2.7,5.5.9,7.3.5,5.2,1.3,11.5,1.8,15,.9,7.4,1.1,7.3,2.2,15.9.9,6.4.8,6.5,1.5,11.4.9,6.5,1.3,8.9,2.5,16.1s.6,4.9,2.9,20.6c2.1,14.1,2.2,14.4,2.8,19.5s.6,5.4,1.9,16.2c1,8.3,1.1,8.3,1.9,15.5s1.3,10.7,2,17.4c1,8.4,1.4,12.6,1.6,14.3,1,10.4,1.4,18.6,1.7,25.1.2,3.1.4,7.9.6,13.8s.3,11,.2,16.4c-.1,10.9-.8,19.2-1.1,22.8-.6,5.5-1.1,9.7-1.5,12.2s-1.2,8.7-2.5,15.2c-.8,4.1-1.5,7.4-2,9.5s-2.1,8.4-6,20.3c-2.5,7.8-3.7,11.7-5.4,16.2a207,207,0,0,1-9.8,22.6l-9,15.8a103.1,103.1,0,0,1-7,11.4,86.1,86.1,0,0,1-9,10.3,157.1,157.1,0,0,1-14.9,13.6" transform="translate(-49.2 -15.4)" fill="none" stroke="#000" stroke-linecap="round" stroke-linejoin="round" stroke-width="1.42"/><path d="M843.2,847.7c.2,4.1.7,10.8,1.4,19,1.6,16.6,2.2,17.7,3.2,30.3.7,10.2.5,13.4,1.5,23.6.2,2.4.6,5.7.9,10.6s.3,5.7.7,12.2.5,8.7.6,11c1.2,21,1.7,46.4,1.7,46.4.2,9.9.4,21.8.3,35.3" transform="translate(-49.2 -15.4)" fill="none" stroke="#000" stroke-linecap="round" stroke-linejoin="round" stroke-width="1.42"/><path d="M489.4,453.1h35.7l52.3-.4c42-.3,68.7-1,122-1.7l135.1-1.8c8.7-.2,28.8-.6,55.1-1.5l11.1-.4" transform="translate(-49.2 -15.4)" fill="none" stroke="#000" stroke-linecap="round" stroke-linejoin="round" stroke-width="1.42"/><path d="M900.7,455.5l-40,.7H827c-56.6-.3-134.6,2.4-227,2.5H572.5c-34.8.1-63.4.4-83.1.6" transform="translate(-49.2 -15.4)" fill="none" stroke="#000" stroke-linecap="round" stroke-linejoin="round" stroke-width="1.42"/><path d="M654.1,976l3.7-1c2.7-.6,3.3-.5,5.3-1.1l3.3-1.2,3.3-1.3,10.7-4.3c9.8-4.1,16-5.8,28-11,2-.8-.1.1,15.1-6.9,11.1-5,16.9-7.7,23.6-11.1l6.7-3.4,8.8-4.5,14.9-7.7c2.9-1.5,6.9-3.8,14.8-8.2s9.9-5.6,12.1-7l8.9-5.4,16.8-10.5,15.8-9.9" transform="translate(-49.2 -15.4)" fill="none" stroke="#000" stroke-linecap="round" stroke-linejoin="round" stroke-width="1.42"/><path d="M852.1,965.8a39.4,39.4,0,0,1-4,12.1c-2.3,4.7-5,7.8-8,11.3a104.3,104.3,0,0,1-7.8,7.7,26.4,26.4,0,0,1-3.1,2.4,15.9,15.9,0,0,1-3,1.8c-2,.8-3.6.9-3.6,1.1a14,14,0,0,1,4.6.5,12.2,12.2,0,0,1,3,1.4,17.1,17.1,0,0,1,2.8,2.2l1.9,1.7,2.4,2.3a73.9,73.9,0,0,1,5.6,6.4,60.9,60.9,0,0,1,6.4,9.9,16.2,16.2,0,0,1,1.2,2.6,33.5,33.5,0,0,1,2.6,10" transform="translate(-49.2 -15.4)" fill="none" stroke="#000" stroke-linecap="round" stroke-linejoin="round" stroke-width="1.42"/><path d="M852.4,972.7a24.2,24.2,0,0,0,1.9,4.9,18.5,18.5,0,0,0,5.2,5.9" transform="translate(-49.2 -15.4)" fill="none" stroke="#000" stroke-linecap="round" stroke-linejoin="round" stroke-width="1.42"/><path d="M846.8,892.6a13.5,13.5,0,0,0-2.7.7,17.6,17.6,0,0,0-4,2.3,53.6,53.6,0,0,0-8,7.6c-1,1.1-2,2.4-3.5,4.2a18.3,18.3,0,0,1-1.3,1.6c-.9,1.1-1.2,1.3-1.4,1.9a12.3,12.3,0,0,0-.1,1.8v2c.1,2.1,0,2.4.1,4a42.1,42.1,0,0,0,.3,4.9c0,.7.1,2.2.3,5.4.1,1.5.2,2.9.2,3.6.6,9.6.9,14.4,1,16.8.3,6.9,0,5.3.3,12.3s.5,7.9.9,16.1c.2,3.4.3,6.3.4,8.1" transform="translate(-49.2 -15.4)" fill="none" stroke="#000" stroke-linecap="round" stroke-linejoin="round" stroke-width="1.42"/><path d="M849.5,922.6a17.8,17.8,0,0,0-6.2,1,18.1,18.1,0,0,0-5.7,3.2A23.5,23.5,0,0,0,831,933a22,22,0,0,0-3.6,11.4" transform="translate(-49.2 -15.4)" fill="none" stroke="#000" stroke-linecap="round" stroke-linejoin="round" stroke-width="1.42"/><path d="M851.2,949.5a12,12,0,0,0-2.7,0,13.5,13.5,0,0,0-4,1.1,38.8,38.8,0,0,0-5.4,2.7,28,28,0,0,0-6.5,6.4,34.7,34.7,0,0,0-4.3,7.5" transform="translate(-49.2 -15.4)" fill="none" stroke="#000" stroke-linecap="round" stroke-linejoin="round" stroke-width="1.42"/><path d="M851.2,949.5a8.9,8.9,0,0,1,5,.3,9.5,9.5,0,0,1,5.2,4.7" transform="translate(-49.2 -15.4)" fill="none" stroke="#000" stroke-linecap="round" stroke-linejoin="round" stroke-width="1.42"/><path d="M849.5,922.6a7.1,7.1,0,0,1,2.9-1.4,10.3,10.3,0,0,1,4,0,10.2,10.2,0,0,1,5.4,3.1" transform="translate(-49.2 -15.4)" fill="none" stroke="#000" stroke-linecap="round" stroke-linejoin="round" stroke-width="1.42"/><path d="M846.8,892.6a15.1,15.1,0,0,1,6-1.2,21.1,21.1,0,0,1,3.4.5,19.6,19.6,0,0,1,4.5,2" transform="translate(-49.2 -15.4)" fill="none" stroke="#000" stroke-linecap="round" stroke-linejoin="round" stroke-width="1.42"/><path d="M799.3,1028.7a17.1,17.1,0,0,1-.9,8.1,16.1,16.1,0,0,1-4.5,6.8,16.3,16.3,0,0,1-9.7,3.8,17.6,17.6,0,0,1-11.4-3.7c-1.5-1-8.3-5.9-8.4-14.4s5.4-12.7,7.2-14.1a16.7,16.7,0,0,1,9.8-4c8.3-.3,13.5,6.5,14.3,7.6A18.4,18.4,0,0,1,799.3,1028.7Z" transform="translate(-49.2 -15.4)" fill="none" stroke="#000" stroke-linecap="round" stroke-linejoin="round" stroke-width="2.27"/><path d="M828.8,1063.1c-.3.1-.2-3.2-2.4-6.2a17.5,17.5,0,0,0-2.8-2.7,16.8,16.8,0,0,0-3.8-2.4c-2.5-1.1-4.6-1.3-8-1.5a32.1,32.1,0,0,0-5.3.1c-2,.2-2.3.4-8.9,2.1l-6.1,1.5-4.4,1.2-3.8.4a30.3,30.3,0,0,1-5.8-.2l-3.9-.7a33.4,33.4,0,0,1-4.1-1.4,16.3,16.3,0,0,1-5.7-4.2,19.4,19.4,0,0,1-3.4-5.7,55.1,55.1,0,0,1-2.1-7.6,48.8,48.8,0,0,0-4-10.9c-2-4.1-4.1-8.1-8.4-10.7s-7.1-2.1-7.1-2.8,2.9-.7,8.8-1.2l9.7-1.1,12.7-1.4c5.6-.6,18.5-2.3,29.5-3.3a20,20,0,0,1,4.3,0,20.6,20.6,0,0,1,11.8,4.6,23.3,23.3,0,0,1,4.9,6.8,29,29,0,0,1,2.8,7.1,48.7,48.7,0,0,1,1,5.6c.2,1.7.2,2.3.5,4.2s.5,2.5.8,4,.7,3,1,4.5.4,2.4.9,5.8c1,7.3,1.1,7.9,1.3,10C829.1,1060.9,829,1063.1,828.8,1063.1Z" transform="translate(-49.2 -15.4)" fill="none" stroke="#000" stroke-linecap="round" stroke-linejoin="round" stroke-width="1.42"/><path d="M765.2,1013.6c.1.1-.5.4-1.3,1.3a10.5,10.5,0,0,0-.8,1.1,30.1,30.1,0,0,0-2.6,4.7,23.2,23.2,0,0,0-.8,2.2c-.6,2.1-.6,3.3-.9,3.3s-.4-1.5-1.5-4.6a12.4,12.4,0,0,0-1.2-2.8,6.1,6.1,0,0,0-1.4-2c-1-1.1-1.9-1.5-1.8-1.8s.3-.1,1.4-.2h1.3l5.2-.6C763.6,1013.7,765.1,1013.3,765.2,1013.6Z" transform="translate(-49.2 -15.4)" fill="none" stroke="#000" stroke-linecap="round" stroke-linejoin="round" stroke-width="1.42"/><path d="M818.8,1040.7a5.4,5.4,0,0,1-1.9,1,18.7,18.7,0,0,1-2.8.8l-3.3.9-3.6.8c-3.6.8-4,.8-4.1.6s.7-1.5,1.8-4.3a14.2,14.2,0,0,0,1.2-4.3,29.8,29.8,0,0,0,.5-3.9c0-1,.1-2.9.1-4.4-.4-5.9-4.4-10.5-4.9-11.1l-2.9-3.3c-1.6-1.5-2.4-2.2-2.2-2.6s.4-.4,3.7-.1a25.7,25.7,0,0,1,4.4.6,17.5,17.5,0,0,1,5.8,2.5c3.5,2.5,4.8,6,5.8,8.8s1.5,5.4,2.2,9.5c.1.7.2,1.8.4,2.9s.2,1.6.2,2.1S819.3,1040,818.8,1040.7Z" transform="translate(-49.2 -15.4)" fill="none" stroke="#000" stroke-linecap="round" stroke-linejoin="round" stroke-width="1.42"/><path d="M738.8,1011.4l-23.3,3-8.5.9-4.2.5-4,.4c-3.1.3-4.7.4-5.4,0s-1.3-2-2.6-5.2a31.3,31.3,0,0,1-1.5-3.7c-.2-.7-.6-1.8-1.2-3.9s-1-3.6-1.4-4.8-.7-1.4-1.1-2.4c-1.3-2.9-2.7-6-1.6-7.8s2-1.3,5-2.2l5.6-1.3a26.7,26.7,0,0,1,7.6-1.2,10.9,10.9,0,0,1,2.5.6,6.5,6.5,0,0,1,1.9,1.1,7.9,7.9,0,0,1,1.4,2.1,18.2,18.2,0,0,1,1,2.2c1.9,4.6,2,4.4,2.3,5.5a15.5,15.5,0,0,1,.3,4.1" transform="translate(-49.2 -15.4)" fill="none" stroke="#000" stroke-linecap="round" stroke-linejoin="round" stroke-width="1.42"/><path d="M766.1,1051.3c-1.7.5-17.8,5.1-29.6,6.6l-9.2.9a88.3,88.3,0,0,1-9.5.4c-4.2-.1-6.2-.1-8.4-.8a20.2,20.2,0,0,1-10.4-7.9c-1.1-1.4-1.9-3.2-3.4-6.6-2.2-4.9-2.7-7-4.8-12-.9-2.4-.5-1.2-4.6-10.4s-3.9-9.2-5.8-13.2c-.1-.3-1.7-3.6-3.4-7.7,0,0-.5-1.1-1.2-2.9a36.9,36.9,0,0,1-2.1-5.5,22.6,22.6,0,0,1-.3-4.9c.2-2,.2-3.1.8-4.1s1.2-1.5,4.3-2.8a48.9,48.9,0,0,1,5.9-2.2,67.2,67.2,0,0,1,10.3-1.7c5.5-.5,8.4-.8,11.6.3a15.6,15.6,0,0,1,4.2,2c2.7,2,4,4.5,5.9,8.6.4.8,1,2.5,2.3,5.9,1.9,4.9,2.1,5.9,1.7,7.1s-2.1,2.2-4.1,3.3a25.6,25.6,0,0,1-5.7,1.8c-2.9.8-2.4.5-7,1.5s-4,1-4.9.7-2.1-1.7-3.5-3.9a36.2,36.2,0,0,1-2-3.9c-1.7-3.9-2.6-5.9-1.8-7.3a4.9,4.9,0,0,1,2-1.6,8,8,0,0,1,2.9-.9c2.5-.3,4.3-.6,5.9.5s1.1,1.1,1.9,2.4a5,5,0,0,1,1.3,3.4,2.9,2.9,0,0,1-.5,1.4,4,4,0,0,1-2.2,1.2,3,3,0,0,1-1.4,0l-1-.3c-.2-.1-.5-.4-1.1-1.5a15,15,0,0,1-.7-2" transform="translate(-49.2 -15.4)" fill="none" stroke="#000" stroke-linecap="round" stroke-linejoin="round" stroke-width="1.42"/><path d="M711.2,1035.9a17.1,17.1,0,0,0-1.2-3.8c-.7-1.5-1.1-2.4-2-2.6a3,3,0,0,0-2.4.5,3.7,3.7,0,0,0-1.4,1.2c-.6,1.1,0,2.5,1.3,5.3a18.5,18.5,0,0,0,1.8,3.2c1.2,1.8,1.8,2.7,2.7,3.1s3.3.1,5.3-.6,1.6-.8,2.5-.9c2.5-.2,4.3,1.4,4.5,1.1s-1.1-1-2.1-2.8a16.2,16.2,0,0,1-1.1-2.5l-1.8-4.5c-1.1-2.7-1.7-4.1-2.5-5.7s-1.9-3.1-3.3-4a9.5,9.5,0,0,0-3.4-1,16,16,0,0,0-4.3.4,20.4,20.4,0,0,0-4,1.3c-1.7.8-2.6,1.2-3.3,2.2s-.6,3.5-.2,5.6a30.1,30.1,0,0,0,2,5.4,74.9,74.9,0,0,0,4.5,7.8c2.1,3.5,2.5,4.1,3.4,4.7a12.8,12.8,0,0,0,5.1,2.3,23.1,23.1,0,0,0,4.9.4,80.9,80.9,0,0,0,9.1-.7c5.6-.7,5.1-.9,9.3-1.5s7.1-.4,10.9-1.5,4.7-1.4,5.5-2.9.5-4.1-.4-7.9a38.1,38.1,0,0,0-1.4-4.4c-.4-1.1-1.1-2.9-2.1-5.2a23.5,23.5,0,0,0-3-5.3,11.4,11.4,0,0,0-3.6-3.1c-1.9-.9-4-.7-8.2-.4l-6.6.7-2.7.3h-2.1c-2.9,0-4.9-.7-5-.5s1.9.7,3.5,2.4a6.9,6.9,0,0,1,2.1,3.3,114.1,114.1,0,0,0,5.3,11.7c1.7,2.8,2.7,4.3,4.6,5.2s3.3.6,6.7.4a15.4,15.4,0,0,0,4.2-.6c1.9-.6,2.3-1,2.4-1.2s.6-2.3.4-4a20.6,20.6,0,0,0-1.4-4.4,21.2,21.2,0,0,0-1.4-3.1c-1.1-1.8-1.7-2.8-2.9-3.3s-.5-.1-4.4-.1h-3.1c-1.6.2-2.5.4-2.9,1s0,1.3,1.4,4.2,2.3,4.9,3.3,5.3,1.5.3,3.3.3,2.6,0,3-.6.1-1.6-.4-2.9-.7-1.8-1.5-2.1-.8-.1-1.7-.1l-1.9.4" transform="translate(-49.2 -15.4)" fill="none" stroke="#000" stroke-linecap="round" stroke-linejoin="round" stroke-width="1.42"/><path d="M700.9,1066.6a24.5,24.5,0,0,1,4.4-.4,23.5,23.5,0,0,1,5.3.6,19.5,19.5,0,0,1,5.2,1.7,16.6,16.6,0,0,1,3.2,1.7h0a20.8,20.8,0,0,1,5.7,4.8c2.1,2.5,3.2,5.5,5.4,11.5.7,1.8,1.1,3.1,1.8,5,1.4,4.2,2.4,7.7,3.6,11.7,3.7,12.8,3.2,12.2,5.2,19.5a61.6,61.6,0,0,1,1.4,7.3,13.8,13.8,0,0,1,.2,2.5c.1,2.1,0,2.6-.2,3.1a4.3,4.3,0,0,1-1.7,1.4,7.5,7.5,0,0,1-2.6,1.4,7,7,0,0,1-2.5.6,5.6,5.6,0,0,1-2.1-.3,4.1,4.1,0,0,1-1.8-1.6,10.9,10.9,0,0,1-1.8-3.9,40.6,40.6,0,0,1-1.5-5.6c-.3-1.8-.2-2.6.2-3.3a3.7,3.7,0,0,1,1.8-1.5,3.3,3.3,0,0,1,2.3-.3,2.9,2.9,0,0,1,1.5,1.4,16,16,0,0,1,1.8,6.4" transform="translate(-49.2 -15.4)" fill="none" stroke="#000" stroke-linecap="round" stroke-linejoin="round" stroke-width="1.42"/><path d="M722.6,1064.4c1.7-.1,4.1-.2,6.8-.1a46.9,46.9,0,0,1,8.3,1.2,25.7,25.7,0,0,1,10.3,4.2,26.3,26.3,0,0,1,7.8,8.4c1.5,2.5,2.2,4.7,3.6,9a88.5,88.5,0,0,1,2.9,11.2c.3,1.4.6,2.8,1.3,6.3s1,4.6,1.1,5c.6,2.3,1.1,4.1,1.5,5.8,1.2,4.4,1.4,4.8,1.8,6.8a32.3,32.3,0,0,1,.5,5c.2,2.6,0,3.2-.4,3.8s-.7.9-3.4,1.7a25.3,25.3,0,0,1-4.6.9c-3.9.4-5.9.7-7.2,0a8,8,0,0,1-3.2-3.9c-.4-.8-.7-1.7-1.4-5.8-1-6.2-.7-7-.5-7.4a9.2,9.2,0,0,1,4.5-3.7,8.6,8.6,0,0,1,2.8-.8c1.8-.4,2.8-.7,3.7-.2s.5.4,1.4,2.5a34.5,34.5,0,0,1,1.4,4.6,14.4,14.4,0,0,1,.8,3.3,4.3,4.3,0,0,1-.1,2.1c-.7,1.3-2.3,1.5-3,1.6a3.5,3.5,0,0,1-2.8-.3c-.4-.3-.8-.8-1.2-4a26.1,26.1,0,0,1-.3-3.4" transform="translate(-49.2 -15.4)" fill="none" stroke="#000" stroke-linecap="round" stroke-linejoin="round" stroke-width="1.42"/><path d="M707,1066.2a22.5,22.5,0,0,1,6.4,3.9,25.3,25.3,0,0,1,4.5,5,28.1,28.1,0,0,1,3,5.5,30.4,30.4,0,0,1,2.1,5.8,26.2,26.2,0,0,1,.9,4.7c.2,1.6.3,2.6-.3,3.3a3.7,3.7,0,0,1-1.4.8,4.9,4.9,0,0,1-3.4.2,4.9,4.9,0,0,1-1.9-1.9,18.1,18.1,0,0,1-1.2-2.2,18.6,18.6,0,0,1-1.3-4.3" transform="translate(-49.2 -15.4)" fill="none" stroke="#000" stroke-linecap="round" stroke-linejoin="round" stroke-width="1.42"/><path d="M737.3,1109.8a36.7,36.7,0,0,0-2.4-6.1,5.2,5.2,0,0,0-4.7-3.4,5.3,5.3,0,0,0-3.6,1.4,5.8,5.8,0,0,0-1.6,3.1,10.4,10.4,0,0,0-.4,2.8,14,14,0,0,0,.6,5.3,9,9,0,0,0,1.1,2.4" transform="translate(-49.2 -15.4)" fill="none" stroke="#000" stroke-linecap="round" stroke-linejoin="round" stroke-width="1.42"/><path d="M551.1,398.6a7.4,7.4,0,0,1-1,5.1,7,7,0,0,1-5.3,2.5,7.6,7.6,0,0,1-6.1-2.9,8,8,0,0,1-1.8-5.1c-.1-1.3-.3-3.2.9-4.7a6.7,6.7,0,0,1,3.2-2,6.9,6.9,0,0,1,4.2-.7,6.7,6.7,0,0,1,3.7,2A8.6,8.6,0,0,1,551.1,398.6Z" transform="translate(-49.2 -15.4)" fill="none" stroke="#000" stroke-linecap="round" stroke-linejoin="round" stroke-width="1.42"/><path d="M641.9,392.3a40.6,40.6,0,0,1,.9,8.3c.1,3.8.1,5.7-.9,6.9s-3.9,2.2-5.7,2.6l-3.1.4a56.9,56.9,0,0,1-5.9,0h-5c-5-.1-5.9-.2-6.8-.9s-1.4-1.6-2-3.1-1.1-4.5-1.3-8.9c0-1.3,0-2.2.1-4a7.3,7.3,0,0,1,.5-3.4A5.3,5.3,0,0,1,614,388c1.2-1.2,2.9-1.2,4.9-1.3H627l7.5-.3c3.6,0,4.6,0,5.5.7S641,388.2,641.9,392.3Z" transform="translate(-49.2 -15.4)" fill="none" stroke="#000" stroke-linecap="round" stroke-linejoin="round" stroke-width="1.42"/><path d="M711,395.5a11.5,11.5,0,0,1-.1,2.7,9,9,0,0,1-.4,2.8c-.9,1.9-4.1,2.9-6.7,2.2a7,7,0,0,1-3.5-2.8,8.2,8.2,0,0,1-1.5-5.6,9.4,9.4,0,0,1,1.6-4.5c.6-.9,2.3-3,4.7-3s4.5,2.9,4.8,3.4A9.8,9.8,0,0,1,711,395.5Z" transform="translate(-49.2 -15.4)" fill="none" stroke="#000" stroke-linecap="round" stroke-linejoin="round" stroke-width="1.42"/><path d="M832.6,397.4c.6,2.7.9,4.1.2,5.6a3.7,3.7,0,0,1-2.2,2.1,4.1,4.1,0,0,1-3.7-.9c-2.1-1.4-2.6-3.9-3.1-7s-.7-3.7,0-5.4,1.2-2.8,3-2.9a3.4,3.4,0,0,1,2.2.9,6.1,6.1,0,0,1,1.5,2A20.8,20.8,0,0,1,832.6,397.4Z" transform="translate(-49.2 -15.4)" fill="none" stroke="#000" stroke-linecap="round" stroke-linejoin="round" stroke-width="1.42"/><path d="M785.9,408c-1.1.8-2.9.8-6.7.7l-5.6-.4-4.3-.2c-1,.1-2.1-.1-3.2-.1a3.8,3.8,0,0,1-1.7-.3,3.4,3.4,0,0,1-1.2-1.1,6.7,6.7,0,0,1-1.4-3.4,29.8,29.8,0,0,1-.3-5.6c0-1.8.1-2,0-4a14.2,14.2,0,0,1,.1-1.9,12.3,12.3,0,0,1,.2-2.7,6.8,6.8,0,0,1,.7-2,5.8,5.8,0,0,1,2.9-2.3,10.7,10.7,0,0,1,4.3-.9,20,20,0,0,1,4.2-.1h4.9l3-.3a5.2,5.2,0,0,1,5.4,4.9c.2.8.3,1.5.4,2.1.4,3.1.4,5.7.5,7.8,0,4.1-.1,4.9-.2,5.3C787.5,405.4,787.1,407,785.9,408Z" transform="translate(-49.2 -15.4)" fill="none" stroke="#000" stroke-linecap="round" stroke-linejoin="round" stroke-width="1.42"/><path d="M873.6,381.9c1.3.9,1.7,2.1,2.4,3.8s.7,3,1.5,8.5c.5,3.5.7,5.2.9,5.9s.3,1.8.5,4.4,0,2.7-.4,3.2-1.4.9-3.3,1.2l-3.8.3h-3.1a13,13,0,0,1-3.6-.2c-.3-.2-.9-.7-1.7-4.8-.2-1-.3-1.7-.7-4.7s-.4-3.8-.5-5c-.6-4.7-1-5.9-.7-8.4s.3-2.6,1-3.4,3.1-1.5,5.5-1.7S872,380.7,873.6,381.9Z" transform="translate(-49.2 -15.4)" fill="none" stroke="#000" stroke-linecap="round" stroke-linejoin="round" stroke-width="1.42"/><path d="M595,391.5a72.8,72.8,0,0,1,.1,15.3c-.4,3.7-.6,6.5-1.8,9.9-.3,1.1-2,5.8-6.8,11.9A59.1,59.1,0,0,1,565,445.5c-4.1,1.9-8.6,4.1-15.2,4.7a40.5,40.5,0,0,1-15.1-1.2,45.5,45.5,0,0,1-10-4,52.4,52.4,0,0,1-8.6-6,80.4,80.4,0,0,1-9.3-9.4,40.9,40.9,0,0,1-6.1-9.5,49,49,0,0,1-2.6-8.8,84.6,84.6,0,0,1-1.9-10.1c-1-8.8-1.9-15.8,1.1-23a51,51,0,0,1,4.7-8.4c.6-.7,1.8-2.4,3.7-4.4a48.2,48.2,0,0,1,11-8.6,49.8,49.8,0,0,1,13.8-6.4,67.9,67.9,0,0,1,11.5-2,57.3,57.3,0,0,1,8.7-.3,42.9,42.9,0,0,1,19.3,4.4,40.9,40.9,0,0,1,7.2,4.8,45.8,45.8,0,0,1,7.1,7.6A51.9,51.9,0,0,1,595,391.5Z" transform="translate(-49.2 -15.4)" fill="none" stroke="#000" stroke-linecap="round" stroke-linejoin="round" stroke-width="1.98"/><path d="M747.4,401.2a43.2,43.2,0,0,1-.4,11.9,47,47,0,0,1-2.9,8.5,73.5,73.5,0,0,1-4.6,9s-1.6,2.7-3.2,4.8c-3.4,4.7-14.6,15.5-28.3,14.6-5.4-.3-10.4-2.4-13.3-3.7a45.8,45.8,0,0,1-7.4-3.7A48.4,48.4,0,0,1,675,431.4a49,49,0,0,1-6.7-10.3,57.6,57.6,0,0,1-3-7.8,54,54,0,0,1-2.1-8.6,51.2,51.2,0,0,1-.4-9.8,67,67,0,0,1,.8-8.4,47.5,47.5,0,0,1,4.8-14.5c.8-1.5,1.9-3.2,2.7-4.4s2.5-3.8,4.1-5.8a41.4,41.4,0,0,1,6.9-7.3,34.5,34.5,0,0,1,9.7-5.9,34.8,34.8,0,0,1,11.8-2.6,30.9,30.9,0,0,1,12.3,2,29.8,29.8,0,0,1,7.3,4.5A57,57,0,0,1,734.7,364c5.2,7,7.3,13.3,9.1,18.9A79.3,79.3,0,0,1,747.4,401.2Z" transform="translate(-49.2 -15.4)" fill="none" stroke="#000" stroke-linecap="round" stroke-linejoin="round" stroke-width="1.98"/><path d="M852.3,395.7c1.1,7.2,2,12.6,1.4,20-.4,4.4-.9,10.5-4.1,17.5s-6.4,13.8-13.2,15.1-12-3.9-16.6-8-8.4-10.3-11-15.3a66.7,66.7,0,0,1-5.5-14.2c-1.2-4.6-1.5-8-2.2-14.8-.4-3.9-.4-8.7-.5-18.2a34.5,34.5,0,0,1,1.1-9.5,40.1,40.1,0,0,1,1.4-3.9,22.4,22.4,0,0,1,6.9-8.2,20.9,20.9,0,0,1,12.3-4.3c7.8.1,13,5.1,15.7,7.7,5.4,5.1,7.4,10.7,10,18A90.1,90.1,0,0,1,852.3,395.7Z" transform="translate(-49.2 -15.4)" fill="none" stroke="#000" stroke-linecap="round" stroke-linejoin="round" stroke-width="1.98"/><path d="M902.6,395.7c.2,2.3.4,4.4.5,6.4a5.3,5.3,0,0,1-3.9-1.7,6.7,6.7,0,0,1-1-2.4,16.2,16.2,0,0,1-.5-3.8,9.4,9.4,0,0,1,.4-4.2,7.9,7.9,0,0,1,2.9-3.6A78,78,0,0,1,902.6,395.7Z" transform="translate(-49.2 -15.4)"/><path d="M885.2,353a74.4,74.4,0,0,1,9.8,15.5,81.8,81.8,0,0,1,6,17.9,78,78,0,0,1,1.6,9.3c.2,2.3.4,4.4.5,6.4.1,3.7,0,6.9,0,9.6a82.2,82.2,0,0,1-1.6,15.8,71.7,71.7,0,0,1-4.4,13.9" transform="translate(-49.2 -15.4)" fill="none" stroke="#000" stroke-linecap="round" stroke-linejoin="round" stroke-width="2.27"/><path d="M901,386.4a7.9,7.9,0,0,0-2.9,3.6,9.4,9.4,0,0,0-.4,4.2,16.2,16.2,0,0,0,.5,3.8,6.7,6.7,0,0,0,1,2.4,5.3,5.3,0,0,0,3.9,1.7" transform="translate(-49.2 -15.4)" fill="none" stroke="#000" stroke-linecap="round" stroke-linejoin="round" stroke-width="1.42"/><path d="M499.2,415.6c-.5-2.1-3-14,1.8-23.5a37.7,37.7,0,0,1,4.7-6.9,27.2,27.2,0,0,1,7.3-6.4,18.1,18.1,0,0,1,6.1-2.5c2.1-.4,5.3-1,8,.9a6.8,6.8,0,0,1,2.6,3.8c.7,3.3-1.6,6-2.5,7-2.7,3.2-6.5,3.9-8.3,4.3a17.5,17.5,0,0,1-6.1,0" transform="translate(-49.2 -15.4)" fill="none" stroke="#000" stroke-linecap="round" stroke-linejoin="round" stroke-width="1.42"/><path d="M507.1,364c9.1-7.5,19.3-10.7,26.7-10.5a40.5,40.5,0,0,1,13.2,2.9c1.6.7,3.6,1.9,4,2.1a32,32,0,0,1,6.2,3.9c1.9,1.7,3.6,3.1,4.3,5.6a8.9,8.9,0,0,1-1,7.1c-.2.3-2.4,3.5-5.8,3.4a8,8,0,0,1-3.6-1.3,10.1,10.1,0,0,1-2.6-2.8,15.2,15.2,0,0,1-2.2-7.8" transform="translate(-49.2 -15.4)" fill="none" stroke="#000" stroke-linecap="round" stroke-linejoin="round" stroke-width="1.42"/><path d="M528.9,424.1a14.6,14.6,0,0,0,3.2-4.1,13.6,13.6,0,0,0,1.4-5.1,11.9,11.9,0,0,0,0-4.2,7.3,7.3,0,0,0-1.6-3.2,6,6,0,0,0-3.9-2.1c-2.5-.1-4.3,2.3-5.3,3.7a13.3,13.3,0,0,0-2.3,5.7,24.2,24.2,0,0,0-.3,4.6,30.9,30.9,0,0,0,.7,6.8,29.6,29.6,0,0,0,7.3,14.2,27.4,27.4,0,0,0,8.3,6c9,4.4,17.8,2.9,21.3,2.2" transform="translate(-49.2 -15.4)" fill="none" stroke="#000" stroke-linecap="round" stroke-linejoin="round" stroke-width="1.42"/><path d="M566.3,423.7a11.7,11.7,0,0,0-5.8-5.4,9.2,9.2,0,0,0-4.5-.8,5.9,5.9,0,0,0-5.7,4.8,7.5,7.5,0,0,0,.5,4.9c.2.4,1,1.9,4.4,3.6a25.6,25.6,0,0,0,7.8,2.6,29.7,29.7,0,0,0,14.6-2.3,35.1,35.1,0,0,0,14.5-11.3" transform="translate(-49.2 -15.4)" fill="none" stroke="#000" stroke-linecap="round" stroke-linejoin="round" stroke-width="1.42"/><path d="M573.9,387.9a12.6,12.6,0,0,0-3.2,3.3,14.5,14.5,0,0,0-1.7,3.7,9.7,9.7,0,0,0-.4,6.2,5.4,5.4,0,0,0,1.7,2.8,5.6,5.6,0,0,0,4.4.8,7.7,7.7,0,0,0,3.2-1.9,17.7,17.7,0,0,0,3.6-3.9,22.3,22.3,0,0,0,3.5-7.7,31.7,31.7,0,0,0,1.3-9.6,28.9,28.9,0,0,0-1.1-9.7,21.8,21.8,0,0,0-2.2-5.3,47.4,47.4,0,0,0-8-11" transform="translate(-49.2 -15.4)" fill="none" stroke="#000" stroke-linecap="round" stroke-linejoin="round" stroke-width="1.42"/><path d="M585,357.2h44.9l36,.3" transform="translate(-49.2 -15.4)" fill="none" stroke="#000" stroke-linecap="round" stroke-linejoin="round" stroke-width="1.42"/><path d="M588.6,440.6l13.4-.3h26.3l27.6-.2h13.7" transform="translate(-49.2 -15.4)" fill="none" stroke="#000" stroke-linecap="round" stroke-linejoin="round" stroke-width="1.42"/><path d="M613.1,357l2.7,4.3a51.3,51.3,0,0,1,2.7,5.3,29.3,29.3,0,0,1,2.1,9.8,51.1,51.1,0,0,1-.1,10.3" transform="translate(-49.2 -15.4)" fill="none" stroke="#000" stroke-linecap="round" stroke-linejoin="round" stroke-width="1.42"/><path d="M636.8,386.4a16.7,16.7,0,0,1-.8-3.5,37.5,37.5,0,0,1-.2-8.9,50,50,0,0,1,.5-5.5,24,24,0,0,1,2.5-7.5,22.2,22.2,0,0,1,2.8-3.9" transform="translate(-49.2 -15.4)" fill="none" stroke="#000" stroke-linecap="round" stroke-linejoin="round" stroke-width="1.42"/><path d="M661.2,357.2a30.3,30.3,0,0,0-5.7,3.5,17.1,17.1,0,0,0-3.7,3.6,23.3,23.3,0,0,0-3.5,6.2,19.2,19.2,0,0,0-1.4,4,14.7,14.7,0,0,0-.2,3.2c.1,1.5.3,3.5,1.9,4.6a4.7,4.7,0,0,0,3.9.4c1.7-.6,2.7-1.9,3.8-3.5a17.1,17.1,0,0,0,1.9-3.9,22,22,0,0,0,1.3-5.1" transform="translate(-49.2 -15.4)" fill="none" stroke="#000" stroke-linecap="round" stroke-linejoin="round" stroke-width="1.42"/><path d="M597.5,357.1a19.8,19.8,0,0,1,5.9,4.1,20.9,20.9,0,0,1,4.1,5.2,19.1,19.1,0,0,1,3.2,7.1,25.7,25.7,0,0,1,.2,3.6,17.4,17.4,0,0,1-.3,3,6.2,6.2,0,0,1-2.7,3.1,4.2,4.2,0,0,1-2,.6,6.3,6.3,0,0,1-4.6-1.5c-1.3-1.2-1.7-2.8-2.3-6.1a42.8,42.8,0,0,1-.7-6.4" transform="translate(-49.2 -15.4)" fill="none" stroke="#000" stroke-linecap="round" stroke-linejoin="round" stroke-width="1.42"/><path d="M598.8,424.3a19.5,19.5,0,0,1,1.1-5.5,7.5,7.5,0,0,1,1.5-2.6c.3-.2,2-1.9,4.1-1.4a4.6,4.6,0,0,1,2.6,2.1,8.4,8.4,0,0,1,1.6,3.9,20.5,20.5,0,0,1,.5,7.9,21.3,21.3,0,0,1-2,6.1,19,19,0,0,1-4.1,5.5" transform="translate(-49.2 -15.4)" fill="none" stroke="#000" stroke-linecap="round" stroke-linejoin="round" stroke-width="1.42"/><path d="M656.8,424.8c-.1-1.8-.3-3.3-.4-4.5a11,11,0,0,0-.7-3.3,6.1,6.1,0,0,0-2.7-2.8,4.9,4.9,0,0,0-4-.5c-2.8,1-3.2,5-3.4,6a11.5,11.5,0,0,0,.1,2.6,18.5,18.5,0,0,0,.8,4.7c1.1,3.6,4,6.1,7,8.6a40.9,40.9,0,0,0,6.3,4.4" transform="translate(-49.2 -15.4)" fill="none" stroke="#000" stroke-linecap="round" stroke-linejoin="round" stroke-width="1.42"/><path d="M644.3,440a14.5,14.5,0,0,1-4.2-3.4,22.8,22.8,0,0,1-3-4.8,28.7,28.7,0,0,1-2.5-10.1,20.8,20.8,0,0,1-.1-5.6,18.1,18.1,0,0,1,1.7-6" transform="translate(-49.2 -15.4)" fill="none" stroke="#000" stroke-linecap="round" stroke-linejoin="round" stroke-width="1.42"/><path d="M620.2,410.5a27.1,27.1,0,0,1,1.8,6.9,32.8,32.8,0,0,1-.2,8.8,34.3,34.3,0,0,1-5.7,14" transform="translate(-49.2 -15.4)" fill="none" stroke="#000" stroke-linecap="round" stroke-linejoin="round" stroke-width="1.42"/><path d="M622.5,398.4h6.4l4-.3" transform="translate(-49.2 -15.4)" fill="none" stroke="#000" stroke-linecap="round" stroke-linejoin="round" stroke-width="1.42"/><path d="M746.3,1062.5a13.8,13.8,0,0,1,12.6,5.3,29.2,29.2,0,0,1,4.5,6.9c1,1.9,2,4.2,4,9,.6,1.2,1.2,2.4,1.7,3.7a11.6,11.6,0,0,0,1.1,2.4,5.7,5.7,0,0,0,1.6,2.2l2,1,1.9.7a16.1,16.1,0,0,1,6.4,4.3,15.4,15.4,0,0,1,1.7,2.4,25.1,25.1,0,0,1,2,5.4c.8,3.8,1.5,6.9-.1,8.4a4.9,4.9,0,0,1-2.6,1.3,9,9,0,0,1-3.2.2,7.6,7.6,0,0,1-4-1.9c-2.6-2.3-2.9-5.5-3.1-5.4s.6,3,1.8,7.9l1.1,3.8c.9,3.4,1.2,4.3,2,5.3a8.5,8.5,0,0,0,2.8,2.1c2.6,1.4,5,1.5,8.2,1.6a33,33,0,0,0,6.8-.4c3.6-.4,4.9-1,5.5-1.4a7.7,7.7,0,0,0,3.2-2.6,10.2,10.2,0,0,0,1.6-5.8,77.7,77.7,0,0,0-1.3-13.7l-2.2-10.2c-.8-4.2-1.3-6.3-1.6-7.6-2.3-10.1-3.5-12.8-4.2-14.1-2-3.9-3.7-5.6-4.7-6.3a14.6,14.6,0,0,0-5.2-2.9,23.8,23.8,0,0,0-6.1-.5c-1.5,0-4.2,0-8.3.3l-6.7.6" transform="translate(-49.2 -15.4)" fill="none" stroke="#000" stroke-linecap="round" stroke-linejoin="round" stroke-width="1.42"/><path d="M795.8,985.8a2.4,2.4,0,0,1-1.9,1.9c-1.3,0-2-1.7-2.1-2a5.6,5.6,0,0,1-.3-2.2,4.2,4.2,0,0,1,.7-2.6,3.1,3.1,0,0,1,2.1-1.3,3.6,3.6,0,0,1,3.1.6,4.8,4.8,0,0,1,1.2,2.4,21.8,21.8,0,0,1,.7,5.4c0,3.2,0,4.8-.8,5.8s-3.1,1.5-5,1.7a6.7,6.7,0,0,1-4.2-.4,6.9,6.9,0,0,1-2.6-3.2,16.8,16.8,0,0,1-1.8-5.2c-.9-5-1.5-9-1.6-9.6-.5-3.2-.9-5.5-1.4-8.2-.9-5-.9-4.7-1.9-10.2s-.9-5.7-1.5-8.1c-.1-.7-.4-2-.7-3.7s-.2-1.9-.4-2.9a18.5,18.5,0,0,0-1.6-4.4,13.8,13.8,0,0,0-2.2-3.4,14.1,14.1,0,0,0-2.7-2.3c-2.6-1.5-4.9-1.3-4.9-1.6s3.3-.2,7.8-.6l4-.5a116.5,116.5,0,0,1,12.7-.6,89.3,89.3,0,0,1,9.3.3,30.4,30.4,0,0,1,6,1.2,17.2,17.2,0,0,1,7.1,3.7c.6.5,2.6,2.4,4.6,9,.7,2.2.8,3.1,2.7,15.1.6,3.4,1,6.1,1.6,10s.7,5.2.9,6.9c1.2,10.1.4,12-.3,13.2a8.1,8.1,0,0,1-4.2,3.4,9.1,9.1,0,0,1-8.3-1.6c-1-1.1-1.3-2.3-1.7-4.2a14.7,14.7,0,0,1-.2-4.5c.2-1.8.4-3.4,1.7-4.4a4.5,4.5,0,0,1,3.4-.5,5,5,0,0,1,2.9,1.7,4.2,4.2,0,0,1,.9,3.1c0,.4-.2,2.1-1.5,2.5a2.7,2.7,0,0,1-2.9-1.5" transform="translate(-49.2 -15.4)" fill="none" stroke="#000" stroke-linecap="round" stroke-linejoin="round" stroke-width="1.42"/><path d="M787.7,977.2a12.4,12.4,0,0,1,3.3-3.7,6.3,6.3,0,0,1,2.9-1.7c1.7-.3,3.1.5,4.7,1.4a9.7,9.7,0,0,1,3.2,2.5c.9,1.1,1.1,2,1.5,2s.5-1.1,1.5-2.9a6.8,6.8,0,0,1,1.5-2,5.6,5.6,0,0,1,2.4-1.8,6.7,6.7,0,0,1,4.2-.1,9.9,9.9,0,0,1,2.3,1,10.7,10.7,0,0,1,3.3,2.8" transform="translate(-49.2 -15.4)" fill="none" stroke="#000" stroke-linecap="round" stroke-linejoin="round" stroke-width="1.42"/><path d="M793.5,971.9c-.2-.7-.5-1.9-.8-3.3s-1.1-4.7-2.2-10.3c-.7-3.1-.1-.3-1.2-5.6-.1-.3-.7-3.3-1.9-7.1-.6-1.8-1-2.8-1.9-3.6s-2.7-1.1-2.7-1.4,4.6-1.1,8-1.3a34.6,34.6,0,0,1,8.7.2c3.1.6,5,1,6.9,2.4s3.5,5,5,10.3c.6,2.4,1,4.6,1.6,7.6a49.2,49.2,0,0,1,.7,5.2,55.5,55.5,0,0,1,.4,6.3" transform="translate(-49.2 -15.4)" fill="none" stroke="#000" stroke-linecap="round" stroke-linejoin="round" stroke-width="1.42"/><path d="M811.1,918.2l-2.1-.3a4.6,4.6,0,0,1-2.2-.9c-.6-.8,0-1.4-.5-2.9s-1.1-1.8-.9-2.3.5-.5,3.2-.6h3.9c3.3.2,3.7.3,4.1.6s.5,1.4.8,3.1.1,1.9.1,2c.1,2.6.1,3.8.2,6.7,0,4.5.4,6.4-.1,6.6s-.9-2.3-3.3-3.8a10.9,10.9,0,0,0-3.5-1.2,40.2,40.2,0,0,0-6.3-.5H801c-1.7.1-2,.2-2.5,0a5.5,5.5,0,0,1-3.1-2.6,9.7,9.7,0,0,1-1.6-4.7" transform="translate(-49.2 -15.4)" fill="none" stroke="#000" stroke-linecap="round" stroke-linejoin="round" stroke-width="1.42"/><path d="M731.5,1064.5a11.4,11.4,0,0,1,6.8,3.4,11.8,11.8,0,0,1,2.1,3.3,13.3,13.3,0,0,1,1.5,5.3,20.3,20.3,0,0,1,.1,2.2,6.9,6.9,0,0,1-.3,2.5,3.5,3.5,0,0,1-3,1.4,3.6,3.6,0,0,1-2.5-1.5,6.8,6.8,0,0,1-1.4-5.4" transform="translate(-49.2 -15.4)" fill="none" stroke="#000" stroke-linecap="round" stroke-linejoin="round" stroke-width="1.42"/><path d="M745,1073.4a15,15,0,0,1,3.3,3.1c.6.7,1.3,1.7,2.7,5,.6,1.5,1.1,2.7,2.8,7.6.4,1.2,1.1,2.9,1.8,5.3a18.6,18.6,0,0,1,1.3,6.2,13.7,13.7,0,0,1-.2,2.1,5.7,5.7,0,0,1-.6,2.5c-.8,1.7-3.2,2.2-5.4,2.5s-3.7.7-4.9-.2a6.5,6.5,0,0,1-1.6-2.3c-.2-.5-.5-1.1-1.3-3.2l-1-3.3a27.2,27.2,0,0,1-1.2-3.8,5.5,5.5,0,0,1-.1-3.1c.5-1.3,1.6-1.9,3.1-2.6s2.8-1.4,4.1-.8,1.1.9,1.7,1.9a13.4,13.4,0,0,1,1.6,5.7c.3,2.7-.2,3.3-.3,3.5a2.4,2.4,0,0,1-2.5.8c-.8-.3-1.2-1.1-1.8-2.3a13.9,13.9,0,0,1-1.1-4.1" transform="translate(-49.2 -15.4)" fill="none" stroke="#000" stroke-linecap="round" stroke-linejoin="round" stroke-width="1.42"/><path d="M778.4,1079.6a15.2,15.2,0,0,1,3.3-.8c1.6-.3,2.5-.4,3.1.2s.6,1.1.8,2.4.4,2.5,0,3.2-1.9,1.2-3.6,1.5h-2.4a5.5,5.5,0,0,1-2.8-.6c-1-.6-1.4-1.5-2.2-3.5s-.5-1.6-.9-3.1-.7-3.3-.6-3.6a4,4,0,0,1,.7-2.8c.7-.9,1.9-1.1,3.2-1.4a13.5,13.5,0,0,1,2.8-.2,18.1,18.1,0,0,1,5.6.6,9.1,9.1,0,0,1,3.7,1.6c1,1,1.6,2.9,2.7,6.8a27.6,27.6,0,0,1,.9,3.7,10,10,0,0,1,.1,4.2,5,5,0,0,1-2,2.9,5.9,5.9,0,0,1-2,.6l-2.7.6c-2.8.4-3.5.7-4.9.9a34,34,0,0,1-7.4.1" transform="translate(-49.2 -15.4)" fill="none" stroke="#000" stroke-linecap="round" stroke-linejoin="round" stroke-width="1.42"/><path d="M721.5,1147.3c10.2-1.2,17.9-2.3,23.2-3.3l8.6-1.5,14.7-2.3c20.3-3,33.2-5.2,63.7-9.6l9.5-1.3" transform="translate(-49.2 -15.4)" fill="none" stroke="#000" stroke-linecap="round" stroke-linejoin="round" stroke-width="1.42"/><path d="M723.2,1166.3l18.7-1.3c23.9-1.6,37.6-2.8,65.3-4.9l33.7-2.6" transform="translate(-49.2 -15.4)" fill="none" stroke="#000" stroke-linecap="round" stroke-linejoin="round" stroke-width="1.42"/><path d="M788.2,1094.3c1.1,4,2,6.9,2.7,9l1.5,5.9a20.9,20.9,0,0,1,.5,2.9,6.5,6.5,0,0,1,0,2.6,4,4,0,0,1-1.6,2.1" transform="translate(-49.2 -15.4)" fill="none" stroke="#000" stroke-linecap="round" stroke-linejoin="round" stroke-width="1.42"/><path d="M793.8,1092c.9,3.2,1.7,5.9,2.2,7.9,1.1,4.5,1.7,7,2.1,9.5a44.7,44.7,0,0,1,.5,5.7c.2,4-.2,4.8-.5,5.2-1.2,2-3.9,2.6-4.7,2.8l-2.7.4a11.6,11.6,0,0,1-2.5.1,6.6,6.6,0,0,1-3.6-1.7" transform="translate(-49.2 -15.4)" fill="none" stroke="#000" stroke-linecap="round" stroke-linejoin="round" stroke-width="1.42"/><path d="M817.8,1095.7a2.5,2.5,0,0,1-1.4-.2c-.7-.4-.9-1.2-1.2-2s-.6-2,0-2.9a2.5,2.5,0,0,1,1.7-1.1,3.4,3.4,0,0,1,2.1-.2,3.7,3.7,0,0,1,1.8,2.1,9.7,9.7,0,0,1,.9,4.6c.1,1.9.1,2.8-.5,3.5a5.3,5.3,0,0,1-2.6,1.3,13.1,13.1,0,0,1-3.2.3,6,6,0,0,1-2.8-.5c-.5-.3-1-.8-1.7-2.5a25.1,25.1,0,0,1-1.6-5.2c0-.2-.4-1.9-.7-4.3s-.2-2.6,0-2.9,2.1-1.5,4.4-2a17.1,17.1,0,0,1,5-.4c1.9.2,2.9.3,3.8.9s1.7,1.2,2.8,6.1c.3,1.4.4,2.3.8,5s.9,7.1,1.4,10.4.5,2.7.7,4.2a69.1,69.1,0,0,1,.5,8.1c.1,2.8,0,3.2-.2,3.5-1.4,2.6-5.6,2.6-6.8,2.6a7.5,7.5,0,0,1-5-1c-2.4-1.6-2.7-4.4-3.2-8.7-.3-1.7-.2-2.9.5-3.8a5.2,5.2,0,0,1,2.3-1.5,8.3,8.3,0,0,1,2.6-.3c1.8,0,2.9,0,3.8.7s1.1,2.3,1.2,3.8.1,3.1-.9,4a3.5,3.5,0,0,1-4,.2,5.2,5.2,0,0,1-1-1.8,6.7,6.7,0,0,1-.3-2.2" transform="translate(-49.2 -15.4)" fill="none" stroke="#000" stroke-linecap="round" stroke-linejoin="round" stroke-width="1.42"/><path d="M822.3,1084.6a9.1,9.1,0,0,0,1.1-3.2,9.8,9.8,0,0,0-.4-3.9c-.4-1.9-.7-1.9-1.3-4.1q-.2-.5-.9-3.9a18.5,18.5,0,0,0-.8-3.4,9,9,0,0,0-1.9-3.6c-.4-.4-1.4-1.3-6-2.4a30.8,30.8,0,0,0-5.8-.9,26.9,26.9,0,0,0-8.5,0,23.6,23.6,0,0,0-4.8,1.2" transform="translate(-49.2 -15.4)" fill="none" stroke="#000" stroke-linecap="round" stroke-linejoin="round" stroke-width="1.42"/><path d="M803.8,1058.9a11.9,11.9,0,0,1,6.6,2.6,12.9,12.9,0,0,1,2.9,4.1,14.8,14.8,0,0,1,1.1,3.9,14.4,14.4,0,0,1,.4,2.9,4.5,4.5,0,0,1,0,2.4c-.5.9-1.8,1-3.9,1.1h-2.6a8,8,0,0,1-2.2-.2c-1.1-.6-1.4-2.1-1.5-2.9a3.3,3.3,0,0,1,.1-2.6c.7-1.2,2.4-1.3,3.3-1.3a6.9,6.9,0,0,1,2.9.5" transform="translate(-49.2 -15.4)" fill="none" stroke="#000" stroke-linecap="round" stroke-linejoin="round" stroke-width="1.42"/><path d="M826,1070.5a20.6,20.6,0,0,1,4.1,1.3c3.2,1.3,5.6,2.3,6.9,4.7a16,16,0,0,1,1.3,4.3c.1,1,.2,1.7.2,2.2.3,3.3.4,6.3.5,9s.2,3.8.4,6.8.2,1.9.3,3.5a56,56,0,0,1,.2,6.9c-.1,1.2-.1,2.3-.2,3.1s-.1.9-.3,3a19,19,0,0,1-.3,2.5,4.1,4.1,0,0,1-.6,1.6,2.6,2.6,0,0,1-2.3,1.2,2.9,2.9,0,0,1-2.1-1c-1-1.1-.9-2.4-.9-4.3a15.1,15.1,0,0,1,.7-4.1" transform="translate(-49.2 -15.4)" fill="none" stroke="#000" stroke-linecap="round" stroke-linejoin="round" stroke-width="1.42"/><path d="M834.2,1105a28.5,28.5,0,0,1-.6-3.2c0-.7-.1-1.6-.1-2.8s.2-1.4.4-1.6a2.5,2.5,0,0,1,1.6-1.3,3,3,0,0,1,2.9,2.3,32.1,32.1,0,0,1,1.4,5.6" transform="translate(-49.2 -15.4)" fill="none" stroke="#000" stroke-linecap="round" stroke-linejoin="round" stroke-width="1.42"/><path d="M828.5,1071.2a8.5,8.5,0,0,1,3.9,3.4,9.5,9.5,0,0,1,1.4,4.2,25.1,25.1,0,0,1,.2,4.4c0,3.9-.3,4.8-.9,5.1a2.5,2.5,0,0,1-1.2.3,3,3,0,0,1-1.8-.6c-.7-.7-.7-1.5-.9-2.9v-2.2c0-.8.1-1.8.2-3" transform="translate(-49.2 -15.4)" fill="none" stroke="#000" stroke-linecap="round" stroke-linejoin="round" stroke-width="1.42"/><path d="M822.8,1009a47.4,47.4,0,0,1,5,3.8,30.8,30.8,0,0,1,6.3,6.9,25.3,25.3,0,0,1,3.3,6.4,21.8,21.8,0,0,1,1.2,4.3,74.8,74.8,0,0,1,1.3,11.2s.3,5.4.1,11.3c-.1,1.6-.2,2.5-.2,4.3a19.2,19.2,0,0,1-.1,2,9.5,9.5,0,0,1-.3,2.1,3.5,3.5,0,0,1-1.6,2.5,3.2,3.2,0,0,1-3.8-.9,3.9,3.9,0,0,1-.7-1.7,12.7,12.7,0,0,1-.3-3.2,23,23,0,0,1,.2-2.8c.2-.9.4-2,.7-3.3" transform="translate(-49.2 -15.4)" fill="none" stroke="#000" stroke-linecap="round" stroke-linejoin="round" stroke-width="1.42"/><path d="M836,1047.3a4.8,4.8,0,0,1-2.9-2.3,5,5,0,0,1-.6-3.4,4.3,4.3,0,0,1,.9-2.7,2.9,2.9,0,0,1,1.7-1.5,3.4,3.4,0,0,1,3.1,1.2,4.8,4.8,0,0,1,1.7,3.6" transform="translate(-49.2 -15.4)" fill="none" stroke="#000" stroke-linecap="round" stroke-linejoin="round" stroke-width="1.42"/><path d="M827.8,1012.8a16.7,16.7,0,0,1,3,4.6c.4.9.3,1.1,1.3,3.7s.9,2.3,1.1,3.1a17.5,17.5,0,0,1,.5,4.2c0,1.9,0,2.8-.5,3.2s-2.2-.4-2.4-.5-1.3-1.5-2-3.4a25.5,25.5,0,0,1-1.2-5.5" transform="translate(-49.2 -15.4)" fill="none" stroke="#000" stroke-linecap="round" stroke-linejoin="round" stroke-width="1.42"/><path d="M842.6,1026.8a24.5,24.5,0,0,1,3.5,7.3,21.3,21.3,0,0,1,.9,6.7c.1,2,0,2.7-.5,3.1s-2.3,0-3.8-1.1" transform="translate(-49.2 -15.4)" fill="none" stroke="#000" stroke-linecap="round" stroke-linejoin="round" stroke-width="1.42"/><path d="M846.5,1043.9c.1,1,.3,2.6.4,4.5a37,37,0,0,1,0,9.4c-.1.8-.9,6.3-2.2,6.3s-1.4-1.8-1.5-2a11.5,11.5,0,0,1-.2-3.1c.1-.7.2-1.7.4-2.9" transform="translate(-49.2 -15.4)" fill="none" stroke="#000" stroke-linecap="round" stroke-linejoin="round" stroke-width="1.42"/><path d="M710.4,959.3a49.1,49.1,0,0,1,8.7-1.3,34.4,34.4,0,0,1,7.9,0c4.5.5,7.5.8,10.3,2.9s3.7,4.2,5.2,7.2a67.3,67.3,0,0,1,2.7,7.7c.9,2.9,1.5,5.1,1.8,6.1,1.2,4.5.9,4.4,2,8.6s1.4,4.3,1.7,6.7.5,4.4-.2,5.5-3.7,1.3-9.2,1.5c-2.6.1-2.1-.1-5.3,0s-3,.2-3.8-.1-2.4-2.2-3.6-4.5a34.6,34.6,0,0,1-1.6-4c-.8-3-1.5-5.3-.3-7s1.6-1.3,3.6-2.1a17.7,17.7,0,0,1,3.8-1c3.8-.6,6.7-1.1,8.2.5s.9,1.4,1.3,2.8.1.5.7,4c.1.7.1,1,.2,1.5s.2,2.4-.1,3-1.1.9-1.9,1.2a7.2,7.2,0,0,1-2.7.4c-3.1.3-3.6.4-4.2,0a5.1,5.1,0,0,1-1.5-1.3,5.4,5.4,0,0,1-.9-2.5c-.3-1.3-.5-2.1,0-2.8s1.3-.7,1.8-.8a2.6,2.6,0,0,1,2.1.2,2.4,2.4,0,0,1,.8,1.5,8.1,8.1,0,0,1,.5,2.1" transform="translate(-49.2 -15.4)" fill="none" stroke="#000" stroke-linecap="round" stroke-linejoin="round" stroke-width="1.42"/><path d="M720.1,957.9a9.8,9.8,0,0,1,3.6,2.5,12.2,12.2,0,0,1,2.5,4.8,50.2,50.2,0,0,1,1.2,4.9c.2,1,.3,1.5.4,2.2a18.7,18.7,0,0,1,.1,3.4,7,7,0,0,1-1.1,3.6,5.3,5.3,0,0,1-3.3,1.6c-3.1.2-5.1-2.7-5.2-2.9a9.5,9.5,0,0,1-1.2-4.4,18.4,18.4,0,0,1,0-4.1" transform="translate(-49.2 -15.4)" fill="none" stroke="#000" stroke-linecap="round" stroke-linejoin="round" stroke-width="1.42"/><path d="M727,958a13.5,13.5,0,0,1,3.8,4.2c.3.6.7,1.4,1.4,3.1s1.4,3.6,1.6,4.1a19.1,19.1,0,0,1,.7,2.8,21.9,21.9,0,0,0,.3,2.7c.2,2.1.2,2.6-.2,2.9s-.5.3-1.3.3a5.9,5.9,0,0,1-1.9,0" transform="translate(-49.2 -15.4)" fill="none" stroke="#000" stroke-linecap="round" stroke-linejoin="round" stroke-width="1.42"/><path d="M738.7,945.8l7.1-.3c14.1-.5,16.9.9,17.9,1.6a20.4,20.4,0,0,1,6.3,6.6,31.2,31.2,0,0,1,2.8,5.9,64.9,64.9,0,0,1,2.2,7.7c2.2,8.5,2.1,7.6,2.6,9.9s0,.4,1.6,9.3a57.8,57.8,0,0,1,.7,6c.2,4.1-.3,4.8-.7,5.2s-1.2.3-4.8,1.2l-2.6.6-4.3,1.1c-1.7.2-3.7.5-5.2-.5s-1.7-3.2-2.5-7.8a14.6,14.6,0,0,1-.4-3,10.1,10.1,0,0,1,.1-3.3c.7-1.6,2.7-2.2,4.7-2.8a12.3,12.3,0,0,1,2.4-.4c1.3-.1,2.9-.3,3.9.6s.7.9,1.3,3.4c1.1,4.8,1.2,5.3.8,5.9s-2.8,1.3-3.8,1.3a3.5,3.5,0,0,1-3.1-.8c-1.1-1.2-.9-3.4.1-4.1s.7-.3,1.5-.5l1.7-.2" transform="translate(-49.2 -15.4)" fill="none" stroke="#000" stroke-linecap="round" stroke-linejoin="round" stroke-width="1.42"/><path d="M742.9,945.6a9.3,9.3,0,0,1,5.4,3.5,11.8,11.8,0,0,1,1.4,3.3,7.4,7.4,0,0,1,.5,2.9c-.1.7-.3,2.9-2.1,3.6a3.5,3.5,0,0,1-4-1.2,3.8,3.8,0,0,1-.5-2.4,4.4,4.4,0,0,1,.5-2" transform="translate(-49.2 -15.4)" fill="none" stroke="#000" stroke-linecap="round" stroke-linejoin="round" stroke-width="1.42"/><path d="M752,945.4a16,16,0,0,1,3.8,3.2,8.5,8.5,0,0,1,1.5,2.2c1,1.6,1.3,3,2,5.7,1.2,4.5,1.4,5.5,1.7,7.1.7,3.8.6,4.6.2,5.3s-1.5,1-3.8,2.1c-.3.1-1.9.8-4,1.4s-2.2.4-2.6.2-.7-.9-1.1-2.1l-.3-1.1a9.9,9.9,0,0,1-.3-1.5c-.3-1.4-.3-1.5-.2-1.6s.7-.2,1.6-.6a8.5,8.5,0,0,0,2-1.1c1.5-.9,1.7-1.1,2-1s.7.8,1,2.2a15.6,15.6,0,0,1,.5,2.2" transform="translate(-49.2 -15.4)" fill="none" stroke="#000" stroke-linecap="round" stroke-linejoin="round" stroke-width="1.42"/><path d="M761.5,946.2a53.3,53.3,0,0,1,2.8,5.1,37.7,37.7,0,0,1,2.1,5.4,95.4,95.4,0,0,1,2.5,9.6l.5,2.6c.5,2.4.7,2.8.4,3.4a4.1,4.1,0,0,1-2.4,2l-2.7.9c-2.6.7-2.6.6-3.7,1l-2.9,1.4c-2.2,1-2.5,1.1-2.9.9s-.5-.9-.9-3a26.7,26.7,0,0,0-.6-3.2" transform="translate(-49.2 -15.4)" fill="none" stroke="#000" stroke-linecap="round" stroke-linejoin="round" stroke-width="1.42"/><path d="M895.7,370a15.1,15.1,0,0,1,.4,3.9c0,1.6,0,2.6-.7,3.5a3.2,3.2,0,0,1-3.1,1.7c-1.3-.3-1.9-1.7-2.2-2.2a9.6,9.6,0,0,1-.4-2.7,14.8,14.8,0,0,1,.1-2,6,6,0,0,1,1-2.4" transform="translate(-49.2 -15.4)" fill="none" stroke="#000" stroke-linecap="round" stroke-linejoin="round" stroke-width="1.42"/><path d="M891.9,398.2a15.3,15.3,0,0,0,.6-4.7,5.7,5.7,0,0,0-.6-3c-.2-.3-1.1-1.9-2.4-2s-1.3.3-2.5,2-2.3,5.7-2.5,8.7a82.5,82.5,0,0,0,0,10" transform="translate(-49.2 -15.4)" fill="none" stroke="#000" stroke-linecap="round" stroke-linejoin="round" stroke-width="1.42"/><path d="M898.9,419.8a18.7,18.7,0,0,0-.2-5.6c-.4-1.4-.7-1.8-1.2-2s-2,.2-2.6,1a4.7,4.7,0,0,0-.6,1.9,14,14,0,0,0,0,2.9,15,15,0,0,0,1,5.2,11.7,11.7,0,0,0,1.2,2.1,6,6,0,0,0,2.2,1.8,5.1,5.1,0,0,0,2.8.4" transform="translate(-49.2 -15.4)" fill="none" stroke="#000" stroke-linecap="round" stroke-linejoin="round" stroke-width="1.42"/><path d="M688.3,350.3a24.9,24.9,0,0,1,15.3.1,24.6,24.6,0,0,1,8.5,4.8,28.6,28.6,0,0,1,6.5,8.3,24.5,24.5,0,0,1,2.8,6.8c.8,3.6.1,5.2-.3,5.9a4.4,4.4,0,0,1-1.6,1.7,6.7,6.7,0,0,1-5.9,1.5c-3.5-1-4.5-5.8-4.8-7.4a14,14,0,0,1,.5-7.2" transform="translate(-49.2 -15.4)" fill="none" stroke="#000" stroke-linecap="round" stroke-linejoin="round" stroke-width="1.42"/><path d="M677.2,381.9a12,12,0,0,0,5.7,1.7,13.3,13.3,0,0,0,5.8-1.2c1.6-.7,3.1-1.4,4-3a5.7,5.7,0,0,0,.6-3.3,7.3,7.3,0,0,0-3.1-5.5,8,8,0,0,0-4.6-1.4,17.3,17.3,0,0,0-7.2.9,22.3,22.3,0,0,0-8.7,5.4,23.2,23.2,0,0,0-6.5,13.8" transform="translate(-49.2 -15.4)" fill="none" stroke="#000" stroke-linecap="round" stroke-linejoin="round" stroke-width="1.42"/><path d="M691.3,427.2a19.4,19.4,0,0,0,1.7-4.4,26,26,0,0,0,.8-3.8,23.3,23.3,0,0,0,0-3.9,16.7,16.7,0,0,0-.2-2.5,8.2,8.2,0,0,0-.6-2.4,8.7,8.7,0,0,0-5.8-5,6.9,6.9,0,0,0-5.1,1.6c-1.6,1.4-1.9,3.2-2.2,5.2a21.1,21.1,0,0,0,.4,8.4c1.2,5.2,3.3,8.7,5.6,12.7a42.2,42.2,0,0,0,13.5,15.1" transform="translate(-49.2 -15.4)" fill="none" stroke="#000" stroke-linecap="round" stroke-linejoin="round" stroke-width="1.42"/><path d="M722.5,428a30.6,30.6,0,0,0-2.4-5.3c-1.2-2.3-2-3.7-3.6-4.9s-2.7-2-4.8-1.7a5.5,5.5,0,0,0-3.2,2,7.8,7.8,0,0,0-1.9,4.9,11.8,11.8,0,0,0,.6,6.4c2.1,5.3,7.5,7.1,8.2,7.4,3,.9,5.6.5,8.7,0a29.4,29.4,0,0,0,17.5-10" transform="translate(-49.2 -15.4)" fill="none" stroke="#000" stroke-linecap="round" stroke-linejoin="round" stroke-width="1.42"/><path d="M728.1,391.2a15.6,15.6,0,0,0-3,2.6,14.5,14.5,0,0,0-3.5,8.7c0,1.6-.1,5.5,2.3,6.8s4.3,0,5.6-.6,4-3.1,5.8-5.5a29.1,29.1,0,0,0,2.8-4.8,23.5,23.5,0,0,0,2-7.9,47.1,47.1,0,0,0-1.7-16.7,50.5,50.5,0,0,0-4.5-10.9" transform="translate(-49.2 -15.4)" fill="none" stroke="#000" stroke-linecap="round" stroke-linejoin="round" stroke-width="1.42"/><path d="M800.7,386.9c0-.7-.4-7,1.2-10.9a17.7,17.7,0,0,1,1.5-2.7,8.7,8.7,0,0,1,2.7-2.7,7.4,7.4,0,0,1,3-.8,10,10,0,0,1,2.7.4,11,11,0,0,1,5.2,4.6,15.1,15.1,0,0,1,1.8,5.3,28,28,0,0,1,.5,3.4,17.7,17.7,0,0,1,0,3.3c-.2,1.2-.5,3-2,3.8a4.1,4.1,0,0,1-3.5-.2,5.9,5.9,0,0,1-2.4-3.5,12.6,12.6,0,0,1-.8-6.2" transform="translate(-49.2 -15.4)" fill="none" stroke="#000" stroke-linecap="round" stroke-linejoin="round" stroke-width="1.42"/><path d="M817.1,421.3a13.4,13.4,0,0,0,2.2-4.2,12.2,12.2,0,0,0,.7-5.1,10,10,0,0,0-1.4-4.9c-.5-.8-2.2-3.4-4.8-3.4a5.2,5.2,0,0,0-3.6,1.8c-2,2.1-2.1,5-2.1,7.9a30.1,30.1,0,0,0,.7,6.8,77.1,77.1,0,0,0,3.2,10.6" transform="translate(-49.2 -15.4)" fill="none" stroke="#000" stroke-linecap="round" stroke-linejoin="round" stroke-width="1.42"/><path d="M837.8,426.6a5.7,5.7,0,0,0-1.5-2c-.4-.3-2.4-2-4.7-1.4a4.9,4.9,0,0,0-2.8,2.7,7.4,7.4,0,0,0,0,6.2,7.2,7.2,0,0,0,3.3,3.7c3,1.6,6.2.6,7.7.1a15.6,15.6,0,0,0,6.1-4,32.5,32.5,0,0,0,7.3-11.6" transform="translate(-49.2 -15.4)" fill="none" stroke="#000" stroke-linecap="round" stroke-linejoin="round" stroke-width="1.42"/><path d="M844,397.6a9,9,0,0,0-1.8,3.8,12.8,12.8,0,0,0-.1,3.4,17.7,17.7,0,0,0,.7,4c.6,1.7,1.5,4.5,3.5,4.9s4.5-2.8,4.7-3.1a7.8,7.8,0,0,0,1.3-2.9,22.8,22.8,0,0,0,.8-6.8" transform="translate(-49.2 -15.4)" fill="none" stroke="#000" stroke-linecap="round" stroke-linejoin="round" stroke-width="1.42"/><path d="M830.3,367.2a5.3,5.3,0,0,0-1.2,2,7.3,7.3,0,0,0-.1,2.6,21,21,0,0,0,.6,3.9c.8,2,3.1,4.7,5.6,4.4s3.7-2.7,4-3.4a7.5,7.5,0,0,0,.9-3.5c.1-.7.1-1.2-.2-4.4a23.1,23.1,0,0,0-.4-3.2,13.3,13.3,0,0,0-2.2-5.3,20,20,0,0,0-6.1-6" transform="translate(-49.2 -15.4)" fill="none" stroke="#000" stroke-linecap="round" stroke-linejoin="round" stroke-width="1.42"/><path d="M768.9,396.3l3.8-.4,7.3-.6" transform="translate(-49.2 -15.4)" fill="none" stroke="#000" stroke-linecap="round" stroke-linejoin="round" stroke-width="1.42"/><path d="M865.8,395.4h6.8" transform="translate(-49.2 -15.4)" fill="none" stroke="#000" stroke-linecap="round" stroke-linejoin="round" stroke-width="1.42"/><path d="M841.7,356.2c5.1.2,10.3.3,15.5.3,7.5.1,14.7,0,21.7-.2" transform="translate(-49.2 -15.4)" fill="none" stroke="#000" stroke-linecap="round" stroke-linejoin="round" stroke-width="1.42"/><path d="M853.9,437.3h35.6" transform="translate(-49.2 -15.4)" fill="none" stroke="#000" stroke-linecap="round" stroke-linejoin="round" stroke-width="1.42"/><path d="M743.3,438.3l36.8-.2h25.3" transform="translate(-49.2 -15.4)" fill="none" stroke="#000" stroke-linecap="round" stroke-linejoin="round" stroke-width="1.42"/><path d="M739.9,357.5l21.3.2,32.7-.3,7.2-.2" transform="translate(-49.2 -15.4)" fill="none" stroke="#000" stroke-linecap="round" stroke-linejoin="round" stroke-width="1.42"/><path d="M794.5,357.4a26.1,26.1,0,0,0-7.5,11.5c-1,3.6-1.9,9.8.3,11s3-.4,3.7-.7a8.4,8.4,0,0,0,3-2.9,13.6,13.6,0,0,0,2.5-6.1" transform="translate(-49.2 -15.4)" fill="none" stroke="#000" stroke-linecap="round" stroke-linejoin="round" stroke-width="1.42"/><path d="M785.2,357.5a31.3,31.3,0,0,0-4,6.3,22.2,22.2,0,0,0-1.8,5.8,27.2,27.2,0,0,0-.3,4.5,73.3,73.3,0,0,0,.6,9.4" transform="translate(-49.2 -15.4)" fill="none" stroke="#000" stroke-linecap="round" stroke-linejoin="round" stroke-width="1.42"/><path d="M758.6,357.6a27.4,27.4,0,0,1,5.7,5.6,18.2,18.2,0,0,1,2.9,4.8c.4,1,.9,2.6,1.4,7.2.2,2.2.4,5.1.4,8.6" transform="translate(-49.2 -15.4)" fill="none" stroke="#000" stroke-linecap="round" stroke-linejoin="round" stroke-width="1.42"/><path d="M745,357.5a21.4,21.4,0,0,1,10,7,17,17,0,0,1,3.3,7.1,12.1,12.1,0,0,1-.2,7.5c-.4,1.1-1,2.6-2.3,3.1s-3.9-.5-4.5-.9a9.3,9.3,0,0,1-2.8-3.5,17.2,17.2,0,0,1-2-6.5" transform="translate(-49.2 -15.4)" fill="none" stroke="#000" stroke-linecap="round" stroke-linejoin="round" stroke-width="1.42"/><path d="M750.5,425.9a32,32,0,0,1,.4-5.7c.6-4,1.2-7.3,3.7-8.7a4.1,4.1,0,0,1,3.9-.3c1.5.9,1.7,3.1,2,6.4a21.5,21.5,0,0,1-.5,6.7,18.3,18.3,0,0,1-2.4,6.1,19.3,19.3,0,0,1-8.8,7.8" transform="translate(-49.2 -15.4)" fill="none" stroke="#000" stroke-linecap="round" stroke-linejoin="round" stroke-width="1.42"/><path d="M763.9,438.2a25.4,25.4,0,0,0,3-7.2c.5-2,.6-4.3.8-8.8s.1-7.3,1.1-9.5a11.9,11.9,0,0,1,3.5-4.4" transform="translate(-49.2 -15.4)" fill="none" stroke="#000" stroke-linecap="round" stroke-linejoin="round" stroke-width="1.42"/><path d="M782.5,408.7a38.2,38.2,0,0,1,1.3,7c.3,2.3.2,3.3.5,6.4.1.8.4,3.8.8,5.8a24.3,24.3,0,0,0,5.2,10.3" transform="translate(-49.2 -15.4)" fill="none" stroke="#000" stroke-linecap="round" stroke-linejoin="round" stroke-width="1.42"/><path d="M800.4,423.5a31.6,31.6,0,0,0-1.3-5.8c-1.2-3.5-2.6-7.5-5.2-7.8s-3.6,1.6-4.4,2.7-1,3-1,4.9a18.6,18.6,0,0,0,1.4,7.4,28.7,28.7,0,0,0,2.8,5.7,24.7,24.7,0,0,0,8.6,7.6" transform="translate(-49.2 -15.4)" fill="none" stroke="#000" stroke-linecap="round" stroke-linejoin="round" stroke-width="1.42"/><path d="M876,356.4a19.6,19.6,0,0,0-2.2,4.2,20.9,20.9,0,0,0-1.1,7.9,13,13,0,0,0,.9,5.2c.7,1.9,1.4,2.2,1.8,2.3a3,3,0,0,0,2.1-.7c.2-.2,1-.9,1.2-3.6a19.1,19.1,0,0,0-.2-4.6" transform="translate(-49.2 -15.4)" fill="none" stroke="#000" stroke-linecap="round" stroke-linejoin="round" stroke-width="1.42"/><path d="M870.2,356.5a14.6,14.6,0,0,0-2.6,4.3c-1.9,4.8-.9,9.4-.3,12.2a25.4,25.4,0,0,0,3.2,7.9" transform="translate(-49.2 -15.4)" fill="none" stroke="#000" stroke-linecap="round" stroke-linejoin="round" stroke-width="1.42"/><path d="M857.2,356.5a21.6,21.6,0,0,1,5.5,8.8,28.4,28.4,0,0,1,.8,9.3,46.2,46.2,0,0,1-.6,7.5" transform="translate(-49.2 -15.4)" fill="none" stroke="#000" stroke-linecap="round" stroke-linejoin="round" stroke-width="1.42"/><path d="M845.9,356.3c1.6,1,7.7,5,10.3,10.7a12.6,12.6,0,0,1,1,6.1c-.1,1-.3,2.5-1.3,3s-2.8-1-3.4-1.7a6.6,6.6,0,0,1-1.4-3.3,9.2,9.2,0,0,1,.1-3.8" transform="translate(-49.2 -15.4)" fill="none" stroke="#000" stroke-linecap="round" stroke-linejoin="round" stroke-width="1.42"/><path d="M859.9,429.3a52,52,0,0,1-.8-5.2,29,29,0,0,1-.2-4.6,5.2,5.2,0,0,1,.3-2.9c.5-1.1,1.7-2.4,2.7-2.2s2.1,6.8,2.2,8.4a31.9,31.9,0,0,1-.2,4.9,25.5,25.5,0,0,1-.3,3.6,13.1,13.1,0,0,1-3.1,6" transform="translate(-49.2 -15.4)" fill="none" stroke="#000" stroke-linecap="round" stroke-linejoin="round" stroke-width="1.42"/><path d="M870.7,409.2a23.5,23.5,0,0,0-1.3,7.7c-.1,2.7.4,3.2.5,7.1a39.3,39.3,0,0,1-.4,7.3,24.6,24.6,0,0,1-1.7,6" transform="translate(-49.2 -15.4)" fill="none" stroke="#000" stroke-linecap="round" stroke-linejoin="round" stroke-width="1.42"/><path d="M875.2,408.9a29.1,29.1,0,0,1,2.9,9.9c.3,2.1.5,3.8.6,5.3a33.9,33.9,0,0,0,.5,4.8,15.2,15.2,0,0,0,1.5,4.2,14.1,14.1,0,0,0,3.4,4.2" transform="translate(-49.2 -15.4)" fill="none" stroke="#000" stroke-linecap="round" stroke-linejoin="round" stroke-width="1.42"/><path d="M886.3,416.2c-.2-.2-2-1.4-3.2-.7a3,3,0,0,0-1,2.6,25.5,25.5,0,0,0,1.6,9.7,60.3,60.3,0,0,0,4.8,9.5" transform="translate(-49.2 -15.4)" fill="none" stroke="#000" stroke-linecap="round" stroke-linejoin="round" stroke-width="1.42"/></g></svg>