<svg xmlns="http://www.w3.org/2000/svg" xmlns:xlink="http://www.w3.org/1999/xlink" viewBox="0 0 505.1 635"><defs><pattern id="_10_lpi_10_" data-name="10 lpi 10%" width="72" height="72" patternTransform="translate(-3.9 66.1) rotate(-45)" patternUnits="userSpaceOnUse" viewBox="0 0 72 72"><rect width="72" height="72" fill="none"/><line x1="71.8" y1="68.4" x2="144.3" y2="68.4" fill="none" stroke="#000" stroke-width="0.57"/><line x1="71.8" y1="54" x2="144.3" y2="54" fill="none" stroke="#000" stroke-width="0.57"/><line x1="71.8" y1="39.6" x2="144.3" y2="39.6" fill="none" stroke="#000" stroke-width="0.57"/><line x1="71.8" y1="25.2" x2="144.3" y2="25.2" fill="none" stroke="#000" stroke-width="0.57"/><line x1="71.8" y1="10.8" x2="144.3" y2="10.8" fill="none" stroke="#000" stroke-width="0.57"/><line x1="71.8" y1="61.2" x2="144.3" y2="61.2" fill="none" stroke="#000" stroke-width="0.57"/><line x1="71.8" y1="46.8" x2="144.3" y2="46.8" fill="none" stroke="#000" stroke-width="0.57"/><line x1="71.8" y1="32.4" x2="144.3" y2="32.4" fill="none" stroke="#000" stroke-width="0.57"/><line x1="71.8" y1="18" x2="144.3" y2="18" fill="none" stroke="#000" stroke-width="0.57"/><line x1="71.8" y1="3.6" x2="144.3" y2="3.6" fill="none" stroke="#000" stroke-width="0.57"/><line x1="71.8" y1="72" x2="144.3" y2="72" fill="none" stroke="#000" stroke-width="0.57"/><line x1="71.8" y1="57.6" x2="144.3" y2="57.6" fill="none" stroke="#000" stroke-width="0.57"/><line x1="71.8" y1="43.2" x2="144.3" y2="43.2" fill="none" stroke="#000" stroke-width="0.57"/><line x1="71.8" y1="28.8" x2="144.3" y2="28.8" fill="none" stroke="#000" stroke-width="0.57"/><line x1="71.8" y1="14.4" x2="144.3" y2="14.4" fill="none" stroke="#000" stroke-width="0.57"/><line x1="71.8" y1="64.8" x2="144.3" y2="64.8" fill="none" stroke="#000" stroke-width="0.57"/><line x1="71.8" y1="50.4" x2="144.3" y2="50.4" fill="none" stroke="#000" stroke-width="0.57"/><line x1="71.8" y1="36" x2="144.3" y2="36" fill="none" stroke="#000" stroke-width="0.57"/><line x1="71.8" y1="21.6" x2="144.3" y2="21.6" fill="none" stroke="#000" stroke-width="0.57"/><line x1="71.8" y1="7.2" x2="144.3" y2="7.2" fill="none" stroke="#000" stroke-width="0.57"/><line x1="-0.3" y1="68.4" x2="72.3" y2="68.4" fill="none" stroke="#000" stroke-width="0.57"/><line x1="-0.3" y1="54" x2="72.3" y2="54" fill="none" stroke="#000" stroke-width="0.57"/><line x1="-0.3" y1="39.6" x2="72.3" y2="39.6" fill="none" stroke="#000" stroke-width="0.57"/><line x1="-0.3" y1="25.2" x2="72.3" y2="25.2" fill="none" stroke="#000" stroke-width="0.57"/><line x1="-0.3" y1="10.8" x2="72.3" y2="10.8" fill="none" stroke="#000" stroke-width="0.57"/><line x1="-0.3" y1="61.2" x2="72.3" y2="61.2" fill="none" stroke="#000" stroke-width="0.57"/><line x1="-0.3" y1="46.8" x2="72.3" y2="46.8" fill="none" stroke="#000" stroke-width="0.57"/><line x1="-0.3" y1="32.4" x2="72.3" y2="32.4" fill="none" stroke="#000" stroke-width="0.57"/><line x1="-0.3" y1="18" x2="72.3" y2="18" fill="none" stroke="#000" stroke-width="0.57"/><line x1="-0.3" y1="3.6" x2="72.3" y2="3.6" fill="none" stroke="#000" stroke-width="0.57"/><line x1="-0.3" y1="72" x2="72.3" y2="72" fill="none" stroke="#000" stroke-width="0.57"/><line x1="-0.3" y1="57.6" x2="72.3" y2="57.6" fill="none" stroke="#000" stroke-width="0.57"/><line x1="-0.3" y1="43.2" x2="72.3" y2="43.2" fill="none" stroke="#000" stroke-width="0.57"/><line x1="-0.3" y1="28.8" x2="72.3" y2="28.8" fill="none" stroke="#000" stroke-width="0.57"/><line x1="-0.3" y1="14.4" x2="72.3" y2="14.4" fill="none" stroke="#000" stroke-width="0.57"/><line x1="-0.3" y1="64.8" x2="72.3" y2="64.8" fill="none" stroke="#000" stroke-width="0.57"/><line x1="-0.3" y1="50.4" x2="72.3" y2="50.4" fill="none" stroke="#000" stroke-width="0.57"/><line x1="-0.3" y1="36" x2="72.3" y2="36" fill="none" stroke="#000" stroke-width="0.57"/><line x1="-0.3" y1="21.6" x2="72.3" y2="21.6" fill="none" stroke="#000" stroke-width="0.57"/><line x1="-0.3" y1="7.2" x2="72.3" y2="7.2" fill="none" stroke="#000" stroke-width="0.57"/><line x1="-72.3" y1="68.4" x2="0.3" y2="68.4" fill="none" stroke="#000" stroke-width="0.57"/><line x1="-72.3" y1="54" x2="0.3" y2="54" fill="none" stroke="#000" stroke-width="0.57"/><line x1="-72.3" y1="39.6" x2="0.3" y2="39.6" fill="none" stroke="#000" stroke-width="0.57"/><line x1="-72.3" y1="25.2" x2="0.3" y2="25.2" fill="none" stroke="#000" stroke-width="0.57"/><line x1="-72.3" y1="10.8" x2="0.3" y2="10.8" fill="none" stroke="#000" stroke-width="0.57"/><line x1="-72.3" y1="61.2" x2="0.3" y2="61.2" fill="none" stroke="#000" stroke-width="0.57"/><line x1="-72.3" y1="46.8" x2="0.3" y2="46.8" fill="none" stroke="#000" stroke-width="0.57"/><line x1="-72.3" y1="32.4" x2="0.3" y2="32.4" fill="none" stroke="#000" stroke-width="0.57"/><line x1="-72.3" y1="18" x2="0.3" y2="18" fill="none" stroke="#000" stroke-width="0.57"/><line x1="-72.3" y1="3.6" x2="0.3" y2="3.6" fill="none" stroke="#000" stroke-width="0.57"/><line x1="-72.3" y1="72" x2="0.3" y2="72" fill="none" stroke="#000" stroke-width="0.57"/><line x1="-72.3" y1="57.6" x2="0.3" y2="57.6" fill="none" stroke="#000" stroke-width="0.57"/><line x1="-72.3" y1="43.2" x2="0.3" y2="43.2" fill="none" stroke="#000" stroke-width="0.57"/><line x1="-72.3" y1="28.8" x2="0.3" y2="28.8" fill="none" stroke="#000" stroke-width="0.57"/><line x1="-72.3" y1="14.4" x2="0.3" y2="14.4" fill="none" stroke="#000" stroke-width="0.57"/><line x1="-72.3" y1="64.8" x2="0.3" y2="64.8" fill="none" stroke="#000" stroke-width="0.57"/><line x1="-72.3" y1="50.4" x2="0.3" y2="50.4" fill="none" stroke="#000" stroke-width="0.57"/><line x1="-72.3" y1="36" x2="0.3" y2="36" fill="none" stroke="#000" stroke-width="0.57"/><line x1="-72.3" y1="21.6" x2="0.3" y2="21.6" fill="none" stroke="#000" stroke-width="0.57"/><line x1="-72.3" y1="7.2" x2="0.3" y2="7.2" fill="none" stroke="#000" stroke-width="0.57"/><line x1="71.8" x2="144.3" fill="none" stroke="#000" stroke-width="0.57"/><line x1="-0.3" x2="72.3" fill="none" stroke="#000" stroke-width="0.57"/><line x1="-72.3" x2="0.3" fill="none" stroke="#000" stroke-width="0.57"/></pattern></defs><g id="scale-1:1"><path d="M506.1,639.3v10H222.6v-10" transform="translate(-106.6 -15)" fill="none" stroke="#000" stroke-miterlimit="10" stroke-width="1.42"/><line x1="172.7" y1="624.4" x2="172.7" y2="634.3" fill="none" stroke="#000" stroke-miterlimit="10" stroke-width="1.42"/><line x1="229.4" y1="624.4" x2="229.4" y2="634.3" fill="none" stroke="#000" stroke-miterlimit="10" stroke-width="1.42"/><line x1="257.7" y1="624.4" x2="257.7" y2="634.3" fill="none" stroke="#000" stroke-miterlimit="10" stroke-width="1.42"/><line x1="201" y1="624.4" x2="201" y2="634.3" fill="none" stroke="#000" stroke-miterlimit="10" stroke-width="1.42"/><line x1="144.3" y1="624.4" x2="144.3" y2="634.3" fill="none" stroke="#000" stroke-miterlimit="10" stroke-width="1.42"/><text transform="translate(107.3 617.9)" font-size="34.02" font-family="SimSun">0</text><text transform="translate(249.3 617.9)" font-size="34.02" font-family="SimSun">5</text><text transform="translate(384.1 617.9)" font-size="34.02" font-family="SimSun">10cm</text></g><g id="outline"><path d="M511.4,369.7a46.5,46.5,0,0,1-.2,11.7,33.1,33.1,0,0,1-1.9,7.7,26.1,26.1,0,0,1-3.5,6.3c-3.5,4.4-8.2,6.1-10.2,6.9s-2.2.8-4.1,1.3l-3.8,1.2-4.6,1.3c-3.7,1.1-4,1.5-6.9,2.2a29.1,29.1,0,0,1-3.8.8l-5.5.9-4.3.7c-2.4.4-4.2.5-4.8.6l-4.6.3a58,58,0,0,1-7.3,0,24.8,24.8,0,0,1-6.4-1.4,10.2,10.2,0,0,1-2.3-1.2,12.6,12.6,0,0,1-2-1.9c-.3-.4-.7-1-1.7-3.9-.5-1.4-.9-2.5-1.2-3.6-.8-2.7-1-3.6-1.1-4a20.8,20.8,0,0,1-.4-2.6c-.2-2.4-.3-4.7-.3-6.8a46.6,46.6,0,0,1,.4-7.2c.2-1.3.2-1,.8-4.5s.8-4.8,1.2-6a14.4,14.4,0,0,1,3.1-5.6,10.1,10.1,0,0,1,1.8-1.8A14.6,14.6,0,0,1,441,359a25,25,0,0,1,3.5-1.1l2.8-1c.3-.1,3.9-1.4,7.3-2.4,0,0,4.8-1.4,10.3-2.4a20.9,20.9,0,0,1,3.6-.5l3.2-.3,4.5-.6c1.9-.3,3.3-.4,6.3-.6l5-.2,8.3-.3c3.1.2,4.7.2,6.6,1.1a13.4,13.4,0,0,1,4.7,3.9c1.6,2.1,2.1,4,2.9,6.6A55,55,0,0,1,511.4,369.7Z" transform="translate(-106.6 -15)" fill="none" stroke="#000" stroke-linecap="round" stroke-linejoin="round" stroke-width="1.42"/><path d="M509.1,358.5a19.7,19.7,0,0,0-.1-5,7.4,7.4,0,0,0-1.1-3.8,11.2,11.2,0,0,0-1.9-2.2,20.9,20.9,0,0,0-1.7-1.5,10.9,10.9,0,0,0-5-1.3h-6.2l-7.1.2-9.8.7-9.6,1a60.7,60.7,0,0,0-8.1,1.6l-4,1-4.3.8c-.7.1-1.2.2-6.8,2.3l-4.5,1.7a22.2,22.2,0,0,0-3.9,1.5,13.9,13.9,0,0,0-3.8,3,18.7,18.7,0,0,0-3,4.2c-1.4,2.5-1.7,5-2.2,9.9-.3,3.1-.4,5.4-.5,5.9a87.9,87.9,0,0,0,.3,10.7c.1,1.4.2,1.9.4,4.6s.3,3,.5,4.6a39.9,39.9,0,0,0,.6,4.3,28.6,28.6,0,0,0,1.5,4,18.1,18.1,0,0,0,2.5,4.7,15.2,15.2,0,0,0,2.5,3,12.6,12.6,0,0,0,6.4,3.4,20.1,20.1,0,0,0,3.5.3l6.2-.2,4.7-.2c2.4-.2,3.1-.4,10.8-1.6l4.5-.7,5.8-.9,5.3-1.4c4.1-1.2,7.3-2.3,9-2.9l5.3-1.9c4-1.7,5.9-2.5,7.6-4.1a16.3,16.3,0,0,0,4-6.9,19.2,19.2,0,0,0,1-4.9" transform="translate(-106.6 -15)" fill="none" stroke="#000" stroke-linecap="round" stroke-linejoin="round" stroke-width="1.42"/><path d="M583.7,262.7a37.9,37.9,0,0,1-5.4,11c-3.7,5.4-8,8.3-12.2,11.2a75,75,0,0,1-12.2,6.6,109.7,109.7,0,0,1-10.7,3.7,53,53,0,0,1-6.5,1.7c-3.1.4-8.1.8-8.4-.2s3.1-1.7,7-5.7c1.5-1.6,2.5-3,3-3.6s1-1.6,1.9-3.6a33.4,33.4,0,0,0,3.3-9.7,13.1,13.1,0,0,0,0-4.6,11.1,11.1,0,0,0-1.4-3.4,7.2,7.2,0,0,0-2.8-3,6.8,6.8,0,0,0-3.1-.8,13.7,13.7,0,0,0-3.6,0,91.7,91.7,0,0,0-9.2,1.6,73.3,73.3,0,0,0-7.2,1.8l-4.6,2s-1.4.6-3.7,1.9-1.9,1.1-2.2,1.9-.2.7-.1,2,0,2,.1,3a39.3,39.3,0,0,1,.1,4.7c0,5.4,0,8.1-.1,9.1,0,3.8-.1,5.6-.2,7.9a50.9,50.9,0,0,1-1.1,8.3c-.8,3.4-1.7,7.4-4.8,10.9a21.9,21.9,0,0,1-7.2,5.1c-1.4.6-2.7,1.1-11.3,2.9a116.8,116.8,0,0,1-14.1,1.9,10.6,10.6,0,0,1-5.3-.6c-3-1.3-4.5-4.1-5.2-5.3a23,23,0,0,1-2-5.7c-.2-1.2-.4-2.1-.5-3.3-.4-2.9-.3-4.1-.5-6.7s-.1-.9-.9-8.2a18.9,18.9,0,0,1-.1-5.8,11.7,11.7,0,0,1,.9-3.7,11.9,11.9,0,0,1,3.4-4,19.7,19.7,0,0,1,2.8-1.9c2.8-1.8,3.3-1.9,3.6-1.7s.1.8.1,2.6a12.6,12.6,0,0,0,.1,2.6,14.1,14.1,0,0,0,1.5,5.7,6.6,6.6,0,0,0,2.6,3.2,6.3,6.3,0,0,0,2.9.6,14.9,14.9,0,0,0,4.6-.7c3-.9,4.5-1.4,5.6-2.6s1.7-3,2.1-5a48.2,48.2,0,0,0,.4-5.9c0-.7.2-3,.4-5a80.5,80.5,0,0,1,1.4-8.5,48,48,0,0,1,1.9-7.7,17.7,17.7,0,0,1,1.9-4.4c.4-.7,2.2-3.6,7.6-6.8,2-1.2,4.3-2.1,9.1-3.9s6.9-2.6,10.5-3.8l6.9-2.3c2.9-1,1.8-.6,9.2-2.8,3.5-1.1,5.1-1.6,7.6-1.6a8.4,8.4,0,0,1,8.3,4.9c.5,1,.6,1.5,1.9,7.9.5,2.4.8,3.7,1.6,4.9s1.6,2.6,3.3,3,5.1-1.9,6.2-3.5a14.8,14.8,0,0,0,1.7-4.8c.4-1.6.5-2.8.6-3.3.7-5.2,1.1-5.2,1.6-9.2a101.5,101.5,0,0,0,.6-11.3c.1-3.1,0-2.7,0-4.8.2-4.1.5-5.4.7-10,.1-.8.1-2.7.1-5.1-.2-5.1-.8-6-1.4-6.5s-2.1-1-4.2-1.2a17.9,17.9,0,0,0-4.6.1l-7.3,1-7.9,1.8-7.1,1.7-7.6,1.5-5.8,1.1c-5.5,1.1-6.4,1.7-14.1,3.6l-8.9,2c-5.3,1.2-6.1,1.3-8.1,2s-3.7,1.5-7.6,2.7l-6.6,1.7-7.1,1.8c-2.1.6-2.1.8-7.6,3.1l-8.2,3.4a37.2,37.2,0,0,0-6.6,3.8,28.9,28.9,0,0,0-3.5,3.5c-.6.7-2.6,3-5.9,7.6a66.8,66.8,0,0,0-5.3,8.5,45.7,45.7,0,0,0-2.5,5.8c-.8,2-.7,2.2-2,6.3s-1.7,5-2.4,7.5-.4,2-1.1,5c-.2.8-.8,3.5-1.9,7s-1.2,3.6-2.1,6.7c-.1.6-.8,2.9-1.5,6s-1.2,6.1-.1,7.9a3.2,3.2,0,0,0,1.3,1.3,3.4,3.4,0,0,0,1.7.3l2.2-.3c1.5-.4,2.7-.9,5.1-1.8a36,36,0,0,0,3.5-1.4l2.3-1c1.2-.7,1.6-1.1,2-.9s.3.8.3,1.9a11.1,11.1,0,0,1-.2,1.7,6.1,6.1,0,0,1-.2,1.5c-.1,1-.1,1.6-.2,2.5s-.4,4.3-.7,7.1-.4,2.3-.8,5.4-.3,4.5-.7,6.4a14.8,14.8,0,0,1-2.5,6.3,12.7,12.7,0,0,1-3.8,3.8c-1.6,1.1-3.4,1.6-7,2.7s-5.6,1.4-8.2,2a36.3,36.3,0,0,1-6,.7,5.3,5.3,0,0,1-6.1-3.6,7.3,7.3,0,0,1-.4-2.1c-.2-5.1,0-8.4,0-8.4.2-2.3,0-.8.3-7.7.2-3.2.3-5.9.5-9.4.1-1,.2-2.7.4-4.7s.5-5.3,1.7-13.9c.7-5.5,1.1-8.2,1.6-11.1s1.1-6,1.8-8.9,1.5-7.2,2.9-12.8,2.7-9.8,6-20.7c0,0,3.3-10.9,6.4-18.3.7-1.7,1.5-3.2,1.5-3.2a27.4,27.4,0,0,1,2.3-4.3c1.4-2.3,3.1-3.6,6-5.9a53.1,53.1,0,0,1,7.3-4.8c1.2-.7,2.6-1.5,4.9-2.6s5.3-2.6,10.9-5l14.3-6.2,6.5-2.6L484,176c4.4-1.8,7.7-3,9.5-3.6l14.3-4.8,14-4.5c4.7-1.4,10.9-3.3,18.9-5.4l9.8-2.6,9.8-2.6a84.4,84.4,0,0,1,10.4-1.9,29.4,29.4,0,0,1,6-.3c2.7.2,4.3.3,6.2,1.3a10.2,10.2,0,0,1,4,3.8,13.4,13.4,0,0,1,1.5,4.2c1.6,8.9,1.6,12.5,1.6,12.5.2,6.2-.1,10.1-.3,16s0,5.7-.3,13.8-.3,14.2-.9,23.3-1.2,14.8-2.7,27.6A50.4,50.4,0,0,1,583.7,262.7Z" transform="translate(-106.6 -15)" fill="none" stroke="#000" stroke-linecap="round" stroke-linejoin="round" stroke-width="1.42"/><path d="M462.7,280.4l-5.5,1.7a17.4,17.4,0,0,0-3,1.2l-1.4.7a9.1,9.1,0,0,0-1.7,1.2,10.5,10.5,0,0,0-1.9,1.7l-.7,1.2a21.1,21.1,0,0,0-1.3,6.1c-.2,4.1-.1,6.7-.1,6.7,0,1.6.1,2.4.3,8.5.1.5.2,3,.4,6.3,0,1.7.2,3.9.4,6.6,0,.1.1,1.1.3,2.5s.4,2.6.6,3.5a8.5,8.5,0,0,0,1.6,3.3,7.2,7.2,0,0,0,3.4,1.5h4c2.9-.3,6.4-1,6.4-1l6.5-1.4,3.2-.6,4.9-1.2,3.1-1a57.5,57.5,0,0,0,5.7-2.2,35.1,35.1,0,0,0,5.9-3.8" transform="translate(-106.6 -15)" fill="none" stroke="#000" stroke-linecap="round" stroke-linejoin="round" stroke-width="1.13"/><path d="M458.6,324.5s-3.5,3.4-3.5,3.5l-4,3.9" transform="translate(-106.6 -15)" fill="none" stroke="#000" stroke-linecap="round" stroke-linejoin="round" stroke-width="1.13"/><path d="M479.7,242.9c.3.4,0,1.5-.5,2.2a5.7,5.7,0,0,1-3.5,1.7h-2.4a6.7,6.7,0,0,1-2.5-.3,5.4,5.4,0,0,1-1.4-1.3,16.2,16.2,0,0,1-2-3.1c-.6-1.3-.6-1.7-1.2-2s-1.2,0-2.9.8l-4.1,2a31.4,31.4,0,0,0-3.6,2,22.1,22.1,0,0,0-3.3,2.5,25.2,25.2,0,0,0-2.8,3.3,30.6,30.6,0,0,0-1.6,3.2,25.9,25.9,0,0,0-1.2,4c0,.3-.2,1.2-.4,3.6-.3,5.5.2,6.9.5,7.6a4.7,4.7,0,0,0,1.6,2.3,5.3,5.3,0,0,0,2.7.6,9.1,9.1,0,0,0,3.2-.6,6.5,6.5,0,0,0,2.3-1.4,8.4,8.4,0,0,0,2.8-3.4,10.2,10.2,0,0,0,.6-4.4,3.8,3.8,0,0,0-.6-2.5,3,3,0,0,0-1.4-.7,3.7,3.7,0,0,0-2.3.1c-1.7.6-1.9,2.3-2.5,2.2s-1.3-2.4-.4-4.3a5.3,5.3,0,0,1,3.2-2.7,10.9,10.9,0,0,1,3.9-.8h1.9a4,4,0,0,1,2.1.6,3.3,3.3,0,0,1,1.4,1.9,6.6,6.6,0,0,1,.3,3.2c-.1,2-.4,3.6-.4,3.9a24.1,24.1,0,0,1-1,4.6,15.2,15.2,0,0,1-1.1,3.2,8.9,8.9,0,0,1-2.1,3.2,9.9,9.9,0,0,1-2.6,1.6,15.5,15.5,0,0,1-2.6,1.3,19.3,19.3,0,0,1-4.3.8l-4.2.3h-1.5l-1.8-.2a6.1,6.1,0,0,1-2.6-1.5,9.3,9.3,0,0,1-1.6-2.4,11.1,11.1,0,0,1-.4-3.2c-.1-1.5-.1-2.7-.1-3.6s0-2.4.1-4.3a55.2,55.2,0,0,1,.8-8,12.7,12.7,0,0,1,1.1-4.2,13.9,13.9,0,0,1,3.4-4.8,8.3,8.3,0,0,1,2.1-1.6,84.6,84.6,0,0,1,7.6-4.8c2.7-1.5,6.7-3.7,12.6-6.3l7.3-3.1c6.7-2.7,11.7-4.4,12.9-4.8s5.9-2.1,11.9-3.8,6.7-1.7,12.3-3.5c1.7-.5,3.8-1.2,7-2l5.4-1.3c6.5-1.4,7.5-1.8,10.6-2.4l3.8-.7,2.9-.6a35.1,35.1,0,0,1,5-1,14.7,14.7,0,0,1,3.8-.2,8.7,8.7,0,0,1,3,.7,5.5,5.5,0,0,1,3.1,2.6,6.7,6.7,0,0,1,.4,2.2,12.2,12.2,0,0,1-.7,4.1c-.6,1.5-1.6,3.3-2,3.2s.2-1.6-.4-3.8a15.9,15.9,0,0,0-.8-2.1,4.6,4.6,0,0,0-1.8-1.9,4.4,4.4,0,0,0-2.7-.4l-2.5.4-2,.5-1.7.4-3.7.9c-2.7.8-6.2,1.5-12.6,3.1l-6.7,1.6c-.8.2-2.4.6-9.9,2.9l-7.1,2.2-7.2,2.3c-6.3,2-5.3,1.9-9.3,3.2a32,32,0,0,0-6.3,2.3c-3.2,1.7-3.7,2.9-3.9,3.4-.7,2,.1,4.5,1.3,5l1.9.2C479.2,242.8,479.5,242.7,479.7,242.9Z" transform="translate(-106.6 -15)" fill="none" stroke="#000" stroke-linecap="round" stroke-linejoin="round" stroke-width="1.13"/><path d="M564.6,151.6c-10.2,1.4-19.4,2.9-27.3,4.4l-13.2,2.4c-11.9,2.3-21.1,4.4-26.7,5.7l-12.1,2.7L475,169.3l-11.2,2.5c-7.5,1.8-11.2,2.6-14.2,3.6-5,1.6-9.4,3.6-11.9,4.6l-5.9,2.7-2.5,1.1-5.9,2.7c-4.6,2-8.1,5.8-9.9,7.6a37.1,37.1,0,0,0-5.6,7.8c-1.8,3.1-2.5,5.5-4,10.2s-2.2,8.1-3.7,15.1c-.5,2-1.1,4.9-1.9,8.8s-1.1,6.3-2.4,13.6c-.6,3.4-.8,4.8-1.1,6.7s-.5,4-.9,7c-.7,4.9-.8,4.9-1.3,9s-.9,7.2-1.5,13.6c-.3,3.5-.5,5.2-.7,7.1-.3,4.2-.1,4.6-.5,8.9-.2,2.6-.2,2.7-.6,7.5-.2,2.2-.3,3.6-.4,5.3s-.1,1.6-.2,3.8-.2,2.8-.4,5.7-.1,3.7-.1,4.2c0,2,.1,3.5.2,4.5a30.6,30.6,0,0,0,.7,3.7,18.4,18.4,0,0,0,1.5,3.3,9.3,9.3,0,0,0,2.2,2.7,8.4,8.4,0,0,0,4,1.4c1,.1,2.9.2,7.4-.9a53.6,53.6,0,0,0,5.4-1.5c4.1-1.3,6.2-2,7.8-2.7a28.2,28.2,0,0,0,7-4.3,23.1,23.1,0,0,0,4.9-6.1" transform="translate(-106.6 -15)" fill="none" stroke="#000" stroke-linecap="round" stroke-linejoin="round" stroke-width="1.13"/><path d="M400.6,335l-5,3.9-3.7,2.9" transform="translate(-106.6 -15)" fill="none" stroke="#000" stroke-linecap="round" stroke-linejoin="round" stroke-width="1.13"/><path d="M576.7,275.9c.7,1.4,1.7,3.6,2.7,6.2s2.5,7.1,3.7,11.3c1.6,5.9,2.8,10,4.2,16.3,1.1,4.5,1.9,8.9,3.7,17.6,1.2,5.9,1.7,8.8,2.2,11.5a360.4,360.4,0,0,1,5.1,37.4c.3,2.4.1.6,1.1,13.2,1.5,18.8,1.5,17.9,2,24.3.8,11.3.4,9.5,1.8,32.3.2,3.5.5,8.7.8,15.8.2,5.1.3,9.4.4,12.2" transform="translate(-106.6 -15)" fill="none" stroke="#000" stroke-linecap="round" stroke-linejoin="round" stroke-width="1.42"/><path d="M505.5,272.6l7.6-2.3c3.4-1,4.8-1.3,7.3-2.2l5.7-2.3c8.6-3.3,10.3-3.3,11.3-2.5s.9,1.2,1.5,2.7a12.8,12.8,0,0,1,.9,4.9,26.2,26.2,0,0,1-.1,2.9,31.6,31.6,0,0,1-2.2,8,69.8,69.8,0,0,1-8.6,14.1" transform="translate(-106.6 -15)" fill="none" stroke="#000" stroke-linecap="round" stroke-linejoin="round" stroke-width="1.13"/><path d="M119.9,475.1h0c-.7,15.6-1.3,34-1.7,54.6H107.7c.1-13.9.2-24.5.2-29.3.1-1.5.1-4.3,0-8,0-.4,0-.2-.1-3.8-.2-5.7-.2-7.1-.3-9.5s-.1-2.8-.2-3.5h12.6Z" transform="translate(-106.6 -15)" fill="url(#_10_lpi_10_)"/><path d="M354,15.7c0,.6.1,6.8.2,14.1a211,211,0,0,1-16.6,18.8c-5.4,5.5-9.8,9.3-15.5,14.3-8.3,7.2-8.4,6.7-22.2,18.1-11.4,9.5-14.9,12.7-22.2,18.2l-9.6,7.2-9.1,6.9c-4,3-9.6,7.3-14.2,11-7,5.6-11.8,10-18.3,15.9-9.4,8.6-14.2,12.9-20.2,19.4s-8.2,9.6-13.8,16.5-9.2,11.7-13.2,17.4c-11.5,16.4-17.9,31.5-22.8,43.1-4,9.7-6.6,17.4-7.6,20.7s-3.8,11.8-8.1,31.1c-2.7,11.9-5.9,26.5-8.9,46.4-1.6,10.7-2.4,18.2-4.1,33-1.2,11.2-2.6,25.1-3.9,41.2-1.9,22.7-2.7,39.7-3.4,53.8h-5.6c.1-3,.2-6.2.4-9.7,0,0,.4-8.9.7-16,.7-14.7,1.7-35.2,3.3-54.9.7-8.1,2.6-29.4,6.9-56.8,2.9-18.2,5.4-34,10.9-55,6.5-25.3,12.5-39.9,14.9-45.4a200,200,0,0,1,14.8-28.7c3.7-5.8,8.3-12.2,8.7-12.6,3.2-4.4,5.6-7.6,8.2-10.8,5.4-6.8,9.4-11.9,15-18s8.9-9.1,13.8-13.7,10.7-10,19.5-17.3c1.4-1.1,6-4.9,16.6-12.9,15.3-11.6,16.7-12,28.2-20.8,5.2-3.9,14.5-11.1,25.7-20.5s18.3-16.2,20.4-18.3,6.7-6.4,13.7-13.8,8.2-9.3,8.9-10.2,4-5.6,5.3-7.2l1.4-1.9.6-1C353.5,16.1,353.7,15.7,354,15.7Z" transform="translate(-106.6 -15)" fill="url(#_10_lpi_10_)"/><path d="M524.1,158.4l-11.2-9.9c-13.1-11.5-18.5-15.8-20.2-17.2l-8-6.2L474,117.2l-8.8-6.2-11.3-8.1c-7.7-5.6-7.6-5.8-13.6-10.1s-6.5-4.3-11.5-8-6.8-5.3-13.5-10.6-7.1-5.3-13.6-10.5c-8.7-6.8-13.8-11.4-16-13.5s-4.9-4.4-7.4-7l-4.2-4.3-3.4-3.4-4.1-4.4-1.4-1.4-4-4.8-1.4-1.7-2-2.4c-1.1-1.5-2.3-3.2-2.7-3.6a4.3,4.3,0,0,1-.4-.7c-.5-.7-.6-.8-.7-.8s-.5.4-1.2,1.4l-.6,1L350.8,20c-1.3,1.6-4.4,6-5.3,7.2s-2.7,3.5-8.9,10.2-12.7,12.9-13.7,13.8-9,8.6-20.4,18.3S282,86.1,276.8,90c-11.5,8.8-12.9,9.2-28.2,20.8-10.6,8-15.2,11.8-16.6,12.9-8.8,7.3-15.5,13.5-19.5,17.3s-8.8,8.3-13.8,13.7-9.6,11.2-15,18c-2.6,3.2-5,6.4-8.2,10.8-.4.4-5,6.8-8.7,12.6A200,200,0,0,0,152,224.8c-2.4,5.5-8.4,20.1-14.9,45.4-5.5,21-8,36.8-10.9,55-4.3,27.4-6.2,48.7-6.9,56.8-1.6,19.7-2.6,40.2-3.3,54.9-.3,7.1-.7,16-.7,16-.2,3.5-.3,6.7-.4,9.7-.2,5.1-.4,9.4-.5,12.7h-7.1c.1.7.1,2,.2,3.5s.1,3.8.3,9.5c.1,3.6.1,3.4.1,3.8.1,3.7.1,6.5,0,8,0,4.8-.1,15.4-.2,29.3h10.5l33.8.2c9,0,23.8,0,64.5-.3,62-.6,66.8-.9,93.2-.8,6.8.1,19,.2,39.3.2H568.2c7.3-.1,13.3-.3,19.3-.2h9.9c3.1,0,4.4.1,6.1,0h4.2c1.3,0,2-.1,2.2-.3s.2-.4.3-1.7.1-1.4.1-2.2a26.2,26.2,0,0,1,.1-2.8c.1-2.4.1-5.2.1-7,.1-4,.2-3.4.3-9.4s.1-9.1.1-10.5c0-5-.1-5.1,0-7.6s.1-2.6.1-5.8c0,0,0-.4-.1-3.8s-.2-2.9-.7-3.3-1.2-.5-2.9-.6h-5.9c-5.1.3-20.1-.2-20.1-.2-8.3-.2-12.4,0-39.4.2H504.7l-.9-25.7c-26-.7-45.8-.7-59.4-.6H427.5l-44.2-.2-22.3-.2" transform="translate(-106.6 -15)" fill="none" stroke="#000" stroke-linecap="round" stroke-linejoin="round" stroke-width="1.42"/><path d="M354,15.7c0,.6.1,6.8.2,14.1.2,10.6.4,23.4.4,24.3,1.4,86.8,2.7,168,2.8,176.7.7,42,1.7,103.4,1.8,109.8.1,2.3.8,49.9,1.8,106.9.2,13.7.4,27.9.7,42.1l17.9.4c8.6.1,12.1,0,18.6.3l7.5.4c5.4.2,9.4.2,10.9.2h32.9c6.1,0,15.1.1,26.1.5.1,5.5.2,11,.3,16.7s.1,14.1,0,21" transform="translate(-106.6 -15)" fill="none" stroke="#000" stroke-linecap="round" stroke-linejoin="round" stroke-width="1.42"/><path d="M354.2,29.8a211,211,0,0,1-16.6,18.8c-5.4,5.5-9.8,9.3-15.5,14.3-8.3,7.2-8.4,6.7-22.2,18.1-11.4,9.5-14.9,12.7-22.2,18.2l-9.6,7.2-9.1,6.9c-4,3-9.6,7.3-14.2,11-7,5.6-11.8,10-18.3,15.9-9.4,8.6-14.2,12.9-20.2,19.4s-8.2,9.6-13.8,16.5-9.2,11.7-13.2,17.4c-11.5,16.4-17.9,31.5-22.8,43.1-4,9.7-6.6,17.4-7.6,20.7s-3.8,11.8-8.1,31.1c-2.7,11.9-5.9,26.5-8.9,46.4-1.6,10.7-2.4,18.2-4.1,33-1.2,11.2-2.6,25.1-3.9,41.2-1.9,22.7-2.7,39.7-3.4,53.8q-.3,5.8-.6,12.3c-.7,15.6-1.3,34-1.7,54.6" transform="translate(-106.6 -15)" fill="none" stroke="#000" stroke-linecap="round" stroke-linejoin="round" stroke-width="1.13"/><path d="M114.4,475.3h5.5" transform="translate(-106.6 -15)" fill="none" stroke="#000" stroke-linecap="round" stroke-linejoin="round" stroke-width="1.13"/><path d="M114.9,462.6h5.6" transform="translate(-106.6 -15)" fill="none" stroke="#000" stroke-linecap="round" stroke-linejoin="round" stroke-width="1.13"/><path d="M360.8,436c1.2,0,3,.1,5.1,0s4.5,0,7.7-.3,7-.6,10.5-1.7a73.6,73.6,0,0,0,7.9-3.3c3.6-1.7,4.4-2.3,5-2.8a16.1,16.1,0,0,0,4.1-6.1c.7-1.8,1-3.9,1.5-8,.3-2.1.4-3.6.6-6.3,0,0,.1-1.3.2-4.9a9.1,9.1,0,0,0-.4-3.5,5.8,5.8,0,0,0-1.5-2.5,7.2,7.2,0,0,0-3.7-1.8,29.8,29.8,0,0,0-8.1-.6c-5.4.1-6.2.5-6.8,1.2s-1.1,1.8-1.7,3.9a23.5,23.5,0,0,0-.8,3.2c-.4,2.9-.8,5.2.5,6.3a2.9,2.9,0,0,0,2.4.5,4.5,4.5,0,0,0,2.6-1.1c2.2-1.5,2.6-3.5,3.1-3.4s.6,2.2.4,3.7a5.6,5.6,0,0,1-1.1,3.2c-1,1.5-2.7,1.8-5.5,2.3a16.2,16.2,0,0,1-4.5.4c-2.3,0-3.6-.1-4.4-1s-.6-1.7-.5-3.7a22.2,22.2,0,0,1,.5-4.5,20.7,20.7,0,0,1,.6-2.8c0-.3.5-2.4.9-4.7a27.2,27.2,0,0,1,1.4-5.8,8.5,8.5,0,0,1,.9-1.9c.7-.8,1.7-1.3,5.4-1.7l4.9-.4,5-.5h6.4a13.1,13.1,0,0,1,3.2.3,9.8,9.8,0,0,1,2.3.9,6.3,6.3,0,0,1,2.4,2.8,4.3,4.3,0,0,1,.4,1.4,7.5,7.5,0,0,1,.3,2.4c.1,1.1.1,2.2.2,3.4s.1,2.2.2,3.9,0,2.9-.1,5-.1,3.7-.4,6.9a84.3,84.3,0,0,1-1.1,9,24.4,24.4,0,0,1-3.2,6.7,19.4,19.4,0,0,1-6.5,6.3,39.7,39.7,0,0,1-5.2,2.1c-2.9,1-5.2,1.5-6.2,1.8a83.1,83.1,0,0,1-12.2,1.6l-4.7.5h-7.9" transform="translate(-106.6 -15)" fill="none" stroke="#000" stroke-linecap="round" stroke-linejoin="round" stroke-width="1.42"/><path d="M396.6,436.5a17.5,17.5,0,0,1-8.1,6.1c-2.1.7-3.1.4-5.9,1.3a14.2,14.2,0,0,0-2.2.7,33.1,33.1,0,0,1-5.9,1l-5.2.6-8.3.4" transform="translate(-106.6 -15)" fill="none" stroke="#000" stroke-linecap="round" stroke-linejoin="round" stroke-width="1.13"/><path d="M406.1,389.5a7.8,7.8,0,0,0-2-3.6,6.4,6.4,0,0,0-2.6-1.8,9.7,9.7,0,0,0-2.8-.5l-2.9-.2-5.3-.5-3.7-.3a29.2,29.2,0,0,0-7.2.1c-2.2.4-3.3.6-4.4,1.3s-1.9,1.2-3.8,6c-.8,2-1.3,4-2.4,7.8s-1.3,5.6-1.5,6.8-.3,3.1-.4,4.4a23.8,23.8,0,0,0,0,3.9,7.1,7.1,0,0,0,.9,3.2,6.2,6.2,0,0,0,2.2,1.9,12,12,0,0,0,3.4,1.1,17.3,17.3,0,0,0,3.3.1,18.5,18.5,0,0,0,6.7-1.1,8.9,8.9,0,0,0,2.2-1.2,6.6,6.6,0,0,0,2.1-2.7,7.8,7.8,0,0,0,1-3.5" transform="translate(-106.6 -15)" fill="none" stroke="#000" stroke-linecap="round" stroke-linejoin="round" stroke-width="1.13"/><path d="M571.1,412.2a28.5,28.5,0,0,1-6.4,9.3c-2.2,2.1-4.3,3.3-8.4,5.7-8,4.7-12,5.4-13.7,5.7-4.4.6-5.9-.3-6.4-.6s-2.1-1.7-3.9-7.2c-.7-2.4-1.3-4.9-2.3-9.9-1.5-8-1.4-9.9-1.4-10.9.2-3.1.3-5.2,1.6-7.6s3.6-3.6,8.9-7.4a62.2,62.2,0,0,1,5.9-3.5,17.2,17.2,0,0,1,3-1.1,7.4,7.4,0,0,1,4.2-.3,7,7,0,0,1,3.7,2.8,6.2,6.2,0,0,1,.9,2.3,10.2,10.2,0,0,1-.2,4.6,25.2,25.2,0,0,1-1.5,4.4l-.8,1.9a7.2,7.2,0,0,1-3.2,3.3c-.3.1-2.6,1.1-4.1-.1s-1.2-3.9-1.1-4.6c.4-2.6,2.1-3.8,1.8-4.1s-7.5,3.4-10.7,10a36.3,36.3,0,0,0-1.7,4.8,15.7,15.7,0,0,0-.5,5.8c.2,1.6.5,3.8,1.9,4.9s6.9-.4,9.6-1.8,11.4-5.9,16-14.6c2.1-3.9,2.9-8.9,4.7-18.9.7-3.9,1.1-7.3,1.8-12.7.9-7.4,1.3-11.7,1.4-13.3s.3-4.2.4-7.6.3-7.6.3-8.6c0-6-.3-4.9-.2-8.7a28.6,28.6,0,0,0-.2-4.6,6.2,6.2,0,0,0-.7-3.1,5.2,5.2,0,0,0-2.4-1.8,12.2,12.2,0,0,0-7.6-.7,16.6,16.6,0,0,0-4.5,1.3,27,27,0,0,0-4.5,2.2c-5.9,3.5-5.5,2.8-7.8,4.4a21.9,21.9,0,0,0-6.4,6.2,26.3,26.3,0,0,0-2.8,7.2c-.2,1-.4,1.9-.7,3.7a43.3,43.3,0,0,0-.9,6.2c-.3,3.4,0,4.5.3,5.2a4.2,4.2,0,0,0,1.9,2.4,4.9,4.9,0,0,0,2.6.4,16.7,16.7,0,0,0,3.4-.4c1.6-.3,1.6-.5,3.2-.8s2-.2,3-.5a8.7,8.7,0,0,0,2.6-1.6,17.7,17.7,0,0,0,1.2-1.7c.4-.9.7-1.7.9-2.3a24.9,24.9,0,0,0,1.5-5.4c.3-1.6.5-3.1.1-3.3s-1.3,1.4-3.5,3.2-3.1,2.6-4,2,.3-4.1.5-4.4a10,10,0,0,1,2.3-3.6,21.9,21.9,0,0,1,2.7-2.2,16.2,16.2,0,0,1,2.4-1.4,8.5,8.5,0,0,1,3.9-.4,3.8,3.8,0,0,1,2.6,1c.7.8.6,1.8.4,3a65.7,65.7,0,0,1-1,7c-.9,4.3-1,4.2-1.2,5.9s-.1,2.5-.6,3.9a11,11,0,0,1-2.3,4.2,17.5,17.5,0,0,1-2.7,2.3c-2.1,1.3-3.1,1-7,2.2s-3.5,1.5-5.5,1.7a12.7,12.7,0,0,1-5.4-.7,13,13,0,0,1-6-4.1c-2.1-2.7-2.1-5.7-2-11.7a61.2,61.2,0,0,1,1.1-10.1,38.7,38.7,0,0,1,2.6-8.8,25.5,25.5,0,0,1,4.2-6.5c1.2-1.3,3.3-2.9,7.3-5.9s5.5-4,6.8-4.7l6.4-3,3-1.5c4.9-2.4,5.2-2.6,6.5-3.1,4.1-1.8,5.5-1.8,6-1.8a10.2,10.2,0,0,1,4,1.1,8.5,8.5,0,0,1,4.1,3.2c.6,1,.6,1.7,1,5.1.7,6.9.7,6.5.8,8s.1,3.8.2,6.1c.1,4.7,0,8.3,0,9.1,0,5-.1,12.5-1,22-.5,4.1-.9,7.1-1.8,13.2-.3,2.4-.2,1.6-2.2,14.2-.8,5.3-1.3,8.1-2.1,12.1A44.3,44.3,0,0,1,571.1,412.2Z" transform="translate(-106.6 -15)" fill="none" stroke="#000" stroke-linecap="round" stroke-linejoin="round" stroke-width="1.42"/><path d="M565.6,332.5c.4,1.7.6,3.2.8,4.3s.4,2.3.5,3.6.1,2.2.1,3.8a33.8,33.8,0,0,1-.3,4.9l-.7,7.3c-.7,5-1.1,9.8-1.6,14.1s-1.2,13.8-1.4,18.3c-.1.2-.1,1.5-.3,3.2a32.9,32.9,0,0,1-.8,4.6,28.8,28.8,0,0,1-1.7,4.3,33.9,33.9,0,0,1-2,3.8,21.3,21.3,0,0,1-3.9,5,23.5,23.5,0,0,1-5.4,3.7,20.9,20.9,0,0,1-4.4,1.8,28.6,28.6,0,0,1-6.4,1.1" transform="translate(-106.6 -15)" fill="none" stroke="#000" stroke-linecap="round" stroke-linejoin="round" stroke-width="1.13"/><path d="M568.5,310a80.2,80.2,0,0,0-11.6,2.7,91.2,91.2,0,0,0-11,4.3l-4,2.1c-4.7,2.5-5.8,3.3-8.7,4.6l-3,1.5a15.3,15.3,0,0,0-2.8,1.4,18.2,18.2,0,0,0-2.9,2.1,14.8,14.8,0,0,0-3.1,3,25.5,25.5,0,0,0-1.4,2.7,20.9,20.9,0,0,0-1,5.7c-.2,2.5-.3,5-.3,8.5.1,1.5.2,3,.3,5.7s.2,2.7.2,3.7c.3,3.7.4,5.8.7,8.5s.3,2.8.6,5.2.5,3.1,1,4.1a7.2,7.2,0,0,0,2.7,3.4c1.6.8,3.5.2,10.4-3.7,2.1-1.2,4.7-2.7,7.5-4.5" transform="translate(-106.6 -15)" fill="none" stroke="#000" stroke-linecap="round" stroke-linejoin="round" stroke-width="1.13"/><path d="M548.2,384.6a28.5,28.5,0,0,0-11.3,2.4,30.6,30.6,0,0,0-4.8,2.6c-3.3,1.9-5,2.9-6,4.1s-1.8,3.4-2.5,6.3a35.1,35.1,0,0,0-.9,7.7c-.1,2.9,0,5.3.2,9.3s.2,2.8.3,4.7-.1,3.7.1,5.8a37.1,37.1,0,0,0,.7,4.9c.7,3,1.2,5,2.9,6a4.2,4.2,0,0,0,2.1.6c1,.1,1.9,0,4-.9a34.7,34.7,0,0,0,3.6-1.6l6.6-3.7" transform="translate(-106.6 -15)" fill="none" stroke="#000" stroke-linecap="round" stroke-linejoin="round" stroke-width="1.13"/><path d="M529,367.4c-.3.8-.8,1.8-1.3,3.2l-1.1,3.2a48.7,48.7,0,0,1-2.4,5.4" transform="translate(-106.6 -15)" fill="none" stroke="#000" stroke-linecap="round" stroke-linejoin="round" stroke-width="1.13"/></g></svg>