<svg xmlns="http://www.w3.org/2000/svg" xmlns:xlink="http://www.w3.org/1999/xlink" viewBox="0 0 747.6 1124.5"><defs><pattern id="_10_lpi_10_" data-name="10 lpi 10%" width="72" height="72" patternTransform="translate(48.2 48.9) rotate(-45)" patternUnits="userSpaceOnUse" viewBox="0 0 72 72"><rect width="72" height="72" fill="none"/><line x1="71.8" y1="68.4" x2="144.3" y2="68.4" fill="none" stroke="#231815" stroke-width="0.57"/><line x1="71.8" y1="54" x2="144.3" y2="54" fill="none" stroke="#231815" stroke-width="0.57"/><line x1="71.8" y1="39.6" x2="144.3" y2="39.6" fill="none" stroke="#231815" stroke-width="0.57"/><line x1="71.8" y1="25.2" x2="144.3" y2="25.2" fill="none" stroke="#231815" stroke-width="0.57"/><line x1="71.8" y1="10.8" x2="144.3" y2="10.8" fill="none" stroke="#231815" stroke-width="0.57"/><line x1="71.8" y1="61.2" x2="144.3" y2="61.2" fill="none" stroke="#231815" stroke-width="0.57"/><line x1="71.8" y1="46.8" x2="144.3" y2="46.8" fill="none" stroke="#231815" stroke-width="0.57"/><line x1="71.8" y1="32.4" x2="144.3" y2="32.4" fill="none" stroke="#231815" stroke-width="0.57"/><line x1="71.8" y1="18" x2="144.3" y2="18" fill="none" stroke="#231815" stroke-width="0.57"/><line x1="71.8" y1="3.6" x2="144.3" y2="3.6" fill="none" stroke="#231815" stroke-width="0.57"/><line x1="71.8" y1="72" x2="144.3" y2="72" fill="none" stroke="#231815" stroke-width="0.57"/><line x1="71.8" y1="57.6" x2="144.3" y2="57.6" fill="none" stroke="#231815" stroke-width="0.57"/><line x1="71.8" y1="43.2" x2="144.3" y2="43.2" fill="none" stroke="#231815" stroke-width="0.57"/><line x1="71.8" y1="28.8" x2="144.3" y2="28.8" fill="none" stroke="#231815" stroke-width="0.57"/><line x1="71.8" y1="14.4" x2="144.3" y2="14.4" fill="none" stroke="#231815" stroke-width="0.57"/><line x1="71.8" y1="64.8" x2="144.3" y2="64.8" fill="none" stroke="#231815" stroke-width="0.57"/><line x1="71.8" y1="50.4" x2="144.3" y2="50.4" fill="none" stroke="#231815" stroke-width="0.57"/><line x1="71.8" y1="36" x2="144.3" y2="36" fill="none" stroke="#231815" stroke-width="0.57"/><line x1="71.8" y1="21.6" x2="144.3" y2="21.6" fill="none" stroke="#231815" stroke-width="0.57"/><line x1="71.8" y1="7.2" x2="144.3" y2="7.2" fill="none" stroke="#231815" stroke-width="0.57"/><line x1="-0.3" y1="68.4" x2="72.3" y2="68.4" fill="none" stroke="#231815" stroke-width="0.57"/><line x1="-0.3" y1="54" x2="72.3" y2="54" fill="none" stroke="#231815" stroke-width="0.57"/><line x1="-0.3" y1="39.6" x2="72.3" y2="39.6" fill="none" stroke="#231815" stroke-width="0.57"/><line x1="-0.3" y1="25.2" x2="72.3" y2="25.2" fill="none" stroke="#231815" stroke-width="0.57"/><line x1="-0.3" y1="10.8" x2="72.3" y2="10.8" fill="none" stroke="#231815" stroke-width="0.57"/><line x1="-0.3" y1="61.2" x2="72.3" y2="61.2" fill="none" stroke="#231815" stroke-width="0.57"/><line x1="-0.3" y1="46.8" x2="72.3" y2="46.8" fill="none" stroke="#231815" stroke-width="0.57"/><line x1="-0.3" y1="32.4" x2="72.3" y2="32.4" fill="none" stroke="#231815" stroke-width="0.57"/><line x1="-0.3" y1="18" x2="72.3" y2="18" fill="none" stroke="#231815" stroke-width="0.57"/><line x1="-0.3" y1="3.6" x2="72.3" y2="3.6" fill="none" stroke="#231815" stroke-width="0.57"/><line x1="-0.3" y1="72" x2="72.3" y2="72" fill="none" stroke="#231815" stroke-width="0.57"/><line x1="-0.3" y1="57.6" x2="72.3" y2="57.6" fill="none" stroke="#231815" stroke-width="0.57"/><line x1="-0.3" y1="43.2" x2="72.3" y2="43.2" fill="none" stroke="#231815" stroke-width="0.57"/><line x1="-0.3" y1="28.8" x2="72.3" y2="28.8" fill="none" stroke="#231815" stroke-width="0.57"/><line x1="-0.3" y1="14.4" x2="72.3" y2="14.4" fill="none" stroke="#231815" stroke-width="0.57"/><line x1="-0.3" y1="64.8" x2="72.3" y2="64.8" fill="none" stroke="#231815" stroke-width="0.57"/><line x1="-0.3" y1="50.4" x2="72.3" y2="50.4" fill="none" stroke="#231815" stroke-width="0.57"/><line x1="-0.3" y1="36" x2="72.3" y2="36" fill="none" stroke="#231815" stroke-width="0.57"/><line x1="-0.3" y1="21.6" x2="72.3" y2="21.6" fill="none" stroke="#231815" stroke-width="0.57"/><line x1="-0.3" y1="7.2" x2="72.3" y2="7.2" fill="none" stroke="#231815" stroke-width="0.57"/><line x1="-72.3" y1="68.4" x2="0.3" y2="68.4" fill="none" stroke="#231815" stroke-width="0.57"/><line x1="-72.3" y1="54" x2="0.3" y2="54" fill="none" stroke="#231815" stroke-width="0.57"/><line x1="-72.3" y1="39.6" x2="0.3" y2="39.6" fill="none" stroke="#231815" stroke-width="0.57"/><line x1="-72.3" y1="25.2" x2="0.3" y2="25.2" fill="none" stroke="#231815" stroke-width="0.57"/><line x1="-72.3" y1="10.8" x2="0.3" y2="10.8" fill="none" stroke="#231815" stroke-width="0.57"/><line x1="-72.3" y1="61.2" x2="0.3" y2="61.2" fill="none" stroke="#231815" stroke-width="0.57"/><line x1="-72.3" y1="46.8" x2="0.3" y2="46.8" fill="none" stroke="#231815" stroke-width="0.57"/><line x1="-72.3" y1="32.4" x2="0.3" y2="32.4" fill="none" stroke="#231815" stroke-width="0.57"/><line x1="-72.3" y1="18" x2="0.3" y2="18" fill="none" stroke="#231815" stroke-width="0.57"/><line x1="-72.3" y1="3.6" x2="0.3" y2="3.6" fill="none" stroke="#231815" stroke-width="0.57"/><line x1="-72.3" y1="72" x2="0.3" y2="72" fill="none" stroke="#231815" stroke-width="0.57"/><line x1="-72.3" y1="57.6" x2="0.3" y2="57.6" fill="none" stroke="#231815" stroke-width="0.57"/><line x1="-72.3" y1="43.2" x2="0.3" y2="43.2" fill="none" stroke="#231815" stroke-width="0.57"/><line x1="-72.3" y1="28.8" x2="0.3" y2="28.8" fill="none" stroke="#231815" stroke-width="0.57"/><line x1="-72.3" y1="14.4" x2="0.3" y2="14.4" fill="none" stroke="#231815" stroke-width="0.57"/><line x1="-72.3" y1="64.8" x2="0.3" y2="64.8" fill="none" stroke="#231815" stroke-width="0.57"/><line x1="-72.3" y1="50.4" x2="0.3" y2="50.4" fill="none" stroke="#231815" stroke-width="0.57"/><line x1="-72.3" y1="36" x2="0.3" y2="36" fill="none" stroke="#231815" stroke-width="0.57"/><line x1="-72.3" y1="21.6" x2="0.3" y2="21.6" fill="none" stroke="#231815" stroke-width="0.57"/><line x1="-72.3" y1="7.2" x2="0.3" y2="7.2" fill="none" stroke="#231815" stroke-width="0.57"/><line x1="71.8" x2="144.3" fill="none" stroke="#231815" stroke-width="0.57"/><line x1="-0.3" x2="72.3" fill="none" stroke="#231815" stroke-width="0.57"/><line x1="-72.3" x2="0.3" fill="none" stroke="#231815" stroke-width="0.57"/></pattern></defs><g id="scale-1:1"><path d="M574.1,1138.5v10H290.7v-10" transform="translate(-58.4 -24.8)" fill="none" stroke="#000" stroke-miterlimit="10" stroke-width="1.42"/><line x1="289" y1="1113.8" x2="289" y2="1123.8" fill="none" stroke="#000" stroke-miterlimit="10" stroke-width="1.42"/><line x1="345.6" y1="1113.8" x2="345.6" y2="1123.8" fill="none" stroke="#000" stroke-miterlimit="10" stroke-width="1.42"/><line x1="374" y1="1113.8" x2="374" y2="1123.8" fill="none" stroke="#000" stroke-miterlimit="10" stroke-width="1.42"/><line x1="317.3" y1="1113.8" x2="317.3" y2="1123.8" fill="none" stroke="#000" stroke-miterlimit="10" stroke-width="1.42"/><line x1="260.6" y1="1113.8" x2="260.6" y2="1123.8" fill="none" stroke="#000" stroke-miterlimit="10" stroke-width="1.42"/><text transform="translate(223.5 1107.3)" font-size="34.02" font-family="SimSun">0</text><text transform="translate(365.5 1107.3)" font-size="34.02" font-family="SimSun">5</text><text transform="translate(500.4 1107.3)" font-size="34.02" font-family="SimSun">10cm</text></g><g id="outline"><path d="M115.1,151.8h83.5c15,0,36.6-.2,66.4.1l29.1.3c35.7.5,84.6.5,234-.2l47.1-.2c34.9-.2,86.8-.3,150.7,0l62.7.3" transform="translate(-58.4 -24.8)" fill="none" stroke="#000" stroke-linecap="round" stroke-linejoin="round" stroke-width="1.42"/><path d="M739.7,151.8c.9-2.9,2.1-7.5,3.5-13.1s1.9-8.1,4.2-17.8c1.5-6.5,2.8-11.6,4-16.6,2.6-10.2,2.6-9.9,3.9-15.4,2-8.3,1.9-8.9,3.8-16.6s1.6-6,3.5-13.9,3.8-15.3,4.5-19.1c0,0,.8-3.8,1.6-6.5a7.2,7.2,0,0,0,.5-1.7,4.1,4.1,0,0,0,.2-.7c.6-1.8.6-2.1.9-2.2h3.9a30.9,30.9,0,0,0,4-.3l8.4-.5h7a27.4,27.4,0,0,1,5.4.2,8.1,8.1,0,0,1,3.4,1,6.5,6.5,0,0,1,2.2,2.4,15.2,15.2,0,0,1,.6,2,14.4,14.4,0,0,1-.1,4.1c-.1,1.4-.3,2.3-.4,3a55.8,55.8,0,0,0-.9,5.9c-.5,4.4-1.8,13-2.5,17.2-1.1,7.8-2.4,17.5-5.1,37.1-1.4,11.1-1.6,12.3-2.3,17.3-.3,1.7-.5,3.6-3.1,20.5-1.7,10.9-1.9,11.9-2.2,14.6-.7,4.8-.7,5.4-1.9,14.9-.6,5.1-1.1,8.4-1.5,11.5-1.4,9.6-1.3,7.7-1.7,10.9-.2,1.7-.6,3.3-.8,5-.1.2-.2.8-.5,1.8s-.3,1.1-.5,1.3H769.6l-9.7-.2H735.2c-13.8.2-45.7-.3-49.8-.4-8.9-.2-30.4-.2-73.3-.4H560.6c-29.6.1-31,.4-51.7.3l-46.6-.5h-32" transform="translate(-58.4 -24.8)" fill="none" stroke="#000" stroke-linecap="round" stroke-linejoin="round" stroke-width="1.42"/><path d="M774.4,28.1c-2.9,17.9-5.4,32.1-7.2,41.8-1.2,6.1-1.7,8.7-2.9,15.6-2.7,14.7-3.9,22.4-5.7,33.4-1.4,7.9-3.3,19.2-6,33" transform="translate(-58.4 -24.8)" fill="none" stroke="#000" stroke-linecap="round" stroke-linejoin="round" stroke-width="1.42"/><path d="M774,315a7.4,7.4,0,0,1-.9,3.8,5,5,0,0,1-2.9,2.2c-2.3.4-4.1-1.8-4.4-2.2a9.9,9.9,0,0,1-1.4-2.7,16.2,16.2,0,0,1-.7-2.9,17.2,17.2,0,0,1-.4-5.4c.3-1.5.4-2.3,1.1-3s3.7-.5,5.1.4a6.2,6.2,0,0,1,1.9,2.1,8.6,8.6,0,0,1,1.2,2.4C773.5,312.2,774,313.5,774,315Z" transform="translate(-58.4 -24.8)" fill="none" stroke="#000" stroke-linecap="round" stroke-linejoin="round" stroke-width="1.42"/><path d="M768,198.1,757.1,200l-2.7.4-1.6.4c-2.1.4-2.5.5-2.6.8s.1.4.3,1.5a10.1,10.1,0,0,1,.4,1.8l.4,1.8c0,.2.2,1.1.4,2.2s.4,2.1.5,2.5c.3,2.2.8,4.2,1,5.1.9,4.3,2.2,14.2,3.6,22.6s1.7,7.6,3.2,16.9c1,6.1,1.6,10.7,2.3,15.8,1.1,8.5,1.2,10.7,2.3,19.1.8,5.7,1.5,10.3,1.9,13.3" transform="translate(-58.4 -24.8)" fill="none" stroke="#000" stroke-linecap="round" stroke-linejoin="round" stroke-width="1.42"/><path d="M770.7,320.8c.2,1.5.4,3.8,1,6.5a30.2,30.2,0,0,0,.7,3.1c.4,2.8.1,3.8.3,6.9.1,1.3.3,2.7.7,5.4s.6,4.4,1,6.6c0,0,.5,2.9.6,4.8v1.3c.1,1,.1,1,.1,1.1a7.3,7.3,0,0,0,.2,2.1l.7,1.5c.6,1.4.6,1.4.6,1.5s.6.9.6,1.2,0,.5-.2,1.4l-.3,1.1a18.6,18.6,0,0,0,.2,3.5,16.4,16.4,0,0,1,.1,2V372a4.4,4.4,0,0,0,0,1.7l.3.9.4,1.1a13,13,0,0,1,.2,1.8v2c-.1.6-.2.7-.1.9s0,.3.8,1.4l.6.9.4.7a3.9,3.9,0,0,1-.2,1.7,3.4,3.4,0,0,0-.3.8,6.2,6.2,0,0,0-.1.9c0,.3.1.3.3.8a3.3,3.3,0,0,1,.3.6,15.4,15.4,0,0,1,.5,1.7,17.3,17.3,0,0,1,.6,2.5c4.1,25.4,5.7,46.8,5.7,46.8,1.1,15.8,1.7,23.7,2,34.3s.3,16.8.2,22.8c0,10.6,0,16-.6,23.5-.4,5.8-.9,11.1-1.4,15.6-.8,7.1-1.5,12-1.6,13.1-.7,5.1-1.2,8.7-2.2,13.6s-1.7,7.9-2.7,11.8-2.5,10.2-4.8,17.3-5.5,15.4-7.1,19.2c-2.9,6.9-5.4,11.9-6,13.1a227.6,227.6,0,0,1-12.8,21.8c-1.2,1.7-2.6,3.8-4.7,6.4l-5.1,6.1-4.9,5.9c-4.6,5.6-4.3,5.7-7.3,9.2s-5.3,6-6.7,7.5-4.3,4.3-4.8,4.7-3.3,3-4.5,4" transform="translate(-58.4 -24.8)" fill="none" stroke="#000" stroke-linecap="round" stroke-linejoin="round" stroke-width="1.42"/><path d="M740.5,830.1c10.6,51.2,22.6,111.8,26.9,136,0,0,4,22.6,6.1,32.7.5,2.5,1,4.9,1.7,8.8s.9,5,1.6,8.5.5,2.5,1.2,5.4l2,10.5c1.3,7.2,1.2,6.7,1.5,8.2a86.7,86.7,0,0,1,1.4,11.2,32.6,32.6,0,0,1-.5,6.1c-.6,2.6-1.2,5.3-3.4,7.2a9.4,9.4,0,0,1-4,2,24.8,24.8,0,0,1-7.7,1.1c-9.6-.2-15.2-.3-23.3-2.1a49,49,0,0,1-8.2-2.6,34.4,34.4,0,0,1-8.4-5.5,41.2,41.2,0,0,1-6.8-7.1,60.8,60.8,0,0,1-4.5-6.6c-4.8-7.9-7.3-11.8-9.1-14.9s-4.5-7.7-6.2-10.8c-3-5.2-5.3-9.4-6.7-11.9-6.6-12-13-24.1-17.6-32.7-12.6-23.7-10.8-20.1-13.3-25-7.8-14.8-13.4-26.3-24.8-49.4-7.7-15.7-5.2-10.9-15.4-31.9-8.6-17.5-10.8-21.9-14.5-30.3-1.5-3.3-3.4-7.8-6.6-14.8s-3.2-6.6-6.9-14.8l-8.4-18.5-2.9-6.3c-.9-2.2-1.4-3.2-2.3-5.3s-.8-1.8-1.4-2.9a27,27,0,0,0-1.5-2.7l-1.1-1.9c-.9-1.5-.9-1.6-.9-1.8s1.2-1.1,3-2,2.3-1.3,3.4-1.8c4.3-2.1,12.1-6.4,18.1-9.8l6.7-3.8c9.3-5.5,16.3-10.1,21.9-13.9,8.9-6,15.4-10.8,17-12,6.7-5,11.8-9.1,22.1-17.3,12.2-9.8,15.6-13,17.7-14.9l8-7.5c2.9-2.9,6.2-5.4,9-8.4s2.7-3.1,3.8-2.9,1.9,2.5,2.8,6.5a65.1,65.1,0,0,1,1.3,8.5,48.6,48.6,0,0,1,.7,6.6v7.3c0,1.6-.1,2-.1,3.4a21.1,21.1,0,0,0,.2,2.4c.2,1.5.4,2.5,1.1,3l1.7.5,1.5.5a2.9,2.9,0,0,1,1.2.9c.2.3.2.6.3,1.7l.2,1.7.3,2.4a9,9,0,0,1,.3,1.5c1,4.6,1.5,7,1.7,7.7l1.9,9c2.3,11.1,8.9,47.1,9.5,49.9C734.2,800.1,735,803.3,740.5,830.1Z" transform="translate(-58.4 -24.8)" fill="none" stroke="#000" stroke-linecap="round" stroke-linejoin="round" stroke-width="1.42"/><path d="M576,776.6" transform="translate(-58.4 -24.8)" fill="none" stroke="#000" stroke-linecap="round" stroke-linejoin="round" stroke-width="1.42"/><path d="M428,792.3h5.3c11,.1,14.3.1,19-.1,9.4-.3,16.5-.9,24.1-1.5s14.6-1.3,25.7-2.8,22.1-3.4,26.4-4.2a451.7,451.7,0,0,0,49.7-12.6" transform="translate(-58.4 -24.8)" fill="none" stroke="#000" stroke-linecap="round" stroke-linejoin="round" stroke-width="1.42"/><path d="M430.4,169.4H575.3c93.6.2,140.4.4,145.5.3,0,0,21.8-.2,42.7.1l17.8.3,5,.2" transform="translate(-58.4 -24.8)" fill="none" stroke="#000" stroke-linecap="round" stroke-linejoin="round" stroke-width="1.42"/><path d="M713.4,711.5a15.5,15.5,0,0,1-1.8,2.6,47.9,47.9,0,0,1-4.8,5.3c-9.9,9-22.2,18-22.2,18-7.1,5.2-12.5,9.1-20.1,14.2s-6.2,4-12.8,8.4-9.8,6.9-15,9.8l-5.9,3.4-6.2,3.6-8.5,4.4-4.9,2.5-4.3,2.3-3.8,1.8-2.2.9a6,6,0,0,0-2.1,1.4c-.4.8,0,1.7.8,3.7l1.7,4.2,2.2,5.7c.9,2.3,1.4,3.4,1.6,4.1,10,26.1,15.3,38.8,15.3,38.8,5.9,14.1,10.9,24.6,12,26.9,2,4.1,6.9,14.3,14,27.3,2.3,4.3,4.6,8.4,7.8,13.8,5.5,9.4,10.2,16.2,13.3,20.8,4.8,7.1,9.6,14.1,16.6,22.7,2.6,3.3,5.8,7.3,10.5,12.4a164,164,0,0,0,16.5,15.9,185.9,185.9,0,0,0,21.7,15.2,132.3,132.3,0,0,0,21.2,10.6,68.1,68.1,0,0,0,23,4.9" transform="translate(-58.4 -24.8)" fill="none" stroke="#000" stroke-linecap="round" stroke-linejoin="round" stroke-width="1.42"/><path d="M718.3,718.6c-8.9,8.3-16.9,14.8-22.8,19.5-7.9,6.2-14.1,10.6-22.6,16.5-10.3,7.3-11.9,8.1-23.3,15.9l-5.9,3.9c-3.6,2.2-4.9,2.8-8.9,5-6.9,3.9-6.3,4.1-12.2,7.4-2.8,1.5-5.9,3.2-8.3,4.3s-2.4,1.3-3.6,1.8l-2.1,1.2c-.8.6-1.2.9-1.4,1.3s0,1.6.8,3.5.7,2.2,1.2,3.3,1.2,3.3,1.9,5.4c3.9,10.6,9.3,23.7,9.3,23.7,2,4.8,6.6,15.5,12.9,29,3.5,7.5,6.2,13.1,10.2,20.6,2.3,4.4,4.2,7.9,8.1,14.8s6,10.7,8.3,14.5,5.6,8.7,10.2,15.5c7.4,10.8,11.2,16.3,17,23.7,2.6,3.2,6.3,7.9,11.7,13.6a153.8,153.8,0,0,0,18.5,17.7,172,172,0,0,0,15.5,10.9c2.2,1.3,7.2,4.5,13.2,7.5a141.2,141.2,0,0,0,29.7,11.1" transform="translate(-58.4 -24.8)" fill="none" stroke="#000" stroke-linecap="round" stroke-linejoin="round" stroke-width="1.42"/><path d="M711,830.9a11.8,11.8,0,0,1-.9,5.2,9.5,9.5,0,0,1-2.5,4.3c-1.1,1-2.3,1.4-4.4,2.1a8.1,8.1,0,0,1-2.8.8,8.5,8.5,0,0,1-5-1.4,11.1,11.1,0,0,1-3.1-2.8,11.6,11.6,0,0,1-2.2-6.9c0-1,0-4.7,2.6-7.3a9.7,9.7,0,0,1,3.9-2.3,12.7,12.7,0,0,1,5.2-.8,9.3,9.3,0,0,1,4.1.9,8.7,8.7,0,0,1,3.1,2.6A10.1,10.1,0,0,1,711,830.9Z" transform="translate(-58.4 -24.8)" fill="none" stroke="#000" stroke-linecap="round" stroke-linejoin="round" stroke-width="1.42"/><path d="M734.4,836.8c-.3.2-.8-.9-2.9-2.4a13.7,13.7,0,0,0-4-2.3,8.9,8.9,0,0,0-2.6-.4,6.5,6.5,0,0,0-2.8.7,16.1,16.1,0,0,0-2.7,2.9l-.9,1.2a71,71,0,0,1-6.4,6.8c-3.1,2.7-4.8,4.2-7.5,4.7a20.2,20.2,0,0,1-4,.2,25.7,25.7,0,0,1-4.5-.4c-2.1-.5-3.5-1.4-6.3-3s-3.1-1.9-4-2.5c-8-5.4-7.8-5.7-10.1-6.8a22.1,22.1,0,0,0-8.1-2.5c-4.1-.4-7,.7-7.1.2s.3-.7,8.4-4.2l5.1-2.2,21.7-8.9s5-2,13.3-5c5.7-2,8.1-2.8,11.1-1.9s6.3,4.4,6.9,5.2a25.8,25.8,0,0,1,2.8,5.4c.4,1.1.9,2.3,2.6,7.4S734.8,836.6,734.4,836.8Z" transform="translate(-58.4 -24.8)" fill="none" stroke="#000" stroke-linecap="round" stroke-linejoin="round" stroke-width="1.42"/><path d="M738.5,820.3h2.3l1.7.5c.2.2.8.6,1.4,3.2a16.9,16.9,0,0,1,.6,3.9c.1.5.1,1,.2,2a5.7,5.7,0,0,1,.1,1.2,3.7,3.7,0,0,1-.1,1.9,3.2,3.2,0,0,1-1,1.4,16.8,16.8,0,0,1-1.9,1.9" transform="translate(-58.4 -24.8)" fill="none" stroke="#000" stroke-linecap="round" stroke-linejoin="round" stroke-width="1.42"/><path d="M755,901.3l-5.2,5.5c-1.6,1.8-2.2,2.3-2.8,2.9l-2.1,2c-.9.8-1.5,1.5-2,2l1.4,1.6,1.4,1.5,1.9,2,3.4,3.6c1.6,1.7,2.4,2.8,3.1,3.5a52.5,52.5,0,0,0,7,6.6" transform="translate(-58.4 -24.8)" fill="none" stroke="#000" stroke-linejoin="round" stroke-width="1.98"/><path d="M752.1,886.9a36,36,0,0,1-2.7,5.9,32.7,32.7,0,0,1-3.4,4.8,47.9,47.9,0,0,1-6.1,5.7,26.2,26.2,0,0,1-5.2,3.2,15.1,15.1,0,0,1-2.6.7H730c-1.7,0-2.1-.2-2.2,0s1,1.8,3.6,4.9l2.2,2.7c2,2.4,3.6,4.1,4.5,5,3.3,3.7,3.2,3.9,6.3,7.3,1,1.1,1.4,1.5,11,10.8a45.1,45.1,0,0,0,4.4,3.7,35.7,35.7,0,0,0,3.5,2.2" transform="translate(-58.4 -24.8)" fill="none" stroke="#000" stroke-linecap="round" stroke-linejoin="round" stroke-width="1.42"/><path d="M773.9,1000.9a108.3,108.3,0,0,1-13-3.6,112.3,112.3,0,0,1-12-5.2,151.8,151.8,0,0,1-14.4-8,149.9,149.9,0,0,1-19-14.3,121.4,121.4,0,0,1-9-8.6c-4.4-4.5-7.5-8.2-9.7-10.9-4.4-5.3-7.5-9.7-9.1-12l-4.9-7-5.9-8.6a48,48,0,0,1-3-4.8c-.6-1.2-.8-1.7-1.7-3.4l-2.2-4-3.1-5.7c-1.7-3.3-1.6-3-3.6-6.7s-2.7-5.2-3.7-7.2-1.4-2.8-2.2-4.7-.8-1.9-1.5-4-1-2.9-.8-3.5.8-1.3,3.9-3.4l2.8-2c6-3.9,9.5-5.9,9.5-5.9,9.4-5.3,18.8-9.6,18.8-9.6a178.7,178.7,0,0,1,18.1-7.3l6.1-2c6.8-2.3,8.1-3,11.2-3.7,4.6-1,7-1.4,8.9-.5s3.9,7,6.2,18c.7,3,.9,4.6,1.8,8.6.5,1.8.8,3.2,1.2,5.3a25.3,25.3,0,0,1,.6,6.8c-.2,3-.8,4.3-1.1,4.7a10.2,10.2,0,0,1-2.1,2.5,32.4,32.4,0,0,1-4.1,3.6l-2.6,1.9-2.1,1.7c-1.6,1.3-2.4,2-3.1,2.2a7.6,7.6,0,0,1-3,.2,10.5,10.5,0,0,1-3-.6c-1.8-.7-2.2-1.9-4.9-5.9l-2.8-3.9c-3-4.7-2.9-5.7-2.8-6.3s1-2,2.5-3.4a11.2,11.2,0,0,1,8.4-3.5,11.8,11.8,0,0,1,3.4.9c2.1.8,3.1,1.7,3.5,1.4s-.1-1-.6-2.6-.8-2.4-.8-2.4l-1.4-3.1c-.8-1.3-2.2-3.9-4.7-4.6s-2.5-.1-4.4.4a23,23,0,0,0-5,2.3c-6.9,3.8-6.8,3.3-8.3,4.6s-3.9,3.4-4.3,6,.2,3.2,5.2,11c3.2,4.8,5.6,8.3,6.4,9.4l5.4,7.4,6.9,9.1c2.1,2.6,5.6,7,10.2,12.5,3.2,3.6,6.4,7.5,11.2,12.3,7.2,7.4,11.1,10.3,12.6,11.4s5.2,3.4,6.9,4.4" transform="translate(-58.4 -24.8)" fill="none" stroke="#000" stroke-linejoin="round" stroke-width="1.42"/><path d="M721.4,882.6a21.3,21.3,0,0,0,3,4.7c1.6,1.7,2.5,2,3,2.1a4.9,4.9,0,0,0,2.7-.3,7.1,7.1,0,0,0,1.9-1.3c1.2-.9,1.2-1.1,2.9-2.6a10.9,10.9,0,0,0,1.9-1.8,4.2,4.2,0,0,0,1.1-1.4,5.3,5.3,0,0,0,.2-2.7l-.4-3.4a35.2,35.2,0,0,0-1-4.1,71.9,71.9,0,0,0-2.5-7.4,19.6,19.6,0,0,0-2.4-4.6c-1-1.4-1.5-2.2-2.4-2.7s-4.8-.7-7.2-.2l-4.8,1.4-2.4.7c-2.4.7-4.4,1.4-6.5,2.2-7.4,3.1-12.6,5.5-12.6,5.5-2.5,1.1-5.9,2.8-12.6,6.2l-3.9,2.1-5.1,3.4a38.4,38.4,0,0,0-3.4,2.3c-2.6,1.9-3.1,2.5-3.3,3a7.6,7.6,0,0,0-.6,3.9c.1,2.1.9,3.8,2.4,7.3l1,2.1a5.6,5.6,0,0,0,.8,1.6c1.1,2.4.8,3.9,1.4,4s.8-.9,2-2.2a13.2,13.2,0,0,1,2.6-2.2,23.2,23.2,0,0,1,5.9-2.9,49.2,49.2,0,0,1,5-1.6l2.6-.6c2.5-.4,3.7.1,3.9-.4s-1-1.3-3.1-4.1l-1.7-2.3c-2.2-3.3-2.1-4.2-3.2-4.7s-2.5-.1-3.9.4a7.4,7.4,0,0,0-2.7,1.5c-1.3.9-2,1.4-2.2,2.3a3.6,3.6,0,0,0,.3,2.2,11.6,11.6,0,0,0,1.2,2.3" transform="translate(-58.4 -24.8)" fill="none" stroke="#000" stroke-linecap="round" stroke-linejoin="round" stroke-width="1.42"/><path d="M351.3,788.9c3.7,15.2,6.7,28.3,9,38.7s5.3,23.5,8.7,40.2c1.5,7.5,3.8,18.6,6.4,33.3,1.9,10.2,3.7,20.4,5.7,34.1,1.5,10.1,1.1,8.1,2.8,20.5,2.6,17.9,3.7,22.7,6.8,44.5,1.3,9,1.1,8.1,2.1,14.6,2.5,16.5,3.6,21,4.5,29.3.1.8.5,3.2,1.1,7.8a64.6,64.6,0,0,0,1.6,7.9c.9,3.2,1.6,4.6,2.8,5.7a10.8,10.8,0,0,0,2.9,1.6c1.4.5,2.7.7,6.2.7s3.4,0,4.6,0H435a37,37,0,0,0,5.7-.5c2.8-.5,3.4-1.1,3.8-1.4a5.8,5.8,0,0,0,1.3-2.4,50.3,50.3,0,0,0,1.8-5.2c1.8-6.3,1.6-5.7,1.7-6.2,1.2-4.3,1.8-6.5,2-7.7a56,56,0,0,0,.5-6c.2-2.3.1-2.4.3-4.6,0-.6.2-3.8.7-7.4s.9-5.9,1.1-6.9c1.3-7.2,1.5-10.8,4.1-27.7.9-5.7,1.6-10.1,2.5-15.4,1.2-7.3,2.2-12.9,2.7-16.1l6.3-36.2c2.1-11.3,4.5-24.7,8.1-41.4,2.5-11.4,1.7-6.7,10-41.9,2.9-12.2,4.9-20.8,8.2-34.1,1.9-7.7,3.6-14.1,4.7-18.4" transform="translate(-58.4 -24.8)" fill="none" stroke="#000" stroke-linecap="round" stroke-linejoin="round" stroke-width="1.42"/><path d="M379.6,791.2c.3,5.5.6,12.4.9,20.3.6,14.1,1,25.2,1.3,30.8.5,15.3,1.2,32.4,1.7,55.1.1,3.2.4,16.5.6,34.1.2,10.7.3,20,.3,27.6" transform="translate(-58.4 -24.8)" fill="none" stroke="#000" stroke-linecap="round" stroke-linejoin="round" stroke-width="1.42"/><path d="M473,790.9c-.8,8.5-2,21.5-2.9,37.6s-1.3,28.1-2.4,66.2c-.1,6.1-1.1,40-1.3,46.8" transform="translate(-58.4 -24.8)" fill="none" stroke="#000" stroke-linecap="round" stroke-linejoin="round" stroke-width="1.42"/><path d="M352.6,794.4l4.7.2,5,.3,3.3.2,2.5.2h4l.9.2c.1.1.1.3.1.9v.6c0,.3.1.5.1.9a6.3,6.3,0,0,0,.1,1.1c.1,1,.1,2.1.2,2.8s.1,1.8.2,3,0,1.5.3,5c.2,1.9.3,2.8.4,4.6.5,5.1.8,12,.8,13.8.4,8.5.6,7.7,1.2,21.3.5,8.4.7,14.3,1.1,24.2.5,12.4.7,18.7.8,25.1.2,7.9.1,14.4.1,18.6" transform="translate(-58.4 -24.8)" fill="none" stroke="#000" stroke-linecap="round" stroke-linejoin="round" stroke-width="1.42"/><path d="M498.4,796c-2.9.5-4.8,1-6,1.3l-2,.6-2.9.7-3.5.6-1.6.3c-1.4.2-1.7.2-2,.5s-.2.5-.3,1.9a10.3,10.3,0,0,1-.1,1.7c-.1,1.4-.1,2.1-.1,2.7s-.2,2-.3,3.1-.2,3.4-.4,5.6-.4,6.4-1,13.8c-.2,1.6-.2,2.2-1.1,13.8-.5,6.2-.8,9.3-1,11.4-.3,3.9-.6,7.7-.8,11.6s-.5,6.5-1,17c-.3,5.6-.7,12.7-1.1,21.2" transform="translate(-58.4 -24.8)" fill="none" stroke="#000" stroke-linecap="round" stroke-linejoin="round" stroke-width="1.42"/><path d="M354.8,803.5h8.3c2.8.1,3.3.2,3.7.6s.4,1,.5,2.9l.3,5c0,1.4.1,2.7.2,4.6s.2,1.7.4,4.6c.1.4.1,1,.2,1.7s.1,2.3.2,3.5v2.1a5.4,5.4,0,0,1-.1,1.6c-.3.3-.7.3-2.6.2h-5" transform="translate(-58.4 -24.8)" fill="none" stroke="#000" stroke-linecap="round" stroke-linejoin="round" stroke-width="1.42"/><path d="M362.9,839.4l2.8.2h1.5a5.6,5.6,0,0,1,1.9.4c.3.3.4.8.5,1.8v2.3c0,.6.1,1.1.1,2.3s.1,1.6.1,1.8c.1,2.1.4,9.6.5,12.3s.1,7.2-.2,12.6" transform="translate(-58.4 -24.8)" fill="none" stroke="#000" stroke-linecap="round" stroke-linejoin="round" stroke-width="1.42"/><path d="M356.1,809.3h2.5c2.2,0,2.4-.2,2.8,0s.7,1.7,1.3,6.2c.3,2.3.7,4.7,1,7a5.4,5.4,0,0,1,.1.8,3.8,3.8,0,0,1,.1,1c.2,1.6.2,1.7.1,1.8s-.6.3-2,.4l-1.9.2" transform="translate(-58.4 -24.8)" fill="none" stroke="#000" stroke-linecap="round" stroke-linejoin="round" stroke-width="1.42"/><path d="M480.7,869.6c1.2-11.3,2-19.6,2.2-21.3l.2-3a14.7,14.7,0,0,1,.1-1.6c0-1,.1-1.9.1-2.8a4.9,4.9,0,0,0,.1-1.2c.1-1.2,0-1.5.2-1.7s.4,0,1.3.1h3.2" transform="translate(-58.4 -24.8)" fill="none" stroke="#000" stroke-linecap="round" stroke-linejoin="round" stroke-width="1.42"/><path d="M496.3,804.6l-3.3.4-2.9.5c-2,.4-2.2.6-2.4.8s-.6.6-1,2.8-.3,2.1-.4,3.2-.1,1.4-.4,3.6c-.4,3.8-.6,5.7-.8,7.1s-.2,1.4-.3,2.8v2.7c0,1.4,0,1.6.2,1.8s.8.3,2.8.3H490" transform="translate(-58.4 -24.8)" fill="none" stroke="#000" stroke-linecap="round" stroke-linejoin="round" stroke-width="1.42"/><path d="M494.8,810.3l-1.7.2c-1.1.2-1.3.3-1.4.4s-.5.5-.8,1.6-.4,1.6-.5,1.8-.3,1.2-.8,2.9-.6,1.9-.8,2.8a16.8,16.8,0,0,1-.3,1.8c-.1.3-.1.7-.2,1s-.2,1.1-.1,1.3l.7.2a1,1,0,0,0,.6.2l1.8.4" transform="translate(-58.4 -24.8)" fill="none" stroke="#000" stroke-linecap="round" stroke-linejoin="round" stroke-width="1.42"/><path d="M727.8,967.5a80.7,80.7,0,0,0,6.8,6,102.4,102.4,0,0,0,13.5,8.7l10.5,5.5a31.3,31.3,0,0,0,8.3,3.3,22.3,22.3,0,0,0,5.2.6" transform="translate(-58.4 -24.8)" fill="none" stroke="#000" stroke-linecap="round" stroke-linejoin="round" stroke-width="1.42"/><path d="M765.5,986.8c-.1-1.2-.3-2.3-.4-3s-.2-1.4-.3-2a15.7,15.7,0,0,0-.3-2.4,8.9,8.9,0,0,0-.3-1.8c-.4-.6-1.1-.9-2.4-1.5l-1.4-.6c-1.3-.6-1.6-1.1-1.9-1s-.1.8-.1,2.4a16.6,16.6,0,0,1,.1,2.1c0,.4,0,2.1-.1,4.1s-.3,2.5-.6,4.2" transform="translate(-58.4 -24.8)" fill="none" stroke="#000" stroke-linecap="round" stroke-linejoin="round" stroke-width="1.42"/><path d="M430.2,233.3h34.2c34.2.1,83.2.2,144.1,0h33c48.9-.2,88.4,0,114.4.2" transform="translate(-58.4 -24.8)" fill="none" stroke="#000" stroke-linecap="round" stroke-linejoin="round" stroke-width="1.42"/><path d="M760.2,257.2l-44-.5-107.1-1-122-1-57-.4" transform="translate(-58.4 -24.8)" fill="none" stroke="#000" stroke-linecap="round" stroke-linejoin="round" stroke-width="1.42"/><path d="M429.6,364.1c16.2.3,40.1.5,69,.7h73.3c56-.1,74.9-.2,115.9-.1,11.2,0,30.5.1,55.5.4l33.4.4" transform="translate(-58.4 -24.8)" fill="none" stroke="#000" stroke-linecap="round" stroke-linejoin="round" stroke-width="1.42"/><path d="M779,386.8l-28-.4c-40.7-.6-71.4-.6-91.2-.7L518,385.5l-40.5-.2-48.1-.3" transform="translate(-58.4 -24.8)" fill="none" stroke="#000" stroke-linecap="round" stroke-linejoin="round" stroke-width="1.42"/><path d="M97.5,64.5l9,53.2c1.8,10.6,3.5,20.7,5.9,35.2,2.2,12.9,4.1,23.4,5.2,30.2" transform="translate(-58.4 -24.8)" fill="none" stroke="#000" stroke-linecap="round" stroke-linejoin="round" stroke-width="1.42"/><path d="M62.8,64.9c.3,5.1.9,12.9,1.8,22.3s1.8,16.8,2.7,24.6c1.3,11.6,3.1,26.7,5.2,44.7" transform="translate(-58.4 -24.8)" fill="none" stroke="#000" stroke-linecap="round" stroke-linejoin="round" stroke-width="1.42"/><path d="M280.1,763.8v-1.7l3.5,1.2a151.1,151.1,0,0,0,23.7,5.9c12.9,2.2,19.3,3.2,24.7,3.9,16.6,2,33.6,4.1,57.3,5.5,10.6.6,23.7,1.1,38.7,1.2v12.5H402.6c-16.8-.4-29.7-1.4-37.2-2.1a478.7,478.7,0,0,1-51.9-6.6c-7.9-1.5-13.8-2.9-15.9-3.4-8.2-2-15-4.1-20.3-5.8a20.5,20.5,0,0,0,.7-2s.5-1.5,1.6-5.8C279.6,766.5,279.8,765.6,280.1,763.8Z" transform="translate(-58.4 -24.8)" fill="url(#_10_lpi_10_)"/><path d="M64.7,64.9h-.9c-.7,0-.9.1-1-.1s-.1-.1-.1-.8-.1-.4-.1-.6a4.6,4.6,0,0,0-.1-1l-.2-2.9c-.2-1.8-.3-3-.4-4.7-.3-3.6-.4-3.6-.7-7s-.2-2.9-.5-7.3c-.2-2.1-.3-3.7-.6-5.9l-.3-3.5c-.4-3.4-.5-3.8-.2-4.3s2.2-.8,5.9-.8S71,26,73.8,26h7.7a23.2,23.2,0,0,1,4.2-.1c3.3.1,4,.6,4.2.9s.9,1.6,1.3,4.1.8,4.8,1.2,7.2.6,2.4,1.3,6.5.5,3.7,1.3,7.6a43.5,43.5,0,0,0,1,5.2,38.2,38.2,0,0,1,.9,4.2,10.1,10.1,0,0,0,.3,1.7c.2.8.4,1.1.3,1.3s-.8.3-2.3.3H88.1c-3.7-.1-7-.1-8.9,0h-6s-4.3.2-6.2.1H64.7Z" transform="translate(-58.4 -24.8)" fill="url(#_10_lpi_10_)"/><path d="M146.8,694c-.1,1.2-.2,1.7-.2,2.2v1.4c-2.6-2.6-6.7-6.8-11.3-12.3-14.6-17.5-23-33.7-29.1-45.5-4.3-8.3-7-14.4-8.3-17.5s-3.8-9.3-7-18.8a437.5,437.5,0,0,1-12.2-44.8,444.3,444.3,0,0,1-8.3-69c-.9-18.4-.7-33.6-.3-43.5.5-15.2,1.6-26.8,2.4-35.3,1.4-14.3,2.9-24.6,5.1-40.1,1.8-12.7,3.2-22.8,5.6-36.3,2.9-16.2,3.2-15.2,8-40.1,2.1-10.7,4.3-22.5,7-38.2,1.7-10.2,2.3-14.2,4-23.7,1.2-6.3,2.8-14.1,4.2-21.8s1.4-7.7,1.8-9.1.2-1.4.5-2.8.3-2.8.2-3-1.1-.9-5.2-1H92.4l-7.1.2c-6.4.1-7-.3-7.4-.7s-.8-3-1.3-7.7c-.1-1.3-.2-2.1-.4-3.8s-.3-2.5-.5-4.1c-.6-4-.8-4.9-1.5-9.4s-.3-2.2-.9-6.1c-.8-5.7-1.1-6.7-.5-7.1s1.5-.5,8.8,3.9l7.5,4.8c4,2.5,4.3,2.5,7.9,4.8s4,2.7,9.7,6.4c3.4,2.2,6.8,4.5,10.3,6.6l3,2.2a6.7,6.7,0,0,1,2.1,1.9,4.7,4.7,0,0,1,.1,2.9c-.6,3.7-1,5.2-1,5.2s-.6,2.1-1.7,7c-.6,2.2-.9,3.7-1.2,5.3-2.1,10.1-4.3,19.1-7.5,35.4-.6,2.7-1.4,6.7-2.4,12.1-2.5,13.1-4,22.8-4.5,25.5-3,19.3-6,33.2-10.1,57.2-4.7,28-8.8,57-11.9,86.9-1.6,15.6-2.4,27.1-2.7,40.6a353.5,353.5,0,0,0,1.4,40.6,336.3,336.3,0,0,0,5.5,34.4,393.1,393.1,0,0,0,12,47.9,333,333,0,0,0,12.5,33,256.5,256.5,0,0,0,16.3,32.2,145.5,145.5,0,0,0,9.1,13.4,137.8,137.8,0,0,0,11.7,13.3h.1a19.1,19.1,0,0,0-.2,2.8c-.3,4.1-.4,7.2-.6,9.5A12.5,12.5,0,0,0,146.8,694Z" transform="translate(-58.4 -24.8)" fill="url(#_10_lpi_10_)"/><path d="M430.5,152.4c0,11.6-.2,47.1-.2,58.9-.9,203.3-1.6,278.3-2.1,417.8-.1,34.5-.2,86.5-.2,150.7v12.5" transform="translate(-58.4 -24.8)" fill="none" stroke="#000" stroke-linecap="round" stroke-linejoin="round" stroke-width="1.42"/><path d="M147.8,679.6c.2-3.1.3-3.2.3-4.9s0-3.3.1-5-.1-3.7.4-4,2.2,1.4,3.8,3.2,4.8,4.7,7.1,7.3,5,5,11.2,10.7c9.3,8.4,17.6,15,21,17.8,11.2,8.9,20.1,15,27.4,20,5.1,3.5,17,11.7,30.1,19.4,7.7,4.5,14.9,8.4,18.9,11a38.3,38.3,0,0,0,6.3,3.6l2.8,1.4,1.4.7c.9.5,1.3.7,1.5,1.2h0v1.7c-.3,1.8-.5,2.7-.5,2.7-1.1,4.3-1.6,5.8-1.6,5.8a20.5,20.5,0,0,1-.7,2c-.5,1.7-.3,1.4-2,6.6s-3,8.9-3.1,9.3c-2.8,7.9-4.5,13.8-7.2,21.6-4.9,14.3-7.7,22.3-13,37.1s-7.6,21.3-10.5,28.9c-1.9,5-4.8,12.5-8.8,22.3s-7.3,17-13.6,31.3c-2.1,4.8-3.4,7.8-4.6,10.3s-4.2,9.3-8.2,17.7c-5.5,11.6-10.4,22-17.5,35.3-3.7,6.7-7.2,12.9-14.3,25.2l-5.7,9.4-5.3,8.3-2.1,3a16.4,16.4,0,0,0-1.3,1.9,38,38,0,0,1-2.7,2.8,22.5,22.5,0,0,0-2.4,3.7c-1.5,2.4-3.2,3.7-6.1,5.8s-6.8,4.8-11,5.5-6.6-.4-14-2.3l-10.1-3.3a20,20,0,0,1-5.7-2.8c-1.5-1.1-3.2-2.4-3.7-4.5a13.4,13.4,0,0,1,0-4.1,35.4,35.4,0,0,1,.6-4c.3-1.8.5-3.1.5-3.5.4-2.6.8-5.1,1.1-7.7.6-4.3.6-3.4,2.1-13.1.5-3.3.8-5.9,1-7.3s.5-2.8.5-3c1.2-8.5,4.9-28.9,7.5-47.9.4-2.9,1-6.9,1.9-13.2s1.1-6.9,1.8-11.9c1.3-9,1-8.5,2.6-19.9.6-4.2,1.1-7.5,1.6-12.6.3-2.4.3-2.5.6-6.6.7-7.4,1-8.8,1.6-15,.2-2.5.5-6.1,1.2-13.2s.3-4.1,1-13.2c0,0,.2-2.3.5-6.5s0-1.3.1-4.8a9.9,9.9,0,0,0,0-1.8,4.2,4.2,0,0,0-.1-1.3,4,4,0,0,0-1.3-2.1c-.3-.4-.4-.3-1.4-1.2l-.9-.8c-.3-.4-.5-.9-.4-2.8s.1-1.1.3-2.3.1-1.7.2-2.8.3-1.8.6-3.3a10.3,10.3,0,0,1,.6-2.6,13.8,13.8,0,0,1,1.9-1.9l1.4-1.3a16.1,16.1,0,0,0,2.3-2.6,10.7,10.7,0,0,0,.7-2.9c.3-1.5.4-2.6.4-2.6.5-3.7.5-6.4,1-10.7.2-1.7.3-2,.7-5.8.1-.9.3-2,.4-3.2.4-3.6.6-6.3.6-7.2.4-5.4,1-9.8,2.4-26.5.1-1.7.9-10.1,1.4-17,.1-2.1.2-3,.4-4.9.4-5.5.5-7.2.6-8.2.4-4.2.4-3.6.4-4.4s.2-2.6.5-5.5a3.7,3.7,0,0,1,.8-2.5,5.8,5.8,0,0,1,1.9-1.3l1.4-.8c.9-.6,1.4-.9,1.6-1.3s.1-.4-.3-2.1a10.9,10.9,0,0,0-.3-1.7,14.6,14.6,0,0,0-.5-2c-1.2-3.5-1.3-3.9-1.3-4.5v-1.8c0-.5.1-1,.2-2.2a12.5,12.5,0,0,1,.2-2.1c.2-2.3.3-5.4.6-9.5A19.1,19.1,0,0,1,147.8,679.6Z" transform="translate(-58.4 -24.8)" fill="none" stroke="#000" stroke-linecap="round" stroke-linejoin="round" stroke-width="1.42"/><path d="M277.3,774.3c5.3,1.7,12.1,3.8,20.3,5.8,2.1.5,8,1.9,15.9,3.4a478.7,478.7,0,0,0,51.9,6.6c7.5.7,20.4,1.7,37.2,2.1H428" transform="translate(-58.4 -24.8)" fill="none" stroke="#000" stroke-linecap="round" stroke-linejoin="round" stroke-width="1.98"/><path d="M280.1,762.1l3.5,1.2a151.1,151.1,0,0,0,23.7,5.9c12.9,2.2,19.3,3.2,24.7,3.9,16.6,2,33.6,4.1,57.3,5.5,10.6.6,23.7,1.1,38.7,1.2" transform="translate(-58.4 -24.8)" fill="none" stroke="#000" stroke-linejoin="round" stroke-width="1.98"/><path d="M95,52.1a43.5,43.5,0,0,0,1,5.2,38.2,38.2,0,0,1,.9,4.2,10.1,10.1,0,0,0,.3,1.7c.2.8.4,1.1.3,1.3s-.8.3-2.3.3H88.1c-3.7-.1-7-.1-8.9,0h-6s-4.3.2-6.2.1H63.8c-.7,0-.9.1-1-.1s-.1-.1-.1-.8-.1-.4-.1-.6a4.6,4.6,0,0,0-.1-1l-.2-2.9c-.2-1.8-.3-3-.4-4.7-.3-3.6-.4-3.6-.7-7s-.2-2.9-.5-7.3c-.2-2.1-.3-3.7-.6-5.9l-.3-3.5c-.4-3.4-.5-3.8-.2-4.3s2.2-.8,5.9-.8S71,26,73.8,26h7.7a23.2,23.2,0,0,1,4.2-.1c3.3.1,4,.6,4.2.9s.9,1.6,1.3,4.1.8,4.8,1.2,7.2.6,2.4,1.3,6.5S94.2,48.2,95,52.1Z" transform="translate(-58.4 -24.8)" fill="none" stroke="#000" stroke-linecap="round" stroke-linejoin="round" stroke-width="1.98"/><path d="M147.7,679.6A137.8,137.8,0,0,1,136,666.3a145.5,145.5,0,0,1-9.1-13.4,256.5,256.5,0,0,1-16.3-32.2,333,333,0,0,1-12.5-33,393.1,393.1,0,0,1-12-47.9,336.3,336.3,0,0,1-5.5-34.4,353.5,353.5,0,0,1-1.4-40.6c.3-13.5,1.1-25,2.7-40.6,3.1-29.9,7.2-58.9,11.9-86.9,4.1-24,7.1-37.9,10.1-57.2.5-2.7,2-12.4,4.5-25.5,1-5.4,1.8-9.4,2.4-12.1,3.2-16.3,5.4-25.3,7.5-35.4.3-1.6.6-3.1,1.2-5.3,1.1-4.9,1.7-7,1.7-7s.4-1.5,1-5.2a4.7,4.7,0,0,0-.1-2.9,6.7,6.7,0,0,0-2.1-1.9l-3-2.2c-3.5-2.1-6.9-4.4-10.3-6.6-5.7-3.7-5-3.5-9.7-6.4s-3.9-2.3-7.9-4.8L81.6,160c-7.3-4.4-8.3-4.3-8.8-3.9s-.3,1.4.5,7.1c.6,3.9.4,2.6.9,6.1s.9,5.4,1.5,9.4c.2,1.6.3,2.9.5,4.1s.3,2.5.4,3.8c.5,4.7.8,7.1,1.3,7.7s1,.8,7.4.7l7.1-.2h11.3c4.1.1,4.9.4,5.2,1s.2.5-.2,3-.4,2.1-.5,2.8-.4,2-1.8,9.1-3,15.5-4.2,21.8c-1.7,9.5-2.3,13.5-4,23.7-2.7,15.7-4.9,27.5-7,38.2-4.8,24.9-5.1,23.9-8,40.1-2.4,13.5-3.8,23.6-5.6,36.3-2.2,15.5-3.7,25.8-5.1,40.1-.8,8.5-1.9,20.1-2.4,35.3-.4,9.9-.6,25.1.3,43.5a444.3,444.3,0,0,0,8.3,69,437.5,437.5,0,0,0,12.2,44.8c3.2,9.5,5.9,16.1,7,18.8s4,9.2,8.3,17.5c6.1,11.8,14.5,28,29.1,45.5,4.6,5.5,8.7,9.7,11.3,12.3" transform="translate(-58.4 -24.8)" fill="none" stroke="#000" stroke-linejoin="round" stroke-width="1.98"/><path d="M157.4,686.3c-.2,2.1-.5,4.5-.8,7" transform="translate(-58.4 -24.8)" fill="none" stroke="#000" stroke-linecap="round" stroke-linejoin="round" stroke-width="1.42"/><path d="M154.9,708l-2.7,24.5c-2.1,18.9-3.1,29.4-4.6,42.9s-3,27.8-7.9,70.1c-12.4,106.6-14.5,120.2-16.8,134.3-2.8,16.6-5.6,31-7.9,42.4" transform="translate(-58.4 -24.8)" fill="none" stroke="#000" stroke-linecap="round" stroke-linejoin="round" stroke-width="1.42" stroke-dasharray="14.74 14.74"/><path d="M113.5,1029.5c-.5,2.5-1,4.8-1.4,6.9" transform="translate(-58.4 -24.8)" fill="none" stroke="#000" stroke-linecap="round" stroke-linejoin="round" stroke-width="1.42"/><path d="M148.8,1043.7l4-5.8" transform="translate(-58.4 -24.8)" fill="none" stroke="#000" stroke-linecap="round" stroke-linejoin="round" stroke-width="1.42"/><path d="M160.4,1026.5c3.1-4.9,6.4-10.3,9.8-16.2s6.3-11.4,10.4-19.5c6.9-13.4,14.9-29.1,25.6-52.1s18.3-39.6,27.5-63.4c5.6-14.7,11.6-31.8,15.9-43.9s7.5-21.4,8.1-23.3c3.2-9.4,6-18,8.4-25.5" transform="translate(-58.4 -24.8)" fill="none" stroke="#000" stroke-linecap="round" stroke-linejoin="round" stroke-width="1.42" stroke-dasharray="13.66 13.66"/><path d="M268.2,776.1c.8-2.4,1.5-4.7,2.1-6.8" transform="translate(-58.4 -24.8)" fill="none" stroke="#000" stroke-linecap="round" stroke-linejoin="round" stroke-width="1.42"/><path d="M661,848a30.1,30.1,0,0,1,4.6-3.1,17.7,17.7,0,0,1,4.1-2.1,11,11,0,0,1,6.5-.8c3,.7,4.8,3.2,6.6,5.6a59.6,59.6,0,0,1,3.3,5.9c1.1,2.1,1.9,3.8,2.5,5" transform="translate(-58.4 -24.8)" fill="none" stroke="#000" stroke-linecap="round" stroke-linejoin="round" stroke-width="1.42"/><path d="M666.7,844.2a9.5,9.5,0,0,1,2.7,1.8,6.7,6.7,0,0,1,2.3,3.8,4.4,4.4,0,0,1-.2,2.7c-.4,1.1-1.2,1.7-2.8,2.8s-4.7,2.7-5.3,3c-2.9,1.5-3.3,1.5-5.2,2.6l-2.6,1.5-2.4,1.4a10,10,0,0,1-7.4.5c-1.6-.7-2.6-1.8-4.9-5.6a116,116,0,0,1-6.7-12.1c-1.7-3.9-3-6.8-4.2-9.7-2.6-6.3-2.7-6.9-5.4-13.3s-3.3-8.1-3.8-9.2c-3-7-4.7-10.3-3.2-12.6a12,12,0,0,1,2.5-1.9,68.1,68.1,0,0,1,6.2-3.6l5.1-2.6c2.1-1.2,5.4-3.1,7.8-4.2l2.3-1,2-.7" transform="translate(-58.4 -24.8)" fill="none" stroke="#000" stroke-linecap="round" stroke-linejoin="round" stroke-width="1.42"/><path d="M649,781.2a28.5,28.5,0,0,0-2.4,2.2l-1.7,2.1c-1.2,1.4-1.4,1.7-1.4,2.2s.7,1.3,1.2,1.7l1.7,1.1,1.7,1.1a21.6,21.6,0,0,1,1.7,1.9,17.9,17.9,0,0,1,2.3,4.2,37.2,37.2,0,0,1,1.9,4.8c.2.7.8,2.2,1.4,3.8,1.5,3.8,1.7,4.1,2.5,6.2a24.1,24.1,0,0,1,1.3,5.2,10.8,10.8,0,0,1-.2,3.9c-.9,3.8-3.9,6.1-6,7.7a20.4,20.4,0,0,1-3.4,2.2,22.3,22.3,0,0,1-3.8,1.9c-2.6,1-4.2,1.7-6,1.2s-4.4-4.4-5.4-6.8l-1.5-3.5c-.6-1.6-1.1-2.6-1.3-3.1l-1-2.1-1.4-3c-.9-1.9-1.7-3.8-1.2-5.5s2.1-2.3,5.5-4.2a26.1,26.1,0,0,1,3.2-1.7c2.9-1.4,4.4-2,5.2-1.8s2.2,2.1,3.9,5.7a19.5,19.5,0,0,1,1.2,2.8c.7,2.1,1.3,4.1.3,5.8a5.3,5.3,0,0,1-1.5,1.5c-.7.4-2.1,1.4-3.4,1a3.9,3.9,0,0,1-1.5-1.6,9.1,9.1,0,0,1-1.5-3.4" transform="translate(-58.4 -24.8)" fill="none" stroke="#000" stroke-linecap="round" stroke-linejoin="round" stroke-width="1.42"/><path d="M730.6,805.7a23.1,23.1,0,0,0-4.6-2.5,17.2,17.2,0,0,0-6.2-1.7,16.9,16.9,0,0,0-5.9.9,40,40,0,0,0-6.4,2.1c-7.1,2.6-5,1.7-12.8,4.7l-5.8,2.1c-3.4,1.4-3.7,1.6-5.2,2.1-3.5,1-5.2,1.5-7.2,1s-4-2.5-5.8-4.7a30.3,30.3,0,0,1-3.1-4.9c-2.6-4.7-3.9-7-5-9.5s-3.6-8.3-4.7-10.2a4.2,4.2,0,0,0-.5-1,9.9,9.9,0,0,1-.9-2.4c-.6-2.1-.9-3.4-.5-4.7s1.5-1.5,3.8-3a33.1,33.1,0,0,1,4.3-2.4,34.2,34.2,0,0,1,5-2c3.1-1,4.7-1.5,6.2-1s2.6,1.7,3.9,3.4,1.8,3.1,3.9,7.7c3.3,7.3,1.9,3.9,3.9,8.2a16.9,16.9,0,0,0,4.5,6.4" transform="translate(-58.4 -24.8)" fill="none" stroke="#000" stroke-linecap="round" stroke-linejoin="round" stroke-width="1.42"/><path d="M672.7,786.4a39,39,0,0,0,2.3,4.8c1.6,3.2,2.2,3.6,2.8,3.8s2.2-.4,4.7-1.7l2.6-1.7,2.7-1.9" transform="translate(-58.4 -24.8)" fill="none" stroke="#000" stroke-linecap="round" stroke-linejoin="round" stroke-width="1.42"/><path d="M746.2,970.4l-3.5-2.6a12.1,12.1,0,0,1-1.9-1.6c-1.2-1.1-1.3-1.4-1.3-1.7s0-.5,1.1-2a8.1,8.1,0,0,1,.8-1.2c1.1-1.5,1.1-1.7,1.8-2.6l1.6-2.1c1.5-1.7,1.8-1.9,2.1-1.9s.6.2,2.1,1.1l1.9,1.1,3,1.8,4.7,2.2,1.9.8.9.3.7.2c.5.2.6.3.6.4s.1.2,0,.6.1.5.1.8v1.3a20.6,20.6,0,0,0,.3,2.1,44.8,44.8,0,0,0,1.2,6.2" transform="translate(-58.4 -24.8)" fill="none" stroke="#000" stroke-linecap="round" stroke-linejoin="round" stroke-width="1.42"/><path d="M753.6,958.5c-.1.7-.2,1.7-.4,3-.4,3-.4,3.3-.7,5.2s-.4,3.1-.8,5l-.7,3.4c-.7,3.2-.9,3.9-1.2,4.9s-.7,2-1,2.6" transform="translate(-58.4 -24.8)" fill="none" stroke="#000" stroke-linecap="round" stroke-linejoin="round" stroke-width="1.42"/><path d="M695.2,917a13.1,13.1,0,0,1-1.6-1.3l-1.2-1.4c-1.3-1.6-1.5-1.8-1.5-2.2s.5-.6,1.2-1.2a9.1,9.1,0,0,1,1.8-1c1.7-.8,2.5-1.1,3.4-.9s1.2.8,2.2,1.9a19.1,19.1,0,0,1,1.7,2.4,15.4,15.4,0,0,0,2.9,3.5c1.4.8,2.9.8,2.8,1s-1.7-.1-3.4.8-.3.1-1.6,1.1l-2.3,1.6c-.6.3-2,1.2-3.5,1.9s-4,2-5.3,1.8-3.4-2.3-4.5-4-1.5-3.1-2.9-5.4l-.9-1.3a25.9,25.9,0,0,0-1.4-2.4c-1.2-1.5-3.5-1.5-3.4-1.7s3.5.3,5.2-.9l1.2-.8,1.4-1,3.4-2.1c3.7-2.2,5.6-3.3,7.6-3.5a8.7,8.7,0,0,1,4.1.3,10.3,10.3,0,0,1,3.5,1.6,18.8,18.8,0,0,1,2.2,2.4c1.1,1.5,1.4,2.1,2.9,4.3L711,913l4.8,6.4,3.7,4.8c2.2,2.5,2.7,2.7,5.4,5.7a10.1,10.1,0,0,0,1.8,1.8c1.3,1.1,2.4,1.5,2.3,1.9s-.6.2-1.8.6l-1,.4a12.9,12.9,0,0,0-2.3,1.5c-1.7,1.3-1,.6-3.6,2.5-4.2,3.3-4.3,3.8-5.2,3.8s-2.2-1.2-4.5-3.6-2.4-3.1-2.3-3.8a5.4,5.4,0,0,1,1.1-1.8,7.9,7.9,0,0,1,1.8-1.4,11.4,11.4,0,0,1,2.5-1.3" transform="translate(-58.4 -24.8)" fill="none" stroke="#000" stroke-linecap="round" stroke-linejoin="round" stroke-width="1.42"/><path d="M716.3,920.1l-8.8,5.5-5.2,3.2a35.2,35.2,0,0,1-4.1,2.7l-2,1.1c-2,.7-3.5.6-3.5.9s2.2.4,4,2.1L698,937a7.2,7.2,0,0,1,1.2,1.5c.1,0,1.8,2.2,5.3,6.6s2.4,2.5,8,8.5c3.2,3.5,4.5,5.1,7.3,7.4s5.4,3.4,6.7,3.1.6-.2,3.9-2.5l3.1-2.1c7.1-5,8.1-6.1,8.3-7.6a6,6,0,0,0-.2-2.1c-.4-.9-.9-1.3-3.1-3.4-.6-.6-1.1-1-1.8-1.8s-1.6-1.6-2.2-2.2-2.8-2.5-3.7-2.6-1,.2-2.7,1.2l-4.3,2.6c-2.9,2.1-4.4,3.1-4.3,4.3s.4,1,1.1,2a16.7,16.7,0,0,0,1.5,2c1.9,2.2,2.8,3.2,3.9,3.3s1.5-.5,2.9-1.5,2.5-1.8,2.5-2.8-.1-.7-1.7-2.3l-2.3-2.1" transform="translate(-58.4 -24.8)" fill="none" stroke="#000" stroke-linecap="round" stroke-linejoin="round" stroke-width="1.42"/><path d="M711.4,798.3a13.6,13.6,0,0,0-1.7-2.4,6.6,6.6,0,0,0-2.4-2.1,4.1,4.1,0,0,0-3.7-.1,4.3,4.3,0,0,0-1.5,2.5c-.1.5-.2,1.8,1.7,5.7.7,1.4,1.4,2.5,1.8,3.2" transform="translate(-58.4 -24.8)" fill="none" stroke="#000" stroke-linecap="round" stroke-linejoin="round" stroke-width="1.42"/><path d="M721.4,764.3a17.6,17.6,0,0,0,.2-2.7,23.6,23.6,0,0,0-1.3-5.5c-.7-2.7-.8-2.7-1.2-4.1s-.5-2-1.1-4.5l-1.6-5.3c-.6-2.1-.9-3.2-1.9-4.3s-1-1.1-1.6-1.2-3,.6-6.1,2.6l-1.9,1.3-3.3,2.3a107.6,107.6,0,0,0-10.9,8.7c-.2.3-1.3,1.3-2.5,2.7a10.1,10.1,0,0,0-1.7,2.5,8,8,0,0,0-.7,4c0,1.9.5,3.5,2,7.2l2.6,5.8c2.2,4.8,2.5,5.7,3.8,8,2.6,4.5,4,5,4.8,5.1a5.4,5.4,0,0,0,3.3-.8,10.5,10.5,0,0,0,4.3-3.6,5.1,5.1,0,0,0,1.1-2.7,5.8,5.8,0,0,0-.2-2.6,11.2,11.2,0,0,0-.8-2.4c-1.3-3.7-1.5-4.8-1.9-4.7s-.2.9-1,2.9a17.4,17.4,0,0,1-1.2,2.3c-.6,1-1,1.5-1.3,1.5s-2.2-2.4-3.4-5.1a22,22,0,0,1-1.6-4.4c-.3-1.8-.5-3,0-4.3s1.4-1.9,3-3,3.2-2.3,4.6-2,2.1,1.7,3.3,3.7a25.7,25.7,0,0,1,1.2,2.7,24.4,24.4,0,0,1,1,3.6s.2.6,1,3.6,1.3,3.9,2.4,7.6c.3.9.8,2.9,1.3,4.8a17.1,17.1,0,0,0,1.8,4.7,4.9,4.9,0,0,0,2.4,2.5,5.2,5.2,0,0,0,3.6-.4c1.5-.5,2.7-.9,3.4-2s.7-1.2.6-4a30.9,30.9,0,0,0-.5-4.9,83,83,0,0,0-1.9-9.2c-.2-.7-.5-1.6-1-3.4l-.6-1.6c-.4-1.1-.6-1.7-.8-1.7s-.7.3-2.4,1.1l-1.2.6-1.6.4c-.9.2-1.1,0-1.3.2s0,.6.5,2.1.4,1.4.6,1.9.3.9.6,2.1.4,1.3.6,1.9a17.9,17.9,0,0,0,1.3,3.2,4.1,4.1,0,0,0,.9,1.6,2.5,2.5,0,0,0,1.7.5" transform="translate(-58.4 -24.8)" fill="none" stroke="#000" stroke-linecap="round" stroke-linejoin="round" stroke-width="1.42"/><path d="M494.2,319.1a8.2,8.2,0,0,1-2.5,2,8.7,8.7,0,0,1-3.2.6h-8.6a8.9,8.9,0,0,1-4-1.1,6.5,6.5,0,0,1-1.7-1.9,8.1,8.1,0,0,1-1.2-3.5,20.1,20.1,0,0,1-.1-3.8c.2-3.9.3-5.8,1.4-6.9a6.8,6.8,0,0,1,3.1-1.4,25,25,0,0,1,3.5-.2h3.9a25.8,25.8,0,0,1,2.9,0l2.8.2a5.2,5.2,0,0,1,1.7.3,5.4,5.4,0,0,1,1.6.9c.5.4,1.1,1.2,1.4,6.5.2,2.1.1,1.2.2,3.5s.2,2.4-.2,3.4A4.4,4.4,0,0,1,494.2,319.1Z" transform="translate(-58.4 -24.8)" fill="none" stroke="#000" stroke-linecap="round" stroke-linejoin="round" stroke-width="1.42"/><path d="M430.1,258.3c.8,0,1.9-.1,3.3,0h2.2a39.3,39.3,0,0,1,5.9.9,8.7,8.7,0,0,1,1.9.5,5.1,5.1,0,0,1,2.1,1.5,10.1,10.1,0,0,1,.9,2.6,11.9,11.9,0,0,1,.3,1.7,9.4,9.4,0,0,1,0,1.7,6.6,6.6,0,0,1-1,2.7,4.8,4.8,0,0,1-.9,1.3l-1.6,1.7-2.2,2.2-1,1.2a4.8,4.8,0,0,0-1,1.5,9.2,9.2,0,0,0,0,2v1.8c0,.8.1.9.1,1.5v2.2c-.1,2.5.2,13.2.2,13.2.3,8.6.1,8.1.4,19.8.1,3.3.1,2.5.3,9.8s.2,10.9.3,15.2.3,12.6.5,20.9" transform="translate(-58.4 -24.8)" fill="none" stroke="#000" stroke-linecap="round" stroke-linejoin="round" stroke-width="1.42"/><path d="M430.1,261.4a9.7,9.7,0,0,1,2.3.4,3.3,3.3,0,0,1,1.7.9,2.7,2.7,0,0,1,.2,1.2,2,2,0,0,1,0,.8V269c0,3.4.3,34.7.4,48.9v25.8a20.8,20.8,0,0,1,0,2.5c0,2.4-.1,2.7,0,4.3v1.7c0,1,.1,1.3-.1,1.6s-.4.8-1,1.4a3.1,3.1,0,0,1-1.7,1.4l-1.3.3h-1" transform="translate(-58.4 -24.8)" fill="none" stroke="#000" stroke-linecap="round" stroke-linejoin="round" stroke-width="1.42"/><path d="M440,329.6h31.1c18.9.1,23.7.3,46.2.5l41.4.2c15.3,0,25.9,0,40.5-.2s19.7-.3,28.3-.1c3.1.1,11.8.3,18.4.3h15.5a35.1,35.1,0,0,0,7.8-.3,21.8,21.8,0,0,0,3.8-1.2,11.6,11.6,0,0,0,4.6-2.8,6.7,6.7,0,0,0,1.9-2.4l.6-2.1c.4-1.3.6-1.4.9-2.3a21.4,21.4,0,0,0,.3-2.4,27.3,27.3,0,0,0,.1-3.8v-7c-.2-5.2-.1-5.8-.2-9.9s-.6-8.2-1.7-18.4c-.3-3.6-.8-8-3.4-10.4a11.1,11.1,0,0,0-3.4-2.3,15.7,15.7,0,0,0-3.6-.9H658.9c-2.4-.1-3.7-.1-5.5-.3l-5.3-.3h-3.7A4.2,4.2,0,0,0,642,264a4.7,4.7,0,0,0-.6,2.6,9.1,9.1,0,0,0-.2,1.6c-.2,4.5-.1,9.2-.1,9.2,0,3.6-.1,2.9-.1,7.6,0,2.5.1,5.7.3,9.4" transform="translate(-58.4 -24.8)" fill="none" stroke="#000" stroke-linecap="round" stroke-linejoin="round" stroke-width="1.42"/><path d="M439.2,294.9l24.5-.2H571.3l33.5-.2H648c.1,0,1.8.1,4.1,0h3.5c4.3-.2,4.7-.4,4.9-.8s.4-1.5.6-3.8c.1-.7.1-1.2.2-2a35.3,35.3,0,0,0-.2-3.9,13.8,13.8,0,0,0-.3-2.7c-.5-4.1-.5-5-1.2-5.4a4.9,4.9,0,0,0-1.9-.4l-2.3.3-2.5.5c-.8.1-1.3.2-1.5.7s-.1.2-.1.6v1.6c.2,1.5.3,2.2.6,2.4l1.2-.2,1.2-.3a3.1,3.1,0,0,1,1.6-.1,1.6,1.6,0,0,1,1,.6c.2.3.2.5.2,1.3a10.9,10.9,0,0,1-.4,2.2,3.4,3.4,0,0,1-.7,1.6l-1.8.7-1.9.6-2.1.4a9,9,0,0,1-3,0c-.3-.2-.7-.8-.8-4.5v-3.2a52.2,52.2,0,0,0-.1-6c0-.4,0-1.2-.1-2.6s0-1.6.1-1.8,1-.6,3.9-.7h3.6a22.2,22.2,0,0,1,3.6-.1,6.9,6.9,0,0,1,2,.2l2,.4,2.3.4,2.4.3,1.4.2a5.9,5.9,0,0,1,2.3,1.1,7.1,7.1,0,0,1,2.1,2.8,17.6,17.6,0,0,1,1.6,6.1c.6,4.4.7,7.9.9,10.2s.2,5.2.3,6.6.2,5.8.2,12.2c0,.1,0,1.5-.1,3.4a22.7,22.7,0,0,1-.6,4.4c-.5,1.5-.7,2.4-1.5,3.2a6.6,6.6,0,0,1-3.6,1.4,16.4,16.4,0,0,1-4,.4h-9.5a6.5,6.5,0,0,1-2.3-.6l-1.5-1a6,6,0,0,1-1.1-2.4,25.3,25.3,0,0,1-.3-6.5c0-1.5.1-1.8.3-2.1s.8-.4,4.2-.7h2.5c1.4,0,1.7.2,1.8.3s.7,1.3.8,2.6a3.4,3.4,0,0,1-3,4.4" transform="translate(-58.4 -24.8)" fill="none" stroke="#000" stroke-linecap="round" stroke-linejoin="round" stroke-width="1.42"/><path d="M517.9,311.3a9.1,9.1,0,0,1,2.9-1l2.1-.2c1,.1,1.5.1,1.9.5s.7,1.2.8,2.2v3.3a6.7,6.7,0,0,1-.5,1.9,3.8,3.8,0,0,1-1.8,2.1,7.4,7.4,0,0,1-2.2.3h-5.7a7.2,7.2,0,0,1-2.1-.5,4.4,4.4,0,0,1-1.8-2,8,8,0,0,1-.5-2.4c0-.8,0-1.2-.1-2.6s-.1-1.9-.1-2.6,0-1.4.2-4,.4-4.5.8-4.9,2.3-1,4.3-1h52.2l34.1.3,29.1.2c10.1.1,14.2.3,22.3.3l21-.4" transform="translate(-58.4 -24.8)" fill="none" stroke="#000" stroke-linecap="round" stroke-linejoin="round" stroke-width="1.42"/><path d="M445.1,374.8a4.1,4.1,0,0,1-.2,2.6,4.6,4.6,0,0,1-1.1,1.2,6.4,6.4,0,0,1-3.6,1.5,5.7,5.7,0,0,1-5.5-3.3,4.2,4.2,0,0,1-.2-2.4,5.2,5.2,0,0,1,1.5-3.1,5.3,5.3,0,0,1,3.6-1.3,5.6,5.6,0,0,1,3.5,1.3,6.4,6.4,0,0,1,1.5,2.1A3.8,3.8,0,0,1,445.1,374.8Z" transform="translate(-58.4 -24.8)" fill="none" stroke="#000" stroke-miterlimit="10" stroke-width="1.42"/><path d="M461.5,374.1a5.2,5.2,0,0,1-.1,3.3,3.7,3.7,0,0,1-1.2,1.8,4.1,4.1,0,0,1-2.8,1.1c-1.8,0-3-1.4-3.7-2.2a6.4,6.4,0,0,1-1.3-2.5,6.8,6.8,0,0,1,0-2.6,5.4,5.4,0,0,1,1-1.7,4.1,4.1,0,0,1,2.3-1.4,4,4,0,0,1,3.2.8A5.5,5.5,0,0,1,461.5,374.1Z" transform="translate(-58.4 -24.8)" fill="none" stroke="#000" stroke-miterlimit="10" stroke-width="1.42"/><path d="M480.8,375.3a4.6,4.6,0,0,1-5.9,4.8,4.8,4.8,0,0,1-2.5-1.1,4.7,4.7,0,0,1-1.5-3.2,5.4,5.4,0,0,1,4.7-5.6,4.6,4.6,0,0,1,3.6,1.6A5.3,5.3,0,0,1,480.8,375.3Z" transform="translate(-58.4 -24.8)" fill="none" stroke="#000" stroke-miterlimit="10" stroke-width="1.42"/><path d="M499.1,374.3a5.5,5.5,0,0,1-.4,3.5,4.1,4.1,0,0,1-1.6,2.4,4.9,4.9,0,0,1-2.4.4,6.2,6.2,0,0,1-4.1-1.4,5.3,5.3,0,0,1-1.3-4.2,4.8,4.8,0,0,1,1.5-3,4.9,4.9,0,0,1,3.6-1.1,5.8,5.8,0,0,1,3.1,1A5,5,0,0,1,499.1,374.3Z" transform="translate(-58.4 -24.8)" fill="none" stroke="#000" stroke-miterlimit="10" stroke-width="1.42"/><path d="M515.7,375.1a4.8,4.8,0,0,1-.4,2.1l-.8,1a5.9,5.9,0,0,1-1.4,1.6,4.4,4.4,0,0,1-1.7.2,4.6,4.6,0,0,1-2.7-.4,4.5,4.5,0,0,1-2.2-2.2,4.5,4.5,0,0,1-.4-2.1,3.1,3.1,0,0,1,.4-1.9,3,3,0,0,1,1.7-1.2,8.2,8.2,0,0,1,2.8-.5,5.1,5.1,0,0,1,3.8,1.1A4.1,4.1,0,0,1,515.7,375.1Z" transform="translate(-58.4 -24.8)" fill="none" stroke="#000" stroke-miterlimit="10" stroke-width="1.42"/><path d="M534.4,376.4a4.3,4.3,0,0,1-.5,2.6,4.5,4.5,0,0,1-3.7,1.5,5.4,5.4,0,0,1-3.4-1,4.2,4.2,0,0,1-1.8-2.3,4.3,4.3,0,0,1,0-3.6,4,4,0,0,1,1.9-1.8,4.8,4.8,0,0,1,2.7-.8,5.7,5.7,0,0,1,3.5,2.1A6.1,6.1,0,0,1,534.4,376.4Z" transform="translate(-58.4 -24.8)" fill="none" stroke="#000" stroke-miterlimit="10" stroke-width="1.42"/><path d="M552.6,375.7a5.7,5.7,0,0,1-.3,1.5,6,6,0,0,1-1.4,2.4,4.8,4.8,0,0,1-4.6.3,4.7,4.7,0,0,1-1.8-1.3,4.5,4.5,0,0,1-1.4-3.2,3.9,3.9,0,0,1,1-2.9,3.2,3.2,0,0,1,1.2-.8,5.3,5.3,0,0,1,2.3-.8,5,5,0,0,1,3.6,1.1A4.5,4.5,0,0,1,552.6,375.7Z" transform="translate(-58.4 -24.8)" fill="none" stroke="#000" stroke-miterlimit="10" stroke-width="1.42"/><path d="M569.8,375.8a5.3,5.3,0,0,1-.6,2c-.4.8-.6,1.3-.8,1.6a4,4,0,0,1-2.5,1.2c-1.1.1-1.9-.6-2.9-1.4a6.1,6.1,0,0,1-1.4-1.7,4.7,4.7,0,0,1-.3-1.9,4.8,4.8,0,0,1,.7-2.9,4.2,4.2,0,0,1,1.4-1.1,4.6,4.6,0,0,1,5,.3,4.8,4.8,0,0,1,1.3,1.9A3.5,3.5,0,0,1,569.8,375.8Z" transform="translate(-58.4 -24.8)" fill="none" stroke="#000" stroke-miterlimit="10" stroke-width="1.42"/><path d="M589.1,375.6a5.6,5.6,0,0,1-.6,2.1,3.3,3.3,0,0,1-1.1,1.4,3.8,3.8,0,0,1-2.2,1.5,3.9,3.9,0,0,1-2.5-.6,5.7,5.7,0,0,1-2.8-2.4,5,5,0,0,1-.4-3.9,3.6,3.6,0,0,1,.9-1.5,4,4,0,0,1,1.5-.9,5.6,5.6,0,0,1,2.3-.6,5.4,5.4,0,0,1,3.9,2.1A6.6,6.6,0,0,1,589.1,375.6Z" transform="translate(-58.4 -24.8)" fill="none" stroke="#000" stroke-miterlimit="10" stroke-width="1.42"/><path d="M607,375.3a5.6,5.6,0,0,1-.9,3.5,7.6,7.6,0,0,1-1.3,1.3,4,4,0,0,1-2.3.6,4.1,4.1,0,0,1-2.3-.9,4.6,4.6,0,0,1-1.7-1.5,4.9,4.9,0,0,1-.4-1.1,6.1,6.1,0,0,1-.3-2.6,3.9,3.9,0,0,1,1.3-3.2,6.4,6.4,0,0,1,2.4-.4,5.8,5.8,0,0,1,2.3,0,4.5,4.5,0,0,1,1.9.9A5.4,5.4,0,0,1,607,375.3Z" transform="translate(-58.4 -24.8)" fill="none" stroke="#000" stroke-miterlimit="10" stroke-width="1.42"/><path d="M623.6,375.6c.1.5.4,3.5-1.6,5a3.8,3.8,0,0,1-5.1-.5c-1.1-1.1-1.2-2.4-1.2-4s-.1-2.7.8-3.6a3.9,3.9,0,0,1,3.1-1.2,4.6,4.6,0,0,1,2.8,1.2A4.9,4.9,0,0,1,623.6,375.6Z" transform="translate(-58.4 -24.8)" fill="none" stroke="#000" stroke-miterlimit="10" stroke-width="1.42"/><path d="M642.2,375.9a5.6,5.6,0,0,1-1.5,4.1,3.4,3.4,0,0,1-2.4,1.4c-1.5-.1-2.5-1.9-3-2.8a6.2,6.2,0,0,1-.7-3,4.8,4.8,0,0,1,.8-3.2,3.6,3.6,0,0,1,2.1-1.5,3.5,3.5,0,0,1,2.7,1A6,6,0,0,1,642.2,375.9Z" transform="translate(-58.4 -24.8)" fill="none" stroke="#000" stroke-miterlimit="10" stroke-width="1.42"/><path d="M659.7,375.2a7.5,7.5,0,0,1-.1,2.9,3,3,0,0,1-.8,1.7,3.2,3.2,0,0,1-1.7.7,4,4,0,0,1-2.6-1,4.9,4.9,0,0,1-1.5-4.2,5.4,5.4,0,0,1,.5-2.5,3.9,3.9,0,0,1,2.5-2.1,3.2,3.2,0,0,1,2.6,1.2A5.6,5.6,0,0,1,659.7,375.2Z" transform="translate(-58.4 -24.8)" fill="none" stroke="#000" stroke-miterlimit="10" stroke-width="1.42"/><path d="M675.8,376a5.8,5.8,0,0,1-.7,3.5,3.2,3.2,0,0,1-1.6,1.4c-1.6.6-3.2-.8-3.4-.9a5.5,5.5,0,0,1-1.4-4.2,4,4,0,0,1,.9-3.4,2.9,2.9,0,0,1,2.4-1.1c1.7.1,2.6,1.7,3,2.4A7.7,7.7,0,0,1,675.8,376Z" transform="translate(-58.4 -24.8)" fill="none" stroke="#000" stroke-miterlimit="10" stroke-width="1.42"/><path d="M687.4,379.8a2.6,2.6,0,0,1-1.2.9,2.8,2.8,0,0,1-1.6.6,3.6,3.6,0,0,1-2.5-1.9,6.7,6.7,0,0,1-.9-3.7c0-1.3,0-2.3.7-3.1a3,3,0,0,1,1.8-1,3.7,3.7,0,0,1,2.9.9,3,3,0,0,1,1.2,1.8,5.4,5.4,0,0,1,.2,1.1,15.9,15.9,0,0,1,0,2.2A4.4,4.4,0,0,1,687.4,379.8Z" transform="translate(-58.4 -24.8)" fill="none" stroke="#000" stroke-miterlimit="10" stroke-width="1.42"/><path d="M703,380.4c-.1.1-1.1,1.9-2.8,1.9a3.5,3.5,0,0,1-2.2-1.2,4.7,4.7,0,0,1-1.1-1.9,7.7,7.7,0,0,1-.5-3.3c0-1.4.1-3,1.1-3.7a3.1,3.1,0,0,1,1.9-.3,3.9,3.9,0,0,1,2.6,1,6.8,6.8,0,0,1,.8,1.5,11.7,11.7,0,0,1,.5,3.3A4.4,4.4,0,0,1,703,380.4Z" transform="translate(-58.4 -24.8)" fill="none" stroke="#000" stroke-miterlimit="10" stroke-width="1.42"/><path d="M715,381.5a2.6,2.6,0,0,1-2,.7c-1.6-.1-2.7-1.7-3.1-2.8a14.7,14.7,0,0,1-.3-3.1,12.1,12.1,0,0,1,.2-2.3,9.8,9.8,0,0,1,.7-1.6c.4-.4,1.1-1.4,2-1.5s2.1,1.5,2.4,2a7.4,7.4,0,0,1,.9,3.2c0,.1,0,.8-.1,2.4a5,5,0,0,1-.2,1.7A2.5,2.5,0,0,1,715,381.5Z" transform="translate(-58.4 -24.8)" fill="none" stroke="#000" stroke-miterlimit="10" stroke-width="1.42"/><path d="M728.6,376.3c.2,2,.3,2.9-.1,3.6a3.2,3.2,0,0,1-2.2,1.7,3.1,3.1,0,0,1-2.3-.9,5,5,0,0,1-1.1-1.9,15.2,15.2,0,0,1-.5-2.5c-.1-1.8-.2-2.7.4-3.5a3.5,3.5,0,0,1,4.3-.3,2.4,2.4,0,0,1,.9,1.3A6,6,0,0,1,728.6,376.3Z" transform="translate(-58.4 -24.8)" fill="none" stroke="#000" stroke-miterlimit="10" stroke-width="1.42"/><path d="M742,380.4a2.8,2.8,0,0,1-2.2,1.4c-1.1.1-1.9-.8-2.4-1.2a6.1,6.1,0,0,1-1.4-3.7c-.1-1.3-.2-2.5.5-3.4a2.9,2.9,0,0,1,4.6-.1,7,7,0,0,1,.8,1.4,9.8,9.8,0,0,1,.5,2.6A6.2,6.2,0,0,1,742,380.4Z" transform="translate(-58.4 -24.8)" fill="none" stroke="#000" stroke-miterlimit="10" stroke-width="1.42"/><path d="M754.4,376.1a8.3,8.3,0,0,1,.2,2c0,1.2,0,1.8-.4,2.3a2.3,2.3,0,0,1-2,1,3.1,3.1,0,0,1-2.1-1.3c-1-1.1-1.1-2.5-1.2-4s-.2-2.8.6-3.7a2.4,2.4,0,0,1,2.2-.7,2.6,2.6,0,0,1,1.7,1.4A6,6,0,0,1,754.4,376.1Z" transform="translate(-58.4 -24.8)" fill="none" stroke="#000" stroke-miterlimit="10" stroke-width="1.42"/><path d="M765.3,377.6c0,1.5,0,3.3-1.1,3.8s-2.2-.4-2.9-1-1.3-2.5-1.6-4.5a8.6,8.6,0,0,1,.2-2.5c.2-1.1.6-1.3.7-1.4a1.9,1.9,0,0,1,1.8.1,6.8,6.8,0,0,1,1.4.9,6.5,6.5,0,0,1,1.1,1.9A8.8,8.8,0,0,1,765.3,377.6Z" transform="translate(-58.4 -24.8)" fill="none" stroke="#000" stroke-miterlimit="10" stroke-width="1.42"/><path d="M774.1,378.5c-.1.7-.2,2.5-1,2.7s-2.3-1.6-2.9-3.4-.3-5.4.8-5.7,1.5.8,1.7.9a5,5,0,0,1,.8,2A12.2,12.2,0,0,1,774.1,378.5Z" transform="translate(-58.4 -24.8)" fill="none" stroke="#000" stroke-miterlimit="10" stroke-width="1.42"/><path d="M447,329.6a12,12,0,0,0-.5,2.6,31.4,31.4,0,0,0-.1,6.1c0,1.3.2,4.4,0,8,0,2,.1,4,0,5.9a7.9,7.9,0,0,0,.7,4,4.6,4.6,0,0,0,1.1,1.6c.9.7,1.9.9,4.3,1h6.2c2.4-.1,3.3-.2,4.3-.8a4.3,4.3,0,0,0,1.9-1.8c.3-.7.4-1.2.4-3.4s0-4.3,0-4.3a38.4,38.4,0,0,0-.2-3.9,24,24,0,0,0-.5-4.3c-.3-1.2-.4-1.5-.6-1.7s-1.8-.9-3.3-1.1a13.3,13.3,0,0,0-2,0h-1.9a4.9,4.9,0,0,0-2.1.8c-.3.3-.7.8-.9,4.6a27.8,27.8,0,0,0,0,3c.1,1.8.2,2.8.7,3.3s.6.5,3.1.6a13.4,13.4,0,0,0,3.6-.2" transform="translate(-58.4 -24.8)" fill="none" stroke="#000" stroke-linecap="round" stroke-linejoin="round" stroke-width="1.42"/><path d="M466.1,294.7c-.6,6.2-.9,12.8-1,19.8-.1,5.3.1,10.3.3,15.1" transform="translate(-58.4 -24.8)" fill="none" stroke="#000" stroke-linecap="round" stroke-linejoin="round" stroke-width="1.42"/><path d="M503.5,294.7c0,6.8.1,13.6.2,20.4V330" transform="translate(-58.4 -24.8)" fill="none" stroke="#000" stroke-linecap="round" stroke-linejoin="round" stroke-width="1.42"/><path d="M439.5,308.2l5.4.3h8.8c2.2-.1,2.5-.3,2.6-.4a3.7,3.7,0,0,0,.4-1.7c0-.2,0-.7-.1-2a10.3,10.3,0,0,0-.3-2.6c-.2-1.3-.4-1.5-.6-1.7s-.7-.3-1.4-.4a4.9,4.9,0,0,0-2.1.2,2.8,2.8,0,0,0-1,.8,2.3,2.3,0,0,0-.5,1.5" transform="translate(-58.4 -24.8)" fill="none" stroke="#000" stroke-linecap="round" stroke-linejoin="round" stroke-width="1.42"/><path d="M453.3,319.3a11.8,11.8,0,0,1-.8,1.6,3.8,3.8,0,0,1-1,1.3,3.1,3.1,0,0,1-1.9.4,1.7,1.7,0,0,1-1.2-.1,2.6,2.6,0,0,1-1.7-.9c-.4-.5-.3-1.1-.3-1.9a7.9,7.9,0,0,1,.3-2.1,4.9,4.9,0,0,1,1.5-2.6c.3-.2.6-.3,3.5-.4a34.8,34.8,0,0,1,3.5,0c1.3.2,2,.3,2.4.7s.9,1.1.9,4.8c0,2-.1,3.5-.2,4.8s-.2,3.7-.3,4.7" transform="translate(-58.4 -24.8)" fill="none" stroke="#000" stroke-linecap="round" stroke-linejoin="round" stroke-width="1.42"/><path d="M447.7,244.6a9.8,9.8,0,0,1-1.1,2.3c-.9,1.8-1.2,2.1-1.5,2.3a3,3,0,0,1-1.8.4,5.1,5.1,0,0,1-3.5-1.1,5.5,5.5,0,0,1-1.8-4.3,4.9,4.9,0,0,1,.6-2.6,4.3,4.3,0,0,1,1.1-1.6,4,4,0,0,1,3.2-1.5,4.5,4.5,0,0,1,3,1.5,5.7,5.7,0,0,1,1.5,2.3A4.9,4.9,0,0,1,447.7,244.6Z" transform="translate(-58.4 -24.8)" fill="none" stroke="#000" stroke-linecap="round" stroke-linejoin="round" stroke-width="1.42"/><path d="M518.9,244.9c-.1.2-.1.9-.3,1.8a5.5,5.5,0,0,1-.9,1.9,3.9,3.9,0,0,1-3,1,5.4,5.4,0,0,1-4.4-2,5.2,5.2,0,0,1-.7-3,4,4,0,0,1,.8-2.9,3.7,3.7,0,0,1,2-1.2,5.8,5.8,0,0,1,2.9-.5,4.5,4.5,0,0,1,2.8,1.4A5.6,5.6,0,0,1,518.9,244.9Z" transform="translate(-58.4 -24.8)" fill="none" stroke="#000" stroke-linecap="round" stroke-linejoin="round" stroke-width="1.42"/><path d="M465.6,240.8a8.9,8.9,0,0,1,.5,2.3,7.7,7.7,0,0,1,.1,3,4.3,4.3,0,0,1-.9,2.1c-1.2,1.3-3.4,1-4.1.9a5.5,5.5,0,0,1-5.1-5.3,5.3,5.3,0,0,1,1.6-3.5,5.2,5.2,0,0,1,3.6-1.5A4.7,4.7,0,0,1,465.6,240.8Z" transform="translate(-58.4 -24.8)" fill="none" stroke="#000" stroke-linecap="round" stroke-linejoin="round" stroke-width="1.42"/><path d="M485.6,244.1a4.9,4.9,0,0,1-.4,1.9,6.6,6.6,0,0,1-1.5,2.2,4.7,4.7,0,0,1-2.8.9,5.2,5.2,0,0,1-4.8-3.3,4.8,4.8,0,0,1,.6-4,5.7,5.7,0,0,1,4.9-2.7,4.1,4.1,0,0,1,2.7,1.7A4.4,4.4,0,0,1,485.6,244.1Z" transform="translate(-58.4 -24.8)" fill="none" stroke="#000" stroke-linecap="round" stroke-linejoin="round" stroke-width="1.42"/><path d="M503.3,243.3a4.2,4.2,0,0,1-.9,3.6,5.4,5.4,0,0,1-3.9,2.7,5.3,5.3,0,0,1-4.6-2.1,4.9,4.9,0,0,1-.8-3.7,3.7,3.7,0,0,1,.4-1.6,8.1,8.1,0,0,1,1.3-1.5,4.8,4.8,0,0,1,1.1-.8,3.5,3.5,0,0,1,2.3-.4,5.3,5.3,0,0,1,3.2,1.4A4.6,4.6,0,0,1,503.3,243.3Z" transform="translate(-58.4 -24.8)" fill="none" stroke="#000" stroke-linecap="round" stroke-linejoin="round" stroke-width="1.42"/><path d="M536.5,241c1,1.1,2.1,3.1,1.5,4.3l-.8,1.1-1,1.2a10,10,0,0,1-1.5,1.3,5.2,5.2,0,0,1-2.5.8,4.8,4.8,0,0,1-3.3-1,4.9,4.9,0,0,1-1.4-2.5,6.7,6.7,0,0,1,0-3.5,6.1,6.1,0,0,1,.7-1.5,5.1,5.1,0,0,1,4.3-2A5.9,5.9,0,0,1,536.5,241Z" transform="translate(-58.4 -24.8)" fill="none" stroke="#000" stroke-linecap="round" stroke-linejoin="round" stroke-width="1.42"/><path d="M556.4,243.6a6.2,6.2,0,0,1-.6,2.9,7.9,7.9,0,0,1-1.2,1.3,4.8,4.8,0,0,1-3.2,1.4,4.7,4.7,0,0,1-3.1-1.2,5.1,5.1,0,0,1-1.2-2.3,10,10,0,0,1-.2-2.7,5.1,5.1,0,0,1,1.5-3.3,4,4,0,0,1,2.5-1.2,5.3,5.3,0,0,1,3.7,1.6A6.2,6.2,0,0,1,556.4,243.6Z" transform="translate(-58.4 -24.8)" fill="none" stroke="#000" stroke-linecap="round" stroke-linejoin="round" stroke-width="1.42"/><path d="M573.8,245.5a5.8,5.8,0,0,1-4.6,4.6,4.2,4.2,0,0,1-2.9-1.4,6,6,0,0,1-.8-1.6,10.7,10.7,0,0,1-.5-2.3,5.3,5.3,0,0,1,.9-3.6,4.3,4.3,0,0,1,3.2-1.4,3.8,3.8,0,0,1,2.7,1,5.2,5.2,0,0,1,1.4,1.8A4.7,4.7,0,0,1,573.8,245.5Z" transform="translate(-58.4 -24.8)" fill="none" stroke="#000" stroke-linecap="round" stroke-linejoin="round" stroke-width="1.42"/><path d="M590.4,244a5.3,5.3,0,0,1-.8,4.1,4.7,4.7,0,0,1-4.5,1.7,4.6,4.6,0,0,1-2.9-2,4.4,4.4,0,0,1-.8-1.5,7.3,7.3,0,0,1-.2-1.8,5.2,5.2,0,0,1,.9-2.8,4.9,4.9,0,0,1,3.6-2.2,4.4,4.4,0,0,1,3,1.4A5.3,5.3,0,0,1,590.4,244Z" transform="translate(-58.4 -24.8)" fill="none" stroke="#000" stroke-linecap="round" stroke-linejoin="round" stroke-width="1.42"/><path d="M607.6,244.8a5.5,5.5,0,0,1-.8,4.3,5.1,5.1,0,0,1-3.6,1.8,4.9,4.9,0,0,1-3.7-1.6,5.4,5.4,0,0,1-1.4-5.4,3.9,3.9,0,0,1,1.2-1.8,5.2,5.2,0,0,1,3.8-1.5,4.6,4.6,0,0,1,3.3,1.4A5,5,0,0,1,607.6,244.8Z" transform="translate(-58.4 -24.8)" fill="none" stroke="#000" stroke-linecap="round" stroke-linejoin="round" stroke-width="1.42"/><path d="M622,246.1a4.9,4.9,0,0,1-.9,3.8,4.3,4.3,0,0,1-3.2,1.1,4.2,4.2,0,0,1-2.8-1,5.1,5.1,0,0,1-1.3-3.5,5.2,5.2,0,0,1,.7-3.9,4.1,4.1,0,0,1,2.9-1.6,4.4,4.4,0,0,1,3.3,1.9A6.1,6.1,0,0,1,622,246.1Z" transform="translate(-58.4 -24.8)" fill="none" stroke="#000" stroke-linecap="round" stroke-linejoin="round" stroke-width="1.42"/><path d="M637.4,241.8a9.1,9.1,0,0,1,.6,2.7,7.1,7.1,0,0,1-.1,3.4,3.2,3.2,0,0,1-.8,1.3,3.1,3.1,0,0,1-2.4,1.1,3.8,3.8,0,0,1-2.8-1.4,5.4,5.4,0,0,1-1-2.2,6,6,0,0,1-.2-2.4,4.7,4.7,0,0,1,.7-2.8,3.5,3.5,0,0,1,2.7-1.7C636.1,239.7,637.3,241.7,637.4,241.8Z" transform="translate(-58.4 -24.8)" fill="none" stroke="#000" stroke-linecap="round" stroke-linejoin="round" stroke-width="1.42"/><path d="M653.6,244.1a7.1,7.1,0,0,1-1.2,5.3,3.6,3.6,0,0,1-2.2,1.1,4.2,4.2,0,0,1-3-1.4,5.6,5.6,0,0,1-1.5-3.8,8.2,8.2,0,0,1,.2-2.9,4.4,4.4,0,0,1,.7-1.7,3.5,3.5,0,0,1,1.9-1.3,3.8,3.8,0,0,1,3.3,1.4A5.7,5.7,0,0,1,653.6,244.1Z" transform="translate(-58.4 -24.8)" fill="none" stroke="#000" stroke-linecap="round" stroke-linejoin="round" stroke-width="1.42"/><path d="M667.7,248.5a3.4,3.4,0,0,1-3.1,1.3,3.3,3.3,0,0,1-2.4-1.1,5.7,5.7,0,0,1-1.5-3.9,5.5,5.5,0,0,1,.8-3.2,3.5,3.5,0,0,1,2.6-1.7,3.3,3.3,0,0,1,2.4,1.4,6.4,6.4,0,0,1,1.3,2.4,6.9,6.9,0,0,1,.3,2.5A4.1,4.1,0,0,1,667.7,248.5Z" transform="translate(-58.4 -24.8)" fill="none" stroke="#000" stroke-linecap="round" stroke-linejoin="round" stroke-width="1.42"/><path d="M683,249a3.8,3.8,0,0,1-2.5,1.8c-1.7.3-2.9-1-3.4-1.4a6.2,6.2,0,0,1-1.5-3.1,5.7,5.7,0,0,1-.2-1.6,5.2,5.2,0,0,1,.5-2.4,3.6,3.6,0,0,1,2.5-1.8,3.9,3.9,0,0,1,2.7.3c1.4.8,1.8,2.5,2.1,3.7a8.3,8.3,0,0,1,.2,2A4.7,4.7,0,0,1,683,249Z" transform="translate(-58.4 -24.8)" fill="none" stroke="#000" stroke-linecap="round" stroke-linejoin="round" stroke-width="1.42"/><path d="M699.4,246.6a4.6,4.6,0,0,1-.6,2.8,3,3,0,0,1-1.4,1.3c-1.5.6-3.1-.4-4-1.3a5.9,5.9,0,0,1-.9-1.8,4.8,4.8,0,0,1-.3-1.8c-.2-1.9-.3-3,.5-3.9a3,3,0,0,1,2-1.1,3.9,3.9,0,0,1,3.1,1.2,5.2,5.2,0,0,1,1.1,1.9A7.8,7.8,0,0,1,699.4,246.6Z" transform="translate(-58.4 -24.8)" fill="none" stroke="#000" stroke-linecap="round" stroke-linejoin="round" stroke-width="1.42"/><path d="M713.8,250.3a3.4,3.4,0,0,1-2.2,1.4,3.3,3.3,0,0,1-2.7-1,4.5,4.5,0,0,1-1.5-2.4,7.7,7.7,0,0,1-.4-3.1,5.3,5.3,0,0,1,.8-3.3,3.1,3.1,0,0,1,1.7-1.3,3.8,3.8,0,0,1,3.1,1.1,6.8,6.8,0,0,1,1.1,2.1,8.8,8.8,0,0,1,.7,3.8A4.7,4.7,0,0,1,713.8,250.3Z" transform="translate(-58.4 -24.8)" fill="none" stroke="#000" stroke-linecap="round" stroke-linejoin="round" stroke-width="1.42"/><path d="M728.9,248.5a3.7,3.7,0,0,1-2.1,2.5,2.8,2.8,0,0,1-1.8-.1,3.4,3.4,0,0,1-1.5-1.8,6.8,6.8,0,0,1-.8-2.9,5.3,5.3,0,0,1,.7-4.2,2.6,2.6,0,0,1,2-1.2c1.2,0,2,1.1,2.5,1.9a5.9,5.9,0,0,1,1.1,2.8v1.3A9.1,9.1,0,0,1,728.9,248.5Z" transform="translate(-58.4 -24.8)" fill="none" stroke="#000" stroke-linecap="round" stroke-linejoin="round" stroke-width="1.42"/><path d="M739.8,250.4a2.8,2.8,0,0,1-2.1,1.4,2.9,2.9,0,0,1-2-1,3.3,3.3,0,0,1-1-1.7,14.3,14.3,0,0,1-.5-3c0-.3-.1-.7-.1-1.3v-1.3a6.5,6.5,0,0,1,.4-1.3,2.5,2.5,0,0,1,1.4-1.3c1.4-.3,2.7,1.5,3,1.8a7.8,7.8,0,0,1,1.2,3.9,5.3,5.3,0,0,1,0,1.8A3.6,3.6,0,0,1,739.8,250.4Z" transform="translate(-58.4 -24.8)" fill="none" stroke="#000" stroke-linecap="round" stroke-linejoin="round" stroke-width="1.42"/><path d="M749.3,243.8a8,8,0,0,1,.9,3.6c.1,1.5.2,2.3-.3,3.2s-.6,1.4-1.5,1.5-1.8-1.1-2.1-1.5-.7-2-1-4.1a19.7,19.7,0,0,1-.1-2.1c.1-1.1.2-2.1.9-2.5a1.9,1.9,0,0,1,1.7.1A3.3,3.3,0,0,1,749.3,243.8Z" transform="translate(-58.4 -24.8)" fill="none" stroke="#000" stroke-linecap="round" stroke-linejoin="round" stroke-width="1.42"/><path d="M757.2,241.4a2.1,2.1,0,0,0-1.4,0,4.3,4.3,0,0,0-1.2.9c-.2.3-.4.8-.3,3.1a18,18,0,0,0,.2,2,6.4,6.4,0,0,0,1.4,3.3,5.3,5.3,0,0,0,3.4,1.2" transform="translate(-58.4 -24.8)" fill="none" stroke="#000" stroke-linecap="round" stroke-linejoin="round" stroke-width="1.42"/><path d="M500.6,330c.1,3.4.1,6.4.1,8.6,0,6.6-.1,9.2-.2,10s-.1,1-.3,5.2c0,0-.1.7-.2,2.6a20.2,20.2,0,0,1-.4,2.6,10.1,10.1,0,0,1-1.2,2.4l-2.3,3.4" transform="translate(-58.4 -24.8)" fill="none" stroke="#000" stroke-linecap="round" stroke-linejoin="round" stroke-width="1.42"/><path d="M500.4,350.2a38.5,38.5,0,0,1-2.8,2.7c-3.1,2.7-4.7,4.1-6.9,4.7-.7.2-.1,0-6.3,0l-6.7.2h-2.3c-1.1.1-1.2.2-1.5.1s-.7-.5-.8-3.9v-2.2c.1-2.3.2-3.4.6-4.2s.4-.8,2.9-2.8l2.9-2.1" transform="translate(-58.4 -24.8)" fill="none" stroke="#000" stroke-linecap="round" stroke-linejoin="round" stroke-width="1.98"/><path d="M509.3,330.1a18.5,18.5,0,0,1,1.9,5.9,38.8,38.8,0,0,1,.3,4.7c.1,2.9,0,5.9,0,6.5s-.1.8-.1,1.6v2.5c-.1,1.9,0,2-.1,2.7a10.1,10.1,0,0,1-.4,1.9c-.5,1.5-3.1,3.1-3,3.3s1.8-.8,3.7-1.4h5.8a77,77,0,0,0,8,.4c3.9,0,4.8-.3,5.5-.9a5.8,5.8,0,0,0,1.6-2.5,9.8,9.8,0,0,0,.6-2.8,19.7,19.7,0,0,0,.1-2.1c-.1-2.9-.2-4.4-.1-6.7a12.9,12.9,0,0,1,.2-3.5c.7-1.8,2-2.7,1.8-3s-1.2.5-3.2.8a15,15,0,0,1-3.3.1h-3.1a15.6,15.6,0,0,0-2.6.3,7.2,7.2,0,0,0-2.3,1.2,4.9,4.9,0,0,0-1.8,2.4,8.3,8.3,0,0,0-.2,2.7,10.4,10.4,0,0,0,0,2.5c.1,1.7.1,2.6.6,3.5a2.6,2.6,0,0,0,1,1.4,4.1,4.1,0,0,0,3,.5c1.7,0,3.1-.1,3.8-1.1a3.1,3.1,0,0,0,.5-1.7,11.1,11.1,0,0,0-.1-2.6c-.1-1.2-.2-1.8-.5-2.1s-1.8-.5-2.7-.3a6.1,6.1,0,0,0-1.9.6" transform="translate(-58.4 -24.8)" fill="none" stroke="#000" stroke-linecap="round" stroke-linejoin="round" stroke-width="1.42"/><path d="M532.7,300.6c.3,5,.5,10.3.4,15.9s-.3,9.4-.7,13.7" transform="translate(-58.4 -24.8)" fill="none" stroke="#000" stroke-linecap="round" stroke-linejoin="round" stroke-width="1.42"/><path d="M654.7,346.5l2.3-.8c1.4-.3,1.7-.1,1.8,0s.5.9.6,1.8a8.5,8.5,0,0,1,0,2.3,5.3,5.3,0,0,1-.8,2.7c-.8.9-2.2.9-3.6.9l-2.5-.4a2.8,2.8,0,0,1-1.2-.5c-.3-.2-.5-.6-.7-3.4a11.5,11.5,0,0,0-.1-1.8v-2.7a5.1,5.1,0,0,1,.3-2.2,3.3,3.3,0,0,1,.9-1.3c.5-.4.8-.4,2.4-.8l3.1-.7,1.9-.5a10.7,10.7,0,0,0,3.2-1.2c1.3-.9,1.7-2.1,1.9-2s-.7,1.7-.7,3.8v1.9a6.8,6.8,0,0,1,.1,1.2c.2,1.5.2,2.8.3,3.4s.1,2.3.1,4a10.3,10.3,0,0,1-.1,1.9,10.1,10.1,0,0,1-.7,3.9,7.4,7.4,0,0,1-3.3,3.1,6.9,6.9,0,0,1-3,.5h-6l-4.9-.2-9.1-.2-9.7-.2-15.3-.4-24-.5c-13.2-.1-14.1.1-20.4-.2-1.9,0-7.8-.3-11.7-.2h-7.7a9.6,9.6,0,0,1-2.9-.3l-1.7-.5H542c-2.1.1-3.8,1.5-3.9,1.3a7.7,7.7,0,0,0,2.5-2.8,7.2,7.2,0,0,0,.5-3.1,9.5,9.5,0,0,0-.1-2.3c-.1-1-.1-1.6-.2-2.4a31.3,31.3,0,0,1-.3-4c0-2.1,0-3.2.8-4a3.7,3.7,0,0,1,1.8-.9,11.9,11.9,0,0,1,4.4-.8c1.6,0,1.6.2,3.3.1a19.8,19.8,0,0,0,3.3-.4c2.3-.6,3.6-1.7,3.8-1.5s-1.5,1.2-2,3.1a6.6,6.6,0,0,0-.3,2.5,15.5,15.5,0,0,0,.1,2.2c.1,2.6.2,3.9-.1,4.8a4.8,4.8,0,0,1-1.8,2.6c-1.1.7-2.3.7-4.3.5s-2.3-.1-2.8-.7-.5-1.4-.5-3,0-3.5.8-4.1a5.5,5.5,0,0,1,2.3-.4h2" transform="translate(-58.4 -24.8)" fill="none" stroke="#000" stroke-linecap="round" stroke-linejoin="round" stroke-width="1.42"/><path d="M569.9,347.6v-1.3a3.9,3.9,0,0,1,.3-1.2c.2-.3.5-.6,2-.6s2.9,0,3.5.7.5,1.3.6,2.7a4,4,0,0,1-.4,2.9,2.5,2.5,0,0,1-.9.9,3.9,3.9,0,0,1-1.9.8,22.6,22.6,0,0,1-4.4.4,11.9,11.9,0,0,1-2.8-.2,3.7,3.7,0,0,1-1.9-.8,2.6,2.6,0,0,1-.7-1.7,13.9,13.9,0,0,1,.1-2.7,11.7,11.7,0,0,1,.1-2.4,15.2,15.2,0,0,1,.3-1.9,9.5,9.5,0,0,1,.8-2.9,3.8,3.8,0,0,1,1.1-1.6,4.8,4.8,0,0,1,2.3-.9,9.2,9.2,0,0,1,2-.4c4.4-.4,6.1-.4,6.1-.4l6.9.2h11.9c3.7,0,4.3.2,6-.1s3.4-.8,3.4-.7-.9.5-2.2,1.5a3.9,3.9,0,0,0-1.6,1.8,8.9,8.9,0,0,0-.3,2.5v1.6a30.6,30.6,0,0,1-.1,3.8,6.4,6.4,0,0,1-1.9,4.2c-.9.6-1.7.6-3.4.8a15.5,15.5,0,0,1-2.2,0c-1.8-.2-2.7-.3-3.3-1a4,4,0,0,1-.6-2.4,9,9,0,0,1,.2-1.8c.2-1.5.3-2.2.7-2.7a3.7,3.7,0,0,1,2.5-.6,6.9,6.9,0,0,1,2.7.3" transform="translate(-58.4 -24.8)" fill="none" stroke="#000" stroke-linecap="round" stroke-linejoin="round" stroke-width="1.42"/><path d="M583.6,337.2c-.1,3.7-.1,7.5-.3,11.3s-.3,6.5-.5,9.6" transform="translate(-58.4 -24.8)" fill="none" stroke="#000" stroke-linecap="round" stroke-linejoin="round" stroke-width="1.42"/><path d="M616.4,347.2a3.9,3.9,0,0,1,.3-1.4,2.9,2.9,0,0,1,.9-1.6,3.8,3.8,0,0,1,1.5-.2c1.5,0,2.2,0,2.6.4s.4.8.5,1.8a13.5,13.5,0,0,1,.1,2.3,7.5,7.5,0,0,1-.4,2.4c-.7,1.2-2.4,1.5-3.8,1.7h-2.2a9.8,9.8,0,0,1-2.6-.2,3.8,3.8,0,0,1-1.9-.9c-.5-.5-.5-1.1-.4-4.7.1-1.7.1-2.4.2-3.4a15.4,15.4,0,0,1,.4-3.3,5.6,5.6,0,0,1,1.4-2.3,3.8,3.8,0,0,1,1.1-1.1c.4-.2.8-.3,3-.5l1.8-.2H621c2.3-.1,5.3,0,7,.1h14.8c2.1-.1,3.3-.4,3.4,0s-1.2.7-2.1,2.3a6.5,6.5,0,0,0-.6,2,8.7,8.7,0,0,0,0,1.7v2.1c0,1.7.1,1.7.1,3.2a8.6,8.6,0,0,1-.3,3.2,6.4,6.4,0,0,1-.7,1.6,3.6,3.6,0,0,1-1.4,1.3,4.8,4.8,0,0,1-1.8.5,11.1,11.1,0,0,1-2.6,0c-1.7-.2-2.6-.2-3.1-.7s-.8-1.8-1-4.2-.1-1.8-.1-2,.2-2.5.9-3.2a4.4,4.4,0,0,1,2.1-.7h1.5c1,.1,1.4.1,1.7.3a3.5,3.5,0,0,1,.3,1.9,12,12,0,0,1-.2,2.4" transform="translate(-58.4 -24.8)" fill="none" stroke="#000" stroke-linecap="round" stroke-linejoin="round" stroke-width="1.42"/><path d="M627.1,336.1c0,4.7-.1,9.4-.2,14.1,0,2.9-.1,5.8-.1,8.7" transform="translate(-58.4 -24.8)" fill="none" stroke="#000" stroke-linecap="round" stroke-linejoin="round" stroke-width="1.42"/><path d="M674.9,307.2a26.8,26.8,0,0,0-4.2.1c-2.4.3-3,.8-3.3,1.2a4,4,0,0,0-.6,1.6,14.9,14.9,0,0,0,.1,1.9,10.9,10.9,0,0,0,.5,2.8,6.1,6.1,0,0,0,3,2.8" transform="translate(-58.4 -24.8)" fill="none" stroke="#000" stroke-linecap="round" stroke-linejoin="round" stroke-width="1.42"/><path d="M624.6,317.8a2.8,2.8,0,0,0,1.6-1.2,4.7,4.7,0,0,0,.4-1.7,8.8,8.8,0,0,0,0-2.3,4.8,4.8,0,0,0-.2-2.1c-.1-.1-.5-.5-2.2-.6a8.9,8.9,0,0,0-3.8.3c-1.7.4-2.5.6-3.1,1.3s-.4.8-.2,3.3a28.2,28.2,0,0,0,.5,5.1c.5,2.4.9,2.9,1.1,3.2a5.8,5.8,0,0,0,2.6,1.3,20,20,0,0,0,3.8.3h10.5c3,0,3.7-.2,4.3-.4a10.4,10.4,0,0,0,2.1-1.2,4.3,4.3,0,0,0,1.4-1.3,5.9,5.9,0,0,0,.8-2,10.5,10.5,0,0,0,.5-3.1,21.8,21.8,0,0,0,.2-3.9c-.1-1.3-.1-1.9-.5-2.2s-1.6-.5-3.9-.5h-2.4a3.8,3.8,0,0,0-2,.7c-.4.4-.4,1.2-.5,2.8a3.5,3.5,0,0,0,.3,1.9,2.5,2.5,0,0,0,1.2.8l1.3.5" transform="translate(-58.4 -24.8)" fill="none" stroke="#000" stroke-linecap="round" stroke-linejoin="round" stroke-width="1.42"/><path d="M630.6,301.3c-.1,4.1-.2,8.3-.2,12.6v10.9" transform="translate(-58.4 -24.8)" fill="none" stroke="#000" stroke-linecap="round" stroke-linejoin="round" stroke-width="1.42"/><path d="M584.5,314.8a4.9,4.9,0,0,0-.4,1.4,1.4,1.4,0,0,0,.1,1.1,1.7,1.7,0,0,0,1.9.5,3.2,3.2,0,0,0,1.8-2,6.5,6.5,0,0,0,.4-3.3c-.1-1.9-.2-3.3-1.2-4s-2-.2-3.6.1l-1.7.6a6.9,6.9,0,0,0-2.3,1.1,4.9,4.9,0,0,0-.6,2.6c0,.9,0,1,.1,2.8a23.9,23.9,0,0,0,0,2.7,12.2,12.2,0,0,0,.3,2.3,5.1,5.1,0,0,0,1.4,1.8,4.5,4.5,0,0,0,1.9.7,6.9,6.9,0,0,0,2,.2h12.2l5.3.2a24.5,24.5,0,0,0,3.1-.5,4,4,0,0,0,1.5-.7,2.5,2.5,0,0,0,.9-.9,3.2,3.2,0,0,0,.5-1.8,12.5,12.5,0,0,0,.2-2.4c.1-.3.1-.2.2-2.4v-1.5a4.4,4.4,0,0,0-.2-1.8,3.1,3.1,0,0,0-.9-1.5,3.4,3.4,0,0,0-2.5-.5,2.9,2.9,0,0,0-2.2.6c-.3.3-.6.7-.9,2.5a25.8,25.8,0,0,0-.2,3.2" transform="translate(-58.4 -24.8)" fill="none" stroke="#000" stroke-linecap="round" stroke-linejoin="round" stroke-width="1.42"/><path d="M596.1,301.1c0,.7-.2,1.8-.2,3.2s.1,3.9.2,7v5.5c0,2.7-.1,4.9-.1,6.5" transform="translate(-58.4 -24.8)" fill="none" stroke="#000" stroke-linecap="round" stroke-linejoin="round" stroke-width="1.42"/><path d="M545.2,316a8.6,8.6,0,0,0,2.4-1.3,6.6,6.6,0,0,0,1.1-1.2,4.3,4.3,0,0,0,.2-1.9c-.1-1.3-.1-2-.4-2.3s-.4-.4-1.7-.6h-3.5c-1.8.1-2.2.2-2.5.5a2.8,2.8,0,0,0-.8,1.5,7.1,7.1,0,0,0-.4,2v2.9a23.9,23.9,0,0,0,.1,3.5,5.7,5.7,0,0,0,.7,2.4c.6.8,1.6,1.2,3.5,1.4s3.6.3,8.7.1l3.8-.2h6.7c4.4-.3,4.8-.5,5-.7s1.1-2.1,1.4-3.7.1-.9.1-2.4c0-3.5,0-5.3-.6-5.9s-1.5-.6-3-.7a9.5,9.5,0,0,0-1.7,0c-1.2.1-1.8.1-2.2.5s-.6,1.1-.8,2.4a5.4,5.4,0,0,0,.1,2.2,3.7,3.7,0,0,0,.8,1.4" transform="translate(-58.4 -24.8)" fill="none" stroke="#000" stroke-linecap="round" stroke-linejoin="round" stroke-width="1.42"/><path d="M555.1,300.8c0,1.3.1,3.2.2,5.6.1,4.4,0,6.2.2,9.7,0,1.6.1,3.9.3,6.8" transform="translate(-58.4 -24.8)" fill="none" stroke="#000" stroke-linecap="round" stroke-linejoin="round" stroke-width="1.42"/><path d="M464.2,294.7c.1-3.8-.1-6.8-.2-8.9s-.2-3.3-.2-5.8-.1-1.6-.1-4.2V270a2.5,2.5,0,0,0-.2-1,2.7,2.7,0,0,0-.9-.7l-1.3-.5c-1-.4-1.2-.3-1.5-.6s-.2-.6-.4-1.2a8,8,0,0,1-.1-1.1c0-.3-.1-.8-.1-1.4s0-1.6.3-1.8h4.4l4,.2c2.2.1,2.3-.1,5.2-.1h3.6c6.8.3,29.4.2,29.4.2H626.7l3,.2a8.5,8.5,0,0,1,2.7.4,6.6,6.6,0,0,1,2.4,1.2c.6.5,1.2,1.4,1.5,5.6.1,1.8.1,4,0,8.4,0,.6,0,1.7-.1,3.2s-.1,1.5-.2,2.8c-.4,3.5-.5,4.3-1,5.2a6.3,6.3,0,0,1-1.1,1.3c-.7.5-1.6.8-3.6.7s-4.7-.1-5.7-1.2-.6-1.4-.8-2.9a12,12,0,0,1,.1-4.7,4.9,4.9,0,0,1,.7-2.4c.7-.8,1.7-.8,3.3-.9s2.5-.2,3.1.5.2.3.2,2.1,0,2.4-.3,2.9a2.9,2.9,0,0,1-1.7,1.5" transform="translate(-58.4 -24.8)" fill="none" stroke="#000" stroke-linecap="round" stroke-linejoin="round" stroke-width="1.42"/><path d="M624,262c-.1,1.7-.1,3-.2,3.9s-.1,2,0,3.1.2,2.4.8,2.8.7.4,3.2.3h2.3" transform="translate(-58.4 -24.8)" fill="none" stroke="#000" stroke-linecap="round" stroke-linejoin="round" stroke-width="1.42"/><path d="M664.9,274.7c.4,1.8.7,3.4.9,4.6s.4,2.4.6,3.7.1,2.1.1,3.2a20.1,20.1,0,0,0,.1,3.8c.2,1.4.3,2.3,1.1,2.9s1.6.5,3.3.3a17.7,17.7,0,0,0,3.4-.6" transform="translate(-58.4 -24.8)" fill="none" stroke="#000" stroke-linecap="round" stroke-linejoin="round" stroke-width="1.42"/><path d="M666.5,286.5l2.3-.3a33.8,33.8,0,0,0,5.2-1.1" transform="translate(-58.4 -24.8)" fill="none" stroke="#000" stroke-linecap="round" stroke-linejoin="round" stroke-width="1.42"/><path d="M457.1,273.3a2.8,2.8,0,0,0-1-2.2,2.8,2.8,0,0,0-2.6-.5,3,3,0,0,0-1.7.9c-.2.1-.7.6-1.1,2.1a23.4,23.4,0,0,0-.4,2.6c-.1,2.8-.1,3.9-.1,3.9,0,5.1.1,7.7,1.1,8.6a5.1,5.1,0,0,0,3,.8,3,3,0,0,0,2.4-.5c.6-.5.7-1.4.9-3a22,22,0,0,0,.1-2.3" transform="translate(-58.4 -24.8)" fill="none" stroke="#000" stroke-linecap="round" stroke-linejoin="round" stroke-width="1.42"/><path d="M450.2,280.1h13.6" transform="translate(-58.4 -24.8)" fill="none" stroke="#000" stroke-linecap="round" stroke-linejoin="round" stroke-width="1.42"/><path d="M496.7,294.7a19.5,19.5,0,0,1-1.2-2.8,27,27,0,0,1-.9-3.8,37.4,37.4,0,0,1-.4-5.4c0-1.4.1-2.4.1-2.9a20.2,20.2,0,0,1,.3-3.8c.4-1.6.5-2.4,1.1-3s2.3-.8,5.4-.9a29.4,29.4,0,0,1,4.2,0,9.6,9.6,0,0,1,3.7.6,3.8,3.8,0,0,1,1.8,1.6c.1.1.2.4.3,1.8a23.5,23.5,0,0,1,.1,2.6,14.3,14.3,0,0,1-.3,2.6,6.2,6.2,0,0,1-1.9,2.8" transform="translate(-58.4 -24.8)" fill="none" stroke="#000" stroke-linecap="round" stroke-linejoin="round" stroke-width="1.42"/><path d="M505.3,282.4a10.4,10.4,0,0,0-.1-1.6c-.1-1-.1-1.5-.5-1.9a2.5,2.5,0,0,0-1.4-.8,5.4,5.4,0,0,0-1.6-.1,3.6,3.6,0,0,0-2.1,1.1,3.4,3.4,0,0,0-.6,2,9.2,9.2,0,0,0-.1,2.8c.1,1.7.1,2.5.7,3.2a4.3,4.3,0,0,0,1.9,1,12.9,12.9,0,0,0,3.5.5l4.3.2c2.6.1,3.9.1,4.8-.5s1.5-1.8,2.1-3.1a12.2,12.2,0,0,0,.9-3.6v-6.5c-.1-2.3-.1-3.4-.4-4.1a6.3,6.3,0,0,0-2.9-2.6,8.9,8.9,0,0,0-3.6-1,17.2,17.2,0,0,0-2.7-.2c-4.2.1-3.5-.2-8-.1l-8.9.5-5.3.3" transform="translate(-58.4 -24.8)" fill="none" stroke="#000" stroke-linecap="round" stroke-linejoin="round" stroke-width="1.42"/><path d="M481,271.6a6.7,6.7,0,0,1-.4,2.2c-.2.7-.3,1-.7,1.3s-.4.4-1.8.5h-2.6l-2-.3c-1.3-.7-1.6-2.8-1.5-4s.2-2.3,1.4-3.2,1.5-.5,3.2-.6h7a3.6,3.6,0,0,1,2,.6,4.1,4.1,0,0,1,.9,1.8,22.4,22.4,0,0,1,.5,3.3,27.1,27.1,0,0,1-.1,4.8c-.2,3-.3,4.3-.4,4.8a12.1,12.1,0,0,1-.5,3.3c-.4,1.8-.8,3-1.8,3.9s-2,.9-3.6,1.1a22.4,22.4,0,0,1-3.5-.1,10.2,10.2,0,0,1-3.4-.5,3.9,3.9,0,0,1-2.5-1.4c-.5-.7-.4-1.6-.2-3.4a9.2,9.2,0,0,1,.5-2.5,4.2,4.2,0,0,1,1.8-2.4l2.6-.3h1.5c1.1,0,2.2,0,2.5.6a2.3,2.3,0,0,1,.2,1.1,4.1,4.1,0,0,1-.1,1.1,2.7,2.7,0,0,1-.8,1.5,3.7,3.7,0,0,1-1.8.8,5.2,5.2,0,0,1-1.9.1" transform="translate(-58.4 -24.8)" fill="none" stroke="#000" stroke-linecap="round" stroke-linejoin="round" stroke-width="1.42"/><path d="M522.6,261.9a81,81,0,0,0-.4,11.4c.2,3.8.5,4.6.5,8.5s-.1,3.9-.2,8.5v4.4" transform="translate(-58.4 -24.8)" fill="none" stroke="#000" stroke-linecap="round" stroke-linejoin="round" stroke-width="1.42"/><path d="M544.4,261.9a45.5,45.5,0,0,1,1.3,9.6c.1,2.9-.2,2.6-.1,6.9,0,1.2.1,5.1-.1,9.3a10.3,10.3,0,0,1-.5,3.1,12.8,12.8,0,0,1-1.9,3.9" transform="translate(-58.4 -24.8)" fill="none" stroke="#000" stroke-linecap="round" stroke-linejoin="round" stroke-width="1.42"/><path d="M568.8,261.9a22.5,22.5,0,0,1,.8,5.5c.1,1.6,0,2.4.1,5s.1,1.9.2,3.2c.2,4-.1,4.5,0,9.3a26.2,26.2,0,0,1,0,5,14.4,14.4,0,0,1-1.5,4.7" transform="translate(-58.4 -24.8)" fill="none" stroke="#000" stroke-linecap="round" stroke-linejoin="round" stroke-width="1.42"/><path d="M593.6,262c.1,1.4.3,3.3.4,5.7s.1,2.9.2,9.3c.1,2.7.2,6.7.1,9.6,0,.9-.1.8-.2,2.8a8,8,0,0,1-.2,2.6,8.6,8.6,0,0,1-1,2.5" transform="translate(-58.4 -24.8)" fill="none" stroke="#000" stroke-linecap="round" stroke-linejoin="round" stroke-width="1.42"/><path d="M616.4,262.1c.4,3.3.5,6,.6,7.8,0,3.9-.4,4.4-.4,9.3s.1,7.1.1,7.1a17.3,17.3,0,0,1-.4,5.8,10.1,10.1,0,0,1-.8,2.6" transform="translate(-58.4 -24.8)" fill="none" stroke="#000" stroke-linecap="round" stroke-linejoin="round" stroke-width="1.42"/><path d="M530.5,279l2.4-.5a22.5,22.5,0,0,1,4.8-.4h7.9" transform="translate(-58.4 -24.8)" fill="none" stroke="#000" stroke-linecap="round" stroke-linejoin="round" stroke-width="1.42"/><path d="M554.9,279l8.7-.2,6.4-.3" transform="translate(-58.4 -24.8)" fill="none" stroke="#000" stroke-linecap="round" stroke-linejoin="round" stroke-width="1.42"/><path d="M555.3,268.1c-.1,1.1-.1,2.5-.2,4s-.2,3.3-.2,4.8.1,2.1,0,4.1a17,17,0,0,0,.1,3.3,5,5,0,0,0,.8,2.6c.9,1,2.4,1,3.8,1a9.6,9.6,0,0,0,3.2-.4" transform="translate(-58.4 -24.8)" fill="none" stroke="#000" stroke-linecap="round" stroke-linejoin="round" stroke-width="1.42"/><path d="M531.8,266.9a9.2,9.2,0,0,0-.9,1.3,12.1,12.1,0,0,0-.3,1.4c-.1,1-.1,1.7-.1,1.7-.1,1.9,0,4.5,0,6.7,0,.2,0,1.6.1,3.5a8.7,8.7,0,0,0,.5,2.8,3.3,3.3,0,0,0,1.2,1.7c.3.2.6.4,2.2.4a23.9,23.9,0,0,0,2.7,0" transform="translate(-58.4 -24.8)" fill="none" stroke="#000" stroke-linecap="round" stroke-linejoin="round" stroke-width="1.42"/><path d="M579.9,264.5v5.1c.1,5.4.1,8.1.1,9.4s0,2.2,0,3.3a8.7,8.7,0,0,0,.1,1.8,3.7,3.7,0,0,0,1.2,2.4,3.6,3.6,0,0,0,2.4.9,3.6,3.6,0,0,0,2.5-.1,3.5,3.5,0,0,0,1.7-1,5.9,5.9,0,0,0,1.4-2.2" transform="translate(-58.4 -24.8)" fill="none" stroke="#000" stroke-linecap="round" stroke-linejoin="round" stroke-width="1.42"/><path d="M580,278h6.8l7.5-.4" transform="translate(-58.4 -24.8)" fill="none" stroke="#000" stroke-linecap="round" stroke-linejoin="round" stroke-width="1.42"/><path d="M602.2,266.9v4.9c.2,7.8.2,7.8.1,8.5v2a8.8,8.8,0,0,0,.4,2.8,3.6,3.6,0,0,0,1.5,1.9c.8.5,1.6.4,2.9.2a6.4,6.4,0,0,0,2.3-.5,5.4,5.4,0,0,0,1.9-1.6" transform="translate(-58.4 -24.8)" fill="none" stroke="#000" stroke-linecap="round" stroke-linejoin="round" stroke-width="1.42"/><path d="M602.4,279.1c2.5,0,5.2-.2,8-.4l6.2-.8" transform="translate(-58.4 -24.8)" fill="none" stroke="#000" stroke-linecap="round" stroke-linejoin="round" stroke-width="1.42"/><path d="M544.4,261.9a64.1,64.1,0,0,0-3.9,6.6c-.7,1.3-1.3,2.6-1.8,3.8" transform="translate(-58.4 -24.8)" fill="none" stroke="#000" stroke-linecap="round" stroke-linejoin="round" stroke-width="2.27"/><path d="M568.8,261.9c-1.3,2-2.5,4.1-3.8,6.4l-2.5,4.6" transform="translate(-58.4 -24.8)" fill="none" stroke="#000" stroke-linecap="round" stroke-linejoin="round" stroke-width="2.27"/><path d="M593.6,262c-.9,1.7-1.9,3.5-3,5.3s-2.8,4.3-4.2,6.2" transform="translate(-58.4 -24.8)" fill="none" stroke="#000" stroke-linecap="round" stroke-linejoin="round" stroke-width="2.27"/><path d="M616.4,262.1A44.2,44.2,0,0,0,612,267a41.3,41.3,0,0,0-2.9,4.4" transform="translate(-58.4 -24.8)" fill="none" stroke="#000" stroke-linecap="round" stroke-linejoin="round" stroke-width="2.27"/><path d="M680.1,342.2l-1.4.3c-1.4.3-2.1.4-2.5.8s-.3.6-.4,2.5a17.6,17.6,0,0,0,.3,4.3c.3,1.3.4,2,1.1,2.4a3.9,3.9,0,0,0,2,.1,9.2,9.2,0,0,0,1.7-.2,6.4,6.4,0,0,0,3-1c.6-.5.8-1.3.9-3.4a36.8,36.8,0,0,0-.2-6.1c-.3-4.7-.3-5.5-1.1-6s-1.6-.2-3.9-.1l-2.5.3c-5.5.7-6.1,1.3-6.3,1.7s-.2.3-.5,2.1-.3,2.8-.4,4.9,0,1.6,0,5.5a21.5,21.5,0,0,0,.3,3.9,5.3,5.3,0,0,0,.5,1.8,5.1,5.1,0,0,0,1.6,2c.7.5,1.3.6,3.3.8l3.8.2h8.2c3-.1,2.4.1,9,.2H711c5.5,0,4.2-.1,4.6-.1h3c1-.1,1.5-.1,1.8-.4s.4-.4.5-2a24,24,0,0,0,0-2.7,14.1,14.1,0,0,0-.2-2.2c-.1-2-.3-2.2-.5-4.2s0-2.2-.3-5.2a12.8,12.8,0,0,1-.1-1.8c0-2,.5-3.1.3-3.2s-.9,1.5-2.7,2.2a7.5,7.5,0,0,1-1.6.5l-2,.2a15.7,15.7,0,0,1-2.2,0h-1.4c-1.1-.1-1.4-.2-1.6-.1s-.1.8.1,2.3a21.1,21.1,0,0,1,.3,3.1,8.8,8.8,0,0,0,.1,1.4,12.5,12.5,0,0,0,.2,2.2,2.5,2.5,0,0,0,.1.8c0,.7.1,1,.1,1.3s-.5,1.4-.3,1.6.8-.2,2.2-.3h2.2l1.2-.2c.3-.2.5-.5.4-3.4s-.2-2-.5-2.3-.7-.3-1.4-.4h-1.9" transform="translate(-58.4 -24.8)" fill="none" stroke="#000" stroke-linecap="round" stroke-linejoin="round" stroke-width="1.42"/><path d="M690,359.1c-.2-2.4-.3-6.1-.6-10.5-.5-7.9-.7-9.5-1.3-17.3-.1-2.5,0-.9-.8-15.8-.6-9.6-.7-11.3-.9-13.9s-.3-4.1-.8-10.2c-.6-8.2-.4-6.4-.6-8a51.7,51.7,0,0,1-.4-6.8,39.4,39.4,0,0,1,.3-4.4c.5-3.9.8-5.8,2.3-7s1.8-.8,3.8-1.1,4.3-.4,4.4.1-.6.5-1.8,1.6-.7.7-1.1,1.3a13.5,13.5,0,0,0-1.5,3.2,12.4,12.4,0,0,0-.6,2.3,8.7,8.7,0,0,0-.4,3.8,3.7,3.7,0,0,0,1,2.1,2.7,2.7,0,0,0,2.6.7c.7-.3,1-.9,1.7-2a13.5,13.5,0,0,0,1.3-3,17.4,17.4,0,0,0,.8-4.2" transform="translate(-58.4 -24.8)" fill="none" stroke="#000" stroke-linecap="round" stroke-linejoin="round" stroke-width="1.42"/><path d="M698.5,302c.7,6.4,1.2,11.6,1.5,15.2s.3,4.7,1,14.4c.3,3.5.4,5.7.8,10.2s.6,7.8.9,10.3.6,5.6.9,7.3" transform="translate(-58.4 -24.8)" fill="none" stroke="#000" stroke-linecap="round" stroke-linejoin="round" stroke-width="1.42"/><path d="M686.4,301.6l7.7.2c4.3.2,9,.2,14.1.3h8.3" transform="translate(-58.4 -24.8)" fill="none" stroke="#000" stroke-linecap="round" stroke-linejoin="round" stroke-width="1.42"/><path d="M702.7,302c-.1-1.4-.2-3.2-.4-5.5-.3-4.5-.5-7-.9-10.4s-.6-4.8-.8-7c0-.2-.1-1.1-.2-2.4s-.1-1.3-.2-2.1-.2-1.4-.3-2.4a13.2,13.2,0,0,1-.2-2.2c-.1-1.6-.1-2.5.4-3.3a2.6,2.6,0,0,1,1.3-1.2c.1-.1.3-.2,1.5-.3l1.7-.2h2.1l3.3-.5" transform="translate(-58.4 -24.8)" fill="none" stroke="#000" stroke-linecap="round" stroke-linejoin="round" stroke-width="1.42"/><path d="M705.9,264.9a10.8,10.8,0,0,0-1,3.3,13.9,13.9,0,0,0-.3,4.4c.1,2.3.1,3.4.7,4.4s1.6,2.4,3.3,2.1,1.9-1.7,2-2,.3-2,.1-3.5a10.5,10.5,0,0,0-.9-3.2" transform="translate(-58.4 -24.8)" fill="none" stroke="#000" stroke-linecap="round" stroke-linejoin="round" stroke-width="1.42"/><path d="M701.2,284.3l3.8-.3c4.6-.3,5.4-.1,5.9.3s1,1.8,1.3,4a19.6,19.6,0,0,1,.2,4c0,2.7-.2,3.2-.6,3.5s-1,.4-2.3.4-2.3,0-2.8-.5-.3-.4-.4-2.7-.1-2.1.1-2.5.9-.8,1.4-1.1a7.1,7.1,0,0,1,1.6-.5" transform="translate(-58.4 -24.8)" fill="none" stroke="#000" stroke-linecap="round" stroke-linejoin="round" stroke-width="1.42"/><path d="M685.2,286.2a33.5,33.5,0,0,1,4.5-.7h3.4c3.2.1,3.7.5,4,.8a5.4,5.4,0,0,1,.4,1.9,9.2,9.2,0,0,1,.1,1.8c.1,2.3,0,2.6-.1,2.9a6.3,6.3,0,0,1-1,1.2,5.3,5.3,0,0,1-2.6,1.1,3,3,0,0,1-2.1-.3,2.7,2.7,0,0,1-.9-2.1,3.6,3.6,0,0,1,.7-2c.3-.5.7-.9.9-1.2" transform="translate(-58.4 -24.8)" fill="none" stroke="#000" stroke-linecap="round" stroke-linejoin="round" stroke-width="1.42"/><path d="M716.1,315.5c.1,1.2.2,2.2.2,3.4s.2,3.3-.3,3.7-1.4.6-3.1.7h-5.8a5.7,5.7,0,0,1-2.3-.8,3.3,3.3,0,0,1-1-1.7,16,16,0,0,1-.5-3.1,12.7,12.7,0,0,0-.2-2.2,18.1,18.1,0,0,0-.2-2.2c-.1-2.3-.2-3.5.2-4.1s1.8-1,3.7-1.3h2.9c2.9,0,4.3.1,5,.6s.8,1.9,1.1,4.4A23.6,23.6,0,0,1,716.1,315.5Z" transform="translate(-58.4 -24.8)" fill="none" stroke="#000" stroke-linecap="round" stroke-linejoin="round" stroke-width="1.42"/><path d="M701,331.6h20.2l18.4-.4" transform="translate(-58.4 -24.8)" fill="none" stroke="#000" stroke-linecap="round" stroke-linejoin="round" stroke-width="1.42"/><path d="M721.6,331.6c-.3-2.7-.6-6.6-1.1-11.3-.2-2.3-.4-4-.8-7.5-.8-7.5-1.5-13.3-2.2-18.8-.2-1.7,0,.2-1.2-9.4-.4-3.4-.5-3.8-.6-4.7s-.8-3.6-1.5-7.2a20.4,20.4,0,0,1-.3-3.2c0-1.5.1-2.9,1-3.6a7,7,0,0,1,1.9-.4h2.3l3-.3h3.4c2.4,0,4-.2,5.5-.3s6-.3,12.8-.4H756" transform="translate(-58.4 -24.8)" fill="none" stroke="#000" stroke-linecap="round" stroke-linejoin="round" stroke-width="1.42"/><path d="M729.6,264.8c.7,4.1,1.5,9.4,2.6,15.6l2,11.9c2.5,14,2.3,12.8,2.8,15.8,1.5,8.8,1.1,7.8,3.1,19.6,1.4,9.2,1.7,10.3,2.5,15.7.5,3.6.7,5.3,1.3,8.7s.8,4.7,1.6,9.1c.3,1.7.5,3.1.6,4" transform="translate(-58.4 -24.8)" fill="none" stroke="#000" stroke-linecap="round" stroke-linejoin="round" stroke-width="1.42"/><path d="M740,327.2l17.7-.7h13.8" transform="translate(-58.4 -24.8)" fill="none" stroke="#000" stroke-linecap="round" stroke-linejoin="round" stroke-width="1.42"/><path d="M761.1,326.5c-.1-1.4-.3-3.4-.6-5.8s-.5-2.8-.8-4.6-.5-4.1-1-8.4-.6-5.8-1-9.1-.8-5.6-1-6.5c-.4-2.4-.8-4.4-1-5.8-2.9-14.5-4.2-15.5-5.2-15.8s-3.3-.2-5.2,0l-3,.2h-1.8l-3.7.2-1.3.3c-.6.6-.3,1.7,0,3.6l.9,4.5c.5,2.3.3,2.1.9,4.8.1.7.4,2.1,1,4.8.2.8.5,2,.8,3.5.8,3.2,1.2,3.9,1.9,4.3h1.9l2.1-.3c1.1-.4,2.2-.7,2.5-1.6a3.4,3.4,0,0,0,.2-1.6,7,7,0,0,0-.2-1.3c-.1-1.1-.5-3.1-.9-5.8" transform="translate(-58.4 -24.8)" fill="none" stroke="#000" stroke-linecap="round" stroke-linejoin="round" stroke-width="1.42"/><path d="M738.9,320.5l4.9-.3,9.3-.7,7.1-.9" transform="translate(-58.4 -24.8)" fill="none" stroke="#000" stroke-linecap="round" stroke-linejoin="round" stroke-width="1.42"/><path d="M754.6,313.3l-7.7.4q-4.8.2-9,0" transform="translate(-58.4 -24.8)" fill="none" stroke="#000" stroke-linecap="round" stroke-linejoin="round" stroke-width="1.42"/><path d="M691.5,315.1a18.3,18.3,0,0,1-.2-2.1,2.9,2.9,0,0,1,.1-1.7,2.2,2.2,0,0,1,1-.8,1.5,1.5,0,0,1,1.1.1c.4.3.5.7.6,1.9a19,19,0,0,1,.3,2.1,28,28,0,0,0,.4,3.8c.4,2.9.4,4.1.7,6.5s.7,5.7,1.6,10.9c0,.1.6,3.2.7,5.3s0,1.3.2,2.5v1.1a6.7,6.7,0,0,1-.1,1.6c-.2.5-.7,1.3-1.4,1.4s-.9-.5-1.7-1.3a7.6,7.6,0,0,1-1.4-2.1,14.2,14.2,0,0,1-1-2.6" transform="translate(-58.4 -24.8)" fill="none" stroke="#000" stroke-linecap="round" stroke-linejoin="round" stroke-width="1.42"/><path d="M691.8,328.1c.2,1.2.2,2.1.3,2.7s.1,2.1.5,2.5a2.4,2.4,0,0,0,1.6.4,6.3,6.3,0,0,0,2.5-.2" transform="translate(-58.4 -24.8)" fill="none" stroke="#000" stroke-linecap="round" stroke-linejoin="round" stroke-width="1.42"/><path d="M687.7,322.9a30.8,30.8,0,0,1,3.9-.7h3.6" transform="translate(-58.4 -24.8)" fill="none" stroke="#000" stroke-linecap="round" stroke-linejoin="round" stroke-width="1.42"/><path d="M733.3,345.1a5.8,5.8,0,0,0-1.7-.6c-.6-.2-1.1-.3-1.4,0s-.2.5-.1,1.3.1,1.2.2,2a10.8,10.8,0,0,0,.5,2.9c.4,1.7.6,2.1.9,2.2a3.7,3.7,0,0,0,1.4.3h1.1a3.7,3.7,0,0,0,2-.8c.3-.3.4-.7.3-2.6s-.3-2.4-.5-4.3,0-1-.1-2.4a20.4,20.4,0,0,1-.3-3.4v-1.5c.2-1.3.7-1.9.5-2.1s-1.1.9-2.9,1.7a13.8,13.8,0,0,1-3.3.9,11.1,11.1,0,0,1-1.9,0h-1.4c-.8-.1-1-.3-1.2-.1s-.3.2-.2,1.5a6.1,6.1,0,0,0,.1,1.4c0,.1,0,0,.3,3.1s.4,3.8.5,4.4.2,1.8.2,2.7.1,1.6.2,2.8a7.3,7.3,0,0,0,.6,2.8,4.4,4.4,0,0,0,1.6,1.7c.2.2.9.6,3.3.7h7a17,17,0,0,0,2.8-.3,10,10,0,0,0,3.1-1.6" transform="translate(-58.4 -24.8)" fill="none" stroke="#000" stroke-linecap="round" stroke-linejoin="round" stroke-width="1.42"/><path d="M729.2,316.1h1.2l.8-.2c.2-.1.2-.4.2-1.1a4.9,4.9,0,0,0-.2-1.5s-.1-.8-.2-1.8-.1-1.2-.2-1.8-.2-1.2-.6-1.5-.7-.3-2.1-.2-3,.3-3.3.8-.4,1.3-.3,3a23.8,23.8,0,0,0,.6,3.7c.3,1.6.4,1.6.6,2.9s.2,1.5.4,2.3.5,2,1,2.4,1.4.5,3,.6h9.3" transform="translate(-58.4 -24.8)" fill="none" stroke="#000" stroke-linecap="round" stroke-linejoin="round" stroke-width="1.42"/><path d="M743.2,289.8a28.6,28.6,0,0,0-1.1-6c0-.1-.3-.8-.5-1.7s-.4-1.6-.2-2,2.4-1.4,3.2-1.5,2.1-.3,3,.3.8.9,1.6,3.6a28.1,28.1,0,0,1,1,3.9c.4,2.2.3,2.4.8,5.3l.5,3.2a27.7,27.7,0,0,1,.5,3.6c.3,2.5.2,2.8.1,2.9s-1.8,1.3-3.9,1.7a20.9,20.9,0,0,1-3.6.4h-4.5a15.7,15.7,0,0,1-2.3-1l-1.9-.8" transform="translate(-58.4 -24.8)" fill="none" stroke="#000" stroke-linecap="round" stroke-linejoin="round" stroke-width="1.42"/><path d="M757.8,299.7a14.5,14.5,0,0,1,4.2,0,15.4,15.4,0,0,1,4,1" transform="translate(-58.4 -24.8)" fill="none" stroke="#000" stroke-linecap="round" stroke-linejoin="round" stroke-width="1.42"/><path d="M762.2,270.9l-2.2-.2c-2.1-.2-2.3.1-2.4.2s-.1.3.2,1.4a6.6,6.6,0,0,0,.4,1.1c.3,1,.2,1.3.6,2.9a16,16,0,0,0,.5,2.1c.4,1.8.5,1.8.8,3s.4,2,.6,3.4.2,1.2.3,2.2.2,1,.4,2.1.2,1.1.2,1.5a21.9,21.9,0,0,1,.2,2.9c.2,1.8.4,2.1.6,2.3a3.7,3.7,0,0,0,1.4-.1,3.8,3.8,0,0,0,1.4-.5" transform="translate(-58.4 -24.8)" fill="none" stroke="#000" stroke-linecap="round" stroke-linejoin="round" stroke-width="1.42"/><path d="M730.8,271.8a33.4,33.4,0,0,0-3.9-.9,18.4,18.4,0,0,0-4.4-.1c-2,.1-2.5.5-2.7.7a4.1,4.1,0,0,0-.8,2.4,9.2,9.2,0,0,0-.1,1.6,9.9,9.9,0,0,0,.2,1.8c.2,1.4.5,2.4.5,2.8s.4,2.1,1,5.1l.4,2.6c.6,3.2.8,4.8.9,5.7a12.9,12.9,0,0,0,.4,2.5c.3,1.2.5,1.8,1,2.2s.6.4,3.7.6h3.5l1.7-.4" transform="translate(-58.4 -24.8)" fill="none" stroke="#000" stroke-linecap="round" stroke-linejoin="round" stroke-width="1.42"/><path d="M727.6,291a3.3,3.3,0,0,1-1.5-1.3,16.2,16.2,0,0,1-.6-1.7,3.2,3.2,0,0,1-.1-.8c-.3-1.5-.6-2-.8-3.2a8.5,8.5,0,0,1-.4-2.4c-.3-2.2-.4-3.3.2-3.9a2.4,2.4,0,0,1,2-.6,2.7,2.7,0,0,1,2.3.6c0,.2.1.3.2,1s.3,1.7.3,1.8c.3,1.6.4,4.7.5,5.8a19.9,19.9,0,0,0,1.4,5.5" transform="translate(-58.4 -24.8)" fill="none" stroke="#000" stroke-linecap="round" stroke-linejoin="round" stroke-width="1.42"/><path d="M749.1,336a9.7,9.7,0,0,1,1.7,2.6,11.3,11.3,0,0,1,.9,2.2c.1.7.3,1.4.7,3.9a28.2,28.2,0,0,1,.4,4.4c0,1.7-.2,2.3-.6,2.6s-.4.4-2.1.6h-6.2" transform="translate(-58.4 -24.8)" fill="none" stroke="#000" stroke-linecap="round" stroke-linejoin="round" stroke-width="1.42"/><path d="M742.6,343.8l3.9-.3,5.6-.8" transform="translate(-58.4 -24.8)" fill="none" stroke="#000" stroke-linecap="round" stroke-linejoin="round" stroke-width="1.42"/><path d="M753.9,334.6a3.8,3.8,0,0,0,2,1.5h3.2a10.6,10.6,0,0,1,2.7,0c.5.3.7,1,1,2.4a29.3,29.3,0,0,1,.6,3.3c.2,1.4.3,1.4.6,3.1l.4,2.3c.1.9.2,2.2.4,4.7s.1,1.6.1,2.4-.1.7-.1,1.7.1,2-.1,2.3-.7.5-1.9.7a27.4,27.4,0,0,1-3.8.1h-8.2a28.9,28.9,0,0,0-5.6.7" transform="translate(-58.4 -24.8)" fill="none" stroke="#000" stroke-linecap="round" stroke-linejoin="round" stroke-width="1.42"/><path d="M756.6,338.7c0,.7.1,1.3.1,1.7s.2,1.4.3,2.1a2.8,2.8,0,0,0,.1,1c.2,1.6.3,2.5.6,4.4s.5,3,.9,3.2h1.6c.7,0,1,0,1.2-.2s.3-.6.2-1.9a6.7,6.7,0,0,0-.2-1.6c-.2-1.2-.4-2.9-.8-4.9" transform="translate(-58.4 -24.8)" fill="none" stroke="#000" stroke-linecap="round" stroke-linejoin="round" stroke-width="1.42"/><path d="M769.9,334.3c-1-.5-2.2-1-2.8-.5s.2,2.4.4,3c3.2,7.6-.8,18.9,3.9,21.4a4.6,4.6,0,0,0,2.1.5" transform="translate(-58.4 -24.8)" fill="none" stroke="#000" stroke-linecap="round" stroke-linejoin="round" stroke-width="1.42"/><path d="M455.7,183c-.1.8,3.1,1.6,6.9,2.7s12.8,3.8,12.7,4.7-.9.3-9.7.4H452.1l-5.3-.2c-1.2-.3-.8-.3-6.7-2.8l-3.2-1.6c-1.9-1-2.3-1.3-2.3-1.7s.3-.8,2.9-2.4l2.8-1.6c5-2.7,4.9-2.8,6-3.1a22.4,22.4,0,0,1,4.7-.3h4.1c5.5.1,8.4.1,13.6.4,2.8.2,3.9.3,3.9.6s-2.3.9-5.9,1.7l-3.2.7-4.7,1.4C455.8,182.7,455.7,182.9,455.7,183Z" transform="translate(-58.4 -24.8)" fill="none" stroke="#000" stroke-linecap="round" stroke-linejoin="round" stroke-width="1.42"/><path d="M501.6,183.5c0,.3.5.6,2,1.2l2.9,1.2c2.5.7,10.8,3.8,10.6,4.8s-.6.3-8,.5H493.4a7.1,7.1,0,0,1-2.6,0,7.6,7.6,0,0,1-1.8-.9l-1.5-.9a11,11,0,0,0-3.2-1.6l-7.2-3.1-1.2-.5c-1.3-.6-1.7-.6-1.7-.8s1.1-.8,3.3-1.9l2.9-1.4,4.3-1.9,2.8-1.1a14.5,14.5,0,0,1,3.7-.2h11c7.8-.2,13.6-.3,13.7.3s-1,.4-6.2,2.3a24.5,24.5,0,0,0-3.5,1.5l-2.6,1.4C502.2,183,501.6,183.2,501.6,183.5Z" transform="translate(-58.4 -24.8)" fill="none" stroke="#000" stroke-linecap="round" stroke-linejoin="round" stroke-width="1.42"/><path d="M542.6,183.4c0,.3.4.9,5.7,2.9,2.2.9,4.3,1.6,5.6,2,6.1,2.2,6.7,2.4,6.7,2.7s-4.8.7-9.2.7H534.8c-.5-.1-.6-.4-1.2-.7a4.2,4.2,0,0,0-1.5-.7l-2.2-.7-2.9-.8-2.1-.9-2.9-1.3c-2.7-1.3-3.4-1.5-3.4-1.9s.1-.4,2.3-1.6l3.6-1.8,2.1-1.1,2.5-1.2c2.3-1.3,2.3-1.5,3.3-1.8l2.7-.2h18.2c4.6.1,5.3.2,5.3.5s-.6.4-3,1.3l-5.5,2-3.9,1.3C542.7,182.9,542.6,183.2,542.6,183.4Z" transform="translate(-58.4 -24.8)" fill="none" stroke="#000" stroke-linecap="round" stroke-linejoin="round" stroke-width="1.42"/><path d="M583.3,183.9c0,.3.2.6,4,1.8l6.3,1.9,3.9,1.5c4,1.6,4.2,1.9,4.1,2.1s-1.7.5-4.6.7-4.8.2-7.2.2h-9.3a5.9,5.9,0,0,1-2.3-.2,4.6,4.6,0,0,1-1.4-.7l-1.3-.8a27.2,27.2,0,0,0-5.3-2.2l-4.9-2c-2.3-1-1.3-.8-3.1-1.6s-1.9-.7-1.9-1.1.6-.6,2.1-1.2l4.6-1.8,3-.9,3.9-1.4a22.5,22.5,0,0,1,3.6-1.1c.9-.2,1.5-.2,5.1-.1h3.2l9.2.2c5.6.1,6,.4,6,.6s-1.2.8-3.7,1.7l-4.9,1.7-3.3.8C583.9,183.4,583.3,183.6,583.3,183.9Z" transform="translate(-58.4 -24.8)" fill="none" stroke="#000" stroke-linecap="round" stroke-linejoin="round" stroke-width="1.42"/><path d="M625.1,183.8c0,.9,4.7,1.6,12.7,4.3,4,1.3,6.1,2,6,2.6s-15,.5-18.3.7h-5.2a3.6,3.6,0,0,1-1.3-.6l-1.6-.6a18.1,18.1,0,0,0-3.2-1l-4.8-1.5-3.9-1.2c-3.5-1-5-1.1-5.1-1.6s.7-.5,3.4-1.5,3.5-1.4,5-1.8l4.1-1.5,1.2-.5,1.5-.7,2.6-1.4,2.9-.2h7c2.9.1,4.2,0,6.2,0,5,0,7.5-.1,7.6.4s-.6.5-5.3,2.2l-4.7,1.8C627,183.2,625.1,183.2,625.1,183.8Z" transform="translate(-58.4 -24.8)" fill="none" stroke="#000" stroke-linecap="round" stroke-linejoin="round" stroke-width="1.42"/><path d="M660.4,183.7c0,.5,1.3,1,4.1,2.2l3.6,1.7c6.2,2.7,8.4,3.2,8.3,3.7s-2,.4-5.8.4h-9.8c-2.2,0-2.7-.2-3-.4l-1.7-1.1-1.6-.7-3.9-1.4-3-1.4c-2-1-1.6-1-3.4-1.8s-1.8-.9-1.9-1.2.6-.8,1.9-1.4l1.9-.9,2.3-.9,4.5-1.6,3-1.1a13.1,13.1,0,0,1,3.4-.3H667c4.3-.1,7.1-.1,7.2.3s-.9.4-3.9,1.7l-2.3,1.1-1.7.7-4.2,1.6C660.7,183.3,660.5,183.4,660.4,183.7Z" transform="translate(-58.4 -24.8)" fill="none" stroke="#000" stroke-linecap="round" stroke-linejoin="round" stroke-width="1.42"/><path d="M695.6,184.2c-.1.5,1.9,1.3,5.7,2.8l5,2c2.9,1.3,4.6,2.1,4.5,2.5s-.9.3-4.8.5l-7,.2h-4.4a6.1,6.1,0,0,1-1.8.1l-1.3-.8-1.1-.7a29.2,29.2,0,0,0-5-2.4c-1.6-.7-1.1-.7-3.9-2.2s-3.7-1.7-3.7-2.3.8-.6,2.8-1.4,1.3-.6,4-1.7l5.1-2.1c2.8-1.1,2.7-1.2,3.4-1.3s1.8-.2,5.4-.1h4c4,.2,5.9.3,6,.6s-2.1,1.4-6.5,3.1l-2.2.9C695.7,183.7,695.6,184,695.6,184.2Z" transform="translate(-58.4 -24.8)" fill="none" stroke="#000" stroke-linecap="round" stroke-linejoin="round" stroke-width="1.42"/><path d="M722,184.4c0,.2.4.3,1.6.9l1.3.7,3.7,2.1c4.5,2.4,6.6,2.9,6.5,3.4s-2.2.4-6.5.5h-4.8a11.1,11.1,0,0,1-3.8-.5l-2.4-1.6-1.8-1.3-2.1-1.3-1.9-1.4c-1.5-1-1.9-1.1-1.9-1.5s.5-.5,1.6-1.2l2-1.6,2.5-1.8a21.9,21.9,0,0,1,4-2.5c.6-.2.7-.1,4.1-.1h4.4c3.3.1,5,.1,5.1.4s-2,1.6-6.2,3.7c-1,.5-1.9,1.1-2.9,1.5S721.9,184,722,184.4Z" transform="translate(-58.4 -24.8)" fill="none" stroke="#000" stroke-linecap="round" stroke-linejoin="round" stroke-width="1.42"/><path d="M747.1,184.4c-.1.5,1.2,1.2,3.9,2.7l3.5,1.8c3.7,1.8,5.5,2.8,5.4,3.1s-.6.2-1.7.3h-10c-.4-.1-.5-.3-1.8-1.1l-.9-.6c-1.4-.9-3.4-1.9-3.8-2.1-5.1-2.7-6.1-3.2-6.1-3.8s.7-.6,1.9-1.4l2-1.1,2.3-1.2,3.8-2.1a16.5,16.5,0,0,1,2.2-1.3,18.6,18.6,0,0,1,2.6-.3h2.2l4.3.2c1.9.1,2.4.1,2.5.3s-.9,1-2.1,1.7a17.9,17.9,0,0,1-3.6,1.9l-2.8,1.2-2.1.8C747.7,183.9,747.1,184.1,747.1,184.4Z" transform="translate(-58.4 -24.8)" fill="none" stroke="#000" stroke-linecap="round" stroke-linejoin="round" stroke-width="1.42"/><path d="M769.7,185.8c0,.1.1.2.9.8l1.5,1.1,1.7,1.2c2.6,2,3.9,2.9,3.7,3.5s-1.7.4-4.7.3h-3.5c-.8-.1-1.2-.5-2.4-1.5l-2.7-1.9-2.8-1.8-2.1-1.5c-1.1-.8-1.3-1-1.3-1.2s.6-.7,2.5-1.6l2.4-1.2,3-1.5,1.7-.6,1.8-.8,1-.8c.6-.4.9-.6,1.2-.6h5.8c2.2,0,2.4-.1,2.5.1s-1.2,2-2.1,2.7l-1.9,1.2-1.7,1-2.3,1.4C769.8,185.4,769.7,185.5,769.7,185.8Z" transform="translate(-58.4 -24.8)" fill="none" stroke="#000" stroke-linecap="round" stroke-linejoin="round" stroke-width="1.42"/><path d="M122.1,186.7h50.1c63.5.2,96.1.6,143.6.8,27.2.2,66.5.3,114.6.2" transform="translate(-58.4 -24.8)" fill="none" stroke="#000" stroke-linecap="round" stroke-linejoin="round" stroke-width="1.42"/></g></svg>