<svg xmlns="http://www.w3.org/2000/svg" xmlns:xlink="http://www.w3.org/1999/xlink" viewBox="0 0 1363.4 2080.1"><defs><clipPath id="clip-path"><rect width="72" height="72" fill="none"/></clipPath><pattern id="_10_lpi_10_" data-name="10 lpi 10%" width="72" height="72" patternTransform="translate(15.7 43) rotate(-45)" patternUnits="userSpaceOnUse" viewBox="0 0 72 72"><rect width="72" height="72" fill="none"/><line x1="71.8" y1="68.4" x2="144.3" y2="68.4" fill="none" stroke="#231815" stroke-width="0.57"/><line x1="71.8" y1="54" x2="144.3" y2="54" fill="none" stroke="#231815" stroke-width="0.57"/><line x1="71.8" y1="39.6" x2="144.3" y2="39.6" fill="none" stroke="#231815" stroke-width="0.57"/><line x1="71.8" y1="25.2" x2="144.3" y2="25.2" fill="none" stroke="#231815" stroke-width="0.57"/><line x1="71.8" y1="10.8" x2="144.3" y2="10.8" fill="none" stroke="#231815" stroke-width="0.57"/><line x1="71.8" y1="61.2" x2="144.3" y2="61.2" fill="none" stroke="#231815" stroke-width="0.57"/><line x1="71.8" y1="46.8" x2="144.3" y2="46.8" fill="none" stroke="#231815" stroke-width="0.57"/><line x1="71.8" y1="32.4" x2="144.3" y2="32.4" fill="none" stroke="#231815" stroke-width="0.57"/><line x1="71.8" y1="18" x2="144.3" y2="18" fill="none" stroke="#231815" stroke-width="0.57"/><line x1="71.8" y1="3.6" x2="144.3" y2="3.6" fill="none" stroke="#231815" stroke-width="0.57"/><line x1="71.8" y1="68.4" x2="144.3" y2="68.4" fill="none" stroke="#000" stroke-width="0.57"/><line x1="71.8" y1="54" x2="144.3" y2="54" fill="none" stroke="#000" stroke-width="0.57"/><line x1="71.8" y1="39.6" x2="144.3" y2="39.6" fill="none" stroke="#000" stroke-width="0.57"/><line x1="71.8" y1="25.2" x2="144.3" y2="25.2" fill="none" stroke="#000" stroke-width="0.57"/><line x1="71.8" y1="10.8" x2="144.3" y2="10.8" fill="none" stroke="#000" stroke-width="0.57"/><line x1="71.8" y1="61.2" x2="144.3" y2="61.2" fill="none" stroke="#000" stroke-width="0.57"/><line x1="71.8" y1="46.8" x2="144.3" y2="46.8" fill="none" stroke="#000" stroke-width="0.57"/><line x1="71.8" y1="32.4" x2="144.3" y2="32.4" fill="none" stroke="#000" stroke-width="0.57"/><line x1="71.8" y1="18" x2="144.3" y2="18" fill="none" stroke="#000" stroke-width="0.57"/><line x1="71.8" y1="3.6" x2="144.3" y2="3.6" fill="none" stroke="#000" stroke-width="0.57"/><line x1="-0.3" y1="68.4" x2="72.3" y2="68.4" fill="none" stroke="#231815" stroke-width="0.57"/><line x1="-0.3" y1="54" x2="72.3" y2="54" fill="none" stroke="#231815" stroke-width="0.57"/><line x1="-0.3" y1="39.6" x2="72.3" y2="39.6" fill="none" stroke="#231815" stroke-width="0.57"/><line x1="-0.3" y1="25.2" x2="72.3" y2="25.2" fill="none" stroke="#231815" stroke-width="0.57"/><line x1="-0.3" y1="10.8" x2="72.3" y2="10.8" fill="none" stroke="#231815" stroke-width="0.57"/><line x1="-0.3" y1="61.2" x2="72.3" y2="61.2" fill="none" stroke="#231815" stroke-width="0.57"/><line x1="-0.3" y1="46.8" x2="72.3" y2="46.8" fill="none" stroke="#231815" stroke-width="0.57"/><line x1="-0.3" y1="32.4" x2="72.3" y2="32.4" fill="none" stroke="#231815" stroke-width="0.57"/><line x1="-0.3" y1="18" x2="72.3" y2="18" fill="none" stroke="#231815" stroke-width="0.57"/><line x1="-0.3" y1="3.6" x2="72.3" y2="3.6" fill="none" stroke="#231815" stroke-width="0.57"/><g clip-path="url(#clip-path)"><line x1="-72.3" y1="68.4" x2="0.3" y2="68.4" fill="none" stroke="#231815" stroke-width="0.57"/><line x1="-72.3" y1="54" x2="0.3" y2="54" fill="none" stroke="#231815" stroke-width="0.57"/><line x1="-72.3" y1="39.6" x2="0.3" y2="39.6" fill="none" stroke="#231815" stroke-width="0.57"/><line x1="-72.3" y1="25.2" x2="0.3" y2="25.2" fill="none" stroke="#231815" stroke-width="0.57"/><line x1="-72.3" y1="10.8" x2="0.3" y2="10.8" fill="none" stroke="#231815" stroke-width="0.57"/><line x1="-72.3" y1="61.2" x2="0.3" y2="61.2" fill="none" stroke="#231815" stroke-width="0.57"/><line x1="-72.3" y1="46.8" x2="0.3" y2="46.8" fill="none" stroke="#231815" stroke-width="0.57"/><line x1="-72.3" y1="32.4" x2="0.3" y2="32.4" fill="none" stroke="#231815" stroke-width="0.57"/><line x1="-72.3" y1="18" x2="0.3" y2="18" fill="none" stroke="#231815" stroke-width="0.57"/><line x1="-72.3" y1="3.6" x2="0.3" y2="3.6" fill="none" stroke="#231815" stroke-width="0.57"/></g><line x1="-0.3" y1="68.4" x2="72.3" y2="68.4" fill="none" stroke="#000" stroke-width="0.57"/><line x1="-0.3" y1="54" x2="72.3" y2="54" fill="none" stroke="#000" stroke-width="0.57"/><line x1="-0.3" y1="39.6" x2="72.3" y2="39.6" fill="none" stroke="#000" stroke-width="0.57"/><line x1="-0.3" y1="25.2" x2="72.3" y2="25.2" fill="none" stroke="#000" stroke-width="0.57"/><line x1="-0.3" y1="10.8" x2="72.3" y2="10.8" fill="none" stroke="#000" stroke-width="0.57"/><line x1="-0.3" y1="61.2" x2="72.3" y2="61.2" fill="none" stroke="#000" stroke-width="0.57"/><line x1="-0.3" y1="46.8" x2="72.3" y2="46.8" fill="none" stroke="#000" stroke-width="0.57"/><line x1="-0.3" y1="32.4" x2="72.3" y2="32.4" fill="none" stroke="#000" stroke-width="0.57"/><line x1="-0.3" y1="18" x2="72.3" y2="18" fill="none" stroke="#000" stroke-width="0.57"/><line x1="-0.3" y1="3.6" x2="72.3" y2="3.6" fill="none" stroke="#000" stroke-width="0.57"/><line x1="-72.3" y1="68.4" x2="0.3" y2="68.4" fill="none" stroke="#231815" stroke-width="0.57"/><line x1="-72.3" y1="54" x2="0.3" y2="54" fill="none" stroke="#231815" stroke-width="0.57"/><line x1="-72.3" y1="39.6" x2="0.3" y2="39.6" fill="none" stroke="#231815" stroke-width="0.57"/><line x1="-72.3" y1="25.2" x2="0.3" y2="25.2" fill="none" stroke="#231815" stroke-width="0.57"/><line x1="-72.3" y1="10.8" x2="0.3" y2="10.8" fill="none" stroke="#231815" stroke-width="0.57"/><line x1="-72.3" y1="61.2" x2="0.3" y2="61.2" fill="none" stroke="#231815" stroke-width="0.57"/><line x1="-72.3" y1="46.8" x2="0.3" y2="46.8" fill="none" stroke="#231815" stroke-width="0.57"/><line x1="-72.3" y1="32.4" x2="0.3" y2="32.4" fill="none" stroke="#231815" stroke-width="0.57"/><line x1="-72.3" y1="18" x2="0.3" y2="18" fill="none" stroke="#231815" stroke-width="0.57"/><line x1="-72.3" y1="3.6" x2="0.3" y2="3.6" fill="none" stroke="#231815" stroke-width="0.57"/><line x1="-72.3" y1="68.4" x2="0.3" y2="68.4" fill="none" stroke="#000" stroke-width="0.57"/><line x1="-72.3" y1="54" x2="0.3" y2="54" fill="none" stroke="#000" stroke-width="0.57"/><line x1="-72.3" y1="39.6" x2="0.3" y2="39.6" fill="none" stroke="#000" stroke-width="0.57"/><line x1="-72.3" y1="25.2" x2="0.3" y2="25.2" fill="none" stroke="#000" stroke-width="0.57"/><line x1="-72.3" y1="10.8" x2="0.3" y2="10.8" fill="none" stroke="#000" stroke-width="0.57"/><line x1="-72.3" y1="61.2" x2="0.3" y2="61.2" fill="none" stroke="#000" stroke-width="0.57"/><line x1="-72.3" y1="46.8" x2="0.3" y2="46.8" fill="none" stroke="#000" stroke-width="0.57"/><line x1="-72.3" y1="32.4" x2="0.3" y2="32.4" fill="none" stroke="#000" stroke-width="0.57"/><line x1="-72.3" y1="18" x2="0.3" y2="18" fill="none" stroke="#000" stroke-width="0.57"/><line x1="-72.3" y1="3.6" x2="0.3" y2="3.6" fill="none" stroke="#000" stroke-width="0.57"/></pattern></defs><g id="scale-1:1"><path d="M826.6,2095.4v9.9H543.1v-10" transform="translate(-41.7 -25.9)" fill="none" stroke="#000" stroke-miterlimit="10" stroke-width="1.42"/><line x1="558.2" y1="2069.5" x2="558.2" y2="2079.4" fill="none" stroke="#000" stroke-miterlimit="10" stroke-width="1.42"/><line x1="614.8" y1="2069.5" x2="614.8" y2="2079.4" fill="none" stroke="#000" stroke-miterlimit="10" stroke-width="1.42"/><line x1="643.1" y1="2069.5" x2="643.1" y2="2079.4" fill="none" stroke="#000" stroke-miterlimit="10" stroke-width="1.42"/><line x1="586.5" y1="2069.5" x2="586.5" y2="2079.4" fill="none" stroke="#000" stroke-miterlimit="10" stroke-width="1.42"/><line x1="529.8" y1="2069.5" x2="529.8" y2="2079.4" fill="none" stroke="#000" stroke-miterlimit="10" stroke-width="1.42"/><text transform="translate(492.7 2063)" font-size="34.02" font-family="SimSun">0</text><text transform="translate(634.7 2063)" font-size="34.02" font-family="SimSun">5</text><text transform="translate(769.5 2063)" font-size="34.02" font-family="SimSun">10cm</text></g><g id="outline"><path d="M1237.4,402.1c.6-93.5.8-139.3.8-163.7.1-11.8.3-23.7.2-35.6-.2-21.8-.8-39.9.5-60.5.3-4.8.9-12.3,2.2-21.5,1.1-7.5,2.3-13.7,3.3-18.1,6.8-28.1,18.2-48.5,27.5-58.3a59.3,59.3,0,0,1,20-14.2,45.9,45.9,0,0,1,9.9-3c3.1-.5,7-.6,14.5-.6h28.8l33.7.2c-1.6,4.3-3.7,10.2-6,17.2-1.3,3.9-2.8,8.9-4.5,14.8s-4.4,16.8-7.1,31c-1.2,6.5-3.4,19.4-5,37.5-1.4,16.3-1.4,25.5-1.7,64.4-.3,40.9-.4,32.3-.4,46.3-.1,27.8.2,48.9.7,78.9.3,20.4.7,49.5,1.3,85.2" transform="translate(-41.7 -25.9)" fill="none" stroke="#000" stroke-linecap="round" stroke-linejoin="round" stroke-width="1.42"/><path d="M1307.8,26.7a266.4,266.4,0,0,0-13.3,30.1,229.1,229.1,0,0,0-10.7,37c-3.3,17.2-3.4,30.4-3.5,41.5-.3,25.5-1.4,51-1.1,76.5.2,19.5.1,18.4.1,19.3-1.4,15.5.4,87.9.6,94.7s-.1,1.3.7,54.8c0,5.9.2,15.8.3,21.4" transform="translate(-41.7 -25.9)" fill="none" stroke="#000" stroke-linecap="round" stroke-linejoin="round" stroke-width="1.42"/><path d="M1280.2,140.9a14.6,14.6,0,0,0-12,8.4,21.8,21.8,0,0,0-1.5,5.7,49.1,49.1,0,0,0-.3,7.7c-.1,4.4-.2,4.8-.2,6.4-.1,11,.9,102.4,1.1,128.3,0,8.7.1,22.9.2,35,0,13.8.1,25.3.1,33.6v36" transform="translate(-41.7 -25.9)" fill="none" stroke="#000" stroke-linecap="round" stroke-linejoin="round" stroke-width="1.42"/><path d="M714,536.2c84.2-.6,153.1-.7,200.8-.7,0,0,272.9.2,368.2-1.4h20.6c8.2,0,9.1.1,10.7-.2a10.3,10.3,0,0,1,2.5-.3,11.3,11.3,0,0,1,3.2.5c1.5.3,2.3.5,2.7,1a3.6,3.6,0,0,1,.7,2.8c-.3,2.5-2.8,3.8-2.9,3.9a5.2,5.2,0,0,1-2.3.5c-9.3.3-13.9.5-19.5.4h-5.4l-22.6.2c-11.9.1-152.3,1.3-349,1.9H884.9l-170.9.3" transform="translate(-41.7 -25.9)" fill="none" stroke="#000" stroke-linecap="round" stroke-linejoin="round" stroke-width="1.42"/><path d="M714.6,748.8c25.3.2,63.1.4,109.1.4,23.2,0,30.9-.1,84.8-.4l225.6-1.1,48.2-.2s21.7-.4,184.9-.3a16.9,16.9,0,0,1,3.5.4,9.7,9.7,0,0,1,4.1,1.6c1,.7,2.4,1.7,2.3,3s-2.5,2.7-2.7,2.7a8.5,8.5,0,0,1-3.3.4h-2c-26.7,0-53.4.7-80,.3l-70.3.5c-96.4.7-225.7,1.6-320.3,2.1-43.9.2-107.1.5-183.9.6" transform="translate(-41.7 -25.9)" fill="none" stroke="#000" stroke-linecap="round" stroke-linejoin="round" stroke-width="1.42"/><path d="M723.1,550.3c.1,19.3.2,35.4.3,47.3s.1,23.5.1,36.7,0,26.4-.1,42.5-.1,29.6-.2,39.4c0,13.9-.1,25.3-.2,32.6" transform="translate(-41.7 -25.9)" fill="none" stroke="#000" stroke-linecap="round" stroke-linejoin="round" stroke-width="1.42"/><path d="M819.3,676.7c-1.4.7-2.4,1-8.7,1.8-12.2,1.6-16.4,1.8-18.5,1.8a55.9,55.9,0,0,1-6.1-.1,28.2,28.2,0,0,1-5.5-.4,12.7,12.7,0,0,1-7.2-4.2c-1.9-2.3-2.4-5.4-3.3-11.6-.3-2.2-.5-3.8-.6-5.1a91.8,91.8,0,0,1-.3-11.1c.2-4.7.3-7,1.4-9.9a22.1,22.1,0,0,1,5.9-8.6,21.6,21.6,0,0,1,6.7-4.1c1.9-.7,4.1-1,8.5-1.5,2.1-.2,4.8-.5,8.4-.6s2.7,0,7.8,0h8.4a34.2,34.2,0,0,1,4.7.3,17,17,0,0,1,2.8.6,10.1,10.1,0,0,1,4.4,2.9c1.1,1.3,1.8,3,1.8,13,0,1.7,0,3.3-.1,6.5s-.2,5.7-.4,11.9a38.1,38.1,0,0,1-.5,5.5,19.9,19.9,0,0,1-2.5,6.1A18.9,18.9,0,0,1,819.3,676.7Z" transform="translate(-41.7 -25.9)" fill="none" stroke="#000" stroke-linecap="round" stroke-linejoin="round" stroke-width="1.42"/><path d="M1321.3,541c.8,2.3,1.7,5.3,2.8,8.7.4,1.2,1.6,5,2.6,8.6,1.8,6.3,2.4,9.4,4.7,19.1,1.1,4.6.7,3,3.2,13,4.3,18,9.8,41.4,14.9,62.9,3.8,15.7,7.4,31.4,11.2,47.1,1.3,5.4,3.8,15.9,6.7,30,1.4,7.1,2.5,13.1,3.3,17.2" transform="translate(-41.7 -25.9)" fill="none" stroke="#000" stroke-linecap="round" stroke-linejoin="round" stroke-width="1.42"/><path d="M713.7,440.8l93.2.2c26.1,0,39.3-.1,50.2-.3,3.5-.1,11.5-.3,22.3-.3s20.3.2,23.7.3c14.3.4,21.3.2,60,.1h58.4l66.5-.4,87.6-.8c41-.2,95.5-.2,138.3-.5,6.4,0,22-.2,42.6-.8l24.6-1" transform="translate(-41.7 -25.9)" fill="none" stroke="#000" stroke-linecap="round" stroke-linejoin="round" stroke-width="1.42"/><path d="M1310.4,450.1c-.7,3-1.6,7.2-2.3,12.3-.4,2.9-.9,5.9-1.1,9.6a77.4,77.4,0,0,0,.5,14.4c1,9,2.5,14.5,5.7,28.2.9,4.2,2.4,10.7,4.2,18.8" transform="translate(-41.7 -25.9)" fill="none" stroke="#000" stroke-linecap="round" stroke-linejoin="round" stroke-width="1.42"/><path d="M1373.4,755.2c1.9,8.2,4.1,18.3,6.5,30,.7,3.3,2.7,13.3,5.3,27.2,2.1,11.7,5.4,29.3,8.7,52.4,1.8,12.2,4.1,28.3,6.1,49.9.6,6.5,2.3,24.6,3.4,48.2.4,10,1,21.6,1,37,0,13.1,0,28.2-1.6,47.9-1.4,17.8-3.5,31.3-5.4,43.7-2.4,15.1-3.8,24.5-6.9,37.6a379.1,379.1,0,0,1-14.6,46.7c-4.2,11-8.1,19.4-10.1,23.7s-7.1,14.9-15.5,29.4a612.4,612.4,0,0,1-35.9,54.4" transform="translate(-41.7 -25.9)" fill="none" stroke="#000" stroke-linecap="round" stroke-linejoin="round" stroke-width="1.42"/><path d="M1271.9,1476.3l7.8-1.3,3.4-.6,2.2-.4c3.5-.7,5.3-1.1,6.2-1.6a9.4,9.4,0,0,0,2.8-2.2c2.7-2.8,3.1-5.3,5.4-13.3,1.8-6.1,2-6.3,3.8-12.9.7-2.5,1.3-4.6,1.7-6.2h0a109.7,109.7,0,0,0,3.4-18.2c.1-.6.2-1.6.3-2.9s0-.4.1-3.7c0-.1,0-1.3-.1-2.9s-.2-1.5-.4-1.6-.7.3-1.5.9l-1.8.9a45.8,45.8,0,0,1-4.4,1.9c-6.8,2.3-4.9,1.8-8.1,2.7-6.1,1.9-9.3,2.9-13.1,3.5s-6.4.6-8.2-.4a10.2,10.2,0,0,1-3.5-3.3c-1.9-2.9-2-6.3-2.1-12.9v-4a138.9,138.9,0,0,1,2.4-20.4,73.6,73.6,0,0,1,2.1-9.7s2.6-8.5,7.2-11.7a7.6,7.6,0,0,1,2.2-1.1,7.8,7.8,0,0,1,3.1-.3c1.5,0,4.1.2,5.6,1.5s1.7,6.6,1.4,8.5a32.4,32.4,0,0,1-2.7,7.5c-1.2,2.3-1.9,3.1-1.6,3.6s1.9.3,9.3-2.4l5.5-2.1c6.5-2.5,9.5-4,11.7-4.9a17.6,17.6,0,0,0,5.8-3.4,16.5,16.5,0,0,0,4.1-5c1.3-2.6,1.5-4.5,2.2-9,1.2-9.2,1.3-7.9,2-13.7a90.4,90.4,0,0,0,.7-10.8c0-2-.1-1.9-.1-4.8-.2-5.8.1-7.7,0-14s-.3-7.2-1.6-9.3a20.4,20.4,0,0,0-2.8-3.1,49,49,0,0,0-7.6-6.5c-2.9-2-4-2.3-5-2.4a9.8,9.8,0,0,0-3.7.2c-2.6.3-4.6.8-4.8.8s-7.2,1.6-9.7,2.3c-11,3.1-30.8,8.5-50.3,14.3l-4.2,1.4c-1.4.4-6,1.8-8.3,2.8l-.8.4-2.4,1.1c-1.1.5-1.5.7-1.8,1.3s-.2.4-.3.8a8.4,8.4,0,0,0-.2,1.9c0,.2,0,1.2-.1,3.2s-.1,1.4-.2,2.7a51,51,0,0,0-.4,5.5c-.4,4.2-1.1,8.5-1.6,12.7s-.7,7.8-1,12.3c-.6,9.1-1.4,15-2.7,25.8,0,0-1.3,12.3-3.8,36.9-3.2,30.5-6.5,64.7-11.1,110.5s-6.9,70.1-9.3,92.6c-2.1,20.3-6.4,61-9.4,88-.4,2.8-1.5,12.3-2.8,25.2-.8,7.6-1.7,15.7-2.7,26.2s-1.7,17.9-2.3,24.8" transform="translate(-41.7 -25.9)" fill="none" stroke="#000" stroke-linecap="round" stroke-linejoin="round" stroke-width="1.42"/><path d="M1222.8,1491.5a48.9,48.9,0,0,1,8.3-9,43,43,0,0,1,6-4.1c5.6-3,10.5-3.6,17.3-4.4s9.8-.2,10.7-.1c2.9.6,6.2,1.3,8.6,4s2,3.9,2.6,6.6a30.2,30.2,0,0,1,.6,8.5,97,97,0,0,1-1.8,13.4c-.8,4-1.6,7.2-3,13.4-.7,2.9-1.3,5.2-1.6,6.7" transform="translate(-41.7 -25.9)" fill="none" stroke="#000" stroke-linecap="round" stroke-linejoin="round" stroke-width="1.42"/><path d="M751.1,544.9a35.8,35.8,0,0,0-5.3,6.8,40.3,40.3,0,0,0-3.6,7.5c-1.5,3.8-2,6.8-3,11.4s-1.6,10.3-1.8,12.3-1,9.1-.2,14.9a16.4,16.4,0,0,0,1.3,5.2,21.6,21.6,0,0,0,1.8,3.4,18.4,18.4,0,0,0,1.5,2.3,9.4,9.4,0,0,0,1.2,1.4c.7.6,1.1.8,1.1,1.1s-.6.2-1.4.4l-1.3.6A9.1,9.1,0,0,0,739,614l-2.3,1.9a10.4,10.4,0,0,0-1.5,1.5,29.5,29.5,0,0,0-3.1,4,34.4,34.4,0,0,0-3.8,7.7,63.2,63.2,0,0,0-2.6,8.3,74.1,74.1,0,0,0-2.2,13.6" transform="translate(-41.7 -25.9)" fill="none" stroke="#000" stroke-linecap="round" stroke-linejoin="round" stroke-width="1.42"/><path d="M723.4,686.4c1.2-7.5,2.4-13.7,3.5-18.3,3.2-14,6-20.7,7.2-23.5s3.5-6.9,3.5-6.9a61.7,61.7,0,0,1,3.8-6.3,37,37,0,0,1,7.8-8.1c2.7-2.1,5.7-3.8,6.1-3.3s-.8,1.2-1.8,3.5a17.6,17.6,0,0,0-1,3.2c-1,3.5-1.5,5.2-2.1,7.6l-1.1,4.8a49.9,49.9,0,0,0-1.4,7c-.5,3.7-.6,7.6-.8,9.6,0,.3-.1.9-.1,1.8a5.1,5.1,0,0,0-.1,1,11.8,11.8,0,0,1-.4,1.9c-.3.5-.7.6-1.9,1.3l-2.2,1.4a21,21,0,0,0-3.2,2.5,20.6,20.6,0,0,0-4.5,6.5,31.9,31.9,0,0,0-1.3,3.7c-.7,2.6-.5,2.9-.4,3s1-.3,2.6-1.1a14.6,14.6,0,0,1,3.7-1.4,13,13,0,0,1,4.3-.4,9.1,9.1,0,0,1,4.5,1.1,8.3,8.3,0,0,1,2.8,3.2c1.7,3.1,2.1,6,2.7,10.1a36.2,36.2,0,0,1,.3,8.3,11.8,11.8,0,0,1-.7,3.5c-.5.9-1.4,2.1-4.5,4s-2.7,1.2-5.8,2.7-4.8,2.3-6.8,4a16,16,0,0,0-4.1,4.6,16.3,16.3,0,0,0-1.7,5,49.4,49.4,0,0,0-1.3,9.7,43.7,43.7,0,0,0-.1,5.6c.2,4.1.7,4.7.9,5s2.6,1.2,5.9,1.5a27.6,27.6,0,0,0,3.8.1,29.9,29.9,0,0,0,13.5-3,12.4,12.4,0,0,0,4.6-3.6,9.8,9.8,0,0,0,1.6-3.9,18.6,18.6,0,0,0,.3-4.6c0-2.1-.1-2.3-.1-4.8v-3.5c-.1-2.9-.2-4.3-.9-4.8s-.9-.6-5.8.9c-3.2,1-5.1,1.8-5.6,2a28.7,28.7,0,0,0-4.3,2.2c-1.9,1.2-3.2,2.1-3.9,3.7a14.2,14.2,0,0,0-.6,3.6,14.6,14.6,0,0,0-.2,3.2c.1,1.7.1,2.6.8,3.1s1,.6,4.1,0,5.6-1.2,6.3-2.5.3-.7.4-2.7,0-4-.1-5.2" transform="translate(-41.7 -25.9)" fill="none" stroke="#000" stroke-linecap="round" stroke-linejoin="round" stroke-width="1.42"/><path d="M723.4,697.6a82.8,82.8,0,0,1,6.1-6c3.2-2.8,5.1-4,7.2-4.4a11.8,11.8,0,0,1,2.9-.2,6.1,6.1,0,0,1,3.4.7c1.7,1.1,2,3.4,2.2,5.3s.5,4.4-.9,5.8-.8.3-3.9,1.4l-3.6,1.4a29.4,29.4,0,0,0-3.4,1.8,21.9,21.9,0,0,0-4.5,4,22.6,22.6,0,0,0-3.2,5.1,47.6,47.6,0,0,0-2.5,5.3" transform="translate(-41.7 -25.9)" fill="none" stroke="#000" stroke-linecap="round" stroke-linejoin="round" stroke-width="1.42"/><path d="M764.3,615.2c13.9-.2,34-.4,58.7-.3h20.6c24.3.1,30.7-.3,61.6-.3H951c18.4-.2,16.3-.3,17.9-.2,0,0,5.9.2,13.5-.3a42.1,42.1,0,0,0,6.1-1c2.4-.5,3.3-.8,4.1-1.4a9.1,9.1,0,0,0,2.8-4,26.3,26.3,0,0,0,1.7-9.6c0-16.5-.8-18.3-1.9-19.9a12.5,12.5,0,0,0-5.8-5.1,28.5,28.5,0,0,0-6.2-.9c-.8,0-3.4-.2-6.9,0a19.1,19.1,0,0,0-5.3,1c-2.4.9-3,1.8-3.1,2.1s-.4,1.4-.5,3.2v3.5c.1.6.1,1.7.2,2.7.3,4.5.4,6.7,1.6,7.6s1.5.5,3.5.7a18,18,0,0,0,3.1.1,10.1,10.1,0,0,0,1.8-.4,5.7,5.7,0,0,0,2.7-1.3,5.9,5.9,0,0,0,1.2-3.5,13.6,13.6,0,0,0-.1-1.6c0-1.4-.1-1.8-.3-2.1a3.3,3.3,0,0,0-.9-1.3c-1-.9-1.9-1-1.8-1.3s1.5-.6,2.9-.4a6.5,6.5,0,0,1,3.7,1.2c1.7,1.1,2.2,2.7,2.8,4.4s.8,3.4.9,6.5a16.1,16.1,0,0,1-.3,4.4,10.9,10.9,0,0,1-1.4,3.5,8,8,0,0,1-2.3,2.6c-1.4,1-2.7,1.1-7.1,1.3a41.4,41.4,0,0,0-5.4.4h-8.8c-1.8-.1-5.2-.1-9.5-.6a10.2,10.2,0,0,1-5.1-1.6,8.6,8.6,0,0,1-2.5-2.9c-1.2-2.1-1.3-4.1-1.4-6.4-.3-8-.2-13-.2-13,.1-2.6.1-4,.2-5.9s.2-5.5.6-8.5a24.6,24.6,0,0,1,.7-4.3c.9-2.3,2.6-3.7,4.8-5.6a16.2,16.2,0,0,1,4.4-3.1c2-.9,3.5-1,6.7-1.2l11.6-.6,8-.4c5.3-.2,8.4-.3,12.6-.3l8.1.3c3.3.2,4.9.3,6,.5a21.7,21.7,0,0,1,9.5,5.4,24.5,24.5,0,0,1,4.6,5.9c3.9,6.9,4.4,15.7,5.3,29.7,1,17.3,1.3,20.3,1.3,27.7a153.2,153.2,0,0,1-.8,15.6,126.9,126.9,0,0,1-3.3,17.6,44.4,44.4,0,0,1-2.6,7.3,48.8,48.8,0,0,1-2.8,5,44.4,44.4,0,0,1-3.4,3.9c-1.5,1.5-4.9,4.4-13.6,6.8a68.1,68.1,0,0,1-12.1,2.1c-14.9,1.2-25.4.2-42.2,0H935.1c-11.3,0-27.4.1-47.7.8" transform="translate(-41.7 -25.9)" fill="none" stroke="#000" stroke-linecap="round" stroke-linejoin="round" stroke-width="1.42"/><path d="M968.6,605.4a18.4,18.4,0,0,1-6-3,13.8,13.8,0,0,1-2.9-2.7c-.7-.9-2-2.8-2.9-7.9a63.8,63.8,0,0,1-.5-8.5c-.1-.7-.1-.4-.1-9.3a12.9,12.9,0,0,1,.7-6,9.4,9.4,0,0,1,2.1-3.6c2-2.2,4.8-2.6,10.3-3.2,2.3-.2,5.1-.3,10.7-.4h3.7a30.4,30.4,0,0,1,7.6.8,18.9,18.9,0,0,1,6.1,3.4c2.2,1.5,4.1,2.9,5.4,5.3.3.5.9,1.6,1.7,5.1a74.4,74.4,0,0,1,1.1,8.2c.6,8.9,1.1,9.8,1.3,18a21.6,21.6,0,0,1-1,8.9,20.6,20.6,0,0,1-2.2,4.4,21.2,21.2,0,0,1-5.4,5.6,19,19,0,0,1-4,2.4c-2.2,1-4.2,1.9-6.6,1.7s-1.3-.3-3.2-.4a20.1,20.1,0,0,0-3.5,0H959.6l-20.3.2-20.7.3-19.3.2H885.9s-10.4-.2-19,0l-3.3.3a23.1,23.1,0,0,0-3.5.8,7.6,7.6,0,0,0-2.4,2c-1.6,1.8-2.4,4.5-3,9.4-.1,1.2-.1.8-.8,10.6a50.9,50.9,0,0,0-.4,5.8c-.1,1.9-.1.7-.2,3.9s-.3,4.9.4,5.5,1.4.6,3.5.9l4.1.3h6.6l4.5-.2a16.3,16.3,0,0,0,3.8-.9,9.8,9.8,0,0,0,2.7-1.9,8.4,8.4,0,0,0,2.1-4.2c.8-2.4.8-4.5.9-7.8,0-.8,0-1.6-.1-3.3a12.1,12.1,0,0,0-.5-4,5.3,5.3,0,0,0-1.5-2c-1.1-.8-2.3-.9-4.1-.9s-3.5-.1-5.1.8a7.8,7.8,0,0,0-2,2.2,9.1,9.1,0,0,0-1.3,3.4,57.1,57.1,0,0,0-.8,9.4" transform="translate(-41.7 -25.9)" fill="none" stroke="#000" stroke-linecap="round" stroke-linejoin="round" stroke-width="1.42"/><path d="M864.8,555.3a37.8,37.8,0,0,0-3.1,2.5,10.4,10.4,0,0,0-3.9,7,30.2,30.2,0,0,0-.2,4.7c-.1,2.1,0,3.1,0,5.1,0,.2-.1,2.6-.1,5.3s-.1,5.3-.3,7.2a46.8,46.8,0,0,1-.8,6.6,29.4,29.4,0,0,1-1.7,6.4,24.8,24.8,0,0,1-5.1,7,48.9,48.9,0,0,1-4.7,3.9,33.8,33.8,0,0,1-7.9,4" transform="translate(-41.7 -25.9)" fill="none" stroke="#000" stroke-linecap="round" stroke-linejoin="round" stroke-width="1.42"/><path d="M834.2,615a19,19,0,0,1,4.3,3.2,15.1,15.1,0,0,1,3.9,5.5,14.6,14.6,0,0,1,1.2,4,28.9,28.9,0,0,1,.3,5.1c0,3-.1,5.3-.2,6.1-.3,4.7-.5,7-.8,9.8s-1.2,7.2-1.5,8.7h0a122,122,0,0,1-3.9,15.2,18.8,18.8,0,0,1-2.5,5.7,15.2,15.2,0,0,1-7.1,6.1,45.7,45.7,0,0,1-8.8,3.6,86.4,86.4,0,0,1-8.8,1.8c-3.6.6-7.5,1.3-12.9,1.8s-8.4.7-9.5.7c-6.6.3-5.3-.2-12,0a14.9,14.9,0,0,1-4.5-.3,13,13,0,0,1-5.4-2.3,14.9,14.9,0,0,1-4.1-5.4,21.3,21.3,0,0,1-1.5-5.4,35.1,35.1,0,0,1-.7-6.9c-.3-10.5-.7-12.9-.4-27a47.9,47.9,0,0,1,.9-9.4,24.2,24.2,0,0,1,2-6.9c.6-1.1,1.6-2.8,7.1-7.9,1.6-1.5,3.8-3.5,6.5-5.7" transform="translate(-41.7 -25.9)" fill="none" stroke="#000" stroke-linecap="round" stroke-linejoin="round" stroke-width="1.42"/><path d="M846.5,670.8l2.4-2.6,2-2,2.8-2.9" transform="translate(-41.7 -25.9)" fill="none" stroke="#000" stroke-linecap="round" stroke-linejoin="round" stroke-width="1.42"/><path d="M810.3,556.3a23.3,23.3,0,0,0-7.5,5.8,21.8,21.8,0,0,0-5.2,9.8,38.8,38.8,0,0,0-.9,5c-1.1,9.4-1.5,9.2-1.9,14.7-.1,1.8-.3,3.2-.7,5.9a17.1,17.1,0,0,1-.7,3.8,12.3,12.3,0,0,1-.9,2.6,23.8,23.8,0,0,1-1.6,2.5l-2.4,3.4a54.7,54.7,0,0,1-5,5.2" transform="translate(-41.7 -25.9)" fill="none" stroke="#000" stroke-linecap="round" stroke-linejoin="round" stroke-width="1.42"/><path d="M777.4,583.7a10.2,10.2,0,0,1-3.6,4.8,11.6,11.6,0,0,1-5.9,1.9c-2.5.2-4.5.4-5.9-.8s-1.3-7.1-.2-9.6a38.5,38.5,0,0,1,2.3-3.8,19.7,19.7,0,0,1,1.9-2.8c1.2-1.1,2.9-1.4,6.1-1.9a46.9,46.9,0,0,1,4.9-.5c3-.2,4.6-.3,5.9.3a7.3,7.3,0,0,1,3.4,3.3c.6,1.3.5,2.5.4,5.1a64.7,64.7,0,0,1-1.1,7.3,23.9,23.9,0,0,1-1.2,4.9,13.8,13.8,0,0,1-4.4,5,21.1,21.1,0,0,1-8.5,4c-1.6.4-4.3.5-9.6.7-3.8.1-5.5.1-7.5-.8a10,10,0,0,1-3.5-2.3,11.4,11.4,0,0,1-2.7-4,15.9,15.9,0,0,1-.9-4.9,36.2,36.2,0,0,1,.7-9c.4-2.4.9-4.3,1.3-5.9s.9-3.3,1.3-4.4a30.6,30.6,0,0,1,4.3-7.5l2.8-3.5a10.2,10.2,0,0,1,2.3-2.1c.5-.2.9-.3,3.7-.4h19.1c5.1,0,5-.2,11.9-.3,9.7-.2,9,.2,17.6,0,4.3-.2,8.6-.1,12.9-.3h5.2l3.7.2c4,.3,6.4.5,8.5,2.2a10.2,10.2,0,0,1,3.2,4.8,15.1,15.1,0,0,1,.6,4.5c.1,4.9-.1,7.8-.1,7.8-.8,8.1-1.2,12.2-2.8,17.7s-2.4,6.1-3.9,7.3-1.8,1.3-6.3,2.2c-2,.5-4.3.8-10.6.9s-8.9,0-11.8-.9a7.7,7.7,0,0,1-4.4-2.8c-.5-.8-.9-1.8-.9-4.5a42.6,42.6,0,0,1,.6-8.3c.7-3.9,1-5.9,1.5-7.9a34.1,34.1,0,0,1,3.3-8.5,7.5,7.5,0,0,1,2.2-2.6c.7-.5,1.5-.7,5.5-1s4.2-.2,6.4-.1a24.7,24.7,0,0,1,4.7.6c2.1.4,2.6.8,2.9,1.1s.9,1.4,1.1,3.9a50.7,50.7,0,0,1,.1,5.3c-.2,5.5-.2,6-.5,6.8a7,7,0,0,1-2.6,4.4c-1.3.9-2.7,1-5.3,1.1a15.8,15.8,0,0,1-3-.1,4.8,4.8,0,0,1-2.2-.6c-.2-.2-.6-.6-.9-2.2a16.3,16.3,0,0,1-.1-3.9c0-.9,0-2.1.1-3.4" transform="translate(-41.7 -25.9)" fill="none" stroke="#000" stroke-linecap="round" stroke-linejoin="round" stroke-width="1.42"/><path d="M1211,543.2c2.1,7.4,5,18,8.2,30.9,1,4.1,2.5,10.2,5.8,24.7s6,26.3,8.6,37.8c5.5,24.5,8.3,36.7,11.3,49.7,4,17,6.7,28,10.4,45.9,1.2,6.3,2.2,11.5,2.9,15,1.6-8,3.3-15.9,5-23.9-1.2-4.4-3-11.2-4.9-19.6-1.4-6.1-2.3-10.5-2.6-12.3-2.7-12.9-5.6-24.4-9.7-41-6-24.1-4.9-21-12.7-52.9-4-16.5-7.3-29.7-9.4-38Z" transform="translate(-41.7 -25.9)" fill="none" stroke="#000" stroke-linecap="round" stroke-linejoin="round" stroke-width="1.42"/><path d="M933.5,624.5c.1,7.1.2,14.4.1,21.9s-.2,14.7-.5,21.8" transform="translate(-41.7 -25.9)" fill="none" stroke="#000" stroke-linecap="round" stroke-linejoin="round" stroke-width="1.42"/><path d="M913.3,654.9h3.2a5.7,5.7,0,0,0,2.9-.4,5.4,5.4,0,0,0,1.3-1.1c.4-.5.7-1.1,1.1-3.2a19.8,19.8,0,0,0,.4-3.6c0-2.4,0-3.6-.8-4.4s-1.6-.8-3.4-1.1a18.7,18.7,0,0,0-2.9-.2l-2.3.3a10.2,10.2,0,0,0-4.2,2.1,13.3,13.3,0,0,0-1.6,1.7h0s-1,1.3-1.7,2.4a24.3,24.3,0,0,0-2.8,8,17.1,17.1,0,0,0-.1,2.6,6.2,6.2,0,0,0,.1,1.2,13,13,0,0,0,.9,3.5,10.4,10.4,0,0,0,4.8,5.5c.8.4,2.7.3,6.5.3h11.8c6.9-.1,6.7.1,8.8-.1,4.5-.3,6.8-.4,8.6-1.6s2.9-3.4,5.1-7.9a46.3,46.3,0,0,0,3-8.5c.3-1.6.8-2.7.6-4.3a10.5,10.5,0,0,0-1.7-4.3c-1.2-1.9-2.2-3.6-3.7-3.6s-2.3,1.2-3.3,2.5a10.6,10.6,0,0,0-1.9,3.7,18.6,18.6,0,0,0-.5,2.7c-.2,1.3-.2,2.2-.3,2.9a29.6,29.6,0,0,1-.9,5.3,35.4,35.4,0,0,1-1.8,5.3c-.7,1.5-1.3,2.5-1.4,2.8a27.9,27.9,0,0,1-4,5.1" transform="translate(-41.7 -25.9)" fill="none" stroke="#000" stroke-linecap="round" stroke-linejoin="round" stroke-width="1.42"/><path d="M963.3,624.1c.2,2.1.5,5,.7,8.5.8,9.9.6,13.5.5,14.6a68.1,68.1,0,0,1-1.1,8.8,29.9,29.9,0,0,1-3.2,8.6,22.3,22.3,0,0,1-2,3c-1.6,2-2.7,2.6-2.5,3.1s2.9.4,4.2.2a27.9,27.9,0,0,0,5-1.4,13.2,13.2,0,0,0,4.6-2.1,6.9,6.9,0,0,0,1.3-1.1c1.1-1.2,1.2-2.2,1.7-2.2s.3.3,1.3,1.4a5.9,5.9,0,0,0,.8.8,6.9,6.9,0,0,0,1.8,1.2,10.2,10.2,0,0,0,2.3.8,24.5,24.5,0,0,0,5.3.1h3.2a44.7,44.7,0,0,0,4.9-.6,38.7,38.7,0,0,0,8.7-2.3,27.5,27.5,0,0,0,9.7-6.4,24.2,24.2,0,0,0,4.6-7.4,36,36,0,0,0,2.8-10.4,71.2,71.2,0,0,0,.9-10.7c.3-8.1.2-15.1,0-19.7s-.2-4.7-.4-10.5c-.1-4.1-.1-4.8-.2-7-.2-3.8-.4-6.7-.8-10.5s-1.2-6.7-1.5-8.3a45.3,45.3,0,0,0-2-5.6c-1.5-3.3-2.5-4.1-3-4.4a9,9,0,0,0-3.5-1.3,7.9,7.9,0,0,0-2.6-.1" transform="translate(-41.7 -25.9)" fill="none" stroke="#000" stroke-linecap="round" stroke-linejoin="round" stroke-width="1.42"/><path d="M1007,602.6c0,7-.1,12.8-.2,17.3-.1.7-.2,2.9-.3,6.2s-.2,2.7-.2,4.4c-.2,3.2-.3,4.8-.4,5.6a29.5,29.5,0,0,1-2,6.7,22.1,22.1,0,0,1-3.3,5.7,12.1,12.1,0,0,1-9.3,4.8h-8a8.6,8.6,0,0,1-3.6-.8,2.5,2.5,0,0,1-1.2-.7,8,8,0,0,1-1.4-1.4,6.9,6.9,0,0,1-.8-3.9,9.4,9.4,0,0,1,1.2-5.2,9,9,0,0,1,2.6-2.6,19.5,19.5,0,0,1,2.7-1.3,13,13,0,0,1,3.4-.7,27.6,27.6,0,0,1,4.4-.2,17.1,17.1,0,0,0,5.2-.7,14.2,14.2,0,0,0,3.4-1.6,15.9,15.9,0,0,0,3.5-3.3,13.6,13.6,0,0,0,1.2-2,21.4,21.4,0,0,0,1.9-5.2,42.7,42.7,0,0,0,1.1-8" transform="translate(-41.7 -25.9)" fill="none" stroke="#000" stroke-linecap="round" stroke-linejoin="round" stroke-width="1.42"/><path d="M817.5,688.4c.4,7.3.4,13.1.4,17s-.3,8.5-.1,13.4c0,2.7.2,3.9.1,6.4a22.1,22.1,0,0,0-.1,3.9c.2,3.1.7,3.9.9,4.3a7.3,7.3,0,0,0,2.6,2,8.7,8.7,0,0,0,2.5.8,13,13,0,0,0,2.9.3H842l4.1-.2c3.1-.3,4.6-.4,5.9-1.3s2.7-3.3,3.4-5.3a27.1,27.1,0,0,0,1.1-6.8c.4-4.3.4-7.5.4-8.8s-.1-3.3-.3-6.4a28.2,28.2,0,0,0-.6-5.9c-.5-1.9-.7-2.9-1.4-3.8s-2.6-1.9-5.1-2.6a29.8,29.8,0,0,0-5.7-1h-5.5c-3.2.1-4.8.2-5.9.9s-1.5,1.8-2.3,3.4a21.4,21.4,0,0,0-1.4,6.4,22,22,0,0,0-.3,3.3,57.9,57.9,0,0,0-.3,7.5c.1,4.8.1,7.1,1.3,8.3s2.7,1.5,5.7,2a19,19,0,0,0,5.9-.1,7.1,7.1,0,0,0,3.8-1.2,6.2,6.2,0,0,0,1.9-2.8,9.7,9.7,0,0,0,.5-3.2c.1-1.7.1-3.3,0-6.4a13.3,13.3,0,0,1-.1-1.7,22.2,22.2,0,0,0-.2-3.3,4.2,4.2,0,0,0-1.5-2.5c-.6-.4-1.5-.4-3.3-.4a11,11,0,0,0-2.7.2c-1,.2-1.5.3-1.8.6s-.4.9-.4,2.8.1,2.7.1,2.7.3,2.7.4,4.7" transform="translate(-41.7 -25.9)" fill="none" stroke="#000" stroke-linecap="round" stroke-linejoin="round" stroke-width="1.42"/><path d="M817.9,725.2a2.8,2.8,0,0,0-.1,1v1.4a12.6,12.6,0,0,1-.4,3.1,20.5,20.5,0,0,1-.8,1.9l-.7,1.2a23.8,23.8,0,0,1-2.3,2.6,9.9,9.9,0,0,1-3.5,2.5,17.5,17.5,0,0,1-3.6.6h-3c-2.8,0-5.7.1-8.6,0h-8.1a55.4,55.4,0,0,1-7.9-.4c-3.9-.5-5.2-1.2-6.1-2a8,8,0,0,1-2.1-3.2,13,13,0,0,1-.8-5c-.1-1.4-.2-2.5-.2-3.2-.1-5.2-.1-7.6,0-11a29.9,29.9,0,0,1,.5-4.1,6.7,6.7,0,0,1,.6-2.3c.8-1.4,2.4-1.9,4.3-2.5s3.2-.7,3.6-.8l8.4-1a69.5,69.5,0,0,1,11.2-.5,7.7,7.7,0,0,1,4,1.4,6.1,6.1,0,0,1,1.8,2.2c.7,1.1.9,2.1,1.2,4.8a72.8,72.8,0,0,1,.4,8.2,21.2,21.2,0,0,1-.1,3.1c-.3,1.8-.6,3.4-1.6,4.5s-4.1,1.9-8.1,2.1c-1,.1-.5,0-4,0a38,38,0,0,1-4.4-.2c-2.1-.3-2.4-.5-2.6-.7s-.5-.6-.8-3.7a17.9,17.9,0,0,1-.2-2.4c-.1-2-.1-3,.4-3.8a3.9,3.9,0,0,1,1.8-1,11,11,0,0,1,4.8-.5,34.7,34.7,0,0,1,4.3.2" transform="translate(-41.7 -25.9)" fill="none" stroke="#000" stroke-linecap="round" stroke-linejoin="round" stroke-width="1.42"/><path d="M904.4,624.9a19.6,19.6,0,0,0-4.6,2.8,14.1,14.1,0,0,0-3.5,4,13.7,13.7,0,0,0-1.2,2.9,25.3,25.3,0,0,0-.7,4,31.2,31.2,0,0,0-.5,3.6c-.4,2.8-.5,5-.6,6.9,0,0-.2,4.7-.7,10.6s-.7,8.6-1,9.4c-3.4,8.7-18.2,11.7-24.5,11.7l-10.3-.3a34.7,34.7,0,0,1-4-.3,30.1,30.1,0,0,0-4.2-.3c-1.9.1-2.3.7-4.9,1.5a32.1,32.1,0,0,1-6.1,1.2,35.3,35.3,0,0,1-6.7.1" transform="translate(-41.7 -25.9)" fill="none" stroke="#000" stroke-linecap="round" stroke-linejoin="round" stroke-width="1.42"/><path d="M882,677.6a30.3,30.3,0,0,0-6.7,4.6,20.6,20.6,0,0,0-5.3,6.4,38.3,38.3,0,0,0-1.5,4.2,45.1,45.1,0,0,0-.8,4.7c-.4,4.9-.5,10.9-.6,12.2-.1,5-.6,13-.3,19.1a9.2,9.2,0,0,0,1.4,5,10.3,10.3,0,0,0,2.4,2.4c1.6,1.1,3.3,1.2,6.6,1.4l9.1.5H893c7.1-.1,7.9-.3,8.8-.6a15,15,0,0,0,6.1-4,14.5,14.5,0,0,0,3.1-5.9c.6-1.8.7-4,.9-8.4a49.6,49.6,0,0,0-.2-7.1,13.2,13.2,0,0,0-1.4-5.1,10.9,10.9,0,0,0-3.7-4.1,12.1,12.1,0,0,0-3.3-1.6,18.5,18.5,0,0,0-4.3-.3,36.7,36.7,0,0,0-5.5.4c-3.5.5-5.2.7-6.5,1.8s-2.4,4.8-2,7.1c.1.4.9,4,3.5,5a14.4,14.4,0,0,0,3.6.2l4-.2" transform="translate(-41.7 -25.9)" fill="none" stroke="#000" stroke-linecap="round" stroke-linejoin="round" stroke-width="1.42"/><path d="M888,702.6a17.5,17.5,0,0,1,7.3,1.2,10.4,10.4,0,0,1,4.2,2.5,11.2,11.2,0,0,1,2.7,4.7,15.8,15.8,0,0,1,.5,5.2c0,2.7,0,4.2-.7,6a7,7,0,0,1-2.5,3.5c-.4.3-1.2.7-4.7,1a38.1,38.1,0,0,1-5.7.1c-3.1-.1-4.7-.1-6.4-.8a9.6,9.6,0,0,1-4.2-2.5c-1-1-1.5-2.3-1.9-8.9a90,90,0,0,1,0-12.2,13.2,13.2,0,0,1,1.4-5.6,11.2,11.2,0,0,1,3.4-3.3,11.5,11.5,0,0,1,3.9-1.5,49.8,49.8,0,0,1,11.1-.8c3.4.1,6.7-.2,10-.2h38.9l22-.6,29.2-1c11.6-.6,17.4-1,24.2-1.9l10.7-1.6c6.9-1.1,16.2-2.5,21.7-4.4a51.8,51.8,0,0,0,8.4-4h0a24.9,24.9,0,0,0,3.2-2.4,7.8,7.8,0,0,0,1.3-1.3c1.1-1.2,1.3-1.9,1.6-1.9s.6,2.2.6,3.4a21.1,21.1,0,0,1-.4,5.9,19,19,0,0,1-1.1,3.2c-2.2,5.1-11.1,7.7-11.1,7.7-14.2,4.2-40,5.8-44.6,6.1-15.3,1-24.4,1.8-33.5,2.3l-7.2.4-5.8.2-6.5.2-7.7.2a65.6,65.6,0,0,0-7.9.4c-2.9.5-4.1.9-4.9,1.4a12,12,0,0,0-3.9,3.1,19.1,19.1,0,0,0-3.3,5.5,18.3,18.3,0,0,0-.8,9.2,12.3,12.3,0,0,0,2.2,5.9c1,1.4,2.7,3.8,5.5,3.9a6.5,6.5,0,0,0,5.6-3.3c.7-1.2.7-2.4.9-4.4a31.3,31.3,0,0,0-.1-4.1c0-2.8,0-4.2.4-5.2a11.7,11.7,0,0,1,2.5-3.1,22.3,22.3,0,0,1,2.5-1.7,19,19,0,0,0,4.5-4.3" transform="translate(-41.7 -25.9)" fill="none" stroke="#000" stroke-linecap="round" stroke-linejoin="round" stroke-width="1.42"/><path d="M931.9,690.9l-3.7,3.2a24.9,24.9,0,0,0-2.5,2.3c-.4.4-1.9,2.1-3,6.8a42.5,42.5,0,0,0-.9,6.5c-.1,2.4-.1,3.4,0,12.2.1,4.9.1,6.5,1.1,8.6a12.4,12.4,0,0,0,2.7,3.8,14,14,0,0,0,4.6,2.7,25.7,25.7,0,0,0,4.9,1.7,27.7,27.7,0,0,0,6.1.7c5,0,6.1-.5,12.2-.8,2.9-.1,5.5-.1,7.4,0s5.4.1,8.8,0l3.4-.2a16.5,16.5,0,0,0,3.9-.3,9.7,9.7,0,0,0,3.4-1.7l2-1.7,2.8-2.9c1.3-1.7,1.4-4,1.6-8.6a27.6,27.6,0,0,0-.2-5.8,17.7,17.7,0,0,0-1.3-3.9,9.1,9.1,0,0,0-2.4-2.8,12.1,12.1,0,0,0-4.4-1.1,69.4,69.4,0,0,0-8.4-.1,10.3,10.3,0,0,0-3.5.5,6.4,6.4,0,0,0-2.3,1,5.4,5.4,0,0,0-2.2,2.3,11.4,11.4,0,0,0-.4,3.4,22.4,22.4,0,0,0,.2,3.5c.3,2.1.4,3.2,1.2,3.9s1.3.8,2.7,1.2a27.4,27.4,0,0,0,6.4.3c3.2-.2,3.6-.6,3.8-.8s.7-1.4.6-4.3c-.1-1.4-.1-3.2-.3-5.3" transform="translate(-41.7 -25.9)" fill="none" stroke="#000" stroke-linecap="round" stroke-linejoin="round" stroke-width="1.42"/><path d="M953.9,701.2c-.5,3.6-.8,6.7-.9,8.9s-.2,5.9-.2,9.2.1,4.1.3,8.6c0,2.5.1,6.2.3,10.7" transform="translate(-41.7 -25.9)" fill="none" stroke="#000" stroke-linecap="round" stroke-linejoin="round" stroke-width="1.42"/><path d="M1021.9,687.1a44.7,44.7,0,0,0,7.5-9.1,46.3,46.3,0,0,0,5.5-12.3c1.8-5.5,2.3-9.9,3.2-17.3.3-2.2.7-6,1-11,.4-7.3.2-9.2.4-22.7.2-6.8.2-6.4.3-9.9a154,154,0,0,0-.7-17.6,124.5,124.5,0,0,0-1.9-12.6c-.2-.8-.5-3-1.3-7.3s-.7-4.6-.1-6.5a10.2,10.2,0,0,1,2.3-4.1,13.9,13.9,0,0,1,3.6-2.3,25.3,25.3,0,0,1,6.9-2.4c1-.2,7.2-1.5,7.7-.2s-1.8,1.5-3.8,4.3a17,17,0,0,0-2.7,6.2,33.7,33.7,0,0,0-1.3,9.2c0,1.3,0,1.8.3,7s.1,4.4.3,8.4c.3,6.4.5,9.6.8,13.9s.3,3.8.7,9.8c.1.6.3,3.2.5,6.6s.4,5.2.6,7a51.5,51.5,0,0,0,.9,5.9c.6,2,1.6,5.4,3.2,5.5s1.4-.8,4.2-4.3c1.1-1.3,2.2-2.5,3.2-3.8,4.6-6,13-11.6,14.2-12.4a60.7,60.7,0,0,1,10.9-5.8c1.3-.5,4.9-1.5,11.9-3.5a66.4,66.4,0,0,1,7.6-1.7,49.1,49.1,0,0,1,5.6-.6c4.2-.3,9.4-.2,13-.4l2.1-.2,2.7-.6a13.4,13.4,0,0,0,2.7-1.5c1.1-.8,1.6-1.1,1.9-1.9a7.2,7.2,0,0,0,.1-2.1v-2c-.1-2,0-4-.1-11.2,0-2.8,0-4.2-.1-5.4-.1-3.6-.2-3.4-.3-6.7a33,33,0,0,0-.2-3.9,19.5,19.5,0,0,1-.3-2.2,27.4,27.4,0,0,0-.7-3.2,10.7,10.7,0,0,0-1.1-1.9,7.6,7.6,0,0,0-2.4-2,15.3,15.3,0,0,0-7.4-2.6,24.4,24.4,0,0,0-3.5-.2h-6.3l-8.4.3c-4.7.1-5.3.1-6.3.7s-3,4.2-3.3,5.4-.4,2.8-.4,5.7a24.4,24.4,0,0,0,.1,2.8,10.2,10.2,0,0,0,.9,3.3,9.5,9.5,0,0,0,2.4,3.1,10.4,10.4,0,0,0,2.8,2.3c2.6,1.3,5.6,1.1,5.8.6s-.7-.5-1.9-1.9a6.1,6.1,0,0,1-1.1-1.4,5.9,5.9,0,0,1-.9-2.6,6.4,6.4,0,0,1,.6-4,5.8,5.8,0,0,1,1.4-2,6.7,6.7,0,0,1,3.2-1.7,12.9,12.9,0,0,1,4-.6h2.3c4,0,4.5.1,4.9.4s.9,1.3,1.4,2.9a21.9,21.9,0,0,1,.6,3.4c.3,1.6.4,1.6.6,3.1.6,3.6.3,3.5.9,6.7a27.9,27.9,0,0,1,.4,4.9,3.9,3.9,0,0,1-.3,1.6,4.3,4.3,0,0,1-1,1.6,5.4,5.4,0,0,1-1.6.9,9.8,9.8,0,0,1-3.3.6h-2.8l-3,.2s-2.6.1-5.6.5a141.2,141.2,0,0,0-17,3.5,101.8,101.8,0,0,0-18.5,7.5,26.3,26.3,0,0,0-5.4,3.8,13.9,13.9,0,0,0-2,2.1l-.5.8c-1,1.4-1.1,1.6-1.3,1.6s-.8-4.8-.9-5.6c-.1-4,0-6,0-9.4,0-5.7-.1-9.5-.1-9.5a45,45,0,0,1,.5-5.9,11.6,11.6,0,0,1,.7-2.6c.3-.6.8-1.3,3.6-3.4a38.1,38.1,0,0,0,3.3-2.5,15,15,0,0,0,2.5-2.7,9.7,9.7,0,0,0,1.3-4.9,6.8,6.8,0,0,0-.4-3.7,7.9,7.9,0,0,0-1.9-2.3c-2.7-2.4-4.7-2.8-4.5-3.4s.4-.6,5.7-1l4.2-.3c3,0,4.5,0,5.4.6s1.9,3.6,2.6,8.6c.1,1.4.2,2.6.4,5a36.4,36.4,0,0,1-.3,8.9c-.5,2.1-.9,2.9-1.6,3.4s-.7.3-3.3.6a15.4,15.4,0,0,0-3.6.5,9.1,9.1,0,0,0-2.5,1.4,20.4,20.4,0,0,0-3.8,3.4,8.5,8.5,0,0,0-1.8,3.1,8.9,8.9,0,0,0,.2,3.9,18.3,18.3,0,0,0,1.1,3.5,17.1,17.1,0,0,0,1.3,2.7" transform="translate(-41.7 -25.9)" fill="none" stroke="#000" stroke-linecap="round" stroke-linejoin="round" stroke-width="1.42"/><path d="M878.3,557.3a17.3,17.3,0,0,0-3.3,2.1,14.9,14.9,0,0,0-4.2,5.3,13.6,13.6,0,0,0-1.1,4.2,27.2,27.2,0,0,0,0,5c0,1.8,0,3.6.1,5.5.1,5.8,0,5.3.1,8.7s.4,7.1,1.6,9.4a7.5,7.5,0,0,0,1.9,2.5,8.2,8.2,0,0,0,2.7,1.7c1.9.8,3.5.8,6,.7l7-.2c2.8-.1,5.1-.1,7.9,0h12.8a9.2,9.2,0,0,0,4-.8c1.1-.6,1.7-1.6,2.8-3.7a27.8,27.8,0,0,0,2-5.1,40.3,40.3,0,0,0,1.3-6.4,36.2,36.2,0,0,0-.3-9.4,9.9,9.9,0,0,0-1.2-4,8.6,8.6,0,0,0-2.4-3.1c-1.3-.9-3.1-1-6.6-1s-1.1.1-7.3.4a9.9,9.9,0,0,0-3.2.6,8.6,8.6,0,0,0-3,2c-1.5,1.7-2.7,4.7-1.6,7.4a6.5,6.5,0,0,0,3,3.3c.4.3.3.2,3.6,1.6s2.7,1.1,3.4,2a5.4,5.4,0,0,1,.9,1.6c.4,1,.7,1.7.4,2.2s-.4.4-2.3.6H901c-3.6,0-3.5.2-6.3,0a36.3,36.3,0,0,1-5.4-.4c-3.2-.7-5.6-1.1-7-3s-.8-2.7-1.1-6-.1-3.5-.1-4.8c.2-4.4.2-7,1.5-10.1a10.7,10.7,0,0,1,2.8-4.7c.7-.8,2.1-1.8,5-2.8s4.3-1,12.5-1.2h7.7a84.8,84.8,0,0,1,9,0c2.8.1,3.7.2,4.7.6a8.5,8.5,0,0,1,4.8,3.9,9.3,9.3,0,0,1,.9,3.3,17.7,17.7,0,0,1,.4,3.5l.3,6.4c0,.5,0-1.1.3,10.3.2,5.9.3,7.2,0,9.3-.3,3.8-1,5.7-1.9,7.2a12.3,12.3,0,0,1-2.8,3.5,31.4,31.4,0,0,1-6.4,5.1,49.9,49.9,0,0,1-8.3,4" transform="translate(-41.7 -25.9)" fill="none" stroke="#000" stroke-linecap="round" stroke-linejoin="round" stroke-width="1.42"/><path d="M1011.6,698c-.7.7-1.7,1.7-3.1,2.9l-3.2,2.6a14.9,14.9,0,0,0-3.1,3.2,13.8,13.8,0,0,0-1.5,3,21.6,21.6,0,0,0-1,5.4c-.3,3.2-.5,5.7-.5,6.6a60.9,60.9,0,0,0-.2,6.8c.3,2.5.6,4.4,2.1,5.8s2.4,1.4,4.2,1.8a25,25,0,0,0,5.9.4h8.6c6.2-.2,6.5,0,10.2-.2,6.5-.3,7.7-.9,8.6-1.4a16.1,16.1,0,0,0,5-5,17.1,17.1,0,0,0,1.4-3,19.3,19.3,0,0,0,.5-4.9c0-.9,0-1.9-.1-3s-.2-2.4-.6-2.9-1.2-.5-4-.4h-5.4c-1.9.2-2.7.4-3.3,1a3.5,3.5,0,0,0-.6,1.7,8.4,8.4,0,0,0,.2,2.7,3.5,3.5,0,0,0,.3,1.4c.3,1.2.5,2,1.1,2.3s2.9-.5,3.7-1.1a5.3,5.3,0,0,0,1.9-2.8" transform="translate(-41.7 -25.9)" fill="none" stroke="#000" stroke-linecap="round" stroke-linejoin="round" stroke-width="1.42"/><path d="M1054.3,737c0-2.8-.1-5-.2-6.6s-.3-3.5-.3-6,.4-3.8.8-4.6a9.1,9.1,0,0,1,2.4-3.1c1.3-1,2.6-1.3,4.8-1.8l2.8-.5c2.2-.4,2.8-.3,3.4-.8s.5-.7.8-2.9a27.4,27.4,0,0,0,.3-3.5c0-.4.2-3,.5-8.4s.4-5.6,0-5.7-.9,1.6-2.7,3.9a22.1,22.1,0,0,1-4.3,4.1,18.8,18.8,0,0,1-5.1,3.2,27.7,27.7,0,0,1-4.8,1.5c-1.4.3-3.4.8-6.2,1.2a91.8,91.8,0,0,1-10,.9l-6.5.3c-1.4.1-4.7,0-8.5.2a9,9,0,0,0-2.6.3,10.5,10.5,0,0,0-4.2,1.6,14.1,14.1,0,0,0-3.9,3.5,11.7,11.7,0,0,0-1.7,3.4,10.1,10.1,0,0,0-.5,2.5c-.1,1-.2,1.5-.2,2.2a7,7,0,0,0,.5,3.2,4.4,4.4,0,0,0,3.6,2.4,5.1,5.1,0,0,0,3.1-1.5,10.8,10.8,0,0,0,2.6-4.6c.5-1.6.2-1.8.8-3.9a17.3,17.3,0,0,1,1.5-4,13.8,13.8,0,0,1,4.5-5.2" transform="translate(-41.7 -25.9)" fill="none" stroke="#000" stroke-linecap="round" stroke-linejoin="round" stroke-width="1.42"/><path d="M1025,708.3c-.3,4.6-.5,9.4-.6,14.3s-.1,9.3,0,13.7" transform="translate(-41.7 -25.9)" fill="none" stroke="#000" stroke-linecap="round" stroke-linejoin="round" stroke-width="1.42"/><path d="M1224.9,598.2a23.5,23.5,0,0,1-3.2,5.9,17.2,17.2,0,0,1-4.1,3.9,15.5,15.5,0,0,1-5.3,2.1l-3.1.4c-3.4.3-6,.3-6.3.3-3.2,0-6.4.2-9.5.3-11.3.2-14.4.5-27.7.8-10.5.2-13.2.1-20.1.5l-7.8.4c-7.1.3-8.1.1-13.6.4s-9.6.7-12.1.9-6.2.7-10.3,1.4a63.5,63.5,0,0,0-7.5,1.6,34.6,34.6,0,0,0-10.8,4.8,45.8,45.8,0,0,0-4.8,4,29,29,0,0,0-3.5,3.8,18.8,18.8,0,0,0-3.3,7.8c-.7,2.9-.7,6.3-.8,13.1v15.9c0,9.3.8,18.1,1.2,22.1s.7,7.4,1.5,13.5c.3,2,.6,3.8,1,7.1.8,6,.5,5.6.9,7.7a34.3,34.3,0,0,0,3.9,11.3,20.3,20.3,0,0,0,4.1,5.1,12.7,12.7,0,0,0,4.1,2.8c1.5.7,2.9.9,6.9,1s7.1,0,7.1,0l12.9-.6,11-.7,7.7-.8a43.7,43.7,0,0,0,9.1-1.7,8.6,8.6,0,0,0,6.9-6.9c.4-1.4,1.1-4.1.7-12.3a91.7,91.7,0,0,0-.9-10.2c-.6-4.1-1.2-6.5-1.4-7.6-1.3-4.9-2-7.4-4.2-8.9s-2.5-1.1-4.8-1.6-2-.2-8.1,0a44.5,44.5,0,0,0-5.5.2,13.3,13.3,0,0,0-4.8,1.1,5.7,5.7,0,0,0-3.1,2.4,6.1,6.1,0,0,0-.9,2.8,8.6,8.6,0,0,0,0,3.6c.2,1.9.3,3.5,1.4,5.1a26.5,26.5,0,0,0,2.6,2.4c1.6,1.3,2.9,2.2,3.9,2.9" transform="translate(-41.7 -25.9)" fill="none" stroke="#000" stroke-linecap="round" stroke-linejoin="round" stroke-width="1.42"/><path d="M1038,649.1l4.4-1.3,3.4-1.2,4.2-1.5a17.3,17.3,0,0,1,4.3-.3c2.1.2,3.3.2,4.4,1.1s1.3,2,1.8,4,.4,2.9.4,6.9v4.6c-.2,3.1-.5,6.7-2.8,8.2-.7.5-2,.5-4.6.7a21.7,21.7,0,0,1-4.6-.4,2.7,2.7,0,0,1-1.6-.6c-.3-.2-.8-.8-1-3.2a35.4,35.4,0,0,1,.1-4.3,24.4,24.4,0,0,1,.1-2.6,5.2,5.2,0,0,1,.5-2.5c.5-.8,1.4-1,2.9-1.4a19,19,0,0,1,4-.4" transform="translate(-41.7 -25.9)" fill="none" stroke="#000" stroke-linecap="round" stroke-linejoin="round" stroke-width="1.42"/><path d="M1239.2,676.4c-9.4.6-17.1.7-22.5.7s-10.9-.2-21.1-.6l-20-.8c-1.9-.1-16-.6-31.7-.8a137.9,137.9,0,0,0-16.8,1l-6.7,1.2a26.9,26.9,0,0,0-5.7,1.7,14.1,14.1,0,0,0-6.4,7.2c-1.3,2.9-1.2,5.2-1.1,9a33.6,33.6,0,0,0,2.9,12.4,25.4,25.4,0,0,0,2.1,3.6c1.5,2.1,2.2,3.2,3.3,3.9s1.9.7,6.9.4c7.1-.5,7.8-1,8.3-1.6s1-2.8,1.1-5.5a25.3,25.3,0,0,0-.3-3.5,15.2,15.2,0,0,0-1.3-4.1,14.2,14.2,0,0,0-2.7-5.1,10.8,10.8,0,0,0-4-2.7" transform="translate(-41.7 -25.9)" fill="none" stroke="#000" stroke-linecap="round" stroke-linejoin="round" stroke-width="1.42"/><path d="M1149.2,612.2l-3.5,3.2c-2,1.7-3.1,2.4-6,4.8s-4,3.5-4.5,4.6a12.8,12.8,0,0,0-.3,4,70.3,70.3,0,0,0,.2,7.6c.2,2.1.3,3.7.4,4.5.5,5.2.7,7.8,1.2,12.1.2,2.7.6,6.1,1.1,10" transform="translate(-41.7 -25.9)" fill="none" stroke="#000" stroke-linecap="round" stroke-linejoin="round" stroke-width="1.42"/><path d="M1189.2,611.2a57.2,57.2,0,0,0-5,2.9,67,67,0,0,0-6.8,4.7c-1.9,1.4-2.8,2.3-3.3,3.6a8.2,8.2,0,0,0-.5,2.8,23.8,23.8,0,0,0-.4,3.2,73,73,0,0,0,.3,9.2c.7,6.8,1,10.2,1.2,12.3,1.2,11.9.9,7.5,1.2,10.9,0,.1.1,1,.4,2.7s.3,3,.7,3.8a22.1,22.1,0,0,0,1.1,2.1l1.8,2.4c.9,1,2.1,2.5,3.8,4.2" transform="translate(-41.7 -25.9)" fill="none" stroke="#000" stroke-linecap="round" stroke-linejoin="round" stroke-width="1.42"/><path d="M1153.6,646.2c-.5-2-.8-3.5-1.1-4.8a15.7,15.7,0,0,1-.4-2.3c-.2-1.1-.4-1.6-.1-1.9s.7-.4,1.7-.6h1.6c2.1-.1,3.2-.1,3.4.1s.7.8,1,3.8a35.8,35.8,0,0,1,.3,4.2s.2,2,.2,5.7c0,1.7,0,2.2-.4,2.6s-1.1.7-3.9.9a48.4,48.4,0,0,1-7.1,0,3.4,3.4,0,0,1-2.3-.5c-.4-.3-.6-.8-1.1-3.6a32.6,32.6,0,0,1-.5-3.3c-.1-1-.2-1.8-.3-2.6s-.3-3.6-.4-5.3c0,0-.2-2.5-.4-6.9a6.4,6.4,0,0,1,.3-2.8,6.9,6.9,0,0,1,2.2-2.9,9,9,0,0,1,2.3-1.5c1.2-.6,2.9-.7,6.2-.8h3.3a7.7,7.7,0,0,1,3.1.6,5.3,5.3,0,0,1,2.1,3.2,78,78,0,0,1,3.4,18.4,30.3,30.3,0,0,1,.2,3.1,38.3,38.3,0,0,1-.8,8.1c-.5,3.7-1,4.3-1.5,4.7s-1.7.8-4,.9l-8.2.3h-7l-8.2.2-10.8.5s-6.2.4-10,.3h-1.9a16.2,16.2,0,0,1-3-.2,3.7,3.7,0,0,1-2-.8,3.7,3.7,0,0,1-1.4-1.5,7.2,7.2,0,0,1-.8-2.7c-.3-1.5-.5-2.7-.5-2.8-.4-2.7-.6-3-1-5.9a92.9,92.9,0,0,1-1-11.6c-.1-.9,0-1.6,0-6.2v-2.9" transform="translate(-41.7 -25.9)" fill="none" stroke="#000" stroke-linecap="round" stroke-linejoin="round" stroke-width="1.42"/><path d="M1120.9,637.6a15.9,15.9,0,0,0-5,.9c-1.9.8-2.4,1.4-2.5,1.6s-.5,1.5-.6,3.1.1,2.8.1,3c.3,3,.4,4.5,1.5,5.4a6.9,6.9,0,0,0,2.4,1,22.1,22.1,0,0,0,3.5.4l3.5-.2c1.7-.2,2.1-.5,2.2-.6a3.5,3.5,0,0,0,1.2-2.8,45.8,45.8,0,0,0-.3-8.9,24.5,24.5,0,0,0-.3-3.7,29.9,29.9,0,0,0-.9-5.2c-.8-2.9-1.3-4.6-2.8-5.5a8.1,8.1,0,0,0-3.5-.4,26.5,26.5,0,0,0-5.3.8c-9.3,2.7-8.7,2.4-9.3,2.7a23,23,0,0,0-9.7,7.1,26.5,26.5,0,0,0-4,8.2,24.2,24.2,0,0,0-1.1,9.5c.4,4,1.7,5,2.2,5.4a5.1,5.1,0,0,0,2.7.6,4.2,4.2,0,0,0,2.6-1c1-.9,1.1-2,1.3-4a25.1,25.1,0,0,0-.2-5.9,30.2,30.2,0,0,0-.6-3.7,61.5,61.5,0,0,0-2.6-9.5" transform="translate(-41.7 -25.9)" fill="none" stroke="#000" stroke-linecap="round" stroke-linejoin="round" stroke-width="1.42"/><path d="M1107.5,659.6a6.3,6.3,0,0,1,.2,1.6,5.1,5.1,0,0,1-.5,2,4,4,0,0,1-1.3,1.5,15.6,15.6,0,0,1-3.1,2.1,25.7,25.7,0,0,1-5.4,1.5,29.1,29.1,0,0,1-8,.5c-3.1-.2-4.7-.2-6-1.3s-1.6-1.4-2.6-6a38.1,38.1,0,0,1-.9-9.8,52.1,52.1,0,0,1,1.5-10.5,12.4,12.4,0,0,1,1.6-3.8,8.8,8.8,0,0,1,2.9-2.9" transform="translate(-41.7 -25.9)" fill="none" stroke="#000" stroke-linecap="round" stroke-linejoin="round" stroke-width="1.42"/><path d="M1092.7,668.9c-.3.6-.8,1.7-1.5,2.9s-1.4,1.7-2.6,3.5a18.4,18.4,0,0,0-2.2,4.1,22.9,22.9,0,0,0-.6,3.2c-.1,1-.1,2-.1,5.1a41.5,41.5,0,0,0,.2,5.9,34.1,34.1,0,0,0,.7,4c.4,2,.7,2.9,1,4.1s.8,4.3,1.4,8.9.6,4.4,1.1,5.8a24.7,24.7,0,0,0,2,4.5,19.3,19.3,0,0,0,2.4,3.3,15,15,0,0,0,3.3,2.5" transform="translate(-41.7 -25.9)" fill="none" stroke="#000" stroke-linecap="round" stroke-linejoin="round" stroke-width="1.42"/><path d="M1104.4,665.9c-2.4,3.9-4.2,7.3-5.5,9.9s-1,2.2-1.3,3c-1.1,3.3-.9,6.1-.1,11.6s1.3,7.6,1.6,9.4c1.7,8.9,2.5,11.3,3.4,13.4a22.4,22.4,0,0,0,3.7,6.1,12.5,12.5,0,0,0,5.5,4c.6.2,1.2.3,5.8.2l7.3-.4a34.1,34.1,0,0,0,7.7-1.4c3.7-1.1,6-1.8,7.5-4s1.1-4,1-8.8a40.3,40.3,0,0,0-1.2-9.4c-.7-2.7-1-4.2-2.2-6a34.5,34.5,0,0,0-3.7-4.1l-3.2-3.6" transform="translate(-41.7 -25.9)" fill="none" stroke="#000" stroke-linecap="round" stroke-linejoin="round" stroke-width="1.42"/><path d="M1160.3,675.2l-3.3,5.2a11.7,11.7,0,0,0-1.6,2.8,13.5,13.5,0,0,0-.4,4.1c.5,5.1,1.1,8.4,1.1,8.4.4,2.2.8,4.9,1.7,10.3s.6,4.2,1.1,7.2.7,3.9,1,5.8.4,2.7.6,4.3a25.8,25.8,0,0,1,.2,3.2,51.6,51.6,0,0,1-.1,5.2,32.2,32.2,0,0,1-.4,5.7,12.7,12.7,0,0,1-1.2,3.6c-.4.7-.9,1.3-3.5,3.7l-3.2,2.9" transform="translate(-41.7 -25.9)" fill="none" stroke="#000" stroke-linecap="round" stroke-linejoin="round" stroke-width="1.42"/><path d="M1199.5,579.4a35.5,35.5,0,0,1-1.6-5.4c-.1-.7-.2-1.4-.4-2.4s-.2-1.9-.4-3.6a6.6,6.6,0,0,1,.1-2.6c.3-.4,1-.7,2.5-1.1a14.8,14.8,0,0,1,2.9-.8l2.4-.2c1.5.1,2.6.1,3.5.7s.9.8,1.7,3a43.4,43.4,0,0,1,1.6,4.7c.4,1.8.3,2,1.1,5.6.3,1.4.4,2.1.7,3.1s.7,2.5,1.4,5.2a27.6,27.6,0,0,1,1,4,11.1,11.1,0,0,1,.1,4.8,5.9,5.9,0,0,1-1.5,3.2,6.7,6.7,0,0,1-3.4,1.8,7.8,7.8,0,0,1-2.5.4c-8.1.4-12.1.4-12.1.4-1.9-.1-5.3-.1-9.6,0l-9.6.4-8.3.4c-3.7.1-7.9.3-13.1.1s-7.2-.5-8.2-1.8-1.2-3-1.6-5.4a23.6,23.6,0,0,1-.2-4c-.2-3.3-.4-5.8-.8-9s-.2-2.2-.7-6.3c-.2-2.2-.3-3.4-.4-4.3-.2-3.7-.4-5.6.2-7.2a9.2,9.2,0,0,1,5.8-5.6l3.1-.4h6.7c3.8-.2,4.7-.7,6.5-.2a3.6,3.6,0,0,1,1.8.8c.3.2,1.2.9,1.8,3.2a14.7,14.7,0,0,1,.5,3.3c.1,2.4.2.9.8,7.3,0,0,.1,1.3.3,4.9s.1,3.5-.5,4.1-.6.4-3,.5-4,0-4.8-.6-1.1-1.7-1.4-3.3-1-5.5-1.4-8.2" transform="translate(-41.7 -25.9)" fill="none" stroke="#000" stroke-linecap="round" stroke-linejoin="round" stroke-width="1.42"/><path d="M1185.1,701.3l-4,1c-2.5.7-3.2,1-3.6,1.7s-.2,1.2.1,2.5c.4,2.8.7,4.2.7,4.4,1,4.1.7,4,1.4,6.5s1.5,4.2,2.1,4.6a7.1,7.1,0,0,0,3.2,1.2,12.6,12.6,0,0,0,3.4.3c2-.1,3.8-.1,4.8-1.3s.8-1.1.6-4.8a35.8,35.8,0,0,0-.5-5.2c-.3-2.5-.7-4.5-1.3-7.8a53.2,53.2,0,0,0-1.9-7.5c-1.3-3.7-2.5-5-3.1-5.6a9.3,9.3,0,0,0-3.9-2.5,17,17,0,0,0-2.8-.3,37.9,37.9,0,0,0-4,.1,26.3,26.3,0,0,0-5.4,1.2c-2.6.9-4.1,1.5-5,2.9a6.2,6.2,0,0,0-.7,3.3,77.8,77.8,0,0,0,1.1,12.7c.5,2.3,1,5.1,1.9,8.7s.8,2.7,2.3,8.2a12.7,12.7,0,0,0,1.6,4.3,19.3,19.3,0,0,0,2.5,3.1,14.7,14.7,0,0,0,5.7,3.6c1.2.4,1.9.4,5,.3l8.8-.4c5.2-.3,4.8,0,9.2-.3l7.7-.6,6-.4,7.3-.8c3.5-.6,5.4-.9,6.6-2.2a8.4,8.4,0,0,0,1.6-5c.2-1.4-.1-1.9-.4-5.3s-.2-2.9-.4-4.8-.4-3.2-1.3-8.1c-1.3-6.6-1.9-9.4-3.1-12.9s-1.5-3.7-2.7-4.6-3.9-1.4-6.3-1.4a23.3,23.3,0,0,0-6.1.8c-2.7.6-4.1.9-4.8,1.7s-1.1,3-1.1,5.3.4,2.5.9,5.9.4,2.4.7,4.5a74.8,74.8,0,0,0,2.5,10.5c1.2,3.6,2,4.6,3,5.3a6.2,6.2,0,0,0,3.7.9c1.2.1,5.6.3,7.8-2.6a6.7,6.7,0,0,0,1.1-2.3c.2-.7.4-1.9-.7-6.4a53.3,53.3,0,0,0-1.7-5.6,27,27,0,0,0-1.8-4,3.7,3.7,0,0,0-1.3-1.8,4.4,4.4,0,0,0-2.7-.5c-1.2,0-1.8,0-2.2.4s-.5,1.2-.4,2.3a36.2,36.2,0,0,0,.9,6.5c.3.9.6,2.1,1.1,3.4" transform="translate(-41.7 -25.9)" fill="none" stroke="#000" stroke-linecap="round" stroke-linejoin="round" stroke-width="1.42"/><path d="M1210.4,677c-1.3,1.1-2.6,2-3.6,2.7a25.2,25.2,0,0,0-4,3,11.9,11.9,0,0,0-2.6,3.6,10.6,10.6,0,0,0-.9,3.5c-.3,2.9.1,5.5,1.3,11.4.5,2.5,1,4.7,1.5,7.2l1.3,5.6c1,4.8,1.2,5.6,1.3,6.3a35.1,35.1,0,0,1,.3,5.9,21.2,21.2,0,0,1-.6,4.9,28.2,28.2,0,0,1-1.6,5.1" transform="translate(-41.7 -25.9)" fill="none" stroke="#000" stroke-linecap="round" stroke-linejoin="round" stroke-width="1.42"/><path d="M1174.3,557h2.6c1.5.3,2.3.4,2.9,1s.3.5.6,2.3.4,2.6.4,2.6l.4,4.8c.1,1,.2,2.7.5,5.9.4,5.1.5,4.9.5,5.9,0,3.4,0,5.1-1.1,6.7s-4.7,3-6.9,3.4l-6.8.6-2.4.2h-3.6a11.6,11.6,0,0,1-3.3-.2,5.8,5.8,0,0,1-2.8-2.5,7.6,7.6,0,0,1-1-4.2c0-3.1-.5-6.2-.6-9.3-.3-5.6-.5-5.6-.6-9.8s0-5.7.1-7.4" transform="translate(-41.7 -25.9)" fill="none" stroke="#000" stroke-linecap="round" stroke-linejoin="round" stroke-width="1.42"/><path d="M1204.8,572.7c.2,2.3.4,4.1.5,5.4s.3,2.6.4,4,.1,2.8.1,4.2c0,3.3-.1,3.7-.3,4s-2.2,1.3-4.3,1.6a11.4,11.4,0,0,1-3.9,0,7.3,7.3,0,0,1-3.4-1.2,7.7,7.7,0,0,1-2.6-3.5,14.9,14.9,0,0,1-.8-3.6c-.4-2.8-.5-4.9-.7-7.4s-.2-2.6-.5-5.9l-.4-5.8c-.3-5.6-.4-6.7.5-7.5s1.6-.9,3.8-1.4a29.1,29.1,0,0,1,5.6-.6c2.9-.1,5.1,0,5.8,0h9.7" transform="translate(-41.7 -25.9)" fill="none" stroke="#000" stroke-linecap="round" stroke-linejoin="round" stroke-width="1.42"/><path d="M1222.7,1319a224.2,224.2,0,0,1,30.1-9.9c3.3-.8,9.9-2.2,15.7-3.2l7.9-1.4a37.4,37.4,0,0,1,5.4-.8c4.1-.6,6.2-.9,9-.7a29.8,29.8,0,0,1,5,.9c2.9.9,6,1.8,7.9,4.2s1.6,4.7,2.1,10.8c.2,2.2.4,3.9.5,6.3a125.4,125.4,0,0,1-.6,13c-.5,5-1,8.5-1.3,10.9a55.7,55.7,0,0,1-1.5,8.2,24.9,24.9,0,0,1-2.9,7.5,21.2,21.2,0,0,1-5.7,6.1,32.5,32.5,0,0,1-8.8,4.8" transform="translate(-41.7 -25.9)" fill="none" stroke="#000" stroke-linecap="round" stroke-linejoin="round" stroke-width="1.42"/><path d="M1288.8,1288.4a30.4,30.4,0,0,0-7.5-3.2,41.3,41.3,0,0,0-8.4-1.3c-6.8-.5-12.2-.5-14.4-.5l-14.6.3c-7.4.3-15.5.7-25.7,1.8-3.4.3-14.4,1.6-28.7,4.5s-25.9,6.4-46.1,12.7c-4.3,1.4-8.1,2.7-12.9,4.6s-10.5,4.6-17.3,7.9l-12.4,6.3c-12.5,6.5-18.7,9.7-24,12.6-12,6.7-21.3,12.6-26.2,15.8-7.3,4.7-12.6,8.4-20,13.6s-11.9,8.5-18.6,13.5c-9.8,7.5-16.5,13.2-28.3,23.2-2.5,2.1-6.1,5.2-10.6,9.4s-7.2,7-8.2,8.1c-4.4,4.5-4.1,4.5-6.1,6.4a29.3,29.3,0,0,0-3.2,3.6,12.3,12.3,0,0,1-.8,1.2l-.4.6c-.2.3-.3.4-.3.7v.8c.1.4.2,1,.2,1s.1,1.2.3,2.2.4,2.6.8,4.4.9,4.8,1.5,8.7c1,5.6,1.6,8.6,2.4,13,1.5,8.2,2.2,13.6,3.3,20.8.7,4.8,2.2,13.7,5.1,31.3,4.3,25.8,4.9,28.1,8,47.5,2,11.6,1.9,11.8,3.7,22.5,0,0,2.7,16.5,6,35.6,12.5,71.8,18.7,107.7,25.4,137.7,0,0,7.4,31.2,11,54.9.1.4.2,1.5.5,3.2s.9,4,1.1,6a32.7,32.7,0,0,1,.3,3.9c.1,4.4.2,6.5.2,8.6-.1,4.6.2,12.7.8,26.2.6,17.6,1.6,33.2,2.1,42.3-1.8,1.4-3.6,3-5.4,4.6l-2.6,2.4c.2,13,.3,26.2.3,39.5v18.2c4.4,4.5,9,9,13.9,13.5,3.3,3.1,6.5,6,9.7,8.8a31.1,31.1,0,0,0,4,1.8,23.2,23.2,0,0,0,5,1.3c32.1.9,65.1,1.2,99,.7,13.3-.2,26.4-.5,39.4-.9a18.9,18.9,0,0,0,4.3-1.8c1.4-.8,1.9-1.4,5.1-4.1s3.9-3.3,5-4.3c2.8-2.3,3.1-2.8,4.6-4.1a64.1,64.1,0,0,1,7.5-5.5c-.3-4.9-.5-8.8-.6-11.1-1.3-20.8-3.1-39.5-3.5-46.1-.1-1.1-.2-3.1-.4-5.3s-.2-2-.3-3.2a8.6,8.6,0,0,0-.1-1.5,5.1,5.1,0,0,1-.1-.9c-.1-.5-.4-.9-1.4-1.8l-1.6-1.4c-1.5-1-1.9-.8-2.5-1.6s-.3-.5-.6-2.2-.5-2.3-.5-2.6c-.5-2.9-.1.1-1.3-7.4-.8-5.9-1.7-11.7-1.9-13.3-1-7.5-1.2-8.4-1.6-11.2-1.3-9.9-2.5-18.4-3.3-27.5-1.1-12.5-1.3-22.4-1.6-38.6-.1-4.9-.1-8.9-.2-11.6" transform="translate(-41.7 -25.9)" fill="none" stroke="#000" stroke-linecap="round" stroke-linejoin="round" stroke-width="1.42"/><path d="M1044.7,1901.9c11.7-.1,29.2-.4,50.5-.9l41.2-1.2c16.7-.4,40.5-1.1,69.9-1.6" transform="translate(-41.7 -25.9)" fill="none" stroke="#000" stroke-linecap="round" stroke-linejoin="round" stroke-width="1.42"/><path d="M979.6,1418.6c26.6,191.4,37.5,273.7,41.6,308.3.6,4.8,4,32.8,8.8,71,3,24.1,5.6,44,7.4,57.6.4,3.5.1,2.3,1.2,17.5,1.8,26,3,41.2,4,54.8s2.5,35.5,4.1,61.8" transform="translate(-41.7 -25.9)" fill="none" stroke="#000" stroke-linecap="round" stroke-linejoin="round" stroke-width="1.42"/><path d="M1036.2,1846.3l72.2-.6,89.7-.7" transform="translate(-41.7 -25.9)" fill="none" stroke="#000" stroke-linecap="round" stroke-linejoin="round" stroke-width="1.42"/><path d="M1199.2,1853.4l-42.3.6-52.1.4c-19.4.1-42.1.2-67.6.1" transform="translate(-41.7 -25.9)" fill="none" stroke="#000" stroke-linecap="round" stroke-linejoin="round" stroke-width="1.42"/><path d="M1027.7,1779.6h62l27.8-.6c26.1-.6,39.3-.9,46.4-.8,2.1.1,7.1.2,12.9,0l6.6-.2h5.8s1.7,0,4.4.3a7.1,7.1,0,0,1,1.9.5,3,3,0,0,1,1.3.7,2.3,2.3,0,0,1,.5,1.7,3.5,3.5,0,0,1-2.2,2.7,7.1,7.1,0,0,1-2.7.5l-2.3.2a46.1,46.1,0,0,1-5.3,0h-10.2c-8-.2-23.8-.2-31.9-.2-16.6.1-28.8.4-36.7.7-16.2.4-41,.8-77.6.5" transform="translate(-41.7 -25.9)" fill="none" stroke="#000" stroke-linecap="round" stroke-linejoin="round" stroke-width="1.42"/><path d="M1213.5,1409.8c-2.3,4.8-4.3,8.7-5.9,11.7a61.3,61.3,0,0,1-5.2,8.2,43,43,0,0,1-5.6,5.7c-3.1,2.8-3,2.3-9,7.3l-5.2,4.1a27.9,27.9,0,0,1-3.5,2.4,21.5,21.5,0,0,1-7.4,2.3c.1.2,2.7-.5,6.1-.2a20.9,20.9,0,0,1,4.3.7,29,29,0,0,1,12.1,6.5,30.8,30.8,0,0,1,6.2,8.3,50.8,50.8,0,0,1,5.7,16.3" transform="translate(-41.7 -25.9)" fill="none" stroke="#000" stroke-linecap="round" stroke-linejoin="round" stroke-width="1.42"/><path d="M717,1283.2a158.4,158.4,0,0,0-17.3-.7c-3.1,0-8.5.1-23.4,1.6s-23.6,2.5-31.3,4.2c-10,2.1-11.2,3.3-21.7,5.5a69.5,69.5,0,0,0-9.1,2.7,65.9,65.9,0,0,0-8.5,4.1c-5.4,2.8-9.5,5-15.1,8.4-.8.4-4.5,2.7-9.4,5.9s-7.9,5.2-9.9,6.8-9.7,8-13.5,17.3c-2.5,5.9-2.8,10.8-3,15.8a73,73,0,0,0,1.3,17.7c.9,5.3,2,9.1,4.2,16.9a149.1,149.1,0,0,0,5.8,17.5,111.3,111.3,0,0,0,7.1,14.3" transform="translate(-41.7 -25.9)" fill="none" stroke="#000" stroke-linecap="round" stroke-linejoin="round" stroke-width="1.42"/><path d="M558.7,1437.9c2.4,9.3,6,23,9.9,39.5,5.5,22.7,9.2,40,14.7,66.1,3.8,17.7,6.6,30.7,10.2,48.9s7.7,38.9,11.9,64.2c2.8,16.9,1.5,10.8,9.2,63.6,4.3,29.3,7.5,50.5,9.2,71,1.5,16.6,2.1,33.4,2.1,33.4.1,2.8.3,6.9.4,12.5.3,13.3-.2,12.5.1,21.7a151.3,151.3,0,0,1,.1,16.7,55,55,0,0,1-1,7.3,37,37,0,0,1-3.4,10.2c-1,1.8-2.6,4-5.7,8.3l-4.9,6.6c.2,13.5.5,27.4,1.2,41.6s1.6,28.8,2.7,42.6c29.2.5,58.3.9,87.5,1.2,35.6.4,71.3.6,106.9.5.1-9.7.1-19.6.1-29.5,0-21.8-.2-43.3-.6-64.7l-6.1-4.4c-.2-5.8-.5-13.5-.6-22.6-.1-3.6-.3-22.6.6-44.7,1-24.7,3.4-46.6,8.1-89.2,3.4-30.7,5.2-46.4,8-63.7,1.8-11,4-22.8,10.1-51.1,10-46.1,19.2-88.7,34.9-144.1,5.2-18.6,9.8-33.7,12.7-43.1" transform="translate(-41.7 -25.9)" fill="none" stroke="#000" stroke-linecap="round" stroke-linejoin="round" stroke-width="1.42"/><path d="M1222.8,558.1a13.6,13.6,0,0,1,3.9-2.1,22.6,22.6,0,0,1,8.6-.2c.7.2,2.1.9,4.4,4.9a36,36,0,0,1,3.9,9.9,61,61,0,0,1,1.6,8.1,20,20,0,0,1,.2,5.3c-.1,1.9-.2,3.2-1.2,4s-2,.8-4.3.9a26.9,26.9,0,0,1-5.8-.4l-3.1-.5" transform="translate(-41.7 -25.9)" fill="none" stroke="#000" stroke-linecap="round" stroke-linejoin="round" stroke-width="1.42"/><path d="M1226.5,569.9a11.2,11.2,0,0,1,3.6-1.6c1.5-.4,2.8-.7,3.9,0s1.3,1.5,2.1,3.4a13.9,13.9,0,0,1,.9,4.2,5.9,5.9,0,0,1-.2,2,4,4,0,0,1-2.3,1.8,21.6,21.6,0,0,1-5.2,1.6" transform="translate(-41.7 -25.9)" fill="none" stroke="#000" stroke-linecap="round" stroke-linejoin="round" stroke-width="1.42"/><path d="M1291.2,600.6a39.9,39.9,0,0,1-3.3-3.1,28.5,28.5,0,0,1-3.4-4.1c-1-1.6-1.5-3.4-2.5-6.9-.5-1.8-1-4.1-2-8.6-.5-2.2-.5-2.1-.8-3.8s-.5-1.7-2-8c-.6-2.4-.7-3-1.3-4a9,9,0,0,0-2.6-3.3,10.4,10.4,0,0,0-4.7-1.9c-1.2-.3-1.4-.1-6.1-.4l-4.7-.2-4.4-.3-4.1-.4c-1.1-.1-1.8-.2-1.9.1s.4,1,1.1,2.3a15.1,15.1,0,0,1,1.2,2.7c.8,2,1.4,3.5,2.1,5.8s1.6,5.5,2.8,10.5l1.4,5.3c1.4,4.8,2.1,6.5,3.6,7.1l2.4.3h3.7c4.1-.1,6.2-.2,6.8-.9s.1-1.3-.3-5.7c-.2-2.8-.1-3.1-.4-6.1a31.3,31.3,0,0,0-.6-4,23.2,23.2,0,0,0-1.8-5.8c-.7-1.4-1-2.2-1.9-2.8a10.2,10.2,0,0,0-3.4-1h-4.2c-1.9,0-2.1-.1-2.4.2s-.1.9.2,2.2a35.7,35.7,0,0,1,1,3.5,40.3,40.3,0,0,0,1.1,4.4,9.7,9.7,0,0,0,.7,2c.5,1.1.6,1.3.8,1.4s.5.3,2.2.2l2.1-.4" transform="translate(-41.7 -25.9)" fill="none" stroke="#000" stroke-linecap="round" stroke-linejoin="round" stroke-width="1.42"/><path d="M1298.2,600.2a41.7,41.7,0,0,1-3.7-7.4l-2-6.6c-1-3.6-1.5-5.4-1.9-6.7-1.3-4.3-1.7-5.2-2.8-8.9-.2-.8-.7-2.7-1.3-5.2-1-4.7-.8-5.7-.4-6.6s2-2,3.5-2.8a13.6,13.6,0,0,1,4.1-1.3c1.4-.2,2.6-.2,5-.3a50.7,50.7,0,0,1,5.2.2,14.4,14.4,0,0,1,3.9.7,7.2,7.2,0,0,1,4,2.8c.6.9.7,2.3,1,4.9a27.6,27.6,0,0,1,.1,5.7c-.3,2.6-.4,4.3-1.6,5.7s-4.9,3.2-5.8,2.4.6-1.9.8-5.6a11.3,11.3,0,0,0-.4-3.9,5.4,5.4,0,0,0-1.9-3,8.1,8.1,0,0,0-3.4-.4,3.8,3.8,0,0,0-1.8.1,3.6,3.6,0,0,0-1.8,1.8c-.2.3-.4.9-.3,2.6a15.9,15.9,0,0,0,.4,3.4c.2,1.2.6,2.3,1.2,4.5s.9,3.1,1.2,4,.5,1.6.8,2.6c1.4,4.2,1.8,4.8,2.5,5.1a7.2,7.2,0,0,0,2.2,0l2.4-.2h4a21.8,21.8,0,0,1,6.1,1.1,41.5,41.5,0,0,1,7,2.6,33.3,33.3,0,0,1,5.9,3.2,35.3,35.3,0,0,1,6.4,5.1" transform="translate(-41.7 -25.9)" fill="none" stroke="#000" stroke-linecap="round" stroke-linejoin="round" stroke-width="1.42"/><path d="M1319.1,556.2c.5,3.4,1.1,6.3,1.6,8.4s.8,3,1.6,6.1,1.6,5.4,2.6,6.5a12.9,12.9,0,0,0,3.6,2.5,24.4,24.4,0,0,0,3.8,1.6" transform="translate(-41.7 -25.9)" fill="none" stroke="#000" stroke-linecap="round" stroke-linejoin="round" stroke-width="1.42"/><path d="M1238.7,600.1a32.6,32.6,0,0,0,7.8,2.4,50,50,0,0,0,9.2.3l5.7-.2,19.3-1.3,14.2-.9c1.7-.1,4.6-.3,8.5-.3h5.6a62,62,0,0,1,10.5.9,40,40,0,0,1,7.9,2.3,41.3,41.3,0,0,1,11.9,7" transform="translate(-41.7 -25.9)" fill="none" stroke="#000" stroke-linecap="round" stroke-linejoin="round" stroke-width="1.42"/><path d="M1235.9,608a23.7,23.7,0,0,0,4.5,3.4,26.9,26.9,0,0,0,5.5,2.9c1.3.5,3.6,1.2,8.7,1.3s6.6-.3,14-1.2c0,0,3.7-.2,9-.9s11-1.1,17.3-1.2a163.1,163.1,0,0,1,20.1.8,83.6,83.6,0,0,1,10.3,1.7,18.6,18.6,0,0,1,5.6,1.9,14,14,0,0,1,4.4,3.4c1.7,2,2.4,4.1,3.5,7.8.4,1.4.7,2.5.8,3.1s.5,2.2.9,5,.4,2.7.8,5.8.5,4.1.7,5.6l1.1,8.3c.4,3.2,1.1,7.8,1.8,14.1" transform="translate(-41.7 -25.9)" fill="none" stroke="#000" stroke-linecap="round" stroke-linejoin="round" stroke-width="1.42"/><path d="M1326.5,615.1c2.2,6.8,4.4,14.2,6.3,22.1,2.3,9.7,4.1,18.8,5.4,27.4" transform="translate(-41.7 -25.9)" fill="none" stroke="#000" stroke-linecap="round" stroke-linejoin="round" stroke-width="1.42"/><path d="M1348.7,676.6a29.8,29.8,0,0,0-3.3-6.1c-1.9-2.7-3.3-4.7-5.9-5.6a12.9,12.9,0,0,0-3.9-.7h-10.5c-2.4-.1-2.8-.1-3.3-.4s-1.7-2.2-2.4-4.3c-.1-.4-.1-.5-.9-4.6-.4-2.4-.6-3.2-.8-4.3s-.4-1.7-.7-2.9-1-3.2-1.7-5.5a37.1,37.1,0,0,1-1.3-5.7,19.9,19.9,0,0,1-.3-4.6c.2-2.9.8-3.5,1.1-3.7a4.6,4.6,0,0,1,2.6-.8h1.2a12.7,12.7,0,0,1,2,0,8.5,8.5,0,0,1,3.2,1.2c.5.5.7.9,1.5,4.1a51.7,51.7,0,0,1,1.5,6c.3,1.7.1,1.3.5,3.2s.6,3.4.9,6a5.1,5.1,0,0,1-.2,2.5,4.5,4.5,0,0,1-1.5,2c-.7.5-1,.7-1.5.7s-2.2-4-2.6-6.2-.3-2.3-.4-3.2,0-2.9,0-3.9" transform="translate(-41.7 -25.9)" fill="none" stroke="#000" stroke-linecap="round" stroke-linejoin="round" stroke-width="1.42"/><path d="M1285.1,612.8a25.9,25.9,0,0,1,7.5,6.5,32,32,0,0,1,3.2,5.2" transform="translate(-41.7 -25.9)" fill="none" stroke="#000" stroke-linecap="round" stroke-linejoin="round" stroke-width="1.42"/><path d="M1259.1,615.5a52.1,52.1,0,0,0-4.1,4.1,25.3,25.3,0,0,0-2,2.2c-1.6,1.8-2.1,2.5-2.4,3.5a7.6,7.6,0,0,0-.2,1.9A74.6,74.6,0,0,0,1252,640c.3,1.4.6,2.4,1.1,4.3.9,3.5,1.2,4.5,1.9,6.9,1.2,4.7,1,4.9,2.5,10.5.3.9.9,3.3,2,6.3s1.9,4.3,2.4,4.9,2.2,1.6,4.8,2.9a28.9,28.9,0,0,0,4.6,2,21.6,21.6,0,0,0,5.9.8,48.4,48.4,0,0,0,6.6,0h8c4.1-.1,7.2-.4,11.5-.7l6.4-.4,9.6-.3,9.6-.3h17.4l8.7-.3" transform="translate(-41.7 -25.9)" fill="none" stroke="#000" stroke-linecap="round" stroke-linejoin="round" stroke-width="1.42"/><path d="M1255.6,690.8l3.4,1.1,3.5.8,1.4.4c1.3.3,1.7.3,2,.6s.2.7.2,1.6,0,1.4.1,4.1c.1.5.1.9.2,1.8s.5,3.9.7,5.2l.8,5.4c.7,4.6,1.6,8.2,2,10s.9,3.8,1.7,7.1.7,2.9.8,3.1c.9,2.8,1.6,3.6,1.2,4.3s-.9.4-4.2.5l-3.2.2c-1.5,0-3.5,0-5.8-.2" transform="translate(-41.7 -25.9)" fill="none" stroke="#000" stroke-linecap="round" stroke-linejoin="round" stroke-width="1.42"/><path d="M1284.6,678.6l4,3c3.1,2.5,4.7,3.7,5.7,4.9s1.5,2.8,2.9,9l2.7,11.8c1.9,8.6,1.7,7.3,2.3,10.3,1.1,5.1,1.3,7.1,2.4,10.9a50.3,50.3,0,0,0,2.2,6.2" transform="translate(-41.7 -25.9)" fill="none" stroke="#000" stroke-linecap="round" stroke-linejoin="round" stroke-width="1.42"/><path d="M1285.1,702.6a5.6,5.6,0,0,0-2.3,1.2,4.4,4.4,0,0,0-1.3,1.4c-.5.9-.2,1.8.3,3.9,1.1,4.1.9,3.8,1.2,4.7s1.6,3.4,3.2,3.9,2.4-.2,4.8-1.4,2.4-1.3,3-2.4.4-1.6.1-3.4a38.8,38.8,0,0,0-2.7-8.5,27.8,27.8,0,0,0-2-4c-1.6-2.8-2.4-4.2-4-5a7.7,7.7,0,0,0-3.9-.9,9.3,9.3,0,0,0-2.9.3c-1.6.4-4,1-5.1,2.8s-.7,1.7.4,7.4c.5,2.4,1,4.3,1.3,5.6,2.3,9.2,2.2,8,2.8,11a31,31,0,0,0,1.3,5,24.8,24.8,0,0,0,5,8.3c1.6,1.7,3.9,2.3,15.6,2.3,9.2.1,9.4-.3,16.7-.4l4.3-.4c4.4-.4,5-.8,5.3-1.2s.7-2.3.7-5.6a29,29,0,0,0-.2-5.2,39.1,39.1,0,0,0-1-4.4s-.1-.2-1.3-5.8-2-10.4-4-16.2c-.8-2.2-1.3-3.4-2.5-4.1s-3.5-.8-7.4-.2-4.4.7-5.1,1.5-.5,2.7.6,7.4.5,3.3,1.9,9,2.4,8.9,3.9,9.5a5.7,5.7,0,0,0,3.1.3,2.5,2.5,0,0,0,1.7-.8,2.4,2.4,0,0,0,.2-2.1,20.7,20.7,0,0,0-.6-3.6c-.7-2-1-4-1.6-6s-.9-3.7-1.3-6.6" transform="translate(-41.7 -25.9)" fill="none" stroke="#000" stroke-linecap="round" stroke-linejoin="round" stroke-width="1.42"/><path d="M1306,677.6l9.6,1.8c2.2.5,3.8.8,5.6,2.1a12.3,12.3,0,0,1,3.1,3.3,20.2,20.2,0,0,1,3.4,6,37,37,0,0,1,1,5.1s.5,3.9,1.2,8.1,1.2,5.2,2.2,10.8c.5,3,.3,2.8,1.1,8s1.2,7.7,1.8,10.1a34.4,34.4,0,0,0,3.5,9.7,37.5,37.5,0,0,0,3.3,4.6" transform="translate(-41.7 -25.9)" fill="none" stroke="#000" stroke-linecap="round" stroke-linejoin="round" stroke-width="1.42"/><path d="M1346.9,716.4a25.6,25.6,0,0,1-1.4-5.7c0-.7,0-.6-.1-2.4a26.3,26.3,0,0,0-.7-5.1c-.4-1.6-.6-2.5-1.4-3.2a3.5,3.5,0,0,0-2.2-.9,3.6,3.6,0,0,0-2.9,1.1c-.4.5-.6,1.2-.3,3.4s.9,4,1.3,5.6.4,2.1,1,5,1.3,6.3,1.5,7.6.6,4.7,1.5,6.6,1.3,2.1,1.4,2.3a7.7,7.7,0,0,0,1.5,1.8,5,5,0,0,0,2.8.6,25.1,25.1,0,0,0,4.6,0c1.8-.1,0,.1,7.3-.2l7-.4" transform="translate(-41.7 -25.9)" fill="none" stroke="#000" stroke-linecap="round" stroke-linejoin="round" stroke-width="1.42"/><path d="M1346.9,716.4a4.5,4.5,0,0,0,.4,1.7c.4,1.2.6,1.9,1.2,2.3a2.8,2.8,0,0,0,2.3.2,1.9,1.9,0,0,0,1.2-.7,2.5,2.5,0,0,0,.3-2,19.6,19.6,0,0,0-.3-2.9l-.9-4.6c-.3-1.2-.4-2.2-.7-4.2-.7-4.1-.5-4-.9-6.4a22.8,22.8,0,0,0-1.7-6,10.6,10.6,0,0,0-1.7-2.8,7.7,7.7,0,0,0-2.6-2.2c-1.3-.8-2.5-.8-6.8-.6l-5.5.2" transform="translate(-41.7 -25.9)" fill="none" stroke="#000" stroke-linecap="round" stroke-linejoin="round" stroke-width="1.42"/><path d="M1345.4,682a13.1,13.1,0,0,1,4.1,3,12.8,12.8,0,0,1,2.4,3.5c0,.3.3,1.1.7,2.8s.7,2.5,1.1,3.6.7,2,.8,2.5a52.5,52.5,0,0,1,1.9,7.2c1.1,5.3,1.7,6.3,3.2,13.2.8,3.6,1.9,8.7,2.8,15" transform="translate(-41.7 -25.9)" fill="none" stroke="#000" stroke-linecap="round" stroke-linejoin="round" stroke-width="1.42"/><path d="M1307.6,647a38.8,38.8,0,0,1,.4,5.2c.1,3.2.2,4.9-.2,6.6a17.6,17.6,0,0,1-3.3,7.2,12.2,12.2,0,0,1-3.3,2.9,11.5,11.5,0,0,1-5.1,1.1c-5.9.2-9.2.1-13.2,0s-4.8.2-6.8-.3a13.8,13.8,0,0,1-6-2.9,11.5,11.5,0,0,1-2.5-3.4,16,16,0,0,1-1.1-4.7c-.1-1-.7-3.3-1.7-7.8s-1.3-4.4-2.1-7.9c-1.8-7.9-1-10.9-.8-11.8a9.5,9.5,0,0,1,2.3-4.6c1-1,2.5-1.9,7.8-2.6a101.2,101.2,0,0,1,10.5-.5c6.1-.2,7.4-.1,9.3.2s4.7.8,6.7,2.1,3.7,4,4.9,6.3a27.3,27.3,0,0,1,2.3,6.4A50.8,50.8,0,0,1,1307.6,647Z" transform="translate(-41.7 -25.9)" fill="none" stroke="#000" stroke-linecap="round" stroke-linejoin="round" stroke-width="1.42"/><path d="M1273.2,623.9c.1,3.6.3,6.5.4,8.7s.3,5.4.8,10.4a46.7,46.7,0,0,0,1.3,8.3,16.8,16.8,0,0,0,2.7,5.7,11.1,11.1,0,0,0,2.5,2.5,16.6,16.6,0,0,0,5.4,2.7c1.7.5,4,.5,8.5.6a57.5,57.5,0,0,0,6.5-.2,28.1,28.1,0,0,0,5.8-1.3" transform="translate(-41.7 -25.9)" fill="none" stroke="#000" stroke-linecap="round" stroke-linejoin="round" stroke-width="1.42"/><path d="M1224.8,642.7c.1.6.2,1.2.7,4.7,1.1,8.2,1.2,9.2.9,10.8a12.1,12.1,0,0,1-2.1,5.7,11.4,11.4,0,0,1-3.4,3.2c-1.5,1-4.1,2.2-13.6,2.4s-11.6-.8-12.9-1.2c-4-1.3-5.6-2.8-6.4-3.8s-1.4-1.9-2.5-5.3a57.6,57.6,0,0,1-2.1-10.1,90.1,90.1,0,0,1-1.1-11c-.2-5.7.3-7,.8-7.9a11.7,11.7,0,0,1,5.9-5,31.4,31.4,0,0,1,5.3-.9c2.8-.3,5.9-.7,10.2-.8a45.3,45.3,0,0,1,6.5.3,18.9,18.9,0,0,1,5,1.4,13.4,13.4,0,0,1,4.1,2.7c1.5,1.6,2.1,3.6,3.1,7.4A66.8,66.8,0,0,1,1224.8,642.7Z" transform="translate(-41.7 -25.9)" fill="none" stroke="#000" stroke-linecap="round" stroke-linejoin="round" stroke-width="1.42"/><path d="M1206,623.5a23.2,23.2,0,0,0-8.4,5.3,11.2,11.2,0,0,0-3.2,4.6,18.6,18.6,0,0,0-.3,4.6,62.4,62.4,0,0,0,.5,7.3c.4,2.9.5,4.3.9,6.1.7,3.9,1.1,6,2.3,7.7a11.7,11.7,0,0,0,4.3,3.3c1.2.5,2.2.8,6.2,1s4.4.5,8.7.2a38.6,38.6,0,0,0,8.3-1.4" transform="translate(-41.7 -25.9)" fill="none" stroke="#000" stroke-linecap="round" stroke-linejoin="round" stroke-width="1.42"/><path d="M1201.9,610.8a31.9,31.9,0,0,1,5.1,3.4,26.7,26.7,0,0,1,3.6,3.1,10.8,10.8,0,0,1,2.2,2.8,9.1,9.1,0,0,1,.7,4.2" transform="translate(-41.7 -25.9)" fill="none" stroke="#000" stroke-linecap="round" stroke-linejoin="round" stroke-width="1.42"/><path d="M1244.3,683.6c-1.5,1.6-2.8,2.9-3.8,3.8s-1.6,1.7-1.9,1.9-1.9,1.3-2.2,2,0,.9.6,3.3c.2.7,0-.1.8,3.3s.6,2.6.7,3.3a42.1,42.1,0,0,1,1,6.8l.7,5.9c.6,3.6,1,3.9,1.8,8.3.5,2.8.7,4.8.8,5.3a40.5,40.5,0,0,1,.3,5.5v2.7c.1,2.1.2,2.6.7,3a5.7,5.7,0,0,0,1.9.7l1.8.3,9.7,2.1" transform="translate(-41.7 -25.9)" fill="none" stroke="#000" stroke-linecap="round" stroke-linejoin="round" stroke-width="1.42"/><path d="M1355,148.1l7.4.4q4.9,0,9.3-.3c.1,7,.1,12.6.1,16.4-.1,7.6-.4,10.5-.5,19.5-.1,4.9-.1,7.7-.1,14.9,0,12.8,0,7.5-.1,28.3s0,29.8-.1,49.8c0,16.9,0,15.2-.1,44.6v80.2" transform="translate(-41.7 -25.9)" fill="none" stroke="#000" stroke-linecap="round" stroke-linejoin="round" stroke-width="1.42"/><path d="M159.1,1278.6c.5,3.8.9,7.6,1.4,11.2" transform="translate(-41.7 -25.9)" fill="none" stroke="#000" stroke-linecap="round" stroke-linejoin="round" stroke-width="1.42"/><path d="M161.8,1301.2c1.4,11.8,2.7,22.4,3.7,31.5,3,26,3.7,34.1,5.8,50.3,3,23.3,3.9,25.5,7.9,53.3,8.2,55.8,6.5,60.5,12.8,89,4.2,19.1,4.4,14.4,11.8,45.5,5.5,22.7,7.3,33.1,15.1,67.1,2.9,12.2,5.3,22.3,7,29.3,6.6,27.3,11.8,55,19.5,82.1a104.1,104.1,0,0,1,3.9,22c.4,5.7.1,10.4-.6,19.5-.3,4.8-.8,10.8-4,38.3l-2,17.1c-.3,2.5-1.3,11.6-2.1,19.7-2.7,25.3-1.7,23.3-3.3,34.9-1,7.8-2.4,15.5-3.7,29-.6,6.8-1.4,15.9,3.1,20.5.8.8,2.7,2.5,6.2,6l4.3,4.2c2.2,2.4,2.9,3.5,4.6,3.8a15.3,15.3,0,0,0,3.2,0h2.8c2.6-.2,5.5-.2,8.1-.3l20.7-.4,28.2-.4,23.1-.5h9.3c4.8,0,7.4,0,11.3-.3s6.1-.5,8-1.3a13.2,13.2,0,0,0,6.8-5.6c1-1.8,1.1-3.4,1.1-10s0-8.3-.1-9.6c-.3-4.3-.3-17.9-.4-45.3,0-37.6,0-56.4,1.9-68.9,2.1-14.4,6.4-34.5,7.6-40.5,2.3-10.5,4-18.1,4.9-21.6,4.9-21.2,8.3-38.1,15.7-73.9,17.6-85.2,15.4-72.5,19.6-94.1,15.4-79.3,21.8-128.2,24.3-148,.6-4.9,1.1-9.5,1.6-13.7" transform="translate(-41.7 -25.9)" fill="none" stroke="#000" stroke-linecap="round" stroke-linejoin="round" stroke-width="1.42" stroke-dasharray="22.95 11.48"/><path d="M450.2,1424.1c.5-4.4.9-8.2,1.2-11.2" transform="translate(-41.7 -25.9)" fill="none" stroke="#000" stroke-linecap="round" stroke-linejoin="round" stroke-width="1.42"/><path d="M146.7,130.2c.5,5.4.8,8.6.9,11.1H135.8c-6.9.1-9.3.3-21.1.8l-16.8.6c-2.3,0-10.9.2-16.2.1H72.5c-2.4-.1-3.6-.1-4.3-.7s-1.3-3.7-1.2-4.9.4-4.3,2.9-6.1,3.4-1,7.6-1l9.6-.2h8.3c9.4-.1,14.1-.2,14.7-.1h15.8l3.5-.2c3.4-.3,3.9-.4,4.2-.9s.3-.4.2-2.3-.1-2.9-.1-3a38.7,38.7,0,0,1-.2-4.2,34.7,34.7,0,0,0-.7-6.8,12.5,12.5,0,0,0-1.9-4.5,15,15,0,0,0-2.6-2.8l-2-1.5c-1.9-1.5-2-1.7-2.1-1.9s1.1-1.6,2.2-3.6a11.4,11.4,0,0,0,1.2-3.9c.1-.8,0-.8.3-4.8.1-2,.1-2.3.1-2.6.5-2.4,1.2-2.6,1.1-3.6s-1-1.6-4.6-4.5-3.7-3-3.9-3.9.3-2.3,1.3-4.1,1.5-2.1,2.2-3.6.9-3.3.9-5.8a18.4,18.4,0,0,0-.7-6.4,25,25,0,0,0-2-4.5c-2.2-3.8-7.1-5.5-13.5-6.9s-13.7-2-21.4-2.3c-6.1-.3-11.5-.3-17.2-.3H57.6c-2,.1-2,.2-2.2.1s-1.9-2-2.3-3-1.1-3.3,0-5.3,1.6-1.7,3.5-2.5a25.8,25.8,0,0,1,9.5-1.2l12.7.2,8.9.4c4.1.2,7.8.3,10.4.6a78.7,78.7,0,0,1,19.1,3.4,60.3,60.3,0,0,1,16.6,7.1l.4.3c1.2,4.7,2.7,11.6,4.2,20,.5,2.9.9,5.5,2.2,15,2.6,18.9,3.9,28.6,4.9,38.8C145.8,118.7,145.6,116.9,146.7,130.2Z" transform="translate(-41.7 -25.9)" fill="url(#_10_lpi_10_)"/><path d="M75.8,414l3.8,1.8c16.8,7.9,25.3,11.5,44.9,20.5l28.2,13.2c-3.7,17.6-6.9,32.7-9.5,44.7-1.2,6-5.7,27.5-11.8,57.4-4.8,23.7-4.9,24.1-7.5,37.1-9.6,46.9-12.4,58.3-20.4,98-.6,3.1-3,14.7-6.2,30.4s-5.3,25.6-6,29c-4.3,19-6.1,23.7-10.7,44.8-1.5,6.8-2.5,11.8-3.3,16.1-5.7,27.8-9.4,51.2-12,68.9L63,892.8c-2,15.8-6,46-7.5,74-.6,11.9-.4,28.4.2,61.4.5,28.7,1.6,59.3,4.2,94,1.1,15.3,1.9,21.6,2.6,27a343,343,0,0,0,13.2,58,304.4,304.4,0,0,0,16.1,40.2,181.6,181.6,0,0,0,11.1,19.6,154.6,154.6,0,0,0,9.2,12.7h-.4a18.6,18.6,0,0,0-4.2,2.9c-2.2,1.8-4.1,3.1-7.9,5.8A232.4,232.4,0,0,1,85,1266.1a267.6,267.6,0,0,1-15.8-33.6,286.8,286.8,0,0,1-10.3-32.3,372.5,372.5,0,0,1-9.7-50.3c-1.6-11.9-2.4-21.1-2.9-27.3-.8-9.6-.8-13.2-2.1-41.9s-1.3-28.7-1.5-37.4c-.3-14.6-.3-25.5-.2-33.3.1-17,.2-36.5,1.8-61.1,1.1-16.6,2.4-28.8,3.6-39.4,0,0,5.1-46.1,13.9-90.6,1.3-6.3,3.4-16.5,5.9-27.6,1.6-7.2,2.4-10.8,3.2-13.7,1.4-5.2,2.2-10.5,4.1-15.6a14,14,0,0,0,.8-3.9,8.8,8.8,0,0,0-.1-3.2,20,20,0,0,0-1.4-3.1c-1.2-2.6-1.2-2.9-1.2-3.3s1.3-1.9,2.5-2.8,1.8-.9,2.6-1.8a3.7,3.7,0,0,0,1-2A105.5,105.5,0,0,0,82,730.1c.4-2.3.2-.7,1.6-7.5,2.4-12.2,7.5-39.8,9.3-49.2.6-3.3,2.6-12.9,6.6-32,7.5-36.4,13.5-64.2,15-73.2.3-1.4.7-3.8,1.5-7.2,1.2-5.2,2.1-8.5,2.1-8.5s.3-1.5.9-4.1a7.8,7.8,0,0,0,.5-3.7c-.1-.9-.4-.9-1.1-2.8s-1.3-3.1-1.1-4.1.8-1.5,2.1-3,2.2-1.9,3-3.1a16.4,16.4,0,0,0,1.5-4.1c.6-2.2.9-3.9.9-3.9.7-3.6,2.8-14.5,4-19.9,1.6-7.6,2.1-8.1,3.4-15.2.5-2.5.6-3.5,1.4-8,1.2-6.5,1.8-9.7,2-10.4a26.4,26.4,0,0,0,.9-4.3c.4-2.3.3-2.9,0-3.5s-1-1.1-3.3-2.1a59,59,0,0,0-5.6-2,45.6,45.6,0,0,0-5.3-1.3l-5.3-.8c-6.8-.9-28.3-5.8-41.6-8.5-5.1-1.1-12.4-2.5-21.4-3.9-.1-7.9-.1-16,.1-24.3.1-5.3.3-10.6.5-15.8C59.3,406,66.7,409.7,75.8,414Z" transform="translate(-41.7 -25.9)" fill="url(#_10_lpi_10_)"/><path d="M717,1420.7v16.7l-81.8.3c-40.2.2-98.6.3-170.6.3.2-3.5.4-7.2.5-11.1l-4.1-4.3q65.8-1.2,131.8-1.6Q654.9,1420.6,717,1420.7Z" transform="translate(-41.7 -25.9)" fill="url(#_10_lpi_10_)"/><path d="M190.3,405.1c154.6-1.5,263.2-1.4,335.5-.9,27.1.1,95,.6,187.8.2h10.1c42.1-.2,51.9-.4,109.7-.8,0,0,228.9-1.7,465.3-1.6,6.4.1,16.2.1,30.7,0,8.6,0,9.2-.1,12.8,0h21.9a56,56,0,0,0,9.6-.6l3.5-.6c2.7-.4,2.9-.4,3.2-.3s1.2.9,1.4,7v4c-.2,4.7-.3,7-.2,9.4,0,.3.3,8.3.1,10.6,0,.1,0,.8-.1,1.8a12.6,12.6,0,0,0-.1,1.6c-.2,1.6-.1,1.9-.4,2.2s-.2.2-1.1.4l-2,.5-2.3.3-2.9.6-5.4,1c-3.2.6-5.2.8-8.3,1.2-7.5,1-7.6,1.3-16.4,2.5l-8.4,1.1a89.1,89.1,0,0,0-10.3,1.9c-2.8.7-3.1,1-6.2,1.8s-6.4,1.4-8.3,1.7c-11.3.5-21,.7-28.6.8-12.4.2-19.7.3-29.8.1s-12.1-.6-22.1-.7l-21.4.3h-66.8l-46,.2c-47.9.1-74.7-.1-121,.1l-52.9.3H816.1c-25.2,0-32.3-.1-42.9,0-25.1.1-45.7.3-59.4.5h0" transform="translate(-41.7 -25.9)" fill="none" stroke="#000" stroke-linecap="round" stroke-linejoin="round" stroke-width="1.42"/><path d="M713.7,406.6c0,15.3,0,30.4.1,45.2v5.3c1.4,471.9,2.2,668.7,2.7,735,.1,9.3.4,48.2.6,100.9.1,50.7,0,94.2-.1,127.7v16.7" transform="translate(-41.7 -25.9)" fill="none" stroke="#000" stroke-linecap="round" stroke-linejoin="round" stroke-width="1.42"/><path d="M464.6,1438c72,0,130.4-.1,170.6-.3l81.8-.3h12.3c78.9-.3,111.5-.3,161.8-.9,27.3-.3,49.6-.6,63.7-.9" transform="translate(-41.7 -25.9)" fill="none" stroke="#000" stroke-linecap="round" stroke-linejoin="round" stroke-width="1.42"/><path d="M461,1422.6q65.8-1.2,131.8-1.6,62.1-.4,124.2-.3" transform="translate(-41.7 -25.9)" fill="none" stroke="#000" stroke-linecap="round" stroke-linejoin="round" stroke-width="1.42"/><path d="M152.7,449.5l1,.6,1.7,1.3,1.3,1.1a4.2,4.2,0,0,0,1.4.8h2.8l29.6.4c41.5.6,120.2,1.5,194.2,1.7,33.5.1,23.6-.1,66.2,0,57,.2,89,.5,162.3,1.1l100.6.6" transform="translate(-41.7 -25.9)" fill="none" stroke="#000" stroke-linecap="round" stroke-linejoin="round" stroke-width="1.42"/><path d="M126,1281.8a284.9,284.9,0,0,1,39.2-3.4c29.9-.5,52.8,3.9,65.9,6.4,16.6,3.3,29.1,7,34,8.5,27.7,8.5,47.3,18.5,60.4,25.2a460.4,460.4,0,0,1,50.9,30.9,520.8,520.8,0,0,1,66.2,54.9c7.3,7,13.5,13.2,18.4,18.3h0l4.1,4.3c-.1,3.9-.3,7.6-.5,11.1-.6,9.9-1.6,17.9-2.4,23.9s-2.6,15.4-4.7,31.5c-.6,4.3-.9,6.4-1.4,10.4,0,0-2.2,16.7-5.4,38.6-3,19.6-7.8,42.8-13.7,72.4-14.1,70.5-17.7,93.1-24.2,122.6-1.7,7.7-3.3,14.4-5.1,24.8s-3.3,20.6-5.6,31.7c-.2,1-.7,3.5-1.3,6.9s-1.2,7.5-1.8,13.6a163.5,163.5,0,0,0-.8,17.1c-.2,13.2-.4,2.3-1.5,47.5-.1,4.9-.2,11.9-.4,20.5l7,4.1c.3,7.2.5,14.4.7,21.6.3,12,.5,23.8.7,35.5q-5.1,5.4-10.8,11.1c-5.5,5.4-10.9,10.4-16.1,15.1l-75.3,2.5-74,1.9c-5.1-5.4-10.3-11.4-15.6-18.2-3.1-4.1-6-8.1-8.5-12,.1-2.8.4-7,.9-12.1.7-7,1.4-12.3,2.6-21.9.8-6.2,1.3-9.3,1.6-11.7s2.1-13.5,2.3-15.8c0-.5.1-1,.1-1.5a6.9,6.9,0,0,1,.4-1.8l.5-.8.5-.8a13.9,13.9,0,0,0,1.6-2.8,9.6,9.6,0,0,0,.7-2.3c1-4.3,2.1-12.1,2.1-12.1.3-2.1.2-1,1.4-8,.6-2.9,1.5-8,2.4-14.5s1.6-10.8,2-14c1-8.5,1.7-13.9,2.2-21.1.1-1.3,0-.3.4-7.5s.6-12,.6-14.9c0-.7,0-1.6.1-2.9a12.8,12.8,0,0,0,.1-2.6,9.6,9.6,0,0,0-.9-3.3c-.7-1.9-.8-1.9-1.2-3s-1.1-3.1-.8-4.7a8.2,8.2,0,0,1,2.3-4.4c1.4-1.8,2.1-1.7,2.3-2.8s-.2-2.4-1.1-4.5a16.1,16.1,0,0,1-.9-2.1l-1-2.3c-1.9-5.2-2.5-6-8.2-22.4-2.3-6.5-5.1-14.5-8.4-24.5s-5.3-15.8-7.9-24.5c0,0-3-10-5.5-20-.5-2-1-4.9-2.2-10.7-.2-1.2-.3-2-.4-2.9-.2-2.5.2-2.9-.2-4.1a4.9,4.9,0,0,0-3.2-3.1c-2.2-.4-4,1.6-4.7,2.3-3.7,4-2.3,8.9-4.2,9.5s-2,.2-6.8-6.1a79.6,79.6,0,0,1-8.8-14.6c-4.4-9.1-4.9-12.8-5-14.3a31.8,31.8,0,0,1,0-6.2c.1-1,.1-1.9.2-2.9s.3-2,0-2.5-.4-.6-2.4-1.2-2.7-.3-3.4-.8-1-1.4-1.4-3c-.9-3.9-1.3-5.8-1.3-5.9-.5-3.7-.4-1-2.2-12.6-.6-3.8-1.1-6.6-1.3-8.1s-.5-3.8-1-7.7c-1.6-12.1-1.8-13.9-.7-14.6s1.9.5,6.4,1.5a36.2,36.2,0,0,0,6.2.8c1.8,0,8.8.1,12.3-4.9a11.9,11.9,0,0,0,1.7-7.9,14,14,0,0,0-3.8-7.8c-5-5-12.3-4.2-15-4a16.2,16.2,0,0,0-5.5,1.5,18.2,18.2,0,0,0-3,1.8c-1.9,1.5-2.2,2.5-2.9,2.5s-2.2-3.4-2.8-5.7c-1-4.1-2.4-8.1-3.3-12.2-1.5-6.6-1.9-5.6-4.3-14.9-.8-2.9-1.7-7.2-3.5-15.7-2.2-10.3-3-14.7-1.3-18.8a50.2,50.2,0,0,1,2.2-4.7c2.2-4,3.7-4.9,3.3-6.5s-1.8-1.5-4.1-3.6a18,18,0,0,1-3.5-4.9,42.9,42.9,0,0,1-4.4-10.8c-6.9-26.9-5-20.9-7-28.5s-4.1-14-2.4-14.9,2.1.8,6.7,2.8a52.1,52.1,0,0,0,5.4,2c7.9,2.5,13.8,2.4,19,2.4,2.2,0,3.7-.1,5-1.1s2.7-3.6,3.3-6.9.9-6.7.3-18.6c-.1-1.9-.3-3.9-.5-8.6s-.2-4.3-.2-5.2c-.5-6.6-.7-10-2-13s-2.8-6.6-6.3-7.1-5.4,1.8-5.9,2.3c-2.5,2.2-3.1,5.3-3.4,7.3a14.3,14.3,0,0,0-.3,4c.1,2.7.9,3.7.4,4.3s-1.5.7-6.1-1a49,49,0,0,1-6.5-2.8c-8.5-4.1-10.6-5.4-16.4-8.5l-2.4-1.4c-2.7-1.6-3-2-3.1-2.2s-.4-1-.8-4c-.1-1.1-.3-2.2-.4-3.4s-.6-4.3-.8-5.2c-.5-3.4-.8-7.5-1.6-15.7-.9-10.6-1.2-13.9-1.5-16.1-.4-4.1-.6-6.1-.7-6.6-.3-2.1-.4-4.2-.7-6.3a5.1,5.1,0,0,1,0-2.5c.2-1.2,1-1.9,3.5-3.9s3.7-2.8,3.7-2.8c3.8-2.7,5.7-4,7.9-5.8a18.6,18.6,0,0,1,4.2-2.9h.4a12.3,12.3,0,0,1,3.2-1,9.8,9.8,0,0,1,3.5-.1,12.2,12.2,0,0,1,2.9,1.1l4.3,2.1a45.2,45.2,0,0,1,5.7,3.9" transform="translate(-41.7 -25.9)" fill="none" stroke="#000" stroke-linecap="round" stroke-linejoin="round" stroke-width="1.42"/><path d="M75.7,404.1l-21.1-.4c-.2,5.2-.4,10.5-.5,15.8-.2,8.3-.2,16.4-.1,24.3,9,1.4,16.3,2.8,21.4,3.9,13.3,2.7,34.8,7.6,41.6,8.5l5.3.8a45.6,45.6,0,0,1,5.3,1.3,59,59,0,0,1,5.6,2c2.3,1,2.9,1.3,3.3,2.1s.4,1.2,0,3.5a26.4,26.4,0,0,1-.9,4.3c-.2.7-.8,3.9-2,10.4-.8,4.5-.9,5.5-1.4,8-1.3,7.1-1.8,7.6-3.4,15.2-1.2,5.4-3.3,16.3-4,19.9,0,0-.3,1.7-.9,3.9a16.4,16.4,0,0,1-1.5,4.1c-.8,1.2-1.1,1-3,3.1s-2,2.2-2.1,3,.2,2,1.1,4.1,1,1.9,1.1,2.8a7.8,7.8,0,0,1-.5,3.7c-.6,2.6-.9,3.9-.9,4.1s-.9,3.3-2.1,8.5c-.8,3.4-1.2,5.8-1.5,7.2-1.5,9-7.5,36.8-15,73.2-4,19.1-6,28.7-6.6,32-1.8,9.4-6.9,37-9.3,49.2-1.4,6.8-1.2,5.2-1.6,7.5a105.5,105.5,0,0,1-2.8,11.8,3.7,3.7,0,0,1-1,2c-.8.9-1.4.9-2.6,1.8s-2.3,1.6-2.5,2.8,0,.7,1.2,3.3a20,20,0,0,1,1.4,3.1,8.8,8.8,0,0,1,.1,3.2A14,14,0,0,1,75,762c-1.9,5.1-2.7,10.4-4.1,15.6-.8,2.9-1.6,6.5-3.2,13.7-2.5,11.1-4.6,21.3-5.9,27.6-8.8,44.5-13.9,90.6-13.9,90.6-1.2,10.6-2.5,22.8-3.6,39.4-1.6,24.6-1.7,44.1-1.8,61.1-.1,7.8-.1,18.7.2,33.3.2,8.7.4,10.1,1.5,37.4s1.3,32.3,2.1,41.9c.5,6.2,1.3,15.4,2.9,27.3a372.5,372.5,0,0,0,9.7,50.3,286.8,286.8,0,0,0,10.3,32.3A267.6,267.6,0,0,0,85,1266.1a232.4,232.4,0,0,0,14.6,22.4" transform="translate(-41.7 -25.9)" fill="none" stroke="#000" stroke-linecap="round" stroke-linejoin="round" stroke-width="1.42"/><path d="M73.1,143c0,13.3.2,35.5.5,63.1.7,57.3,1.2,81.2,1.7,130.7.2,15.7.4,38.8.5,67.3v10.2" transform="translate(-41.7 -25.9)" fill="none" stroke="#000" stroke-linecap="round" stroke-linejoin="round" stroke-width="1.42"/><path d="M54.6,403.7c4.7,2.3,12.1,6,21.2,10.3l3.8,1.8c16.8,7.9,25.3,11.5,44.9,20.5l28.2,13.2c-3.7,17.6-6.9,32.7-9.5,44.7-1.2,6-5.7,27.5-11.8,57.4-4.8,23.7-4.9,24.1-7.5,37.1-9.6,46.9-12.4,58.3-20.4,98-.6,3.1-3,14.7-6.2,30.4s-5.3,25.6-6,29c-4.3,19-6.1,23.7-10.7,44.8-1.5,6.8-2.5,11.8-3.3,16.1-5.7,27.8-9.4,51.2-12,68.9L63,892.8c-2,15.8-6,46-7.5,74-.6,11.9-.4,28.4.2,61.4.5,28.7,1.6,59.3,4.2,94,1.1,15.3,1.9,21.6,2.6,27a343,343,0,0,0,13.2,58,304.4,304.4,0,0,0,16.1,40.2,181.6,181.6,0,0,0,11.1,19.6,154.6,154.6,0,0,0,9.2,12.7" transform="translate(-41.7 -25.9)" fill="none" stroke="#000" stroke-linecap="round" stroke-linejoin="round" stroke-width="1.42"/><path d="M134.2,41.2c1.2,4.7,2.7,11.6,4.2,20,.5,2.9.9,5.5,2.2,15,2.6,18.9,3.9,28.6,4.9,38.8.3,3.7.1,1.9,1.2,15.2.5,5.4.8,8.6.9,11.1a56.3,56.3,0,0,1,.3,5.8c.1,2.3.1,5.2.2,10.9v10.1c0,9.9-.1,11,0,16.2s.3,10.1.4,13.4c.5,11.4.5,19.3.8,33.6.4,21.6,1,36.2,2.4,98.6,1.3,51,1.5,67.9,1.7,83.8s.2,27.9.3,36.4" transform="translate(-41.7 -25.9)" fill="none" stroke="#000" stroke-linecap="round" stroke-linejoin="round" stroke-width="1.42"/><path d="M190.5,453.7h0c-.3-20.1-.6-36.8-.7-48.6v-3.2c-.8-57.7-.6-62.6-1.3-83.4-.5-16.6-.9-24.7-1.5-49-.5-20.2-.3-16.9-.8-35.1-.8-31.6-1.6-46.8-1.9-63,0,0,0-3.8-.2-9.3-.5-12.4-1-16.9-1.3-18.6-.5-3.8-1-6.4-1.8-10.1a180.3,180.3,0,0,0-5.8-21.8c-.3-1.2-1.9-6.1-4.7-13.2A248.1,248.1,0,0,0,158.1,71c-9.2-17.6-14.8-22.8-17.4-25a61.9,61.9,0,0,0-6.5-4.8l-.4-.3a60.3,60.3,0,0,0-16.6-7.1,78.7,78.7,0,0,0-19.1-3.4c-2.6-.3-6.3-.4-10.4-.6l-8.9-.4-12.7-.2a25.8,25.8,0,0,0-9.5,1.2c-1.9.8-2.9,1.5-3.5,2.5s-.3,4.3,0,5.3,1,2.7,2.3,3,.2,0,2.2-.1H70.2c5.7,0,11.1,0,17.2.3,7.7.3,13.7.6,21.4,2.3s11.3,3.1,13.5,6.9a25,25,0,0,1,2,4.5,18.4,18.4,0,0,1,.7,6.4c0,2.5,0,4-.9,5.8s-1.2,1.5-2.2,3.6-1.5,2.9-1.3,4.1.7,1.4,3.9,3.9,4.5,3.4,4.6,4.5-.6,1.2-1.1,3.6c0,.3,0,.6-.1,2.6-.3,4-.2,4-.3,4.8a11.4,11.4,0,0,1-1.2,3.9c-1.1,2-2.4,2.5-2.2,3.6s.2.4,2.1,1.9l2,1.5a15,15,0,0,1,2.6,2.8,12.5,12.5,0,0,1,1.9,4.5,34.7,34.7,0,0,1,.7,6.8,38.7,38.7,0,0,0,.2,4.2c0,.1.1,1.4.1,3s0,2.2-.2,2.3-.8.6-4.2.9l-3.5.2H110.1c-.6-.1-5.3,0-14.7.1H87.1l-9.6.2c-4.2,0-6.4.1-7.6,1s-2.8,5.3-2.9,6.1-.3,3.7,1.2,4.9,1.9.6,4.3.7h9.2c5.3.1,13.9-.1,16.2-.1l16.8-.6c11.8-.5,14.2-.7,21.1-.8h11.8" transform="translate(-41.7 -25.9)" fill="none" stroke="#000" stroke-linecap="round" stroke-linejoin="round" stroke-width="1.42"/><path d="M64.9,40.9c2.7,10.4,4.6,19.5,5.9,26.9,2.9,15.8,4.5,29.3,5.3,39.2s1.2,17.2,1.4,23.3" transform="translate(-41.7 -25.9)" fill="none" stroke="#000" stroke-linecap="round" stroke-linejoin="round" stroke-width="1.42"/><path d="M572.1,1437.9c2.9,9.8,6.9,24.4,10.8,42.4,1.6,7.2,3.6,18,7.6,39.2,4.7,24.6,7,37,8.6,46.4s3.8,23.2,6.5,42.5c.4,3,1.1,8.4,2,14.9,1.7,13.4,4.2,32.7,6.1,55.1,1.2,14.5,2.4,33.3,2.9,55.5" transform="translate(-41.7 -25.9)" fill="none" stroke="#000" stroke-linecap="round" stroke-linejoin="round" stroke-width="1.42"/><path d="M817.9,1684.1c2.4-27.4,5.3-50.5,7.9-68.2,3.1-21.2,6.2-38.1,8.6-51.4,1.5-7.9,4.6-25,9.3-46.8s10.7-49,19-80.9" transform="translate(-41.7 -25.9)" fill="none" stroke="#000" stroke-linecap="round" stroke-linejoin="round" stroke-width="1.42"/><path d="M572.9,1495.5a45.4,45.4,0,0,0-5.5,10.5,53.2,53.2,0,0,0-3,14.2,88.1,88.1,0,0,0,1.2,22.9,89.3,89.3,0,0,0,17,38.8,79.8,79.8,0,0,0,11.3,12.4" transform="translate(-41.7 -25.9)" fill="none" stroke="#000" stroke-linecap="round" stroke-linejoin="round" stroke-width="1.42"/><path d="M862.8,1484.9a66.8,66.8,0,0,1,5.3,15.5c2,8.8,1.7,15.8,1.4,23.2a80.2,80.2,0,0,1-2.1,17.9,70,70,0,0,1-4.5,12.8c-2.9,6.9-6.6,15.8-14.5,24.9a70.8,70.8,0,0,1-11.6,10.7" transform="translate(-41.7 -25.9)" fill="none" stroke="#000" stroke-linecap="round" stroke-linejoin="round" stroke-width="1.42"/><path d="M1285.5,1375.7a18.1,18.1,0,0,0,8.3-7.7,23.1,23.1,0,0,0,2.3-8.4,34.1,34.1,0,0,0,.1-4.6,13.6,13.6,0,0,0-.6-3.3,11.3,11.3,0,0,0-2.9-4.2,11.6,11.6,0,0,0-6.2-2.9,15.5,15.5,0,0,0-5.2.2,37.2,37.2,0,0,0-4.7,1.1,22.6,22.6,0,0,0-7.6,4.3,20,20,0,0,0-4.2,5.2c-.4.9-.8,1.8-1.5,3.7a51.5,51.5,0,0,0-1.9,5.7c-2,6.8-3,18-3.2,20.8-.7,7.9-.7,13.4-.7,14.8a134.3,134.3,0,0,0,.9,13.7,23.2,23.2,0,0,0,2.1,8.1,12.6,12.6,0,0,0,3.5,5.2c3,2.6,6.5,2.8,9.6,3a29.3,29.3,0,0,0,12.7-2.3c3.4-1.5,5.7-3.3,10.1-6.8a116.9,116.9,0,0,0,9.2-8c.9-1.6,1.9-3.2,2.9-4.8" transform="translate(-41.7 -25.9)" fill="none" stroke="#000" stroke-linecap="round" stroke-linejoin="round" stroke-width="1.42"/><path d="M1296.8,1322.2a16.9,16.9,0,0,0-11.5-4.9,37.6,37.6,0,0,0-10.8.7,57.5,57.5,0,0,0-8.7,2.1,48.1,48.1,0,0,0-8.3,3.6,33.3,33.3,0,0,0-7.7,5.3c-3.8,3.7-5.3,7.8-7.4,13.9a123.8,123.8,0,0,0-3.4,12.9c-1,4.3-2.3,10.3-3.7,18.8s-1.7,12.2-2.5,19.8-1.6,16.1-2,22.1c-.3,4.2-.6,9.3-.8,15.2-.4,10.7-.3,16.6,1.3,23.2a23.5,23.5,0,0,0,3.7,8.5,23.9,23.9,0,0,0,6.3,5.9c6.7,4.3,13.7,4.3,17.9,4.4s10.4,0,17.3-3.7c2.4-1.3,5.7-3.1,8-6.7,1.3-2,1.8-3.9,2.8-7.2a68.3,68.3,0,0,0,1.8-9c.6-4.2.9-7.3,1.2-10.7s.6-6.6.8-11" transform="translate(-41.7 -25.9)" fill="none" stroke="#000" stroke-linecap="round" stroke-linejoin="round" stroke-width="1.42"/><path d="M1227.3,1616.4a25.6,25.6,0,0,1-9.6-8.7c-2.3-3.5-3.5-7.4-4.1-14.5-.3-3.9-.8-12.8,2.7-33.3,1.7-10.4,3.3-16.6,3.8-18.5a120.3,120.3,0,0,1,6.9-19.8c2.7-5.9,4.6-8.5,6.8-10.7a27.6,27.6,0,0,1,8.5-5.9,19.6,19.6,0,0,1,9.1-2.5,18.4,18.4,0,0,1,6.1,1,19.9,19.9,0,0,1,9.9,7.5" transform="translate(-41.7 -25.9)" fill="none" stroke="#000" stroke-linecap="round" stroke-linejoin="round" stroke-width="1.42"/><path d="M1289.4,1473.1a37,37,0,0,1,2.5,6.7,33.4,33.4,0,0,1,1,8.1,119.4,119.4,0,0,1-1.5,22.2c-1.1,5.4-1.1,3.2-3.8,14.1a147,147,0,0,1-4.8,15.8l-2.4,4.6c-1.4,2.9-1.9,3.7-2.6,3.7s-1-1.1-2.3-3a21.7,21.7,0,0,0-3.4-3.5,13.5,13.5,0,0,0-6.3-2.4,16.6,16.6,0,0,0-12,3.4,17,17,0,0,0-5.2,6.9,26.4,26.4,0,0,0-2.9,9.7c-.3,4.1-.6,6.8,1.1,9.3,3.1,4.8,10.4,4.8,12.2,4.8a23,23,0,0,0,6.7-1.1c5.4-1.6,8-4.2,9.2-3.2s.4,1.1.1,4.3c-.6,6.7-.4,5.5-.6,6.5a165.4,165.4,0,0,1-3.4,17.3,16.5,16.5,0,0,1-.6,2.4c-.4,1.1-.6,2-.8,2.3-.6,1.9-.7,2.6-1.7,5.9s-1.1,3.9-1.5,5.2c-1.2,3.4-1.9,4.6-2.7,5.5a8.3,8.3,0,0,1-2.1,2.1" transform="translate(-41.7 -25.9)" fill="none" stroke="#000" stroke-linecap="round" stroke-linejoin="round" stroke-width="1.42"/><path d="M1193.6,1778c2.6-7,4.9-13.2,6.7-18.4,6.2-17.4,10.4-31,13.3-40.5,2.1-6.9,3.4-11.3,5.5-18.5,1.1-3.7,2-6.8,3-10.7s1.8-6.8,2.4-9.8,2.4-11.6,2.9-16.2a15.7,15.7,0,0,1,.5-3.1,14.7,14.7,0,0,1,1.1-3.4c.8-1.5,1.5-2.9,2.9-3.5a3.4,3.4,0,0,1,3,.1,3.9,3.9,0,0,1,1.4,2.6,14.9,14.9,0,0,1,.2,4.4c0,1.5-.1,1.8-.1,3.1s.1,2.7.6,3.1.9.2,3.1-.8a22.2,22.2,0,0,0,3.4-1.6,59,59,0,0,0,5.8-3.6,44.9,44.9,0,0,0,4.2-3.1c2.5-2.4,3.5-5,4.8-8.6a91.6,91.6,0,0,0,2.6-10.1c.3-1.4.7-3.9,1.6-8.9a24.1,24.1,0,0,0,.2-6.8c-.3-1.7-.6-2.5-1.1-3s-1.2-.6-4.8-.5-4.1.4-6.1.2a10.8,10.8,0,0,1-2.7-.5l-3.8-1a49.1,49.1,0,0,0-9.2-1.7c-4.7-.7-7.1-1.1-8.7-.7s-3.2,1.3-5.8,3a24.5,24.5,0,0,0-5.8,4.7,22.4,22.4,0,0,0-4.2,7.5c-.4,1-.9,2.7-1.8,9.1s-.7,7.6-1.6,14.2c0,.4-.3,2.4-.9,6.3s-1,6.6-1.3,9.1-.2,1.4-.7,5.8-1.1,8.6-1.4,10.9c-.7,4.5-.7,4.1-1.5,9.2-1,6.7-.9,7.6-2,14.8-.4,2.9-.8,5-1.4,8.5-1,5.9-1.8,10.1-2,11.1-.6,3.6-1.1,6.4-2,10.2a90.4,90.4,0,0,1-2.1,8.8,33.1,33.1,0,0,1-4.2,8.8,26.7,26.7,0,0,1-3.7,4.3,48.1,48.1,0,0,1-7.3,6.3" transform="translate(-41.7 -25.9)" fill="none" stroke="#000" stroke-linecap="round" stroke-linejoin="round" stroke-width="1.42"/><path d="M1251.9,1624.4a37.7,37.7,0,0,0-1.7,4.9,65.2,65.2,0,0,0-1.6,8.4c-.5,3.7-1.2,6.7-2.6,12.8-.5,2.3-1.2,5.1-2,8.3" transform="translate(-41.7 -25.9)" fill="none" stroke="#000" stroke-linecap="round" stroke-linejoin="round" stroke-width="1.42"/><path d="M1251.5,1617.2a137.1,137.1,0,0,1,3.3-13.6c.7-2.4,2-6.2,2.7-8.4s1.5-4.4,1.9-5.8" transform="translate(-41.7 -25.9)" fill="none" stroke="#000" stroke-linecap="round" stroke-linejoin="round" stroke-width="1.42"/><path d="M1283.7,1537.4a36.7,36.7,0,0,0-13.5-8.9,24.3,24.3,0,0,0-6.6-1.2,20.5,20.5,0,0,0-9.7,1.6c-4.9,2.1-7.3,5.9-9.8,9.8s-4,8.3-6.7,16.5c-.8,2.4-1.3,3.9-1.9,6.1-2.2,7.5-2.5,10.3-2.5,12.8s.8,5.3,1.1,6a9.2,9.2,0,0,0,4.8,3.7c.6.3,1.5.5,4.3.6a34.4,34.4,0,0,0,7.2,0,33.6,33.6,0,0,0,10.9-2.4,26.2,26.2,0,0,0,7.9-5.2" transform="translate(-41.7 -25.9)" fill="none" stroke="#000" stroke-linecap="round" stroke-linejoin="round" stroke-width="1.42"/><path d="M1103.2,1763.4c10.3-.2,18.7-.3,24.4-.2,12.4,0,19.2.4,34.9.4h14.6" transform="translate(-41.7 -25.9)" fill="none" stroke="#000" stroke-linecap="round" stroke-linejoin="round" stroke-width="1.42"/><path d="M1147.6,1763.5a27.3,27.3,0,0,1-6.1-9.1,33.5,33.5,0,0,1-2.3-10.1,70.8,70.8,0,0,1-.4-9c0-8,0-12.1.3-17.4s.8-9.9,1.8-20c.4-3.5.8-8.1,1.8-17.3.4-4.6.7-6.9.9-10.2s.5-6.1.9-12.2c.6-12,.8-18.8.9-23.6.2-7.6,0-9.9-.5-12.8a46.5,46.5,0,0,0-4-11.3,39.3,39.3,0,0,0-6.6-10.4c-3.4-3.7-6.7-5.6-10.3-7.7s-8.5-4-16-6.6a129.2,129.2,0,0,0-20.2-5.6c-.8-.2-10.8-2-11.2-.6s6.2,2.1,10.5,8c1.4,2,2.1,4.3,3.7,8.9a77.5,77.5,0,0,1,2.9,12.6,81.8,81.8,0,0,1,.6,12.6c.1,22,.2,19.3.1,23.1-.2,9.8-.3,14.7-.9,21.4l-2.3,17.7c-1.3,10.4-2,15.6-2.3,18.2-1.4,10.2-1.3,8.2-3,20.3-.8,5.9-1.4,10.6-2.6,17.2s-.7,3.3-1.6,8a60,60,0,0,1-2.4,10,12.2,12.2,0,0,1-1.3,2.8,16.8,16.8,0,0,1-3.9,4.9,22.1,22.1,0,0,1-5.7,3.9c-5.5,2.7-10.7,2.5-17.4,2.2a31.1,31.1,0,0,1-9.2-1.6,10.4,10.4,0,0,1-5.1-3,9.5,9.5,0,0,1-1.8-2.9,14.9,14.9,0,0,1-.8-3.8c-.5-3.3-.3-3.4-.6-5.3s-.1-.4-1.2-4.3-1-3.6-.5-4.1,1.4-.3,3.3-.9a11,11,0,0,0,3.3-1.9,10.1,10.1,0,0,0,2.8-4.8,29.5,29.5,0,0,0,1.1-4.2,57.7,57.7,0,0,0,.4-10.9c-.3-5-.7-8.8-.8-9.8-.5-4.8-1.1-8.5-1.8-12.4s-1-5.9-2-11.2c-1.7-8.9-1.6-9-2.6-14.5-2.3-11.7-4.4-19.6-6.5-29.7-.9-4.3-1.4-6.5-1.4-6.5-.7-3.7-.7-3.8-1-5.1-1-4.2-1.6-4.3-2.3-7.6s-.3-2.7-1.1-8.1c-.3-2.2-.7-3.8-1.3-7.1s-1.7-7.6-1.8-8.3-.5-1.8-1.1-4.4c-1.3-5.1-2-8.4-2.5-10.7-1.1-5.4-1.1-6.8-.9-8.4a15.8,15.8,0,0,1,1.6-4.5,8,8,0,0,1,1.8-2.7,6.6,6.6,0,0,1,5.1-.9,61.1,61.1,0,0,1,13.5,3.5c2.6.9,5.5,2.3,11.5,5a21.3,21.3,0,0,1,5.9,3.7,24.3,24.3,0,0,1,2.7,2.8,15.8,15.8,0,0,1,2.1,5.5c.6,2.8.9,4.9,1.3,7.8s.8,7.4,1.3,11.1a8.6,8.6,0,0,1-.3,4.7,6.3,6.3,0,0,1-2.7,3.5c-1.2.7-2.3.6-4.1.6a26.1,26.1,0,0,1-5.8-.9,40.2,40.2,0,0,1-6.6-2.5c-3.1-1.6-4.7-2.4-6-4s-1.8-4.1-3.8-14.5c0,0-.1-.6-.4-3.6s-.3-2.9,0-3.2,3.1-.4,5.4.2,5.5,1.5,6.4,3.4.5,1.9.6,4.2,0,3.1-.1,4.1" transform="translate(-41.7 -25.9)" fill="none" stroke="#000" stroke-linecap="round" stroke-linejoin="round" stroke-width="1.42"/><path d="M1043.1,1636.2a23,23,0,0,0,.6,6,11,11,0,0,0,2,4.6,11.7,11.7,0,0,0,3.3,2.9,18.2,18.2,0,0,0,4.5,2.4,26.7,26.7,0,0,0,6,.7h8.9a11.7,11.7,0,0,0,2.5-.3,5.5,5.5,0,0,0,2-1.2,4.9,4.9,0,0,0,1-1.8,14.5,14.5,0,0,0,.5-4.8V1642c-.1-.9-.1-1.4-.2-2a9.6,9.6,0,0,0-.8-3,7.2,7.2,0,0,0-2.5-2.8,8.3,8.3,0,0,0-2.7-1,8.4,8.4,0,0,0-1.6,0" transform="translate(-41.7 -25.9)" fill="none" stroke="#000" stroke-linecap="round" stroke-linejoin="round" stroke-width="1.42"/><path d="M1058.8,1652.7c1.6,16.1,2.9,29.5,3.9,39.6.4,4.3,1.1,10.8,1.4,19,.1,1.7,0,.7.2,7.5.3,8.4.4,10.1.2,13a59.5,59.5,0,0,1-1.1,8c-1.3,6.4-2,10-4.9,13.2a13.7,13.7,0,0,1-10.7,4.5" transform="translate(-41.7 -25.9)" fill="none" stroke="#000" stroke-linecap="round" stroke-linejoin="round" stroke-width="1.42"/><path d="M1103.5,1599.3a63.2,63.2,0,0,1,12.4,7.7,28.3,28.3,0,0,1,5.2,4.9,29.6,29.6,0,0,1,4.3,8.2,63.9,63.9,0,0,1,1.6,6.2,60.2,60.2,0,0,1,1,9.3,113.3,113.3,0,0,1,.1,12.1c-.2,6.3-.6,11.1-1,15-.5,5.5-.7,5.2-1.6,13.9-.5,5.6-.8,8.3-.9,11.2s-.2,4.6-.3,8.3c-.1,1.6-.1,2.6-1,16.3-.2,4.3-.6,10.5-1.3,15.2-.2,1.8-.5,3.4-.7,4.5a46.4,46.4,0,0,1-1.1,5,12.7,12.7,0,0,1-2.4,4.6,9.7,9.7,0,0,1-5.1,3.4,13.2,13.2,0,0,1-4.9.4,18.6,18.6,0,0,1-3.4-.4,11.1,11.1,0,0,1-6.2-4,11.8,11.8,0,0,1-1.5-3.2,12.7,12.7,0,0,1,.3-6.9c.7-2.3,1.7-5.7,4.4-6.7a9,9,0,0,1,3.2-.5,31.6,31.6,0,0,1,4.2-.1" transform="translate(-41.7 -25.9)" fill="none" stroke="#000" stroke-linecap="round" stroke-linejoin="round" stroke-width="1.42"/><path d="M1111.8,1685.6a20,20,0,0,0,6.3,1.9,17.2,17.2,0,0,0,3.2.2,29.6,29.6,0,0,0,3.1-.3l.2,2.9-3.5-.5a18.9,18.9,0,0,1-3.4-.9A22.9,22.9,0,0,1,1111.8,1685.6Z" transform="translate(-41.7 -25.9)"/><path d="M1108.9,1646.4a25.4,25.4,0,0,0,8.9,5.3,28.6,28.6,0,0,0,10,1.5v2.8a29.5,29.5,0,0,1-10.5-3A25.5,25.5,0,0,1,1108.9,1646.4Z" transform="translate(-41.7 -25.9)"/><path d="M1106.7,1707.9a13.2,13.2,0,0,0,8.4,1.7,17.6,17.6,0,0,0,4.1-1,14.6,14.6,0,0,0,3.7-2l1.4,2.4a18.5,18.5,0,0,1-9.1,2,14.5,14.5,0,0,1-4.6-.9A12.6,12.6,0,0,1,1106.7,1707.9Z" transform="translate(-41.7 -25.9)"/><path d="M1139,1721.1c6.4.3,10.6.4,13.5.3,0,0,1.9,0,5.5.4s4.7.6,5.8,1.3a8.7,8.7,0,0,1,2.9,2.6c.4.6,1.5,2.3,1.3,8.6a26.4,26.4,0,0,1-.8,7.7c-.8,2.8-1.7,5.9-4.4,7.2a8.9,8.9,0,0,1-3.7.6c-2.8.1-5.4.2-7.1-1.4s-1.5-3-1.7-6.2a25.6,25.6,0,0,1,.4-7.7" transform="translate(-41.7 -25.9)" fill="none" stroke="#000" stroke-linecap="round" stroke-linejoin="round" stroke-width="1.42"/><path d="M1162.9,1682.9a13.4,13.4,0,0,1,5-.8c1.7,0,3.2,0,4.6.9a7.9,7.9,0,0,1,3,4.1,14.5,14.5,0,0,1,.6,4.2c.1,1.2.1,1.8.1,4.4v4.3c0,2.2,0,7.7.3,21.7" transform="translate(-41.7 -25.9)" fill="none" stroke="#000" stroke-linecap="round" stroke-linejoin="round" stroke-width="1.42"/><path d="M1172,1698.8a6.1,6.1,0,0,1-1.5,2.4,6.4,6.4,0,0,1-2.3,1.6,7.7,7.7,0,0,1-4.2.4c-3.5-.8-5-4.1-5.3-4.7a10.6,10.6,0,0,1-.9-4.7,27.9,27.9,0,0,1,.3-6.1c2.1-13.5,1.8-12.4,2.4-14.9,3.7-17.3,5.5-18.5,6.7-19s5-.3,7.1.1a26.3,26.3,0,0,1,5.6,1.8" transform="translate(-41.7 -25.9)" fill="none" stroke="#000" stroke-linecap="round" stroke-linejoin="round" stroke-width="1.42"/><path d="M1173.5,1653.8c2.4-14.6,4-26.5,5-34.3,2.6-21.2,2.4-27.1,5.1-49.7.4-3.6,1.4-12.1,2.3-23.1.4-4.1.7-8.5.8-10.5.8-10.6.6-10.8,1.1-17.3,1-13.9,1.8-16.6,1.2-23.9a39,39,0,0,0-1.6-9.5,30.5,30.5,0,0,0-15.2-20.4,38,38,0,0,0-8.4-3.6" transform="translate(-41.7 -25.9)" fill="none" stroke="#000" stroke-linecap="round" stroke-linejoin="round" stroke-width="1.42"/><path d="M1189.7,1298.7a19.7,19.7,0,0,1,5.6,3.2c5.3,4.6,6.3,11.3,7.1,17,.3,2.1.5,4.3.4,12.4-.2,9.7-.6,17-.7,18-1,16.9-1.5,25.3-2.5,33.5s-1.4,11.4-2.5,17.3c-.7,3.8-1.4,7.3-2.1,12.6s-.7,7.3-.8,9.5" transform="translate(-41.7 -25.9)" fill="none" stroke="#000" stroke-linecap="round" stroke-linejoin="round" stroke-width="1.42"/><path d="M1149.2,1432.1a17.6,17.6,0,0,1,3.6,3.1,11.1,11.1,0,0,1,2.6,3.9,29.6,29.6,0,0,1,.4,5v3.7c-.3,2.7-.4,4-1.4,5s-3.8,1.3-5.6,1.1a8.9,8.9,0,0,1-8.1-6.2,26,26,0,0,1-1.9-8.9,89.7,89.7,0,0,1,.7-13.8c.8-7.1,1.1-10.6,1.4-12.9s.7-6.6,1.4-13.8c1-9.3.9-8.2,3-28.9.7-7.1.9-9,1.1-12.3.1-1.6.5-7.6.7-15.9s-.2-4.7-.2-15.8a44.9,44.9,0,0,0-1.1-8.7,11.6,11.6,0,0,0-1.7-4.3c-1.4-2-3-2.6-2.8-3.1s1-.4,6.1,0a24.6,24.6,0,0,1,4.3.4,36.2,36.2,0,0,1,4.6,1l5.2,1.4a37.1,37.1,0,0,0,5,.7l2.8.3a38.4,38.4,0,0,1,11.9,3.3c2.4,1.2,4.9,2.4,7,5.2a18.3,18.3,0,0,1,3.2,7,36.3,36.3,0,0,1,.8,8.4c0,2.3-.1,4-.2,5.4-.2,3.9-.7,6.8-.8,7.9-.7,4.8-1.2,9.5-1.8,14.3-2.2,16.3-1.6,16.3-3.1,25.4-.4,2-.5,2.6-2.1,11.9l-1.5,8.7c-.8,4.6-1,6-1.5,8.4-1,4.1-1.5,6.2-2.7,8.2a13.8,13.8,0,0,1-5.1,4.6,12.9,12.9,0,0,1-8.2.8,15.7,15.7,0,0,1-7-2.8c-1.7-1.1-3.3-2.1-4.2-4.1a10.2,10.2,0,0,1-.7-3.1,33.5,33.5,0,0,1-.4-6c.4-9,.6-15,3.8-17.6a8.5,8.5,0,0,1,2.7-1.6,12.3,12.3,0,0,1,4.4-.5c3,.1,4.6.1,5.9,1.1a7.6,7.6,0,0,1,2.5,4.5,11.9,11.9,0,0,1,.1,4.5,35.9,35.9,0,0,1-1.4,7.4c-1.1,4-1.7,6-3.1,6.5s-3.5-.3-4.5-1.6-.8-2.6-.7-4.6a17.8,17.8,0,0,1,1.5-6" transform="translate(-41.7 -25.9)" fill="none" stroke="#000" stroke-linecap="round" stroke-linejoin="round" stroke-width="1.42"/><path d="M1170.7,1381.1a16.3,16.3,0,0,1-4,3.1c-1.5.7-4,2-7,1.4a6.7,6.7,0,0,1-5.8-8.4,11.6,11.6,0,0,1,2.8-6c1.4-1.8,3.2-4.1,6.2-4.6s5.2.8,6.9,1.7a18,18,0,0,1,4,3.1c3.3,3.5,3.7,6.6,4.7,6.5s.8-.7,1.6-8.5c.3-3,.5-5.2.8-8.9s.3-4,.5-6c.6-7.2.8-10.8.5-14.2s-.7-6.4-2.3-9.2c-3.1-5.5-8.6-7.6-14.1-9.7s-9.5-2.7-9.9-1.9,1.2,1.2,2.7,3.4a18,18,0,0,1,2.2,4.6c2.5,8.2.9,27.3.9,27.3q-.7,7.7-1.2,12.9" transform="translate(-41.7 -25.9)" fill="none" stroke="#000" stroke-linecap="round" stroke-linejoin="round" stroke-width="1.42"/><path d="M1005.4,1391a7.3,7.3,0,0,1,3.6,1.1,5.1,5.1,0,0,1,1.9,6.8,4.6,4.6,0,0,1-2.4,2.1,4.2,4.2,0,0,1-3.1,0c-.7-.3-.9-.7-2.5-1.5a2.6,2.6,0,0,0-3,.4c-1.1.9-1.1,2.5-1.2,4.5a19.2,19.2,0,0,0,.4,3.8c.3,1.8.5,2.7,1.1,3.4s.9.9,3.5,1.5a29.1,29.1,0,0,0,5.7.4h5.4c3.3-.3,5-.4,6.8-1.3a12.4,12.4,0,0,0,4.8-5c1.4-2.4,1.8-4.4,2.5-7.4s.4-4.1,1.1-10.9c.4-3.4.6-5,.9-6.6.8-4,1.5-7.1,3.9-9.8a32.9,32.9,0,0,1,4.3-3.4c2.9-2.2,4.1-3,6.5-4.7s4.5-3.5,6-4.7c3.2-2.5,5.4-3.7,13.7-8.3,12.2-6.8,12.9-7.4,18.5-10.2a68.2,68.2,0,0,1,11.7-5.1l7.6-2c4.4-1.2,6.1-1.6,8.5-1.6a12.9,12.9,0,0,1,5.5.7,17.7,17.7,0,0,1,4.3,2.8,9.7,9.7,0,0,1,2.7,3.1,6.9,6.9,0,0,1,.9,3.6c.4,14.1-5.3,50.2-5.3,50.2-1.9,11.6-3.9,28.2-5,34.3a39.8,39.8,0,0,0-.7,4.4,37.5,37.5,0,0,0-.6,7.2c.3,2.4.6,5.9,3.1,7.2a5.4,5.4,0,0,0,5.5-.8c.8-.6,1.1-1.3,1.9-3.5a55.8,55.8,0,0,0,2.2-6.6" transform="translate(-41.7 -25.9)" fill="none" stroke="#000" stroke-linecap="round" stroke-linejoin="round" stroke-width="1.42"/><path d="M989.9,1422.8a12.5,12.5,0,0,0,2.9,4.9,12.1,12.1,0,0,0,4.5,2.8c2.2.9,3.1.8,10.3,1.6l6.3.7,5.7.6c1.2.2,6,.7,12.4,1,3.5.2,5.6.2,9.9.2s6.8-.1,9.2-1.4a10.8,10.8,0,0,0,3.8-3.4,11.9,11.9,0,0,0,1.7-4.2,30.1,30.1,0,0,0,.6-7.3c.1-5.1.1-7.7,0-9.9-.1-3.8-.2-4.7.4-6.1a10.3,10.3,0,0,1,4.3-4.8c1.4-.9,3.2-1.7,8.4-2.5a104,104,0,0,1,10.6-.6c9.3-.2,11,.3,12.1.6s6.2,2,7.7,5.6c.4,1,.4,1.6.3,5.1-.3,6.8-.4,10.2-1,12s-1.8,5.6-4.7,7.4a11.4,11.4,0,0,1-4.9,1.4,20.2,20.2,0,0,1-6.4-.2,23.1,23.1,0,0,1-6.3-2.4" transform="translate(-41.7 -25.9)" fill="none" stroke="#000" stroke-linecap="round" stroke-linejoin="round" stroke-width="1.42"/><path d="M1089.7,1415.3a9.9,9.9,0,0,0-1.4-4.2,7.8,7.8,0,0,0-2.2-2.4,5.4,5.4,0,0,0-3.3-1.3,6.8,6.8,0,0,0-3.3.7,5.2,5.2,0,0,0-2.2,1.6c-.3.4-.6,1-.3,4.7.1,1.6.2,1.9.4,4s.1,1.7.1,2.7.2,2.7.3,5.5.1,3.7.2,5c.2,3,.3,4.5.7,5.4a9.3,9.3,0,0,0,3.5,3.6,15.1,15.1,0,0,0,4.3,2.5c2.6,1,4.8,1,9.1,1l5.6-.3,3.1-.3c.5-.2,2.4-.8,5.1-3.9a24.1,24.1,0,0,0,4.4-6.6" transform="translate(-41.7 -25.9)" fill="none" stroke="#000" stroke-linecap="round" stroke-linejoin="round" stroke-width="1.42"/><path d="M1013.1,1413.5a20.1,20.1,0,0,0-.2,3.8c0,1.9,0,2.9.5,3.7s2.8,1.9,6.9,2.9a41.7,41.7,0,0,0,4.9.9c3.2.4,4.9.6,6.7,0a7.2,7.2,0,0,0,3.9-2.6,8.1,8.1,0,0,0,1.3-3,18.2,18.2,0,0,0,.7-4.4c.2-2.3.3-3.9.4-4.5a53.5,53.5,0,0,1,1.1-7.7c.6-3.6,1.2-6.3,1.6-8.4s1.2-5.4,1.9-8c1.2-4.4,1.8-6.6,2.6-8,1.7-3,4.2-4.8,9.2-8.3,2.1-1.4,3.9-2.6,6.3-4,0,0,11.4-6.7,23.1-12.2l6.5-2.7a19.9,19.9,0,0,1,10.3-2.1c2.4.2,3.6.3,4.9,1.1a7.6,7.6,0,0,1,2.5,3.6c.3.8.7,2,.7,6.3,0,2.1-.1,3.4-.3,6.7-.2,5.3-.1,4.7-.2,5.8s-.8,8.1-4.7,13.2a18.5,18.5,0,0,1-4.4,4.5,25.9,25.9,0,0,1-9.7,4.4" transform="translate(-41.7 -25.9)" fill="none" stroke="#000" stroke-linecap="round" stroke-linejoin="round" stroke-width="1.42"/><path d="M1086.9,1381.4a20,20,0,0,0,2.7-1.9,9.4,9.4,0,0,0,2.5-2.2,13.2,13.2,0,0,0,.8-9.3,4.6,4.6,0,0,0-2-2.6c-1-.3-1.9,0-3.5.8s-4.3,1.9-5.5,2.6a49.4,49.4,0,0,0-6.4,3.9c-1.6,1.1-2.3,1.7-2.8,2.8a8.8,8.8,0,0,0-.6,3.5,21.3,21.3,0,0,0,0,4.4,17,17,0,0,0,1.3,5.3,18.2,18.2,0,0,0,3.8,5.8" transform="translate(-41.7 -25.9)" fill="none" stroke="#000" stroke-linecap="round" stroke-linejoin="round" stroke-width="1.42"/><path d="M1133.3,1488.3c3.5,4.8,4.2,9.3,5.3,16.1a62.6,62.6,0,0,1-.1,24.2c-1.7,7.6-3.6,16.5-11.3,23-6,5.1-12.8,6.6-16.1,7.3a48.3,48.3,0,0,1-15,.5c-7-.6-14.7-1.2-22.3-6.3a35,35,0,0,1-8.9-8.7,54.6,54.6,0,0,1-8.1-25.6c-.3-4.8-1.2-22.4,11-34.5a39,39,0,0,1,13.5-8.6,44.2,44.2,0,0,1,20.9-2.5,55.2,55.2,0,0,1,17.2,4.9C1124.5,1480.6,1129.4,1483,1133.3,1488.3Z" transform="translate(-41.7 -25.9)" fill="none" stroke="#000" stroke-linecap="round" stroke-linejoin="round" stroke-width="2.27"/><path d="M1050.3,1493.7a79.6,79.6,0,0,0-6.4-20.8,66.8,66.8,0,0,0-10.6-16.8c-5.3-6-8.6-7.4-8.1-8.7s11.3.2,43.4,7.7c12.6,3,25.4,5.9,38,9s16.4,4.2,24,5.4c2.4.4,6,1,11.1,2.2,9.7,2.4,13.8,4.6,15.1,5.3,3.4,1.9,7.1,3.9,9.4,8.1a29.9,29.9,0,0,1,2.2,5.3,36.1,36.1,0,0,1,1,7.3,61.4,61.4,0,0,1,0,8.1c-.8,12.5-.9,25.1-1.5,37.6-.5,10-1.3,20-1.5,30-.1,5-.2,15.7-1.4,15.8s-.8-5.1-4.8-9.8c-2.5-3.1-5.6-4.5-8.5-5.8a38.5,38.5,0,0,0-10.5-3.1,99.4,99.4,0,0,0-21.5-1.1" transform="translate(-41.7 -25.9)" fill="none" stroke="#000" stroke-linecap="round" stroke-linejoin="round" stroke-width="2.27"/><path d="M1131.7,1469.7a47.2,47.2,0,0,1,11.4,12.2,38.2,38.2,0,0,1,4.1,8.1c1.4,3.6,2.7,8.6,3.3,19.2.5,8.4.8,14-.9,21.4a58.7,58.7,0,0,1-13.1,26c-3.4,4-6.7,7.8-12.3,10.8-11.6,6.3-24,4.5-33.7,3a77.5,77.5,0,0,1-13.1-3.2c-5.6-2.1-11-4-15.8-8.8-2.3-2.3-3.5-4.2-5.9-7.9a63.4,63.4,0,0,1-7.4-15.6,58.2,58.2,0,0,1,1.2-39.1,61.2,61.2,0,0,1,13.4-21,57.9,57.9,0,0,1,26.7-14.8" transform="translate(-41.7 -25.9)" fill="none" stroke="#000" stroke-linecap="round" stroke-linejoin="round" stroke-width="2.27"/><path d="M1202.1,1350.7a22.7,22.7,0,0,1,5-7.1,24.2,24.2,0,0,1,7-4.7" transform="translate(-41.7 -25.9)" fill="none" stroke="#000" stroke-linecap="round" stroke-linejoin="round" stroke-width="1.42"/><path d="M1198.7,1389.8a29.3,29.3,0,0,1,13.2-13.7" transform="translate(-41.7 -25.9)" fill="none" stroke="#000" stroke-linecap="round" stroke-linejoin="round" stroke-width="1.42"/><path d="M1016.9,1555.2a11.7,11.7,0,0,1-3.3-1,6.3,6.3,0,0,1-2.9-1.8c-.7-.9-.8-1.8-1-3.4a16.4,16.4,0,0,1,.3-5.6c.6-2.4.9-3.8,2.1-4.3s1.2-.2,3.8.4,1.4.1,4.3.7l7.4,1.8a76.1,76.1,0,0,1,7.9,3l2.4,1.1a16.6,16.6,0,0,1,3.3,2.2,8.7,8.7,0,0,1,1.7,2.7c1.1,2.2,1.6,3.3,2,4.2s2.1,4.5,4.2,8.8" transform="translate(-41.7 -25.9)" fill="none" stroke="#000" stroke-linecap="round" stroke-linejoin="round" stroke-width="1.42"/><path d="M999.2,1511.2c.2.3,2.8,6,7.5,6.4a5.3,5.3,0,0,0,4.3-1.1,5.7,5.7,0,0,0,1.5-2c.2-.7.5-1.5.3-6.1-.1-2-.2-3.1-.2-3.5s-.3-2.5-.3-3c-.9-6.1-1.8-10.9-1.8-10.9-1.8-9.7-1.2-8.6-2.5-14.3a83.7,83.7,0,0,0-3.5-12.6c-1.7-4.6-2.9-7.9-5.5-11.8s-6.8-7.1-6.2-8.1,5.6.5,8.1,1.6a30.6,30.6,0,0,1,6.5,4.1,34,34,0,0,1,7,8.7,70,70,0,0,1,8.2,20.1c.8,3.3,1.3,7.2,2.2,14.7,1.2,9.5,1.9,17.3,2.6,24.5s1.3,14.9,2,24.7" transform="translate(-41.7 -25.9)" fill="none" stroke="#000" stroke-linecap="round" stroke-linejoin="round" stroke-width="1.42"/></g></svg>