<svg xmlns="http://www.w3.org/2000/svg" xmlns:xlink="http://www.w3.org/1999/xlink" viewBox="0 0 264.3 295.4"><defs><pattern id="_10_lpi_10_" data-name="10 lpi 10%" width="72" height="72" patternTransform="translate(4.1 22.8) rotate(-45)" patternUnits="userSpaceOnUse" viewBox="0 0 72 72"><rect width="72" height="72" fill="none"/><line x1="71.8" y1="68.4" x2="144.3" y2="68.4" fill="none" stroke="#231815" stroke-width="0.28"/><line x1="71.8" y1="54" x2="144.3" y2="54" fill="none" stroke="#231815" stroke-width="0.28"/><line x1="71.8" y1="39.6" x2="144.3" y2="39.6" fill="none" stroke="#231815" stroke-width="0.28"/><line x1="71.8" y1="25.2" x2="144.3" y2="25.2" fill="none" stroke="#231815" stroke-width="0.28"/><line x1="71.8" y1="10.8" x2="144.3" y2="10.8" fill="none" stroke="#231815" stroke-width="0.28"/><line x1="71.8" y1="61.2" x2="144.3" y2="61.2" fill="none" stroke="#231815" stroke-width="0.28"/><line x1="71.8" y1="46.8" x2="144.3" y2="46.8" fill="none" stroke="#231815" stroke-width="0.28"/><line x1="71.8" y1="32.4" x2="144.3" y2="32.4" fill="none" stroke="#231815" stroke-width="0.28"/><line x1="71.8" y1="18" x2="144.3" y2="18" fill="none" stroke="#231815" stroke-width="0.28"/><line x1="71.8" y1="3.6" x2="144.3" y2="3.6" fill="none" stroke="#231815" stroke-width="0.28"/><line x1="71.5" y1="72" x2="144" y2="72" fill="none" stroke="#231815" stroke-width="0.28"/><line x1="71.5" y1="57.6" x2="144" y2="57.6" fill="none" stroke="#231815" stroke-width="0.28"/><line x1="71.5" y1="43.2" x2="144" y2="43.2" fill="none" stroke="#231815" stroke-width="0.28"/><line x1="71.5" y1="28.8" x2="144" y2="28.8" fill="none" stroke="#231815" stroke-width="0.28"/><line x1="71.5" y1="14.4" x2="144" y2="14.4" fill="none" stroke="#231815" stroke-width="0.28"/><line x1="71.5" y1="64.8" x2="144" y2="64.8" fill="none" stroke="#231815" stroke-width="0.28"/><line x1="71.5" y1="50.4" x2="144" y2="50.4" fill="none" stroke="#231815" stroke-width="0.28"/><line x1="71.5" y1="36" x2="144" y2="36" fill="none" stroke="#231815" stroke-width="0.28"/><line x1="71.5" y1="21.6" x2="144" y2="21.6" fill="none" stroke="#231815" stroke-width="0.28"/><line x1="71.5" y1="7.2" x2="144" y2="7.2" fill="none" stroke="#231815" stroke-width="0.28"/><line x1="-0.3" y1="68.4" x2="72.3" y2="68.4" fill="none" stroke="#231815" stroke-width="0.28"/><line x1="-0.3" y1="54" x2="72.3" y2="54" fill="none" stroke="#231815" stroke-width="0.28"/><line x1="-0.3" y1="39.6" x2="72.3" y2="39.6" fill="none" stroke="#231815" stroke-width="0.28"/><line x1="-0.3" y1="25.2" x2="72.3" y2="25.2" fill="none" stroke="#231815" stroke-width="0.28"/><line x1="-0.3" y1="10.8" x2="72.3" y2="10.8" fill="none" stroke="#231815" stroke-width="0.28"/><line x1="-0.3" y1="61.2" x2="72.3" y2="61.2" fill="none" stroke="#231815" stroke-width="0.28"/><line x1="-0.3" y1="46.8" x2="72.3" y2="46.8" fill="none" stroke="#231815" stroke-width="0.28"/><line x1="-0.3" y1="32.4" x2="72.3" y2="32.4" fill="none" stroke="#231815" stroke-width="0.28"/><line x1="-0.3" y1="18" x2="72.3" y2="18" fill="none" stroke="#231815" stroke-width="0.28"/><line x1="-0.3" y1="3.6" x2="72.3" y2="3.6" fill="none" stroke="#231815" stroke-width="0.28"/><line x1="-0.5" y1="72" x2="72" y2="72" fill="none" stroke="#231815" stroke-width="0.28"/><line x1="-0.5" y1="57.6" x2="72" y2="57.6" fill="none" stroke="#231815" stroke-width="0.28"/><line x1="-0.5" y1="43.2" x2="72" y2="43.2" fill="none" stroke="#231815" stroke-width="0.28"/><line x1="-0.5" y1="28.8" x2="72" y2="28.8" fill="none" stroke="#231815" stroke-width="0.28"/><line x1="-0.5" y1="14.4" x2="72" y2="14.4" fill="none" stroke="#231815" stroke-width="0.28"/><line x1="-0.5" y1="64.8" x2="72" y2="64.8" fill="none" stroke="#231815" stroke-width="0.28"/><line x1="-0.5" y1="50.4" x2="72" y2="50.4" fill="none" stroke="#231815" stroke-width="0.28"/><line x1="-0.5" y1="36" x2="72" y2="36" fill="none" stroke="#231815" stroke-width="0.28"/><line x1="-0.5" y1="21.6" x2="72" y2="21.6" fill="none" stroke="#231815" stroke-width="0.28"/><line x1="-0.5" y1="7.2" x2="72" y2="7.2" fill="none" stroke="#231815" stroke-width="0.28"/><line x1="-72.3" y1="68.4" x2="0.3" y2="68.4" fill="none" stroke="#231815" stroke-width="0.28"/><line x1="-72.3" y1="54" x2="0.3" y2="54" fill="none" stroke="#231815" stroke-width="0.28"/><line x1="-72.3" y1="39.6" x2="0.3" y2="39.6" fill="none" stroke="#231815" stroke-width="0.28"/><line x1="-72.3" y1="25.2" x2="0.3" y2="25.2" fill="none" stroke="#231815" stroke-width="0.28"/><line x1="-72.3" y1="10.8" x2="0.3" y2="10.8" fill="none" stroke="#231815" stroke-width="0.28"/><line x1="-72.3" y1="61.2" x2="0.3" y2="61.2" fill="none" stroke="#231815" stroke-width="0.28"/><line x1="-72.3" y1="46.8" x2="0.3" y2="46.8" fill="none" stroke="#231815" stroke-width="0.28"/><line x1="-72.3" y1="32.4" x2="0.3" y2="32.4" fill="none" stroke="#231815" stroke-width="0.28"/><line x1="-72.3" y1="18" x2="0.3" y2="18" fill="none" stroke="#231815" stroke-width="0.28"/><line x1="-72.3" y1="3.6" x2="0.3" y2="3.6" fill="none" stroke="#231815" stroke-width="0.28"/><line x1="71.5" x2="144" fill="none" stroke="#231815" stroke-width="0.28"/><line x1="-0.5" x2="72" fill="none" stroke="#231815" stroke-width="0.28"/></pattern></defs><g id="scale-1:10"><path d="M194.6,292.7v9.9H52.8v-10" transform="translate(-7.7 -7.5)" fill="none" stroke="#040000" stroke-miterlimit="10" stroke-width="0.5"/><line x1="73.5" y1="285.2" x2="73.5" y2="295.2" fill="none" stroke="#040000" stroke-miterlimit="10" stroke-width="0.5"/><line x1="101.8" y1="285.2" x2="101.8" y2="295.2" fill="none" stroke="#040000" stroke-miterlimit="10" stroke-width="0.5"/><line x1="130.2" y1="285.2" x2="130.2" y2="295.2" fill="none" stroke="#040000" stroke-miterlimit="10" stroke-width="0.5"/><line x1="158.5" y1="285.2" x2="158.5" y2="295.2" fill="none" stroke="#040000" stroke-miterlimit="10" stroke-width="0.5"/><text transform="translate(41.5 280.7)" font-size="14.17" fill="#040000" font-family="SimSun">0</text><text transform="translate(179.5 280.7)" font-size="14.17" fill="#040000" font-family="SimSun">50cm</text></g><g id="outline"><path d="M203.7,251.3,8,249.1V7.8L203.9,9.3Q203.9,130.4,203.7,251.3Z" transform="translate(-7.7 -7.5)" fill="none" stroke="#231815" stroke-linecap="round" stroke-linejoin="round" stroke-width="0.57" opacity="0.89"/><path d="M198.6,15.7q0,115.1-.1,230.1l-90.4-.6-94.8-1.1V14.1c31.7.3,63.4.7,95.2.9Zm-5.4,224.6q.2-110,.2-219.7L18.8,19.2q.1,109.7.1,219.3l89.4,1Z" transform="translate(-7.7 -7.5)" fill="url(#_10_lpi_10_)"/><path d="M198.5,245.8l-90.4-.6-94.8-1.1V14.1c31.7.3,63.4.7,95.2.9l90.2.7Q198.6,130.8,198.5,245.8Z" transform="translate(-7.7 -7.5)" fill="none" stroke="#231815" stroke-linecap="round" stroke-linejoin="round" stroke-width="0.43"/><path d="M193.2,240.3l-84.9-.8-89.4-1q0-109.6-.1-219.3l174.6,1.4Q193.3,130.4,193.2,240.3Z" transform="translate(-7.7 -7.5)" fill="none" stroke="#231815" stroke-linecap="round" stroke-linejoin="round" stroke-width="0.43"/><path d="M105,15v2.8" transform="translate(-7.7 -7.5)" fill="none" stroke="#231815" stroke-linecap="round" stroke-linejoin="round" stroke-width="0.28"/><path d="M105,23.6l.6,215.9" transform="translate(-7.7 -7.5)" fill="none" stroke="#231815" stroke-linecap="round" stroke-linejoin="round" stroke-width="0.28" stroke-dasharray="5.76 5.76"/><path d="M105.6,242.3v2.9" transform="translate(-7.7 -7.5)" fill="none" stroke="#231815" stroke-linecap="round" stroke-linejoin="round" stroke-width="0.28"/><path d="M111.4,245.2v-2.8" transform="translate(-7.7 -7.5)" fill="none" stroke="#231815" stroke-linecap="round" stroke-linejoin="round" stroke-width="0.28"/><path d="M111.3,236.6l-.6-215.8" transform="translate(-7.7 -7.5)" fill="none" stroke="#231815" stroke-linecap="round" stroke-linejoin="round" stroke-width="0.28" stroke-dasharray="5.76 5.76"/><path d="M110.6,17.9V15" transform="translate(-7.7 -7.5)" fill="none" stroke="#231815" stroke-linecap="round" stroke-linejoin="round" stroke-width="0.28"/><path d="M184.8,130a70,70,0,0,1-1.6,15.7,65.5,65.5,0,0,1-3,10,74.1,74.1,0,0,1-4.7,10.6,76.6,76.6,0,0,1-18.4,22.5A78.4,78.4,0,0,1,105,207.3,79.3,79.3,0,0,1,57.4,190a79.1,79.1,0,0,1-18.7-21.5,75.1,75.1,0,0,1-8.5-20.2,81,81,0,0,1-2.7-21.1A78,78,0,0,1,32,102.9a78.9,78.9,0,0,1,16-27A82.2,82.2,0,0,1,64.2,62.4a78.7,78.7,0,0,1,10.6-5.5,80.4,80.4,0,0,1,14.3-4.6,90.7,90.7,0,0,1,9.5-1.5c1.9-.1,5.3-.4,9.5-.3a86.3,86.3,0,0,1,12.5,1.3A80,80,0,0,1,160.1,72a71.1,71.1,0,0,1,8.6,9.5,82.3,82.3,0,0,1,13.6,27.8,71.8,71.8,0,0,1,1.9,9.9A65.3,65.3,0,0,1,184.8,130Z" transform="translate(-7.7 -7.5)" fill="none" stroke="#231815" stroke-linecap="round" stroke-linejoin="round" stroke-width="0.43"/><path d="M189.6,129.2c0,25.9-13.2,50.9-32.5,65.7a81.6,81.6,0,0,1-49.4,16.9,81.7,81.7,0,0,1-40.9-10,84.2,84.2,0,0,1-23.7-19,81.3,81.3,0,0,1-10.8-16.1,83.6,83.6,0,0,1-8.1-23.9,80.5,80.5,0,0,1-1.3-14.4,83.3,83.3,0,0,1,1.8-17.1,93.6,93.6,0,0,1,2.9-10.5,83.6,83.6,0,0,1,8-16.1A94.3,94.3,0,0,1,51.9,65.6c22.3-19.2,50.8-19.9,53.3-19.9,4.1,0,26.8.1,48.2,14.8A85.8,85.8,0,0,1,171.9,78a83,83,0,0,1,11.5,20.1A84.1,84.1,0,0,1,189.6,129.2Z" transform="translate(-7.7 -7.5)" fill="none" stroke="#231815" stroke-linecap="round" stroke-linejoin="round" stroke-width="0.43"/></g><g id="texts"><text transform="translate(132.4 139.5)" font-size="9.92" font-family="SimSun">黃色</text><text transform="translate(240.3 30)" font-size="9.92" font-family="SimSun">木框</text><text transform="translate(200.6 70.1)" font-size="9.92" font-family="SimSun">黑褐色花紋帶</text><text transform="translate(204.7 109.4)" font-size="9.92" font-family="SimSun">黑褐色(？)圈</text><text transform="translate(240.3 192.9)" font-size="9.92" font-family="SimSun">紅色</text><line x1="193.5" y1="34" x2="260.2" y2="34" fill="none" stroke="#000" stroke-linecap="round" stroke-linejoin="round" stroke-width="0.28"/><path d="M201.3,42.4a.9.9,0,0,1-.9-.9.8.8,0,0,1,.9-.8.8.8,0,0,1,.8.8A.9.9,0,0,1,201.3,42.4Z" transform="translate(-7.7 -7.5)"/><line x1="188.2" y1="74.1" x2="260.2" y2="74.1" fill="none" stroke="#000" stroke-linecap="round" stroke-linejoin="round" stroke-width="0.28"/><circle cx="188.2" cy="74.1" r="0.9"/><line x1="179" y1="113.4" x2="260.2" y2="113.4" fill="none" stroke="#000" stroke-linecap="round" stroke-linejoin="round" stroke-width="0.28"/><path d="M186.7,121.8a.9.9,0,0,1-.8-.9.8.8,0,0,1,.8-.8.8.8,0,0,1,.9.8A.9.9,0,0,1,186.7,121.8Z" transform="translate(-7.7 -7.5)"/><line x1="170.7" y1="196.9" x2="260.2" y2="196.9" fill="none" stroke="#000" stroke-linecap="round" stroke-linejoin="round" stroke-width="0.28"/><path d="M178.5,205.2a.8.8,0,0,1-.9-.8.9.9,0,0,1,.9-.9.9.9,0,0,1,.8.9A.8.8,0,0,1,178.5,205.2Z" transform="translate(-7.7 -7.5)"/></g></svg>