<svg xmlns="http://www.w3.org/2000/svg" xmlns:xlink="http://www.w3.org/1999/xlink" viewBox="0 0 1652.1 991.9"><defs><pattern id="_10_lpi_10_" data-name="10 lpi 10%" width="72" height="72" patternTransform="translate(22.1 22.9) rotate(-45)" patternUnits="userSpaceOnUse" viewBox="0 0 72 72"><rect width="72" height="72" fill="none"/><line x1="71.8" y1="68.4" x2="144.3" y2="68.4" fill="none" stroke="#231815" stroke-width="0.28"/><line x1="71.8" y1="54" x2="144.3" y2="54" fill="none" stroke="#231815" stroke-width="0.28"/><line x1="71.8" y1="39.6" x2="144.3" y2="39.6" fill="none" stroke="#231815" stroke-width="0.28"/><line x1="71.8" y1="25.2" x2="144.3" y2="25.2" fill="none" stroke="#231815" stroke-width="0.28"/><line x1="71.8" y1="10.8" x2="144.3" y2="10.8" fill="none" stroke="#231815" stroke-width="0.28"/><line x1="71.8" y1="61.2" x2="144.3" y2="61.2" fill="none" stroke="#231815" stroke-width="0.28"/><line x1="71.8" y1="46.8" x2="144.3" y2="46.8" fill="none" stroke="#231815" stroke-width="0.28"/><line x1="71.8" y1="32.4" x2="144.3" y2="32.4" fill="none" stroke="#231815" stroke-width="0.28"/><line x1="71.8" y1="18" x2="144.3" y2="18" fill="none" stroke="#231815" stroke-width="0.28"/><line x1="71.8" y1="3.6" x2="144.3" y2="3.6" fill="none" stroke="#231815" stroke-width="0.28"/><line x1="71.8" y1="72" x2="144.3" y2="72" fill="none" stroke="#231815" stroke-width="0.28"/><line x1="71.8" y1="57.6" x2="144.3" y2="57.6" fill="none" stroke="#231815" stroke-width="0.28"/><line x1="71.8" y1="43.2" x2="144.3" y2="43.2" fill="none" stroke="#231815" stroke-width="0.28"/><line x1="71.8" y1="28.8" x2="144.3" y2="28.8" fill="none" stroke="#231815" stroke-width="0.28"/><line x1="71.8" y1="14.4" x2="144.3" y2="14.4" fill="none" stroke="#231815" stroke-width="0.28"/><line x1="71.8" y1="64.8" x2="144.3" y2="64.8" fill="none" stroke="#231815" stroke-width="0.28"/><line x1="71.8" y1="50.4" x2="144.3" y2="50.4" fill="none" stroke="#231815" stroke-width="0.28"/><line x1="71.8" y1="36" x2="144.3" y2="36" fill="none" stroke="#231815" stroke-width="0.28"/><line x1="71.8" y1="21.6" x2="144.3" y2="21.6" fill="none" stroke="#231815" stroke-width="0.28"/><line x1="71.8" y1="7.2" x2="144.3" y2="7.2" fill="none" stroke="#231815" stroke-width="0.28"/><line x1="-0.3" y1="68.4" x2="72.3" y2="68.4" fill="none" stroke="#231815" stroke-width="0.28"/><line x1="-0.3" y1="54" x2="72.3" y2="54" fill="none" stroke="#231815" stroke-width="0.28"/><line x1="-0.3" y1="39.6" x2="72.3" y2="39.6" fill="none" stroke="#231815" stroke-width="0.28"/><line x1="-0.3" y1="25.2" x2="72.3" y2="25.2" fill="none" stroke="#231815" stroke-width="0.28"/><line x1="-0.3" y1="10.8" x2="72.3" y2="10.8" fill="none" stroke="#231815" stroke-width="0.28"/><line x1="-0.3" y1="61.2" x2="72.3" y2="61.2" fill="none" stroke="#231815" stroke-width="0.28"/><line x1="-0.3" y1="46.8" x2="72.3" y2="46.8" fill="none" stroke="#231815" stroke-width="0.28"/><line x1="-0.3" y1="32.4" x2="72.3" y2="32.4" fill="none" stroke="#231815" stroke-width="0.28"/><line x1="-0.3" y1="18" x2="72.3" y2="18" fill="none" stroke="#231815" stroke-width="0.28"/><line x1="-0.3" y1="3.6" x2="72.3" y2="3.6" fill="none" stroke="#231815" stroke-width="0.28"/><line x1="-0.3" y1="72" x2="72.3" y2="72" fill="none" stroke="#231815" stroke-width="0.28"/><line x1="-0.3" y1="57.6" x2="72.3" y2="57.6" fill="none" stroke="#231815" stroke-width="0.28"/><line x1="-0.3" y1="43.2" x2="72.3" y2="43.2" fill="none" stroke="#231815" stroke-width="0.28"/><line x1="-0.3" y1="28.8" x2="72.3" y2="28.8" fill="none" stroke="#231815" stroke-width="0.28"/><line x1="-0.3" y1="14.4" x2="72.3" y2="14.4" fill="none" stroke="#231815" stroke-width="0.28"/><line x1="-0.3" y1="64.8" x2="72.3" y2="64.8" fill="none" stroke="#231815" stroke-width="0.28"/><line x1="-0.3" y1="50.4" x2="72.3" y2="50.4" fill="none" stroke="#231815" stroke-width="0.28"/><line x1="-0.3" y1="36" x2="72.3" y2="36" fill="none" stroke="#231815" stroke-width="0.28"/><line x1="-0.3" y1="21.6" x2="72.3" y2="21.6" fill="none" stroke="#231815" stroke-width="0.28"/><line x1="-0.3" y1="7.2" x2="72.3" y2="7.2" fill="none" stroke="#231815" stroke-width="0.28"/><line x1="-72.3" y1="68.4" x2="0.3" y2="68.4" fill="none" stroke="#231815" stroke-width="0.28"/><line x1="-72.3" y1="54" x2="0.3" y2="54" fill="none" stroke="#231815" stroke-width="0.28"/><line x1="-72.3" y1="39.6" x2="0.3" y2="39.6" fill="none" stroke="#231815" stroke-width="0.28"/><line x1="-72.3" y1="25.2" x2="0.3" y2="25.2" fill="none" stroke="#231815" stroke-width="0.28"/><line x1="-72.3" y1="10.8" x2="0.3" y2="10.8" fill="none" stroke="#231815" stroke-width="0.28"/><line x1="-72.3" y1="61.2" x2="0.3" y2="61.2" fill="none" stroke="#231815" stroke-width="0.28"/><line x1="-72.3" y1="46.8" x2="0.3" y2="46.8" fill="none" stroke="#231815" stroke-width="0.28"/><line x1="-72.3" y1="32.4" x2="0.3" y2="32.4" fill="none" stroke="#231815" stroke-width="0.28"/><line x1="-72.3" y1="18" x2="0.3" y2="18" fill="none" stroke="#231815" stroke-width="0.28"/><line x1="-72.3" y1="3.6" x2="0.3" y2="3.6" fill="none" stroke="#231815" stroke-width="0.28"/><line x1="-72.3" y1="72" x2="0.3" y2="72" fill="none" stroke="#231815" stroke-width="0.28"/><line x1="-72.3" y1="57.6" x2="0.3" y2="57.6" fill="none" stroke="#231815" stroke-width="0.28"/><line x1="-72.3" y1="43.2" x2="0.3" y2="43.2" fill="none" stroke="#231815" stroke-width="0.28"/><line x1="-72.3" y1="28.8" x2="0.3" y2="28.8" fill="none" stroke="#231815" stroke-width="0.28"/><line x1="-72.3" y1="14.4" x2="0.3" y2="14.4" fill="none" stroke="#231815" stroke-width="0.28"/><line x1="-72.3" y1="64.8" x2="0.3" y2="64.8" fill="none" stroke="#231815" stroke-width="0.28"/><line x1="-72.3" y1="50.4" x2="0.3" y2="50.4" fill="none" stroke="#231815" stroke-width="0.28"/><line x1="-72.3" y1="36" x2="0.3" y2="36" fill="none" stroke="#231815" stroke-width="0.28"/><line x1="-72.3" y1="21.6" x2="0.3" y2="21.6" fill="none" stroke="#231815" stroke-width="0.28"/><line x1="-72.3" y1="7.2" x2="0.3" y2="7.2" fill="none" stroke="#231815" stroke-width="0.28"/><line x1="71.8" x2="144.3" fill="none" stroke="#231815" stroke-width="0.28"/><line x1="-0.3" x2="72.3" fill="none" stroke="#231815" stroke-width="0.28"/><line x1="-72.3" x2="0.3" fill="none" stroke="#231815" stroke-width="0.28"/></pattern></defs><g id="scale-1:100"><path d="M334.6,994.5v9.9H192.8v-10" transform="translate(-17.9 -13)" fill="none" stroke="#000" stroke-miterlimit="10" stroke-width="0.85"/><line x1="203.3" y1="981.5" x2="203.3" y2="991.5" fill="none" stroke="#000" stroke-miterlimit="10" stroke-width="0.85"/><line x1="231.7" y1="981.5" x2="231.7" y2="991.5" fill="none" stroke="#000" stroke-miterlimit="10" stroke-width="0.85"/><line x1="260" y1="981.5" x2="260" y2="991.5" fill="none" stroke="#000" stroke-miterlimit="10" stroke-width="0.85"/><line x1="288.4" y1="981.5" x2="288.4" y2="991.5" fill="none" stroke="#000" stroke-miterlimit="10" stroke-width="0.85"/><text transform="translate(171.3 977)" font-size="14.17" font-family="AdobeMingStd-Light-B5pc-H, Adobe Ming Std">0</text><text transform="translate(313.4 977)" font-size="14.17" font-family="AdobeMingStd-Light-B5pc-H, Adobe Ming Std">5m</text></g><g id="outline"><path d="M44.7,31.3l86.6.3h77c52.2.1,70.4.4,118.7.6,95.4.5,110.7-.1,239.8.4l65,.3c237.2.9,488.6-.6,519.3-.8,9.2,0,25-.2,47-.1h39.8c13.3.2,26.7-.4,40.1-.1.9,0,3.2,0,6.3-.3s3.3-.5,5.3-.8a77.7,77.7,0,0,1,8.3-.6c28.2-1.2,42.5-1.1,42.5-1.1,6.2.1,11.5.2,19.9-.1l9.7-.4,20.2-.8c21.4-.7,87.5-.6,123.8-.7l34.8-.2,20.1-.2c13.5-.2,36-.3,74.9-.3" transform="translate(-17.9 -13)" fill="none" stroke="#000" stroke-linecap="round" stroke-linejoin="round" stroke-width="1.13"/><path d="M78.4,614.6l86.9-.6,86.3-.4c162.7-.6,195.2-1.4,274.3-1.3,10.6,0,30,0,56.7-.2,39.3-.3,42.4-.7,78.2-1,47-.4,50,.2,91.3-.4l47.4-.8c26-.2,41.4-.1,65.6-.1l79.6-.3c182.9-.7,279.5-2.4,302.8-2.2,8.9.1,17.8-.3,26.7-.3a116.5,116.5,0,0,0,11.7-.5l8.7-1.1c3.5-.4,5.7-.5,11.9-.8l14.3-.8c8.4-.3,8.7-.1,23.9-.3,9.8-.1,15.5-.2,23.5-.6l9.7-.5c9.3-.5,10-.2,18.4-.5,10.2-.4,11.2-.9,19.2-.9,4.8-.1,4.4.1,10.1.1s8.5-.2,16.1-.4h11.2c14.8-.2,20.1-.5,35.9-.8l21.8-.3c28.6-.3,38.6-.7,58.1-1,12.8-.2,31.3-.3,54.2,0" transform="translate(-17.9 -13)" fill="none" stroke="#000" stroke-linecap="round" stroke-linejoin="round" stroke-width="1.13"/><path d="M1393.8,206.5l6.8-2.1" transform="translate(-17.9 -13)" fill="none" stroke="#000" stroke-linecap="round" stroke-linejoin="round" stroke-width="0.99"/><path d="M1406,202.7l39.6-12c35.3-10.6,61.6-18.2,120.1-35.2l66-19.2" transform="translate(-17.9 -13)" fill="none" stroke="#000" stroke-linecap="round" stroke-linejoin="round" stroke-width="0.99" stroke-dasharray="14.18 5.67"/><path d="M1634.5,135.5l6.8-2" transform="translate(-17.9 -13)" fill="none" stroke="#000" stroke-linecap="round" stroke-linejoin="round" stroke-width="0.99"/><path d="M1536.5,658.4c-.1,7.2-.1,14.3-.1,21.4-9.5,2.4-23.1,5.9-39.3,10.7-36.9,10.7-57.7,16.8-83.3,28.8-16.3,7.6-19,10.4-46.4,23.3,0,0-17,8.1-34.1,15.4-30.9,13.3-53.6,20.1-115.8,40.8-94.3,31.3-80.4,28.2-87.5,29.9-13.9,3.3-28.6,9.5-57.9,22a47.3,47.3,0,0,0-12.8,7.9c-2.5,2.2-8.6,8.2-15.5,28.7a191,191,0,0,0-8.1,35.1,211.1,211.1,0,0,0-2,29.7l-133.9,1c.3,7.7.7,15.5,1,23.2l-25,.5-26.9.8c-1.4-8.6-2.9-17.2-4.3-25.8l-142.8,1c-5.2-15.4-11.4-31.8-18.7-48.8-6.1-14.2-12.4-27.5-18.7-39.9l-32.5-8.6c-23.1-6.2-27.5-7.6-44.1-12.1-43-11.6-51.3-12.3-88.3-22.9l-23.4-6.9c-41.7-12.2-40.9-11.5-49.1-14.6s-13.2-5.4-37.7-14.7l-8.3-3.1c-19.4-7.2-27.4-8.7-49.5-15.7-15.8-5-24-7.6-33.5-12.1-7.8-3.7-6.5-3.8-20.4-11.1-15.4-8.2-27.8-13.8-36.9-17.9-7.4-3.4-12.4-5.7-19.7-8.6-10.7-4.3-17-6.4-28.6-10.5-7.6-2.7-18.3-6.5-31.4-11.6,0-6.6-.1-13.3-.1-20l32.2,11.8,21.5,7.7c3.5,1.1,7.8,2.5,13.7,4.8,0,0,5,1.9,10.5,4.4,8.5,3.7,28.6,13.7,55.1,27.4,17.7,6.9,49.2,18.9,77.9,29.1l19.9,7c17.2,6,21.8,7.4,41,14,26.1,9,23.8,8.5,28.9,10,11.4,3.4,14.9,3.9,36.2,9.8l18.2,5.1c16.1,4.5,27.6,7.3,34.9,9.1,10.8,2.7,13.2,3.4,51.5,13.7l76.4,20.3L694.1,877c4.1,11.5,8.4,23.1,12.8,34.8,2.8,7.6,5.7,15.1,8.6,22.6,23.5-.4,42.6-.5,55.8-.5h49.6l43.4-.4.3,17.3.3,13.3c3.5.1,7.2.1,11.2-.1l6.2-.6c.2-10.1.3-20.1.5-30.1h61.3c26.7,0,42.4-.1,60.6-.5l12.2-.2V906.1l25.2-60.5,40.9-18.2c7.1-3.1,14.2-6.1,21.2-9.3l7.9-3.3,3.8-1.4a64.7,64.7,0,0,1,6.2-1.9c12.6-3.5,144.9-45.9,163.1-52.3l7.6-2.9c5.5-2.1,9.7-4,11.5-4.9,5.4-2.5,8.6-4.3,12.6-6.4s8.7-4.4,19.5-9.5c17.2-8.3,19.7-9.2,30.4-14.5,6.6-3.3,6.2-3.3,10.9-5.6,11.1-5.4,19.4-8.8,23.6-10.5,8.2-3.5,20.1-8.6,36.2-16.1Z" transform="translate(-17.9 -13)" fill="url(#_10_lpi_10_)"/><path d="M1392.2,207c-.1,6-.3,12-.4,18l-21.3,6.9c-28,9.1-63.9,20.6-170.8,53.1-32.2,9.7-36.3,11-40.3,12.1-48.3,13.9-52,12.9-83.8,23.2-12.3,4-22.4,7.6-39.8,12.2-14.3,3.7-16.6,3.7-31,7.2-23.9,5.7-44.3,12.4-85.1,25.8l-20.4,6.7c-27.9,2.4-50,3-65.3,3.1s-15.7-.3-31,0c-17.2.3-28.1,1-45.2,0-5.6-.3-10.2-.8-13.1-1l-1.8,26.5-65.1.6c-1.2-8.7-2.5-17.4-3.8-26.1-15.5.2-31.2.3-47,.3-27.1-.1-53.9-.3-80.2-.8-1.1-16.5-2.1-30.3-2.7-41.3a53,53,0,0,0-2.8-15.8c-2-5.9-4-8.2-6.7-13.9a75.7,75.7,0,0,1-5.9-19.6l-26.6-9c-28.3-9.6-43.7-14.7-60.9-19.6-20.4-5.9-17.4-4-43.9-11.1-28.8-7.7-59.1-15.9-85.9-28.4-2.1-1-13-6.1-26.8-12.8-16.7-8-16.2-8-22.2-10.7-13.5-6.1-18.9-7.7-36.4-14.7-7.1-2.9-17.6-7.2-30.4-12.8L133.9,115l-.3-22.8c7.2,5.1,16.5,11.9,25.9,19.3,3.4,2.7,7.2,5.7,12.2,9.9s5,4.6,9.9,8.6c6.8,5.6,9.8,7.5,12.8,10.8a44.2,44.2,0,0,0,3.7,3.6c2.2,2.2,2.8,2.6,3.7,2.9s1,.1,4.6,0,3.7,0,4.2,0a25.6,25.6,0,0,1,4.3.4c2.4.6,2.9,1.1,3.1,1.5s.2.5.4,2.2.7,3.5.9,3.8a10.9,10.9,0,0,0,2.9.3h2l8-.3h3.1c2.1.1,2.6.2,3,.6s.5.9.6,2.7.5,4.2,1,4.6.7.4,3.7.6l3.1.3a62.3,62.3,0,0,1,7.1.9c4.1.7,6.3,1.3,8,2.4s1.9,1.8,2,2.2a10.1,10.1,0,0,1,.4,1.8c.1.9,0,1.2.3,1.6s.5.3,1.3.4a6.4,6.4,0,0,0,2.4.1c.6-.1.5,0,3.8.2l6.6.3c3.5.3,4.2.7,4.6,1.4a5.7,5.7,0,0,1,.6,2.5c.1.1.1.2.2,1.3s.1,2.5.3,2.7,1.1.4,3,.4h3.4a52.7,52.7,0,0,1,7.1.5,42.9,42.9,0,0,1,5.3,1.2c1.5.4,2.4.7,2.7,1.5s.2.4.2,2.5a12.8,12.8,0,0,1,.1,1.9c.1,2.7.1,2.8.2,2.9s1.9.8,4.8.8l6,.2,6.4.2,4,.2c2.3.1,3.2.2,3.6.8s.3.4.3,2.3v2.3c-.1,4-.1,4.7.4,5h17.1c3.3.1,4.7.4,5.2,1.3a8.2,8.2,0,0,1,.5,2.5c.1.8.1,1.2.2,1.9a17.7,17.7,0,0,0,0,2.3,4,4,0,0,0,.3,1.6c.3.3.6.5,1.8.8l2.1.5,3.7,1,6.9,2.1c6,2,19.9,5.6,22.6,6.2l28.5,7.5c6.2,1.7,18.8,5,32.6,9.2,24.6,7.4,31.5,10.8,56.2,18.7,2.6.8,10.6,3.4,21.3,7.2l9.6,3.5c3.6,8.9,6.5,16.5,8.7,22.2,5.1,13,7,18.5,7.8,20.5,2.2,6.4,4,11.8,5.2,15.6l.6,28.5,128.2-.5c.1,9.7.1,19.4.2,29.1h39.7c.1-10,.3-20.1.5-30.1H884.4c5.1-1.1,13.2-3,23-5.9,7.9-2.3,12.2-3.9,22.3-7.1,0,0,8.1-2.6,26.5-8.1,32.9-9.9,103.2-29.1,154.8-43.4,20.3-5.6,30.4-8.4,42.5-11.9,49-13.9,53-16,79.2-23.1,12-3.2,23.8-6.9,35.7-10.3,2.3-.6,7-2,13.2-4.2l9-3.6c5.7-2.2,9.9-3.5,15.5-5.2l24.9-7.6c16.7-4.9,26.9-7.9,38.3-11.4Z" transform="translate(-17.9 -13)" fill="url(#_10_lpi_10_)"/><path d="M133.6,92.2c7.2,5.1,16.5,11.9,25.9,19.3,3.4,2.7,7.2,5.7,12.2,9.9s5,4.6,9.9,8.6c6.8,5.6,9.8,7.5,12.8,10.8a44.2,44.2,0,0,0,3.7,3.6c2.2,2.2,2.8,2.6,3.7,2.9s1,.1,4.6,0,3.7,0,4.2,0a25.6,25.6,0,0,1,4.3.4c2.4.6,2.9,1.1,3.1,1.5s.2.5.4,2.2.7,3.5.9,3.8a10.9,10.9,0,0,0,2.9.3h2l8-.3h3.1c2.1.1,2.6.2,3,.6s.5.9.6,2.7.5,4.2,1,4.6.7.4,3.7.6l3.1.3a62.3,62.3,0,0,1,7.1.9c4.1.7,6.3,1.3,8,2.4s1.9,1.8,2,2.2a10.1,10.1,0,0,1,.4,1.8c.1.9,0,1.2.3,1.6s.5.3,1.3.4a6.4,6.4,0,0,0,2.4.1c.6-.1.5,0,3.8.2l6.6.3c3.5.3,4.2.7,4.6,1.4a5.7,5.7,0,0,1,.6,2.5c.1.1.1.2.2,1.3s.1,2.5.3,2.7,1.1.4,3,.4h3.4a52.7,52.7,0,0,1,7.1.5,42.9,42.9,0,0,1,5.3,1.2c1.5.4,2.4.7,2.7,1.5s.2.4.2,2.5a12.8,12.8,0,0,1,.1,1.9c.1,2.7.1,2.8.2,2.9s1.9.8,4.8.8l6,.2,6.4.2,4,.2c2.3.1,3.2.2,3.6.8s.3.4.3,2.3v2.3c-.1,4-.1,4.7.4,5h17.1c3.3.1,4.7.4,5.2,1.3a8.2,8.2,0,0,1,.5,2.5c.1.8.1,1.2.2,1.9a17.7,17.7,0,0,0,0,2.3,4,4,0,0,0,.3,1.6c.3.3.6.5,1.8.8l2.1.5,3.7,1,6.9,2.1c6,2,19.9,5.6,22.6,6.2l28.5,7.5c6.2,1.7,18.8,5,32.6,9.2,24.6,7.4,31.5,10.8,56.2,18.7,2.6.8,10.6,3.4,21.3,7.2l9.6,3.5c3.6,8.9,6.5,16.5,8.7,22.2,5.1,13,7,18.5,7.8,20.5,2.2,6.4,4,11.8,5.2,15.6l.6,28.5,128.2-.5c.1,9.7.1,19.4.2,29.1h39.7c.1-10,.3-20.1.5-30.1H884.4c5.1-1.1,13.2-3,23-5.9,7.9-2.3,12.2-3.9,22.3-7.1,0,0,8.1-2.6,26.5-8.1,32.9-9.9,103.2-29.1,154.8-43.4,20.3-5.6,30.4-8.4,42.5-11.9,49-13.9,53-16,79.2-23.1,12-3.2,23.8-6.9,35.7-10.3,2.3-.6,7-2,13.2-4.2l9-3.6c5.7-2.2,9.9-3.5,15.5-5.2l24.9-7.6c16.7-4.9,26.9-7.9,38.3-11.4l22.9-7.5h.2" transform="translate(-17.9 -13)" fill="none" stroke="#000" stroke-linecap="round" stroke-linejoin="round" stroke-width="1.13"/><path d="M160.9,673.7l32.2,11.8,21.5,7.7c3.5,1.1,7.8,2.5,13.7,4.8,0,0,5,1.9,10.5,4.4,8.5,3.7,28.6,13.7,55.1,27.4,17.7,6.9,49.2,18.9,77.9,29.1l19.9,7c17.2,6,21.8,7.4,41,14,26.1,9,23.8,8.5,28.9,10,11.4,3.4,14.9,3.9,36.2,9.8l18.2,5.1c16.1,4.5,27.6,7.3,34.9,9.1,10.8,2.7,13.2,3.4,51.5,13.7l76.4,20.3L694.1,877c4.1,11.5,8.4,23.1,12.8,34.8,2.8,7.6,5.7,15.1,8.6,22.6,23.5-.4,42.6-.5,55.8-.5h49.6l43.4-.4.3,17.3.3,13.3c3.5.1,7.2.1,11.2-.1l6.2-.6c.2-10.1.3-20.1.5-30.1h61.3c26.7,0,42.4-.1,60.6-.5l12.2-.2V906.1l25.2-60.5,40.9-18.2c7.1-3.1,14.2-6.1,21.2-9.3l7.9-3.3,3.8-1.4a64.7,64.7,0,0,1,6.2-1.9c12.6-3.5,144.9-45.9,163.1-52.3l7.6-2.9c5.5-2.1,9.7-4,11.5-4.9,5.4-2.5,8.6-4.3,12.6-6.4s8.7-4.4,19.5-9.5c17.2-8.3,19.7-9.2,30.4-14.5,6.6-3.3,6.2-3.3,10.9-5.6,11.1-5.4,19.4-8.8,23.6-10.5,8.2-3.5,20.1-8.6,36.2-16.1l99-30.4" transform="translate(-17.9 -13)" fill="none" stroke="#000" stroke-linecap="round" stroke-linejoin="round" stroke-width="1.13"/><line x1="141.5" y1="602.8" x2="141.5" y2="609.9" fill="none" stroke="#000" stroke-linecap="round" stroke-linejoin="round" stroke-width="0.85"/><line x1="141.5" y1="614.9" x2="141.5" y2="647.8" fill="none" stroke-dasharray="12.63 5.05" stroke-linecap="round" stroke-linejoin="round" stroke-width="0.85" stroke="#000"/><line x1="141.5" y1="650.3" x2="141.5" y2="657.4" fill="none" stroke="#000" stroke-linecap="round" stroke-linejoin="round" stroke-width="0.85"/><line x1="1517.9" y1="587.8" x2="1517.9" y2="594.9" fill="none" stroke="#000" stroke-linecap="round" stroke-linejoin="round" stroke-width="0.85"/><line x1="1517.9" y1="600.1" x2="1517.9" y2="633.8" fill="none" stroke-dasharray="12.95 5.18" stroke-linecap="round" stroke-linejoin="round" stroke-width="0.85" stroke="#000"/><line x1="1517.9" y1="636.4" x2="1517.9" y2="643.5" fill="none" stroke="#000" stroke-linecap="round" stroke-linejoin="round" stroke-width="0.85"/><line x1="115.7" y1="20.7" x2="115.7" y2="27.8" fill="none" stroke="#000" stroke-linecap="round" stroke-linejoin="round" stroke-width="0.85"/><line x1="115.7" y1="33.1" x2="115.7" y2="67.3" fill="none" stroke-dasharray="13.15 5.26" stroke-linecap="round" stroke-linejoin="round" stroke-width="0.85" stroke="#000"/><line x1="115.7" y1="69.9" x2="115.7" y2="77" fill="none" stroke="#000" stroke-linecap="round" stroke-linejoin="round" stroke-width="0.85"/><text transform="translate(0 24.4)" font-size="28.35" font-family="SimSun">A</text><text transform="translate(1638 24.4)" font-size="28.35" font-family="SimSun">B</text><text transform="translate(1622.1 594.1)" font-size="28.35" font-family="SimSun">D</text><text transform="translate(32.7 610.1)" font-size="28.35" font-family="SimSun">C</text></g></svg>