<svg xmlns="http://www.w3.org/2000/svg" viewBox="0 0 335.8 141.1"><g id="scale"><path d="M339,138.6v10H197.3v-10" transform="translate(-17.4 -7.7)" fill="none" stroke="#000" stroke-miterlimit="10" stroke-width="0.5"/><line x1="208.2" y1="130.9" x2="208.2" y2="140.9" fill="none" stroke="#000" stroke-miterlimit="10" stroke-width="0.5"/><line x1="236.6" y1="130.9" x2="236.6" y2="140.9" fill="none" stroke="#000" stroke-miterlimit="10" stroke-width="0.5"/><line x1="264.9" y1="130.9" x2="264.9" y2="140.9" fill="none" stroke="#000" stroke-miterlimit="10" stroke-width="0.5"/><line x1="293.3" y1="130.9" x2="293.3" y2="140.9" fill="none" stroke="#000" stroke-miterlimit="10" stroke-width="0.5"/><text transform="translate(176.2 126.4)" font-size="14.17" font-family="AdobeMingStd-Light-B5pc-H, Adobe Ming Std">0</text><text transform="translate(318.3 126.4)" font-size="14.17" font-family="AdobeMingStd-Light-B5pc-H, Adobe Ming Std">5m</text></g><g id="outline"><path d="M151.8,68.4h-3.3l-1.9-.3H145l-5.5-.4c-3.1-.1-5.3-.3-5.9-.4a19.5,19.5,0,0,1-3.9-.6c-1.8-.3-3-.8-3.6-.9-2.5-.9,0,.1-9.7-2.9a106.3,106.3,0,0,0-10.5-3c-2.4-.5-4.2-.7-4.2-.7l-3.9-.4L95,58.5,90,58l-3.3-.7-6.5-1.2-2.5-.3-3.6-.3a30,30,0,0,0-3.8.3l-2,.4H65.9l-3-.4a15.6,15.6,0,0,0-3.1-.2,28.8,28.8,0,0,0-4.3,0,8.8,8.8,0,0,0-2.5.2l-2.2.5a17,17,0,0,1-2.8.3,55.7,55.7,0,0,0-6.5.6l-2,.4-1.5.3-1.3.6a8.8,8.8,0,0,1-2.6,1,9.9,9.9,0,0,1-2.4.5,13.5,13.5,0,0,1-2.7.3l-3.5.2-3.6.6-1.6.5-.9.2c-.8.2-1,.1-1,0s-.1-.1-.2-.7v-.7c0-.7-.1-.8-.1-1.2V53.8c0-.7,0-4.7-.2-12.6,0-.2-.1-4.3-.1-7.9s0-.9-.1-4.2V26.9c.1-1.2.1-1.4.2-2.9V20.3c.1-1.3.1-1.9.1-2.2-.1-2.8-.3-7.1-.2-8.2s.1-.3.2-.7a1.9,1.9,0,0,1,.1-.8l1.6-.2H30.8C34,8.2,35,8,40.4,8H54.2c8,.1,7.8.3,14.4.3H87.1l4.9.2h19.2c2.8.2,5,.1,6.8.1l15.1-.3h3.7c4.2,0,5.3.3,10.1.5h13.7l4.3.2,5.4.2h4.2l3-.2h4.3l7.6.2,5.1.3h15.9l6.7-.5h2.3a101.5,101.5,0,0,1,11.5.7h7.7l13.9.2h8.7l7.2-.3h30.3l4.3.2a27.4,27.4,0,0,1,.2,3.5V17c0,1.9.1,3,.1,3.9s0,3.5-.2,7.5c-.3,6.1-.4,6.5-.6,10.7-.1,2.4-.2,5.8-.3,9.8s.1,6.5.1,7.1.2,2.1.3,4.6.1,1.4.2,2.7.1,1.7.1,2.5.1,1.1.1,2.1-.1,1.1-.1,1.5H302l-3.6-.2-1.9-.2-6.1-.2H278l-5,.2H253.7l-6.8-.2h-2.5l-4.2-.4-4.7-.7-3.9-.6-6.9-.9-3.5-.6" transform="translate(-17.4 -7.7)" fill="none" stroke="#000" stroke-linecap="round" stroke-linejoin="round" stroke-width="0.57"/><path d="M151.2,9c0,2,.1,3.8.1,5.2s.1,3.5.2,5.4V22c0,1.2.1,1.7.1,3.1s.1,1.8.1,2.7v5.8c-.1,3.5,0,3,0,7.2s-.1,6.5-.1,10.3v3.3a25.4,25.4,0,0,1,.1,3c.1,1.8.1,2.7.1,3.9s0,1.5-.1,3.3.1,3.3.1,3.7a20.8,20.8,0,0,1,.2,2.2c.1,1.4.2,1.8.3,3.9s.2,2.1.2,2.5a43.3,43.3,0,0,1-.1,5.2l-.2,1.7c0,.7-.1,1.8-.1,3.8a39.6,39.6,0,0,0-.1,4.7c0,1.6.1,3.4.1,3.9s.1,1.6.1,2.7v2c0,1.5.1,1.6.1,3v3.8a6.6,6.6,0,0,0-.1,1.4,7.6,7.6,0,0,0-.1,1.5c0,.6,0,.7.1.8s.3.1,1-.2l1.3-.6,1.3-.4,1.8-.8,5.2-2,1.2-.5c1.6-.7,1.9-1,2-1.3s.1-.4.1-1v-1.5c0-.7.1-.7,0-.8v-.6l.7-.2h.4l2.7-.7,1.5-.5,1.3-.4a6.9,6.9,0,0,0,1.8-.9,2.3,2.3,0,0,0,.7-.6,4.6,4.6,0,0,0,.3-.9c.1-.5,0-.5.1-.9a8.3,8.3,0,0,0,.4-1.2.8.8,0,0,1,.2-.5.6.6,0,0,1,.5-.2l1-.4,1.6-.6c1.9-.6,2.8-1.3,3.9-1.7l.6-.3a.9.9,0,0,0,.6-.4c.3-.2.2-.4.5-1.1a10.4,10.4,0,0,0,.5-1.2l.4-.7a.5.5,0,0,1,.2-.4l.5-.2,1.7-.5,1.6-.4,3-.8a13,13,0,0,0,2.2-.7l.6-.3c.2-.2.4-.2.4-.4a.8.8,0,0,0,.2-.7,4,4,0,0,0,.3-1.2l.2-1.3a4.6,4.6,0,0,1,.4-1.6,1.7,1.7,0,0,1,.4-.7c.2-.2.4-.2.9-.3l.8-.2,1.6-.4,1.8-.4,2.5-.8,1-.3,1.1-.4.6-.3c.1-.1.2-.3.3-1a4.3,4.3,0,0,0,.2-1.1v-.9a9.2,9.2,0,0,0,.1-1.5c.1-.5.1-.8.2-.9a3.1,3.1,0,0,1,1.2-.7l1-.3,2.5-.8,2.5-.7,1.9-.5,1.1-.5,1.8-.7c.2-.1.5-.2.6-.4a1.7,1.7,0,0,0,.1-.8c-.1-.4,0-.8-.1-1.2V62.2c0-1.4,0-1.7.1-3.6a12.3,12.3,0,0,0-.1-2.6,18.3,18.3,0,0,0-.2-1.9l-.7-2.4a7,7,0,0,1-.4-1.9V48.6a2.6,2.6,0,0,1,0-.9,4.6,4.6,0,0,1,.1-1l.2-1.2a7.4,7.4,0,0,0,.2-1.2,9.2,9.2,0,0,0,.2-1.9,18.8,18.8,0,0,0,.1-1.9V36.4a20,20,0,0,1-.4-3,13.1,13.1,0,0,1-.1-1.7,13,13,0,0,1-.1-2.5,14.8,14.8,0,0,1-.1-2c-.1-4.2.2-11,0-13.3V12a4.9,4.9,0,0,1,.1-1.2c0-.3.1-.5.1-.8s.1-.6.2-.8" transform="translate(-17.4 -7.7)" fill="none" stroke="#000" stroke-linecap="round" stroke-linejoin="round" stroke-width="0.57"/><path d="M231.3,67.4l3.2-2.9,1.7-1.1,1.4-.6a16.9,16.9,0,0,1,3.7-.5,23.9,23.9,0,0,1,4.6.2l2.3.4,3.4.6,2.7.4,7.7.5a35.4,35.4,0,0,1,4.8.2l2.7.3a56.9,56.9,0,0,0,5.7.1l2.8-.2,2.7-.2,3.2-.3,4.2-.3h2.4l5.3.3h3.5l1.4.2,1,.2,1.2.2" transform="translate(-17.4 -7.7)" fill="none" stroke="#000" stroke-linecap="round" stroke-linejoin="round" stroke-width="0.57"/><path d="M238.4,62.7A13.6,13.6,0,0,1,241,60a15,15,0,0,1,2.1-1.5l1.5-1,1.6-1,2.5-1.8a11.6,11.6,0,0,1,5.1-1.3h5.3c3.7,0,4.1.2,5.9.1s1.1-.2,3.7-.4l5.2-.2a41.9,41.9,0,0,1,4.8.2l5.2.7,2.6.3,2.8.4c1.3.2,1.4,0,2.4.2l2.5.6,3.1.4,2.4.2,2.6.5" transform="translate(-17.4 -7.7)" fill="none" stroke="#000" stroke-linecap="round" stroke-linejoin="round" stroke-width="0.57"/><path d="M222.4,66.1a52.7,52.7,0,0,1,4.1-4.5l2-1.9,2.5-2.2,1.8-1.9a17.2,17.2,0,0,1,1.7-1.9l1.3-1.1,2.9-2.2,3.2-2.1a56.5,56.5,0,0,1,5.3-2.8l1.8-.9,1.6-.7c1.9-.8,2-1.1,4.3-2.2l2.3-1,1.9-.8,2.4-1.1c.8-.4.7-.4.8-.5a22.4,22.4,0,0,0,3.2-1.7l1.3-.9,1.5-.9a8.9,8.9,0,0,0,1.2-.9l1.7-.8a11.5,11.5,0,0,1,4.1-.5,6.7,6.7,0,0,1,2.1.2l1.6.4c2.1.7,2.2.5,4.4,1.2l2.7.9,2.1.6,2.7.6,2.8.5,2.4.6c1.7.4,2.2.7,4,1.2l2.4.7" transform="translate(-17.4 -7.7)" fill="none" stroke="#000" stroke-linecap="round" stroke-linejoin="round" stroke-width="0.57"/><path d="M236.1,52.4l-1.2-.8a14.4,14.4,0,0,0-4.2-1.3l-2.4-.3-1.8-.2-2.1-.2h-4.5" transform="translate(-17.4 -7.7)" fill="none" stroke="#000" stroke-linecap="round" stroke-linejoin="round" stroke-width="0.57"/></g><g id="texts"><text transform="translate(238 42.5)" font-size="8.5" font-family="SimSun">黑　灰　土</text><text transform="translate(235.6 54.6)" font-size="8.5" font-family="SimSun">黃　灰　土</text><text transform="translate(225.6 60.6)" font-size="4.25" font-family="SimSun">灰　黃　土</text><text transform="translate(138.6 48.2)" font-size="11.34" font-family="SimSun">HPK1107探坑</text><text transform="translate(44.9 31)" font-size="11.34" font-family="SimSun">黃　土</text><text transform="translate(32.4 72.9)" font-size="11.34" font-family="SimSun">黃　夯　土</text><text transform="translate(218.2 88.5)" font-size="14.17" font-family="SimSun">生　土</text></g></svg>