<svg xmlns="http://www.w3.org/2000/svg" xmlns:xlink="http://www.w3.org/1999/xlink" viewBox="0 0 172.9 462.8"><defs><pattern id="_10_lpi_10_" data-name="10 lpi 10%" width="72" height="72" patternTransform="translate(50.9 -19.3) rotate(45)" patternUnits="userSpaceOnUse" viewBox="0 0 72 72"><rect width="72" height="72" fill="none"/><line x1="71.8" y1="72" x2="144.3" y2="72" fill="none" stroke="#231815" stroke-width="0.28"/><line x1="-0.3" y1="72" x2="72.3" y2="72" fill="none" stroke="#231815" stroke-width="0.28"/><line x1="-72.3" y1="72" x2="0.3" y2="72" fill="none" stroke="#231815" stroke-width="0.28"/><line x1="71.8" y1="68.4" x2="144.3" y2="68.4" fill="none" stroke="#231815" stroke-width="0.28"/><line x1="71.8" y1="54" x2="144.3" y2="54" fill="none" stroke="#231815" stroke-width="0.28"/><line x1="71.8" y1="39.6" x2="144.3" y2="39.6" fill="none" stroke="#231815" stroke-width="0.28"/><line x1="71.8" y1="25.2" x2="144.3" y2="25.2" fill="none" stroke="#231815" stroke-width="0.28"/><line x1="71.8" y1="10.8" x2="144.3" y2="10.8" fill="none" stroke="#231815" stroke-width="0.28"/><line x1="71.8" y1="61.2" x2="144.3" y2="61.2" fill="none" stroke="#231815" stroke-width="0.28"/><line x1="71.8" y1="46.8" x2="144.3" y2="46.8" fill="none" stroke="#231815" stroke-width="0.28"/><line x1="71.8" y1="32.4" x2="144.3" y2="32.4" fill="none" stroke="#231815" stroke-width="0.28"/><line x1="71.8" y1="18" x2="144.3" y2="18" fill="none" stroke="#231815" stroke-width="0.28"/><line x1="71.8" y1="3.6" x2="144.3" y2="3.6" fill="none" stroke="#231815" stroke-width="0.28"/><line x1="71.8" y1="64.8" x2="144.3" y2="64.8" fill="none" stroke="#231815" stroke-width="0.28"/><line x1="71.8" y1="50.4" x2="144.3" y2="50.4" fill="none" stroke="#231815" stroke-width="0.28"/><line x1="71.8" y1="36" x2="144.3" y2="36" fill="none" stroke="#231815" stroke-width="0.28"/><line x1="71.8" y1="21.6" x2="144.3" y2="21.6" fill="none" stroke="#231815" stroke-width="0.28"/><line x1="71.8" y1="7.2" x2="144.3" y2="7.2" fill="none" stroke="#231815" stroke-width="0.28"/><line x1="71.8" y1="57.6" x2="144.3" y2="57.6" fill="none" stroke="#231815" stroke-width="0.28"/><line x1="71.8" y1="43.2" x2="144.3" y2="43.2" fill="none" stroke="#231815" stroke-width="0.28"/><line x1="71.8" y1="28.8" x2="144.3" y2="28.8" fill="none" stroke="#231815" stroke-width="0.28"/><line x1="71.8" y1="14.4" x2="144.3" y2="14.4" fill="none" stroke="#231815" stroke-width="0.28"/><line x1="71.8" x2="144.3" fill="none" stroke="#231815" stroke-width="0.28"/><line x1="-0.3" y1="68.4" x2="72.3" y2="68.4" fill="none" stroke="#231815" stroke-width="0.28"/><line x1="-0.3" y1="54" x2="72.3" y2="54" fill="none" stroke="#231815" stroke-width="0.28"/><line x1="-0.3" y1="39.6" x2="72.3" y2="39.6" fill="none" stroke="#231815" stroke-width="0.28"/><line x1="-0.3" y1="25.2" x2="72.3" y2="25.2" fill="none" stroke="#231815" stroke-width="0.28"/><line x1="-0.3" y1="10.8" x2="72.3" y2="10.8" fill="none" stroke="#231815" stroke-width="0.28"/><line x1="-0.3" y1="61.2" x2="72.3" y2="61.2" fill="none" stroke="#231815" stroke-width="0.28"/><line x1="-0.3" y1="46.8" x2="72.3" y2="46.8" fill="none" stroke="#231815" stroke-width="0.28"/><line x1="-0.3" y1="32.4" x2="72.3" y2="32.4" fill="none" stroke="#231815" stroke-width="0.28"/><line x1="-0.3" y1="18" x2="72.3" y2="18" fill="none" stroke="#231815" stroke-width="0.28"/><line x1="-0.3" y1="3.6" x2="72.3" y2="3.6" fill="none" stroke="#231815" stroke-width="0.28"/><line x1="-0.3" y1="64.8" x2="72.3" y2="64.8" fill="none" stroke="#231815" stroke-width="0.28"/><line x1="-0.3" y1="50.4" x2="72.3" y2="50.4" fill="none" stroke="#231815" stroke-width="0.28"/><line x1="-0.3" y1="36" x2="72.3" y2="36" fill="none" stroke="#231815" stroke-width="0.28"/><line x1="-0.3" y1="21.6" x2="72.3" y2="21.6" fill="none" stroke="#231815" stroke-width="0.28"/><line x1="-0.3" y1="7.2" x2="72.3" y2="7.2" fill="none" stroke="#231815" stroke-width="0.28"/><line x1="-0.3" y1="57.6" x2="72.3" y2="57.6" fill="none" stroke="#231815" stroke-width="0.28"/><line x1="-0.3" y1="43.2" x2="72.3" y2="43.2" fill="none" stroke="#231815" stroke-width="0.28"/><line x1="-0.3" y1="28.8" x2="72.3" y2="28.8" fill="none" stroke="#231815" stroke-width="0.28"/><line x1="-0.3" y1="14.4" x2="72.3" y2="14.4" fill="none" stroke="#231815" stroke-width="0.28"/><line x1="-0.3" x2="72.3" fill="none" stroke="#231815" stroke-width="0.28"/><line x1="-72.3" y1="68.4" x2="0.3" y2="68.4" fill="none" stroke="#231815" stroke-width="0.28"/><line x1="-72.3" y1="54" x2="0.3" y2="54" fill="none" stroke="#231815" stroke-width="0.28"/><line x1="-72.3" y1="39.6" x2="0.3" y2="39.6" fill="none" stroke="#231815" stroke-width="0.28"/><line x1="-72.3" y1="25.2" x2="0.3" y2="25.2" fill="none" stroke="#231815" stroke-width="0.28"/><line x1="-72.3" y1="10.8" x2="0.3" y2="10.8" fill="none" stroke="#231815" stroke-width="0.28"/><line x1="-72.3" y1="61.2" x2="0.3" y2="61.2" fill="none" stroke="#231815" stroke-width="0.28"/><line x1="-72.3" y1="46.8" x2="0.3" y2="46.8" fill="none" stroke="#231815" stroke-width="0.28"/><line x1="-72.3" y1="32.4" x2="0.3" y2="32.4" fill="none" stroke="#231815" stroke-width="0.28"/><line x1="-72.3" y1="18" x2="0.3" y2="18" fill="none" stroke="#231815" stroke-width="0.28"/><line x1="-72.3" y1="3.6" x2="0.3" y2="3.6" fill="none" stroke="#231815" stroke-width="0.28"/><line x1="-72.3" y1="64.8" x2="0.3" y2="64.8" fill="none" stroke="#231815" stroke-width="0.28"/><line x1="-72.3" y1="50.4" x2="0.3" y2="50.4" fill="none" stroke="#231815" stroke-width="0.28"/><line x1="-72.3" y1="36" x2="0.3" y2="36" fill="none" stroke="#231815" stroke-width="0.28"/><line x1="-72.3" y1="21.6" x2="0.3" y2="21.6" fill="none" stroke="#231815" stroke-width="0.28"/><line x1="-72.3" y1="7.2" x2="0.3" y2="7.2" fill="none" stroke="#231815" stroke-width="0.28"/><line x1="-72.3" y1="57.6" x2="0.3" y2="57.6" fill="none" stroke="#231815" stroke-width="0.28"/><line x1="-72.3" y1="43.2" x2="0.3" y2="43.2" fill="none" stroke="#231815" stroke-width="0.28"/><line x1="-72.3" y1="28.8" x2="0.3" y2="28.8" fill="none" stroke="#231815" stroke-width="0.28"/><line x1="-72.3" y1="14.4" x2="0.3" y2="14.4" fill="none" stroke="#231815" stroke-width="0.28"/><line x1="-72.3" x2="0.3" fill="none" stroke="#231815" stroke-width="0.28"/></pattern></defs><g id="scale-1:1"><path d="M179.2,460.4v9.9H37.5v-9.9" transform="translate(-27.7 -7.8)" fill="none" stroke="#000" stroke-miterlimit="10" stroke-width="0.5"/><line x1="38.2" y1="452.6" x2="38.2" y2="462.6" fill="none" stroke="#000" stroke-miterlimit="10" stroke-width="0.5"/><line x1="66.5" y1="452.6" x2="66.5" y2="462.6" fill="none" stroke="#000" stroke-miterlimit="10" stroke-width="0.5"/><line x1="94.8" y1="452.6" x2="94.8" y2="462.5" fill="none" stroke="#000" stroke-miterlimit="10" stroke-width="0.5"/><line x1="123.2" y1="452.6" x2="123.2" y2="462.5" fill="none" stroke="#000" stroke-miterlimit="10" stroke-width="0.5"/><text transform="translate(6.2 448.1)" font-size="14.17" font-family="AdobeMingStd-Light-B5pc-H, Adobe Ming Std">0</text><text transform="translate(148.2 448.1)" font-size="14.17" font-family="AdobeMingStd-Light-B5pc-H, Adobe Ming Std">5cm</text></g><g id="outline"><path d="M175.2,139.5c.1,6.1,0,11,0,14-.1,4.7-.2,8.2-.3,9.4-.1,4-.2,6.6-.5,10.1-.1,1.6-.5,6.2-1.3,12s-1.1,6-1.4,9.8-.3,5-.9,8.4c-.3,1.7-.7,3.7-.7,3.7-.3,1.7-.4,2.4-.8,4-.6,3.1-.6,3.5-1,5.4a62.3,62.3,0,0,1-1.5,6.4,65.5,65.5,0,0,1-2.9,8.4c-1.6,4.1-2,4.6-2.6,6.9a15.8,15.8,0,0,1-.9,2.5,23.4,23.4,0,0,1-2.3,3.9c-1.7,2.6-2.6,3.8-3,4.4a15.6,15.6,0,0,0-2.1,2.6l-1,1.8a15.9,15.9,0,0,1-3.2,3.1,21.3,21.3,0,0,1-3,2.1l-2,.9-1.3.7a4.7,4.7,0,0,0-1.6,1.4c-.9.9-1.5,1-4.1,2.7s-2.4,2-4.5,3.1l-2.6,1.4-3.1,1.4a18,18,0,0,1-3.3.6l-5.5.5-6.6.5c-3.6.3-3.7.4-5.2.4a38.8,38.8,0,0,1-5.9.2l-4.7-.4c-4.8-.4-5.4-.2-7.3-.7a29.6,29.6,0,0,0-3.1-.8l-1.9-.4-2.3-.4-3.9-.5a23.6,23.6,0,0,1-5.9-2,17.1,17.1,0,0,1-5.2-3,17.9,17.9,0,0,1-2-2c-1.9-2-3.1-3.3-4.2-4.7a43.2,43.2,0,0,1-3.8-6.2c-.6-1.2-1.5-2.8-2.5-5a68.3,68.3,0,0,1-3.4-9.7,24.6,24.6,0,0,1-.7-2.9,33.1,33.1,0,0,1-.8-6c-.2-2,0-2.1-.2-3.2a30.5,30.5,0,0,0-1.3-4c-.5-1.5-.8-2.6-1.2-4.2s-.8-4.1-1.1-6.6-.7-5.4-1-8-.3-4.7-.4-8.6-.1-3.2-.3-7.6-.3-6.9-.5-11.1a22,22,0,0,0-.1-2.3,41.4,41.4,0,0,0-.3-4.2c-.3-4.9-.1-11.5,0-12.7s.1-3.6.2-5,.2-2.4.3-4.6.1-2.4.2-5.8c.1-.9.1-1.9.2-3.8s.2-3.5.2-3.8c.3-4.3.5-6.9.9-13s.3-6,.5-8.2.5-3.8.7-7,.1-2.6.3-4.8c.3-3.8.7-4.9,1.4-10.3a28.9,28.9,0,0,1,.4-2.9,25.6,25.6,0,0,0,.5-2.7,12.7,12.7,0,0,0,.2-2.2c.2-3.5.2-3.8.3-4.5a36.8,36.8,0,0,1,.6-4.3,124.5,124.5,0,0,1,2.6-12.6,90.4,90.4,0,0,1,3-10,85.2,85.2,0,0,1,4.2-9.1A73.8,73.8,0,0,1,63.6,32,68.1,68.1,0,0,1,70,24c2.2-2.3,3.7-3.9,5.8-5.1.4-.3,1.6-.9,3.1-2l2.6-1.8c1.6-1.2,3.8-2.2,8.2-4.2a20.4,20.4,0,0,1,3.8-1.5,17.6,17.6,0,0,1,3.8-.6l6.9-.5c5.5-.2,5.5,0,11.4-.2h4a26.7,26.7,0,0,1,8.9,1.6l2.7,1c2,.6,2.5.4,4.9,1.1a16.6,16.6,0,0,1,3,1,16.2,16.2,0,0,1,3.6,1.5,14,14,0,0,1,3.9,3.6c1.1,1.4,1,1.9,2.1,2.9s.9.5,2.4,1.7A11.4,11.4,0,0,1,153,24a12.1,12.1,0,0,1,2.6,3.4,47.1,47.1,0,0,1,2.6,4.6,91.4,91.4,0,0,1,4.6,11.2c1.1,3.3,1.8,5.7,2.5,8.1s1.7,6.3,2.7,11.1.7,3.9,1.5,7.6c1.1,5.3,1.3,4.8,1.9,8.3.4,1.7.8,5,1.6,11.5.3,1.9.4,2.9.5,3.4a143.9,143.9,0,0,1,.9,15c.2,8.6.2,9.3.3,14.7C174.9,132.1,175.1,132.2,175.2,139.5Z" transform="translate(-27.7 -7.8)" fill="none" stroke="#000" stroke-miterlimit="10" stroke-width="0.57"/><path d="M174.8,355.4c0,2.1,0,3.4-.1,4.8a66.4,66.4,0,0,1-.8,8c-.3,1.7-.5,3.1-.7,3.8-1.8,8.7-2.6,13-3.9,16.6a53.8,53.8,0,0,1-6.5,13.5,47.2,47.2,0,0,1-6.1,7.4,52.7,52.7,0,0,1-6.3,5.7l-4.6,3.2A66.8,66.8,0,0,1,134,425a24.3,24.3,0,0,1-7.8,2.1,23.5,23.5,0,0,1-4.6,0,54.6,54.6,0,0,1-5.8-.4l-7.8-.8c-3.7-.6-6.2-1.6-10.4-3.3a99.6,99.6,0,0,1-11.8-6c-1.8-1-4.6-2.8-10.1-6.4a25.9,25.9,0,0,1-5-3.7l-2.5-2.4-3.1-2.8a75.7,75.7,0,0,1-8.4-8.9c-1-1.3-2.2-2.8-3.7-5.1a52.6,52.6,0,0,1-3-5.1,57.6,57.6,0,0,1-4.2-9.1,75.1,75.1,0,0,1-2.7-12.3c-.2-1.3-.5-2.9-.8-5.1s-.3-3-.6-12.1c0,0-.2-4.6.1-9.2a19.6,19.6,0,0,1,.6-3.3,20.3,20.3,0,0,1,1.8-4.2c2.7-5,2.7-4.9,2.7-5a60.8,60.8,0,0,1,6-8,59.1,59.1,0,0,1,14-11.6,22.9,22.9,0,0,1,6.6-3l4.9-1.2,2.5-.6,3.4-.7c1.1-.2,3.2-.6,6.4-.9a68.4,68.4,0,0,1,11.8-.6l4.6.2,7.6.4,11.4.7,5.6.6,1.4.2,3,.5c1,.1,1.5.4,4.5,1.9l4,2a66.6,66.6,0,0,1,7.3,4.3c5.4,3.4,8.1,5.1,9.8,6.6a40.9,40.9,0,0,1,5.2,5.3,36.1,36.1,0,0,1,3,4.2,28.9,28.9,0,0,1,2.9,6.8c1,3.2,1.2,6.9,1.6,14.3C174.5,344,174.8,349.1,174.8,355.4Z" transform="translate(-27.7 -7.8)" fill="url(#_10_lpi_10_)"/><path d="M174.7,360.2a66.4,66.4,0,0,1-.8,8c-.3,1.7-.5,3.1-.7,3.8-1.8,8.7-2.6,13-3.9,16.6a53.8,53.8,0,0,1-6.5,13.5,47.2,47.2,0,0,1-6.1,7.4,52.7,52.7,0,0,1-6.3,5.7l-4.6,3.2A66.8,66.8,0,0,1,134,425a24.3,24.3,0,0,1-7.8,2.1,23.5,23.5,0,0,1-4.6,0,54.6,54.6,0,0,1-5.8-.4l-7.8-.8c-3.7-.6-6.2-1.6-10.4-3.3a99.6,99.6,0,0,1-11.8-6c-1.8-1-4.6-2.8-10.1-6.4a25.9,25.9,0,0,1-5-3.7l-2.5-2.4-3.1-2.8a75.7,75.7,0,0,1-8.4-8.9c-1-1.3-2.2-2.8-3.7-5.1a52.6,52.6,0,0,1-3-5.1,57.6,57.6,0,0,1-4.2-9.1,75.1,75.1,0,0,1-2.7-12.3c-.2-1.3-.5-2.9-.8-5.1s-.3-3-.6-12.1c0,0-.2-4.6.1-9.2a19.6,19.6,0,0,1,.6-3.3,20.3,20.3,0,0,1,1.8-4.2c2.7-5,2.7-4.9,2.7-5a60.8,60.8,0,0,1,6-8,59.1,59.1,0,0,1,14-11.6,22.9,22.9,0,0,1,6.6-3l4.9-1.2,2.5-.6,3.4-.7c1.1-.2,3.2-.6,6.4-.9a68.4,68.4,0,0,1,11.8-.6l4.6.2,7.6.4,11.4.7,5.6.6,1.4.2,3,.5c1,.1,1.5.4,4.5,1.9l4,2a66.6,66.6,0,0,1,7.3,4.3c5.4,3.4,8.1,5.1,9.8,6.6a40.9,40.9,0,0,1,5.2,5.3,36.1,36.1,0,0,1,3,4.2,28.9,28.9,0,0,1,2.9,6.8c1,3.2,1.2,6.9,1.6,14.3.1.7.4,5.8.4,12.1C174.8,357.5,174.8,358.8,174.7,360.2Z" transform="translate(-27.7 -7.8)" fill="none" stroke="#000" stroke-miterlimit="10" stroke-width="0.57"/><path d="M28,150.7h9.9" transform="translate(-27.7 -7.8)" fill="none" stroke="#000" stroke-linecap="round" stroke-linejoin="round" stroke-width="0.57"/><path d="M179.5,153.7h11.9" transform="translate(-27.7 -7.8)" fill="none" stroke="#000" stroke-linecap="round" stroke-linejoin="round" stroke-width="0.57"/></g></svg>