<svg xmlns="http://www.w3.org/2000/svg" viewBox="0 0 253.1 250.6"><g id="outline"><path d="M186.3,146a35.3,35.3,0,0,1-18,30.5,36.2,36.2,0,0,1-18.7,4.9,33.4,33.4,0,0,1-10.6-1.8,37.6,37.6,0,0,1-9-4.3,32.6,32.6,0,0,1-7.6-6.7,35,35,0,0,1-5.9-9.5,36.1,36.1,0,0,1-2.9-14.4,34.7,34.7,0,0,1,2.1-11.8,36.7,36.7,0,0,1,8.7-13.9,35.8,35.8,0,0,1,11.6-7.5,37.1,37.1,0,0,1,13.4-2.7,34,34,0,0,1,12,1.9,35.7,35.7,0,0,1,13.9,8.5,37.2,37.2,0,0,1,10.5,20A33.2,33.2,0,0,1,186.3,146Z" transform="translate(-23.1 -16)" fill="none" stroke="#000" stroke-miterlimit="10" stroke-width="0.43"/><path d="M236.9,224.9,62.8,223.5,64.3,137c.4-27.3.9-54.6,1.3-81.8l171.3.9Z" transform="translate(-23.1 -16)" fill="none" stroke="#000" stroke-linecap="round" stroke-linejoin="round" stroke-width="0.57"/><path d="M266.7,258.1l-236.2-.7q1-116.7,2.2-233.4l235,1.3c0,12.9-.1,25.7-.1,38.5Z" transform="translate(-23.1 -16)" fill="none" stroke="#000" stroke-linecap="round" stroke-linejoin="round" stroke-width="0.57"/><path d="M264.2,255.2,33,254.9q.6-74.1,1.4-148.1c.4-26.7.7-53.5,1.1-80.2l132.7,1,97.3.7-.3,37.1Q264.8,160.3,264.2,255.2Z" transform="translate(-23.1 -16)" fill="none" stroke="#000" stroke-linecap="round" stroke-linejoin="round" stroke-width="0.57"/><path d="M30.5,257.4l32.3-33.9" transform="translate(-23.1 -16)" fill="none" stroke="#000" stroke-linecap="round" stroke-linejoin="round" stroke-width="0.57"/><path d="M236.9,224.9l29.8,33.2" transform="translate(-23.1 -16)" fill="none" stroke="#000" stroke-linecap="round" stroke-linejoin="round" stroke-width="0.57"/><path d="M267.7,25.3c-.5.6-1.3,1.6-2.3,2.6-4.7,5.3-8.6,9.1-12.9,13.2s-9.8,9.5-15.6,15" transform="translate(-23.1 -16)" fill="none" stroke="#000" stroke-linecap="round" stroke-linejoin="round" stroke-width="0.57"/><path d="M32.7,24,65.6,55.2" transform="translate(-23.1 -16)" fill="none" stroke="#000" stroke-linecap="round" stroke-linejoin="round" stroke-width="0.57"/></g><g id="texts"><text transform="translate(115.8 38)" font-size="8.5" font-family="SimSun">121mm</text><text transform="translate(115.8 19.5)" font-size="8.5" font-family="SimSun">162mm</text><text transform="translate(115.8 7.3)" font-size="8.5" font-family="SimSun">166mm</text><text transform="translate(115.8 215.5)" font-size="8.5" font-family="SimSun">122mm</text><text transform="translate(115.8 238)" font-size="8.5" font-family="SimSun">162mm</text><text transform="translate(115.8 249.4)" font-size="8.5" font-family="SimSun">166mm</text><text transform="translate(34 113.8) rotate(90)" font-size="8.5" font-family="SimSun">119mm</text><text transform="translate(11.9 113.8) rotate(90)" font-size="8.5" font-family="SimSun">161mm</text><text transform="translate(1.2 113.8) rotate(90)" font-size="8.5" font-family="SimSun">165mm</text><text transform="translate(221.5 135.1) rotate(-90)" font-size="8.5" font-family="SimSun">119mm</text><text transform="translate(240.2 135.1) rotate(-90)" font-size="8.5" font-family="SimSun">160mm</text><text transform="translate(251.9 135.1) rotate(-90)" font-size="8.5" font-family="SimSun">164mm</text></g></svg>