<svg xmlns="http://www.w3.org/2000/svg" viewBox="0 0 166.7 74.9"><g id="scale-1:1"><path d="M147.5,70.9v10H5.8v-10" transform="translate(-2.1 -6.2)" fill="none" stroke="#000" stroke-miterlimit="10" stroke-width="0.5"/><line x1="32" y1="64.7" x2="32" y2="74.6" fill="none" stroke="#000" stroke-miterlimit="10" stroke-width="0.5"/><line x1="60.3" y1="64.7" x2="60.3" y2="74.6" fill="none" stroke="#000" stroke-miterlimit="10" stroke-width="0.5"/><line x1="88.7" y1="64.7" x2="88.7" y2="74.6" fill="none" stroke="#000" stroke-miterlimit="10" stroke-width="0.5"/><line x1="117" y1="64.7" x2="117" y2="74.6" fill="none" stroke="#000" stroke-miterlimit="10" stroke-width="0.5"/><text transform="translate(0 60.2)" font-size="14.17" font-family="AdobeMingStd-Light-B5pc-H, Adobe Ming Std">0</text><text transform="translate(142 60.2)" font-size="14.17" font-family="AdobeMingStd-Light-B5pc-H, Adobe Ming Std">5cm</text></g><g id="outline"><path d="M127.4,7.5a2.9,2.9,0,0,1,1.3,1.7,7.1,7.1,0,0,1,.4,2.7,19.3,19.3,0,0,1-.3,3.6c-.3,1.4-.5,2.4-.8,3.4a39.3,39.3,0,0,1-1.2,3.9,34.5,34.5,0,0,1-2.9,5.4,3.6,3.6,0,0,1-.7.9,3.9,3.9,0,0,1-1,.8,3,3,0,0,1-1.1.4l-3.1.5a15.7,15.7,0,0,1-2.5.5l-1.9.2-5.3.5c-4.5.3-11.8.2-11.8.2-6.3-.1-4.8.2-16.1.3H64l-13.9.2c-15.4.2-26.9,0-31.2.1H11a3,3,0,0,1-1.4-1,19.4,19.4,0,0,1-3.3-5.6,62.1,62.1,0,0,1-2.2-7.4s-1.1-5.4,0-8.3a8.7,8.7,0,0,1,.6-1.5l.7-.8a1.3,1.3,0,0,1,.7-.6h.7a1.1,1.1,0,0,1,.8,0h2.7c3.5.1,9.8-.1,9.8-.1,6.9-.3,11.9,0,22.8-.1s9.7-.5,21.3-.7h59.1l1.4.2C126.9,7.4,126.9,7.2,127.4,7.5Z" transform="translate(-2.1 -6.2)" fill="none" stroke="#000" stroke-linecap="round" stroke-linejoin="round" stroke-width="0.57"/><path d="M159.6,23.1c-.2.5-.7.8-1.5,1.3a5.9,5.9,0,0,1-2.1,1h-3.2a10.8,10.8,0,0,1-2.3-.9l-2.1-1.1-1-.7a7.1,7.1,0,0,1-1.2-1.3,3.1,3.1,0,0,1-.6-1.6,3.9,3.9,0,0,1,.1-1.6l.4-1.1a5.1,5.1,0,0,1,1.7-2.3l1-.5.9-.2,2.3-.2,2.4.2a7.6,7.6,0,0,1,3.2,1.7,26.5,26.5,0,0,1,1.7,3.2,4,4,0,0,1,.4,1.2,9.6,9.6,0,0,1,.2,1.2A3.4,3.4,0,0,1,159.6,23.1Z" transform="translate(-2.1 -6.2)" fill="none" stroke="#000" stroke-linecap="round" stroke-linejoin="round" stroke-width="0.57"/><path d="M162.6,25.7a7.5,7.5,0,0,1-1.5,2.4,6.2,6.2,0,0,1-2.4,1.4,9.5,9.5,0,0,1-2.9.5,35.3,35.3,0,0,1-4.6,0l-1.6-.3-1.2-.5L146,28.1a5.3,5.3,0,0,1-1.4-1.1,7.5,7.5,0,0,1-1-1.7,28.7,28.7,0,0,1-.8-3.1,30.7,30.7,0,0,1-.3-4.3,9.2,9.2,0,0,1,.1-1.6A6.8,6.8,0,0,1,143,15a8.8,8.8,0,0,1,.9-2.3,13.3,13.3,0,0,1,1.4-2l.8-1a12.2,12.2,0,0,1,2-1.4A9,9,0,0,1,151,7a6,6,0,0,1,1.8-.3,4.2,4.2,0,0,1,1.8.3,4.1,4.1,0,0,1,1.8,1,9.5,9.5,0,0,1,1.5,1.2,14,14,0,0,1,1.8,1.8,12,12,0,0,1,1.7,3,11.4,11.4,0,0,1,1.2,3,15.7,15.7,0,0,1,.3,2.4,12.8,12.8,0,0,1,.1,3.9A7.1,7.1,0,0,1,162.6,25.7Z" transform="translate(-2.1 -6.2)" fill="none" stroke="#000" stroke-linecap="round" stroke-linejoin="round" stroke-width="0.57"/><path d="M125.1,18.3c-.2,1.6-.4,1.4-.5,2.3s0,2,.3,2.1.3-.3.6-.8a8.1,8.1,0,0,0,.5-1.4l.8-2.8a14.3,14.3,0,0,0,.3-2.9c-.1-.5-.1-.9-.3-.9s-.4.4-.5.6a6.8,6.8,0,0,0-.6,1.6l-.2.6C125.3,17.4,125.2,17.9,125.1,18.3Z" transform="translate(-2.1 -6.2)" fill="none" stroke="#000" stroke-linecap="round" stroke-linejoin="round" stroke-width="0.57"/><path d="M127.9,7.9l-1.4,2-1.7,2.9a21.7,21.7,0,0,0-1.2,3.6,29.9,29.9,0,0,0-.8,4.4,34.4,34.4,0,0,0-.1,3.5,26.5,26.5,0,0,0,0,2.9c.1.8.2,1.6.3,2.1" transform="translate(-2.1 -6.2)" fill="none" stroke="#000" stroke-linecap="round" stroke-linejoin="round" stroke-width="0.57"/><line x1="127" y1="13" x2="128.4" y2="13" fill="none" stroke="#000" stroke-linecap="round" stroke-linejoin="round" stroke-width="0.57"/><line x1="131.1" y1="13" x2="135.7" y2="13" fill="none" stroke-dasharray="3.33 2.66" stroke-linecap="round" stroke-linejoin="round" stroke-width="0.57" stroke="#000"/><line x1="137.1" y1="13" x2="138.5" y2="13" fill="none" stroke="#000" stroke-linecap="round" stroke-linejoin="round" stroke-width="0.57"/></g></svg>