<svg xmlns="http://www.w3.org/2000/svg" xmlns:xlink="http://www.w3.org/1999/xlink" viewBox="0 0 330.7 261.8"><defs><pattern id="_10_lpi_10_" data-name="10 lpi 10%" width="72" height="72" patternTransform="translate(25.3 -20.5) rotate(45)" patternUnits="userSpaceOnUse" viewBox="0 0 72 72"><rect width="72" height="72" fill="none"/><line x1="71.8" y1="68.4" x2="144.3" y2="68.4" fill="none" stroke="#231815" stroke-width="0.28"/><line x1="71.8" y1="54" x2="144.3" y2="54" fill="none" stroke="#231815" stroke-width="0.28"/><line x1="71.8" y1="39.6" x2="144.3" y2="39.6" fill="none" stroke="#231815" stroke-width="0.28"/><line x1="71.8" y1="25.2" x2="144.3" y2="25.2" fill="none" stroke="#231815" stroke-width="0.28"/><line x1="71.8" y1="10.8" x2="144.3" y2="10.8" fill="none" stroke="#231815" stroke-width="0.28"/><line x1="71.8" y1="61.2" x2="144.3" y2="61.2" fill="none" stroke="#231815" stroke-width="0.28"/><line x1="71.8" y1="46.8" x2="144.3" y2="46.8" fill="none" stroke="#231815" stroke-width="0.28"/><line x1="71.8" y1="32.4" x2="144.3" y2="32.4" fill="none" stroke="#231815" stroke-width="0.28"/><line x1="71.8" y1="18" x2="144.3" y2="18" fill="none" stroke="#231815" stroke-width="0.28"/><line x1="71.8" y1="3.6" x2="144.3" y2="3.6" fill="none" stroke="#231815" stroke-width="0.28"/><line x1="71.8" y1="72" x2="144.3" y2="72" fill="none" stroke="#231815" stroke-width="0.28"/><line x1="71.8" y1="57.6" x2="144.3" y2="57.6" fill="none" stroke="#231815" stroke-width="0.28"/><line x1="71.8" y1="43.2" x2="144.3" y2="43.2" fill="none" stroke="#231815" stroke-width="0.28"/><line x1="71.8" y1="28.8" x2="144.3" y2="28.8" fill="none" stroke="#231815" stroke-width="0.28"/><line x1="71.8" y1="14.4" x2="144.3" y2="14.4" fill="none" stroke="#231815" stroke-width="0.28"/><line x1="71.8" y1="64.8" x2="144.3" y2="64.8" fill="none" stroke="#231815" stroke-width="0.28"/><line x1="71.8" y1="50.4" x2="144.3" y2="50.4" fill="none" stroke="#231815" stroke-width="0.28"/><line x1="71.8" y1="36" x2="144.3" y2="36" fill="none" stroke="#231815" stroke-width="0.28"/><line x1="71.8" y1="21.6" x2="144.3" y2="21.6" fill="none" stroke="#231815" stroke-width="0.28"/><line x1="71.8" y1="7.2" x2="144.3" y2="7.2" fill="none" stroke="#231815" stroke-width="0.28"/><line x1="-0.3" y1="68.4" x2="72.3" y2="68.4" fill="none" stroke="#231815" stroke-width="0.28"/><line x1="-0.3" y1="54" x2="72.3" y2="54" fill="none" stroke="#231815" stroke-width="0.28"/><line x1="-0.3" y1="39.6" x2="72.3" y2="39.6" fill="none" stroke="#231815" stroke-width="0.28"/><line x1="-0.3" y1="25.2" x2="72.3" y2="25.2" fill="none" stroke="#231815" stroke-width="0.28"/><line x1="-0.3" y1="10.8" x2="72.3" y2="10.8" fill="none" stroke="#231815" stroke-width="0.28"/><line x1="-0.3" y1="61.2" x2="72.3" y2="61.2" fill="none" stroke="#231815" stroke-width="0.28"/><line x1="-0.3" y1="46.8" x2="72.3" y2="46.8" fill="none" stroke="#231815" stroke-width="0.28"/><line x1="-0.3" y1="32.4" x2="72.3" y2="32.4" fill="none" stroke="#231815" stroke-width="0.28"/><line x1="-0.3" y1="18" x2="72.3" y2="18" fill="none" stroke="#231815" stroke-width="0.28"/><line x1="-0.3" y1="3.6" x2="72.3" y2="3.6" fill="none" stroke="#231815" stroke-width="0.28"/><line x1="-0.3" y1="72" x2="72.3" y2="72" fill="none" stroke="#231815" stroke-width="0.28"/><line x1="-0.3" y1="57.6" x2="72.3" y2="57.6" fill="none" stroke="#231815" stroke-width="0.28"/><line x1="-0.3" y1="43.2" x2="72.3" y2="43.2" fill="none" stroke="#231815" stroke-width="0.28"/><line x1="-0.3" y1="28.8" x2="72.3" y2="28.8" fill="none" stroke="#231815" stroke-width="0.28"/><line x1="-0.3" y1="14.4" x2="72.3" y2="14.4" fill="none" stroke="#231815" stroke-width="0.28"/><line x1="-0.3" y1="64.8" x2="72.3" y2="64.8" fill="none" stroke="#231815" stroke-width="0.28"/><line x1="-0.3" y1="50.4" x2="72.3" y2="50.4" fill="none" stroke="#231815" stroke-width="0.28"/><line x1="-0.3" y1="36" x2="72.3" y2="36" fill="none" stroke="#231815" stroke-width="0.28"/><line x1="-0.3" y1="21.6" x2="72.3" y2="21.6" fill="none" stroke="#231815" stroke-width="0.28"/><line x1="-0.3" y1="7.2" x2="72.3" y2="7.2" fill="none" stroke="#231815" stroke-width="0.28"/><line x1="-72.3" y1="68.4" x2="0.3" y2="68.4" fill="none" stroke="#231815" stroke-width="0.28"/><line x1="-72.3" y1="54" x2="0.3" y2="54" fill="none" stroke="#231815" stroke-width="0.28"/><line x1="-72.3" y1="39.6" x2="0.3" y2="39.6" fill="none" stroke="#231815" stroke-width="0.28"/><line x1="-72.3" y1="25.2" x2="0.3" y2="25.2" fill="none" stroke="#231815" stroke-width="0.28"/><line x1="-72.3" y1="10.8" x2="0.3" y2="10.8" fill="none" stroke="#231815" stroke-width="0.28"/><line x1="-72.3" y1="61.2" x2="0.3" y2="61.2" fill="none" stroke="#231815" stroke-width="0.28"/><line x1="-72.3" y1="46.8" x2="0.3" y2="46.8" fill="none" stroke="#231815" stroke-width="0.28"/><line x1="-72.3" y1="32.4" x2="0.3" y2="32.4" fill="none" stroke="#231815" stroke-width="0.28"/><line x1="-72.3" y1="18" x2="0.3" y2="18" fill="none" stroke="#231815" stroke-width="0.28"/><line x1="-72.3" y1="3.6" x2="0.3" y2="3.6" fill="none" stroke="#231815" stroke-width="0.28"/><line x1="-72.3" y1="72" x2="0.3" y2="72" fill="none" stroke="#231815" stroke-width="0.28"/><line x1="-72.3" y1="57.6" x2="0.3" y2="57.6" fill="none" stroke="#231815" stroke-width="0.28"/><line x1="-72.3" y1="43.2" x2="0.3" y2="43.2" fill="none" stroke="#231815" stroke-width="0.28"/><line x1="-72.3" y1="28.8" x2="0.3" y2="28.8" fill="none" stroke="#231815" stroke-width="0.28"/><line x1="-72.3" y1="14.4" x2="0.3" y2="14.4" fill="none" stroke="#231815" stroke-width="0.28"/><line x1="-72.3" y1="64.8" x2="0.3" y2="64.8" fill="none" stroke="#231815" stroke-width="0.28"/><line x1="-72.3" y1="50.4" x2="0.3" y2="50.4" fill="none" stroke="#231815" stroke-width="0.28"/><line x1="-72.3" y1="36" x2="0.3" y2="36" fill="none" stroke="#231815" stroke-width="0.28"/><line x1="-72.3" y1="21.6" x2="0.3" y2="21.6" fill="none" stroke="#231815" stroke-width="0.28"/><line x1="-72.3" y1="7.2" x2="0.3" y2="7.2" fill="none" stroke="#231815" stroke-width="0.28"/><line x1="71.8" x2="144.3" fill="none" stroke="#231815" stroke-width="0.28"/><line x1="-0.3" x2="72.3" fill="none" stroke="#231815" stroke-width="0.28"/><line x1="-72.3" x2="0.3" fill="none" stroke="#231815" stroke-width="0.28"/></pattern></defs><g id="scale-1:1"><path d="M247.9,268.5v9.9H106.2v-10" transform="translate(-17 -16.9)" fill="none" stroke="#040000" stroke-miterlimit="10" stroke-width="0.5"/><line x1="117.6" y1="251.6" x2="117.6" y2="261.6" fill="none" stroke="#040000" stroke-miterlimit="10" stroke-width="0.5"/><line x1="145.9" y1="251.6" x2="145.9" y2="261.6" fill="none" stroke="#040000" stroke-miterlimit="10" stroke-width="0.5"/><line x1="174.3" y1="251.6" x2="174.3" y2="261.6" fill="none" stroke="#040000" stroke-miterlimit="10" stroke-width="0.5"/><line x1="202.6" y1="251.6" x2="202.6" y2="261.6" fill="none" stroke="#040000" stroke-miterlimit="10" stroke-width="0.5"/><text transform="translate(85.6 247.1)" font-size="14.17" fill="#040000" font-family="AdobeMingStd-Light-B5pc-H, Adobe Ming Std">0</text><text transform="translate(227.6 247.1)" font-size="14.17" fill="#040000" font-family="AdobeMingStd-Light-B5pc-H, Adobe Ming Std">5cm</text></g><g id="outline"><path d="M344.3,229.4l-8.4-.3h-7.8a12.7,12.7,0,0,1-2.4-.3,3,3,0,0,1-1.7-.6,3.8,3.8,0,0,1-.9-1.2,16.4,16.4,0,0,1-.6-2.7,11.3,11.3,0,0,1-.2-1.4l-.4-2.8c-.2-2.1-.2-2.3-.5-5.5-.1-1.5-.1-1.5-.2-2.7s-.2-2.3-.3-3.3-.4-1.7-.6-3.3a17.2,17.2,0,0,1-.3-2.9c0-.7-.2-3.6-.4-6s-.4-2.5-.6-4.5,0-2.2-.1-5.8-.1-3-.2-6.4v-5.4c0-.3.1-1.3.1-2.5v-2c-.1-2.3-.4-5.5-.5-7.5s-.2-2.7-.6-8.3c-.2-3.6-.2-3.1-.4-4.9s-.2-3.6-.3-10.9c-.1-3.5-.1-5.3-.1-6.6l-.2-9.2a26.9,26.9,0,0,0-.3-3.2l-.4-2.8c-.1-.5-.1-1-.2-1.7v-4.4c0-1.5-.1-2.1-.1-2.5a6.6,6.6,0,0,0-.4-1.5c-.1-.2-.2-.6-.5-1.2a22.4,22.4,0,0,0-1.7-2.5c-.8-.8-1.1-1.3-1.7-1.4s-1,0-2.1.3l-2.3.8-1.9.3h-5.4l-2-.2a32.2,32.2,0,0,0-4.3-.1h-7.2c-1.3,0-3.6,0-6.7-.2l-4.7-.4-7-.3h-5.5l-3.4.4a19.4,19.4,0,0,1-4,.1l-4.6-.3-5.4-.2a37.2,37.2,0,0,0-5.3.3,43.4,43.4,0,0,0-5.5.6l-2.2.2h-3.1a45.2,45.2,0,0,0-5.7,0h-7.7l-2.9-.6-3.7-.7h-9.9l-11.3-.2a24.3,24.3,0,0,1-2.7,0l-2-.2-1.7-.3-1.6-.3h0v-.2c0-.4-.1-1.1-.2-2.2s0-1-.1-2.5V93.4c-.1-2.1-.1-4.7-.1-5.3,0-3.2-.1-8-.3-17-.1-5.6-.1-5.7-.2-9.5v-1c5-.2,8.8-.1,11.5-.1s3.3.1,6.2-.1a46.4,46.4,0,0,0,5.2-.5,152.7,152.7,0,0,1,23-.8,72.4,72.4,0,0,0,7.9.2c2.7-.1,4.3-.4,8.1-.4h3.9l6.5.2H258a52.3,52.3,0,0,0,6.5-.3l2.2-.3a31.9,31.9,0,0,1,3.7-.2h13.8l4.8-.3,2.7-.3a35.1,35.1,0,0,1,4.6-.4l6.2-.2a11.8,11.8,0,0,0,3-.2l1.4-.4a23.8,23.8,0,0,1,3-.4c1.3-.1,1.7,0,2.1-.3a2.4,2.4,0,0,0,.7-1.2c.5-1.7.5-2.5.8-3.5a19.2,19.2,0,0,1,1.4-3.5c.5-1.3.6-1.1.8-1.8a20.1,20.1,0,0,0,.9-4.1,29.1,29.1,0,0,1,1.1-4c.4-1.6.9-3.6,1.4-6.2a29.5,29.5,0,0,0,.6-5.2,14.8,14.8,0,0,1,.2-2.7,18.7,18.7,0,0,1,.8-2.8c.6-1.7,1-2.5,1.6-2.9a3.5,3.5,0,0,1,2.3-.4,6,6,0,0,1,2.8.7c.8.5,1.5,1.2,2.4,4.1a32.9,32.9,0,0,1,1.3,5.5c.5,3.2.3,4.2.6,8.1s.4,2.4.7,6c.6,5.4.3,5.7.9,10,.3,2.4.4,3.8.8,5.7s.5,2.3.7,4,.3,2.6.3,2.9.3,1.6.4,2.4a1,1,0,0,0,.3.8l.7.3h1l2.3.4c2.8.4,3,.6,3.1.7s.2.3.5,2.1a18.5,18.5,0,0,1,.2,2c.4,5.1.4,7.9.4,7.9.1,4.9-.1,4.5,0,8s.3,3.9.4,6.5.3,3.7.4,6.1v2.9c-.1,4.1-.2,4.6-.2,7.3s.1,2,.2,5.3v5.4c0,1.5,0,1.4.1,7.9,0,1.1.1,3,.1,5.3s.1,3.7.1,4.2c0,3.3-.2,3.7-.3,7.6,0,2-.1,5,0,8.8.1,1.6.1,2.7.1,4.5s-.1,1-.3,4.4-.2,3.5-.2,3.9a47.8,47.8,0,0,0,.1,5.7,26.6,26.6,0,0,0,.4,3.4c.2,3,.2,5.1.3,7.9,0,6.8.1,5.3.2,13.8,0,4,.1,9.2.2,11.9,0,.5.1,1.4.1,2.7s0,1.6.1,2.9a17.1,17.1,0,0,0,.1,2.6c.1,1.2.1,1.9.2,2.8a31.3,31.3,0,0,0,1.2,5.6c0,.2.2.6,0,.9s-.6.2-1.4.2Z" transform="translate(-17 -16.9)" fill="url(#_10_lpi_10_)"/><path d="M177.9,18c0,3.5.3,18.5.5,31.3,0,3.2.1,6.8.2,11.3v1c.1,3.8.1,3.9.2,9.5.2,9,.3,13.8.3,17,0,.6,0,3.2.1,5.3v1.7c.1,1.5.1,1.8.1,2.5s.2,1.8.2,2.2v.2c.3,2.3.2,5.2.3,10.6.1,2.3,0,.4.1,5,.2,7.5.3,13.9.3,16.3.2,15.5.1,16.6.3,22s.2,3.6.4,9,.4,11.5.5,17.5c.1,2.4.1,3.1.2,7.3.1,8.1.2,15.3.4,21.5s.3,12,.6,20.4" transform="translate(-17 -16.9)" fill="none" stroke="#000" stroke-linecap="round" stroke-linejoin="round" stroke-width="0.43"/><path d="M344.2,229.4h.1l-8.4-.3h-7.8a12.7,12.7,0,0,1-2.4-.3,3,3,0,0,1-1.7-.6,3.8,3.8,0,0,1-.9-1.2,16.4,16.4,0,0,1-.6-2.7,11.3,11.3,0,0,1-.2-1.4l-.4-2.8c-.2-2.1-.2-2.3-.5-5.5-.1-1.5-.1-1.5-.2-2.7s-.2-2.3-.3-3.3-.4-1.7-.6-3.3a17.2,17.2,0,0,1-.3-2.9c0-.7-.2-3.6-.4-6s-.4-2.5-.6-4.5,0-2.2-.1-5.8-.1-3-.2-6.4v-5.4c0-.3.1-1.3.1-2.5v-2c-.1-2.3-.4-5.5-.5-7.5s-.2-2.7-.6-8.3c-.2-3.6-.2-3.1-.4-4.9s-.2-3.6-.3-10.9c-.1-3.5-.1-5.3-.1-6.6l-.2-9.2a26.9,26.9,0,0,0-.3-3.2l-.4-2.8c-.1-.5-.1-1-.2-1.7v-4.4c0-1.5-.1-2.1-.1-2.5a6.6,6.6,0,0,0-.4-1.5c-.1-.2-.2-.6-.5-1.2a22.4,22.4,0,0,0-1.7-2.5c-.8-.8-1.1-1.3-1.7-1.4s-1,0-2.1.3l-2.3.8-1.9.3h-5.4l-2-.2a32.2,32.2,0,0,0-4.3-.1h-7.2c-1.3,0-3.6,0-6.7-.2l-4.7-.4-7-.3h-5.5l-3.4.4a19.4,19.4,0,0,1-4,.1l-4.6-.3-5.4-.2a37.2,37.2,0,0,0-5.3.3,43.4,43.4,0,0,0-5.5.6l-2.2.2h-3.1a45.2,45.2,0,0,0-5.7,0h-7.7l-2.9-.6-3.7-.7h-9.9l-11.3-.2a24.3,24.3,0,0,1-2.7,0l-2-.2-1.7-.3-1.6-.3" transform="translate(-17 -16.9)" fill="none" stroke="#000" stroke-linejoin="round" stroke-width="0.57"/><path d="M178.6,60.6c5-.2,8.8-.1,11.5-.1s3.3.1,6.2-.1a46.4,46.4,0,0,0,5.2-.5,152.7,152.7,0,0,1,23-.8,72.4,72.4,0,0,0,7.9.2c2.7-.1,4.3-.4,8.1-.4h3.9l6.5.2H258a52.3,52.3,0,0,0,6.5-.3l2.2-.3a31.9,31.9,0,0,1,3.7-.2h13.8l4.8-.3,2.7-.3a35.1,35.1,0,0,1,4.6-.4l6.2-.2a11.8,11.8,0,0,0,3-.2l1.4-.4a23.8,23.8,0,0,1,3-.4c1.3-.1,1.7,0,2.1-.3a2.4,2.4,0,0,0,.7-1.2c.5-1.7.5-2.5.8-3.5a19.2,19.2,0,0,1,1.4-3.5c.5-1.3.6-1.1.8-1.8a20.1,20.1,0,0,0,.9-4.1,29.1,29.1,0,0,1,1.1-4c.4-1.6.9-3.6,1.4-6.2a29.5,29.5,0,0,0,.6-5.2,14.8,14.8,0,0,1,.2-2.7,18.7,18.7,0,0,1,.8-2.8c.6-1.7,1-2.5,1.6-2.9a3.5,3.5,0,0,1,2.3-.4,6,6,0,0,1,2.8.7c.8.5,1.5,1.2,2.4,4.1a32.9,32.9,0,0,1,1.3,5.5c.5,3.2.3,4.2.6,8.1s.4,2.4.7,6c.6,5.4.3,5.7.9,10,.3,2.4.4,3.8.8,5.7s.5,2.3.7,4,.3,2.6.3,2.9.3,1.6.4,2.4a1,1,0,0,0,.3.8l.7.3h1l2.3.4c2.8.4,3,.6,3.1.7s.2.3.5,2.1a18.5,18.5,0,0,1,.2,2c.4,5.1.4,7.9.4,7.9.1,4.9-.1,4.5,0,8s.3,3.9.4,6.5.3,3.7.4,6.1v2.9c-.1,4.1-.2,4.6-.2,7.3s.1,2,.2,5.3v5.4c0,1.5,0,1.4.1,7.9,0,1.1.1,3,.1,5.3s.1,3.7.1,4.2c0,3.3-.2,3.7-.3,7.6,0,2-.1,5,0,8.8.1,1.6.1,2.7.1,4.5s-.1,1-.3,4.4-.2,3.5-.2,3.9a47.8,47.8,0,0,0,.1,5.7,26.6,26.6,0,0,0,.4,3.4c.2,3,.2,5.1.3,7.9,0,6.8.1,5.3.2,13.8,0,4,.1,9.2.2,11.9,0,.5.1,1.4.1,2.7s0,1.6.1,2.9a17.1,17.1,0,0,0,.1,2.6c.1,1.2.1,1.9.2,2.8a31.3,31.3,0,0,0,1.2,5.6c0,.2.2.6,0,.9s-.6.2-1.4.2h-1.6" transform="translate(-17 -16.9)" fill="none" stroke="#000" stroke-linejoin="round" stroke-width="0.57"/><path d="M327.6,228.9H302.3l-47.1.2H232.1l-11.7.2H207.7c-5.8.1-6.7.2-13.7.2h-7.4l-12.5.4c-3.3.1-2.8,0-13.5-.1-16.8-.2-24.3,0-25.5.1h-5.3c-2.3-.1-6.6,0-13,.1l-13,.2H82.5l-10.1.2H20.8a2.3,2.3,0,0,1-1.8-.8c-.4-.4-.4-1.1-.5-2.7v-2c0-1.6.1-1.5.1-2.4s-.1-2.1,0-3.2v-1.3a10.3,10.3,0,0,0,.1-1.3,2.2,2.2,0,0,1-.1-.6c0-.6,0-.7.1-.8l.5-.3.8-.3a.8.8,0,0,1,.1-.4v-.8c0-1.5-.1-2.7-.1-2.7a29.1,29.1,0,0,1,0-3c0-2.9-.1-5.6-.2-9.9s0-4-.1-8.4c-.1-7.9-.3-8.6-.4-17-.1-5.1,0-4.8-.1-10.6-.1-2.5-.1-6.2-.3-11s-.1-4.6-.2-7.3v-7.3a27.4,27.4,0,0,1-.1-3.3,11.3,11.3,0,0,0,.1-1.4,5.4,5.4,0,0,1,0-1.8c0-.2,0-.4.2-.5h1.3c.1-.1.2-.2.3-.9v-.7a5.7,5.7,0,0,1-.1-1.3v-2c0-1.3-.1-1.6-.3-1.8h-.9c-.7-.1-1-.1-1.2-.3s-.3-.6-.4-1.3v-1.3a3.3,3.3,0,0,1,.5-1.5l.5-.2c.5-.2.8,0,1.1-.1s.3-1,.3-2.6-.1-3.1-.6-3.3H17.9c-.5-.3-.5-1.2-.5-2.2s.3-1.4.4-1.4h.8c.5-.1.8-.1,1-.3a1,1,0,0,0,.4-.7,4.2,4.2,0,0,0,.2-2,9.7,9.7,0,0,0-.3-1.8,4.2,4.2,0,0,0-.7-1.3c-.3-.5-.5-.5-.9-.9a4.4,4.4,0,0,1-.7-1.2,2.8,2.8,0,0,1-.1-1.8c.1-1.6-.1-3.2-.1-4.8s.1-4.3.1-6.8c0-.2,0,0-.1-5.3-.1-1.8-.1-3.5-.1-5.3V73.3a6.3,6.3,0,0,1,.1-1.7,12.3,12.3,0,0,1,.7-1.9c.4-1.1.4-1.2.7-1.4s.5-.2,1.6-.4a5.6,5.6,0,0,0,2.2-.8,2.8,2.8,0,0,0,.8-.6,4.1,4.1,0,0,0,.4-1.6,3.2,3.2,0,0,0,0-1.4c0-.3.1-1,.1-2.4s.1-2.3.2-3.4a47.5,47.5,0,0,0,.3-5.4c.3-3.4.5-3.7.8-7.5.1-1.2.2-2.8.4-6.2.1-1.1.3-5.5.8-10.4a17.3,17.3,0,0,1,1-4.6,13.2,13.2,0,0,1,1.4-2.8,5.9,5.9,0,0,1,2.3-2.6,4.7,4.7,0,0,1,1.7-.4,17,17,0,0,1,3.4-.3l5.1.2h7.8c4.1-.1,12.5,0,14.6.1,7.9.1,7.6-.1,21.5-.1l18.7.2h21.6c4.2,0,9.6,0,14.6.2h3.2c2.8.1,4.6,0,8.2-.1h29.8l24.2-.2h24.2l32.1-.2h19.9c7.9.1,10.7.1,16.5,0l10.7-.2c5.8,0,10.4.2,13.4.3" transform="translate(-17 -16.9)" fill="none" stroke="#000" stroke-linecap="round" stroke-linejoin="round" stroke-width="0.57"/><path d="M23.1,66.7c1.8.1,5,.3,8.9.3s8.6.1,9.6.1c10.8,0,32.6.5,69.6.7l50.5.3h17" transform="translate(-17 -16.9)" fill="none" stroke="#000" stroke-linecap="round" stroke-linejoin="round" stroke-width="0.43"/><path d="M19.6,107.7l7.9.4H50l20.4.3H84.8c17.6.1,18.6.2,40.8.2h37.7" transform="translate(-17 -16.9)" fill="none" stroke="#000" stroke-linecap="round" stroke-linejoin="round" stroke-width="0.43"/><path d="M18.8,101.5H179.7" transform="translate(-17 -16.9)" fill="none" stroke="#000" stroke-linecap="round" stroke-linejoin="round" stroke-width="0.43"/><path d="M20.2,129.2H38.7l14.4.2,25.3.2,31.1.4,27.2.2,43.6.3" transform="translate(-17 -16.9)" fill="none" stroke="#000" stroke-linecap="round" stroke-linejoin="round" stroke-width="0.43"/><path d="M19.7,112.1H39.6l25.4.3,20.6.3,27.7.3c7.8,0,15.7.2,23.5.1,1.6,0,4.5,0,8.3.2l3.2.2,6.5.3H180" transform="translate(-17 -16.9)" fill="none" stroke="#000" stroke-linecap="round" stroke-linejoin="round" stroke-width="0.43"/><path d="M19.7,117.8l46.2.4h9l27.9.2,33.6.2h8.5c3.1.2,4.7,0,8,0,7.2-.1,9.8.4,13.5.2h5.7l2.5.2h5.5" transform="translate(-17 -16.9)" fill="none" stroke="#000" stroke-linecap="round" stroke-linejoin="round" stroke-width="0.43"/><path d="M20,214.8H36.8c6.1-.2,7.8,0,18.2.1,7.1.1,6.5,0,33.1-.1h52.4c4,.3,8-.1,12,0h1.8c.7-.1.9-.1,1.1-.3s.4-.6.5-1.6v-2.2c0-.1,0-.8.1-2.4v-3.2c.1-2.2.1-4.8.1-7.4.1-10.5,0-21.8,0-21.8-.1-2.3-.1-4.6-.1-6.8s-.1-3.9,0-6.1a24,24,0,0,1,.6-5.5,14,14,0,0,1,2.3-4.9,12.4,12.4,0,0,1,5.3-3.5l3-.8,3-.2a8.8,8.8,0,0,1,5.7,1.6,7.4,7.4,0,0,1,2.2,2,11.4,11.4,0,0,1,1.8,3.5,24.9,24.9,0,0,1,1.1,6.3" transform="translate(-17 -16.9)" fill="none" stroke="#000" stroke-linecap="round" stroke-linejoin="round" stroke-width="0.43"/><path d="M160,229.9c.1-2.4.2-6,.2-10.3.2-8,.1-8.4.2-16.5s.3-10.8.4-19.7c0-1.5.1-3,.1-4.5.1-8.8-.1-9.2.2-11.4.4-4,.8-7.1,3.2-9.7.7-.8,2.7-3,5.4-2.9a5,5,0,0,1,3.2,1.5c1.6,1.3,2.1,3,2.7,4.7a26.2,26.2,0,0,1,.6,3,36.3,36.3,0,0,1,.2,5v4.6c-.1,3.6,0,6.6.1,12,.2,9.6,0,9,.2,19.9q.2,8.4.3,15.6c.1,3.6.2,6.5.2,8.7" transform="translate(-17 -16.9)" fill="none" stroke="#000" stroke-linecap="round" stroke-linejoin="round" stroke-width="0.43"/><path d="M163.3,113.9v-2.6a31.5,31.5,0,0,1,0-3.6v-2.1a4.1,4.1,0,0,0,.1-.9c0-.6.1-.7.2-.8h6.3c.9-.1,1,0,1.1.1s.1.3,0,.9v.8c0,3.6-.1,5.8-.1,5.8s-.1,1.5-.1,2.5" transform="translate(-17 -16.9)" fill="none" stroke="#000" stroke-linecap="round" stroke-linejoin="round" stroke-width="0.43"/><path d="M171,108.6h3.8l5.1-.2" transform="translate(-17 -16.9)" fill="none" stroke="#000" stroke-linecap="round" stroke-linejoin="round" stroke-width="0.43"/><path d="M146.6,113.4l-.5,1.3a3.8,3.8,0,0,0-.3,1.6c-.1.7-.2,1.6-.3,2.6" transform="translate(-17 -16.9)" fill="none" stroke="#000" stroke-linecap="round" stroke-linejoin="round" stroke-width="0.43"/><path d="M162.3,119.1a17.7,17.7,0,0,0,0,3.3c.1.9.1.9.2,2.1s.1,2.4.2,3.9.2,1.3.3,2.1" transform="translate(-17 -16.9)" fill="none" stroke="#000" stroke-linecap="round" stroke-linejoin="round" stroke-width="0.43"/><path d="M164.2,119.1c.1.9.2,2.2.3,3.7s0,2.2-.1,3.4-.1,2.6-.2,4.3" transform="translate(-17 -16.9)" fill="none" stroke="#000" stroke-linecap="round" stroke-linejoin="round" stroke-width="0.43"/><path d="M170.9,119.1c-.2,1.4-.3,2.5-.4,3.3s-.3,3.5-.3,5.2.2,2.3.3,3" transform="translate(-17 -16.9)" fill="none" stroke="#000" stroke-linecap="round" stroke-linejoin="round" stroke-width="0.43"/><path d="M170.4,123.7h9.8" transform="translate(-17 -16.9)" fill="none" stroke="#000" stroke-linecap="round" stroke-linejoin="round" stroke-width="0.43"/><path d="M162.4,123.5h-43l-34-.3-51-.4-14.3-.2" transform="translate(-17 -16.9)" fill="none" stroke="#000" stroke-linecap="round" stroke-linejoin="round" stroke-width="0.43"/></g></svg>