<svg xmlns="http://www.w3.org/2000/svg" xmlns:xlink="http://www.w3.org/1999/xlink" viewBox="0 0 465.3 398.4"><defs><pattern id="_10_lpi_10_" data-name="10 lpi 10%" width="72" height="72" patternTransform="translate(48.6 -39.8) rotate(45)" patternUnits="userSpaceOnUse" viewBox="0 0 72 72"><rect width="72" height="72" fill="none"/><line x1="71.8" y1="68.4" x2="144.3" y2="68.4" fill="none" stroke="#231815" stroke-width="0.28"/><line x1="71.8" y1="54" x2="144.3" y2="54" fill="none" stroke="#231815" stroke-width="0.28"/><line x1="71.8" y1="39.6" x2="144.3" y2="39.6" fill="none" stroke="#231815" stroke-width="0.28"/><line x1="71.8" y1="25.2" x2="144.3" y2="25.2" fill="none" stroke="#231815" stroke-width="0.28"/><line x1="71.8" y1="10.8" x2="144.3" y2="10.8" fill="none" stroke="#231815" stroke-width="0.28"/><line x1="71.8" y1="61.2" x2="144.3" y2="61.2" fill="none" stroke="#231815" stroke-width="0.28"/><line x1="71.8" y1="46.8" x2="144.3" y2="46.8" fill="none" stroke="#231815" stroke-width="0.28"/><line x1="71.8" y1="32.4" x2="144.3" y2="32.4" fill="none" stroke="#231815" stroke-width="0.28"/><line x1="71.8" y1="18" x2="144.3" y2="18" fill="none" stroke="#231815" stroke-width="0.28"/><line x1="71.8" y1="3.6" x2="144.3" y2="3.6" fill="none" stroke="#231815" stroke-width="0.28"/><line x1="71.5" y1="72" x2="144" y2="72" fill="none" stroke="#231815" stroke-width="0.28"/><line x1="71.5" y1="57.6" x2="144" y2="57.6" fill="none" stroke="#231815" stroke-width="0.28"/><line x1="71.5" y1="43.2" x2="144" y2="43.2" fill="none" stroke="#231815" stroke-width="0.28"/><line x1="71.5" y1="28.8" x2="144" y2="28.8" fill="none" stroke="#231815" stroke-width="0.28"/><line x1="71.5" y1="14.4" x2="144" y2="14.4" fill="none" stroke="#231815" stroke-width="0.28"/><line x1="71.5" y1="64.8" x2="144" y2="64.8" fill="none" stroke="#231815" stroke-width="0.28"/><line x1="71.5" y1="50.4" x2="144" y2="50.4" fill="none" stroke="#231815" stroke-width="0.28"/><line x1="71.5" y1="36" x2="144" y2="36" fill="none" stroke="#231815" stroke-width="0.28"/><line x1="71.5" y1="21.6" x2="144" y2="21.6" fill="none" stroke="#231815" stroke-width="0.28"/><line x1="71.5" y1="7.2" x2="144" y2="7.2" fill="none" stroke="#231815" stroke-width="0.28"/><line x1="-0.3" y1="68.4" x2="72.3" y2="68.4" fill="none" stroke="#231815" stroke-width="0.28"/><line x1="-0.3" y1="54" x2="72.3" y2="54" fill="none" stroke="#231815" stroke-width="0.28"/><line x1="-0.3" y1="39.6" x2="72.3" y2="39.6" fill="none" stroke="#231815" stroke-width="0.28"/><line x1="-0.3" y1="25.2" x2="72.3" y2="25.2" fill="none" stroke="#231815" stroke-width="0.28"/><line x1="-0.3" y1="10.8" x2="72.3" y2="10.8" fill="none" stroke="#231815" stroke-width="0.28"/><line x1="-0.3" y1="61.2" x2="72.3" y2="61.2" fill="none" stroke="#231815" stroke-width="0.28"/><line x1="-0.3" y1="46.8" x2="72.3" y2="46.8" fill="none" stroke="#231815" stroke-width="0.28"/><line x1="-0.3" y1="32.4" x2="72.3" y2="32.4" fill="none" stroke="#231815" stroke-width="0.28"/><line x1="-0.3" y1="18" x2="72.3" y2="18" fill="none" stroke="#231815" stroke-width="0.28"/><line x1="-0.3" y1="3.6" x2="72.3" y2="3.6" fill="none" stroke="#231815" stroke-width="0.28"/><line x1="-0.5" y1="72" x2="72" y2="72" fill="none" stroke="#231815" stroke-width="0.28"/><line x1="-0.5" y1="57.6" x2="72" y2="57.6" fill="none" stroke="#231815" stroke-width="0.28"/><line x1="-0.5" y1="43.2" x2="72" y2="43.2" fill="none" stroke="#231815" stroke-width="0.28"/><line x1="-0.5" y1="28.8" x2="72" y2="28.8" fill="none" stroke="#231815" stroke-width="0.28"/><line x1="-0.5" y1="14.4" x2="72" y2="14.4" fill="none" stroke="#231815" stroke-width="0.28"/><line x1="-0.5" y1="64.8" x2="72" y2="64.8" fill="none" stroke="#231815" stroke-width="0.28"/><line x1="-0.5" y1="50.4" x2="72" y2="50.4" fill="none" stroke="#231815" stroke-width="0.28"/><line x1="-0.5" y1="36" x2="72" y2="36" fill="none" stroke="#231815" stroke-width="0.28"/><line x1="-0.5" y1="21.6" x2="72" y2="21.6" fill="none" stroke="#231815" stroke-width="0.28"/><line x1="-0.5" y1="7.2" x2="72" y2="7.2" fill="none" stroke="#231815" stroke-width="0.28"/><line x1="-72.3" y1="68.4" x2="0.3" y2="68.4" fill="none" stroke="#231815" stroke-width="0.28"/><line x1="-72.3" y1="54" x2="0.3" y2="54" fill="none" stroke="#231815" stroke-width="0.28"/><line x1="-72.3" y1="39.6" x2="0.3" y2="39.6" fill="none" stroke="#231815" stroke-width="0.28"/><line x1="-72.3" y1="25.2" x2="0.3" y2="25.2" fill="none" stroke="#231815" stroke-width="0.28"/><line x1="-72.3" y1="10.8" x2="0.3" y2="10.8" fill="none" stroke="#231815" stroke-width="0.28"/><line x1="-72.3" y1="61.2" x2="0.3" y2="61.2" fill="none" stroke="#231815" stroke-width="0.28"/><line x1="-72.3" y1="46.8" x2="0.3" y2="46.8" fill="none" stroke="#231815" stroke-width="0.28"/><line x1="-72.3" y1="32.4" x2="0.3" y2="32.4" fill="none" stroke="#231815" stroke-width="0.28"/><line x1="-72.3" y1="18" x2="0.3" y2="18" fill="none" stroke="#231815" stroke-width="0.28"/><line x1="-72.3" y1="3.6" x2="0.3" y2="3.6" fill="none" stroke="#231815" stroke-width="0.28"/><line x1="71.5" x2="144" fill="none" stroke="#231815" stroke-width="0.28"/><line x1="-0.5" x2="72" fill="none" stroke="#231815" stroke-width="0.28"/></pattern><pattern id="_10_lpi_10_3" data-name="10 lpi 10%" width="72" height="72" patternTransform="translate(13.9 0.5) rotate(45)" patternUnits="userSpaceOnUse" viewBox="0 0 72 72"><rect width="72" height="72" fill="none"/><line x1="71.8" y1="68.4" x2="144.3" y2="68.4" fill="none" stroke="#231815" stroke-width="0.28"/><line x1="71.8" y1="54" x2="144.3" y2="54" fill="none" stroke="#231815" stroke-width="0.28"/><line x1="71.8" y1="39.6" x2="144.3" y2="39.6" fill="none" stroke="#231815" stroke-width="0.28"/><line x1="71.8" y1="25.2" x2="144.3" y2="25.2" fill="none" stroke="#231815" stroke-width="0.28"/><line x1="71.8" y1="10.8" x2="144.3" y2="10.8" fill="none" stroke="#231815" stroke-width="0.28"/><line x1="71.8" y1="61.2" x2="144.3" y2="61.2" fill="none" stroke="#231815" stroke-width="0.28"/><line x1="71.8" y1="46.8" x2="144.3" y2="46.8" fill="none" stroke="#231815" stroke-width="0.28"/><line x1="71.8" y1="32.4" x2="144.3" y2="32.4" fill="none" stroke="#231815" stroke-width="0.28"/><line x1="71.8" y1="18" x2="144.3" y2="18" fill="none" stroke="#231815" stroke-width="0.28"/><line x1="71.8" y1="3.6" x2="144.3" y2="3.6" fill="none" stroke="#231815" stroke-width="0.28"/><line x1="71.5" y1="72" x2="144" y2="72" fill="none" stroke="#231815" stroke-width="0.28"/><line x1="71.5" y1="57.6" x2="144" y2="57.6" fill="none" stroke="#231815" stroke-width="0.28"/><line x1="71.5" y1="43.2" x2="144" y2="43.2" fill="none" stroke="#231815" stroke-width="0.28"/><line x1="71.5" y1="28.8" x2="144" y2="28.8" fill="none" stroke="#231815" stroke-width="0.28"/><line x1="71.5" y1="14.4" x2="144" y2="14.4" fill="none" stroke="#231815" stroke-width="0.28"/><line x1="71.5" y1="64.8" x2="144" y2="64.8" fill="none" stroke="#231815" stroke-width="0.28"/><line x1="71.5" y1="50.4" x2="144" y2="50.4" fill="none" stroke="#231815" stroke-width="0.28"/><line x1="71.5" y1="36" x2="144" y2="36" fill="none" stroke="#231815" stroke-width="0.28"/><line x1="71.5" y1="21.6" x2="144" y2="21.6" fill="none" stroke="#231815" stroke-width="0.28"/><line x1="71.5" y1="7.2" x2="144" y2="7.2" fill="none" stroke="#231815" stroke-width="0.28"/><line x1="-0.3" y1="68.4" x2="72.3" y2="68.4" fill="none" stroke="#231815" stroke-width="0.28"/><line x1="-0.3" y1="54" x2="72.3" y2="54" fill="none" stroke="#231815" stroke-width="0.28"/><line x1="-0.3" y1="39.6" x2="72.3" y2="39.6" fill="none" stroke="#231815" stroke-width="0.28"/><line x1="-0.3" y1="25.2" x2="72.3" y2="25.2" fill="none" stroke="#231815" stroke-width="0.28"/><line x1="-0.3" y1="10.8" x2="72.3" y2="10.8" fill="none" stroke="#231815" stroke-width="0.28"/><line x1="-0.3" y1="61.2" x2="72.3" y2="61.2" fill="none" stroke="#231815" stroke-width="0.28"/><line x1="-0.3" y1="46.8" x2="72.3" y2="46.8" fill="none" stroke="#231815" stroke-width="0.28"/><line x1="-0.3" y1="32.4" x2="72.3" y2="32.4" fill="none" stroke="#231815" stroke-width="0.28"/><line x1="-0.3" y1="18" x2="72.3" y2="18" fill="none" stroke="#231815" stroke-width="0.28"/><line x1="-0.3" y1="3.6" x2="72.3" y2="3.6" fill="none" stroke="#231815" stroke-width="0.28"/><line x1="-0.5" y1="72" x2="72" y2="72" fill="none" stroke="#231815" stroke-width="0.28"/><line x1="-0.5" y1="57.6" x2="72" y2="57.6" fill="none" stroke="#231815" stroke-width="0.28"/><line x1="-0.5" y1="43.2" x2="72" y2="43.2" fill="none" stroke="#231815" stroke-width="0.28"/><line x1="-0.5" y1="28.8" x2="72" y2="28.8" fill="none" stroke="#231815" stroke-width="0.28"/><line x1="-0.5" y1="14.4" x2="72" y2="14.4" fill="none" stroke="#231815" stroke-width="0.28"/><line x1="-0.5" y1="64.8" x2="72" y2="64.8" fill="none" stroke="#231815" stroke-width="0.28"/><line x1="-0.5" y1="50.4" x2="72" y2="50.4" fill="none" stroke="#231815" stroke-width="0.28"/><line x1="-0.5" y1="36" x2="72" y2="36" fill="none" stroke="#231815" stroke-width="0.28"/><line x1="-0.5" y1="21.6" x2="72" y2="21.6" fill="none" stroke="#231815" stroke-width="0.28"/><line x1="-0.5" y1="7.2" x2="72" y2="7.2" fill="none" stroke="#231815" stroke-width="0.28"/><line x1="-72.3" y1="68.4" x2="0.3" y2="68.4" fill="none" stroke="#231815" stroke-width="0.28"/><line x1="-72.3" y1="54" x2="0.3" y2="54" fill="none" stroke="#231815" stroke-width="0.28"/><line x1="-72.3" y1="39.6" x2="0.3" y2="39.6" fill="none" stroke="#231815" stroke-width="0.28"/><line x1="-72.3" y1="25.2" x2="0.3" y2="25.2" fill="none" stroke="#231815" stroke-width="0.28"/><line x1="-72.3" y1="10.8" x2="0.3" y2="10.8" fill="none" stroke="#231815" stroke-width="0.28"/><line x1="-72.3" y1="61.2" x2="0.3" y2="61.2" fill="none" stroke="#231815" stroke-width="0.28"/><line x1="-72.3" y1="46.8" x2="0.3" y2="46.8" fill="none" stroke="#231815" stroke-width="0.28"/><line x1="-72.3" y1="32.4" x2="0.3" y2="32.4" fill="none" stroke="#231815" stroke-width="0.28"/><line x1="-72.3" y1="18" x2="0.3" y2="18" fill="none" stroke="#231815" stroke-width="0.28"/><line x1="-72.3" y1="3.6" x2="0.3" y2="3.6" fill="none" stroke="#231815" stroke-width="0.28"/><line x1="71.5" x2="144" fill="none" stroke="#231815" stroke-width="0.28"/><line x1="-0.5" x2="72" fill="none" stroke="#231815" stroke-width="0.28"/></pattern><pattern id="_10_lpi_10_5" data-name="10 lpi 10%" width="72" height="72" patternTransform="translate(50.2 -0.2) rotate(45)" patternUnits="userSpaceOnUse" viewBox="0 0 72 72"><rect width="72" height="72" fill="none"/><line x1="71.8" y1="68.4" x2="144.3" y2="68.4" fill="none" stroke="#231815" stroke-width="0.28"/><line x1="71.8" y1="54" x2="144.3" y2="54" fill="none" stroke="#231815" stroke-width="0.28"/><line x1="71.8" y1="39.6" x2="144.3" y2="39.6" fill="none" stroke="#231815" stroke-width="0.28"/><line x1="71.8" y1="25.2" x2="144.3" y2="25.2" fill="none" stroke="#231815" stroke-width="0.28"/><line x1="71.8" y1="10.8" x2="144.3" y2="10.8" fill="none" stroke="#231815" stroke-width="0.28"/><line x1="71.8" y1="61.2" x2="144.3" y2="61.2" fill="none" stroke="#231815" stroke-width="0.28"/><line x1="71.8" y1="46.8" x2="144.3" y2="46.8" fill="none" stroke="#231815" stroke-width="0.28"/><line x1="71.8" y1="32.4" x2="144.3" y2="32.4" fill="none" stroke="#231815" stroke-width="0.28"/><line x1="71.8" y1="18" x2="144.3" y2="18" fill="none" stroke="#231815" stroke-width="0.28"/><line x1="71.8" y1="3.6" x2="144.3" y2="3.6" fill="none" stroke="#231815" stroke-width="0.28"/><line x1="71.5" y1="72" x2="144" y2="72" fill="none" stroke="#231815" stroke-width="0.28"/><line x1="71.5" y1="57.6" x2="144" y2="57.6" fill="none" stroke="#231815" stroke-width="0.28"/><line x1="71.5" y1="43.2" x2="144" y2="43.2" fill="none" stroke="#231815" stroke-width="0.28"/><line x1="71.5" y1="28.8" x2="144" y2="28.8" fill="none" stroke="#231815" stroke-width="0.28"/><line x1="71.5" y1="14.4" x2="144" y2="14.4" fill="none" stroke="#231815" stroke-width="0.28"/><line x1="71.5" y1="64.8" x2="144" y2="64.8" fill="none" stroke="#231815" stroke-width="0.28"/><line x1="71.5" y1="50.4" x2="144" y2="50.4" fill="none" stroke="#231815" stroke-width="0.28"/><line x1="71.5" y1="36" x2="144" y2="36" fill="none" stroke="#231815" stroke-width="0.28"/><line x1="71.5" y1="21.6" x2="144" y2="21.6" fill="none" stroke="#231815" stroke-width="0.28"/><line x1="71.5" y1="7.2" x2="144" y2="7.2" fill="none" stroke="#231815" stroke-width="0.28"/><line x1="-0.3" y1="68.4" x2="72.3" y2="68.4" fill="none" stroke="#231815" stroke-width="0.28"/><line x1="-0.3" y1="54" x2="72.3" y2="54" fill="none" stroke="#231815" stroke-width="0.28"/><line x1="-0.3" y1="39.6" x2="72.3" y2="39.6" fill="none" stroke="#231815" stroke-width="0.28"/><line x1="-0.3" y1="25.2" x2="72.3" y2="25.2" fill="none" stroke="#231815" stroke-width="0.28"/><line x1="-0.3" y1="10.8" x2="72.3" y2="10.8" fill="none" stroke="#231815" stroke-width="0.28"/><line x1="-0.3" y1="61.2" x2="72.3" y2="61.2" fill="none" stroke="#231815" stroke-width="0.28"/><line x1="-0.3" y1="46.8" x2="72.3" y2="46.8" fill="none" stroke="#231815" stroke-width="0.28"/><line x1="-0.3" y1="32.4" x2="72.3" y2="32.4" fill="none" stroke="#231815" stroke-width="0.28"/><line x1="-0.3" y1="18" x2="72.3" y2="18" fill="none" stroke="#231815" stroke-width="0.28"/><line x1="-0.3" y1="3.6" x2="72.3" y2="3.6" fill="none" stroke="#231815" stroke-width="0.28"/><line x1="-0.5" y1="72" x2="72" y2="72" fill="none" stroke="#231815" stroke-width="0.28"/><line x1="-0.5" y1="57.6" x2="72" y2="57.6" fill="none" stroke="#231815" stroke-width="0.28"/><line x1="-0.5" y1="43.2" x2="72" y2="43.2" fill="none" stroke="#231815" stroke-width="0.28"/><line x1="-0.5" y1="28.8" x2="72" y2="28.8" fill="none" stroke="#231815" stroke-width="0.28"/><line x1="-0.5" y1="14.4" x2="72" y2="14.4" fill="none" stroke="#231815" stroke-width="0.28"/><line x1="-0.5" y1="64.8" x2="72" y2="64.8" fill="none" stroke="#231815" stroke-width="0.28"/><line x1="-0.5" y1="50.4" x2="72" y2="50.4" fill="none" stroke="#231815" stroke-width="0.28"/><line x1="-0.5" y1="36" x2="72" y2="36" fill="none" stroke="#231815" stroke-width="0.28"/><line x1="-0.5" y1="21.6" x2="72" y2="21.6" fill="none" stroke="#231815" stroke-width="0.28"/><line x1="-0.5" y1="7.2" x2="72" y2="7.2" fill="none" stroke="#231815" stroke-width="0.28"/><line x1="-72.3" y1="68.4" x2="0.3" y2="68.4" fill="none" stroke="#231815" stroke-width="0.28"/><line x1="-72.3" y1="54" x2="0.3" y2="54" fill="none" stroke="#231815" stroke-width="0.28"/><line x1="-72.3" y1="39.6" x2="0.3" y2="39.6" fill="none" stroke="#231815" stroke-width="0.28"/><line x1="-72.3" y1="25.2" x2="0.3" y2="25.2" fill="none" stroke="#231815" stroke-width="0.28"/><line x1="-72.3" y1="10.8" x2="0.3" y2="10.8" fill="none" stroke="#231815" stroke-width="0.28"/><line x1="-72.3" y1="61.2" x2="0.3" y2="61.2" fill="none" stroke="#231815" stroke-width="0.28"/><line x1="-72.3" y1="46.8" x2="0.3" y2="46.8" fill="none" stroke="#231815" stroke-width="0.28"/><line x1="-72.3" y1="32.4" x2="0.3" y2="32.4" fill="none" stroke="#231815" stroke-width="0.28"/><line x1="-72.3" y1="18" x2="0.3" y2="18" fill="none" stroke="#231815" stroke-width="0.28"/><line x1="-72.3" y1="3.6" x2="0.3" y2="3.6" fill="none" stroke="#231815" stroke-width="0.28"/><line x1="71.5" x2="144" fill="none" stroke="#231815" stroke-width="0.28"/><line x1="-0.5" x2="72" fill="none" stroke="#231815" stroke-width="0.28"/></pattern><pattern id="_10_lpi_10_2-2" data-name="10 lpi 10% 2" width="72" height="72" patternTransform="translate(83.5 41) rotate(160)" patternUnits="userSpaceOnUse" viewBox="0 0 72 72"><rect width="72" height="72" fill="none"/><line x1="71.8" y1="68.4" x2="144.3" y2="68.4" fill="none" stroke="#231815" stroke-width="0.28"/><line x1="71.8" y1="54" x2="144.3" y2="54" fill="none" stroke="#231815" stroke-width="0.28"/><line x1="71.8" y1="39.6" x2="144.3" y2="39.6" fill="none" stroke="#231815" stroke-width="0.28"/><line x1="71.8" y1="25.2" x2="144.3" y2="25.2" fill="none" stroke="#231815" stroke-width="0.28"/><line x1="71.8" y1="10.8" x2="144.3" y2="10.8" fill="none" stroke="#231815" stroke-width="0.28"/><line x1="71.8" y1="61.2" x2="144.3" y2="61.2" fill="none" stroke="#231815" stroke-width="0.28"/><line x1="71.8" y1="46.8" x2="144.3" y2="46.8" fill="none" stroke="#231815" stroke-width="0.28"/><line x1="71.8" y1="32.4" x2="144.3" y2="32.4" fill="none" stroke="#231815" stroke-width="0.28"/><line x1="71.8" y1="18" x2="144.3" y2="18" fill="none" stroke="#231815" stroke-width="0.28"/><line x1="71.8" y1="3.6" x2="144.3" y2="3.6" fill="none" stroke="#231815" stroke-width="0.28"/><line x1="71.8" y1="66.7" x2="144.3" y2="66.7" fill="none" stroke="#231815" stroke-width="0.28"/><line x1="71.8" y1="52.3" x2="144.3" y2="52.3" fill="none" stroke="#231815" stroke-width="0.28"/><line x1="71.8" y1="37.9" x2="144.3" y2="37.9" fill="none" stroke="#231815" stroke-width="0.28"/><line x1="71.8" y1="23.5" x2="144.3" y2="23.5" fill="none" stroke="#231815" stroke-width="0.28"/><line x1="71.8" y1="9.1" x2="144.3" y2="9.1" fill="none" stroke="#231815" stroke-width="0.28"/><line x1="71.8" y1="59.5" x2="144.3" y2="59.5" fill="none" stroke="#231815" stroke-width="0.28"/><line x1="71.8" y1="45.1" x2="144.3" y2="45.1" fill="none" stroke="#231815" stroke-width="0.28"/><line x1="71.8" y1="30.7" x2="144.3" y2="30.7" fill="none" stroke="#231815" stroke-width="0.28"/><line x1="71.8" y1="16.3" x2="144.3" y2="16.3" fill="none" stroke="#231815" stroke-width="0.28"/><line x1="71.8" y1="1.9" x2="144.3" y2="1.9" fill="none" stroke="#231815" stroke-width="0.28"/><line x1="-0.3" y1="68.4" x2="72.3" y2="68.4" fill="none" stroke="#231815" stroke-width="0.28"/><line x1="-0.3" y1="54" x2="72.3" y2="54" fill="none" stroke="#231815" stroke-width="0.28"/><line x1="-0.3" y1="39.6" x2="72.3" y2="39.6" fill="none" stroke="#231815" stroke-width="0.28"/><line x1="-0.3" y1="25.2" x2="72.3" y2="25.2" fill="none" stroke="#231815" stroke-width="0.28"/><line x1="-0.3" y1="10.8" x2="72.3" y2="10.8" fill="none" stroke="#231815" stroke-width="0.28"/><line x1="-0.3" y1="61.2" x2="72.3" y2="61.2" fill="none" stroke="#231815" stroke-width="0.28"/><line x1="-0.3" y1="46.8" x2="72.3" y2="46.8" fill="none" stroke="#231815" stroke-width="0.28"/><line x1="-0.3" y1="32.4" x2="72.3" y2="32.4" fill="none" stroke="#231815" stroke-width="0.28"/><line x1="-0.3" y1="18" x2="72.3" y2="18" fill="none" stroke="#231815" stroke-width="0.28"/><line x1="-0.3" y1="3.6" x2="72.3" y2="3.6" fill="none" stroke="#231815" stroke-width="0.28"/><line x1="0.6" y1="71.8" x2="73.1" y2="71.8" fill="none" stroke="#231815" stroke-width="0.28"/><line x1="0.6" y1="57.4" x2="73.1" y2="57.4" fill="none" stroke="#231815" stroke-width="0.28"/><line x1="0.6" y1="43" x2="73.1" y2="43" fill="none" stroke="#231815" stroke-width="0.28"/><line x1="0.6" y1="28.6" x2="73.1" y2="28.6" fill="none" stroke="#231815" stroke-width="0.28"/><line x1="0.6" y1="14.2" x2="73.1" y2="14.2" fill="none" stroke="#231815" stroke-width="0.28"/><line x1="0.6" y1="64.6" x2="73.1" y2="64.6" fill="none" stroke="#231815" stroke-width="0.28"/><line x1="0.6" y1="50.2" x2="73.1" y2="50.2" fill="none" stroke="#231815" stroke-width="0.28"/><line x1="0.6" y1="35.8" x2="73.1" y2="35.8" fill="none" stroke="#231815" stroke-width="0.28"/><line x1="0.6" y1="21.4" x2="73.1" y2="21.4" fill="none" stroke="#231815" stroke-width="0.28"/><line x1="0.6" y1="7" x2="73.1" y2="7" fill="none" stroke="#231815" stroke-width="0.28"/><line x1="-0.3" y1="66.7" x2="72.3" y2="66.7" fill="none" stroke="#231815" stroke-width="0.28"/><line x1="-0.3" y1="52.3" x2="72.3" y2="52.3" fill="none" stroke="#231815" stroke-width="0.28"/><line x1="-0.3" y1="37.9" x2="72.3" y2="37.9" fill="none" stroke="#231815" stroke-width="0.28"/><line x1="-0.3" y1="23.5" x2="72.3" y2="23.5" fill="none" stroke="#231815" stroke-width="0.28"/><line x1="-0.3" y1="9.1" x2="72.3" y2="9.1" fill="none" stroke="#231815" stroke-width="0.28"/><line x1="-0.3" y1="59.5" x2="72.3" y2="59.5" fill="none" stroke="#231815" stroke-width="0.28"/><line x1="-0.3" y1="45.1" x2="72.3" y2="45.1" fill="none" stroke="#231815" stroke-width="0.28"/><line x1="-0.3" y1="30.7" x2="72.3" y2="30.7" fill="none" stroke="#231815" stroke-width="0.28"/><line x1="-0.3" y1="16.3" x2="72.3" y2="16.3" fill="none" stroke="#231815" stroke-width="0.28"/><line x1="-0.3" y1="1.9" x2="72.3" y2="1.9" fill="none" stroke="#231815" stroke-width="0.28"/><line x1="0.6" y1="70.1" x2="73.1" y2="70.1" fill="none" stroke="#231815" stroke-width="0.28"/><line x1="0.6" y1="55.7" x2="73.1" y2="55.7" fill="none" stroke="#231815" stroke-width="0.28"/><line x1="0.6" y1="41.3" x2="73.1" y2="41.3" fill="none" stroke="#231815" stroke-width="0.28"/><line x1="0.6" y1="26.9" x2="73.1" y2="26.9" fill="none" stroke="#231815" stroke-width="0.28"/><line x1="0.6" y1="12.5" x2="73.1" y2="12.5" fill="none" stroke="#231815" stroke-width="0.28"/><line x1="0.6" y1="62.9" x2="73.1" y2="62.9" fill="none" stroke="#231815" stroke-width="0.28"/><line x1="0.6" y1="48.5" x2="73.1" y2="48.5" fill="none" stroke="#231815" stroke-width="0.28"/><line x1="0.6" y1="34.1" x2="73.1" y2="34.1" fill="none" stroke="#231815" stroke-width="0.28"/><line x1="0.6" y1="19.7" x2="73.1" y2="19.7" fill="none" stroke="#231815" stroke-width="0.28"/><line x1="0.6" y1="5.3" x2="73.1" y2="5.3" fill="none" stroke="#231815" stroke-width="0.28"/><line y1="67.3" x2="72.5" y2="67.3" fill="none" stroke="#231815" stroke-width="0.28"/><line y1="52.9" x2="72.5" y2="52.9" fill="none" stroke="#231815" stroke-width="0.28"/><line y1="38.5" x2="72.5" y2="38.5" fill="none" stroke="#231815" stroke-width="0.28"/><line y1="24.1" x2="72.5" y2="24.1" fill="none" stroke="#231815" stroke-width="0.28"/><line y1="9.7" x2="72.5" y2="9.7" fill="none" stroke="#231815" stroke-width="0.28"/><line y1="60.1" x2="72.5" y2="60.1" fill="none" stroke="#231815" stroke-width="0.28"/><line y1="45.7" x2="72.5" y2="45.7" fill="none" stroke="#231815" stroke-width="0.28"/><line y1="31.3" x2="72.5" y2="31.3" fill="none" stroke="#231815" stroke-width="0.28"/><line y1="16.9" x2="72.5" y2="16.9" fill="none" stroke="#231815" stroke-width="0.28"/><line y1="2.5" x2="72.5" y2="2.5" fill="none" stroke="#231815" stroke-width="0.28"/><line x1="0.9" y1="70.7" x2="73.4" y2="70.7" fill="none" stroke="#231815" stroke-width="0.28"/><line x1="0.9" y1="56.3" x2="73.4" y2="56.3" fill="none" stroke="#231815" stroke-width="0.28"/><line x1="0.9" y1="41.9" x2="73.4" y2="41.9" fill="none" stroke="#231815" stroke-width="0.28"/><line x1="0.9" y1="27.5" x2="73.4" y2="27.5" fill="none" stroke="#231815" stroke-width="0.28"/><line x1="0.9" y1="13.1" x2="73.4" y2="13.1" fill="none" stroke="#231815" stroke-width="0.28"/><line x1="0.9" y1="63.5" x2="73.4" y2="63.5" fill="none" stroke="#231815" stroke-width="0.28"/><line x1="0.9" y1="49.1" x2="73.4" y2="49.1" fill="none" stroke="#231815" stroke-width="0.28"/><line x1="0.9" y1="34.7" x2="73.4" y2="34.7" fill="none" stroke="#231815" stroke-width="0.28"/><line x1="0.9" y1="20.3" x2="73.4" y2="20.3" fill="none" stroke="#231815" stroke-width="0.28"/><line x1="0.9" y1="5.9" x2="73.4" y2="5.9" fill="none" stroke="#231815" stroke-width="0.28"/><line y1="65.6" x2="72.5" y2="65.6" fill="none" stroke="#231815" stroke-width="0.28"/><line y1="51.2" x2="72.5" y2="51.2" fill="none" stroke="#231815" stroke-width="0.28"/><line y1="36.8" x2="72.5" y2="36.8" fill="none" stroke="#231815" stroke-width="0.28"/><line y1="22.4" x2="72.5" y2="22.4" fill="none" stroke="#231815" stroke-width="0.28"/><line y1="8" x2="72.5" y2="8" fill="none" stroke="#231815" stroke-width="0.28"/><line y1="58.4" x2="72.5" y2="58.4" fill="none" stroke="#231815" stroke-width="0.28"/><line y1="44" x2="72.5" y2="44" fill="none" stroke="#231815" stroke-width="0.28"/><line y1="29.6" x2="72.5" y2="29.6" fill="none" stroke="#231815" stroke-width="0.28"/><line y1="15.2" x2="72.5" y2="15.2" fill="none" stroke="#231815" stroke-width="0.28"/><line y1="0.8" x2="72.5" y2="0.8" fill="none" stroke="#231815" stroke-width="0.28"/><line x1="0.9" y1="69" x2="73.4" y2="69" fill="none" stroke="#231815" stroke-width="0.28"/><line x1="0.9" y1="54.6" x2="73.4" y2="54.6" fill="none" stroke="#231815" stroke-width="0.28"/><line x1="0.9" y1="40.2" x2="73.4" y2="40.2" fill="none" stroke="#231815" stroke-width="0.28"/><line x1="0.9" y1="25.8" x2="73.4" y2="25.8" fill="none" stroke="#231815" stroke-width="0.28"/><line x1="0.9" y1="11.4" x2="73.4" y2="11.4" fill="none" stroke="#231815" stroke-width="0.28"/><line x1="0.9" y1="61.8" x2="73.4" y2="61.8" fill="none" stroke="#231815" stroke-width="0.28"/><line x1="0.9" y1="47.4" x2="73.4" y2="47.4" fill="none" stroke="#231815" stroke-width="0.28"/><line x1="0.9" y1="33" x2="73.4" y2="33" fill="none" stroke="#231815" stroke-width="0.28"/><line x1="0.9" y1="18.6" x2="73.4" y2="18.6" fill="none" stroke="#231815" stroke-width="0.28"/><line x1="0.9" y1="4.2" x2="73.4" y2="4.2" fill="none" stroke="#231815" stroke-width="0.28"/><line x1="-72.3" y1="68.4" x2="0.3" y2="68.4" fill="none" stroke="#231815" stroke-width="0.28"/><line x1="-72.3" y1="54" x2="0.3" y2="54" fill="none" stroke="#231815" stroke-width="0.28"/><line x1="-72.3" y1="39.6" x2="0.3" y2="39.6" fill="none" stroke="#231815" stroke-width="0.28"/><line x1="-72.3" y1="25.2" x2="0.3" y2="25.2" fill="none" stroke="#231815" stroke-width="0.28"/><line x1="-72.3" y1="10.8" x2="0.3" y2="10.8" fill="none" stroke="#231815" stroke-width="0.28"/><line x1="-72.3" y1="61.2" x2="0.3" y2="61.2" fill="none" stroke="#231815" stroke-width="0.28"/><line x1="-72.3" y1="46.8" x2="0.3" y2="46.8" fill="none" stroke="#231815" stroke-width="0.28"/><line x1="-72.3" y1="32.4" x2="0.3" y2="32.4" fill="none" stroke="#231815" stroke-width="0.28"/><line x1="-72.3" y1="18" x2="0.3" y2="18" fill="none" stroke="#231815" stroke-width="0.28"/><line x1="-72.3" y1="3.6" x2="0.3" y2="3.6" fill="none" stroke="#231815" stroke-width="0.28"/><line x1="-71.4" y1="71.8" x2="1.1" y2="71.8" fill="none" stroke="#231815" stroke-width="0.28"/><line x1="-71.4" y1="57.4" x2="1.1" y2="57.4" fill="none" stroke="#231815" stroke-width="0.28"/><line x1="-71.4" y1="43" x2="1.1" y2="43" fill="none" stroke="#231815" stroke-width="0.28"/><line x1="-71.4" y1="28.6" x2="1.1" y2="28.6" fill="none" stroke="#231815" stroke-width="0.28"/><line x1="-71.4" y1="14.2" x2="1.1" y2="14.2" fill="none" stroke="#231815" stroke-width="0.28"/><line x1="-71.4" y1="64.6" x2="1.1" y2="64.6" fill="none" stroke="#231815" stroke-width="0.28"/><line x1="-71.4" y1="50.2" x2="1.1" y2="50.2" fill="none" stroke="#231815" stroke-width="0.28"/><line x1="-71.4" y1="35.8" x2="1.1" y2="35.8" fill="none" stroke="#231815" stroke-width="0.28"/><line x1="-71.4" y1="21.4" x2="1.1" y2="21.4" fill="none" stroke="#231815" stroke-width="0.28"/><line x1="-71.4" y1="7" x2="1.1" y2="7" fill="none" stroke="#231815" stroke-width="0.28"/><line x1="-72.3" y1="66.7" x2="0.3" y2="66.7" fill="none" stroke="#231815" stroke-width="0.28"/><line x1="-72.3" y1="52.3" x2="0.3" y2="52.3" fill="none" stroke="#231815" stroke-width="0.28"/><line x1="-72.3" y1="37.9" x2="0.3" y2="37.9" fill="none" stroke="#231815" stroke-width="0.28"/><line x1="-72.3" y1="23.5" x2="0.3" y2="23.5" fill="none" stroke="#231815" stroke-width="0.28"/><line x1="-72.3" y1="9.1" x2="0.3" y2="9.1" fill="none" stroke="#231815" stroke-width="0.28"/><line x1="-72.3" y1="59.5" x2="0.3" y2="59.5" fill="none" stroke="#231815" stroke-width="0.28"/><line x1="-72.3" y1="45.1" x2="0.3" y2="45.1" fill="none" stroke="#231815" stroke-width="0.28"/><line x1="-72.3" y1="30.7" x2="0.3" y2="30.7" fill="none" stroke="#231815" stroke-width="0.28"/><line x1="-72.3" y1="16.3" x2="0.3" y2="16.3" fill="none" stroke="#231815" stroke-width="0.28"/><line x1="-72.3" y1="1.9" x2="0.3" y2="1.9" fill="none" stroke="#231815" stroke-width="0.28"/><line x1="-71.4" y1="70.1" x2="1.1" y2="70.1" fill="none" stroke="#231815" stroke-width="0.28"/><line x1="-71.4" y1="55.7" x2="1.1" y2="55.7" fill="none" stroke="#231815" stroke-width="0.28"/><line x1="-71.4" y1="41.3" x2="1.1" y2="41.3" fill="none" stroke="#231815" stroke-width="0.28"/><line x1="-71.4" y1="26.9" x2="1.1" y2="26.9" fill="none" stroke="#231815" stroke-width="0.28"/><line x1="-71.4" y1="12.5" x2="1.1" y2="12.5" fill="none" stroke="#231815" stroke-width="0.28"/><line x1="-71.4" y1="62.9" x2="1.1" y2="62.9" fill="none" stroke="#231815" stroke-width="0.28"/><line x1="-71.4" y1="48.5" x2="1.1" y2="48.5" fill="none" stroke="#231815" stroke-width="0.28"/><line x1="-71.4" y1="34.1" x2="1.1" y2="34.1" fill="none" stroke="#231815" stroke-width="0.28"/><line x1="-71.4" y1="19.7" x2="1.1" y2="19.7" fill="none" stroke="#231815" stroke-width="0.28"/><line x1="-71.4" y1="5.3" x2="1.1" y2="5.3" fill="none" stroke="#231815" stroke-width="0.28"/><line x1="-72" y1="67.3" x2="0.5" y2="67.3" fill="none" stroke="#231815" stroke-width="0.28"/><line x1="-72" y1="52.9" x2="0.5" y2="52.9" fill="none" stroke="#231815" stroke-width="0.28"/><line x1="-72" y1="38.5" x2="0.5" y2="38.5" fill="none" stroke="#231815" stroke-width="0.28"/><line x1="-72" y1="24.1" x2="0.5" y2="24.1" fill="none" stroke="#231815" stroke-width="0.28"/><line x1="-72" y1="9.7" x2="0.5" y2="9.7" fill="none" stroke="#231815" stroke-width="0.28"/><line x1="-72" y1="60.1" x2="0.5" y2="60.1" fill="none" stroke="#231815" stroke-width="0.28"/><line x1="-72" y1="45.7" x2="0.5" y2="45.7" fill="none" stroke="#231815" stroke-width="0.28"/><line x1="-72" y1="31.3" x2="0.5" y2="31.3" fill="none" stroke="#231815" stroke-width="0.28"/><line x1="-72" y1="16.9" x2="0.5" y2="16.9" fill="none" stroke="#231815" stroke-width="0.28"/><line x1="-72" y1="2.5" x2="0.5" y2="2.5" fill="none" stroke="#231815" stroke-width="0.28"/><line x1="-71.1" y1="70.7" x2="1.4" y2="70.7" fill="none" stroke="#231815" stroke-width="0.28"/><line x1="-71.1" y1="56.3" x2="1.4" y2="56.3" fill="none" stroke="#231815" stroke-width="0.28"/><line x1="-71.1" y1="41.9" x2="1.4" y2="41.9" fill="none" stroke="#231815" stroke-width="0.28"/><line x1="-71.1" y1="27.5" x2="1.4" y2="27.5" fill="none" stroke="#231815" stroke-width="0.28"/><line x1="-71.1" y1="13.1" x2="1.4" y2="13.1" fill="none" stroke="#231815" stroke-width="0.28"/><line x1="-71.1" y1="63.5" x2="1.4" y2="63.5" fill="none" stroke="#231815" stroke-width="0.28"/><line x1="-71.1" y1="49.1" x2="1.4" y2="49.1" fill="none" stroke="#231815" stroke-width="0.28"/><line x1="-71.1" y1="34.7" x2="1.4" y2="34.7" fill="none" stroke="#231815" stroke-width="0.28"/><line x1="-71.1" y1="20.3" x2="1.4" y2="20.3" fill="none" stroke="#231815" stroke-width="0.28"/><line x1="-71.1" y1="5.9" x2="1.4" y2="5.9" fill="none" stroke="#231815" stroke-width="0.28"/><line x1="-72" y1="65.6" x2="0.5" y2="65.6" fill="none" stroke="#231815" stroke-width="0.28"/><line x1="-72" y1="51.2" x2="0.5" y2="51.2" fill="none" stroke="#231815" stroke-width="0.28"/><line x1="-72" y1="36.8" x2="0.5" y2="36.8" fill="none" stroke="#231815" stroke-width="0.28"/><line x1="-72" y1="22.4" x2="0.5" y2="22.4" fill="none" stroke="#231815" stroke-width="0.28"/><line x1="-72" y1="8" x2="0.5" y2="8" fill="none" stroke="#231815" stroke-width="0.28"/><line x1="-72" y1="58.4" x2="0.5" y2="58.4" fill="none" stroke="#231815" stroke-width="0.28"/><line x1="-72" y1="44" x2="0.5" y2="44" fill="none" stroke="#231815" stroke-width="0.28"/><line x1="-72" y1="29.6" x2="0.5" y2="29.6" fill="none" stroke="#231815" stroke-width="0.28"/><line x1="-72" y1="15.2" x2="0.5" y2="15.2" fill="none" stroke="#231815" stroke-width="0.28"/><line x1="-72" y1="0.8" x2="0.5" y2="0.8" fill="none" stroke="#231815" stroke-width="0.28"/><line x1="-71.1" y1="69" x2="1.4" y2="69" fill="none" stroke="#231815" stroke-width="0.28"/><line x1="-71.1" y1="54.6" x2="1.4" y2="54.6" fill="none" stroke="#231815" stroke-width="0.28"/><line x1="-71.1" y1="40.2" x2="1.4" y2="40.2" fill="none" stroke="#231815" stroke-width="0.28"/><line x1="-71.1" y1="25.8" x2="1.4" y2="25.8" fill="none" stroke="#231815" stroke-width="0.28"/><line x1="-71.1" y1="11.4" x2="1.4" y2="11.4" fill="none" stroke="#231815" stroke-width="0.28"/><line x1="-71.1" y1="61.8" x2="1.4" y2="61.8" fill="none" stroke="#231815" stroke-width="0.28"/><line x1="-71.1" y1="47.4" x2="1.4" y2="47.4" fill="none" stroke="#231815" stroke-width="0.28"/><line x1="-71.1" y1="33" x2="1.4" y2="33" fill="none" stroke="#231815" stroke-width="0.28"/><line x1="-71.1" y1="18.6" x2="1.4" y2="18.6" fill="none" stroke="#231815" stroke-width="0.28"/><line x1="-71.1" y1="4.2" x2="1.4" y2="4.2" fill="none" stroke="#231815" stroke-width="0.28"/></pattern></defs><g id="scale-1:10"><path d="M309.7,391.3v10H168v-10" transform="translate(-12 -3.2)" fill="none" stroke="#000" stroke-miterlimit="10" stroke-width="0.5"/><line x1="184.4" y1="388.2" x2="184.4" y2="398.1" fill="none" stroke="#000" stroke-miterlimit="10" stroke-width="0.5"/><line x1="212.7" y1="388.2" x2="212.7" y2="398.1" fill="none" stroke="#000" stroke-miterlimit="10" stroke-width="0.5"/><line x1="241" y1="388.2" x2="241" y2="398.1" fill="none" stroke="#000" stroke-miterlimit="10" stroke-width="0.5"/><line x1="269.4" y1="388.2" x2="269.4" y2="398.1" fill="none" stroke="#000" stroke-miterlimit="10" stroke-width="0.5"/><text transform="translate(152.3 383.7)" font-size="14.17" font-family="SimSun">0</text><text transform="translate(290.4 383.7)" font-size="14.17" font-family="SimSun">50cm</text></g><g id="outline"><path d="M305.9,121.7a2,2,0,0,1,0,1.1,3.4,3.4,0,0,1-.1,1.1c-.2,1.4-.1,1.4-.3,2.4s-.2,1-.3,1.6v.9c0,1-.1,1.6-.1,2l-.6,1.4c-.6,1.3-1.2,2.2-1.3,2.5s-1.1,1.7-2.5,4.2l-1.8,3.1a17.5,17.5,0,0,1-1.1,1.8,5.4,5.4,0,0,1-.9,1.2l-.7.8-.4.3c-1.9,1.6-4.3,3.3-4.3,3.3l-4.1,3.1-1.8,1.3a9.1,9.1,0,0,1-1.9,1.3c-.3.2-.4.2-1.9.5l-3.7.8-1.3.3-1.8-.3-1.6-.3-2.5-.3h-6.5l-1.8-.6-1.3-.6a9,9,0,0,1-1.2-1l-1.5-1-2.1-1.4-1.8-1.2a13.1,13.1,0,0,1-2.9-2.9l-1.2-1.7L250,144l-.6-.9a4.7,4.7,0,0,0-1-.9l-.8-.8-1.7-1.9a2.6,2.6,0,0,1-.7-1c-.1-.2-.1-.7-.3-1.5a10.4,10.4,0,0,0-.1-1.1c0-.4-.1-.9-.1-1.4a22.1,22.1,0,0,1,0-2.7v-1.1c0-3.3.3-6.5.3-6.5a22.8,22.8,0,0,1,.6-4.2c.4-1,.4-.7,1.3-2.8s1.1-3,1.8-4.4a12.2,12.2,0,0,1,.8-1.7c0-.2.2-.4.4-.8a2.8,2.8,0,0,1,.5-.9l1-1.6a4.3,4.3,0,0,0,.3-1,2.4,2.4,0,0,1,.3-1.1,3.3,3.3,0,0,1,.6-.6l.5-.3,1.4-.9a24,24,0,0,0,2.3-2l1.7-1.6a9.1,9.1,0,0,1,1.3-.8,6.9,6.9,0,0,1,2.1-.9l1.1-.4,1.8-.5,3.8-.4c3.8-.1,5.3.1,7.1,0h1.5a5.1,5.1,0,0,0,1.3.2h1.9l1.4.2h1.7l2.2.5,1.3.3,1.7.6a11.4,11.4,0,0,1,2.3,1.3,6.2,6.2,0,0,1,1.7,1.1l.8,1,1.1,1.1.9.6a13.1,13.1,0,0,1,2.5,2.3c.8,1,1.6,2,3,4l1.5,2.2a15.3,15.3,0,0,1,1.6,3.5c.5,1.4,1,2.9,1.1,3.4a6.9,6.9,0,0,0,.4,1A9.2,9.2,0,0,1,305.9,121.7Z" transform="translate(-12 -3.2)" fill="none" stroke="#000" stroke-miterlimit="10" stroke-width="0.43"/><path d="M318.4,129.4a5.4,5.4,0,0,1-.2,1.1c-.4,1.3-.7,2.4-1.1,3.4s-.4,1.4-.5,1.7l-.7,2.4a2.4,2.4,0,0,1-.3,1.2,3.6,3.6,0,0,1-.6,1,13.1,13.1,0,0,0-1.7,2.4c-.6.7-1.3,1.9-2.9,4.2s-2.9,4.5-3.4,5.4l-1.4,2.1a20.8,20.8,0,0,1-2.7,3l-2.1,1.8a25,25,0,0,1-2.4,1.6l-1.9.8-2,.9-3,1.3-.9.5-1.4.6-1,.3a30.8,30.8,0,0,0-3.5.7l-2.5.7a18.6,18.6,0,0,1-3.4.5l-2.4.2h-3l-1,.3a3.1,3.1,0,0,1-1.4.1h-5.9l-1.6-.3-1.7-.3h-1.4l-1.5-.3-.6-.3-1.1-.7a4.3,4.3,0,0,0-1.9-.5l-3.2-.6c-1.6-.4-1.4-.7-3.4-1.3a15.3,15.3,0,0,1-2.4-.7l-1.4-.7a6.5,6.5,0,0,1-1.5-1.1c-1.2-1-1.6-1.5-2.9-2.5l-.8-.7-1.8-1.2-.6-.7a8.9,8.9,0,0,1-1.7-1.9l-.9-1.4-.8-1.3a12.8,12.8,0,0,0-1-1.5l-.9-1.7a10.8,10.8,0,0,1-.7-1.8c-.1-.6-.1-1.2-.2-1.7v-1.2a34.7,34.7,0,0,1,.3-4,6.5,6.5,0,0,0,.3-1.6,15.9,15.9,0,0,0,.4-3.4,15.8,15.8,0,0,0,0-3.1c0-.5,0-.4-.1-2.7-.3-4.5-.2-2.7-.2-3.1a14.3,14.3,0,0,1,0-2.2c.1-.4.2-.7.2-.8l.3-.6a13.3,13.3,0,0,1,.6-1.2,9.8,9.8,0,0,0,.7-1.7c1.6-4.1,2.3-6.1,3-7.5s1.4-3.2,2.2-4.8a3.6,3.6,0,0,0,.6-1.5c.1-.7,0-.9.1-1.4a3.1,3.1,0,0,1,1-1.3l2-2.2a14.3,14.3,0,0,0,1.5-2.2l.8-1.3c0-.2.1-.3.2-.5s.2-.4.3-.4.1-.1.4-.3l.3-.3,2.3-2.3c.6-.7.7-.8.8-1.1s.1-.6.3-.9a2.3,2.3,0,0,1,1.1-.6l1.7-.5,2.1-.7,1.9-.6,1.9-.4a5.8,5.8,0,0,0,1.9-.5l1-.4h1.3a13.8,13.8,0,0,0,2.6-.4l2-.2h10.5l1.5.2h.7l.9.4.8.2,1,.2H288l2,.4h1.8l1,.2,1,.5,1.8.9a30.7,30.7,0,0,1,3.8,2.2l1.9,1.3a11.9,11.9,0,0,1,1.4,1.7,1.3,1.3,0,0,1,.4.6c.2.4.1.7.2,1.1a2.4,2.4,0,0,0,.5,1,5.8,5.8,0,0,0,1.2,1.4c1.3,1.4,1.2,1.7,2.2,2.6l1.1.9a26.1,26.1,0,0,1,2.3,2.4,32.3,32.3,0,0,1,4.6,7.1,10.8,10.8,0,0,1,.6,1.8,12.1,12.1,0,0,1,.3,1.4c.2,1.7.3,2.7.5,3.8s.2,2,.3,2.8a18.3,18.3,0,0,0,.6,2.9c0,.3,0,.1.5,1.6A5.2,5.2,0,0,1,318.4,129.4Z" transform="translate(-12 -3.2)" fill="none" stroke="#000" stroke-miterlimit="10" stroke-width="0.57"/><text transform="translate(257.2 129.4)" font-size="14.17" font-family="SimSun">4</text><path d="M270.2,224.7a2.2,2.2,0,0,1-.7.7l-.7.5-.6.2-.7.4-8,4a18.6,18.6,0,0,1-3.7,1.9l-1.5.6-1.9,1-3.2,1.5-2.7.7-1.9.5-.7.3-1.1.5-.9.2-2,.4c-.6-.2-.9-.7-1.6-1.7l-1.1-2.1c-.4-1-.4-1.3-.8-2.6a15.9,15.9,0,0,0-1.4-3.4l-1.3-2.7-.2-.5c-.1-.4-.2-.4-.1-.5s.2-.3.5-.4l.9-.5a34.9,34.9,0,0,1,4-1.6l1.4-.4,1.7-.5.7-.4,1.2-.6,2-1,2.6-1,2.5-1,3.2-1.4,1.9-.7,5.1-2.2,2.1-.8,1.2-.3.8-.2h.5l.5.5.4.5.8,1.5a16.2,16.2,0,0,1,1.2,2.6,13,13,0,0,1,.8,2.9c.2,1,.2,1.4.5,2.8s.1.6.2,1S270.3,224.4,270.2,224.7Z" transform="translate(-12 -3.2)" fill="none" stroke="#000" stroke-miterlimit="10" stroke-width="0.57"/><text transform="translate(231.3 230)" font-size="14.17" font-family="SimSun">2</text><path d="M247.2,252.9c-.2.6-.3.8-.4,1.2a13.8,13.8,0,0,1-.6,1.6,4.2,4.2,0,0,1-.6,1.2,2.2,2.2,0,0,1-1.6.7,1.9,1.9,0,0,1-1.1-.8,2.7,2.7,0,0,1-.6-1.7,3.9,3.9,0,0,1,.1-1.8l.5-1a9,9,0,0,0,.5-.9,23.2,23.2,0,0,1,1.4-2.2,3.2,3.2,0,0,1,1-.8l.7-.2.6.3.5.8a1.5,1.5,0,0,1,.4.8v.8l-.3.7-.2.6Z" transform="translate(-12 -3.2)" fill="none" stroke="#000" stroke-miterlimit="10" stroke-width="0.57"/><path d="M253.9,252.7a1.7,1.7,0,0,1,.1.8,5,5,0,0,1-.3,1.2,17.6,17.6,0,0,1-.6,1.7c-.3.8-.5,1.3-1,1.6a1.2,1.2,0,0,1-1,.4c-.4-.1-.6-.6-.7-.8a2.2,2.2,0,0,1,0-1.2l.2-1.4a4.8,4.8,0,0,1,.5-1.8,2.1,2.1,0,0,1,.6-1l.7-.3.7-.2.5.4Z" transform="translate(-12 -3.2)" fill="none" stroke="#000" stroke-miterlimit="10" stroke-width="0.57"/><path d="M260,253.8a6.6,6.6,0,0,1-.1,1.1l-.2,1.1-.2,1.1a14.3,14.3,0,0,1-.5,1.8,2.5,2.5,0,0,1-.4,1,1.5,1.5,0,0,1-1.1.3c-.6-.3-.5-1.6-.4-3a7.4,7.4,0,0,1,.2-1.2,2.2,2.2,0,0,1,.3-1,4,4,0,0,1,1.3-1.5c.4-.4.7-.6.9-.5S260,253.5,260,253.8Z" transform="translate(-12 -3.2)" fill="none" stroke="#000" stroke-miterlimit="10" stroke-width="0.57"/><path d="M266.7,253.6a8.2,8.2,0,0,1-.1,1v1.1a18.8,18.8,0,0,0,.1,3c.1.1.1.3.2.6a1.6,1.6,0,0,1-.3.9,1.2,1.2,0,0,1-.6.6h-1.6c-.6-.3-.5-1.5-.5-2.2s.1-.8.1-1.1l.4-1.6c.2-.8.2-.9.3-1a4.1,4.1,0,0,1,.6-1.1c.5-.7,1.3-1.4,1.5-1.2S266.8,252.9,266.7,253.6Z" transform="translate(-12 -3.2)" fill="none" stroke="#000" stroke-miterlimit="10" stroke-width="0.57"/><text transform="translate(244.5 246.2)" font-size="14.17" font-family="SimSun">3</text><path d="M443.3,267.2l-.9.9a8.8,8.8,0,0,1-2.3,1.4l-1.7.5a7.7,7.7,0,0,0-1.9.8l-.9.5-.9.5-1.1.4c-.9.4-.9.6-1.7,1l-1.6.5-2.9.9a39.9,39.9,0,0,1-4.5,1.1,6.9,6.9,0,0,1-2,.3l-1.7.2h-1.9a13.5,13.5,0,0,1-1.8.3,5.6,5.6,0,0,1-1.3,0,27.9,27.9,0,0,0-3.6.2h-7.4l-3.2-.2c-1.6-.1-2.9,0-5.6.1l-3.7.2h-5.5l-2.2.5-1.6.3a28.7,28.7,0,0,1-4.2-.1l-2.7-.2-2.1-.4a15.1,15.1,0,0,0-2.9-.1c-.9.2-.8.4-2.6,1l-1.9.4a12.2,12.2,0,0,1-2.3.2l-16.3-.4c-4.6-.1-3.8.1-10.3,0s-9.2-.4-10.2-.5l-6.7-.9c-3.6-.4-6.7-.5-7.5-.6-3.4-.1-3.8,0-6.4-.2l-4.7-.4h-3.8c-1.5,0-1.6.2-2.4.1s-.6-.3-1.5-.5-1.4,0-2.7-.2l-1.4-.4-1.9-1.1-1.7-1.1a15.6,15.6,0,0,0-2.5-.3l-1.8-.6-5.4-1.6a2.4,2.4,0,0,1-1.1-.4,7.6,7.6,0,0,0-.9-.9,4.6,4.6,0,0,0-1.6-.8h-3.6l-1.3-.2-4.2-.7-2.6-.5-2.2-.2-1.7-.3h-1.7l-1.5-.6c-.9-.4-1.2-.3-3.3-.5l-2.5-.4-3.7-.2H231l-1.7.2a4.8,4.8,0,0,0-1.5.4l-.8.3-1.2.4-3.2.5H210.9l-3.1-.3H195.9l-2.3-.2h-1.8l-2.3.2H187l-4,.2h-1.9l-2-.2-2.4-.3h-5.3a6.6,6.6,0,0,0-2,0l-1.6.2h-2.1l-.8-.3H150.6l-2.1.3h-1.9l-4.5.3H137l-3.7.2h-1.1l-1.2.4-1.7.8a3.8,3.8,0,0,1-1.6.4,4.1,4.1,0,0,1-1.5-.1h-9.4l-1.2.3h-1.9l-3.3-.3-3.1-.4-1.7-.2c-1.3-.1-1.5.1-3.1.1l-3.8-.2H96.2a2.4,2.4,0,0,0-1,.3,3.7,3.7,0,0,1-1.8,0H83.1l-4.2.9-2.5.6-3.3.3c-2.7.1-4.8,0-5.5,0l-4.6-.3-4.2-.4-3.7-.3a19.6,19.6,0,0,0-3.1.2,33.4,33.4,0,0,1-4.7-.1c-2.6-.2-3.3-.6-3.7-.9L42.1,265l-1.9-2.1-1.4-1.3c-.9-.6-1.3-.5-1.7-1.1s-.1-.3-.6-1.4l-.7-1.4a5,5,0,0,1-.2-1.2c-.2-.7-.1-.7-.2-.9a8.3,8.3,0,0,0-.7-1.3,4.3,4.3,0,0,1-.2-1.1c-.2-1.1-.2-.8-.7-3.1s-.5-4.7-.9-8.9a4.2,4.2,0,0,1,.2-2.5,2.9,2.9,0,0,0,.6-1.1,3,3,0,0,0,.1-1.3c-.1-1.2-.1-1.7-.2-2.3a42.7,42.7,0,0,1-.3-4.9c-.2-2.9-.3-4.4-.3-6.3-.2-3.6-.2-5.5-.2-8.3-.2-9.2-.8-17.8-.6-20.9a28.2,28.2,0,0,0,.1-3.2,4.3,4.3,0,0,1-.1-1.6,14.3,14.3,0,0,1,.8-2.2,8.1,8.1,0,0,0,.5-2.7,32.2,32.2,0,0,0,0-4.5,28.5,28.5,0,0,1,.1-3.5,7.5,7.5,0,0,0,.2-2.1c-.1-.7-.3-.9-.4-1.9a10,10,0,0,1-.2-1.6c-.1-2.2-.2-2.3-.3-3.9s0-3.9-.2-7.2c-.2-5-.3-7.4-.7-8.5a5.3,5.3,0,0,1-.1-1.5,4.8,4.8,0,0,1,.5-1.4l.6-1.9a14.6,14.6,0,0,0,.3-3.5,11.3,11.3,0,0,0-.1-2.6s-.1-2-.2-4.9,0-2.5,0-5.6-.2-2.6-.2-5.3-.1-3.4-.1-4c.1-3.4.2-3.9.1-5.7-.1-.3-.1-1.3-.2-2.7s-.1-1.3-.1-1.5c-.1-2.7-.6-5.3-.9-9a10.4,10.4,0,0,1-.1-2c.1-.7.2-1.2.4-2.6s.5-3,.6-3.5,0-.9.1-2.6.1-1.8.1-1.8a6.6,6.6,0,0,0,.1-1.3l-.3-1.2a8.9,8.9,0,0,1-.2-1.1,9.3,9.3,0,0,1-.2-1.4c0-1.8.1-3.6.1-4.3a14.8,14.8,0,0,1,.1-1.6V74.9a1.7,1.7,0,0,1,.3-1.2l.7-.4.8-.6c.7-.7.7-1.7,1.4-3.5.1-.1,0,.1.9-1.9a7.2,7.2,0,0,1,1-1.8c.3-.4.4-.3,1.6-1.3a7,7,0,0,0,1.8-1.8l.5-.8c.3-.7.3-1,.5-1.4A3.5,3.5,0,0,1,43,58.7c1.4-1.3,1.6-.9,2.4-1.8A8.3,8.3,0,0,1,47,54.8l.7-.3a6.5,6.5,0,0,1,1.4,0h1.2l1.7-.5a18,18,0,0,1,5-.6c2-.1,1.7.2,3.2,0a18,18,0,0,1,3.3,0l1,.2.7.2.9-.2h1.6l2.3-.2h9.5c5.9-.2,5.9,0,8.2-.1a9.4,9.4,0,0,1,2.4,0h1.4a14.7,14.7,0,0,0,2.1,0l2.4.2h4.3a52.3,52.3,0,0,0,5.6,0,5.6,5.6,0,0,1,1.6.2,6.9,6.9,0,0,1,1.3.5,4,4,0,0,0,1.9,0h2.4l5.3.2,2.8.4c1.6.1,1.8-.1,3.5,0l2.6.2h1.9l8.1-.2,6.2-.2,3.9-.2h6.1a39.8,39.8,0,0,0,5.2.1l4.2-.3c2.8-.3,5-.3,9.3-.4l4.6-.2a7.8,7.8,0,0,0,2.6-.1l2-.3,2-.2h1.4l2.5.4,3.1.4a25.1,25.1,0,0,0,4.4.2l6-.2c2.2,0,3.9-.1,6.2,0l3.8.2h3c1.5,0,2.1-.1,3.7,0H219l6.9.4h5a12.2,12.2,0,0,0,4-.2l2.5-.6,1.4-.5a9.7,9.7,0,0,1,2.4-.2h4.2a7.5,7.5,0,0,1,2.6,0l1.2.3a6.5,6.5,0,0,0,1.8.2c1.7,0,1.5.2,3.3.2a24,24,0,0,1,2.7,0l2.6.3,2.6.2h2.4a11.8,11.8,0,0,1,2.6-.2h6.2c2.7,0,3.8-.2,5.1-.1H281a3.4,3.4,0,0,1,1.6.4l2.1.2h4.9c5.7,0,7.1.3,9-.1l1.9-.2a9.5,9.5,0,0,1,2.6,0H314c4.1-.1,8.3-.3,10.2-.2h1.7l1.9-.4h1.7l2.9-.3c2.7-.2,6.2-.2,11.9-.4l5.5-.2c2,0,2.4.1,5.6.3l10.1.4,3,.2,1.7.2h3.3l4.9.2h3.3l5.7.2,4.5-.2h10.9s8,.1,11.4.4l1.6.2,1.3.3,1.5.5,1,.2a18.1,18.1,0,0,1,3.7,1c2.2.7,2.4.5,5,1.2s4.6,1.6,5.7,2a52.9,52.9,0,0,1,5.7,2.7,19.8,19.8,0,0,1,3.9,2.4l2.4,2.2c.8.9,1,1.3,1.9,2.2l1.8,1.6a12.8,12.8,0,0,1,1.8,2.4,4.9,4.9,0,0,1,.8,1.3,18.2,18.2,0,0,0,.8,1.9l.7,1.2a15.6,15.6,0,0,1,.6,1.5c.4.5.6.5.8,1s0,.6.2,1.1.4.4.8.9a2.6,2.6,0,0,1,.6,1.3,15,15,0,0,1,.9,2,27.9,27.9,0,0,1,1.1,2.8,15.4,15.4,0,0,0,.2,1.9,10.7,10.7,0,0,1,.6,1.9l.4,1.5a19.9,19.9,0,0,1,.4,3.2V98c.1,1.6.1,1.9.1,2.7v2.8a14.7,14.7,0,0,0,0,3.2c.1.8.2.7.3,1.8a8.2,8.2,0,0,1,0,2.7c-.1.9-.3.8-.5,1.9a11.9,11.9,0,0,0-.4,3.9c.1.7.1,1.2.2,1.8.3,2.4.2,2.5.6,7.2s.3,3,.4,4.3,0,2.2,0,4.6,0,2.7.1,4.4.4,3.8.5,7.4a16,16,0,0,1,0,3.1c0,.6-.1,1.5-.2,3.2a8.8,8.8,0,0,1-.2,1.4,14.2,14.2,0,0,1-.7,2.2,6.6,6.6,0,0,0-.3,3,10,10,0,0,1,.2,1.6c.1.9-.2,1-.2,2s.1.5.2,2,.1,1.1.2,1.9a20.7,20.7,0,0,0,.4,2.2c.1.8.4,2.5.5,4.4v1.8c0,2.4,0,3.2.1,5.1,0,4.4-.4,5.1-.1,7.8s.3,2.7.3,2.7.2,1.7.3,2.6a14.6,14.6,0,0,1-.2,2.6,5.8,5.8,0,0,0-.5,1.1c-.1.5-.1.7-.2,1.4a8,8,0,0,0-.3,1.5,15.3,15.3,0,0,1-.5,2.1,28,28,0,0,0,0,2.9,33.7,33.7,0,0,1,.1,4.5c.1,2.5.1,3.7.1,4.8a36.2,36.2,0,0,1-.4,4.3,45.1,45.1,0,0,1-1.3,4.6l-.7,1.7c-.4.8-.5.9-.7,1.4a7.2,7.2,0,0,0-.4,2.1,16.9,16.9,0,0,0-.2,2.5c0,1.4.1,1.7.2,4.1v2.9a7.3,7.3,0,0,1-1.1,3l-.6,1.3a11.1,11.1,0,0,0-.3,1.3c-.3,1-.7,1.1-1.3,2.2s-.2,1-.8,2.8a18.9,18.9,0,0,1-1,2.1,21.7,21.7,0,0,1-1.5,2.2,13.6,13.6,0,0,0-1,2.1,35.3,35.3,0,0,0-1.7,5.4,15.4,15.4,0,0,1-.9,2.4,8,8,0,0,1-1.9,2.9Z" transform="translate(-12 -3.2)" fill="none" stroke="#000" stroke-miterlimit="10" stroke-width="0.71"/><path d="M76.9,239.4a5.1,5.1,0,0,0,.8,1.8l.7,1.2c0,.2.1.3.2.9a8.4,8.4,0,0,1,.4,1.2c.1.2.4,1,.9,2l1,1.5a8.8,8.8,0,0,1,1,2.3,3.8,3.8,0,0,1,.1,1,6.6,6.6,0,0,1-.2,2.3,8.2,8.2,0,0,1-.5,1.4,3,3,0,0,1-.6,1.1l-1,1.1-1.1.5-3.2,1.1-2,.3a2.2,2.2,0,0,1-1.1-.1l-.7-.2c-.6-.3-.8-.8-1.5-1.8l-.8-1.3a17.2,17.2,0,0,1-1.2-2.1l-1.4-2.7c-.4-.7-.5-1.1-.9-1.4l-1.2-.7-.7-.5a7.7,7.7,0,0,1-1.5-1.6l-1.2-1.1a16.6,16.6,0,0,0-2.4-1.8l-1.4-.7-1-.5a4.1,4.1,0,0,1-1.1-.6,21.1,21.1,0,0,1-3.4-2.2l-.6-.4-.8-.4h-.6l-1.2-.3a11.3,11.3,0,0,1-2.2-.9,14.1,14.1,0,0,1-2.3-1.8L43,234.6c-.2-.4-.3-.7-.5-3.9-.1-.9-.1-1.2-.2-2.2a6.1,6.1,0,0,0-.1-1.4v-.7c.1-.1.1-.4.2-.6a1,1,0,0,1,.5-.6l1-1.1c.8-.7.8-.6,1-.9a2.6,2.6,0,0,0,.7-1,3.2,3.2,0,0,0,.6-1.1,10.4,10.4,0,0,1,.5-1.2,2.5,2.5,0,0,0,.2-.7l1-1.1,1-.7.6-.4a4.8,4.8,0,0,0,1.1-.9l1-.7a10.4,10.4,0,0,1,2.2-.9l1.5-.3,1.9-.5,1.4-.4,1.5-.3,1.7-.3,1.9-.7,1-.5h1.2a4.4,4.4,0,0,1,1.6.3l1.3.4,1.1.2.5.3a7.1,7.1,0,0,0,1.7.5h.3c.2,0,.4.2.6.4l.5.6a27.6,27.6,0,0,1,1.4,2.5,8.5,8.5,0,0,1,.7,1.6,9.9,9.9,0,0,1,.1,1.5c0,.4-.1.6-.1,1.3a4.9,4.9,0,0,1-.1,1.2v4.3c-.1,3.7-.1,3.7-.1,4.4s.2,2.5.3,3.3.1,1.3.3,2.2A18.1,18.1,0,0,0,76.9,239.4Z" transform="translate(-12 -3.2)" fill="none" stroke="#000" stroke-miterlimit="10" stroke-width="0.57"/><path d="M74.4,255.4c-.1-.5-.2-1-.4-1.7s-.2-.7-.5-1.6a27.3,27.3,0,0,0-1.1-2.6c-.5-1.3-.6-1.4-.8-2.1l-.6-1.6a7.6,7.6,0,0,0-.5-1.6c-.1-.7-.2-1.2-.4-2.4s-.2-1.1-.3-1.5l-.7-1.6-.9-1.8c-.4-.8-.5-1.2-.8-1.8a2.4,2.4,0,0,0-.3-.9l-.5-.9c-.2-.3-.1-.3-.3-.7l-.6-1.2-.7-.9-.6-1.2a8.9,8.9,0,0,0-.6-1.5,8.7,8.7,0,0,0-1.1-1.7l-1.1-1.6a7.4,7.4,0,0,1-1.1-3.1,6.4,6.4,0,0,0,.9,1.7,15.8,15.8,0,0,0,1.4,2l1.2,1.3,1,1.6a8.5,8.5,0,0,0,.6,1.3A7.4,7.4,0,0,0,67,231l.3.4c.4.5.2.8.5,1.3l.7.8.6.7a4.1,4.1,0,0,1,.3.8l.5,1.8c.1.5.3.9.5,1.6l.7,1.9c.3.8.2.7.4,1.3l1,2.4.6,1.4c.4.9.3,1.1.6,1.8a9.6,9.6,0,0,0,.9,2,10,10,0,0,0,1.6,1.9,5.5,5.5,0,0,0,1.7,1.5,3.7,3.7,0,0,0,1.6.4" transform="translate(-12 -3.2)" fill="none" stroke="#000" stroke-miterlimit="10" stroke-width="0.43"/><path d="M122.7,202.5c.1-.5-.1-.5,0-1.7s.3-1.2.1-1.6l-1-1c-1-.8-1.1-1.1-1.4-1s-.3.1-.8.6l-1.1.8-1.1.9-3.2,2.6a25.9,25.9,0,0,0-2.1,1.7l-.7.6-.4.5a1.1,1.1,0,0,0,0,.8l.4,1.1a4.4,4.4,0,0,0,.5,1.3c.1.2.4.4.9.8s.8.7,1,.7.4,0,1.2-.3l1.8-.9c.4-.2.3-.3,1.3-1.1l.9-.7,2.4-2.2A5.3,5.3,0,0,0,122.7,202.5Z" transform="translate(-12 -3.2)" stroke="#000" stroke-linecap="round" stroke-linejoin="round" stroke-width="0.57" fill="url(#_10_lpi_10_)"/><path d="M403.1,92.5,402,90.8l-1.7-1.9a7,7,0,0,0-.9-.9,6.1,6.1,0,0,0-2.1-.8l-1.5-.2c-.6-.2-.7-.2-.9-.1s-.3,0-1.2.6l-.5.3-1.8,1.5a2.5,2.5,0,0,1-.8.7c-.5.4-.8.4-1.2.7a8,8,0,0,0-2.4,1.9l-.7.7-2.9,2.4c-.6.4-2.5,2-6,4.4l-1.8,1.2a42.1,42.1,0,0,1-6.8,4.2l-2.2,1-1.8.7-2.7,1-1.7.6a36.7,36.7,0,0,1-4.8,1.7l-5.7,1.9c-2.3.8-2.9,1.1-4.7,1.6l-2,.6a27.9,27.9,0,0,0-3.3,1.4,1.8,1.8,0,0,0-.8.6q-.2,0-.3.6a1.1,1.1,0,0,0,0,.8c.1.2.4.3.8.5l.8.2,1.1.2c.1.2,0,.3-.1.9l-.2.8c-.1.8-.1,1.2.1,1.5s.4.2,1.3.6,1,.5,1,.6-.4.7-.6.9-.4.3-.5.5a.7.7,0,0,0,0,.8.9.9,0,0,0,.3.5h.9c.5,0,.7,0,.7.1s-.1.3-.3.9a.8.8,0,0,0-.2.6,2.2,2.2,0,0,0-.2,1,1.7,1.7,0,0,0,.6.9,3.4,3.4,0,0,0,2,.6h1.5a.9.9,0,0,0,.6-.4c.8-.7,1.4-1.5,1.6-1.6l.9-1a5.3,5.3,0,0,0,.9-1.1l1-1.3,1.1-1.2,1-1a5.3,5.3,0,0,1,1.5-.7l2-.8a19.1,19.1,0,0,0,2.3-1l1.7-.7,3-1.2,2.6-1.4,2.2-1.3,3.3-1.5,2.3-1,5.9-2.5,1.9-.7,1.3-.2,2.1-.3,1.7-.2,1-.2,2.8-.4h1.1c.9,0,1.1.2,1.6.2a7.9,7.9,0,0,0,2.1-.4l1.9-.5a13.1,13.1,0,0,0,3.7-1.8,1.9,1.9,0,0,0,.7-.8,6.4,6.4,0,0,0,.2-.7v-1.3a3.7,3.7,0,0,1,.1-1.1,2,2,0,0,1,.2-.9c.1-.5.1-.6.2-1a13,13,0,0,0,.3-1.8,3.7,3.7,0,0,1,.1-1.1,7.5,7.5,0,0,0,.1-1.1,3,3,0,0,0-.5-1.4Z" transform="translate(-12 -3.2)" fill="none" stroke="#000" stroke-miterlimit="10" stroke-width="0.57"/><path d="M388,113.1c.3.2,0,.9-.1,1.3a4.7,4.7,0,0,1-.7,1.2A15.4,15.4,0,0,1,386,117l-1,.8c-.3.2-.4.1-1.7.3l-1.4.2-1.2.2h-1.1c-.1-.1-.2-.2-.2-.9a6.9,6.9,0,0,1-.2-1.8,3.1,3.1,0,0,1,0-1.1,4.2,4.2,0,0,1,.1-.7.4.4,0,0,1,.1-.3h5.4l1.3-.2H388Z" transform="translate(-12 -3.2)" stroke="#000" stroke-miterlimit="10" stroke-width="0.57" fill="url(#_10_lpi_10_3)"/><path d="M417.7,86.1c-.1,1-.1,2.2-.1,4.7a15.3,15.3,0,0,1,.1,1.8,4.8,4.8,0,0,0,0,1.7c.1.4.2.4.4,1a4,4,0,0,1,.4,2.3c-.1.4-.2.2-.4.9s-.2,1-.6,1.5a1.5,1.5,0,0,1-.4.6l-.7.6a12.3,12.3,0,0,0-.5,1.3,4.6,4.6,0,0,1-.5,1,2.2,2.2,0,0,1-1,.9,2.4,2.4,0,0,1-1.2.4,8.2,8.2,0,0,1-2.4.2c-.4-.2-.7-.5-1.3-1.6a25.2,25.2,0,0,1-1.5-4.5,12.8,12.8,0,0,1-.5-2.8,10.5,10.5,0,0,0-.1-2.4,5.8,5.8,0,0,0-.2-1,7.4,7.4,0,0,0-.9-2.1l-1.2-2.5-1.3-2-2-2.8a1.9,1.9,0,0,1-.7-1.1,2.7,2.7,0,0,1,.2-1.5,8.2,8.2,0,0,1,.5-1.4c.5-.9.8-.9,1.6-2.1s0,0,.8-1.3l1-1.7a15.1,15.1,0,0,0,1.1-2.6,11.8,11.8,0,0,0,.4-2c0-.5,0-.6-.1-2.5a7.6,7.6,0,0,1,0-1.6,18.1,18.1,0,0,1,.3-1.9c0-.5.1-.7,0-1a3.7,3.7,0,0,0-.4-1.5,4.2,4.2,0,0,0-.6-1.2,4.7,4.7,0,0,1-.6-.9,1.5,1.5,0,0,1-.3-.9,1.2,1.2,0,0,1,.1-.9,1.5,1.5,0,0,1,.5-1l.8-.4,1.7-.7a11.6,11.6,0,0,1,2.6-.8,15,15,0,0,1,3.7,0,6.8,6.8,0,0,1,3.3.9,7.4,7.4,0,0,1,2.7,2.5l1,1.3a18.8,18.8,0,0,1,1.2,1.5,4.1,4.1,0,0,1,.9,1.9,4.2,4.2,0,0,1-.1,2.2l-.6,1-.5,1.3-1,2.5a16.3,16.3,0,0,0-.9,3.4,25.5,25.5,0,0,0-.1,3.1,16,16,0,0,1-.4,3.2c-.2.8-.3,1.2-.9,3Z" transform="translate(-12 -3.2)" fill="none" stroke="#000" stroke-miterlimit="10" stroke-width="0.57"/><path d="M446.2,69.8l.7.9a17.4,17.4,0,0,1,1.4,2.7l1.2,2.6a33.2,33.2,0,0,1,1.4,4.9,15.5,15.5,0,0,0,.9,3.6c0,.2.3.7.5,1.5a4.1,4.1,0,0,1,.3,1.2c.2.9.1,1.1.3,2.2s.2,1.1.4,2.1.2.7.3,1.2,0,.7.1,1.1.3.6.5,1.3.1.7.2,1.2v1.4a33.6,33.6,0,0,0,1,5.8,22.3,22.3,0,0,0,1.6,4.3c.1.1.3.6.7,1.4a9.9,9.9,0,0,1,.5,1.4.6.6,0,0,1,.1.6c0,.2-.1.4-.1.6a3.5,3.5,0,0,0-.5,1.1l-.7,1.2-.4.6a3.2,3.2,0,0,1-1,1.1l-1.5.4-1,.2a36.6,36.6,0,0,0-5,1.1l-2.7.7-1.9.4h-1.2c-.4-.1-.6-.2-1.4-1s-1.7-1.6-1.8-2a2.2,2.2,0,0,1-.2-1,3.5,3.5,0,0,1,.3-1.6c.2-.7.3-.7.3-1.1a4.9,4.9,0,0,0,.1-1.4v-.9a6.5,6.5,0,0,0-.4-2,14.7,14.7,0,0,1-.6-2.3,19,19,0,0,1-.7-2.7l-1-4.3-.5-1.7-.3-1.3-.2-1a10.3,10.3,0,0,0-.4-1.4c-.2-.5-.3-.6-.7-1.4l-.8-1.5L432.6,87a18.6,18.6,0,0,0-.5-1.9c-.2-.7-.3-1.2-.5-1.7l-.9-2.4c-.4-1-.9-2.2-1.6-3.6s-.4-.6-1.3-2.4l-1.4-2.6-1.2-1.7a2.9,2.9,0,0,1-.7-1.2,2.1,2.1,0,0,1,.1-1.1,7.4,7.4,0,0,1,.8-1.6,6.3,6.3,0,0,1,1.8-1.9,4.4,4.4,0,0,1,1.5-.8l.8-.3c1.2-.4,1.2-.6,1.6-.6l1.2.2.9.3h2.9l.7-.3a1.8,1.8,0,0,1,1-.1,5.8,5.8,0,0,1,2.5,1.2,7.2,7.2,0,0,1,1.4,1.3,8.6,8.6,0,0,0,1.3,1.4,3.8,3.8,0,0,0,1,.9,8.7,8.7,0,0,1,1.4.8A3.8,3.8,0,0,1,446.2,69.8Z" transform="translate(-12 -3.2)" fill="none" stroke="#000" stroke-miterlimit="10" stroke-width="0.57"/><path d="M443.4,73.5c.1.4.2.6.1.9l-.2.5-.4.6c-.3.4-.2.4-.6.9l-.6.9c-.2.3-.3.5-.5.5h-1a4.7,4.7,0,0,1-1.5-.6,7.3,7.3,0,0,1-1.7-1.4,27.9,27.9,0,0,0-1.9-2.4,4.8,4.8,0,0,1-.9-1.3,2.7,2.7,0,0,1-.5-1.1,4.4,4.4,0,0,1,.5-1.9c.4-1,.7-1.4.9-1.5a1.2,1.2,0,0,1,.8-.6c.3-.1.5,0,1.2.2l1.9.3a2.1,2.1,0,0,1,1.2.3l.4.6c.6,1,.7.7,1.3,1.8a16.4,16.4,0,0,1,1,2.2A5.5,5.5,0,0,1,443.4,73.5Z" transform="translate(-12 -3.2)" stroke="#000" stroke-miterlimit="10" stroke-width="0.57" fill="url(#_10_lpi_10_5)"/><path d="M400.2,58.6c0,.1-.4.2-1,.5a29.6,29.6,0,0,1-4.8,1.6,5.3,5.3,0,0,1-1.8.4l-1.5-.2-2.2-.5-1.6-.2h-1.2a15.4,15.4,0,0,0-2,.2l-2.4.7a4.6,4.6,0,0,1-1.7.4l-1.7-.6-1.5-.6c-.9-.2-1,0-2.3-.3l-1.1-.2a7.6,7.6,0,0,0-1.6.3l-3.7,1.2a3.7,3.7,0,0,1-1.4.4,11.7,11.7,0,0,1-1.5-.4l-1.8-.4c-1-.3-1.1-.5-1.6-.5h-1.3l-2.2.6a4.9,4.9,0,0,1-1.7.6c-.4.1-.5.1-.7,0l-.9-.4h-1.8c-1.1.1-2.2.8-3.8,1a20.6,20.6,0,0,1-2.9,0h-2a1.8,1.8,0,0,1-1.2.2h-.6a13.7,13.7,0,0,0-3.6-.2h-1.6l-1.3-.3c-.9-.3-1.4-.1-3.7.3l-2.6.3-4,.4h-2.3a15,15,0,0,0-3,0l-1.7.3a28.9,28.9,0,0,1-3.6.6h-2.6a11.6,11.6,0,0,0-3.1.2l-1.8.2c-.5,0-.5-.1-.9,0a6.2,6.2,0,0,0-2.2.4c-.5.1-.5.2-.7.1s-.4-.9-1-1.4-.5,0-2.2-.1a4.7,4.7,0,0,0-1.6-.1l-1.1.5a9,9,0,0,1-1.9.8,5.7,5.7,0,0,1-2.3.3l-1.4-.3c-2.6-.6-3-.6-3-.8s.8-.4,3.2-1.3l1.8-.7c1.1-.2,1.5,0,2.9-.2l1.2-.3c.6-.2.7-.4,1.1-.4s.5.1,1.2.3a4.1,4.1,0,0,0,2.1-.2,2.5,2.5,0,0,0,1-.4h.1c.4-.3.8,0,1.3.1s.5-.2,1.6-.3h3.2l2,.2h6.7l5.5-.5,3.4-.4,2.7-.2h3l3.6-.4h2.5l4.3-.5,3.2-.3,2-.2,1.5-.3,2.9-.5a22.5,22.5,0,0,1,3.4-.2,7.2,7.2,0,0,1,2.7.3c.8.1.9.4,1.6.5a4.2,4.2,0,0,0,1.9-.2l1.2-.2.9.4a3.1,3.1,0,0,0,2.3-.1,2.8,2.8,0,0,1,1.2-.4l.9.2a3.4,3.4,0,0,0,1.8-.4,18.1,18.1,0,0,1,3.7-1.2h9.8l2.2.3,2.1.3,2.8.5a4.4,4.4,0,0,1,1.6.2l1.2.6a11.6,11.6,0,0,0,2.9.5h.8c.5,0,.8-.2,1.2,0S400.2,58.4,400.2,58.6Z" transform="translate(-12 -3.2)" fill="url(#_10_lpi_10_2-2)"/><text transform="translate(102.8 217.5)" font-size="14.17" font-family="SimSun">8a</text><text transform="translate(379.9 101.1)" font-size="14.17" font-family="SimSun">5</text><text transform="translate(396.7 80)" font-size="14.17" font-family="SimSun">6</text><text transform="translate(369.2 130)" font-size="14.17" font-family="AdobeMingStd-Light-B5pc-H, Adobe Ming Std">8b</text><text transform="translate(431.4 111.6)" font-size="14.17" font-family="SimSun">7</text><line x1="431.4" y1="65.9" x2="444.9" y2="56.3" fill="none" stroke="#000" stroke-linecap="round" stroke-linejoin="round" stroke-width="0.28"/><polygon points="445 57.3 447 54.8 444 55.9 445 57.3"/><text transform="translate(451.1 56.7)" font-size="14.17" font-family="SimSun">8c</text><text transform="translate(316.6 76.1)" font-size="14.17" font-family="SimSun">9</text><text transform="translate(39.8 258.2)" font-size="14.17" font-family="SimSun">1</text><text transform="translate(82.4 325.5)" font-size="14.17" font-family="SimSun">1.2.3.4.<tspan x="0" y="17">5-7.8a-8c.9.</tspan></text></g><g id="compass"><path d="M14.9,31.8c.8-4.2,1.5-8.3,2.3-12.5.1,13.3.3,26.6.5,39.9" transform="translate(-12 -3.2)" fill="none" stroke="#000" stroke-linecap="round" stroke-linejoin="round" stroke-width="0.57"/><text transform="translate(0.2 12.3) rotate(-0.9)" font-size="14.17" font-family="SimSun">N</text></g></svg>