<svg xmlns="http://www.w3.org/2000/svg" viewBox="0 0 792 901.4"><g id="scale-1:100"><path d="M475.4,909.5v9.9H333.6v-10" transform="translate(-19.6 -18.3)" fill="none" stroke="#000" stroke-miterlimit="10" stroke-width="0.5"/><line x1="342.4" y1="891.2" x2="342.4" y2="901.1" fill="none" stroke="#000" stroke-miterlimit="10" stroke-width="0.5"/><line x1="370.8" y1="891.2" x2="370.8" y2="901.1" fill="none" stroke="#000" stroke-miterlimit="10" stroke-width="0.5"/><line x1="399.1" y1="891.2" x2="399.1" y2="901.1" fill="none" stroke="#000" stroke-miterlimit="10" stroke-width="0.5"/><line x1="427.5" y1="891.2" x2="427.5" y2="901.1" fill="none" stroke="#000" stroke-miterlimit="10" stroke-width="0.5"/><text transform="translate(310.4 886.7)" font-size="14.17" font-family="SimSun">0</text><text transform="translate(452.5 886.7)" font-size="14.17" font-family="SimSun">5m</text></g><g id="outline"><path d="M504.1,18.8q-1.2,68.3-2.5,136.5l95.4-2.7c-.9,35.8-1.7,71.6-2.6,107.4-.4,18.7-.8,37.3-1.3,56l111-1.9,7.2,55.4,99-2.3" transform="translate(-19.6 -18.3)" fill="none" stroke="#000" stroke-linecap="round" stroke-linejoin="round" stroke-width="0.85"/><path d="M506.1,847.6,502.2,694l94-6.8Q593.1,603.7,590,520l116.4,5c.6-18.1,1.3-36.2,1.9-54.3l102.8-3.1" transform="translate(-19.6 -18.3)" fill="none" stroke="#000" stroke-linecap="round" stroke-linejoin="round" stroke-width="0.85"/><path d="M810.4,461l-112,1.7.7,47.2-113.2-3.8q3.3,86.5,6.8,173.2l-92.9,10.2q1.1,79.2,2,158.4" transform="translate(-19.6 -18.3)" fill="none" stroke="#000" stroke-linecap="round" stroke-linejoin="round" stroke-width="0.57"/><path d="M144.5,334l-36.9,9q-1.8,86.7-3.7,173.3l44.7-.6,57.7-.8L222,677.6l94.1-1.7q6,87,11.9,174" transform="translate(-19.6 -18.3)" fill="none" stroke="#000" stroke-linecap="round" stroke-linejoin="round" stroke-width="0.57"/><path d="M211.4,235.9c0,1.4,0,2.8-.1,4.2" transform="translate(-19.6 -18.3)" fill="none" stroke="#000" stroke-linecap="round" stroke-linejoin="round" stroke-width="0.57"/><path d="M211.3,245.5l-.3,65.2" transform="translate(-19.6 -18.3)" fill="none" stroke="#000" stroke-linecap="round" stroke-linejoin="round" stroke-width="0.57" stroke-dasharray="8.15 5.43"/><path d="M211,313.5v4.2l-4.2,1" transform="translate(-19.6 -18.3)" fill="none" stroke="#000" stroke-linecap="round" stroke-linejoin="round" stroke-width="0.57"/><path d="M200.7,320.2l-42.9,10.5" transform="translate(-19.6 -18.3)" fill="none" stroke="#000" stroke-linecap="round" stroke-linejoin="round" stroke-width="0.57" stroke-dasharray="9.47 6.31"/><path d="M154.7,331.5l-4.1,1" transform="translate(-19.6 -18.3)" fill="none" stroke="#000" stroke-linecap="round" stroke-linejoin="round" stroke-width="0.57"/><path d="M485,847.7q.3-87.7.5-175.4l98.3-9q-.7-83.2-1.4-166.4l103.7,3.4q.9-84.7,2-169.4l-105.3-2.7-6.3-154-186-1.7-178.8-.9-.3,60" transform="translate(-19.6 -18.3)" fill="none" stroke="#000" stroke-linecap="round" stroke-linejoin="round" stroke-width="0.57"/><path d="M604.4,497.6l63.9-10.4c-2.2-37.9-3-54.1-3.1-59.2-.1-.6-.1-2.6-.3-5.3-.4-5.7-1-9.3-1.4-12.6a163.9,163.9,0,0,1-1.3-21.3c-.1-4.3,0-7.8,0-10.2s.6-4.5.8-6,.4-2.8.6-4.1.1-3.6.2-5.9a51.3,51.3,0,0,1,.5-6.9L547.8,335Q543,266.3,538,197.6l-41.7-6.7c-24.1-3.8-47.9-7.4-71.6-10.9l-94.1,7-105.9,2.8,4.2,145.7L123.1,348.8q-2.4,63.6-4.7,127.2l107.8,23.4,18.3,149.4,215.4-4.9,95.2-2c3-31.3,5.4-54.4,7-70,.5-5.3,1.3-13,2.3-23.6,1.9-19,3.2-34.5,4.1-44.7l13.9-2.5" transform="translate(-19.6 -18.3)" fill="none" stroke="#000" stroke-linecap="round" stroke-linejoin="round" stroke-width="0.57"/><path d="M810.1,373H701.2l-.6-51.3L590,318.3l-7.6-145.4-42-4.5L485,162.6q-2.5-71.4-5-142.9" transform="translate(-19.6 -18.3)" fill="none" stroke="#000" stroke-linecap="round" stroke-linejoin="round" stroke-width="0.57"/><path d="M202.4,225q.4-32.2.8-64.6l103.6,5.4q5.3-72.1,10.4-144.2" transform="translate(-19.6 -18.3)" fill="none" stroke="#000" stroke-linecap="round" stroke-linejoin="round" stroke-width="0.57"/><path d="M147.4,326.5l4.2-.9" transform="translate(-19.6 -18.3)" fill="none" stroke="#000" stroke-linecap="round" stroke-linejoin="round" stroke-width="0.57"/><path d="M156.9,324.4l37.5-8.5" transform="translate(-19.6 -18.3)" fill="none" stroke="#000" stroke-linecap="round" stroke-linejoin="round" stroke-width="0.57" stroke-dasharray="8.23 5.49"/><path d="M197.1,315.3l4.1-.9c0-1.4,0-2.9.1-4.3" transform="translate(-19.6 -18.3)" fill="none" stroke="#000" stroke-linecap="round" stroke-linejoin="round" stroke-width="0.57"/><path d="M201.3,304.5c.3-17.6.5-35.2.7-52.8.1-4.8.2-9.5.2-14.3" transform="translate(-19.6 -18.3)" fill="none" stroke="#000" stroke-linecap="round" stroke-linejoin="round" stroke-width="0.57" stroke-dasharray="8.4 5.6"/><path d="M202.3,234.6v-4.3" transform="translate(-19.6 -18.3)" fill="none" stroke="#000" stroke-linecap="round" stroke-linejoin="round" stroke-width="0.57"/><path d="M20.6,383.2,100,394.3l.3-57.1,41.3-9.4" transform="translate(-19.6 -18.3)" fill="none" stroke="#000" stroke-linecap="round" stroke-linejoin="round" stroke-width="0.57"/><path d="M202.8,584.6l9.6,104.6,48.6-2,44.5-1.8,10.2,164.5" transform="translate(-19.6 -18.3)" fill="none" stroke="#000" stroke-linecap="round" stroke-linejoin="round" stroke-width="0.57"/><path d="M139,520.4h4.3" transform="translate(-19.6 -18.3)" fill="none" stroke="#000" stroke-linecap="round" stroke-linejoin="round" stroke-width="0.57"/><path d="M149.1,520.3l40.6-.3" transform="translate(-19.6 -18.3)" fill="none" stroke="#000" stroke-linecap="round" stroke-linejoin="round" stroke-width="0.57" stroke-dasharray="8.69 5.79"/><path d="M192.6,519.9h4.2c.1,1.4.3,2.8.4,4.2" transform="translate(-19.6 -18.3)" fill="none" stroke="#000" stroke-linecap="round" stroke-linejoin="round" stroke-width="0.57"/><path d="M197.7,530.1l3.9,42.1" transform="translate(-19.6 -18.3)" fill="none" stroke="#000" stroke-linecap="round" stroke-linejoin="round" stroke-width="0.57" stroke-dasharray="9.06 6.04"/><path d="M201.9,575.2c.1,1.4.3,2.9.4,4.3" transform="translate(-19.6 -18.3)" fill="none" stroke="#000" stroke-linecap="round" stroke-linejoin="round" stroke-width="0.57"/><path d="M20.8,466.5l27.3,2.2,50.6,4.5c.7,15.9,1.3,31.7,2,47.5l34.2-.3" transform="translate(-19.6 -18.3)" fill="none" stroke="#000" stroke-linecap="round" stroke-linejoin="round" stroke-width="0.57"/><path d="M135.5,523.5l-38.1-.4C96.7,507,96,491,95.2,474.9l-75.1-.3" transform="translate(-19.6 -18.3)" fill="none" stroke="#000" stroke-linecap="round" stroke-linejoin="round" stroke-width="0.85"/><path d="M198,576.4l-.3-4.2" transform="translate(-19.6 -18.3)" fill="none" stroke="#000" stroke-linecap="round" stroke-linejoin="round" stroke-width="0.85"/><path d="M197.3,567c-1-11.9-1.9-23.9-2.8-35.9" transform="translate(-19.6 -18.3)" fill="none" stroke="#000" stroke-linecap="round" stroke-linejoin="round" stroke-width="0.85" stroke-dasharray="7.72 5.15"/><path d="M194.3,528.5c-.1-1.4-.3-2.8-.4-4.2h-4.2" transform="translate(-19.6 -18.3)" fill="none" stroke="#000" stroke-linecap="round" stroke-linejoin="round" stroke-width="0.85"/><path d="M184.2,524.2l-38.3-.5" transform="translate(-19.6 -18.3)" fill="none" stroke="#000" stroke-linecap="round" stroke-linejoin="round" stroke-width="0.85" stroke-dasharray="8.22 5.48"/><path d="M143.1,523.6h-4.2" transform="translate(-19.6 -18.3)" fill="none" stroke="#000" stroke-linecap="round" stroke-linejoin="round" stroke-width="0.85"/><path d="M302.9,849.7l-.6-155.6-95.2-1.5c-2.9-36.9-5.7-73.8-8.6-110.7" transform="translate(-19.6 -18.3)" fill="none" stroke="#000" stroke-linecap="round" stroke-linejoin="round" stroke-width="0.85"/><path d="M197.3,221.6l4.2-66,95.8-1.7q2.7-30.3,5.5-60.8c2.2-23.9,4.3-47.9,6.5-71.9" transform="translate(-19.6 -18.3)" fill="none" stroke="#000" stroke-linecap="round" stroke-linejoin="round" stroke-width="0.85"/><path d="M143.1,319.6l4.2-.8" transform="translate(-19.6 -18.3)" fill="none" stroke="#000" stroke-linecap="round" stroke-linejoin="round" stroke-width="0.85"/><path d="M152.1,317.8l33.2-6.6" transform="translate(-19.6 -18.3)" fill="none" stroke="#000" stroke-linecap="round" stroke-linejoin="round" stroke-width="0.85" stroke-dasharray="7.26 4.84"/><path d="M187.6,310.7l4.2-.8.3-4.3" transform="translate(-19.6 -18.3)" fill="none" stroke="#000" stroke-linecap="round" stroke-linejoin="round" stroke-width="0.85"/><path d="M192.4,300.2q2.1-32.8,4.1-65.7" transform="translate(-19.6 -18.3)" fill="none" stroke="#000" stroke-linecap="round" stroke-linejoin="round" stroke-width="0.85" stroke-dasharray="8.22 5.48"/><path d="M196.7,231.8l.3-4.2" transform="translate(-19.6 -18.3)" fill="none" stroke="#000" stroke-linecap="round" stroke-linejoin="round" stroke-width="0.85"/><path d="M20,373.1l76.3,2,2.1-46.6,40.3-8" transform="translate(-19.6 -18.3)" fill="none" stroke="#000" stroke-linecap="round" stroke-linejoin="round" stroke-width="0.85"/><path d="M242.1,211.5c0,.3.6,7.4.5,9.2v2.9a4.5,4.5,0,0,1,.1,1.2c0,.3-.1.5-.1.7s0,.9-.2,1-.3.3-.7.4l-1.1.3-1.4.3h-6.4c-1.8-.1-2.1-.2-2.5-.5a4.7,4.7,0,0,1-1-2c-.1-.4-.1-.7-.2-1.3a21.6,21.6,0,0,1-.2-2.8v-1c0-1.6-.1-3-.2-5.3s-.1-1.5-.1-2.6-.3-5-.2-10.8v-1.5c.1-2,.2-2.9.5-3.2s.8-.1,1.9,0l1.4.2a31,31,0,0,0,4,.4,24.1,24.1,0,0,1,3.9.8,2.1,2.1,0,0,1,1.2.7c.1.3.1.6.2,1v.7C241.5,201.3,241.8,207.5,242.1,211.5Z" transform="translate(-19.6 -18.3)" fill="none" stroke="#000" stroke-linecap="round" stroke-linejoin="round" stroke-width="0.57"/><path d="M268,274.7a4.1,4.1,0,0,1,.5.9,9.5,9.5,0,0,1,.2,2.2,13.7,13.7,0,0,1,.2,1.6c.1.6.2,1,.2,1.2a30.7,30.7,0,0,1,.2,3.8c0,1.1-.1,1.9-.1,2.4a8.1,8.1,0,0,1-.4,2.4,5.9,5.9,0,0,1-1.6,1.8l-.7.5-.7.2a2.8,2.8,0,0,1-1.3,0H254c-1.4,0-2.5-.2-2.8-.2l-2.4-.5-2.6-.3-2.6-.2-1.2-.2a3.2,3.2,0,0,1-1.9-1,4.3,4.3,0,0,1-.3-2v-2.9c0-.9.1-.8.2-2.1a8.9,8.9,0,0,0,.1-2.3v-1.2a5.2,5.2,0,0,1,0-1.3,4.2,4.2,0,0,1,.1-1.4,2.8,2.8,0,0,1,1.5-1l1.2-.5,4.3-.6h1.7l2.7-.4h6l3.5.2h2.3a12.4,12.4,0,0,1,2.8.1A3,3,0,0,1,268,274.7Z" transform="translate(-19.6 -18.3)" fill="none" stroke="#000" stroke-linecap="round" stroke-linejoin="round" stroke-width="0.57"/><path d="M398.9,420.6c.5,3.3.7,3.3.9,5.2s.2,1.7.4,3.5.5,2.2.7,3.9.2,1.5.3,2.8.1,1.5.1,2.6v1.5c0,.6,0,.7-.1.8h-4.1a11.5,11.5,0,0,1-2.4-.2l-1.5-.3-2-.4h-4.1l-3.2-.2-2.3-.3a5.5,5.5,0,0,1-1.3,0,4.9,4.9,0,0,1-1.4-.3,4.6,4.6,0,0,1-1.2-1.1,14.3,14.3,0,0,1-1.2-2.1,20.7,20.7,0,0,1-1.4-3.9,38,38,0,0,1-1-7,35.3,35.3,0,0,0-.2-3.9c-.2-1.3-.4-2-.7-3.9a17.3,17.3,0,0,0-.2-2.2c-.3-2.7-.4-3.6-.5-5.2a20.5,20.5,0,0,1-.1-3.5v-1.4c.3-2.7.6-3.1.9-3.2l1.1-.3,1.7-.2h7.8l4-.2h5.2a7,7,0,0,1,1.6,0c.9-.1,1.7-.2,1.8.2s.1.2.1.4a1.8,1.8,0,0,1,.1.6,26.4,26.4,0,0,1,.2,2.8c0,.8.2,2.4.5,5.6s.2,2.5.3,3.4.3,1.8.5,3.3S398.6,419.2,398.9,420.6Z" transform="translate(-19.6 -18.3)" fill="none" stroke="#000" stroke-linecap="round" stroke-linejoin="round" stroke-width="0.57"/><path d="M278.5,572.1a10.4,10.4,0,0,1,.1,2.1c-.1,1.7-.1,1.5-.1,2.5v4.2a4.5,4.5,0,0,1-.5,1.3,2.4,2.4,0,0,1-.9.8,6.5,6.5,0,0,1-3.4.7h-4.5a17.7,17.7,0,0,0-2.3,0l-2.1.3h-2l-1.9.6-2.4.2-3.3.2h-3.8c-.5.1-.7.2-.9.1s-.8-.7-1.1-1.2a18.2,18.2,0,0,1-1.1-2.6c-.8-2.9-.9-2.5-1.4-4.4s-.3-1.5-.6-2.9a12.7,12.7,0,0,1-.4-2.6,7.4,7.4,0,0,1,0-2.1c.2-.7.4-1.1.4-1.2a4.3,4.3,0,0,1,1-1,4.9,4.9,0,0,1,1.7-.5l2-.4,3.3-.5,2.8-.4a37,37,0,0,1,5.8-.2h11.9c1.2.1,1.9.1,2.5.6a2.1,2.1,0,0,1,.9,1.1v.7a6.2,6.2,0,0,1,.1,1.3,4.1,4.1,0,0,1,.1,1C278.4,571.1,278.5,571.3,278.5,572.1Z" transform="translate(-19.6 -18.3)" fill="none" stroke="#000" stroke-linecap="round" stroke-linejoin="round" stroke-width="0.57"/><path d="M261.5,623.3l.7.8a6.7,6.7,0,0,1,.1,1.6,26.5,26.5,0,0,1-.3,2.7c0,.7-.1,1-.1,1.3s-.3,1.4-.4,2.4-.1.9-.2,2.3a11.3,11.3,0,0,1-.2,2.2c-.1,1.6-.3,3.1-.4,4.7a10.1,10.1,0,0,1-.3,1.7,7.5,7.5,0,0,1-.8,1.8c-.7,1.1-1,1.7-1.6,1.9h-3.1c-1.5-.1-1.6.1-3.5.1h-3.2a3.9,3.9,0,0,1-2.2-.6,3.8,3.8,0,0,1-.9-2.2,19.9,19.9,0,0,1-.3-3.7,20.3,20.3,0,0,1-.1-2.2c-.1-2.1-.1-2.3-.1-4s-.1-2.6-.2-5.4a12.6,12.6,0,0,1,.1-1.6,6,6,0,0,1,.6-1.9,4.3,4.3,0,0,1,2.2-1.5,7.6,7.6,0,0,1,2.2-.3c2.1-.1,2.4.1,4.1,0l2.3-.3,2.5-.2C260.6,622.7,261.3,623.1,261.5,623.3Z" transform="translate(-19.6 -18.3)" fill="none" stroke="#000" stroke-linecap="round" stroke-linejoin="round" stroke-width="0.57"/><path d="M548.5,616.7c0,.7,0,1.5-.1,3.7s-.3,4-.3,4.6-.2.9-.3,1.7-.1,1.5-.3,3-.2,1.9-.3,3.2-.1.6-.2,1.1-.1,1-.2,1.1a2.4,2.4,0,0,1-.9,1.1,3.5,3.5,0,0,1-1.5.8h-1.3a6.8,6.8,0,0,1-1.5,0,30,30,0,0,1-5.2-.7,7.5,7.5,0,0,1-3.1-1.1,5,5,0,0,1-1.3-2,19.2,19.2,0,0,1-.5-3.3c0-.4-.1-.7-.1-1.2s-.1-2.3-.1-2.9c0-2.8-.1-2.7-.1-4.8,0-.3,0-1.5.1-3a5.9,5.9,0,0,1,.1-1.1c.1-1.9.1-2.2.3-2.6a4.1,4.1,0,0,1,.9-1.2,5.6,5.6,0,0,1,2-1.7,6.7,6.7,0,0,1,2.5-.4h3.1a22.3,22.3,0,0,1,2.6,0h3.5a3.2,3.2,0,0,1,1.8.6,2.3,2.3,0,0,1,.4.9c.1.1.1.4.1,1.4v1.5C548.6,616.1,548.5,616.5,548.5,616.7Z" transform="translate(-19.6 -18.3)" fill="none" stroke="#000" stroke-linecap="round" stroke-linejoin="round" stroke-width="0.57"/><path d="M525.1,544.5a3.7,3.7,0,0,1,.9,1.6,3.5,3.5,0,0,1,0,1.5c0,.3,0,.2.1,1.8v2.4c0,.9,0,1.3.1,2.8s.1,3.4.1,3.9-.2,3-1.1,3.8l-1.4.5a7.8,7.8,0,0,1-2.8.4l-4.5-.3-3.5-.3-1.5-.2a14.2,14.2,0,0,0-2.7-.2l-4-.6a15.5,15.5,0,0,1-3.1-.7l-1.1-.7a4,4,0,0,1-1.5-1.9c-.3-.7-.3-1.2-.4-3.7s-.1-2.4-.2-4.2-.1-1.3-.1-2.4a12.2,12.2,0,0,1,.1-2.1,6.8,6.8,0,0,1,.7-2.6,12.5,12.5,0,0,1,.9-1.2,1.3,1.3,0,0,1,.6-.4,1,1,0,0,1,.7-.1,12.1,12.1,0,0,1,2.5.2h5l5.1.5,2.7.4,4.4.4h.7l1.7.2A3.7,3.7,0,0,1,525.1,544.5Z" transform="translate(-19.6 -18.3)" fill="none" stroke="#000" stroke-linecap="round" stroke-linejoin="round" stroke-width="0.57"/><path d="M518.8,254c.2.1.7.5,1.5,2.7a29.8,29.8,0,0,1,1.4,6.4,14.4,14.4,0,0,0,.1,1.8c.2,1.7.3,1.9.3,2.4a4.2,4.2,0,0,1-1.8,3.2c-1,.8-2.8.7-6.2.6h-4.8c-1.5.1-1.9.3-3.7.5l-2.4.2-3.8.2H497c-1.8,0-2.7.1-3.4-.3a5.5,5.5,0,0,1-2.1-3l-.7-2.9a19.9,19.9,0,0,1-.6-2.6,7.8,7.8,0,0,1,0-3.3,3,3,0,0,1,.8-1.6,3.1,3.1,0,0,1,1.4-.9,6.9,6.9,0,0,1,1.8-.5c1-.2.1-.2,5.6-1.4,3.7-.8,5.6-1.2,7.8-1.5l4.3-.6,3.7-.2A5.5,5.5,0,0,1,518.8,254Z" transform="translate(-19.6 -18.3)" fill="none" stroke="#000" stroke-linecap="round" stroke-linejoin="round" stroke-width="0.57"/><path d="M536.2,239.1c-.7,1-1.8,1.3-3.2,1.6s-3,.3-6.8.4h-1.5a4.8,4.8,0,0,1-1.8-.3c-.1-.1-.2-.2-.6-1.1l-.6-1.4c-1.3-4.6-1.6-5.9-1.6-5.9-.9-4.1-.9-3.2-2.4-10a30.2,30.2,0,0,1-1-5c-.2-1.1,0-.8-.1-4.4,0-1.3-.1-2.3,0-3.7s.4-3.3,1-3.7l1.4-.2a11,11,0,0,1,2.4.2l2.8.3,2.2.2a30.1,30.1,0,0,0,3.5-.2h1.8c1.9-.1,2.2.1,2.6.3s.5.8.7,1.6a29.3,29.3,0,0,1,.6,4c.1,1.5.1,5.3.2,7.8a46,46,0,0,1,.3,5c.1,1.9,0,2.3,0,4s.4,4.1.4,4.3a21.8,21.8,0,0,1,.3,4.2A4.3,4.3,0,0,1,536.2,239.1Z" transform="translate(-19.6 -18.3)" fill="none" stroke="#000" stroke-linecap="round" stroke-linejoin="round" stroke-width="0.57"/><text transform="translate(145.4 240)" font-size="22.68" font-family="SimSun">a</text><text transform="translate(597.8 237)" font-size="22.68" font-family="SimSun">a’</text><text transform="translate(240.2 115.6)" font-size="22.68" font-family="SimSun">c</text><text transform="translate(492.8 115.6)" font-size="22.68" font-family="SimSun">d</text><text transform="translate(147.2 547)" font-size="22.68" font-family="SimSun">b</text><text transform="translate(247.9 709.1)" font-size="22.68" font-family="SimSun">c’</text><text transform="translate(503.7 709.1)" font-size="22.68" font-family="SimSun">d’</text><text transform="translate(589.2 546.1)" font-size="22.68" font-family="SimSun">b’</text><text transform="translate(610.7 534)" font-size="22.68" font-family="SimSun">e’</text><text transform="translate(614 277.2)" font-size="22.68" font-family="SimSun">e</text><line x1="246.3" y1="118.4" x2="246.3" y2="128.7" fill="none" stroke="#000" stroke-linecap="round" stroke-linejoin="round" stroke-width="0.28"/><line x1="498.5" y1="118.4" x2="498.5" y2="127.9" fill="none" stroke="#000" stroke-linecap="round" stroke-linejoin="round" stroke-width="0.28"/><line x1="583" y1="231.6" x2="594.5" y2="231.6" fill="none" stroke="#000" stroke-linecap="round" stroke-linejoin="round" stroke-width="0.28"/><line x1="619" y1="280.6" x2="619" y2="289.7" fill="none" stroke="#000" stroke-linecap="round" stroke-linejoin="round" stroke-width="0.28"/><line x1="614.8" y1="510" x2="614.8" y2="520.3" fill="none" stroke="#000" stroke-linecap="round" stroke-linejoin="round" stroke-width="0.28"/><line x1="577.7" y1="537.8" x2="586.9" y2="537.8" fill="none" stroke="#000" stroke-linecap="round" stroke-linejoin="round" stroke-width="0.28"/><line x1="510.1" y1="681.4" x2="510.1" y2="690.9" fill="none" stroke="#000" stroke-linecap="round" stroke-linejoin="round" stroke-width="0.28"/><line x1="253.1" y1="683.2" x2="253.1" y2="693.5" fill="none" stroke="#000" stroke-linecap="round" stroke-linejoin="round" stroke-width="0.28"/><line x1="161.7" y1="541.8" x2="171.4" y2="541.8" fill="none" stroke="#000" stroke-linecap="round" stroke-linejoin="round" stroke-width="0.28"/><line x1="159.3" y1="236.5" x2="168.2" y2="236.5" fill="none" stroke="#000" stroke-linecap="round" stroke-linejoin="round" stroke-width="0.28"/></g><g id="compass"><line x1="630.2" y1="133.8" x2="731.5" y2="102.8" fill="#fff" stroke="#000" stroke-linecap="round" stroke-linejoin="round" stroke-width="0.85"/><line x1="656.1" y1="38.2" x2="722.6" y2="255.9" fill="#fff"/><line x1="659.4" y1="49" x2="722.6" y2="255.9" fill="none" stroke="#000" stroke-linecap="round" stroke-linejoin="round" stroke-width="0.85"/><polygon points="656.6 52.5 656.1 38.2 663.7 50.3 656.6 52.5"/><circle cx="680.8" cy="118.3" r="30.8" fill="none" stroke="#000" stroke-linecap="round" stroke-linejoin="round" stroke-width="0.85"/><text transform="matrix(0.96, -0.29, 0.29, 0.96, 646.21, 34.14)" font-size="34.02" font-family="SimSun">N</text><circle cx="680.8" cy="118.3" r="37.1" fill="none" stroke="#000" stroke-linecap="round" stroke-linejoin="round" stroke-width="0.85"/></g></svg>