<svg xmlns="http://www.w3.org/2000/svg" xmlns:xlink="http://www.w3.org/1999/xlink" viewBox="0 0 718.7 353.3"><defs><pattern id="_10_lpi_10_" data-name="10 lpi 10%" width="72" height="72" patternUnits="userSpaceOnUse" viewBox="0 0 72 72"><rect width="72" height="72" fill="none"/><line x1="71.8" y1="68.4" x2="144.3" y2="68.4" fill="none" stroke="#1d1d1b" stroke-width="0.28"/><line x1="71.8" y1="54" x2="144.3" y2="54" fill="none" stroke="#1d1d1b" stroke-width="0.28"/><line x1="71.8" y1="39.6" x2="144.3" y2="39.6" fill="none" stroke="#1d1d1b" stroke-width="0.28"/><line x1="71.8" y1="25.2" x2="144.3" y2="25.2" fill="none" stroke="#1d1d1b" stroke-width="0.28"/><line x1="71.8" y1="10.8" x2="144.3" y2="10.8" fill="none" stroke="#1d1d1b" stroke-width="0.28"/><line x1="71.8" y1="61.2" x2="144.3" y2="61.2" fill="none" stroke="#1d1d1b" stroke-width="0.28"/><line x1="71.8" y1="46.8" x2="144.3" y2="46.8" fill="none" stroke="#1d1d1b" stroke-width="0.28"/><line x1="71.8" y1="32.4" x2="144.3" y2="32.4" fill="none" stroke="#1d1d1b" stroke-width="0.28"/><line x1="71.8" y1="18" x2="144.3" y2="18" fill="none" stroke="#1d1d1b" stroke-width="0.28"/><line x1="71.8" y1="3.6" x2="144.3" y2="3.6" fill="none" stroke="#1d1d1b" stroke-width="0.28"/><line x1="71.8" y1="72" x2="144.3" y2="72" fill="none" stroke="#1d1d1b" stroke-width="0.28"/><line x1="71.8" y1="57.6" x2="144.3" y2="57.6" fill="none" stroke="#1d1d1b" stroke-width="0.28"/><line x1="71.8" y1="43.2" x2="144.3" y2="43.2" fill="none" stroke="#1d1d1b" stroke-width="0.28"/><line x1="71.8" y1="28.8" x2="144.3" y2="28.8" fill="none" stroke="#1d1d1b" stroke-width="0.28"/><line x1="71.8" y1="14.4" x2="144.3" y2="14.4" fill="none" stroke="#1d1d1b" stroke-width="0.28"/><line x1="71.8" y1="64.8" x2="144.3" y2="64.8" fill="none" stroke="#1d1d1b" stroke-width="0.28"/><line x1="71.8" y1="50.4" x2="144.3" y2="50.4" fill="none" stroke="#1d1d1b" stroke-width="0.28"/><line x1="71.8" y1="36" x2="144.3" y2="36" fill="none" stroke="#1d1d1b" stroke-width="0.28"/><line x1="71.8" y1="21.6" x2="144.3" y2="21.6" fill="none" stroke="#1d1d1b" stroke-width="0.28"/><line x1="71.8" y1="7.2" x2="144.3" y2="7.2" fill="none" stroke="#1d1d1b" stroke-width="0.28"/><line x1="-0.3" y1="68.4" x2="72.3" y2="68.4" fill="none" stroke="#1d1d1b" stroke-width="0.28"/><line x1="-0.3" y1="54" x2="72.3" y2="54" fill="none" stroke="#1d1d1b" stroke-width="0.28"/><line x1="-0.3" y1="39.6" x2="72.3" y2="39.6" fill="none" stroke="#1d1d1b" stroke-width="0.28"/><line x1="-0.3" y1="25.2" x2="72.3" y2="25.2" fill="none" stroke="#1d1d1b" stroke-width="0.28"/><line x1="-0.3" y1="10.8" x2="72.3" y2="10.8" fill="none" stroke="#1d1d1b" stroke-width="0.28"/><line x1="-0.3" y1="61.2" x2="72.3" y2="61.2" fill="none" stroke="#1d1d1b" stroke-width="0.28"/><line x1="-0.3" y1="46.8" x2="72.3" y2="46.8" fill="none" stroke="#1d1d1b" stroke-width="0.28"/><line x1="-0.3" y1="32.4" x2="72.3" y2="32.4" fill="none" stroke="#1d1d1b" stroke-width="0.28"/><line x1="-0.3" y1="18" x2="72.3" y2="18" fill="none" stroke="#1d1d1b" stroke-width="0.28"/><line x1="-0.3" y1="3.6" x2="72.3" y2="3.6" fill="none" stroke="#1d1d1b" stroke-width="0.28"/><line x1="-0.3" y1="72" x2="72.3" y2="72" fill="none" stroke="#1d1d1b" stroke-width="0.28"/><line x1="-0.3" y1="57.6" x2="72.3" y2="57.6" fill="none" stroke="#1d1d1b" stroke-width="0.28"/><line x1="-0.3" y1="43.2" x2="72.3" y2="43.2" fill="none" stroke="#1d1d1b" stroke-width="0.28"/><line x1="-0.3" y1="28.8" x2="72.3" y2="28.8" fill="none" stroke="#1d1d1b" stroke-width="0.28"/><line x1="-0.3" y1="14.4" x2="72.3" y2="14.4" fill="none" stroke="#1d1d1b" stroke-width="0.28"/><line x1="-0.3" y1="64.8" x2="72.3" y2="64.8" fill="none" stroke="#1d1d1b" stroke-width="0.28"/><line x1="-0.3" y1="50.4" x2="72.3" y2="50.4" fill="none" stroke="#1d1d1b" stroke-width="0.28"/><line x1="-0.3" y1="36" x2="72.3" y2="36" fill="none" stroke="#1d1d1b" stroke-width="0.28"/><line x1="-0.3" y1="21.6" x2="72.3" y2="21.6" fill="none" stroke="#1d1d1b" stroke-width="0.28"/><line x1="-0.3" y1="7.2" x2="72.3" y2="7.2" fill="none" stroke="#1d1d1b" stroke-width="0.28"/><line x1="-72.3" y1="68.4" x2="0.3" y2="68.4" fill="none" stroke="#1d1d1b" stroke-width="0.28"/><line x1="-72.3" y1="54" x2="0.3" y2="54" fill="none" stroke="#1d1d1b" stroke-width="0.28"/><line x1="-72.3" y1="39.6" x2="0.3" y2="39.6" fill="none" stroke="#1d1d1b" stroke-width="0.28"/><line x1="-72.3" y1="25.2" x2="0.3" y2="25.2" fill="none" stroke="#1d1d1b" stroke-width="0.28"/><line x1="-72.3" y1="10.8" x2="0.3" y2="10.8" fill="none" stroke="#1d1d1b" stroke-width="0.28"/><line x1="-72.3" y1="61.2" x2="0.3" y2="61.2" fill="none" stroke="#1d1d1b" stroke-width="0.28"/><line x1="-72.3" y1="46.8" x2="0.3" y2="46.8" fill="none" stroke="#1d1d1b" stroke-width="0.28"/><line x1="-72.3" y1="32.4" x2="0.3" y2="32.4" fill="none" stroke="#1d1d1b" stroke-width="0.28"/><line x1="-72.3" y1="18" x2="0.3" y2="18" fill="none" stroke="#1d1d1b" stroke-width="0.28"/><line x1="-72.3" y1="3.6" x2="0.3" y2="3.6" fill="none" stroke="#1d1d1b" stroke-width="0.28"/><line x1="-72.3" y1="72" x2="0.3" y2="72" fill="none" stroke="#1d1d1b" stroke-width="0.28"/><line x1="-72.3" y1="57.6" x2="0.3" y2="57.6" fill="none" stroke="#1d1d1b" stroke-width="0.28"/><line x1="-72.3" y1="43.2" x2="0.3" y2="43.2" fill="none" stroke="#1d1d1b" stroke-width="0.28"/><line x1="-72.3" y1="28.8" x2="0.3" y2="28.8" fill="none" stroke="#1d1d1b" stroke-width="0.28"/><line x1="-72.3" y1="14.4" x2="0.3" y2="14.4" fill="none" stroke="#1d1d1b" stroke-width="0.28"/><line x1="-72.3" y1="64.8" x2="0.3" y2="64.8" fill="none" stroke="#1d1d1b" stroke-width="0.28"/><line x1="-72.3" y1="50.4" x2="0.3" y2="50.4" fill="none" stroke="#1d1d1b" stroke-width="0.28"/><line x1="-72.3" y1="36" x2="0.3" y2="36" fill="none" stroke="#1d1d1b" stroke-width="0.28"/><line x1="-72.3" y1="21.6" x2="0.3" y2="21.6" fill="none" stroke="#1d1d1b" stroke-width="0.28"/><line x1="-72.3" y1="7.2" x2="0.3" y2="7.2" fill="none" stroke="#1d1d1b" stroke-width="0.28"/><line x1="71.8" x2="144.3" fill="none" stroke="#1d1d1b" stroke-width="0.28"/><line x1="-0.3" x2="72.3" fill="none" stroke="#1d1d1b" stroke-width="0.28"/><line x1="-72.3" x2="0.3" fill="none" stroke="#1d1d1b" stroke-width="0.28"/></pattern></defs><g id="scale-1:100"><path d="M443.4,370.6v10H301.6v-10" transform="translate(-13.8 -27.5)" fill="none" stroke="#000" stroke-miterlimit="10" stroke-width="0.5"/><line x1="316.2" y1="343.1" x2="316.2" y2="353.1" fill="none" stroke="#000" stroke-miterlimit="10" stroke-width="0.5"/><line x1="344.5" y1="343.1" x2="344.5" y2="353.1" fill="none" stroke="#000" stroke-miterlimit="10" stroke-width="0.5"/><line x1="372.8" y1="343.1" x2="372.8" y2="353.1" fill="none" stroke="#000" stroke-miterlimit="10" stroke-width="0.5"/><line x1="401.2" y1="343.1" x2="401.2" y2="353.1" fill="none" stroke="#000" stroke-miterlimit="10" stroke-width="0.5"/><text transform="translate(284.2 338.6)" font-size="14.17" font-family="AdobeMingStd-Light-B5pc-H, Adobe Ming Std">0</text><text transform="translate(426.2 338.6)" font-size="14.17" font-family="AdobeMingStd-Light-B5pc-H, Adobe Ming Std">5m</text></g><g id="outline"><path d="M177.3,297.8H165.7c-1.5-4.5-3-9.2-4.4-14s-1.9-6.7-2.8-10l-11.1-13.8L137.5,248l-2.8-3.3c-2.6-5.7-4.4-10.4-5.6-13.6-1.8-4.8-2.5-7.3-4.9-13.2l-1.5-3.9a58.5,58.5,0,0,1-2.4-9.6c-.6-3.3-1.6-8.2-3.4-15.2-1.6-2.2-4.2-5.8-7.4-10.5-8-11.4-8.3-12.7-13-18.7-2.5-3.1-4.4-5.3-8.5-10.8l-4.3-5.7c-2.2-2.9-5.1-6.7-8.7-11l-4.2-8.3c-4.7-9.4-6.5-13.1-9.7-18.4-1.1-1.9-2-3.3-2.6-4.2C53.7,96,48.7,90.4,43.3,84.8c-2.6-2.8-5.3-5.5-7.9-8.2-3-6.3-6-12.7-9.1-19.1l-12.2-26,26.2.5,13.8,1.9L80.8,47.6c.7,6.5,1.6,11.1,2.2,14.1.3,1.1.9,3.9,1.6,7.9.5,2.2.8,4,1,5.1l2.7,8.7c2.6,8.1,4.8,14.8,6.5,19.8,4,11.7,6,17.6,8.3,23.6s2.9,7,7,17.6c.8,1.9,2,5,3.4,8.8,3,7.6,4.4,11.4,5,13,1.7,5.4,1.7,6.8,4.6,16.3.5,1.9,1,3.4,1.3,4.4l2.2,1.3a16.9,16.9,0,0,1,3,2.5c1.2,1.4,8.7,7.9,28.4,24.3,2.2,5.2,4.4,10.6,6.5,16s3.1,7.9,4.5,11.8c.1,1.4.2,3.6.5,6.2s1,6.9,1.2,8.2c2.2,12.5,1.7,12.6,3.5,21.6a143.7,143.7,0,0,1,2.8,16.7C177.1,296.5,177.2,297.3,177.3,297.8Z" transform="translate(-13.8 -27.5)" fill="url(#_10_lpi_10_)"/><path d="M732.2,28.8l-2.1,2.6a38.7,38.7,0,0,0-3.9,6.6L715.4,55.9c-8.3,13.6-8.4,13.8-9.1,14.8-3.4,5-4.9,6.5-10.6,14.1-4.1,5.4-7.5,10.1-10.1,13.8s-3.1,5.8-4.8,8.8-2.1,3.7-3.2,5.4l-1.5,3.8c-.2.5-1,2.2-2.2,4.5a95.3,95.3,0,0,1-5.4,9.1l-4,5.5c-4.1,5.5-7.2,9.4-8.2,10.6-3.4,4.4-7.2,10.6-14.8,23.1s-10.7,18.4-12.4,21.8-2.9,6.1-3.8,8.1c-1.9,4.3-4.5,10.1-7.3,17.1s-4.1,10-6.2,15.7-2.5,7.4-7.5,23.4c-1.4,4.6-3,10.1-4.5,14.7-7,4.8-14.2,9.6-21.5,14.4-5.8,3.8-11.5,7.6-17.2,11.2l-76,.3c0-1.4.1-2.7.1-3.6s.1-2.8.2-4.5a23.1,23.1,0,0,1,.3-2.8c.5-4.4,1-12.2,1.7-20,.3-2.8.6-6.9,1.2-12,.9-7.1,1.5-12.9,1.8-16.9.2-1.7.2-2.7.8-9.9.3-3.2.6-8,.9-11.1l3.6-17.9c.8-4,1.5-7.9,2.3-11.8s.8-6.4,1.7-11.3,1-4.7,2.2-10.9c.7-3.9.8-4.7,2.2-12.2.5-2.9,1.2-6.7,2.1-11.2.6-3,1.6-6.9,3-11.5s2.2-6.6,3.9-10.9,5.3-13,10-22.6c2-3.9,3.8-7.1,5.3-9.5a85,85,0,0,1,4.9-7.4l1.1-1.5,2.2-3.3c1.1-1.7,1.7-4.4,2.9-8.3.4-1.3,1.1-3.3,1.9-5.7s1.1-4.6,1.8-7.1,1.9-6.4,2.9-9.4c3.3-2.1,6.8-4.5,10.5-7.1s6.9-5.3,10-7.9l80.8.2Z" transform="translate(-13.8 -27.5)" fill="url(#_10_lpi_10_)"/><path d="M485.1,296.1l76-.3c5.7-3.6,11.4-7.4,17.2-11.2,7.3-4.8,14.5-9.6,21.5-14.4,1.5-4.6,3.1-10.1,4.5-14.7,5-16,5.9-18.9,7.5-23.4s3.8-10.1,6.2-15.7,5.4-12.8,7.3-17.1c.9-2,2.2-4.8,3.8-8.1s4.5-8.8,12.4-21.8,11.4-18.7,14.8-23.1c1-1.2,4.1-5.1,8.2-10.6l4-5.5a95.3,95.3,0,0,0,5.4-9.1c1.2-2.3,2-4,2.2-4.5l1.5-3.8c1.1-1.7,2.1-3.5,3.2-5.4s3.3-5.9,4.8-8.8,6-8.4,10.1-13.8c5.7-7.6,7.2-9.1,10.6-14.1.7-1,.8-1.2,9.1-14.8L726.2,38a38.7,38.7,0,0,1,3.9-6.6l2.1-2.6L647.4,28l-80.8-.2c-3.1,2.6-6.4,5.2-10,7.9s-7.2,5-10.5,7.1c-1,3-2,6.1-2.9,9.4s-1.3,4.8-1.8,7.1-1.5,4.4-1.9,5.7c-1.2,3.9-1.8,6.6-2.9,8.3l-2.2,3.3-1.1,1.5a85,85,0,0,0-4.9,7.4c-1.5,2.4-3.3,5.6-5.3,9.5-4.7,9.6-7.9,17.3-10,22.6s-2.9,7.5-3.9,10.9-2.4,8.5-3,11.5c-.9,4.5-1.6,8.3-2.1,11.2-1.4,7.5-1.5,8.3-2.2,12.2-1.2,6.2-1.5,7-2.2,10.9s-1.4,8.8-1.7,11.3-1.5,7.8-2.3,11.8l-3.6,17.9c-.3,3.1-.6,7.9-.9,11.1-.6,7.2-.6,8.2-.8,9.9-.3,4-.9,9.8-1.8,16.9-.6,5.1-.9,9.2-1.2,12-.7,7.8-1.2,15.6-1.7,20a23.1,23.1,0,0,0-.3,2.8c-.1,1.7-.2,3-.2,4.5S485.1,294.7,485.1,296.1Z" transform="translate(-13.8 -27.5)" fill="none" stroke="#000" stroke-linecap="round" stroke-linejoin="round" stroke-width="0.57"/><path d="M177.3,297.8l196-1.1c0,11.9.1,23.7.2,35.6h16.8c.1-12,.2-23.9.2-35.8l94.6-.4" transform="translate(-13.8 -27.5)" fill="none" stroke="#000" stroke-linecap="round" stroke-linejoin="round" stroke-width="0.57"/><path d="M177.3,297.8c-.1-.5-.2-1.3-.3-2.3a143.7,143.7,0,0,0-2.8-16.7c-1.8-9-1.3-9.1-3.5-21.6-.2-1.3-.8-4.2-1.2-8.2s-.4-4.8-.5-6.2c-1.4-3.9-2.9-7.8-4.5-11.8s-4.3-10.8-6.5-16c-19.7-16.4-27.2-22.9-28.4-24.3a16.9,16.9,0,0,0-3-2.5l-2.2-1.3c-.3-1-.8-2.5-1.3-4.4-2.9-9.5-2.9-10.9-4.6-16.3-.6-1.6-2-5.4-5-13-1.4-3.8-2.6-6.9-3.4-8.8-4.1-10.6-5.1-12.9-7-17.6s-4.3-11.9-8.3-23.6c-1.7-5-3.9-11.7-6.5-19.8l-2.7-8.7c-.2-1.1-.5-2.9-1-5.1-.7-4-1.3-6.8-1.6-7.9-.6-3-1.5-7.6-2.2-14.1L54.1,33.9,40.3,32l-26.2-.5,12.2,26c3.1,6.4,6.1,12.8,9.1,19.1,2.6,2.7,5.3,5.4,7.9,8.2,5.4,5.6,10.4,11.2,15.2,16.8.6.9,1.5,2.3,2.6,4.2,3.2,5.3,5,9,9.7,18.4l4.2,8.3c3.6,4.3,6.5,8.1,8.7,11l4.3,5.7c4.1,5.5,6,7.7,8.5,10.8,4.7,6,5,7.3,13,18.7,3.2,4.7,5.8,8.3,7.4,10.5,1.8,7,2.8,11.9,3.4,15.2a58.5,58.5,0,0,0,2.4,9.6l1.5,3.9c2.4,5.9,3.1,8.4,4.9,13.2,1.2,3.2,3,7.9,5.6,13.6l2.8,3.3,9.9,12.1,11.1,13.8c.9,3.3,1.8,6.6,2.8,10s2.9,9.5,4.4,14Z" transform="translate(-13.8 -27.5)" fill="none" stroke="#000" stroke-linecap="round" stroke-linejoin="round" stroke-width="0.57"/></g></svg>