<svg xmlns="http://www.w3.org/2000/svg" xmlns:xlink="http://www.w3.org/1999/xlink" viewBox="0 0 352.6 247.5"><defs><pattern id="_10_lpi_10_" data-name="10 lpi 10%" width="72" height="72" patternTransform="translate(25.9 10.1) rotate(45)" patternUnits="userSpaceOnUse" viewBox="0 0 72 72"><rect width="72" height="72" fill="none"/><line x1="71.5" y1="72" x2="144" y2="72" fill="none" stroke="#231815" stroke-width="0.28"/><line x1="-0.5" y1="72" x2="72" y2="72" fill="none" stroke="#231815" stroke-width="0.28"/><line x1="71.8" y1="68.4" x2="144.3" y2="68.4" fill="none" stroke="#231815" stroke-width="0.28"/><line x1="71.8" y1="54" x2="144.3" y2="54" fill="none" stroke="#231815" stroke-width="0.28"/><line x1="71.8" y1="39.6" x2="144.3" y2="39.6" fill="none" stroke="#231815" stroke-width="0.28"/><line x1="71.8" y1="25.2" x2="144.3" y2="25.2" fill="none" stroke="#231815" stroke-width="0.28"/><line x1="71.8" y1="10.8" x2="144.3" y2="10.8" fill="none" stroke="#231815" stroke-width="0.28"/><line x1="71.8" y1="61.2" x2="144.3" y2="61.2" fill="none" stroke="#231815" stroke-width="0.28"/><line x1="71.8" y1="46.8" x2="144.3" y2="46.8" fill="none" stroke="#231815" stroke-width="0.28"/><line x1="71.8" y1="32.4" x2="144.3" y2="32.4" fill="none" stroke="#231815" stroke-width="0.28"/><line x1="71.8" y1="18" x2="144.3" y2="18" fill="none" stroke="#231815" stroke-width="0.28"/><line x1="71.8" y1="3.6" x2="144.3" y2="3.6" fill="none" stroke="#231815" stroke-width="0.28"/><line x1="71.5" y1="64.8" x2="144" y2="64.8" fill="none" stroke="#231815" stroke-width="0.28"/><line x1="71.5" y1="50.4" x2="144" y2="50.4" fill="none" stroke="#231815" stroke-width="0.28"/><line x1="71.5" y1="36" x2="144" y2="36" fill="none" stroke="#231815" stroke-width="0.28"/><line x1="71.5" y1="21.6" x2="144" y2="21.6" fill="none" stroke="#231815" stroke-width="0.28"/><line x1="71.5" y1="7.2" x2="144" y2="7.2" fill="none" stroke="#231815" stroke-width="0.28"/><line x1="71.5" y1="57.6" x2="144" y2="57.6" fill="none" stroke="#231815" stroke-width="0.28"/><line x1="71.5" y1="43.2" x2="144" y2="43.2" fill="none" stroke="#231815" stroke-width="0.28"/><line x1="71.5" y1="28.8" x2="144" y2="28.8" fill="none" stroke="#231815" stroke-width="0.28"/><line x1="71.5" y1="14.4" x2="144" y2="14.4" fill="none" stroke="#231815" stroke-width="0.28"/><line x1="71.5" x2="144" fill="none" stroke="#231815" stroke-width="0.28"/><line x1="-0.3" y1="68.4" x2="72.3" y2="68.4" fill="none" stroke="#231815" stroke-width="0.28"/><line x1="-0.3" y1="54" x2="72.3" y2="54" fill="none" stroke="#231815" stroke-width="0.28"/><line x1="-0.3" y1="39.6" x2="72.3" y2="39.6" fill="none" stroke="#231815" stroke-width="0.28"/><line x1="-0.3" y1="25.2" x2="72.3" y2="25.2" fill="none" stroke="#231815" stroke-width="0.28"/><line x1="-0.3" y1="10.8" x2="72.3" y2="10.8" fill="none" stroke="#231815" stroke-width="0.28"/><line x1="-0.3" y1="61.2" x2="72.3" y2="61.2" fill="none" stroke="#231815" stroke-width="0.28"/><line x1="-0.3" y1="46.8" x2="72.3" y2="46.8" fill="none" stroke="#231815" stroke-width="0.28"/><line x1="-0.3" y1="32.4" x2="72.3" y2="32.4" fill="none" stroke="#231815" stroke-width="0.28"/><line x1="-0.3" y1="18" x2="72.3" y2="18" fill="none" stroke="#231815" stroke-width="0.28"/><line x1="-0.3" y1="3.6" x2="72.3" y2="3.6" fill="none" stroke="#231815" stroke-width="0.28"/><line x1="-0.5" y1="64.8" x2="72" y2="64.8" fill="none" stroke="#231815" stroke-width="0.28"/><line x1="-0.5" y1="50.4" x2="72" y2="50.4" fill="none" stroke="#231815" stroke-width="0.28"/><line x1="-0.5" y1="36" x2="72" y2="36" fill="none" stroke="#231815" stroke-width="0.28"/><line x1="-0.5" y1="21.6" x2="72" y2="21.6" fill="none" stroke="#231815" stroke-width="0.28"/><line x1="-0.5" y1="7.2" x2="72" y2="7.2" fill="none" stroke="#231815" stroke-width="0.28"/><line x1="-0.5" y1="57.6" x2="72" y2="57.6" fill="none" stroke="#231815" stroke-width="0.28"/><line x1="-0.5" y1="43.2" x2="72" y2="43.2" fill="none" stroke="#231815" stroke-width="0.28"/><line x1="-0.5" y1="28.8" x2="72" y2="28.8" fill="none" stroke="#231815" stroke-width="0.28"/><line x1="-0.5" y1="14.4" x2="72" y2="14.4" fill="none" stroke="#231815" stroke-width="0.28"/><line x1="-0.5" x2="72" fill="none" stroke="#231815" stroke-width="0.28"/><line x1="-72.3" y1="68.4" x2="0.3" y2="68.4" fill="none" stroke="#231815" stroke-width="0.28"/><line x1="-72.3" y1="54" x2="0.3" y2="54" fill="none" stroke="#231815" stroke-width="0.28"/><line x1="-72.3" y1="39.6" x2="0.3" y2="39.6" fill="none" stroke="#231815" stroke-width="0.28"/><line x1="-72.3" y1="25.2" x2="0.3" y2="25.2" fill="none" stroke="#231815" stroke-width="0.28"/><line x1="-72.3" y1="10.8" x2="0.3" y2="10.8" fill="none" stroke="#231815" stroke-width="0.28"/><line x1="-72.3" y1="61.2" x2="0.3" y2="61.2" fill="none" stroke="#231815" stroke-width="0.28"/><line x1="-72.3" y1="46.8" x2="0.3" y2="46.8" fill="none" stroke="#231815" stroke-width="0.28"/><line x1="-72.3" y1="32.4" x2="0.3" y2="32.4" fill="none" stroke="#231815" stroke-width="0.28"/><line x1="-72.3" y1="18" x2="0.3" y2="18" fill="none" stroke="#231815" stroke-width="0.28"/><line x1="-72.3" y1="3.6" x2="0.3" y2="3.6" fill="none" stroke="#231815" stroke-width="0.28"/></pattern></defs><g id="scale-1:1"><path d="M256.4,246.1V256H114.6v-10" transform="translate(-7 -8.8)" fill="none" stroke="#000" stroke-miterlimit="10" stroke-width="0.5"/><line x1="136" y1="237.3" x2="136" y2="247.2" fill="none" stroke="#000" stroke-miterlimit="10" stroke-width="0.5"/><line x1="164.4" y1="237.3" x2="164.4" y2="247.2" fill="none" stroke="#000" stroke-miterlimit="10" stroke-width="0.5"/><line x1="192.7" y1="237.3" x2="192.7" y2="247.2" fill="none" stroke="#000" stroke-miterlimit="10" stroke-width="0.5"/><line x1="221.1" y1="237.3" x2="221.1" y2="247.2" fill="none" stroke="#000" stroke-miterlimit="10" stroke-width="0.5"/><text transform="translate(104 232.8)" font-size="14.17" font-family="AdobeMingStd-Light-B5pc-H, Adobe Ming Std">0</text><text transform="translate(246.1 232.8)" font-size="14.17" font-family="AdobeMingStd-Light-B5pc-H, Adobe Ming Std">5cm</text></g><g id="outline"><circle cx="176.9" cy="99.1" r="98.8" fill="none" stroke="#000" stroke-miterlimit="10" stroke-width="0.57"/><path d="M182.1,9.1l1.8,140.4" transform="translate(-7 -8.8)" fill="none" stroke="#000" stroke-linecap="round" stroke-linejoin="round" stroke-width="0.57"/><path d="M346,11.7l1.7.6c.8.2.9-.1,1.9,0s.8.4,1.7.5a11,11,0,0,0,2.4-.2,3.7,3.7,0,0,1,1.5-.4h1c1,.1,1.1,0,1.4.2s.5.5.7.7a5.3,5.3,0,0,1,.5,1.9c.2,2.2.2,2,.2,2.2.2,1.9.2,3,.2,3,.1,9.4.1,11.6-.1,14.2,0,.3-.1.5-.2,2.5s-.3,4-.4,5.3c-.6,8-.7,9-1.1,10.7s-.7,2.8-.9,3.5a66.7,66.7,0,0,1-3.7,8l-2.2,4.2L347,75.3c-1,1.7-2.2,3.6-4.7,7.4L338.1,89a65,65,0,0,1-6.5,6.6,48.3,48.3,0,0,1-4.2,3.7,22.9,22.9,0,0,1-4.2,2.9c-2.3,1.1-3.2,1-5.3,2.4a12.1,12.1,0,0,0-2.2,1.7,18.6,18.6,0,0,0-2.5,2.8,12.8,12.8,0,0,0-1.4,2.3,17,17,0,0,0-1.1,2.5,28.9,28.9,0,0,0-1,5.1,30.6,30.6,0,0,0-.2,4c0,1.1-.1,2.7-.4,5.9,0,.4,0,1.2-.2,4.1-.4,5.3-.4,5.3-.5,5.7l-.2,5.5a8.1,8.1,0,0,1-.1.9,1.7,1.7,0,0,1-.1.8c0,.3-.1.5-.1.7s-.2.5-.4.6-.1.1-.7.2H289.9c-1,0-1.3,0-1.6-.2l-.4-1.1a3.9,3.9,0,0,0-.3-1.2c-.2-1.1-.3-1.6-.3-1.8a19.6,19.6,0,0,1-.3-2c-.2-2-.3-3.6-.3-3.6-.2-3.1-.5-3.5-.7-7.2s-.3-5.2-.3-7.7v-3c0-2.5-.1-4.9,0-7.4a6.6,6.6,0,0,0-.1-1.1,8.1,8.1,0,0,0-.2-.9,3.7,3.7,0,0,0-2.8-2.2h-1l-1.4-.2a70.8,70.8,0,0,0-9.9-1.1,38.1,38.1,0,0,0-5.9.5l-5.7,1.1-4.1.7c-1.4.2-2.4.2-4.5.3s-2.9,0-5.2.2l-4.7.3h-1.5a5.4,5.4,0,0,1-1.4,0l-1.3-.2c-.9-.2-1.1-.3-1.2-.5a1,1,0,0,1-.4-.7c0-.2-.1-.5-.1-.8v-.3c-.1-.8,0-3.9,0-5.6s-.2-2.1-.3-2.7-.4-1.6-.9-3.9-.3-1.6-.3-2.1a6.3,6.3,0,0,1-.2-1.5,11.4,11.4,0,0,1,.3-2.8,9.1,9.1,0,0,1,.3-1.6,14.6,14.6,0,0,0,.7-1.9l.4-1.4a2.6,2.6,0,0,1,.6-1.2,3.6,3.6,0,0,1,1.5-.3h2l1.4-.2,2-.2c2.7-.2,7.9-.2,7.9-.2,8.4,0,9.1-.1,10.9.1a15.1,15.1,0,0,0,3.2.3h8.7l3.8-.2,2.7-.4,3.6-.5,2.4-.4,3.6-.6a21.5,21.5,0,0,0,3.2-.5l2.3-.6c1-.3,2.5-.8,4.3-1.2a20.2,20.2,0,0,1,4.2-.7l1.6-.2,1.4-.3,1.2-.7,1.1-.6a39.4,39.4,0,0,1,3.8-2c2.7-1.2,2.8-1,4.5-1.8a24.7,24.7,0,0,0,3.5-2.2,32.1,32.1,0,0,0,6.2-6.5c2-2.8,2.9-5.2,4.4-8.8.8-1.8,1.3-3.3,2.2-5.9s1.6-4.4,1.9-5.7.5-2.2,1-8.3.2-4.5.6-10.3c.3-4,.4-4.2.3-5.2s.2-2.5.1-3.7a2.8,2.8,0,0,1,.3-1.3,1.8,1.8,0,0,1,.6-.8,3.7,3.7,0,0,1,1.6-.9c1.1-.3,1.3,0,3.5-.1a5,5,0,0,0,1.8-.3l.8-.3A1.8,1.8,0,0,1,346,11.7Z" transform="translate(-7 -8.8)" fill="url(#_10_lpi_10_)"/><path d="M356.5,56.5a66.7,66.7,0,0,1-3.7,8l-2.2,4.2L347,75.3c-1,1.7-2.2,3.6-4.7,7.4L338.1,89a65,65,0,0,1-6.5,6.6,48.3,48.3,0,0,1-4.2,3.7,22.9,22.9,0,0,1-4.2,2.9c-2.3,1.1-3.2,1-5.3,2.4a12.1,12.1,0,0,0-2.2,1.7,18.6,18.6,0,0,0-2.5,2.8,12.8,12.8,0,0,0-1.4,2.3,17,17,0,0,0-1.1,2.5,28.9,28.9,0,0,0-1,5.1,30.6,30.6,0,0,0-.2,4c0,1.1-.1,2.7-.4,5.9,0,.4,0,1.2-.2,4.1-.4,5.3-.4,5.3-.5,5.7l-.2,5.5a8.1,8.1,0,0,1-.1.9,1.7,1.7,0,0,1-.1.8c0,.3-.1.5-.1.7s-.2.5-.4.6-.1.1-.7.2H289.9c-1,0-1.3,0-1.6-.2l-.4-1.1a3.9,3.9,0,0,0-.3-1.2c-.2-1.1-.3-1.6-.3-1.8a19.6,19.6,0,0,1-.3-2c-.2-2-.3-3.6-.3-3.6-.2-3.1-.5-3.5-.7-7.2s-.3-5.2-.3-7.7v-3c0-2.5-.1-4.9,0-7.4a6.6,6.6,0,0,0-.1-1.1,8.1,8.1,0,0,0-.2-.9,3.7,3.7,0,0,0-2.8-2.2h-1l-1.4-.2a70.8,70.8,0,0,0-9.9-1.1,38.1,38.1,0,0,0-5.9.5l-5.7,1.1-4.1.7c-1.4.2-2.4.2-4.5.3s-2.9,0-5.2.2l-4.7.3h-1.5a5.4,5.4,0,0,1-1.4,0l-1.3-.2c-.9-.2-1.1-.3-1.2-.5a1,1,0,0,1-.4-.7c0-.2-.1-.5-.1-.8v-.3c-.1-.8,0-3.9,0-5.6s-.2-2.1-.3-2.7-.4-1.6-.9-3.9-.3-1.6-.3-2.1a6.3,6.3,0,0,1-.2-1.5,11.4,11.4,0,0,1,.3-2.8,9.1,9.1,0,0,1,.3-1.6,14.6,14.6,0,0,0,.7-1.9l.4-1.4a2.6,2.6,0,0,1,.6-1.2,3.6,3.6,0,0,1,1.5-.3h2l1.4-.2,2-.2c2.7-.2,7.9-.2,7.9-.2,8.4,0,9.1-.1,10.9.1a15.1,15.1,0,0,0,3.2.3h8.7l3.8-.2,2.7-.4,3.6-.5,2.4-.4,3.6-.6a21.5,21.5,0,0,0,3.2-.5l2.3-.6c1-.3,2.5-.8,4.3-1.2a20.2,20.2,0,0,1,4.2-.7l1.6-.2,1.4-.3,1.2-.7,1.1-.6a39.4,39.4,0,0,1,3.8-2c2.7-1.2,2.8-1,4.5-1.8a24.7,24.7,0,0,0,3.5-2.2,32.1,32.1,0,0,0,6.2-6.5c2-2.8,2.9-5.2,4.4-8.8.8-1.8,1.3-3.3,2.2-5.9s1.6-4.4,1.9-5.7.5-2.2,1-8.3.2-4.5.6-10.3c.3-4,.4-4.2.3-5.2s.2-2.5.1-3.7a2.8,2.8,0,0,1,.3-1.3,1.8,1.8,0,0,1,.6-.8,3.7,3.7,0,0,1,1.6-.9c1.1-.3,1.3,0,3.5-.1a5,5,0,0,0,1.8-.3l.8-.3a1.8,1.8,0,0,1,1,.4l1.7.6c.8.2.9-.1,1.9,0s.8.4,1.7.5a11,11,0,0,0,2.4-.2,3.7,3.7,0,0,1,1.5-.4h1c1,.1,1.1,0,1.4.2s.5.5.7.7a5.3,5.3,0,0,1,.5,1.9c.2,2.2.2,2,.2,2.2.2,1.9.2,3,.2,3,.1,9.4.1,11.6-.1,14.2,0,.3-.1.5-.2,2.5s-.3,4-.4,5.3c-.6,8-.7,9-1.1,10.7S356.7,55.8,356.5,56.5Z" transform="translate(-7 -8.8)" fill="none" stroke="#000" stroke-linecap="round" stroke-linejoin="round" stroke-width="0.57"/><path d="M10.5,18.4c-.2.5-.4,1.3-.7,2.2A28.7,28.7,0,0,0,9,24,83.2,83.2,0,0,0,7.3,38.4c-.1,3.7,0,6.5.1,8.9.2,4.2.5,7.1.7,8.5a51.2,51.2,0,0,0,.8,5.5A65.4,65.4,0,0,0,11,67.7c1,2.8,1.4,3.7,1.5,4a25.2,25.2,0,0,0,2.5,4c1.3,2,1.4,2.1,3,4.3s2,3.2,3.4,5.1a38.2,38.2,0,0,0,2.9,3.6,14.4,14.4,0,0,0,2.5,2.4A9.6,9.6,0,0,0,29,92.7l2.9,2.2L37.1,99l4.8,4.2,4.5,3.4,2.5,2a19.6,19.6,0,0,1,3.2,2.6,9.7,9.7,0,0,1,1.4,2,26.5,26.5,0,0,1,2.3,5.1,76.8,76.8,0,0,1,2.8,11c.3,1.4.4,2.4.6,3.3.6,4.1.8,7.2,1,9.5s.2,2.8.4,6c.1,1.3.1,2.4.2,3.2l46.2-.4c21.8-.3,37.9-.7,43.4-.8,22.3-.5,61.9-1.3,138.1-2.5" transform="translate(-7 -8.8)" fill="none" stroke="#000" stroke-linecap="round" stroke-linejoin="round" stroke-width="0.57"/><path d="M49.7,109.2c33.1-.3,66.2-.4,99.3-.5h34.4" transform="translate(-7 -8.8)" fill="none" stroke="#000" stroke-linecap="round" stroke-linejoin="round" stroke-width="0.57"/><path d="M183.1,83h2.8" transform="translate(-7 -8.8)" fill="none" stroke="#000" stroke-linecap="round" stroke-linejoin="round" stroke-width="0.57"/><path d="M188.8,82.9h22.1c7,0,10.3-.2,20.4-.3" transform="translate(-7 -8.8)" fill="none" stroke="#000" stroke-linecap="round" stroke-linejoin="round" stroke-width="0.57" stroke-dasharray="5.86 2.93"/><path d="M232.8,82.7h2.8" transform="translate(-7 -8.8)" fill="none" stroke="#000" stroke-linecap="round" stroke-linejoin="round" stroke-width="0.57"/><path d="M183.4,113.5l2.9-.3" transform="translate(-7 -8.8)" fill="none" stroke="#000" stroke-linecap="round" stroke-linejoin="round" stroke-width="0.57"/><path d="M189.1,113h.1l8.1-.5c6.8-.4,6.3-.2,9.4-.4l9.7-1c3.9-.5,6.1-.7,8.9-.9l5.2-.4" transform="translate(-7 -8.8)" fill="none" stroke="#000" stroke-linecap="round" stroke-linejoin="round" stroke-width="0.57" stroke-dasharray="5.73 2.86"/><path d="M231.9,109.6h2.9" transform="translate(-7 -8.8)" fill="none" stroke="#000" stroke-linecap="round" stroke-linejoin="round" stroke-width="0.57"/></g></svg>