<svg xmlns="http://www.w3.org/2000/svg" xmlns:xlink="http://www.w3.org/1999/xlink" viewBox="0 0 1656.8 1006.3"><defs><pattern id="_10_lpi_10_" data-name="10 lpi 10%" width="72" height="72" patternTransform="translate(-12.1 57.4) rotate(-45)" patternUnits="userSpaceOnUse" viewBox="0 0 72 72"><rect width="72" height="72" fill="none"/><line x1="71.6" y1="66.6" x2="144.1" y2="66.6" fill="none" stroke="#231815" stroke-width="0.28"/><line x1="71.6" y1="52.2" x2="144.1" y2="52.2" fill="none" stroke="#231815" stroke-width="0.28"/><line x1="71.6" y1="37.8" x2="144.1" y2="37.8" fill="none" stroke="#231815" stroke-width="0.28"/><line x1="71.6" y1="23.4" x2="144.1" y2="23.4" fill="none" stroke="#231815" stroke-width="0.28"/><line x1="71.6" y1="9" x2="144.1" y2="9" fill="none" stroke="#231815" stroke-width="0.28"/><line x1="71.6" y1="59.4" x2="144.1" y2="59.4" fill="none" stroke="#231815" stroke-width="0.28"/><line x1="71.6" y1="45" x2="144.1" y2="45" fill="none" stroke="#231815" stroke-width="0.28"/><line x1="71.6" y1="30.6" x2="144.1" y2="30.6" fill="none" stroke="#231815" stroke-width="0.28"/><line x1="71.6" y1="16.2" x2="144.1" y2="16.2" fill="none" stroke="#231815" stroke-width="0.28"/><line x1="71.6" y1="1.8" x2="144.1" y2="1.8" fill="none" stroke="#231815" stroke-width="0.28"/><line x1="71.9" y1="70.2" x2="144.4" y2="70.2" fill="none" stroke="#231815" stroke-width="0.28"/><line x1="71.9" y1="55.8" x2="144.4" y2="55.8" fill="none" stroke="#231815" stroke-width="0.28"/><line x1="71.9" y1="41.4" x2="144.4" y2="41.4" fill="none" stroke="#231815" stroke-width="0.28"/><line x1="71.9" y1="27" x2="144.4" y2="27" fill="none" stroke="#231815" stroke-width="0.28"/><line x1="71.9" y1="12.6" x2="144.4" y2="12.6" fill="none" stroke="#231815" stroke-width="0.28"/><line x1="71.9" y1="63" x2="144.4" y2="63" fill="none" stroke="#231815" stroke-width="0.28"/><line x1="71.9" y1="48.6" x2="144.4" y2="48.6" fill="none" stroke="#231815" stroke-width="0.28"/><line x1="71.9" y1="34.2" x2="144.4" y2="34.2" fill="none" stroke="#231815" stroke-width="0.28"/><line x1="71.9" y1="19.8" x2="144.4" y2="19.8" fill="none" stroke="#231815" stroke-width="0.28"/><line x1="71.9" y1="5.4" x2="144.4" y2="5.4" fill="none" stroke="#231815" stroke-width="0.28"/><line x1="-0.4" y1="66.6" x2="72.1" y2="66.6" fill="none" stroke="#231815" stroke-width="0.28"/><line x1="-0.4" y1="52.2" x2="72.1" y2="52.2" fill="none" stroke="#231815" stroke-width="0.28"/><line x1="-0.4" y1="37.8" x2="72.1" y2="37.8" fill="none" stroke="#231815" stroke-width="0.28"/><line x1="-0.4" y1="23.4" x2="72.1" y2="23.4" fill="none" stroke="#231815" stroke-width="0.28"/><line x1="-0.4" y1="9" x2="72.1" y2="9" fill="none" stroke="#231815" stroke-width="0.28"/><line x1="-0.4" y1="59.4" x2="72.1" y2="59.4" fill="none" stroke="#231815" stroke-width="0.28"/><line x1="-0.4" y1="45" x2="72.1" y2="45" fill="none" stroke="#231815" stroke-width="0.28"/><line x1="-0.4" y1="30.6" x2="72.1" y2="30.6" fill="none" stroke="#231815" stroke-width="0.28"/><line x1="-0.4" y1="16.2" x2="72.1" y2="16.2" fill="none" stroke="#231815" stroke-width="0.28"/><line x1="-0.4" y1="1.8" x2="72.1" y2="1.8" fill="none" stroke="#231815" stroke-width="0.28"/><line x1="-0.1" y1="70.2" x2="72.4" y2="70.2" fill="none" stroke="#231815" stroke-width="0.28"/><line x1="-0.1" y1="55.8" x2="72.4" y2="55.8" fill="none" stroke="#231815" stroke-width="0.28"/><line x1="-0.1" y1="41.4" x2="72.4" y2="41.4" fill="none" stroke="#231815" stroke-width="0.28"/><line x1="-0.1" y1="27" x2="72.4" y2="27" fill="none" stroke="#231815" stroke-width="0.28"/><line x1="-0.1" y1="12.6" x2="72.4" y2="12.6" fill="none" stroke="#231815" stroke-width="0.28"/><line x1="-0.1" y1="63" x2="72.4" y2="63" fill="none" stroke="#231815" stroke-width="0.28"/><line x1="-0.1" y1="48.6" x2="72.4" y2="48.6" fill="none" stroke="#231815" stroke-width="0.28"/><line x1="-0.1" y1="34.2" x2="72.4" y2="34.2" fill="none" stroke="#231815" stroke-width="0.28"/><line x1="-0.1" y1="19.8" x2="72.4" y2="19.8" fill="none" stroke="#231815" stroke-width="0.28"/><line x1="-0.1" y1="5.4" x2="72.4" y2="5.4" fill="none" stroke="#231815" stroke-width="0.28"/><line x1="-72.4" y1="66.6" x2="0.1" y2="66.6" fill="none" stroke="#231815" stroke-width="0.28"/><line x1="-72.4" y1="52.2" x2="0.1" y2="52.2" fill="none" stroke="#231815" stroke-width="0.28"/><line x1="-72.4" y1="37.8" x2="0.1" y2="37.8" fill="none" stroke="#231815" stroke-width="0.28"/><line x1="-72.4" y1="23.4" x2="0.1" y2="23.4" fill="none" stroke="#231815" stroke-width="0.28"/><line x1="-72.4" y1="9" x2="0.1" y2="9" fill="none" stroke="#231815" stroke-width="0.28"/><line x1="-72.4" y1="59.4" x2="0.1" y2="59.4" fill="none" stroke="#231815" stroke-width="0.28"/><line x1="-72.4" y1="45" x2="0.1" y2="45" fill="none" stroke="#231815" stroke-width="0.28"/><line x1="-72.4" y1="30.6" x2="0.1" y2="30.6" fill="none" stroke="#231815" stroke-width="0.28"/><line x1="-72.4" y1="16.2" x2="0.1" y2="16.2" fill="none" stroke="#231815" stroke-width="0.28"/><line x1="-72.4" y1="1.8" x2="0.1" y2="1.8" fill="none" stroke="#231815" stroke-width="0.28"/><line x1="-72.1" y1="70.2" x2="0.4" y2="70.2" fill="none" stroke="#231815" stroke-width="0.28"/><line x1="-72.1" y1="55.8" x2="0.4" y2="55.8" fill="none" stroke="#231815" stroke-width="0.28"/><line x1="-72.1" y1="41.4" x2="0.4" y2="41.4" fill="none" stroke="#231815" stroke-width="0.28"/><line x1="-72.1" y1="27" x2="0.4" y2="27" fill="none" stroke="#231815" stroke-width="0.28"/><line x1="-72.1" y1="12.6" x2="0.4" y2="12.6" fill="none" stroke="#231815" stroke-width="0.28"/><line x1="-72.1" y1="63" x2="0.4" y2="63" fill="none" stroke="#231815" stroke-width="0.28"/><line x1="-72.1" y1="48.6" x2="0.4" y2="48.6" fill="none" stroke="#231815" stroke-width="0.28"/><line x1="-72.1" y1="34.2" x2="0.4" y2="34.2" fill="none" stroke="#231815" stroke-width="0.28"/><line x1="-72.1" y1="19.8" x2="0.4" y2="19.8" fill="none" stroke="#231815" stroke-width="0.28"/><line x1="-72.1" y1="5.4" x2="0.4" y2="5.4" fill="none" stroke="#231815" stroke-width="0.28"/></pattern><pattern id="_10_lpi_10_2-2" data-name="10 lpi 10% 2" width="72" height="72" patternTransform="translate(-20 49.2) rotate(-45)" patternUnits="userSpaceOnUse" viewBox="0 0 72 72"><rect width="72" height="72" fill="none"/><line x1="71.8" y1="68.4" x2="144.3" y2="68.4" fill="none" stroke="#231815" stroke-width="0.28"/><line x1="71.8" y1="54" x2="144.3" y2="54" fill="none" stroke="#231815" stroke-width="0.28"/><line x1="71.8" y1="39.6" x2="144.3" y2="39.6" fill="none" stroke="#231815" stroke-width="0.28"/><line x1="71.8" y1="25.2" x2="144.3" y2="25.2" fill="none" stroke="#231815" stroke-width="0.28"/><line x1="71.8" y1="10.8" x2="144.3" y2="10.8" fill="none" stroke="#231815" stroke-width="0.28"/><line x1="71.8" y1="61.2" x2="144.3" y2="61.2" fill="none" stroke="#231815" stroke-width="0.28"/><line x1="71.8" y1="46.8" x2="144.3" y2="46.8" fill="none" stroke="#231815" stroke-width="0.28"/><line x1="71.8" y1="32.4" x2="144.3" y2="32.4" fill="none" stroke="#231815" stroke-width="0.28"/><line x1="71.8" y1="18" x2="144.3" y2="18" fill="none" stroke="#231815" stroke-width="0.28"/><line x1="71.8" y1="3.6" x2="144.3" y2="3.6" fill="none" stroke="#231815" stroke-width="0.28"/><line x1="71.8" y1="72" x2="144.3" y2="72" fill="none" stroke="#231815" stroke-width="0.28"/><line x1="71.8" y1="57.6" x2="144.3" y2="57.6" fill="none" stroke="#231815" stroke-width="0.28"/><line x1="71.8" y1="43.2" x2="144.3" y2="43.2" fill="none" stroke="#231815" stroke-width="0.28"/><line x1="71.8" y1="28.8" x2="144.3" y2="28.8" fill="none" stroke="#231815" stroke-width="0.28"/><line x1="71.8" y1="14.4" x2="144.3" y2="14.4" fill="none" stroke="#231815" stroke-width="0.28"/><line x1="71.8" y1="64.8" x2="144.3" y2="64.8" fill="none" stroke="#231815" stroke-width="0.28"/><line x1="71.8" y1="50.4" x2="144.3" y2="50.4" fill="none" stroke="#231815" stroke-width="0.28"/><line x1="71.8" y1="36" x2="144.3" y2="36" fill="none" stroke="#231815" stroke-width="0.28"/><line x1="71.8" y1="21.6" x2="144.3" y2="21.6" fill="none" stroke="#231815" stroke-width="0.28"/><line x1="71.8" y1="7.2" x2="144.3" y2="7.2" fill="none" stroke="#231815" stroke-width="0.28"/><line x1="-0.3" y1="68.4" x2="72.3" y2="68.4" fill="none" stroke="#231815" stroke-width="0.28"/><line x1="-0.3" y1="54" x2="72.3" y2="54" fill="none" stroke="#231815" stroke-width="0.28"/><line x1="-0.3" y1="39.6" x2="72.3" y2="39.6" fill="none" stroke="#231815" stroke-width="0.28"/><line x1="-0.3" y1="25.2" x2="72.3" y2="25.2" fill="none" stroke="#231815" stroke-width="0.28"/><line x1="-0.3" y1="10.8" x2="72.3" y2="10.8" fill="none" stroke="#231815" stroke-width="0.28"/><line x1="-0.3" y1="61.2" x2="72.3" y2="61.2" fill="none" stroke="#231815" stroke-width="0.28"/><line x1="-0.3" y1="46.8" x2="72.3" y2="46.8" fill="none" stroke="#231815" stroke-width="0.28"/><line x1="-0.3" y1="32.4" x2="72.3" y2="32.4" fill="none" stroke="#231815" stroke-width="0.28"/><line x1="-0.3" y1="18" x2="72.3" y2="18" fill="none" stroke="#231815" stroke-width="0.28"/><line x1="-0.3" y1="3.6" x2="72.3" y2="3.6" fill="none" stroke="#231815" stroke-width="0.28"/><line x1="-0.3" y1="72" x2="72.3" y2="72" fill="none" stroke="#231815" stroke-width="0.28"/><line x1="-0.3" y1="57.6" x2="72.3" y2="57.6" fill="none" stroke="#231815" stroke-width="0.28"/><line x1="-0.3" y1="43.2" x2="72.3" y2="43.2" fill="none" stroke="#231815" stroke-width="0.28"/><line x1="-0.3" y1="28.8" x2="72.3" y2="28.8" fill="none" stroke="#231815" stroke-width="0.28"/><line x1="-0.3" y1="14.4" x2="72.3" y2="14.4" fill="none" stroke="#231815" stroke-width="0.28"/><line x1="-0.3" y1="64.8" x2="72.3" y2="64.8" fill="none" stroke="#231815" stroke-width="0.28"/><line x1="-0.3" y1="50.4" x2="72.3" y2="50.4" fill="none" stroke="#231815" stroke-width="0.28"/><line x1="-0.3" y1="36" x2="72.3" y2="36" fill="none" stroke="#231815" stroke-width="0.28"/><line x1="-0.3" y1="21.6" x2="72.3" y2="21.6" fill="none" stroke="#231815" stroke-width="0.28"/><line x1="-0.3" y1="7.2" x2="72.3" y2="7.2" fill="none" stroke="#231815" stroke-width="0.28"/><line x1="-72.3" y1="68.4" x2="0.3" y2="68.4" fill="none" stroke="#231815" stroke-width="0.28"/><line x1="-72.3" y1="54" x2="0.3" y2="54" fill="none" stroke="#231815" stroke-width="0.28"/><line x1="-72.3" y1="39.6" x2="0.3" y2="39.6" fill="none" stroke="#231815" stroke-width="0.28"/><line x1="-72.3" y1="25.2" x2="0.3" y2="25.2" fill="none" stroke="#231815" stroke-width="0.28"/><line x1="-72.3" y1="10.8" x2="0.3" y2="10.8" fill="none" stroke="#231815" stroke-width="0.28"/><line x1="-72.3" y1="61.2" x2="0.3" y2="61.2" fill="none" stroke="#231815" stroke-width="0.28"/><line x1="-72.3" y1="46.8" x2="0.3" y2="46.8" fill="none" stroke="#231815" stroke-width="0.28"/><line x1="-72.3" y1="32.4" x2="0.3" y2="32.4" fill="none" stroke="#231815" stroke-width="0.28"/><line x1="-72.3" y1="18" x2="0.3" y2="18" fill="none" stroke="#231815" stroke-width="0.28"/><line x1="-72.3" y1="3.6" x2="0.3" y2="3.6" fill="none" stroke="#231815" stroke-width="0.28"/><line x1="-72.3" y1="72" x2="0.3" y2="72" fill="none" stroke="#231815" stroke-width="0.28"/><line x1="-72.3" y1="57.6" x2="0.3" y2="57.6" fill="none" stroke="#231815" stroke-width="0.28"/><line x1="-72.3" y1="43.2" x2="0.3" y2="43.2" fill="none" stroke="#231815" stroke-width="0.28"/><line x1="-72.3" y1="28.8" x2="0.3" y2="28.8" fill="none" stroke="#231815" stroke-width="0.28"/><line x1="-72.3" y1="14.4" x2="0.3" y2="14.4" fill="none" stroke="#231815" stroke-width="0.28"/><line x1="-72.3" y1="64.8" x2="0.3" y2="64.8" fill="none" stroke="#231815" stroke-width="0.28"/><line x1="-72.3" y1="50.4" x2="0.3" y2="50.4" fill="none" stroke="#231815" stroke-width="0.28"/><line x1="-72.3" y1="36" x2="0.3" y2="36" fill="none" stroke="#231815" stroke-width="0.28"/><line x1="-72.3" y1="21.6" x2="0.3" y2="21.6" fill="none" stroke="#231815" stroke-width="0.28"/><line x1="-72.3" y1="7.2" x2="0.3" y2="7.2" fill="none" stroke="#231815" stroke-width="0.28"/><line x1="71.8" x2="144.3" fill="none" stroke="#231815" stroke-width="0.28"/><line x1="-0.3" x2="72.3" fill="none" stroke="#231815" stroke-width="0.28"/><line x1="-72.3" x2="0.3" fill="none" stroke="#231815" stroke-width="0.28"/></pattern></defs><g id="scale-1:100"><path d="M362.6,928.4v9.9H220.9v-9.9" transform="translate(-96.8 -24.5)" fill="none" stroke="#000" stroke-miterlimit="10" stroke-width="0.5"/><line x1="152.4" y1="903.8" x2="152.4" y2="913.8" fill="none" stroke="#000" stroke-miterlimit="10" stroke-width="0.5"/><line x1="180.8" y1="903.8" x2="180.8" y2="913.8" fill="none" stroke="#000" stroke-miterlimit="10" stroke-width="0.5"/><line x1="209.1" y1="903.8" x2="209.1" y2="913.8" fill="none" stroke="#000" stroke-miterlimit="10" stroke-width="0.5"/><line x1="237.4" y1="903.8" x2="237.4" y2="913.8" fill="none" stroke="#000" stroke-miterlimit="10" stroke-width="0.5"/><text transform="translate(120.4 899.4)" font-size="14.17" font-family="AdobeMingStd-Light-B5pc-H, Adobe Ming Std">0</text><text transform="translate(262.4 899.3)" font-size="14.17" font-family="AdobeMingStd-Light-B5pc-H, Adobe Ming Std">5m</text></g><g id="outline"><path d="M129.9,74.3l1584-19.7" transform="translate(-96.8 -24.5)" fill="none" stroke="#000" stroke-linecap="round" stroke-linejoin="round" stroke-width="0.71"/><path d="M458.8,650.3l1150-16.4" transform="translate(-96.8 -24.5)" fill="none" stroke="#000" stroke-linecap="round" stroke-linejoin="round" stroke-width="0.71"/><line x1="87.5" y1="52.3" x2="87.5" y2="55.1" fill="none" stroke="#000" stroke-linecap="round" stroke-linejoin="round" stroke-width="0.57"/><line x1="87.5" y1="61" x2="87.5" y2="81.4" fill="none" stroke-dasharray="5.85 5.85" stroke-linecap="round" stroke-linejoin="round" stroke-width="0.57" stroke="#000"/><line x1="87.5" y1="84.3" x2="87.5" y2="87.2" fill="none" stroke="#000" stroke-linecap="round" stroke-linejoin="round" stroke-width="0.57"/><path d="M1646.7,58.9v2.9" transform="translate(-96.8 -24.5)" fill="none" stroke="#000" stroke-linecap="round" stroke-linejoin="round" stroke-width="0.57"/><path d="M1646.8,67l.5,29" transform="translate(-96.8 -24.5)" fill="none" stroke="#000" stroke-linecap="round" stroke-linejoin="round" stroke-width="0.57" stroke-dasharray="5.27 5.27"/><path d="M1647.4,98.7v2.8" transform="translate(-96.8 -24.5)" fill="none" stroke="#000" stroke-linecap="round" stroke-linejoin="round" stroke-width="0.57"/><path d="M1337.6,266.9h.9l2.1-.2,2.1-.2,1-.2,1.1-.2c.2-.2.2-.3.5-.9a10.5,10.5,0,0,0,.7-1.6c.3-.9.4-1.3.7-1.4h1.3l2.5-.3,3-.5,1.2-.3a1.3,1.3,0,0,0,.9-.2c.2-.1.3-.3.5-.5a6.4,6.4,0,0,0,.6-1.2,6.6,6.6,0,0,0,.1-1.1c0-.2.1-.4.1-.6s.1-.2.1-.3h.6l3.2-.3,2.3-.2,1.5-.4h.7a4.9,4.9,0,0,1,1.4-.3l1.4-.2c.3,0,.5,0,.6-.2s.2-.1.3-.7l.2-.7a1.5,1.5,0,0,1,.3-.7,1.2,1.2,0,0,1,.7-.2h1l1.9-.3,1-.3a14.3,14.3,0,0,1,3.2-.7l1.6-.3h.7l.7-.2a8.5,8.5,0,0,0,.3-.9,1.1,1.1,0,0,1,.2-.7c.4-1.5.2-1.8.6-2.1s.4-.3,1.1-.4l1.4-.3,3.2-.5,2.1-.2c.8-.1,1-.2,1.1-.3s.3-.7.5-2.1a8.7,8.7,0,0,0,.2-1,15.9,15.9,0,0,1,.7-2,1.5,1.5,0,0,1,.5-.8h2.6l1.9-.3,2.1-.3,1.6-.2.9-.2c.2-.1.4-.3.7-1.5s.2-1,.3-1.5.4-1.2.7-1.3.4-.2,1.5-.3h5l2.4-.2,2.2-.2h1c.5-.4.4-1,.6-2.7s.4-1.8.6-1.9h2.9a5.9,5.9,0,0,0,1.8-.4,15.7,15.7,0,0,1,2.5-.4h1.7c.1-.1.1-.2.3-.7a3.1,3.1,0,0,0,.2-.7l.5-1.4c.3-.8.2-.6.3-.7s0-.4.1-.5h1.2l2.9-.3,4.3-.5,2.1-.4h.6l1.1-.2c.2-.1.2-.2.7-1.8a6.5,6.5,0,0,0,.3-1,1.1,1.1,0,0,1,.1-.6,2.8,2.8,0,0,1,1.1-.3h4l2.8-.3,2-.2,1.3-.2c.9-.1,1-.1,1.2-.3a2.1,2.1,0,0,0,.9-1.1l.6-1,.6-1.1c.1-.1.3-.2,2-.4h1.1l1.8-.2,3.1-.3,1.4-.2a.8.8,0,0,0,.7-.2l.3-.6a6.5,6.5,0,0,1,.3-1,2.4,2.4,0,0,1,.3-.7l.6-1a1.9,1.9,0,0,1,1-.4l1.4-.2h1.5l2-.2a8.5,8.5,0,0,1,2.4-.2h1.3l.6-.2a1.1,1.1,0,0,0,.3-.5,5.4,5.4,0,0,0,.5-1.1l.3-.5.3-.5h1.3l1.6-.4,5.7-.9h.9l.8-.2c.2-.1.2-.3.3-.9s.1-.8.2-1.1a10.1,10.1,0,0,1,.4-1.8,10.6,10.6,0,0,1,.5-1.2c.2-.3.5-.3,2.2-.5l1.7-.3,1.8-.3h2.1c.4,0,.7,0,.9-.2a1.3,1.3,0,0,0,.5-.9,5.9,5.9,0,0,0,.2-2.1c0-1,0-1.4.2-1.6l.6-.2,1.4-.3,1.9-.3,3.2-.5.7-.2c.2,0,.3,0,.4-.2a.4.4,0,0,0,.1-.3c0-.3.1-.6.1-.9a4.5,4.5,0,0,0,.2-.8c.1-.7.1-.9.2-1.5s.2-1.5.4-1.7.5-.3,1.5-.6l2.2-.5,2.6-.5,2.3-.2.9-.2.6-.2c.1,0,.1-.1.2-.9s-.1-.4,0-.7v-.8a4.4,4.4,0,0,1,.2-1.2c.2-.3.8-.4,1.9-.4l1.7-.2,3.7-.2h2.3c.2-.1.2-.3.5-1.4s.2-.8.3-1a10,10,0,0,0,.4-1.1c.5-1.3.5-1.4.8-1.6h3.9l3.9-.2h1.3c.9,0,1.1-.1,1.2-.2s.2-.2.4-1.3.1-.6.2-.9.1-.8.3-.9.3-.1.7-.1h4.6l1.6-.2h1.2v-.8a2.1,2.1,0,0,1,.1-.6v-.5c.1-.9.1-1,.2-1l.7-.2h2.3l1.8-.4,2.1-.5,1.3-.2h2.7c.1-.1.1-.1,0-.5v-1.5a1.3,1.3,0,0,0,.1-.5h4.4l1.4-.2,2.1-.3a31.5,31.5,0,0,0,5.1-1.6c2.3-.9,4-1.8,6.1-2.8,8.4-4.2,10.7-5.5,12.1-6.4l3.1-1.9,12.9-8.2,7.7-5c2.9-2.1,5.3-4,6.8-5.3s3.4-2.7,5.9-4.9c5.1-4.5,9.3-8.9,13.5-13l3.7-3.3,1.3-.9,1.9-1.9c.2,18.4.3,36.9.4,55.3L1236.5,356.7c-6.1,31.2-12.1,62.5-18.2,93.7l-124,5.5c-6.3,6.4-12.6,12.9-18.8,19.4l-50.9,2.7-27.5-23.6-134.3,2L184.8,159c0-14.6-.1-29.2-.2-43.9l2.7.7,1.4.5a6.4,6.4,0,0,0,1.6.6h1.5l1.1.2,1.8.7,6,2.5,4.6,1.8a25.9,25.9,0,0,1,4,1l2.7,1.2,7.4,3.1,4.9,2c3.2,1.4,3.8,1.8,6.6,2.9l3.7,1.3,4,1.6,4.9,2.4,3.2,1.5,3.3,1.5,8.8,3.8,7.4,3.2,6.2,2.7,9.3,3.6,7.6,3.3,3.9,1.7,3.5,1.3,2,.6,2.9,1.2,2.4,1.2,3.2,1.2,3.2,1.1c2.3.8,3,1.2,6.8,2.8l4.8,2.1,9.9,4c5.1,2,7.6,3.1,8.7,3.6,3.6,1.7,4.2,2.2,8.1,4l4.6,2.1c1.8.8,1.9,1,4,2l5.1,2.5,4,1.8c3.1,1.3,3.9,1.7,7.2,3.3l4.9,2.1c10.9,4.9,16.4,7.4,21.2,9.9l6.8,3.5c3.1,1.6,4,1.9,9.8,4.6l9.1,4.3c3.3,1.7,4.9,2.8,8.5,4.3l3.9,1.6c3.7,1.5,6.4,2.9,7.3,3.3l4.5,2.4c.5.3,3.4,1.8,6.7,3.3l8.8,3.5c6.1,2.5,5.7,2.5,9.9,4.1l5,2.1,5.5,2.8,3.7,1.7c2.7,1.1,4.6,1.7,6.4,2.3l9.9,3.3,9.2,3.2,6.6,2.5c4,1.8,5.1,2.7,11.1,5.7l4.9,2.4c10.2,4.8,21.3,9.5,21.3,9.5l43.1,18.6c7.8,3.4,13.8,5.9,20.1,8,1.5.5,4.4,1.4,8.4,2.9s5.5,2.1,8.2,3.3a57.5,57.5,0,0,0,6.4,2.5l2.1.7,3.4,1.2,4.4,1.8,5.3,2c2.9,1,4.6,1.7,9.1,3.5l13.7,5.5c17.2,6.9,18.3,7.7,24.6,9.7l8.3,2.8c3.1,1,6.1,2.2,12.1,4.4l5.3,1.9,5.1,1.8,7.5,2.8c7.3,2.6,7.2,2.2,11.7,4,2.4,1,3.5,1.5,6.4,2.5l5.4,1.9c3.3,1.1,5.7,2.2,7.9,3.1,4.1,1.7,7.1,3.2,8.1,3.7l5.2,2.8c2.4,1.5,2.2,1.6,5.6,3.9s4.3,2.5,6.6,4.2,1.5,1.3,2.7,2.1,1.7.8,3.2,1.7l2,1.4s1.8,1.3,3.7,2.4l4.3,2,9,4.4,4.3,2.2,3,1.9,3.1,1.7,1.5.8a14.9,14.9,0,0,0,2.3.9,19.2,19.2,0,0,1,3.3,1.8l4.6,2.4,5.4,3.1,2,1.1,2.9,1.5a19.3,19.3,0,0,1,2.4,1.7l2.3,1.6c2,1.2,2.4,1.1,4,2.3l1.8,1.3a7.2,7.2,0,0,0,2.2,1.5,3,3,0,0,0,1.4.4l5.8.2c6.6.1,10-.4,17.8-.5h7c7.3,0,40.2-.9,122.5-3.4.1,6,.3,12.1.5,18.3.1,4.1.3,8.2.4,12.2h8.3c11.4.1,22.5-.2,33.3-.7l-.9-31.2c20.9-.8,37.9-1.3,49.9-1.6s23.9-.5,41.9-1.1l25.3-.9c.1-.9.2-2.3.3-4.1.3-6.7.5-11.4.5-13.2.3-7.8,1-9.7,2.5-26.4.4-5,.8-9,1-11.5,0-.6,0-2.9.2-5.1s.1-1.5.1-2.2a10.5,10.5,0,0,1,.2-1.3,1.1,1.1,0,0,1,.3-.8l.6-.3,1.2-.2,1-.2h.5l.8-.2,1.7-.2,2.3-.3,1.5-.3h.8c.6-.1.7-.1.8-.3s.1-.1.2-.7a2.4,2.4,0,0,1,.1-.7c0-.2,0-.8.1-2.1s.2-.9.3-2,.4-4.2.4-5.2a3.7,3.7,0,0,0-.1-.8c0-.8,0-.9.1-1a1.6,1.6,0,0,1,.9-.8c.3-.2.5-.1,1.4-.2l1.2-.2,1.6-.2,4.1-.6,3.8-.4,1.4-.3,1.2-.2h.7v-.4c0-.2.1-.3.1-.4a5.4,5.4,0,0,1,.2-1.5,3.9,3.9,0,0,1,.1-.9,3.1,3.1,0,0,1,.1-1.2,5.5,5.5,0,0,1,.2-1.2v-2.3c0-.2.1-.7.2-1.3a2.4,2.4,0,0,1,.1-.7c.1-.2.3-.4,1.9-.6h1.1l1.6-.2h1.8l1.6-.2a2.4,2.4,0,0,0,1-.3,1.6,1.6,0,0,0,.4-.7,2,2,0,0,0,.2-1c.2-1.5.4-2,.4-2.2s.2-.7.4-.9a2,2,0,0,1,1.3-.5,5.4,5.4,0,0,1,1.5-.2l2.8-.3h2.4l3.7-.3h2.6l.9-.2a8.9,8.9,0,0,0,.1-1.3v-.7c.1-.8.2-.9.2-.9s.4-.2,1-.3h.6l2.8-.3,4.6-.5h1.8c.2-.2.1-.4.2-.9a17.2,17.2,0,0,1,.1-2c.1-.9.2-1.1.3-1.2s.4-.2,1-.3l1.7-.3,1.5-.2,1.8-.2,5.4-.7,2.6-.4h.5l.8-.2c.2-.1.2-.4.2-2.1v-2.6h6.4l2.9-.2h1.9l2.3-.2c1.6-.1,1.7-.2,1.9-.1h.8c.6,0,.7-.1.8-.2s.1-.3.1-.8.1-1,.1-1.5.1-.5.1-1.1.3-2,.5-2.1.2-.2,1.4-.3l2-.2,2-.3,2.1-.2h2.4a.4.4,0,0,1,.1-.3v-.4a.9.9,0,0,0,.1-.5v-.6c.1-.5,0-.6.1-.7s.3,0,.7,0h2.4l1.9-.2,1.9-.3,1.5-.3,2.2-.3c.6,0,.8,0,.9-.2s.2-.2.3-1.4v-.8a3.1,3.1,0,0,0,.1-1.1c.1-.7.1-.8.2-.9s.2-.2.9-.2h.6a14.9,14.9,0,0,0,2.6-.2l2-.3,1.7-.2h.9c.1-.1.1-.1.1-.3a1.4,1.4,0,0,0,.2-.7l.2-.7a3.1,3.1,0,0,1,.2-.7,3.1,3.1,0,0,0,.2-.8c.1-.3.1-.2.2-.3v-.3h9.9c.2-.2.1-.3.4-1.3a4.1,4.1,0,0,0,.4-.9c.1-.5.1-.6.3-.7h3.3Z" transform="translate(-96.8 -24.5)" fill="url(#_10_lpi_10_)"/><path d="M184.6,115.1l2.7.7,1.4.5a6.4,6.4,0,0,0,1.6.6h1.5l1.1.2,1.8.7,6,2.5,4.6,1.8a25.9,25.9,0,0,1,4,1l2.7,1.2,7.4,3.1,4.9,2c3.2,1.4,3.8,1.8,6.6,2.9l3.7,1.3,4,1.6,4.9,2.4,3.2,1.5,3.3,1.5,8.8,3.8,7.4,3.2,6.2,2.7,9.3,3.6,7.6,3.3,3.9,1.7,3.5,1.3,2,.6,2.9,1.2,2.4,1.2,3.2,1.2,3.2,1.1c2.3.8,3,1.2,6.8,2.8l4.8,2.1,9.9,4c5.1,2,7.6,3.1,8.7,3.6,3.6,1.7,4.2,2.2,8.1,4l4.6,2.1c1.8.8,1.9,1,4,2l5.1,2.5,4,1.8c3.1,1.3,3.9,1.7,7.2,3.3l4.9,2.1c10.9,4.9,16.4,7.4,21.2,9.9l6.8,3.5c3.1,1.6,4,1.9,9.8,4.6l9.1,4.3c3.3,1.7,4.9,2.8,8.5,4.3l3.9,1.6c3.7,1.5,6.4,2.9,7.3,3.3l4.5,2.4c.5.3,3.4,1.8,6.7,3.3l8.8,3.5c6.1,2.5,5.7,2.5,9.9,4.1l5,2.1,5.5,2.8,3.7,1.7c2.7,1.1,4.6,1.7,6.4,2.3l9.9,3.3,9.2,3.2,6.6,2.5c4,1.8,5.1,2.7,11.1,5.7l4.9,2.4c10.2,4.8,21.3,9.5,21.3,9.5l43.1,18.6c7.8,3.4,13.8,5.9,20.1,8,1.5.5,4.4,1.4,8.4,2.9s5.5,2.1,8.2,3.3a57.5,57.5,0,0,0,6.4,2.5l2.1.7,3.4,1.2,4.4,1.8,5.3,2c2.9,1,4.6,1.7,9.1,3.5l13.7,5.5c17.2,6.9,18.3,7.7,24.6,9.7l8.3,2.8c3.1,1,6.1,2.2,12.1,4.4l5.3,1.9,5.1,1.8,7.5,2.8c7.3,2.6,7.2,2.2,11.7,4,2.4,1,3.5,1.5,6.4,2.5l5.4,1.9c3.3,1.1,5.7,2.2,7.9,3.1,4.1,1.7,7.1,3.2,8.1,3.7l5.2,2.8c2.4,1.5,2.2,1.6,5.6,3.9s4.3,2.5,6.6,4.2,1.5,1.3,2.7,2.1,1.7.8,3.2,1.7l2,1.4s1.8,1.3,3.7,2.4l4.3,2,9,4.4,4.3,2.2,3,1.9,3.1,1.7,1.5.8a14.9,14.9,0,0,0,2.3.9,19.2,19.2,0,0,1,3.3,1.8l4.6,2.4,5.4,3.1,2,1.1,2.9,1.5a19.3,19.3,0,0,1,2.4,1.7l2.3,1.6c2,1.2,2.4,1.1,4,2.3l1.8,1.3a7.2,7.2,0,0,0,2.2,1.5,3,3,0,0,0,1.4.4" transform="translate(-96.8 -24.5)" fill="none" stroke="#000" stroke-linecap="round" stroke-linejoin="round" stroke-width="0.71"/><path d="M1190.1,352.1c0-.6,0-2.9.2-5.1s.1-1.5.1-2.2a10.5,10.5,0,0,1,.2-1.3,1.1,1.1,0,0,1,.3-.8l.6-.3,1.2-.2,1-.2h.5l.8-.2,1.7-.2,2.3-.3,1.5-.3h.8c.6-.1.7-.1.8-.3s.1-.1.2-.7a2.4,2.4,0,0,1,.1-.7c0-.2,0-.8.1-2.1s.2-.9.3-2,.4-4.2.4-5.2a3.7,3.7,0,0,0-.1-.8c0-.8,0-.9.1-1a1.6,1.6,0,0,1,.9-.8c.3-.2.5-.1,1.4-.2l1.2-.2,1.6-.2,4.1-.6,3.8-.4,1.4-.3,1.2-.2h.7v-.4c0-.2.1-.3.1-.4a5.4,5.4,0,0,1,.2-1.5,3.9,3.9,0,0,1,.1-.9,3.1,3.1,0,0,1,.1-1.2,5.5,5.5,0,0,1,.2-1.2v-2.3c0-.2.1-.7.2-1.3a2.4,2.4,0,0,1,.1-.7c.1-.2.3-.4,1.9-.6h1.1l1.6-.2h1.8l1.6-.2a2.4,2.4,0,0,0,1-.3,1.6,1.6,0,0,0,.4-.7,2,2,0,0,0,.2-1c.2-1.5.4-2,.4-2.2s.2-.7.4-.9a2,2,0,0,1,1.3-.5,5.4,5.4,0,0,1,1.5-.2l2.8-.3h2.4l3.7-.3h2.6l.9-.2a8.9,8.9,0,0,0,.1-1.3v-.7c.1-.8.2-.9.2-.9s.4-.2,1-.3h.6l2.8-.3,4.6-.5h1.8c.2-.2.1-.4.2-.9a17.2,17.2,0,0,1,.1-2c.1-.9.2-1.1.3-1.2s.4-.2,1-.3l1.7-.3,1.5-.2,1.8-.2,5.4-.7,2.6-.4h.5l.8-.2c.2-.1.2-.4.2-2.1v-2.6h6.4l2.9-.2h1.9l2.3-.2c1.6-.1,1.7-.2,1.9-.1h.8c.6,0,.7-.1.8-.2s.1-.3.1-.8.1-1,.1-1.5.1-.5.1-1.1.3-2,.5-2.1.2-.2,1.4-.3l2-.2,2-.3,2.1-.2h2.4a.4.4,0,0,1,.1-.3v-.4a.9.9,0,0,0,.1-.5v-.6c.1-.5,0-.6.1-.7s.3,0,.7,0h2.4l1.9-.2,1.9-.3,1.5-.3,2.2-.3c.6,0,.8,0,.9-.2s.2-.2.3-1.4v-.8a3.1,3.1,0,0,0,.1-1.1c.1-.7.1-.8.2-.9s.2-.2.9-.2h.6a14.9,14.9,0,0,0,2.6-.2l2-.3,1.7-.2h.9c.1-.1.1-.1.1-.3a1.4,1.4,0,0,0,.2-.7l.2-.7a3.1,3.1,0,0,1,.2-.7,3.1,3.1,0,0,0,.2-.8c.1-.3.1-.2.2-.3v-.3h9.9c.2-.2.1-.3.4-1.3a4.1,4.1,0,0,0,.4-.9c.1-.5.1-.6.3-.7h4.2l2.1-.2,2.1-.2,1-.2,1.1-.2c.2-.2.2-.3.5-.9a10.5,10.5,0,0,0,.7-1.6c.3-.9.4-1.3.7-1.4h1.3l2.5-.3,3-.5,1.2-.3a1.3,1.3,0,0,0,.9-.2c.2-.1.3-.3.5-.5a6.4,6.4,0,0,0,.6-1.2,6.6,6.6,0,0,0,.1-1.1c0-.2.1-.4.1-.6s.1-.2.1-.3h.6l3.2-.3,2.3-.2,1.5-.4h.7a4.9,4.9,0,0,1,1.4-.3l1.4-.2c.3,0,.5,0,.6-.2s.2-.1.3-.7l.2-.7a1.5,1.5,0,0,1,.3-.7,1.2,1.2,0,0,1,.7-.2h1l1.9-.3,1-.3a14.3,14.3,0,0,1,3.2-.7l1.6-.3h.7l.7-.2a8.5,8.5,0,0,0,.3-.9,1.1,1.1,0,0,1,.2-.7c.4-1.5.2-1.8.6-2.1s.4-.3,1.1-.4l1.4-.3,3.2-.5,2.1-.2c.8-.1,1-.2,1.1-.3s.3-.7.5-2.1a8.7,8.7,0,0,0,.2-1,15.9,15.9,0,0,1,.7-2,1.5,1.5,0,0,1,.5-.8h2.6l1.9-.3,2.1-.3,1.6-.2.9-.2c.2-.1.4-.3.7-1.5s.2-1,.3-1.5.4-1.2.7-1.3.4-.2,1.5-.3h5l2.4-.2,2.2-.2h1c.5-.4.4-1,.6-2.7s.4-1.8.6-1.9h2.9a5.9,5.9,0,0,0,1.8-.4,15.7,15.7,0,0,1,2.5-.4h1.7c.1-.1.1-.2.3-.7a3.1,3.1,0,0,0,.2-.7l.5-1.4c.3-.8.2-.6.3-.7s0-.4.1-.5h1.2l2.9-.3,4.3-.5,2.1-.4h.6l1.1-.2c.2-.1.2-.2.7-1.8a6.5,6.5,0,0,0,.3-1,1.1,1.1,0,0,1,.1-.6,2.8,2.8,0,0,1,1.1-.3h4l2.8-.3,2-.2,1.3-.2c.9-.1,1-.1,1.2-.3a2.1,2.1,0,0,0,.9-1.1l.6-1,.6-1.1c.1-.1.3-.2,2-.4h1.1l1.8-.2,3.1-.3,1.4-.2a.8.8,0,0,0,.7-.2l.3-.6a6.5,6.5,0,0,1,.3-1,2.4,2.4,0,0,1,.3-.7l.6-1a1.9,1.9,0,0,1,1-.4l1.4-.2h1.5l2-.2a8.5,8.5,0,0,1,2.4-.2h1.3l.6-.2a1.1,1.1,0,0,0,.3-.5,5.4,5.4,0,0,0,.5-1.1l.3-.5.3-.5h1.3l1.6-.4,5.7-.9h.9l.8-.2c.2-.1.2-.3.3-.9s.1-.8.2-1.1a10.1,10.1,0,0,1,.4-1.8,10.6,10.6,0,0,1,.5-1.2c.2-.3.5-.3,2.2-.5l1.7-.3,1.8-.3h2.1c.4,0,.7,0,.9-.2a1.3,1.3,0,0,0,.5-.9,5.9,5.9,0,0,0,.2-2.1c0-1,0-1.4.2-1.6l.6-.2,1.4-.3,1.9-.3,3.2-.5.7-.2c.2,0,.3,0,.4-.2a.4.4,0,0,0,.1-.3c0-.3.1-.6.1-.9a4.5,4.5,0,0,0,.2-.8c.1-.7.1-.9.2-1.5s.2-1.5.4-1.7.5-.3,1.5-.6l2.2-.5,2.6-.5,2.3-.2.9-.2.6-.2c.1,0,.1-.1.2-.9s-.1-.4,0-.7v-.8a4.4,4.4,0,0,1,.2-1.2c.2-.3.8-.4,1.9-.4l1.7-.2,3.7-.2h2.3c.2-.1.2-.3.5-1.4s.2-.8.3-1a10,10,0,0,0,.4-1.1c.5-1.3.5-1.4.8-1.6h3.9l3.9-.2h1.3c.9,0,1.1-.1,1.2-.2s.2-.2.4-1.3.1-.6.2-.9.1-.8.3-.9.3-.1.7-.1h4.6l1.6-.2h1.2v-.8a2.1,2.1,0,0,1,.1-.6v-.5c.1-.9.1-1,.2-1l.7-.2h2.3l1.8-.4,2.1-.5,1.3-.2h2.7c.1-.1.1-.1,0-.5v-1.5a1.3,1.3,0,0,0,.1-.5h4.4l1.4-.2,2.1-.3a31.5,31.5,0,0,0,5.1-1.6c2.3-.9,4-1.8,6.1-2.8,8.4-4.2,10.7-5.5,12.1-6.4l3.1-1.9,12.9-8.2,7.7-5c2.9-2.1,5.3-4,6.8-5.3s3.4-2.7,5.9-4.9c5.1-4.5,9.3-8.9,13.5-13l3.7-3.3,1.3-.9,1.9-1.9" transform="translate(-96.8 -24.5)" fill="none" stroke="#000" stroke-linecap="round" stroke-linejoin="round" stroke-width="0.71"/><path d="M874,416l5.8.2c6.6.1,10-.4,17.8-.5h7c7.3,0,40.2-.9,122.5-3.4.1,6,.3,12.1.5,18.3.1,4.1.3,8.2.4,12.2h8.3c11.4.1,22.5-.2,33.3-.7l-.9-31.2c20.9-.8,37.9-1.3,49.9-1.6s23.9-.5,41.9-1.1l25.3-.9c.1-.9.2-2.3.3-4.1.3-6.7.5-11.4.5-13.2.3-7.8,1-9.7,2.5-26.4.4-5,.8-9,1-11.5" transform="translate(-96.8 -24.5)" fill="none" stroke="#000" stroke-linecap="round" stroke-linejoin="round" stroke-width="0.71" stroke-dasharray="11.34"/><text transform="translate(0 59.8)" font-size="45.35" font-family="AdobeSongStd-Light-GBpc-EUC-H, Adobe Song Std">B</text><text transform="translate(1625.8 39.9)" font-size="45.35" font-family="AdobeSongStd-Light-GBpc-EUC-H, Adobe Song Std">A</text><text transform="translate(323 640.5)" font-size="45.35" font-family="AdobeSongStd-Light-GBpc-EUC-H, Adobe Song Std">C</text><text transform="translate(1519 622.8)" font-size="45.35" font-family="AdobeSongStd-Light-GBpc-EUC-H, Adobe Song Std">D</text><path d="M1538.1,637.2v2.9" transform="translate(-96.8 -24.5)" fill="none" stroke="#000" stroke-linecap="round" stroke-linejoin="round" stroke-width="0.57"/><path d="M1538.2,646.6c0,7.5,0,15.1.1,22.6" transform="translate(-96.8 -24.5)" fill="none" stroke="#000" stroke-linecap="round" stroke-linejoin="round" stroke-width="0.57" stroke-dasharray="6.48 6.48"/><path d="M1538.3,672.5v2.8" transform="translate(-96.8 -24.5)" fill="none" stroke="#000" stroke-linecap="round" stroke-linejoin="round" stroke-width="0.57"/><path d="M525,653.6v2.9" transform="translate(-96.8 -24.5)" fill="none" stroke="#000" stroke-linecap="round" stroke-linejoin="round" stroke-width="0.57"/><path d="M525.2,662.2c.2,14.2.5,28.5.8,42.7" transform="translate(-96.8 -24.5)" fill="none" stroke="#000" stroke-linecap="round" stroke-linejoin="round" stroke-width="0.57" stroke-dasharray="5.7 5.7"/><path d="M526,707.8v2.8" transform="translate(-96.8 -24.5)" fill="none" stroke="#000" stroke-linecap="round" stroke-linejoin="round" stroke-width="0.57"/><path d="M688.7,829.1c.6,0,.9,0,1.1.2s.2.1.5,1.1l.5,1.7c.1.5.1.3.2.9s.6,2.2.9,2.4.2,0,1.3,0h2.7a9.6,9.6,0,0,1,2.5.4l1.6.5.9.4a1.1,1.1,0,0,1,.6.3.6.6,0,0,1,.2.5l.4,1a7.8,7.8,0,0,1,.2,1.4c.1.5,0,.6.1,1.2a2.5,2.5,0,0,1,.1.8c.1.7,0,.8.2,1s.3.2,1.1.2h3.9a7.5,7.5,0,0,1,2.2,0l2.3.3,1.9.4a11.3,11.3,0,0,1,1.8.3l.8.2c.2.2.3.5.5,1.4s.1,1,.2,1.6.1,1.1.1,1.6v1.1a1.3,1.3,0,0,0,.1.6l.6.2h.7l1.4.2,1.5.3,2.3.5.7.4a1.6,1.6,0,0,1,.4,1c.1.5.1.8.2,1.5l.2,1.4a5.1,5.1,0,0,0,.1,1c.1,1.6.1,1.7.2,1.9s.4.3,1.6.6l2.4.3,2.6.4,1.1.3c1.4.3,1.7.5,1.9.7a2,2,0,0,1,.4.8,3.6,3.6,0,0,1,.2,1,6.1,6.1,0,0,0,.2,1.5,11.6,11.6,0,0,0,.1,2.1c0,.5.1.6.1,1v.4c.1.3.1.3.1.4h.9l.9.2,1.8.3,2.4.5,1.4.5a2.4,2.4,0,0,1,1.4.5l.4.3a1.6,1.6,0,0,1,.3.8,14.8,14.8,0,0,1,.1,2v1.2c0,1.1.1,1.6.3,1.8s.4.3,1.9.5l1.8.2,2.7.2,1.7.2h1c1,.2,1.5.2,1.7.4a10.1,10.1,0,0,1,.5,1.6c.2.7.2.7.3.8s.1.6.2,1.7.1,1.1.2,1.4.1.9.1,1.3.1.3.1.5-.1.5,0,.6h.6l1,.2,4.1.5,1.3.2,1.8.2.8.2.8.3c.2.1.2.3.3,1.1s.1.8.1,1.3.1,1.4.3,1.5h.7a13,13,0,0,1,2.2.3l1.7.4,1.8.4,3.2.6,2.2.6,1.2.3h3.7c.2.2.2.4.4.9a7.8,7.8,0,0,1,.2,1.4,3,3,0,0,0,.2.9,1.9,1.9,0,0,0,1,.2H793a6,6,0,0,1,2,.5l1.3.3c1.6.4,1.9.1,3,.5a4,4,0,0,0,1.2.4h.8a7.6,7.6,0,0,1,2.1.6,2.3,2.3,0,0,1,1.1.9,13.3,13.3,0,0,0,.6,1.2h0c.5,1.1.5,1.4.8,1.7s.2.2.2.3a5.1,5.1,0,0,0,2.7.6h2.1l2.3.2,2.8.2,2.2.4a8.5,8.5,0,0,1,2.3.4,1.8,1.8,0,0,1,1.2.8l.3.7.4.9.6.9c.4.6.6.8.8.9s.5.4.7.4l1.8.4h7.3l1.8.2,2,.2,1.3.5a9.4,9.4,0,0,1,1.2.9,4.8,4.8,0,0,1,.6,1.1l.5,1.4.3.7c.2.4.2.6.4.7h.4a5,5,0,0,0,1.8,0h5.8l2.1.2h.7a.8.8,0,0,1,.6.2c.1.1.1.2.2.4a2.9,2.9,0,0,0,.2.9,17.7,17.7,0,0,0,.8,2.8,1.1,1.1,0,0,0,.3.7c.2.8.2,1,.4,1.1h1.3l1.8.2,5.4.4,1.1.2h1.7c.2.2.2.3.2.9a5.6,5.6,0,0,1,.3,1.1,3.7,3.7,0,0,1,.1.8c.2,1,.2,1.2.4,1.4h2.1l1.9.2,2.1.2,1,.5a2.7,2.7,0,0,1,.8,1.4c.3.8.3,1.1.7,2.1l.3.7c.3.7.4.8.5.8h3.2l1.6.3,1.3.5,1.3.4,1.2.4.9.3a2.4,2.4,0,0,1,.7,1.2,3.5,3.5,0,0,1,.2,1c.2,1.7.4,3.8.5,4.9s.1.5.2,1.2.2,2.7.3,3.5.4,2.3.6,3.9c.6,4.1.5,6,.9,9.6s.4,2.4,1.1,6.4.9,6.7,1.4,10.8.9,7.6,1.8,13h13c26,0,45.3-.5,50.8-.6l99.9-.9,96.3-.8,45.4-.8c.3-4,.6-8.6.8-13.6s.3-8.4.6-14.6.5-7.6.8-13.7c.3-4.3.6-10.7.9-18.5,0-.9.1-3.1.2-4.9v-4a1.8,1.8,0,0,1,.1-.5h.4l1.1-.2h1.8l1.7-.3,1.4-.4,3.5-.4,1.5-.2h1c.1-.1.2-.2.3-.8v-.5a4.9,4.9,0,0,1,.1-1.1c.1-.5.1-.4.2-1.1s.1-1.1.3-1.3l.5-.2,1.6-.2,1.5-.2,2.4-.2,1.3-.3,1.2-.2.3-.2c.3-.1.4-.1.4-.2a.3.3,0,0,1,.1-.2v-.3a3.7,3.7,0,0,0,.1-.8,12.5,12.5,0,0,1,.1-1.4,10.3,10.3,0,0,1,.1-1.7,22.8,22.8,0,0,1,.2-2.6,1.3,1.3,0,0,1,.2-.8l.8-.2,1.1-.4,1.2-.2,3.4-.7,1.6-.3a4.3,4.3,0,0,0,1.6-.5c.3-.2.5-.3.6-.5s.1-.8,0-1.6,0-.9.1-2.1a8.4,8.4,0,0,1,.2-1.4,2.5,2.5,0,0,1,.2-.7c.1-.2.3-.3.6-.5l1-.8,1.9-.7a9.5,9.5,0,0,1,2.6-.4h2.7c.1,0,.2-.2.2-.6a3.1,3.1,0,0,0-.1-1.1v-1a18.2,18.2,0,0,1,0-2.5,2.2,2.2,0,0,1,.1-1,2.4,2.4,0,0,1,.9-.9,11.6,11.6,0,0,1,1.6-.3l1.6-.3,1.8-.4,2.5-.5,1.6-.6c.7-.4.9-.6,1-.8a2.8,2.8,0,0,0,.1-1,7.4,7.4,0,0,1,0-1.5,16.4,16.4,0,0,1,.4-2.5,4.9,4.9,0,0,1,.6-1.5,2.4,2.4,0,0,1,1.2-.6,11.6,11.6,0,0,1,2.7-.6l1.9-.2h.7c.4-.1.5-.1.7-.3s.1-.3.1-.9v-.9a22.1,22.1,0,0,1,.3-4.5c.1-1.4.1-1.3.1-1.6a2.8,2.8,0,0,1,.1-.6,1.6,1.6,0,0,1,.1-.4c0-.3.1-.3.1-.4h.6a5.9,5.9,0,0,1,1.5-.3l2.3-.5,2.1-.3h.6l.8-.2a4.2,4.2,0,0,0,.2-.6v-.8a5.8,5.8,0,0,1,.2-1c.1-.7,0-.7.1-1.5a4.2,4.2,0,0,1,.2-1.1,3,3,0,0,1,.4-.8,3,3,0,0,1,1.4-.7l2.7-.3h1.7a12,12,0,0,0,1.9,0c.4.1.7.1.9-.1s.1-.2.3-.9a2.8,2.8,0,0,1,.1-1,8.1,8.1,0,0,1,.2-.9,1.2,1.2,0,0,1,.2-.5c.2-.3.4-.5.6-.5s.9-.3,1.9-.3l1.7-.3,1.2-.3,1.2-.5a1.3,1.3,0,0,0,.6-.5c.2-.3.1-.5.2-1.6s.1-.6.2-1a3.8,3.8,0,0,1,.1-.8c.3-.5,1-.6,1.7-.6a7.6,7.6,0,0,1,1.6,0h1.1l1-.3,1.1-.5h2.7a6.3,6.3,0,0,0,1.9-.3l1.2-.3c.3-.1.6-.1.7-.4s.1-.1.1-.5l.2-1V843a1.8,1.8,0,0,1,.9-.9,22.6,22.6,0,0,1,5.4-1.4l2.8-.3h1.7c1.4-.1,1.5-.2,1.7-.4s.1-.2.1-1.9a6.2,6.2,0,0,0,.1-.9,5.7,5.7,0,0,1,0-1.3c0-.2.1-.4.1-.6l.2-.5.4-.6c.2-.3.6-.2,1.6-.2h1.1l1.9-.2,2.1-.6,1.9-.5c.8-.4,1-.6,1.1-.8s.1-.5.2-1.2.1-.6.1-1.6.1-1.1.2-1.9.2-1,.3-1.1.3-.1,1.4-.2h1.4l1.2-.2,2.8-.3h1.1l1.2-.2c.3-.2.3-.6.3-1.6s.1-1.1.1-1.7c0-2.8.1-3.2.4-3.4l1.1-.2,1.8-.2,1.2-.3,1.9-.4c1.1-.2,1.4-.2,1.5-.4s0-.3,0-.9a2.8,2.8,0,0,0,.1-.9,34.9,34.9,0,0,0,0-3.7,1.8,1.8,0,0,1,.2-1.1c.2-.2.5-.2,1.2-.4l1.2-.4a9.7,9.7,0,0,1,2-.5l2-.6,2-.4c1.2-.3,1.4-.4,1.6-.6s.1-.5.2-1.6.1-.8.2-2.3a8.4,8.4,0,0,1,.2-1.4c.1-.3.1-.6.3-.7s.5-.3.9-.4a8,8,0,0,0,1.5-.3l2.5-.5,1.5-.2h.6l.5-.2c.1-.1.1-.2.2-.5v-.4a2,2,0,0,0,.1-.7,10.8,10.8,0,0,0,.2-1.6c0-1,.1-1.9.1-2.8a3.1,3.1,0,0,0,.2-.7.6.6,0,0,1,.2-.5l.6-.2.8-.2,2.1-.5,2.1-.5.9-.2c.7-.2,1-.3,1.1-.5s.1-.3.2-.9.1-.5.1-.7.2-1.8.5-3.2l.2-.9a11.1,11.1,0,0,1,.3-1.3v-.2c0-.1,0-.1.1-.2h.4l1-.4,2.7-.9h.7c.7-.2.9-.1,1.1-.3a4.1,4.1,0,0,0,.4-.9,4.5,4.5,0,0,0,.1-.8c.2-1,.3-2.6.5-3.5a2.7,2.7,0,0,1,.2-1l.2-.5.5-.3h.7a18.7,18.7,0,0,0,3.2-.4,8.2,8.2,0,0,1,1.8-.3l1-.2h.6c.1-.1.1-.2.1-.4a4.3,4.3,0,0,1,.1-.5,6.8,6.8,0,0,1,.1-1.2c.1-.4.1-1.1.2-1.7a.8.8,0,0,1,.1-.3.6.6,0,0,1,.2-.5c0-.1.2-.1.4-.1h.4l1.7-.2,2.7-.5c1.3-.2,1.8-.3,2-.7v-2a17.4,17.4,0,0,1,.1-1.8,16.8,16.8,0,0,0,.2-2.3,1.3,1.3,0,0,1,.1-.6c0-.3,0-.4.1-.4s.2-.2.6-.2h1.1l.9-.2,2.6-.3,1.3-.2c1.4-.2,1.6-.5,1.7-.8v-.3c0-.6.1-.7.1-1v-.7c.1-1.1.1-2.2.1-2.2a13.4,13.4,0,0,0,0-2,1.8,1.8,0,0,1,.1-.5c0-.4,0-.5.2-.6s.1-.1.6-.1h1.3l1.9-.5,1.5-.6c1.9-.9,2.2-1.2,2.4-1.5s.1-.4.1-.8a9.6,9.6,0,0,0,0-2.4,2.8,2.8,0,0,1-.1-.9,2,2,0,0,1,.1-.9.6.6,0,0,1,.5-.2l1.7-.5,1.8-.6,1.4-.3h.8l1.2-.4h.3l.4-.2c.1-.1.1-.2.2-.6h0a.4.4,0,0,0,.1-.3c.2-.6.2-.8.3-.9a15.5,15.5,0,0,0,.3-1.6c.2-.6.2-.8.3-1a.1.1,0,0,1-.1.1h.1c.1-.5.1-.7.3-.9s.1-.1.5-.3l.9-.4,1.8-.7,3.2-1.2,1.8-.6.4-.2.5-.2a1.3,1.3,0,0,0,.1-.7,2.2,2.2,0,0,0,.2-.9,4.3,4.3,0,0,0,.2-1.1,9.5,9.5,0,0,0,.3-1.7c.1-.6.3-1.2.4-1.9a.9.9,0,0,1,.3-.6c.1-.2.3-.2.7-.3l1-.3,1.2-.2a12.3,12.3,0,0,1,2-.2l3.4-.4,1.2-.2,2-.5a3.6,3.6,0,0,1,1.2-.5c.7-.2,1-.3,1.1-.7a1.2,1.2,0,0,0,.2-.5,4.5,4.5,0,0,0,.1-.6,5.1,5.1,0,0,1,.4-1,5.9,5.9,0,0,1,.4-.8c0-.1.1-.2.1-.3l.2-.3h1.2a8.4,8.4,0,0,1,1.7-.5l1.4-.3,1.4-.2,6.9-.5h.9a1.5,1.5,0,0,0,.3-.7,3.2,3.2,0,0,0,.1-.7,4.5,4.5,0,0,0,.2-.8l.3-.8c.1-.4.1-.5.2-.6l.5-.2.8-.2.7-.2,1.2-.3,2.9-.6,1.8-.3,2.7-.4,1.3-.2h.8l.9-.3a1.8,1.8,0,0,1,.1-.5,2.8,2.8,0,0,0,.1-.6,14.9,14.9,0,0,0,.4-1.8,12.4,12.4,0,0,0,.2-1.8,9.5,9.5,0,0,0,.1-1.4v-.5a1.3,1.3,0,0,0,.1-.5c.1-.1.1-.2.7-.5l.9-.3.6-.2,1.7-.5,2.2-.6,1.9-.3,1.7-.3,2.4-.3h.6c.5-.2.6-.2.6-.3s.1-.1.1-.5a2.1,2.1,0,0,0,.1-.6v-2.9a6.3,6.3,0,0,1,.1-1.1v-.7c0-.3.1-.6.1-.8v-.3h.6l1.5-.4,3.2-.5a21.6,21.6,0,0,1,2.9-.3l3.9-.5a1.5,1.5,0,0,0,.9-.2c.6-.4.7-1.1.9-1.9s.3-1.5.4-1.8.1-.2.2-.4V685l.6-.2h1.1l3.7-.3,1.7-.2,3.3-.3h1.4c.7-.1,1-.1,1.2-.3s.2-.4.2-1.1a4.3,4.3,0,0,1,.4-1.8c.3-.4.7-.5,1.7-.7l1.3-.2,1.5-.2,5-.3,6.8-.2c0,9.5.1,18.9.1,28.4-62.4,44.5-127,94.1-192.7,149.5q-52.2,44-99.4,87.4-4.4,39.5-8.6,78.8l-383.3,7.8-8.1-62.7Q797.8,942,748,912.6c-79.9-47.1-153.7-95.4-221.4-143.4-.2-18.7-.3-37.4-.4-56.1l1.9.2,4.5.8,1.6.5.9.3a1.5,1.5,0,0,1,.8.4c.1.1.2.3.3,1a4.8,4.8,0,0,1,.2,1.2c.2,2.2.3,2.2.3,3.1v1.3a20,20,0,0,0,.3,2.3.9.9,0,0,0,.1.5c0,.5,0,.6.1.7l.6.2.7.2,3.1.8,2.1.6,1,.2c.5.2.8.3,1,.6s.1.4.2,1a1.3,1.3,0,0,1,.1.5c.1,1,.2,1.5.2,2a4.6,4.6,0,0,0,.1,1v.5a2.8,2.8,0,0,1,.1.6l.5.3.7.2a33.9,33.9,0,0,0,4.8.8l1.4.2c1,.2,1.2.4,1.3.5a4.8,4.8,0,0,1,.5,1.3c.3,1.1.4,1,.6,1.9a13.1,13.1,0,0,1,.3,1.5,6.4,6.4,0,0,1,.2.9c.2,1,.4,1.1.5,1.2H560l1.7.4,1.2.3.6.2c.8.2,1.1.3,1.3.5a2.3,2.3,0,0,1,.3,1,13,13,0,0,1,.3,1.5,9.7,9.7,0,0,0,.1,1.6,2.8,2.8,0,0,0,.1,1v1.1c0,.2,0,.3.1.4s.3.2.7.3h.6l2,.5.9.3,1,.5a3.5,3.5,0,0,1,.1.6,1.7,1.7,0,0,0,.1.8,9.2,9.2,0,0,0,.1,1.5,1.3,1.3,0,0,1,.1.7c0,.1.1.8.2,1.7s.1.8.3.9.4.2,1,.2h5.7c.2.1.2.3.3.6l.3,1c0,.2.1.6.2,2.2l.4,1.9a.8.8,0,0,0,.2.4h1.2l2,.3,1.6.3,2.6.3h1.9c.1.1.1.3.2.8s.1.4.1.7a.9.9,0,0,1,.1.5c.1.4.2.5.2.6h.9l1.8.3,3,.5,3.7.5h1.5c.1,0,.1.1.2.4l.3.4a6.1,6.1,0,0,1,.5,1.2l.2.9c0,.1.1.2.2.5s.1.4.2.5l.6.2h.6l1.7.2,1.4.2h3.9l1,.2.9.2c.3.2.3.6.3,1.4v.8a7.7,7.7,0,0,1,.1,1v.7c.3.4.7.3,1.6.5l1.4.5,1.7.6,2.1.6,2.7.4h1.3c.1.1.1.2.1.6a1.3,1.3,0,0,1,.1.6c.1.9.1.6.3,2.4s0,.7.1.9h2l.9.3c.9.2,1.3.3,1.4.5s.3.3.5,1.7.4,2.2.4,2.4.1,1,.2,1.6a12.3,12.3,0,0,0,.2,1.3v.5a.8.8,0,0,1,.1.3l.6.2.7.2,1.3.3,1.7.4,2.1.5a1.1,1.1,0,0,1,.8.3,1.9,1.9,0,0,1,.2,1,11.6,11.6,0,0,1,.1,1.7,3.7,3.7,0,0,1,.1,1.1c.1.6.1.8.3,1h1.4l4.2.5,2,.3,1.9.4,1.1.5a3.3,3.3,0,0,1,.7,1.3,5.6,5.6,0,0,1,.2,1.6v1c0,.5,0,.8.2.9h2.6a29.8,29.8,0,0,1,4,.1h3.1l1.8.2h1.2c1.2.1,1.3.1,1.5.3s.4.5.7,1.2.3,1.1.4,1.4a3.7,3.7,0,0,1,.1.8,1.5,1.5,0,0,0,.1.6c.1.6.1.7.2.8h1.3c.7,0,1.6.3,3.3.5l2.2.4,1.2.2c.6.1.8,0,1,.2a2.4,2.4,0,0,1,.5.9,1.8,1.8,0,0,1,.1.5,17.8,17.8,0,0,1,.4,3.5c.1.7.1.6.2,1.1a20.3,20.3,0,0,1-.1,2.2c0,.8.1.4.1,1.4s-.1,1.2.2,1.4.2.2,1.1.3l1.6.2,1.6.2,1.6.3,3.8.5h3.3Z" transform="translate(-96.8 -24.5)" fill="url(#_10_lpi_10_2-2)"/><path d="M526.2,713.1l1.9.2,4.5.8,1.6.5.9.3a1.5,1.5,0,0,1,.8.4c.1.1.2.3.3,1a4.8,4.8,0,0,1,.2,1.2c.2,2.2.3,2.2.3,3.1v1.3a20,20,0,0,0,.3,2.3.9.9,0,0,0,.1.5c0,.5,0,.6.1.7l.6.2.7.2,3.1.8,2.1.6,1,.2c.5.2.8.3,1,.6s.1.4.2,1a1.3,1.3,0,0,1,.1.5c.1,1,.2,1.5.2,2a4.6,4.6,0,0,0,.1,1v.5a2.8,2.8,0,0,1,.1.6l.5.3.7.2a33.9,33.9,0,0,0,4.8.8l1.4.2c1,.2,1.2.4,1.3.5a4.8,4.8,0,0,1,.5,1.3c.3,1.1.4,1,.6,1.9a13.1,13.1,0,0,1,.3,1.5,6.4,6.4,0,0,1,.2.9c.2,1,.4,1.1.5,1.2H560l1.7.4,1.2.3.6.2c.8.2,1.1.3,1.3.5a2.3,2.3,0,0,1,.3,1,13,13,0,0,1,.3,1.5,9.7,9.7,0,0,0,.1,1.6,2.8,2.8,0,0,0,.1,1v1.1c0,.2,0,.3.1.4s.3.2.7.3h.6l2,.5.9.3,1,.5a3.5,3.5,0,0,1,.1.6,1.7,1.7,0,0,0,.1.8,9.2,9.2,0,0,0,.1,1.5,1.3,1.3,0,0,1,.1.7c0,.1.1.8.2,1.7s.1.8.3.9.4.2,1,.2h5.7c.2.1.2.3.3.6l.3,1c0,.2.1.6.2,2.2l.4,1.9a.8.8,0,0,0,.2.4h1.2l2,.3,1.6.3,2.6.3h1.9c.1.1.1.3.2.8s.1.4.1.7a.9.9,0,0,1,.1.5c.1.4.2.5.2.6h.9l1.8.3,3,.5,3.7.5h1.5c.1,0,.1.1.2.4l.3.4a6.1,6.1,0,0,1,.5,1.2l.2.9c0,.1.1.2.2.5s.1.4.2.5l.6.2h.6l1.7.2,1.4.2h3.9l1,.2.9.2c.3.2.3.6.3,1.4v.8a7.7,7.7,0,0,1,.1,1v.7c.3.4.7.3,1.6.5l1.4.5,1.7.6,2.1.6,2.7.4h1.3c.1.1.1.2.1.6a1.3,1.3,0,0,1,.1.6c.1.9.1.6.3,2.4s0,.7.1.9h2l.9.3c.9.2,1.3.3,1.4.5s.3.3.5,1.7.4,2.2.4,2.4.1,1,.2,1.6a12.3,12.3,0,0,0,.2,1.3v.5a.8.8,0,0,1,.1.3l.6.2.7.2,1.3.3,1.7.4,2.1.5a1.1,1.1,0,0,1,.8.3,1.9,1.9,0,0,1,.2,1,11.6,11.6,0,0,1,.1,1.7,3.7,3.7,0,0,1,.1,1.1c.1.6.1.8.3,1h1.4l4.2.5,2,.3,1.9.4,1.1.5a3.3,3.3,0,0,1,.7,1.3,5.6,5.6,0,0,1,.2,1.6v1c0,.5,0,.8.2.9h2.6a29.8,29.8,0,0,1,4,.1h3.1l1.8.2h1.2c1.2.1,1.3.1,1.5.3s.4.5.7,1.2.3,1.1.4,1.4a3.7,3.7,0,0,1,.1.8,1.5,1.5,0,0,0,.1.6c.1.6.1.7.2.8h1.3c.7,0,1.6.3,3.3.5l2.2.4,1.2.2c.6.1.8,0,1,.2a2.4,2.4,0,0,1,.5.9,1.8,1.8,0,0,1,.1.5,17.8,17.8,0,0,1,.4,3.5c.1.7.1.6.2,1.1a20.3,20.3,0,0,1-.1,2.2c0,.8.1.4.1,1.4s-.1,1.2.2,1.4.2.2,1.1.3l1.6.2,1.6.2,1.6.3,3.8.5h3.3c.6,0,.9,0,1.1.2s.2.1.5,1.1l.5,1.7c.1.5.1.3.2.9s.6,2.2.9,2.4.2,0,1.3,0h2.7a9.6,9.6,0,0,1,2.5.4l1.6.5.9.4a1.1,1.1,0,0,1,.6.3.6.6,0,0,1,.2.5l.4,1a7.8,7.8,0,0,1,.2,1.4c.1.5,0,.6.1,1.2a2.5,2.5,0,0,1,.1.8c.1.7,0,.8.2,1s.3.2,1.1.2h3.9a7.5,7.5,0,0,1,2.2,0l2.3.3,1.9.4a11.3,11.3,0,0,1,1.8.3l.8.2c.2.2.3.5.5,1.4s.1,1,.2,1.6.1,1.1.1,1.6v1.1a1.3,1.3,0,0,0,.1.6l.6.2h.7l1.4.2,1.5.3,2.3.5.7.4a1.6,1.6,0,0,1,.4,1c.1.5.1.8.2,1.5l.2,1.4a5.1,5.1,0,0,0,.1,1c.1,1.6.1,1.7.2,1.9s.4.3,1.6.6l2.4.3,2.6.4,1.1.3c1.4.3,1.7.5,1.9.7a2,2,0,0,1,.4.8,3.6,3.6,0,0,1,.2,1,6.1,6.1,0,0,0,.2,1.5,11.6,11.6,0,0,0,.1,2.1c0,.5.1.6.1,1v.4c.1.3.1.3.1.4h.9l.9.2,1.8.3,2.4.5,1.4.5a2.4,2.4,0,0,1,1.4.5l.4.3a1.6,1.6,0,0,1,.3.8,14.8,14.8,0,0,1,.1,2v1.2c0,1.1.1,1.6.3,1.8s.4.3,1.9.5l1.8.2,2.7.2,1.7.2h1c1,.2,1.5.2,1.7.4a10.1,10.1,0,0,1,.5,1.6c.2.7.2.7.3.8s.1.6.2,1.7.1,1.1.2,1.4.1.9.1,1.3.1.3.1.5-.1.5,0,.6h.6l1,.2,4.1.5,1.3.2,1.8.2.8.2.8.3c.2.1.2.3.3,1.1s.1.8.1,1.3.1,1.4.3,1.5h.7a13,13,0,0,1,2.2.3l1.7.4,1.8.4,3.2.6,2.2.6,1.2.3h3.7c.2.2.2.4.4.9a7.8,7.8,0,0,1,.2,1.4,3,3,0,0,0,.2.9,1.9,1.9,0,0,0,1,.2H793a6,6,0,0,1,2,.5l1.3.3c1.6.4,1.9.1,3,.5a4,4,0,0,0,1.2.4h.8a7.6,7.6,0,0,1,2.1.6,2.3,2.3,0,0,1,1.1.9,13.3,13.3,0,0,0,.6,1.2h0c.5,1.1.5,1.4.8,1.7s.2.2.2.3a5.1,5.1,0,0,0,2.7.6h2.1l2.3.2,2.8.2,2.2.4a8.5,8.5,0,0,1,2.3.4,1.8,1.8,0,0,1,1.2.8l.3.7.4.9.6.9c.4.6.6.8.8.9s.5.4.7.4l1.8.4h7.3l1.8.2,2,.2,1.3.5a9.4,9.4,0,0,1,1.2.9,4.8,4.8,0,0,1,.6,1.1l.5,1.4.3.7c.2.4.2.6.4.7h.4a5,5,0,0,0,1.8,0h5.8l2.1.2h.7a.8.8,0,0,1,.6.2c.1.1.1.2.2.4a2.9,2.9,0,0,0,.2.9,17.7,17.7,0,0,0,.8,2.8,1.1,1.1,0,0,0,.3.7c.2.8.2,1,.4,1.1h1.3l1.8.2,5.4.4,1.1.2h1.7c.2.2.2.3.2.9a5.6,5.6,0,0,1,.3,1.1,3.7,3.7,0,0,1,.1.8c.2,1,.2,1.2.4,1.4h2.1l1.9.2,2.1.2,1,.5a2.7,2.7,0,0,1,.8,1.4c.3.8.3,1.1.7,2.1l.3.7c.3.7.4.8.5.8h3.2l1.6.3,1.3.5,1.3.4,1.2.4.9.3a2.4,2.4,0,0,1,.7,1.2,3.5,3.5,0,0,1,.2,1c.2,1.7.4,3.8.5,4.9s.1.5.2,1.2.2,2.7.3,3.5" transform="translate(-96.8 -24.5)" fill="none" stroke="#000" stroke-linecap="round" stroke-linejoin="round" stroke-width="0.71"/><path d="M1424.7,735.4h.1c.1-.5.1-.7.3-.9s.1-.1.5-.3l.9-.4,1.8-.7,3.2-1.2,1.8-.6.4-.2.5-.2a1.3,1.3,0,0,0,.1-.7,2.2,2.2,0,0,0,.2-.9,4.3,4.3,0,0,0,.2-1.1,9.5,9.5,0,0,0,.3-1.7c.1-.6.3-1.2.4-1.9a.9.9,0,0,1,.3-.6c.1-.2.3-.2.7-.3l1-.3,1.2-.2a12.3,12.3,0,0,1,2-.2l3.4-.4,1.2-.2,2-.5a3.6,3.6,0,0,1,1.2-.5c.7-.2,1-.3,1.1-.7a1.2,1.2,0,0,0,.2-.5,4.5,4.5,0,0,0,.1-.6,5.1,5.1,0,0,1,.4-1,5.9,5.9,0,0,1,.4-.8c0-.1.1-.2.1-.3l.2-.3h1.2a8.4,8.4,0,0,1,1.7-.5l1.4-.3,1.4-.2,6.9-.5h.9a1.5,1.5,0,0,0,.3-.7,3.2,3.2,0,0,0,.1-.7,4.5,4.5,0,0,0,.2-.8l.3-.8c.1-.4.1-.5.2-.6l.5-.2.8-.2.7-.2,1.2-.3,2.9-.6,1.8-.3,2.7-.4,1.3-.2h.8l.9-.3a1.8,1.8,0,0,1,.1-.5,2.8,2.8,0,0,0,.1-.6,14.9,14.9,0,0,0,.4-1.8,12.4,12.4,0,0,0,.2-1.8,9.5,9.5,0,0,0,.1-1.4v-.5a1.3,1.3,0,0,0,.1-.5c.1-.1.1-.2.7-.5l.9-.3.6-.2,1.7-.5,2.2-.6,1.9-.3,1.7-.3,2.4-.3h.6c.5-.2.6-.2.6-.3s.1-.1.1-.5a2.1,2.1,0,0,0,.1-.6v-2.9a6.3,6.3,0,0,1,.1-1.1v-.7c0-.3.1-.6.1-.8v-.3h.6l1.5-.4,3.2-.5a21.6,21.6,0,0,1,2.9-.3l3.9-.5a1.5,1.5,0,0,0,.9-.2c.6-.4.7-1.1.9-1.9s.3-1.5.4-1.8.1-.2.2-.4V685l.6-.2h1.1l3.7-.3,1.7-.2,3.3-.3h1.4c.7-.1,1-.1,1.2-.3s.2-.4.2-1.1a4.3,4.3,0,0,1,.4-1.8c.3-.4.7-.5,1.7-.7l1.3-.2,1.5-.2,5-.3,6.8-.2" transform="translate(-96.8 -24.5)" fill="none" stroke="#000" stroke-linecap="round" stroke-linejoin="round" stroke-width="0.71"/><path d="M1424.8,735.3h0a.1.1,0,0,1-.1.1" transform="translate(-96.8 -24.5)" fill="none" stroke="#000" stroke-linecap="round" stroke-linejoin="round" stroke-width="0.71"/><path d="M1424.8,735.3Z" transform="translate(-96.8 -24.5)" fill="none" stroke="#000" stroke-linecap="round" stroke-linejoin="round" stroke-width="0.71"/><path d="M1423.8,739.2h0a.4.4,0,0,0,.1-.3c.2-.6.2-.8.3-.9a15.5,15.5,0,0,0,.3-1.6c.2-.6.2-.8.3-1h0" transform="translate(-96.8 -24.5)" fill="none" stroke="#000" stroke-linecap="round" stroke-linejoin="round" stroke-width="0.71"/><path d="M1423.8,739.3h0" transform="translate(-96.8 -24.5)" fill="none" stroke="#000" stroke-linecap="round" stroke-linejoin="round" stroke-width="0.71"/><path d="M1423.8,739.1h0" transform="translate(-96.8 -24.5)" fill="none" stroke="#000" stroke-linecap="round" stroke-linejoin="round" stroke-width="0.71"/><path d="M1423.8,739.2h0" transform="translate(-96.8 -24.5)" fill="none" stroke="#000" stroke-linecap="round" stroke-linejoin="round" stroke-width="0.71"/><path d="M1423.8,739.2h0" transform="translate(-96.8 -24.5)" fill="none" stroke="#000" stroke-linecap="round" stroke-linejoin="round" stroke-width="0.71"/><path d="M1202.4,929.9c0-.9.1-3.1.2-4.9v-4a1.8,1.8,0,0,1,.1-.5h.4l1.1-.2h1.8l1.7-.3,1.4-.4,3.5-.4,1.5-.2h1c.1-.1.2-.2.3-.8v-.5a4.9,4.9,0,0,1,.1-1.1c.1-.5.1-.4.2-1.1s.1-1.1.3-1.3l.5-.2,1.6-.2,1.5-.2,2.4-.2,1.3-.3,1.2-.2.3-.2c.3-.1.4-.1.4-.2a.3.3,0,0,1,.1-.2v-.3a3.7,3.7,0,0,0,.1-.8,12.5,12.5,0,0,1,.1-1.4,10.3,10.3,0,0,1,.1-1.7,22.8,22.8,0,0,1,.2-2.6,1.3,1.3,0,0,1,.2-.8l.8-.2,1.1-.4,1.2-.2,3.4-.7,1.6-.3a4.3,4.3,0,0,0,1.6-.5c.3-.2.5-.3.6-.5s.1-.8,0-1.6,0-.9.1-2.1a8.4,8.4,0,0,1,.2-1.4,2.5,2.5,0,0,1,.2-.7c.1-.2.3-.3.6-.5l1-.8,1.9-.7a9.5,9.5,0,0,1,2.6-.4h2.7c.1,0,.2-.2.2-.6a3.1,3.1,0,0,0-.1-1.1v-1a18.2,18.2,0,0,1,0-2.5,2.2,2.2,0,0,1,.1-1,2.4,2.4,0,0,1,.9-.9,11.6,11.6,0,0,1,1.6-.3l1.6-.3,1.8-.4,2.5-.5,1.6-.6c.7-.4.9-.6,1-.8a2.8,2.8,0,0,0,.1-1,7.4,7.4,0,0,1,0-1.5,16.4,16.4,0,0,1,.4-2.5,4.9,4.9,0,0,1,.6-1.5,2.4,2.4,0,0,1,1.2-.6,11.6,11.6,0,0,1,2.7-.6l1.9-.2h.7c.4-.1.5-.1.7-.3s.1-.3.1-.9v-.9a22.1,22.1,0,0,1,.3-4.5c.1-1.4.1-1.3.1-1.6a2.8,2.8,0,0,1,.1-.6,1.6,1.6,0,0,1,.1-.4c0-.3.1-.3.1-.4h.6a5.9,5.9,0,0,1,1.5-.3l2.3-.5,2.1-.3h.6l.8-.2a4.2,4.2,0,0,0,.2-.6v-.8a5.8,5.8,0,0,1,.2-1c.1-.7,0-.7.1-1.5a4.2,4.2,0,0,1,.2-1.1,3,3,0,0,1,.4-.8,3,3,0,0,1,1.4-.7l2.7-.3h1.7a12,12,0,0,0,1.9,0c.4.1.7.1.9-.1s.1-.2.3-.9a2.8,2.8,0,0,1,.1-1,8.1,8.1,0,0,1,.2-.9,1.2,1.2,0,0,1,.2-.5c.2-.3.4-.5.6-.5s.9-.3,1.9-.3l1.7-.3,1.2-.3,1.2-.5a1.3,1.3,0,0,0,.6-.5c.2-.3.1-.5.2-1.6s.1-.6.2-1a3.8,3.8,0,0,1,.1-.8c.3-.5,1-.6,1.7-.6a7.6,7.6,0,0,1,1.6,0h1.1l1-.3,1.1-.5h2.7a6.3,6.3,0,0,0,1.9-.3l1.2-.3c.3-.1.6-.1.7-.4s.1-.1.1-.5l.2-1V843a1.8,1.8,0,0,1,.9-.9,22.6,22.6,0,0,1,5.4-1.4l2.8-.3h1.7c1.4-.1,1.5-.2,1.7-.4s.1-.2.1-1.9a6.2,6.2,0,0,0,.1-.9,5.7,5.7,0,0,1,0-1.3c0-.2.1-.4.1-.6l.2-.5.4-.6c.2-.3.6-.2,1.6-.2h1.1l1.9-.2,2.1-.6,1.9-.5c.8-.4,1-.6,1.1-.8s.1-.5.2-1.2.1-.6.1-1.6.1-1.1.2-1.9.2-1,.3-1.1.3-.1,1.4-.2h1.4l1.2-.2,2.8-.3h1.1l1.2-.2c.3-.2.3-.6.3-1.6s.1-1.1.1-1.7c0-2.8.1-3.2.4-3.4l1.1-.2,1.8-.2,1.2-.3,1.9-.4c1.1-.2,1.4-.2,1.5-.4s0-.3,0-.9a2.8,2.8,0,0,0,.1-.9,34.9,34.9,0,0,0,0-3.7,1.8,1.8,0,0,1,.2-1.1c.2-.2.5-.2,1.2-.4l1.2-.4a9.7,9.7,0,0,1,2-.5l2-.6,2-.4c1.2-.3,1.4-.4,1.6-.6s.1-.5.2-1.6.1-.8.2-2.3a8.4,8.4,0,0,1,.2-1.4c.1-.3.1-.6.3-.7s.5-.3.9-.4a8,8,0,0,0,1.5-.3l2.5-.5,1.5-.2h.6l.5-.2c.1-.1.1-.2.2-.5v-.4a2,2,0,0,0,.1-.7,10.8,10.8,0,0,0,.2-1.6c0-1,.1-1.9.1-2.8a3.1,3.1,0,0,0,.2-.7.6.6,0,0,1,.2-.5l.6-.2.8-.2,2.1-.5,2.1-.5.9-.2c.7-.2,1-.3,1.1-.5s.1-.3.2-.9.1-.5.1-.7.2-1.8.5-3.2l.2-.9a11.1,11.1,0,0,1,.3-1.3v-.2c0-.1,0-.1.1-.2h.4l1-.4,2.7-.9h.7c.7-.2.9-.1,1.1-.3a4.1,4.1,0,0,0,.4-.9,4.5,4.5,0,0,0,.1-.8c.2-1,.3-2.6.5-3.5a2.7,2.7,0,0,1,.2-1l.2-.5.5-.3h.7a18.7,18.7,0,0,0,3.2-.4,8.2,8.2,0,0,1,1.8-.3l1-.2h.6c.1-.1.1-.2.1-.4a4.3,4.3,0,0,1,.1-.5,6.8,6.8,0,0,1,.1-1.2c.1-.4.1-1.1.2-1.7a.8.8,0,0,1,.1-.3.6.6,0,0,1,.2-.5c0-.1.2-.1.4-.1h.4l1.7-.2,2.7-.5c1.3-.2,1.8-.3,2-.7v-2a17.4,17.4,0,0,1,.1-1.8,16.8,16.8,0,0,0,.2-2.3,1.3,1.3,0,0,1,.1-.6c0-.3,0-.4.1-.4s.2-.2.6-.2h1.1l.9-.2,2.6-.3,1.3-.2c1.4-.2,1.6-.5,1.7-.8v-.3c0-.6.1-.7.1-1v-.7c.1-1.1.1-2.2.1-2.2a13.4,13.4,0,0,0,0-2,1.8,1.8,0,0,1,.1-.5c0-.4,0-.5.2-.6s.1-.1.6-.1h1.3l1.9-.5,1.5-.6c1.9-.9,2.2-1.2,2.4-1.5s.1-.4.1-.8a9.6,9.6,0,0,0,0-2.4,2.8,2.8,0,0,1-.1-.9,2,2,0,0,1,.1-.9.6.6,0,0,1,.5-.2l1.7-.5,1.8-.6,1.4-.3h.8l1.2-.4h.3l.4-.2c.1-.1.1-.2.2-.6" transform="translate(-96.8 -24.5)" fill="none" stroke="#000" stroke-linecap="round" stroke-linejoin="round" stroke-width="0.71"/><path d="M1202.4,929.9c-.3,7.8-.6,14.2-.9,18.5-.3,6.1-.5,7.6-.8,13.7s-.3,8.1-.6,14.6-.5,9.6-.8,13.6l-45.4.8-96.3.8-99.9.9c-5.5.1-24.8.6-50.8.6h-13c-.9-5.4-1.5-9.9-1.8-13s-.7-6.3-1.4-10.8-.8-3.9-1.1-6.4-.3-5.5-.9-9.6c-.2-1.6-.5-3-.6-3.9" transform="translate(-96.8 -24.5)" fill="none" stroke="#000" stroke-linecap="round" stroke-linejoin="round" stroke-width="0.71" stroke-dasharray="5.67"/></g></svg>