<svg xmlns="http://www.w3.org/2000/svg" viewBox="0 0 218.2 317.2"><g id="scale"><path d="M235.7,320v9.9H94V320" transform="translate(-60.9 -13)" fill="none" stroke="#040000" stroke-miterlimit="10" stroke-width="0.5"/><line x1="61.4" y1="307" x2="61.4" y2="317" fill="none" stroke="#040000" stroke-miterlimit="10" stroke-width="0.5"/><line x1="89.8" y1="307" x2="89.8" y2="317" fill="none" stroke="#040000" stroke-miterlimit="10" stroke-width="0.5"/><line x1="118.1" y1="307" x2="118.1" y2="316.9" fill="none" stroke="#040000" stroke-miterlimit="10" stroke-width="0.5"/><line x1="146.5" y1="307" x2="146.5" y2="316.9" fill="none" stroke="#040000" stroke-miterlimit="10" stroke-width="0.5"/><text transform="translate(29.4 302.5)" font-size="14.17" fill="#040000" font-family="SimSun">0</text><text transform="translate(171.5 302.5)" font-size="14.17" fill="#040000" font-family="SimSun">5m</text></g><g id="outline"><path d="M64.6,85.6l4.7.4-.6,8.4,45.9,4.7c.4-12.8.9-25.5,1.3-38.3l47.1,1c0-1.9.1-3.8.2-5.6l10.5.5c.1,1.5.1,3,.1,4.4l11.5.3,2-46.8,22.4,1.5-1,40.6,19.6,1.4c-.8,13.4-1.7,26.8-2.5,40.2h53q-2.2,45.9-4.6,91.7l-32.1,1.2c-1,11.5-1.9,23.1-2.8,34.7l-27.8,1c-.5,10.8-1.1,21.6-1.7,32.4L206,259c-.2,2.3-.3,4.6-.4,6.9l-10.4-.4-.3,6.9-22.7-1.5c0-2,0-4.1.1-6.1l-8.9-.6c0,1.2-.1,2.4-.1,3.7l-18-1.4-.2-7.8-16.4-1.5c.3-13.6.6-27.2,1-40.9l-7.1-.2c-.1,2.9-.3,5.9-.5,8.8l-15.7-.7.3-8.6-5.7-.3,1.5-23.3-41.3-1.1L63,131.1C63.5,115.9,64,100.8,64.6,85.6Z" transform="translate(-60.9 -13)" fill="none" stroke="#000" stroke-linecap="round" stroke-linejoin="round" stroke-width="0.57"/><path d="M64.1,97.8H67" transform="translate(-60.9 -13)" fill="none" stroke="#000" stroke-linecap="round" stroke-linejoin="round" stroke-width="0.43"/><path d="M69.8,98c12.5.5,25.2.8,38,1h2.6" transform="translate(-60.9 -13)" fill="none" stroke="#000" stroke-linecap="round" stroke-linejoin="round" stroke-width="0.43" stroke-dasharray="5.6 2.8"/><path d="M111.8,99.1h2.8" transform="translate(-60.9 -13)" fill="none" stroke="#000" stroke-linecap="round" stroke-linejoin="round" stroke-width="0.43"/><path d="M138.9,61.3V58.4" transform="translate(-60.9 -13)" fill="none" stroke="#000" stroke-linecap="round" stroke-linejoin="round" stroke-width="0.43"/><path d="M139,55.8l1.2-38.4" transform="translate(-60.9 -13)" fill="none" stroke="#000" stroke-linecap="round" stroke-linejoin="round" stroke-width="0.43" stroke-dasharray="5.3 2.65"/><path d="M140.2,16V13.2h2.8" transform="translate(-60.9 -13)" fill="none" stroke="#000" stroke-linecap="round" stroke-linejoin="round" stroke-width="0.43"/><path d="M145.8,13.3l55,1.2" transform="translate(-60.9 -13)" fill="none" stroke="#000" stroke-linecap="round" stroke-linejoin="round" stroke-width="0.43" stroke-dasharray="5.37 2.69"/><path d="M202.2,14.6H205v2.9" transform="translate(-60.9 -13)" fill="none" stroke="#000" stroke-linecap="round" stroke-linejoin="round" stroke-width="0.43"/><path d="M204.9,20.1,204,58.9" transform="translate(-60.9 -13)" fill="none" stroke="#000" stroke-linecap="round" stroke-linejoin="round" stroke-width="0.43" stroke-dasharray="5.35 2.67"/><path d="M204,60.2a28.1,28.1,0,0,0-.1,2.9h2.8" transform="translate(-60.9 -13)" fill="none" stroke="#000" stroke-linecap="round" stroke-linejoin="round" stroke-width="0.43"/><path d="M209.2,63.2l13.5.5" transform="translate(-60.9 -13)" fill="none" stroke="#000" stroke-linecap="round" stroke-linejoin="round" stroke-width="0.43" stroke-dasharray="4.92 2.46"/><path d="M223.9,63.8h2.9v2.8" transform="translate(-60.9 -13)" fill="none" stroke="#000" stroke-linecap="round" stroke-linejoin="round" stroke-width="0.43"/><path d="M226.6,69.3c-.3,9.7-.5,19.4-.8,29.1" transform="translate(-60.9 -13)" fill="none" stroke="#000" stroke-linecap="round" stroke-linejoin="round" stroke-width="0.43" stroke-dasharray="5.07 2.54"/><path d="M225.7,99.7v2.8h2.8" transform="translate(-60.9 -13)" fill="none" stroke="#000" stroke-linecap="round" stroke-linejoin="round" stroke-width="0.43"/><path d="M231.3,102.7l41.3,1.3" transform="translate(-60.9 -13)" fill="none" stroke="#000" stroke-linecap="round" stroke-linejoin="round" stroke-width="0.43" stroke-dasharray="5.7 2.85"/><path d="M274.1,104.1h2.8c0,.9-.1,1.8-.1,2.8" transform="translate(-60.9 -13)" fill="none" stroke="#000" stroke-linecap="round" stroke-linejoin="round" stroke-width="0.43"/><path d="M276.7,109.8c-.8,25.1-1.7,50.1-2.5,75.1" transform="translate(-60.9 -13)" fill="none" stroke="#000" stroke-linecap="round" stroke-linejoin="round" stroke-width="0.43" stroke-dasharray="5.67 2.84"/><path d="M274.1,186.3a28.1,28.1,0,0,1-.1,2.9h-2.8" transform="translate(-60.9 -13)" fill="none" stroke="#000" stroke-linecap="round" stroke-linejoin="round" stroke-width="0.43"/><path d="M268.4,189l-40.8-1.1" transform="translate(-60.9 -13)" fill="none" stroke="#000" stroke-linecap="round" stroke-linejoin="round" stroke-width="0.43" stroke-dasharray="5.62 2.81"/><path d="M226.2,187.8h-2.8a28.1,28.1,0,0,1-.1,2.9" transform="translate(-60.9 -13)" fill="none" stroke="#000" stroke-linecap="round" stroke-linejoin="round" stroke-width="0.43"/><path d="M223.2,193.1l-.9,29" transform="translate(-60.9 -13)" fill="none" stroke="#000" stroke-linecap="round" stroke-linejoin="round" stroke-width="0.43" stroke-dasharray="5.05 2.52"/><path d="M222.3,223.3c0,1-.1,1.9-.1,2.9h-2.8" transform="translate(-60.9 -13)" fill="none" stroke="#000" stroke-linecap="round" stroke-linejoin="round" stroke-width="0.43"/><path d="M216.7,226.1l-6.9-.2" transform="translate(-60.9 -13)" fill="none" stroke="#000" stroke-linecap="round" stroke-linejoin="round" stroke-width="0.43" stroke-dasharray="5.46 2.73"/><path d="M208.5,225.9h-2.9a26.2,26.2,0,0,1-.1,2.8" transform="translate(-60.9 -13)" fill="none" stroke="#000" stroke-linecap="round" stroke-linejoin="round" stroke-width="0.43"/><path d="M205.4,231.5c-.3,8-.5,16-.8,24.1" transform="translate(-60.9 -13)" fill="none" stroke="#000" stroke-linecap="round" stroke-linejoin="round" stroke-width="0.43" stroke-dasharray="5.68 2.84"/><path d="M204.5,257c0,.9-.1,1.9-.1,2.8h-2.8" transform="translate(-60.9 -13)" fill="none" stroke="#000" stroke-linecap="round" stroke-linejoin="round" stroke-width="0.43"/><path d="M198.7,259.7l-66.4-1.8" transform="translate(-60.9 -13)" fill="none" stroke="#000" stroke-linecap="round" stroke-linejoin="round" stroke-width="0.43" stroke-dasharray="5.66 2.83"/><path d="M130.9,257.9H128c0-.9.1-1.9.1-2.8" transform="translate(-60.9 -13)" fill="none" stroke="#000" stroke-linecap="round" stroke-linejoin="round" stroke-width="0.43"/><path d="M128.1,252.2c.2-8.1.3-16.1.5-24.2" transform="translate(-60.9 -13)" fill="none" stroke="#000" stroke-linecap="round" stroke-linejoin="round" stroke-width="0.43" stroke-dasharray="5.67 2.84"/><path d="M128.6,226.6v-2.8h-2.8" transform="translate(-60.9 -13)" fill="none" stroke="#000" stroke-linecap="round" stroke-linejoin="round" stroke-width="0.43"/><path d="M123,223.6l-7-.3" transform="translate(-60.9 -13)" fill="none" stroke="#000" stroke-linecap="round" stroke-linejoin="round" stroke-width="0.43" stroke-dasharray="5.59 2.8"/><path d="M114.6,223.2h-2.8a25.3,25.3,0,0,1,.1-2.8" transform="translate(-60.9 -13)" fill="none" stroke="#000" stroke-linecap="round" stroke-linejoin="round" stroke-width="0.43"/><path d="M111.9,217.7c.3-9.6.5-19.3.8-28.9" transform="translate(-60.9 -13)" fill="none" stroke="#000" stroke-linecap="round" stroke-linejoin="round" stroke-width="0.43" stroke-dasharray="5.04 2.52"/><path d="M112.7,187.5c0-.9.1-1.9.1-2.8H110" transform="translate(-60.9 -13)" fill="none" stroke="#000" stroke-linecap="round" stroke-linejoin="round" stroke-width="0.43"/><path d="M107.1,184.5,65.7,183" transform="translate(-60.9 -13)" fill="none" stroke="#000" stroke-linecap="round" stroke-linejoin="round" stroke-width="0.43" stroke-dasharray="5.71 2.86"/><path d="M64.3,183H61.5" transform="translate(-60.9 -13)" fill="none" stroke="#000" stroke-linecap="round" stroke-linejoin="round" stroke-width="0.43"/></g></svg>