<svg xmlns="http://www.w3.org/2000/svg" xmlns:xlink="http://www.w3.org/1999/xlink" viewBox="0 0 438.3 281"><defs><pattern id="_10_lpi_10_" data-name="10 lpi 10%" width="72" height="72" patternTransform="translate(86.9 -7.8) rotate(45)" patternUnits="userSpaceOnUse" viewBox="0 0 72 72"><rect width="72" height="72" fill="none"/><line x1="71.8" y1="68.4" x2="144.3" y2="68.4" fill="none" stroke="#231815" stroke-width="0.28"/><line x1="71.8" y1="54" x2="144.3" y2="54" fill="none" stroke="#231815" stroke-width="0.28"/><line x1="71.8" y1="39.6" x2="144.3" y2="39.6" fill="none" stroke="#231815" stroke-width="0.28"/><line x1="71.8" y1="25.2" x2="144.3" y2="25.2" fill="none" stroke="#231815" stroke-width="0.28"/><line x1="71.8" y1="10.8" x2="144.3" y2="10.8" fill="none" stroke="#231815" stroke-width="0.28"/><line x1="71.8" y1="61.2" x2="144.3" y2="61.2" fill="none" stroke="#231815" stroke-width="0.28"/><line x1="71.8" y1="46.8" x2="144.3" y2="46.8" fill="none" stroke="#231815" stroke-width="0.28"/><line x1="71.8" y1="32.4" x2="144.3" y2="32.4" fill="none" stroke="#231815" stroke-width="0.28"/><line x1="71.8" y1="18" x2="144.3" y2="18" fill="none" stroke="#231815" stroke-width="0.28"/><line x1="71.8" y1="3.6" x2="144.3" y2="3.6" fill="none" stroke="#231815" stroke-width="0.28"/><line x1="-0.3" y1="68.4" x2="72.3" y2="68.4" fill="none" stroke="#231815" stroke-width="0.28"/><line x1="-0.3" y1="54" x2="72.3" y2="54" fill="none" stroke="#231815" stroke-width="0.28"/><line x1="-0.3" y1="39.6" x2="72.3" y2="39.6" fill="none" stroke="#231815" stroke-width="0.28"/><line x1="-0.3" y1="25.2" x2="72.3" y2="25.2" fill="none" stroke="#231815" stroke-width="0.28"/><line x1="-0.3" y1="10.8" x2="72.3" y2="10.8" fill="none" stroke="#231815" stroke-width="0.28"/><line x1="-0.3" y1="61.2" x2="72.3" y2="61.2" fill="none" stroke="#231815" stroke-width="0.28"/><line x1="-0.3" y1="46.8" x2="72.3" y2="46.8" fill="none" stroke="#231815" stroke-width="0.28"/><line x1="-0.3" y1="32.4" x2="72.3" y2="32.4" fill="none" stroke="#231815" stroke-width="0.28"/><line x1="-0.3" y1="18" x2="72.3" y2="18" fill="none" stroke="#231815" stroke-width="0.28"/><line x1="-0.3" y1="3.6" x2="72.3" y2="3.6" fill="none" stroke="#231815" stroke-width="0.28"/><line y1="72" x2="72.5" y2="72" fill="none" stroke="#231815" stroke-width="0.28"/><line y1="57.6" x2="72.5" y2="57.6" fill="none" stroke="#231815" stroke-width="0.28"/><line y1="43.2" x2="72.5" y2="43.2" fill="none" stroke="#231815" stroke-width="0.28"/><line y1="28.8" x2="72.5" y2="28.8" fill="none" stroke="#231815" stroke-width="0.28"/><line y1="14.4" x2="72.5" y2="14.4" fill="none" stroke="#231815" stroke-width="0.28"/><line y1="64.8" x2="72.5" y2="64.8" fill="none" stroke="#231815" stroke-width="0.28"/><line y1="50.4" x2="72.5" y2="50.4" fill="none" stroke="#231815" stroke-width="0.28"/><line y1="36" x2="72.5" y2="36" fill="none" stroke="#231815" stroke-width="0.28"/><line y1="21.6" x2="72.5" y2="21.6" fill="none" stroke="#231815" stroke-width="0.28"/><line y1="7.2" x2="72.5" y2="7.2" fill="none" stroke="#231815" stroke-width="0.28"/><line x1="-72.3" y1="68.4" x2="0.3" y2="68.4" fill="none" stroke="#231815" stroke-width="0.28"/><line x1="-72.3" y1="54" x2="0.3" y2="54" fill="none" stroke="#231815" stroke-width="0.28"/><line x1="-72.3" y1="39.6" x2="0.3" y2="39.6" fill="none" stroke="#231815" stroke-width="0.28"/><line x1="-72.3" y1="25.2" x2="0.3" y2="25.2" fill="none" stroke="#231815" stroke-width="0.28"/><line x1="-72.3" y1="10.8" x2="0.3" y2="10.8" fill="none" stroke="#231815" stroke-width="0.28"/><line x1="-72.3" y1="61.2" x2="0.3" y2="61.2" fill="none" stroke="#231815" stroke-width="0.28"/><line x1="-72.3" y1="46.8" x2="0.3" y2="46.8" fill="none" stroke="#231815" stroke-width="0.28"/><line x1="-72.3" y1="32.4" x2="0.3" y2="32.4" fill="none" stroke="#231815" stroke-width="0.28"/><line x1="-72.3" y1="18" x2="0.3" y2="18" fill="none" stroke="#231815" stroke-width="0.28"/><line x1="-72.3" y1="3.6" x2="0.3" y2="3.6" fill="none" stroke="#231815" stroke-width="0.28"/><line x1="-72" y1="72" x2="0.5" y2="72" fill="none" stroke="#231815" stroke-width="0.28"/><line x1="-72" y1="57.6" x2="0.5" y2="57.6" fill="none" stroke="#231815" stroke-width="0.28"/><line x1="-72" y1="43.2" x2="0.5" y2="43.2" fill="none" stroke="#231815" stroke-width="0.28"/><line x1="-72" y1="28.8" x2="0.5" y2="28.8" fill="none" stroke="#231815" stroke-width="0.28"/><line x1="-72" y1="14.4" x2="0.5" y2="14.4" fill="none" stroke="#231815" stroke-width="0.28"/><line x1="-72" y1="64.8" x2="0.5" y2="64.8" fill="none" stroke="#231815" stroke-width="0.28"/><line x1="-72" y1="50.4" x2="0.5" y2="50.4" fill="none" stroke="#231815" stroke-width="0.28"/><line x1="-72" y1="36" x2="0.5" y2="36" fill="none" stroke="#231815" stroke-width="0.28"/><line x1="-72" y1="21.6" x2="0.5" y2="21.6" fill="none" stroke="#231815" stroke-width="0.28"/><line x1="-72" y1="7.2" x2="0.5" y2="7.2" fill="none" stroke="#231815" stroke-width="0.28"/><line x2="72.5" fill="none" stroke="#231815" stroke-width="0.28"/><line x1="-72" x2="0.5" fill="none" stroke="#231815" stroke-width="0.28"/></pattern></defs><g id="scael-1:1"><path d="M370.6,236.8v9.9H228.9v-9.9" transform="translate(-18.8 -15.2)" fill="none" stroke="#040000" stroke-miterlimit="10" stroke-width="0.5"/><line x1="238.5" y1="221.5" x2="238.5" y2="231.5" fill="none" stroke="#040000" stroke-miterlimit="10" stroke-width="0.5"/><line x1="266.8" y1="221.5" x2="266.8" y2="231.5" fill="none" stroke="#040000" stroke-miterlimit="10" stroke-width="0.5"/><line x1="295.2" y1="221.5" x2="295.2" y2="231.5" fill="none" stroke="#040000" stroke-miterlimit="10" stroke-width="0.5"/><line x1="323.5" y1="221.5" x2="323.5" y2="231.5" fill="none" stroke="#040000" stroke-miterlimit="10" stroke-width="0.5"/><text transform="translate(206.5 217.1)" font-size="14.17" fill="#040000" font-family="AdobeMingStd-Light-B5pc-H, Adobe Ming Std">0</text><text transform="translate(348.5 217.1)" font-size="14.17" fill="#040000" font-family="AdobeMingStd-Light-B5pc-H, Adobe Ming Std">5cm</text></g><g id="outline"><path d="M111.4,254.1c0,.4.1.7,0,.9s-.3.1-.6.2l-.5.5a1.8,1.8,0,0,0,.2,1.1l.5.6c.2.4.3.5.3.6a1.1,1.1,0,0,1,0,.8,5.1,5.1,0,0,1-.2.9l-.5.6a.9.9,0,0,1-.3.5c-.5.6-.7.7-.6.9a.6.6,0,0,0,.2.4l.2.4a3.1,3.1,0,0,1-.1,2.1,7.3,7.3,0,0,1-.6,1.4,2.1,2.1,0,0,1-.9,1.1h-.6l-.4.3a.8.8,0,0,0,.2.9c.2.4.4.4.5.7s-.1.3-.2.6a11.7,11.7,0,0,1-.5,1.1l-1,1.9-.9,1.6c-2,3.2-1.9,3.1-2.5,3.9a30,30,0,0,1-3,3.6l-.5.5c-.4.5-.4.5-.6.6s-.3,0-.8,0-1-.1-1.2.1,0,.3-.1.9a1.5,1.5,0,0,1-.2.8,1.7,1.7,0,0,1-.7.8,2.4,2.4,0,0,1-.9.8l-.7.6c-.3.1-.4,0-1.2-.2a1.2,1.2,0,0,0-1-.1c-.2.1-.3.3-.5.8l-.2.5a1.6,1.6,0,0,1-.4.7l-.7.5-1,.7-1,.6-1.5-.2H85.8l-.4.3c-.2.2-.1.4-.2.8a6.3,6.3,0,0,1-.4.9,2.4,2.4,0,0,1-1,.6l-1,.4a41.8,41.8,0,0,1-5.5,1.7,21.4,21.4,0,0,1-4.3.7l-1.7.2H69a1,1,0,0,1-.6-.5c-.3-.3-.3-.5-.5-.6h-1c-.2.1-.2.3-.5.5l-.5.3h-1l-.8-.2a2.8,2.8,0,0,0-.1-.5c-.1-.3-.1-.4-.2-.5s-.4-.2-1-.2l-1.4-.3a2.4,2.4,0,0,0-1.2,0l-.4.2a1.4,1.4,0,0,0-.4.4c-.3.2-.6.1-1,.1l-.8-.3-.6-.5-.3-.4a4.7,4.7,0,0,0-1-1,1.8,1.8,0,0,0-1-.4l-1.1.5-.5.2h-.6l-1-.3-4.1-1.8-2.6-1.2-1.9-1.3-1.3-1L40.4,286l-.6-.9c-.8-1-1-1-1.6-1.8l-.9-1.3-.8-1.1-.7-1a8.9,8.9,0,0,0-.5-1c-.4-.9-.7-1.2-1.2-2.2l-1.3-2.8-4.1-9.4c-1-2.1-4.1-8.6-5.2-11.1a11.5,11.5,0,0,0-.5-1.5,7.1,7.1,0,0,1-.4-2.7c0-.2.1-.5.1-1v-2a7.8,7.8,0,0,1,.2-1.4,5.5,5.5,0,0,1,.3-1.7,14.5,14.5,0,0,1,1.1-3,3.9,3.9,0,0,0,.4-.9A3.5,3.5,0,0,0,25,238l.3-1.6.5-1.4a10.2,10.2,0,0,0,.6-2.1,13.2,13.2,0,0,1,2-4,17.3,17.3,0,0,1,2.1-3.3,36.3,36.3,0,0,1,4.5-5.5c1-1,2-1.8,2.7-2.4l2.5-2,2.2-1.6c.1-.2.2-.2.4-.3l.5-.2.5.2.4.2a1.2,1.2,0,0,0,1.3-.1.4.4,0,0,0,.2-.4v-.3c0-.4-.1-.4-.1-.5a1,1,0,0,1,.6-.5l.9-.5.9-.3h.4c.4,0,.6.3.8.4h1c.2-.2.2-.4.5-.9a4.5,4.5,0,0,1,.6-.9,2.8,2.8,0,0,1,.9-.5H53l.8-.2c.2.1.1.2.5.4l.6.3h1.4c0-.1.2-.2.3-.3a.9.9,0,0,0,.1-.5,3.1,3.1,0,0,1,.2-.7h.6l1-.3c.5-.1.6-.2.8-.1l.3.2.7.4H61a1.1,1.1,0,0,0,.8-.2v-.7h.8c.3-.1-.3-.1.9-.2h3.7l3.4.2,1.6.2,4.2.6a57.4,57.4,0,0,1,6.2,2l.5.2.6.2c.2.2.1.3.3.7s.2.4.6.7l.9.5.6.2c.3,0,.4-.3.8-.4h.7l1.5.6,1.4.6a3,3,0,0,1,.9,1l.3.6c.2.5.2.7.4.8h1.1a2.7,2.7,0,0,1,1.1.5c.2.2.3.3.3.5a7.6,7.6,0,0,1,.8,1.5l1.7,3.2,1.4,2.5c1.8,3.6,4,8.5,5.1,10.9l2.8,5.9a18.2,18.2,0,0,1,1.3,2.4c.1.3.5,1.1.9,2.2a31.6,31.6,0,0,1,1.6,4.3l.8,2.8C111.4,253.8,111.2,253.2,111.4,254.1Zm-23.8.5a16.5,16.5,0,0,0,0-5.2,21.5,21.5,0,0,0-2.9-8.1,20.8,20.8,0,0,0-3.8-4.6,21.5,21.5,0,0,0-6.6-4,22.3,22.3,0,0,0-5.4-1.2,21,21,0,0,0-7.3.8,25.5,25.5,0,0,0-2.5.8l-2.9,1.5a23.9,23.9,0,0,0-4.3,3.8c-.3.4-.9,1-1.5,1.9a18.2,18.2,0,0,0-2.6,5.6,16.5,16.5,0,0,0-.3,9.9,20.4,20.4,0,0,0,1.7,5.1,24.9,24.9,0,0,0,2,3.4,16.5,16.5,0,0,0,4,3.6,19.6,19.6,0,0,0,3.5,2.2,21.3,21.3,0,0,0,5.1,1.6,22.4,22.4,0,0,0,4.1.3h2.8A14.4,14.4,0,0,0,74,271a18.6,18.6,0,0,0,4.2-2,19.8,19.8,0,0,0,5.8-5.2,20.9,20.9,0,0,0,2.9-6A23.4,23.4,0,0,0,87.6,254.6Z" transform="translate(-18.8 -15.2)" fill="url(#_10_lpi_10_)"/><path d="M111.4,255c-.2.2-.3.1-.6.2l-.5.5a1.8,1.8,0,0,0,.2,1.1l.5.6c.2.4.3.5.3.6a1.1,1.1,0,0,1,0,.8,5.1,5.1,0,0,1-.2.9l-.5.6a.9.9,0,0,1-.3.5c-.5.6-.7.7-.6.9a.6.6,0,0,0,.2.4l.2.4a3.1,3.1,0,0,1-.1,2.1,7.3,7.3,0,0,1-.6,1.4,2.1,2.1,0,0,1-.9,1.1h-.6l-.4.3a.8.8,0,0,0,.2.9c.2.4.4.4.5.7s-.1.3-.2.6a11.7,11.7,0,0,1-.5,1.1l-1,1.9-.9,1.6c-2,3.2-1.9,3.1-2.5,3.9a30,30,0,0,1-3,3.6l-.5.5c-.4.5-.4.5-.6.6s-.3,0-.8,0-1-.1-1.2.1,0,.3-.1.9a1.5,1.5,0,0,1-.2.8,1.7,1.7,0,0,1-.7.8,2.4,2.4,0,0,1-.9.8l-.7.6c-.3.1-.4,0-1.2-.2a1.2,1.2,0,0,0-1-.1c-.2.1-.3.3-.5.8l-.2.5a1.6,1.6,0,0,1-.4.7l-.7.5-1,.7-1,.6-1.5-.2H85.8l-.4.3c-.2.2-.1.4-.2.8a6.3,6.3,0,0,1-.4.9,2.4,2.4,0,0,1-1,.6l-1,.4a41.8,41.8,0,0,1-5.5,1.7,21.4,21.4,0,0,1-4.3.7l-1.7.2H69a1,1,0,0,1-.6-.5c-.3-.3-.3-.5-.5-.6h-1c-.2.1-.2.3-.5.5l-.5.3h-1l-.8-.2a2.8,2.8,0,0,0-.1-.5c-.1-.3-.1-.4-.2-.5s-.4-.2-1-.2l-1.4-.3a2.4,2.4,0,0,0-1.2,0l-.4.2a1.4,1.4,0,0,0-.4.4c-.3.2-.6.1-1,.1l-.8-.3-.6-.5-.3-.4a4.7,4.7,0,0,0-1-1,1.8,1.8,0,0,0-1-.4l-1.1.5-.5.2h-.6l-1-.3-4.1-1.8-2.6-1.2-1.9-1.3-1.3-1L40.4,286l-.6-.9c-.8-1-1-1-1.6-1.8l-.9-1.3-.8-1.1-.7-1a8.9,8.9,0,0,0-.5-1c-.4-.9-.7-1.2-1.2-2.2l-1.3-2.8-4.1-9.4c-1-2.1-4.1-8.6-5.2-11.1a11.5,11.5,0,0,0-.5-1.5,7.1,7.1,0,0,1-.4-2.7c0-.2.1-.5.1-1v-2a7.8,7.8,0,0,1,.2-1.4,5.5,5.5,0,0,1,.3-1.7,14.5,14.5,0,0,1,1.1-3,3.9,3.9,0,0,0,.4-.9A3.5,3.5,0,0,0,25,238l.3-1.6.5-1.4a10.2,10.2,0,0,0,.6-2.1,13.2,13.2,0,0,1,2-4,17.3,17.3,0,0,1,2.1-3.3,36.3,36.3,0,0,1,4.5-5.5c1-1,2-1.8,2.7-2.4l2.5-2,2.2-1.6c.1-.2.2-.2.4-.3l.5-.2.5.2.4.2a1.2,1.2,0,0,0,1.3-.1.4.4,0,0,0,.2-.4v-.3c0-.4-.1-.4-.1-.5a1,1,0,0,1,.6-.5l.9-.5.9-.3h.4c.4,0,.6.3.8.4h1c.2-.2.2-.4.5-.9a4.5,4.5,0,0,1,.6-.9,2.8,2.8,0,0,1,.9-.5H53l.8-.2c.2.1.1.2.5.4l.6.3h1.4c0-.1.2-.2.3-.3a.9.9,0,0,0,.1-.5,3.1,3.1,0,0,1,.2-.7h.6l1-.3c.5-.1.6-.2.8-.1l.3.2.7.4H61a1.1,1.1,0,0,0,.8-.2v-.7h.8c.3-.1-.3-.1.9-.2h3.7l3.4.2,1.6.2,4.2.6a57.4,57.4,0,0,1,6.2,2l.5.2.6.2c.2.2.1.3.3.7s.2.4.6.7l.9.5.6.2c.3,0,.4-.3.8-.4h.7l1.5.6,1.4.6a3,3,0,0,1,.9,1l.3.6c.2.5.2.7.4.8h1.1a2.7,2.7,0,0,1,1.1.5c.2.2.3.3.3.5a7.6,7.6,0,0,1,.8,1.5l1.7,3.2,1.4,2.5c1.8,3.6,4,8.5,5.1,10.9l2.8,5.9a18.2,18.2,0,0,1,1.3,2.4c.1.3.5,1.1.9,2.2a31.6,31.6,0,0,1,1.6,4.3l.8,2.8c.2,1.1,0,.5.2,1.4S111.5,254.8,111.4,255Z" transform="translate(-18.8 -15.2)" fill="none" stroke="#000" stroke-miterlimit="10" stroke-width="0.57"/><path d="M87.6,249.4a16.5,16.5,0,0,1,0,5.2,23.4,23.4,0,0,1-.7,3.2,20.9,20.9,0,0,1-2.9,6,19.8,19.8,0,0,1-5.8,5.2,18.6,18.6,0,0,1-4.2,2,14.4,14.4,0,0,1-3.3.9H67.9a22.4,22.4,0,0,1-4.1-.3,21.3,21.3,0,0,1-5.1-1.6,19.6,19.6,0,0,1-3.5-2.2,16.5,16.5,0,0,1-4-3.6,24.9,24.9,0,0,1-2-3.4,20.4,20.4,0,0,1-1.7-5.1,16.5,16.5,0,0,1,.3-9.9,18.2,18.2,0,0,1,2.6-5.6c.6-.9,1.2-1.5,1.5-1.9a23.9,23.9,0,0,1,4.3-3.8l2.9-1.5a25.5,25.5,0,0,1,2.5-.8,21,21,0,0,1,7.3-.8,22.3,22.3,0,0,1,5.4,1.2,21.5,21.5,0,0,1,6.6,4,20.8,20.8,0,0,1,3.8,4.6A21.5,21.5,0,0,1,87.6,249.4Z" transform="translate(-18.8 -15.2)" fill="none" stroke="#000" stroke-miterlimit="10" stroke-width="0.43"/><path d="M82.4,252.7a15.2,15.2,0,0,1-1.7,6.3,14.9,14.9,0,0,1-4.1,4.7,20,20,0,0,1-3.6,2.1,15.8,15.8,0,0,1-6.4,1,14.2,14.2,0,0,1-5.7-1.3,12.7,12.7,0,0,1-3-2,14.6,14.6,0,0,1-4.7-6.2,15.9,15.9,0,0,1-.9-6.3,16.4,16.4,0,0,1,1.5-5.7,15.1,15.1,0,0,1,5-5.8,15.9,15.9,0,0,1,7.2-2.7,15.9,15.9,0,0,1,10.4,3.1,14.7,14.7,0,0,1,4.9,6.4A14.3,14.3,0,0,1,82.4,252.7Z" transform="translate(-18.8 -15.2)" fill="none" stroke="#000" stroke-miterlimit="10" stroke-width="0.43"/><path d="M23.7,120.9l-4.2.3v-1.4h5l2.3-.2H48.4l4.2-.2h4.3l3.3.2,2.5-.2H105a13.1,13.1,0,0,0,2,0h3.2c0,.5-.1.7-.1,1.1s.2.2.2.5a.4.4,0,0,1,.1.3,22.8,22.8,0,0,0-4.6,0H80.3c-5.1,0-6.4-.2-11.3-.3H23.7Z" transform="translate(-18.8 -15.2)"/><path d="M105.5,106.3c.2-.7,0-.8.2-1.7v-.5c.1-.4.1-.5.2-.8v-.5c.2-1.4.3-2.7.3-2.7.3-3.4.3-3.4.5-6s.1-1.8.1-2.3,0-1.9.1-3a7.3,7.3,0,0,0,.2-1.5c.2-1.6.3-2.8.4-4.2s.1-.9.2-1.9.1-1.5.1-2a20.7,20.7,0,0,1,.6-2.4,26.3,26.3,0,0,0,.1,3,6.9,6.9,0,0,1,.2,1.3c-.2,1.6-.4,3.1-.5,4.3a4.9,4.9,0,0,0-.1,1.2c-.2,2.2-.4,2.8-.5,4.2v1.8c-.1.9-.1,2.2-.3,3.7s-.1,1.1-.3,2.6a17.4,17.4,0,0,0-.1,1.8,17.9,17.9,0,0,0-.1,2.1,18.1,18.1,0,0,0-.2,2.5v1h.8c.9.1,1.1,0,1.2-.1l.4-.2c.2-.2.5-.4.6-.6s.1.8.1,1.1a10.5,10.5,0,0,1,.1,1.2h-3.1c-.7,0-1,.1-1.2-.1s-.1-.3-.1-.6A3.8,3.8,0,0,1,105.5,106.3Z" transform="translate(-18.8 -15.2)"/><path d="M102.9,107a15.5,15.5,0,0,0,.3-1.7l.2-2.2a5.8,5.8,0,0,0,.2-1,9.6,9.6,0,0,0,0-1.7,8.9,8.9,0,0,1,.2-1.5,14.9,14.9,0,0,1,.2-1.7l.4-2.6a13,13,0,0,1,.3-1.3c.2-.9.3-1,.4-1.5l.2-1.6a14.9,14.9,0,0,0,.1-1.9c0-2.2.1-4.2.1-5.2s.2-1.4.2-2.4-.1-2.4-.1-4.3c.1-.1.1-.2.2-1.7.2-3.7.3-4.4.4-5.4a17.3,17.3,0,0,1,.4-2.7,15.7,15.7,0,0,1,.3-1.6c.5,3.8.8,5.7.9,6.3a17.6,17.6,0,0,1,.4,2.8c0,.4.1.9.1,1.7q-.5-1.8-.6-2.7l-.3-1.3c-.1-.8-.1-1.5-.3-1.5h-.2a.6.6,0,0,0-.1.4,3.3,3.3,0,0,1,0,1v1.1a3.8,3.8,0,0,0-.1.8,13.8,13.8,0,0,1-.1,1.4c0,1.2-.1,1.9-.1,2.6a20.8,20.8,0,0,1,0,2.5,16,16,0,0,0,0,2.2v1.5a6.2,6.2,0,0,1-.1,1.2,16,16,0,0,1-.2,2.8c0,.6-.1.5-.1,1s0,1.2-.1,2.1a10.9,10.9,0,0,1-.1,1.9c-.1.8-.2,1-.4,2.1a8.3,8.3,0,0,1-.1,1.2,13.2,13.2,0,0,1-.2,1.6c-.1.5-.2.4-.3,1a12.3,12.3,0,0,0-.4,2.1l-.2,1.3c-.2,1.9-.4,2.2-.5,3.8v1c-.1,1.5-.1,2.2-.1,2.7s-.2,1.1,0,1.4h1l2.1-.2.9-.2a1.5,1.5,0,0,0,.6-.4l.5-.3c.3-.3.3-.5.5-1a2.3,2.3,0,0,1,.5-.7,2.8,2.8,0,0,1-.1.9c-.2,1-.5,1.1-.5,1.8a2.1,2.1,0,0,0,.1.6l-1.5.5h-.7a12.3,12.3,0,0,0-2,.2h-2.2c-.2-.1-.2-.4-.2-.7a6.8,6.8,0,0,1-.1-1.2,14.4,14.4,0,0,1,.1-1.8A10.6,10.6,0,0,0,102.9,107Z" transform="translate(-18.8 -15.2)"/><path d="M98,116a5,5,0,0,1,.3-1.4c.2-1.1.7-3,1-4.8a27.8,27.8,0,0,1,.8-3.5c.1-.3.3-.8.5-1.5a5.6,5.6,0,0,1,.2-1.2c.1-.9.2-1.2.2-1.4a5.4,5.4,0,0,0,.3-1,23.6,23.6,0,0,0,.3-2.9,2.5,2.5,0,0,1,.1-.9,6.8,6.8,0,0,1,.3-1.2c.1-.4.1-.9.2-1.8s.2-2.1.4-3.3.1-.7.1-1.1a3.6,3.6,0,0,0,.2-1,3.4,3.4,0,0,0,.1-.9c-.1-1.1.1-1.5.1-3.5a14.7,14.7,0,0,1,0-2.1,2.8,2.8,0,0,1,.1-.8V80.5a6.2,6.2,0,0,0-.1-1.9,28.1,28.1,0,0,1,0-3c0-.5.1-1.1.1-2.2a17,17,0,0,0,.1-2.1V70.1c0-1,.1-.9.1-1.7a9.6,9.6,0,0,1,0-1.7c0-.2.1-.3.1-.6a5.7,5.7,0,0,0,.1-1.2v-2a60.4,60.4,0,0,0-.2-6.4c-.2-1.3-.2-2-.4-2.8s-.4-1.6-.7-3.2-.2-1.1-.4-2l-.4-2-.3-1.5a2.2,2.2,0,0,1-.2-.9c0-.4.1-.5.1-.5s.5,0,.6,0h0l.5,1.2c.6,1.4,1,2.7,1.4,3.8-.5-.8-1-1.6-1.1-1.5s.3,1.2.8,2.8a28,28,0,0,1,1,4.8,32,32,0,0,1,.2,5,26.2,26.2,0,0,1,0,4c0,3.5-.2,4.6-.3,8.9s0,2.7-.1,3.5a14.7,14.7,0,0,0,0,2.1,4.1,4.1,0,0,1,.2,1v2.5a.9.9,0,0,1-.1.5c-.1.3-.2.3-.4.6v.6c0,.7.2,1.8.2,2.3a20.6,20.6,0,0,1-.2,2.6,12.5,12.5,0,0,0-.1,1.4,8.1,8.1,0,0,0-.3,1.1v.6a24.7,24.7,0,0,1-.3,3.5c0,.4-.1.7-.1,1.1s-.2.9-.4,1.7a10.4,10.4,0,0,0-.2,1.5c-.2,1.2-.2,1.5-.3,2.4l-.4,1.8c-.6,2.3-.7,2.6-1,4a15,15,0,0,0-.3,1.8c-.1.8-.1,1-.2,1.6a19.1,19.1,0,0,1-.5,2.1c-.4,1.6-.6,2.4-.7,2.6a20.6,20.6,0,0,0-.5,3.6H97.3a4.6,4.6,0,0,0,.3-.9C97.8,117.4,97.8,116.9,98,116Z" transform="translate(-18.8 -15.2)"/><path d="M20.3,111.5h-.8v-1.3H22c.9.1.5,0,.8,0H23c.1-.1,0-.3,0-.4a2.4,2.4,0,0,0-.1-.9l-.3-1.1a9.3,9.3,0,0,1-.4-1.3,13.7,13.7,0,0,1-.2-1.6,48,48,0,0,0-.7-4.8c-.1-.8-.2-.8-.3-1.6s-.2-1.4-.4-2.5a5.2,5.2,0,0,1-.2-1.1c-.1-.6-.1-.8-.2-1.4a3,3,0,0,0-.2-1,19.4,19.4,0,0,1-.4-2.4h0V85.9q.6,3,.9,4.8a37.3,37.3,0,0,0,.8,4.1l.3,1.5c.2.8.2,1.3.4,2.5a9.9,9.9,0,0,0,.3,1.7c.4,3,.4,3,.5,3.9s.1.7.2,1.1a13.6,13.6,0,0,0,.4,1.7,7.5,7.5,0,0,0,.2,1.1,3.6,3.6,0,0,0,.4,1.1,11.3,11.3,0,0,1,.2,1.2v.6H20.3Z" transform="translate(-18.8 -15.2)"/><path d="M21,59c.3,2.8.5,4.6.6,5.8s.1,1.4.3,2.8a19.2,19.2,0,0,1,.1,2c.2,2.3.5,4.1.9,8.2s.4,4.4.7,6.5.3,1.7.4,3.1.2,1.7.3,2.8a21.8,21.8,0,0,0,.5,2.9c.4,2.2.3,2.4.7,4.8s.4,2.2,1,5.7c.3,1.5.6,3,.8,4.5s.1.6.2,1.3a14,14,0,0,0,.6,2.4,7.6,7.6,0,0,1,.4,1.1c.2.8.2,1.2.3,1.7a14.4,14.4,0,0,0,.6,2.7,12.9,12.9,0,0,1,.6,2.2H29c-.5-1.6-.8-2.9-1-3.8s-.3-1.6-.7-3-.5-1.6-.8-3l-.7-3.4a18.8,18.8,0,0,1-.3-1.9c-.2-1.1-.2-1.6-.4-2.6s-.2-.5-.3-1-.1-1-.2-1.8a6.4,6.4,0,0,0-.2-.9c-.2-1.2-.6-3-.7-3.9s-.3-2.6-.7-5.7a14,14,0,0,0-.2-1.8,6.2,6.2,0,0,0-.3-1.6c-.1-.1-.1-.3-.2-.6s-.1-.6-.2-.9V82.3a28.3,28.3,0,0,1-.2-2.9,26.2,26.2,0,0,0-.4-4.3c-.3-3.4-.8-6.7-1.1-8.6s.1-2.5.2-3.8S20.8,60.8,21,59Z" transform="translate(-18.8 -15.2)"/><path d="M23.7,61.5c-.1-1.2-.3-4.1-.3-10.9l1.1-2.3v4.3a8.6,8.6,0,0,1,.1,1.6,7.6,7.6,0,0,0-.1,1.6c0,.3.1.5.1.7a7.8,7.8,0,0,0,.2,1.6,14.4,14.4,0,0,1,.1,1.8c0,.4-.1.7-.1,1.3s.1.3,0,.7a3.1,3.1,0,0,0,.1,1.1l.2.5a3.5,3.5,0,0,1,.1,1.2v.5c.1,1.5-.1,2.1.1,3.4a6.4,6.4,0,0,1,.2.9,12.8,12.8,0,0,1,.1,1.8c.1.6.2,1.7.3,2.8a12.5,12.5,0,0,1,.3,1.9,26,26,0,0,1,.3,2.6c.1,1.5.1,1.6.2,2.9s.1.9.3,2.8c0,0,.1,1.5.3,3.6s.3,2.7.4,3.9c.3,3.2.2,2.9.3,3.5s.7,2.4,1.1,4.6a5.5,5.5,0,0,0,.3,1.6c.2,1.1.3,1.3.5,2.1s0,.7.1,1.8.1.8.4,2.4.2,1.9.3,2.3a22.7,22.7,0,0,0,.6,2.5l.3,2c.1.7.2,1.3.3,1.3s.3-.3.3-.4.1-.5.2-.9.1-.4.3-1.1a1.5,1.5,0,0,0,.1-.6,10.9,10.9,0,0,1,.5-1.4c.2-.7.1-.7.5-2s.7-2.3.9-3.3a5.8,5.8,0,0,0,.3-1.4,17.1,17.1,0,0,1,.5-1.8c.6-1.8,1.1-3.8,1.6-5.4s.5-2.1.6-2.6a13,13,0,0,0,.3-1.3l.5-1.3a15.4,15.4,0,0,1,.5-1.7c.7-2.6.9-2.6,1.1-3.6a2.3,2.3,0,0,1,.3-1.2c0-.3.1-.4.3-.9l.3-.9c.5-1.3,1.6-5,1.6-5,.6-1.9.5-1.4,1.5-4.2s.8-2.9,1.1-3.7l.7-1.9a3.7,3.7,0,0,0,.2-.9c.1-.5.1-.7.2-1.1a4.1,4.1,0,0,0,.2-.7l.4-.9.9-2.3c.3-.6.7-1.6,1.2-2.8s.6-1.6,1-2.7.5-1.1.6-1.5l.4-.8a9.3,9.3,0,0,0,.3-1c.2-.6.3-.6.8-1.7l.8-1.7.6-1.5a24.4,24.4,0,0,1,1-2.4l.7-1.3,1-2a2.6,2.6,0,0,1,.3-.8c.3-.6.4-.6.6-1.1l.3-.9a3,3,0,0,1,.4-.8c.1-.4.3-.7.5-1.3a7.7,7.7,0,0,1,.6-1.5,3.7,3.7,0,0,1,.4-1c.2-.4.6-1.1,1.2-1.2a4,4,0,0,1,1.4.7l1.1.7.6.8,1.7,2.7,2.2,4.1,1.6,3c.3.6.6,1.1.9,1.8s.5,1.1.9,1.8a18.6,18.6,0,0,0,1,2c.6,1.1.6,1.4,1.5,3.3l.9,2c1.3,2.7,2.2,4.8,2.4,5.4l1.2,2.9c.9,2.3,1.1,2.5,2,4.8l1.6,4,1,2.5c.8,2,1.3,3.5,1.8,4.8,1.1,3.1,1.5,4,2.4,6.5s1.4,4.4,3.1,9.6c2.4,7.6,3.5,11.5,3.8,12.6s.7,2.2,1,3.3.4,1.6.6,1.6.2-.3.5-.9.3-1.2.4-1.6a1.9,1.9,0,0,0,.2-.7,4.6,4.6,0,0,0,.2-1.4,4.3,4.3,0,0,1,.2-1.2.9.9,0,0,1,.1-.5,7.4,7.4,0,0,0,.4-1.4c.1-.7.1-1.3.2-1.9a23,23,0,0,1,.4-2.6c.3-2.1.2-1.5.5-3.1a8.9,8.9,0,0,1,.3-1.9c.1-.7.2-.6.2-.9s0-1.8.2-3.1l.3-1a24.3,24.3,0,0,0,.4-3c.1-1.3.1-2,.2-3.4s.1-2.4.2-3c.2-2.6.1-5.3.1-9.5V65.1c-.1-2.3-.1-4-.2-7.5,0,0-.3-7.8-.9-11.2-.1-.3-.3-1.4-.5-2.6s-.2-.8-.2-1-.4-1.2-.6-2-.2-.8-.3-1.4-.6-1.5-1.1-2.9a10,10,0,0,1-.4-1.4c-.3-1.1-.6-2.1-.8-2.6h.1c.4.6.4.8,2,3.3A39.9,39.9,0,0,1,99,42c.4,1.7.4,2.2,1.1,5.2.2.9.4,1.8.6,3.1a19.1,19.1,0,0,1,.3,2.8,21.6,21.6,0,0,1,.2,2.8c.2,2.6.3,2.7.3,4a35.4,35.4,0,0,1,0,4.8v5.8a7.8,7.8,0,0,0-.1,3c.1.7.2,1.3.3,2.4a4.2,4.2,0,0,1-.1,1.3c0,.8-.1,2.7-.3,6.3s-.1,3.2-.2,5.4-.2,2.1-.4,3.5-.5,2.3-.7,3.9-.1,1.2-.2,2.2-.2,1.2-.3,2.3-.1,1-.2,1.6-.2.6-.3,1.1a9.2,9.2,0,0,0-.2,1.7l-.2,1.8c-.1.7-.1,1.3-.3,2.2a13.1,13.1,0,0,1-.3,1.5c-.2.7-.3.7-.5,1.4s-.2,1-.4,1.9a13.6,13.6,0,0,1-.4,1.7c-.8,2.6-1.1,2.9-1.2,2.9h0q-.1,0-.3-.3l-.4-.8a2.9,2.9,0,0,1-.2-.9c-.1-.5-.5-1.7-1.2-3.9l-1-3.2-2-5.5c-1.1-3-1.3-3-1.8-4.7l-1-3c-.2-.5-.5-1.1-.9-2.3l-.9-2.1a15.5,15.5,0,0,0-.7-2.3,11.2,11.2,0,0,0-.5-1.3l-.5-1.1a2.5,2.5,0,0,0-.4-.9,3.1,3.1,0,0,0-.2-.7,6,6,0,0,0-.8-1.6h0c-.3-.5-.4-1-.5-1.1s-1.2-2.9-2.4-6.2c-.3-.9-.3-1-1-2.9a10.4,10.4,0,0,0-.8-2.1,6,6,0,0,1-.6-2,1.1,1.1,0,0,0-.1-.5c-.1-.4-.3-.5-.5-1l-.2-.6-.5-.9-.6-1.5a9.2,9.2,0,0,1-.3-.9l-.5-.8-.3-.8a7.1,7.1,0,0,0-.7-1.8c-.3-.8-.2-.7-.5-1.4l-.9-1.8a9.2,9.2,0,0,0-.3-.9,8,8,0,0,1-.5-1.1c-.5-.9-.4-1.2-.9-2.2s-1.2-2.3-1.3-2.6l-.8-1.3-.5-.9-.6-.9L67,47c-.1-.2-.1-.3-.2-.4a6.9,6.9,0,0,0-.6-1.3c-.7-1.2-1-1.5-1.5-2.4l-1-2c-.5-1-.4-.6-1.1-2s-.6-1.2-.8-1.2-.8.6-1.6,2A6.8,6.8,0,0,0,59,41.9c-.1.2-.1.4-.3.8l-.6,1.4-.3.8-.6,1.3-.5,1-.9,1.9-.2.6a8.2,8.2,0,0,0-.4,1.1,7.1,7.1,0,0,0-.7.9,4.6,4.6,0,0,0-.5,1c-.5,1.1-.8,1.7-.8,1.8l-2.1,5.7c-1.1,2.9-2,5.2-2.7,6.8a5.3,5.3,0,0,0-.6,1.9c-.1.4-.1.8-.3,1.5a2.2,2.2,0,0,1-.3,1,3.6,3.6,0,0,0-.4.9,6.4,6.4,0,0,0-.2.9,12.1,12.1,0,0,1-.5,1.4c-.2.8-.1.9-.3,1.5l-.4.6-.5,1.4c-.4,1.3-.3,1.5-.7,2.6a7.7,7.7,0,0,0-.5,1.7,9.7,9.7,0,0,1-.2,1.2c-.3.7-.5.7-.7,1.4a3.7,3.7,0,0,1-.2.9,4.1,4.1,0,0,1-.3,1c-.2.6-.3.5-.3.8a9.7,9.7,0,0,0-.2,1.2c0,.6,0,.6-.1.8s-.3.3-.5.7-.1.4-.2.6a4.3,4.3,0,0,1-.5,1.2,16.9,16.9,0,0,0-.8,2.6l-.5,1.5c-.6,1.8-.6,2.2-1.3,4.5l-.6,1.8c-.4,1.3-.6,2.4-.8,3s-.3,1.3-.4,1.8a8.2,8.2,0,0,1-.6,2.4,2.9,2.9,0,0,0-.4.8,2.8,2.8,0,0,0-.4,1.1c-.1.5,0,.5-.1,1s0,.2-.2.7l-.3,1a3.7,3.7,0,0,0-.2.9,3.6,3.6,0,0,0-.2,1,2,2,0,0,0-.1.7c-.1.4-.2.4-.4,1a2.2,2.2,0,0,0-.1.6,4.6,4.6,0,0,1-.3.9h-.9c-.3-1.2-.5-2.2-.7-2.9s-.2-1.2-.4-2-.4-1.1-.6-1.8-.4-1.7-.5-2.3v-.4c-.1,0-.2-.5-1.2-6.5-.5-3-.7-3.8-.8-4.6-.4-2.7-.5-3.7-.6-4.3s-.3-2.5-.3-3-.2-2.2-.4-3.5l-.2-1a19.8,19.8,0,0,1-.5-3.1c-.3-2.9-.3-2.4-.4-3.7a34.9,34.9,0,0,0-.2-3.5c-.1-.5-.2-1.4-.3-2.1s-.2-1.1-.3-1.6a22.2,22.2,0,0,1-.2-2.7c-.1-1.6-.1-1.8-.1-2s-.2-1.2-.3-2.1V64.2A14.7,14.7,0,0,0,23.7,61.5Z" transform="translate(-18.8 -15.2)"/><path d="M37.3,116.8c.3-1.3,1.2-4.3,1.5-6a11.5,11.5,0,0,0,.2-1.4c.1-.4.1-.7.2-1.1a3.7,3.7,0,0,1,.2-.9l.4-1.6c.8-2.9,1.8-7.1,2.6-9.8.1-.5.3-1,.5-1.8a12.3,12.3,0,0,1,.4-1.6,11.5,11.5,0,0,1,.6-1.7,4.9,4.9,0,0,0,.3-1.5c.2-.9.6-2,1.3-4.1a31.6,31.6,0,0,0,1.1-3.1c.3-1,.3-1.1.6-2.4l1-3.1c.7-2.1,1-3.1,1.3-3.8l.6-1.4c.1-.7.2-1.2.2-1.4a32.1,32.1,0,0,1,1.6-4.7A14.3,14.3,0,0,0,53,62.2a5,5,0,0,1,.3-1.4l.6-1.2a14.2,14.2,0,0,0,1-2.1c.1-.4.3-.7,1.3-3.4s.8-2.2,1.1-3l.6-1.3a12.6,12.6,0,0,1,.7-1.7l.6-1,.5-1.1a4.7,4.7,0,0,1,.7-1.2c.5-1.1.8-1.6,1-1.6s.7.5,1.1,1.2,1.5,2.7,1.6,3a53.6,53.6,0,0,0,2.6,5.4l3,6.2c.8,1.9.8,1.8,2,4.5L74,68.4c.6,1.3,1.5,3.2,2.5,5.6s1.5,3.9,2.9,7.4,1.1,2.4,2,4.5l2.3,6.3c1,2.8,1.1,3.2,1.9,5.2s.8,2.1,1.2,3.2,1,3.1,1.6,5.1.8,2.7,1.8,5.7,1.5,4.6,2.6,7.7H91.7c-.3-1.3-.6-2.3-.8-3s-.6-1.6-1.5-3.7l-.8-2.3c-.9-2.3-1-3.1-2-5.7a10.6,10.6,0,0,0-.8-2.3c-1.1-3-1.4-3.4-2.4-6l-.3-.7c-.6-1.5-1-2.7-1.5-4.3a18,18,0,0,0-1.2-3.5,11.6,11.6,0,0,1-.8-1.6l-.7-1.9-.5-1.6c-.5-1.4-.7-1.4-1.4-3a20.9,20.9,0,0,1-.8-2.3,7.9,7.9,0,0,1-.5-1.3,24.4,24.4,0,0,0-1.3-3.2c-1-2.5-1.7-3.2-2.3-4.8a10.4,10.4,0,0,1-.6-1.5,6.6,6.6,0,0,1-.4-1.1l-1-1.9-1-1.6-.6-1.5a20.9,20.9,0,0,0-1.2-2.1A19.7,19.7,0,0,1,66.2,56a11.7,11.7,0,0,0-.5-1.1c-.8-1.7-1.4-2.3-2.1-3.9-.1-.1-.1-.3-.3-.6l-.8-1.7c-.5-.9-.8-1.5-1.2-1.5s-.4.4-1,1.6l-1.2,2.4c-.7,1.5-.8,1.9-.9,2.1a4.7,4.7,0,0,1-.3.9,14.7,14.7,0,0,1-.6,1.4,4.8,4.8,0,0,0-.5,1.2c-.6,1.5-1.2,3.1-1.7,4.6l-.6,1.9a9,9,0,0,0-.7,1.4c-.2.6-.1.8-.4,1.8l-.3,1.1-.7,1.7a14.2,14.2,0,0,0-.6,2.1,6.3,6.3,0,0,1-.3,1.3,8.4,8.4,0,0,1-.8,1.9l-.5.9c-.1.4-.3.8-.5,1.4a29.1,29.1,0,0,0-1.2,3.9,8.7,8.7,0,0,1-.2,1,19.8,19.8,0,0,1-.8,2.6,10.3,10.3,0,0,0-.6,1.9c-.6,2.1-.9,3.1-1.1,4.1a15.5,15.5,0,0,1-.4,1.5,10.5,10.5,0,0,1-.8,2.5l-.5,1.5c-.1.5-.1.8-.2,1.2s-.4,1.2-.7,2.2-.2,1.7-.6,3l-.6,1.6a15.4,15.4,0,0,0-.4,3c-.1.5-.3,1.4-.8,3.3s-.8,2.9-1,3.5-.4,1.4-.6,2.2a33.4,33.4,0,0,0-.8,3.5H36.6C36.9,118.3,37.1,117.4,37.3,116.8Z" transform="translate(-18.8 -15.2)"/><path d="M19.5,124.1v-.5h81.1a18.5,18.5,0,0,0,3.4,0h5.3l1.1-.2v.4l-.2.9a5.6,5.6,0,0,0,0,1.3,6.2,6.2,0,0,0-1.8.6l-.9.6a11.3,11.3,0,0,0-1.2,1.8c-.3.7-.5,1.4-.6,1.5l-.3,1.7a2.2,2.2,0,0,0-.1.8c-.1,1,0,1.4-.1,2.6v1.2c-.1,1.1-.1,1.7-.1,2v.3a5.6,5.6,0,0,1-.1.7l-.4.3-.3.4-.5.4h-.4V140c0-.1.1-.2.1-.3a.8.8,0,0,0,.2-.5,1.1,1.1,0,0,0,.1-.6c.1-1,.1-2.7.1-2.7v-1.7c0-3.6-.1-3.2-.1-4a8,8,0,0,0,0-2.2,1.9,1.9,0,0,0-.1-.8c0-.5-.1-1.1-.1-1.6v-.4a.7.7,0,0,0-.3-.3l-.4-.2H68.1c-2.9,0-2.9.1-2.9,0H64a1.1,1.1,0,0,0-.2.6c-.1.5-.1.2-.3,1a20.6,20.6,0,0,1-.2,2.1c0,.6-.1.5-.1.9s.1.8.1,1.5-.1.5-.1,1.2v1.8c0,.2.1.3.1.5s-.1.6,0,.7h8.2l.9-.2h.9l.6-.2c.1-.2-.4-.5-.7-.7l-1-.7-.7-.7c-.2-.5-.3-.9-.4-1.2a2.4,2.4,0,0,1,.1-1.7c.2-.2.5-.5.8-.5a1.3,1.3,0,0,1,.6.4,7.7,7.7,0,0,0,1.5,1.3l1.1.8,1,1a4.7,4.7,0,0,1,.6.9c.5.8.8,1.3.7,1.5s-.9.9-2.1,1.4l-1.2.3a9.9,9.9,0,0,1-2.4.1H64.6s-6.7-.1-14.5.1l-2.2.2c-1.6.2-1.7.4-3.5.6l-2.4.3h-.4c-.2.1-.2,0-.3,0s-.2-.2-.2-.3.1-.3.6-.5l1.2-.7.5-.3a1.8,1.8,0,0,1,.9-.2c.9.1,1.9-.1,2.9-.1h4.2l8.6-.2h1.3v-7.4c-.1-1.7-.2-1.9-.2-2.3v-.3c0-.2,0-.3-.1-.3H37.5l-7.2.2h-5c-.2.2-.2.5-.2.9s-.1.9-.1,1.3-.1.9-.1,1.7a16.5,16.5,0,0,0-.1,3.2v4.8a9.7,9.7,0,0,0,.1,1.8,7.5,7.5,0,0,0,.6,2.2c0,.1.1.3.2.8v.2h-.5c-.2-.1-.3-.4-.4-.6l-.4-.7a6,6,0,0,1-.7-1.8v-1.1a16.2,16.2,0,0,1-.1-2.1c0-1.4-.1-1.4-.1-2.5v-1l-.2-1.3a13.5,13.5,0,0,1-.1-2.7v-.6c0-.6.1-1.1.1-2s0-.5-.2-.6h-4V125C19.2,124.6,19.4,124.6,19.5,124.1Z" transform="translate(-18.8 -15.2)"/><path d="M20.8,148.7l-.9.2a1.5,1.5,0,0,1,.2-.8,3.3,3.3,0,0,0,.3-.6,2,2,0,0,0,.3-.8l-.2-.4H24c3-.1,6.8-.2,9.7-.1,1.1,0,2.3-.1,3.5,0H40l.9-.2H51c6.3,0,16.5-.3,19.2-.2h3.6l1.6-.3,1.5.2h33.9v1.8H108l-1.7.2-1.9-.2H103c-2.3.1-3.4-.1-6.1,0h-11l-1.2.2a7.9,7.9,0,0,1-2.2,0H79.6c-1.9.1-3.8,0-5.7,0H64.4L58,148H42.4l-1.9.2H21.9Z" transform="translate(-18.8 -15.2)"/><path d="M48.7,105.8a13.1,13.1,0,0,0,.3-1.5,4.7,4.7,0,0,1,.3-.9c.2-.6.3-1.1.4-1.3s.3-1.4.6-2.5.2-.8.8-2.7,1-3.3,1.8-5.6.2-.8,1.3-4.5a27.2,27.2,0,0,1,1.1-3.7l1.3-3.6.9-2.9.4-1.4.9-2.6a8.2,8.2,0,0,0,.5-1.4,5.8,5.8,0,0,1,.5-1.4l.4-1a2.6,2.6,0,0,0,.3-.7,2.6,2.6,0,0,1,.3-.8q.2-.3.3-.3c.1,0,.2.1.5.6l.3.6.3.5,1,1.6.5.9a17.8,17.8,0,0,1,1,2l1.5,3,.4.7.6,1c.1.1,0,.1.4,1a4.1,4.1,0,0,1,.2.7l.5,1.1.9,1.7,1.2,2.4c.3.6.4,1,.8,1.9a2,2,0,0,0,.4.8c.3.7,1,1.9,1.2,2.5s.9,2.7,1.8,4.9A8.2,8.2,0,0,1,75,96a15.8,15.8,0,0,1,.7,1.6,10.4,10.4,0,0,1,.4,1.3c.3.9.2,1,.4,1.7a8,8,0,0,0,.8,2,9.8,9.8,0,0,1,.7,1.7,11.2,11.2,0,0,0,.5,1.3l.2.8.2.7a3.3,3.3,0,0,0,.3.6l.5.3a.5.5,0,0,1-.3.5H77.7a7.5,7.5,0,0,0-2.4.2l-1.1.2H74a7.4,7.4,0,0,1-2.2-.4l-1.3-.6a4.4,4.4,0,0,1-1.1-1,5.1,5.1,0,0,1-.8-1.4,16.8,16.8,0,0,1-1-2.5,7.4,7.4,0,0,1-.5-2.2c0-.2-.1-1,.2-1.1s.5.5.7.8.1.4.4.8a1.7,1.7,0,0,0,.3.6l.7,1.5.2.8.6.9.4.5c.3.3.2.4.4.6l.8.6,1,.5h3l.7-.5h.3c.2-.2,0-.6-.2-1.3a7.6,7.6,0,0,1-.4-1.1l-.6-1.8-.7-1.2a16.2,16.2,0,0,0-.6-1.7c-.5-1.3-.7-2-1-3l-1.8-4.4c-1.2-3-1.8-4.5-2.3-5.5s-.8-1.6-1.8-3.7L65.5,79a8.5,8.5,0,0,0-.7-1.6,42.3,42.3,0,0,0-2.1-4.5C62,71.5,61.6,71,61.4,71s-.3.2-.6,1.2a13.6,13.6,0,0,0-.6,2c-.3.8-.6,1.7-.8,2.1a2.6,2.6,0,0,0-.3,1c-.1.5-.1.7-.2,1.2l-.3.8-.4,1c-1,2.6-1.7,4.6-1.7,4.6s-.2.9-.6,2.3S55.4,89,55,90s-1.1,3.9-1.3,4.7-.4,1.8-.8,3.5-1,3.5-1,3.5-.3.9-.4,1.4-.9,2.6-.5,3,.6.4.6.5h1.6a8.6,8.6,0,0,0,3.6-1.2,3.1,3.1,0,0,0,1.1-1.2,2.3,2.3,0,0,0,.3-.8c.1-.3.1-.5.3-.7s.3-.2.4-.1.1,1.3.1,1.4a2.2,2.2,0,0,1-.3,1l-.3.4a3.9,3.9,0,0,1-1.5,1.5,5.4,5.4,0,0,1-1.7.8l-1.7.5-1.6.3H49.4c-.5-.1-.8-.1-.9-.3s-.2-.3-.1-1.1S48.6,106.4,48.7,105.8Z" transform="translate(-18.8 -15.2)"/><path d="M42.8,112l.2-.8v-.4a18.6,18.6,0,0,1,.9-3,16.8,16.8,0,0,0,.8-2.5c.1-.6.1-.8.3-1.8a13.1,13.1,0,0,1,.5-2.2c.2-1,.7-2.9,1.3-5.2l.5-1.3c.4-1.4.6-2.5.6-2.5l.3-1.1a5.1,5.1,0,0,0,.4-1.1,15.7,15.7,0,0,0,.9-2.7c.8-2.7.9-2.7,1-3.2a7.4,7.4,0,0,1,.3-1.5l.4-1.2a3.4,3.4,0,0,1,.4-1c.3-.9.6-1.7.9-2.8a21.8,21.8,0,0,0,.6-2.2,6.2,6.2,0,0,1,.3-1l.4-1.4.6-1.7.8-2.2a4.2,4.2,0,0,0,.6-1.5,9.4,9.4,0,0,0,.3-.9,7.9,7.9,0,0,1,.4-.9,4.3,4.3,0,0,0,.4-1.4,28,28,0,0,1,1.3-2.8,8.4,8.4,0,0,0,.7-1.8,12.8,12.8,0,0,1,1.2-2.2c.7-1.2,1-1.2,1.1-1.1s.2.3.8.8l.2.2a1.6,1.6,0,0,1,.4.7l.4.6a4.1,4.1,0,0,1,.8,1.2,10.4,10.4,0,0,1,1,1.8,15.2,15.2,0,0,0,1.1,2l1.6,3c.6,1.1,1,1.9,1.5,3s.5,1.3.9,2.1.7,1.2,1.3,2.3.1.4,1.1,2.5.9,1.9,1.3,2.9.2.6.4,1,.5,1,.9,1.8l.4.8c.6,1.5,1,2.3,1.1,2.7s.3,1.3.7,2.2.3.4.6,1,.3.9.8,2.2.5,1.3.9,2.2a3.1,3.1,0,0,1,.4.9,3.8,3.8,0,0,1,.5,1.2,5.4,5.4,0,0,0,.4,1.2,15.6,15.6,0,0,1,.6,1.5,7.9,7.9,0,0,1,.3,1.3,19.3,19.3,0,0,0,1.1,2.9c.4,1.1.4,1,.6,1.7s.4,1.2.8,2.3.1.5.6,2l.4,1.3.5,1.5c.2.6.3.9.6,1.1l.3.5a.7.7,0,0,1,.1.6c-.1.2-.5.2-1.8.2H81.4a58.3,58.3,0,0,1-6.3-.2l-3.4-.4-1.2-.2-1.1-.2-1.1-.4a7.8,7.8,0,0,1-1.9-1.3,3.5,3.5,0,0,1-.6-.9,14.8,14.8,0,0,1-1.7-3.9c-.3-1.1-.5-1.6-.7-2.2V104a13.7,13.7,0,0,1-.2-2.7,10.9,10.9,0,0,1,.6-3.3l.4-.6.4-.4a.8.8,0,0,1,.8-.2c.1.1,0,.3-.2,1.1s-.1.5-.1.7a7.2,7.2,0,0,0-.1,1.3c0,.4.1.8.1,1.1a23.1,23.1,0,0,0,.3,2.8,14,14,0,0,0,1.2,3l.5.7.4,1c.1.3.1.2.4.6a9,9,0,0,1,.5.9l.5.5a5.9,5.9,0,0,0,1.5.5l1,.3,1.1.2,1.1.2c1.2.3,2.7.3,2.9.4h7.1a.6.6,0,0,0,0-.6,7.7,7.7,0,0,0-.4-1.2c-.3-.5-.2-.6-.5-1.6s-.3-.7-.6-1.7a16.2,16.2,0,0,1-.6-2.2l-.7-1.9c-.5-1.6-1-2.9-1.1-3.3-1-2.8-2-5.3-2.2-5.7s-2.1-5.6-4-9.9l-1.1-2.6c-.2-.6-1.2-3.1-1.7-4.2l-.4-.7-.4-.7a8.1,8.1,0,0,0-.6-1.3l-.7-1c-.3-.5-.2-.6-.7-1.6l-.4-.8-.9-1.7-2-3.6-1.9-3.5a9.1,9.1,0,0,0-1.1-1.6c-.1-.3-.3-.6-.5-.6s-.4.4-.5.6-.7,1.7-1.2,3a7.9,7.9,0,0,1-.8,1.6c-.5,1.3-.5,1.8-1,3.3s-.3.6-.8,2.1L56.2,72c-.2.7-.4,1.3-.6,2.1s-.1.8-.3,1.5l-.5,1.6a22.3,22.3,0,0,0-.8,2.4c-.8,2.2-1.1,2.9-1.8,5a55.1,55.1,0,0,0-1.9,6.3l-.6,2.6a27.4,27.4,0,0,1-.7,2.7c-.7,2.6-.7,2.4-1.3,4.4s-.6,3-1,4.1a9.1,9.1,0,0,0-.5,1.7c0,.3-.1.6-.1.9a3.2,3.2,0,0,0-.1.8l-.3.8c-.3.7-.1.8-.4,1.7s-.1.4-.2.8,0,.6.1.7.4,0,.7,0,.4,0,1.8-.1l2.1-.3,1.2-.5,1.5-.2,1.4-.5,1.6-.6a1.3,1.3,0,0,1,.6-.4c.4-.3.5-.2.9-.4a2.7,2.7,0,0,0,1.1-.9l.5-.6a6,6,0,0,0,.8-.8,4.1,4.1,0,0,0,1.1-1.6l.2-.6.3-.5.3-.2c.1.1.2.2.2.3a2.1,2.1,0,0,1,0,.8,4.1,4.1,0,0,1-.5,1.6,11.3,11.3,0,0,1-.9,1.5,8.8,8.8,0,0,1-1.4,2,5.5,5.5,0,0,1-2.3,1.3l-1.1.4-1.8.7-2.9.8-1.8.4-1.7.2-1.4.2-1.6.2h-.8l-.7-.2a1.9,1.9,0,0,1-.1-.8,1.9,1.9,0,0,1,.2-.8A.6.6,0,0,1,42.8,112Z" transform="translate(-18.8 -15.2)"/><path d="M108.4,76.8a26.3,26.3,0,0,0,.1,3,6.9,6.9,0,0,1,.2,1.3,34.3,34.3,0,0,1,.2,6.8v5c.1,1.2.2,1.9.3,2.7s0,1.3.2,4.6.1,4.3.2,5.3.1.8.1,1.1a10.5,10.5,0,0,1,.1,1.2v.6" transform="translate(-18.8 -15.2)" fill="none" stroke="#000" stroke-miterlimit="10" stroke-width="0.57"/><path d="M103.6,48.6l1,3.3c.4,1.6.8,3,1.2,5a67.4,67.4,0,0,1,1,7c0,.4.1.7.1,1.1.5,3.8.8,5.7.9,6.3a17.6,17.6,0,0,1,.4,2.8c0,.4.1.9.1,1.7v.6a.6.6,0,0,0,.1.4" transform="translate(-18.8 -15.2)" fill="none" stroke="#000" stroke-miterlimit="10" stroke-width="0.57"/><path d="M101.7,43.6l.5,1.2c.6,1.4,1,2.7,1.4,3.8" transform="translate(-18.8 -15.2)" fill="none" stroke="#000" stroke-miterlimit="10" stroke-width="0.57"/><path d="M24.5,48.3a.8.8,0,0,0,.2-.4l1.2-3.6a20.7,20.7,0,0,0,.8-2c.4-1.1.4-1.4.7-2.2s.7-1.8,1-2.4a54.1,54.1,0,0,1,4.5-8.1L35,26.5A54.6,54.6,0,0,1,38.5,22a6,6,0,0,1,.8-.8c.3-.4.4-.6.7-.7h2l3.2-.3,6-.2,5.5-.2h26c.4.1.5.2,1.2.8l1.7,1.4,1.2,1,.9,1L89.2,25a38.7,38.7,0,0,1,5.7,7l.4.5c.4.6.4.8,2,3.3l1.2,1.8c.7,1.2,1.3,2,1.9,3.2a30,30,0,0,1,1.3,2.8" transform="translate(-18.8 -15.2)" fill="none" stroke="#000" stroke-miterlimit="10" stroke-width="0.57"/><path d="M21,59a40,40,0,0,1,.9-4.2,31.1,31.1,0,0,1,1.5-4.2l1.1-2.3" transform="translate(-18.8 -15.2)" fill="none" stroke="#000" stroke-miterlimit="10" stroke-width="0.57"/><path d="M19.6,90V85.9c.1-1.6.1-3.1.1-4.4s.2-6.2.7-15c.1-1.2.1-2.5.2-3.8s.2-1.9.4-3.7" transform="translate(-18.8 -15.2)" fill="none" stroke="#000" stroke-miterlimit="10" stroke-width="0.57"/><path d="M20.4,146.3c0-.1,0-.1-.1-.2a3,3,0,0,1-.3-.6c-.2-.4-.1-.7-.1-1.4s-.1-.7-.1-1.1a11.6,11.6,0,0,0-.1-1.7v-1.4c-.1-1.2-.3-4.3-.3-7.2v-2.2a8.7,8.7,0,0,0-.1-1.9,8.9,8.9,0,0,1-.2-1.5c-.1-.4,0-.4,0-1.1v-1c.1-.4.3-.4.4-.9v-4.3a.9.9,0,0,1,.1-.5V118a6,6,0,0,1-.2-1.2c0-.5.1-.6.1-1.2a3.2,3.2,0,0,0,0-1V95.1c0-1.8,0-3.5.1-5.1" transform="translate(-18.8 -15.2)" fill="none" stroke="#000" stroke-miterlimit="10" stroke-width="0.57"/><path d="M109.8,108.4a2.8,2.8,0,0,1-.1.9c-.2,1-.5,1.1-.5,1.8a2.1,2.1,0,0,0,.1.6,4.3,4.3,0,0,1,.1.5,8.1,8.1,0,0,1,.2.9,13.7,13.7,0,0,1,.4,2c.1,1,0,1.3.1,2.2a7.8,7.8,0,0,1,.1.9v.9c0,.5-.1.7-.1,1.1s.2.2.2.5a.4.4,0,0,1,.1.3v2.2l-.2.9a5.6,5.6,0,0,0,0,1.3v.2a2.2,2.2,0,0,1,.1.8,7.2,7.2,0,0,1,.1,2.1c0,.3,0,.2.1,1.4s.2,2,.2,2.8v2.5c0,1.9-.1,1.8-.1,2.8s.1,4,.2,4.9v2.9h0v1.8a7.4,7.4,0,0,0,0,1.5,10.3,10.3,0,0,1-.1,1.3v1.1l-.3.2h-.4l-2.2.6-1.3.2-1.1.2-1.3.2h-3.3c-.2,0-.2.1-.5.6s-.5.6-.5.7a1.3,1.3,0,0,1-.1.5v2.4c-.1,1.8-.1,3.7-.2,7.6,0,0,0,6.5.2,10.8l.2,2.1c0,1,.1,1.3.1,1.9a30.1,30.1,0,0,1,.1,3.1c0,2.4,0,3.9.1,5.5s.1,3,.1,3.1v.6c.1.5,0,.4.1.8s0,.6-.1.7-.3.2-.6.3H96.7l-2.9.2H72.1c-2.6.2-4.4.1-6.6.1l-5.7.2H52.1l-4.8.2H32c-.1-.1-.1-.2-.1-.4a.4.4,0,0,0-.1-.3c0-.4-.1-.8-.1-1.2s-.2-1.2-.3-2.5-.4-3.6-.5-5.1-.1-1.5-.1-2.1c-.1-2.2,0-3.3.1-6.6s0-3.4.1-5.3a38.6,38.6,0,0,1,.3-4.3c0-1.2.1-1.9.2-3.2s.1-1.4.1-1.9c.1-2.1,0-1.9.1-3.6a10.7,10.7,0,0,0,0-1.8l-.3-1.2a5.4,5.4,0,0,0-2.1-1.5l-2.5-.8-1.7-.4-1.9-.4-1.7-.2-1.1-.3h-.2a2.3,2.3,0,0,1-.2-1.1c-.1-.1-.1-.5-.1-1.2v-.8a1.5,1.5,0,0,1,.2-.8,3.3,3.3,0,0,0,.3-.6,2,2,0,0,0,.3-.8l-.2-.4" transform="translate(-18.8 -15.2)" fill="none" stroke="#000" stroke-miterlimit="10" stroke-width="0.57"/><path d="M110.7,151.4l-46.1.4-29,.2H20.4" transform="translate(-18.8 -15.2)" fill="none" stroke="#000" stroke-linecap="round" stroke-linejoin="round" stroke-width="0.43"/><line x1="1.7" y1="131.1" x2="1.7" y2="131.1" fill="none" stroke="#000" stroke-miterlimit="10" stroke-width="0.57"/><line x1="0.8" y1="74.8" x2="0.8" y2="74.8" fill="none" stroke="#000" stroke-miterlimit="10" stroke-width="0.57"/><line x1="5.7" y1="33.1" x2="5.7" y2="33.1" fill="none" stroke="#000" stroke-miterlimit="10" stroke-width="0.57"/><path d="M21,59h0" transform="translate(-18.8 -15.2)" fill="none" stroke="#000" stroke-miterlimit="10" stroke-width="0.57"/><line x1="89.6" y1="61.6" x2="89.6" y2="61.6" fill="none" stroke="#000" stroke-miterlimit="10" stroke-width="0.57"/><line x1="91" y1="93.1" x2="91" y2="93.1" fill="none" stroke="#000" stroke-miterlimit="10" stroke-width="0.57"/><path d="M103.6,48.6h0" transform="translate(-18.8 -15.2)" fill="none" stroke="#000" stroke-miterlimit="10" stroke-width="0.57"/><line x1="82.9" y1="28.4" x2="82.9" y2="28.4" fill="none" stroke="#000" stroke-miterlimit="10" stroke-width="0.57"/><path d="M59.8,266.4A16.5,16.5,0,0,1,55,241c5-5.6,13.4-6.5,19.5-3.6a16.8,16.8,0,0,1,7.3,6.9" transform="translate(-18.8 -15.2)" fill="none" stroke="#000" stroke-linecap="round" stroke-linejoin="round" stroke-width="0.28"/><path d="M58.5,266.4a17.5,17.5,0,0,1-7.7-10.2,17,17,0,0,1,4-16.3c5.6-5.8,14.4-6.3,20.4-3.2A17.5,17.5,0,0,1,82,243" transform="translate(-18.8 -15.2)" fill="none" stroke="#000" stroke-linecap="round" stroke-linejoin="round" stroke-width="0.28"/><path d="M82.8,242.2A19.3,19.3,0,0,0,70.3,234,18.8,18.8,0,0,0,57,236.9c-6.5,4.7-9.4,13.6-6.7,21a17.2,17.2,0,0,0,6.6,8.5" transform="translate(-18.8 -15.2)" fill="none" stroke="#000" stroke-linecap="round" stroke-linejoin="round" stroke-width="0.28"/><path d="M53.1,263.7a16.6,16.6,0,0,1-3.5-5.9,18.6,18.6,0,0,1,19.7-24.6,22.2,22.2,0,0,1,13.5,7.1" transform="translate(-18.8 -15.2)" fill="none" stroke="#000" stroke-linecap="round" stroke-linejoin="round" stroke-width="0.28"/><path d="M80.6,237.2c-6.2-4.9-14.3-6.3-21.1-3.4A20.2,20.2,0,0,0,49,244.5a19.5,19.5,0,0,0,1.9,17.6,19.2,19.2,0,0,0,5,5.2" transform="translate(-18.8 -15.2)" fill="none" stroke="#000" stroke-linecap="round" stroke-linejoin="round" stroke-width="0.28"/><path d="M456.6,116.1h-1a3.1,3.1,0,0,0-.2-.8l-.4-.8a6.9,6.9,0,0,1-.4-1c-.5-1.4-.8-1.7-1.3-3l-.5-1.5-.8-1.4a2.3,2.3,0,0,1-.3-.9c-.5-1.4-1.3-3.4-1.7-4.4l-1.2-2.5a33.8,33.8,0,0,0-1.7-3.6l-2.9-6.7-1.3-3.2c-1-2.5-1.1-3.2-1.9-4.8s-.7-1.1-1.3-2.4-1.1-2.5-1.3-3c-1.2-3-2.6-6.1-3.3-7.5s-1.2-2.4-2.9-6.1l-2.8-6c-3.2-7.2-3.6-8.2-4.9-10.9l-1.6-3.2-2.2-4.6c-.5-1.1-1.2-2.2-1.8-3.4s-.7-1.5-1.1-1.5-.4.6-.6,1-1,2-1.5,3.1c-1.1,2.7-2.3,5.3-3.5,7.9s-1.9,4.3-2.3,5.3a19.5,19.5,0,0,0-1.6,3.3c-.5,1.1-.7,1.9-1.4,3.5l-.8,1.6c-.3.7-1.2,2.7-2.2,5.2l-1,2.4c-.9,2.5-.9,2.3-2.1,5.3-.6,1.4-.8,1.9-1.1,2.8a20.9,20.9,0,0,0-1,2.1,22.9,22.9,0,0,0-1.2,2.8c-.6,1.4-.7,1.7-1.1,2.8s-1.3,2.8-2.5,5.6l-1.2,3.2c-1.5,3.7-1.8,4.2-5.1,12.3-1.1,2.6-1.6,3.9-1.7,4s-1.3,2.9-1.8,4.5a30.7,30.7,0,0,1-1.4,3l-.2.5c-.3.4-.5.7-.7.7h0c-.2,0-.3-.4-.4-.9a1.5,1.5,0,0,1-.3-.7h.4l.2.2c.1.1.3-.2.5-.6l.3-.6s.4-1.2,1.3-3.2.2-.6.5-1.2.8-2.4,1-3,.1-.3,1.8-4.5c.8-2.2,1.1-3,1.5-3.9l.7-2c.8-2.1,1.1-2.4,1.9-4.4s.3-1,.9-2.5l1.3-3.1,2.3-6.1c.7-1.8,1.6-4.2,2.1-5.3a8.7,8.7,0,0,1,.7-1.7l.2-.5a2,2,0,0,0,.1-.7,4.2,4.2,0,0,1,.4-1,20,20,0,0,1,.8-1.9c.1-.1.5-1.1,1.3-2.9l2-4.6c1-2.4,1.2-2.5,2.4-5.3l1-2.3,1.3-3,1.1-2.2c.6-1.4,1.1-2.4,1.5-3.2l.9-2.3a5.1,5.1,0,0,1,.5-1.2l.5-.9.5-1a31.5,31.5,0,0,1,1.3-2.9,2.1,2.1,0,0,0,.6-1,6.6,6.6,0,0,0,.4-1.1,10.4,10.4,0,0,1,.4-1l.5-.9c.9-1.8,1-2,1.2-2s.3.2.9,1.2l1.5,2.6a16.2,16.2,0,0,0,1,1.8l2.3,4.5,2.1,4.4c1.9,3.9,2.8,5.9,3.4,7l1,2c.8,1.6.8,2,1.5,3.5a25.3,25.3,0,0,1,1.4,2.6,22.4,22.4,0,0,0,1.1,2.2c.2.6.5,1.1.8,1.8l.5.9c.6,1.5,1.6,3.3,1.8,3.8s1.2,2.6,2.5,5.4,1.6,3.8,2.4,5.7,1.7,4.1,3.2,7.8l1.5,3.3,1.3,3.2,1.2,2.8c.7,1.7.8,1.4,1.4,2.9l1.4,3.6.5,1.3c.8,2.2,1.2,3.3,1.8,4.7a8.9,8.9,0,0,0,.7,1.6c.5,1.3.6,1.9,1,3a17.8,17.8,0,0,0,1,2.1Z" transform="translate(-18.8 -15.2)"/><path d="M451.1,116.2h-.5c-.9-1.9-1.5-3.4-1.9-4.3l-1.1-2.4a14.6,14.6,0,0,0-1.1-2c-1.1-2.2-1.2-2.7-2.6-5.6s-1.1-2-1.7-3.3-1.1-2.8-2-4.6c-.1-.3-.6-1.2-.8-1.6l-.9-1.8c-.8-1.6-.8-1.4-1.3-2.3s-.4-1.2-1.1-2.7a6.2,6.2,0,0,0-.6-1.4c-.8-1.8-1.3-2.7-1.5-3.4s-.9-2.4-1.4-3.4a13.4,13.4,0,0,1-.6-1.2l-.5-1.2-.7-.9-.5-.6a6,6,0,0,1-.7-1.4,3.1,3.1,0,0,0-.5-1c-.7-1.4-2-4.4-2.2-4.8-1.3-3-2-4.5-2.7-5.9a35.3,35.3,0,0,0-1.7-3.7c-1.6-3.4-1.4-2.8-2.7-5.7s-2.3-4.9-2.7-4.8-.1.3-.4,1.1-.6,1.3-.8,1.8c-.9,2-.7,1.7-1.4,3.1s-1.2,2.4-1.9,4a12.6,12.6,0,0,1-.6,1.5c-.6,1.3-.6,1.6-1,2.4l-.7,1.5-.7,1.7c-.2.6-.3.7-.5,1.2l-.3,1-.6,1.8a47.4,47.4,0,0,1-1.7,4.6l-.8,2.2c-.3.6-.6,1.4-1.2,2.8l-1.4,3.3L401,84.9l-3,6.6-.7,1.5-3.5,7.8c-.2.6-.8,1.8-1.8,4.1l-2,4.3-1.7,4.1a6.1,6.1,0,0,0-.5,1.1l-.6,1.4a5.1,5.1,0,0,0-.2.9h-1.4c.6-1,1-1.9,1.4-2.6l1-2.3a5.4,5.4,0,0,0,.5-1.1,10.4,10.4,0,0,1,.4-1.3,6.7,6.7,0,0,0,.6-1.2c.2-.5.2-.7.4-1.3l.8-1.6,1-2.3c.4-1.1.4-1.2,1-2.7l.9-2.2,1.2-3,2.3-5.5,4.7-11c.6-1.4.3-.6,1.9-4.5s2.2-5.2,2.5-6.1.7-2,1.3-3.4.7-1.4,1.3-2.8,1.4-3,3-6.5l1.4-2.7,1.8-3.4a11.2,11.2,0,0,0,.8-1.7l.6-1.5c.3-.9.4-1,.5-1.1s1,1.1,1.3,1.6c1.5,3.1,2.4,4.5,2.5,4.8s.9,1.9,1.5,2.9a14.8,14.8,0,0,1,.8,1.3,18.5,18.5,0,0,1,1.2,2.6l2,4.4c.6,1.2,1,2,1.4,3,2.8,5.6,2.3,4.3,3,5.9a7.5,7.5,0,0,0,1,1.7c.2.4.4.5.7,1a5.2,5.2,0,0,1,.6,1.3,20.5,20.5,0,0,1,.8,1.9c.4.9.8,1.8,1.1,2.7s2,4.8,3.6,8c.8,1.6,1.4,2.6,2.1,4.3l.9,1.7.9,1.7a6.6,6.6,0,0,1,.7,1.5,11.6,11.6,0,0,1,.6,1.5,27.2,27.2,0,0,0,1.1,2.5l.6,1.2.9,2,1.1,2.6c.7,1.6.7,1.7,1.4,3.2s.6,1.4,1,2.3Z" transform="translate(-18.8 -15.2)"/><path d="M456.7,142v2.4H446.6l-4.8.2H437l-2.8.2H429l-6.7.2H409.9l-1.5.2h-34l-7.5.2h-2.1a25.5,25.5,0,0,1-3.7-.1H345.9c-5.9.1-8.1.3-13.5.3H290.3l-1.9-.2a26,26,0,0,0-4,.1l-7.2.2H259.8c-2.9.2-2.9,0-7,0H233.3c-10-.2-17,.2-17,.2H188.4l-3.2.2h-6.7l-3.5.2-3.8-.2h-3.6c-1.8.1-5.2.2-11.8.1a7.1,7.1,0,0,1-.1-1.4h7.6a29.3,29.3,0,0,0,5.2-.2l2.2-.3h9.1l1.2-.2h68.2l17.6-.3H283l13.7-.2,12.4-.2c4.3,0,6.3.1,12.1,0h6c6.1,0,7.8-.1,15.3-.3,3.6,0,5.6-.1,8.1,0h5.8c5.8.1,7.4-.2,15.2-.1h31.1c3.8,0,7.9-.2,10.7-.3h3.8l5.1.2c3.3.1,3.2-.3,8.2-.5h6.4l3.9-.2c2.9-.1,4.8,0,6.2,0s5.5,0,9.6-.3Z" transform="translate(-18.8 -15.2)"/><path d="M372.5,110.6a1.2,1.2,0,0,1,.2.7c0,.1,0,.3-.1.3s-.3,0-.4,0a2.4,2.4,0,0,1-.6-.9l-.5-1c-.5-1.2-1.4-2.6-3-5.8-.5-.9-.5-1.1-1.4-2.8s-.7-1.4-1-2l-2.5-5.3a39.7,39.7,0,0,0-2-4.1L359.7,87l-.9-2.2-.9-2c-1.5-3.2-1.8-3.4-2.6-5.4a28.7,28.7,0,0,0-1.6-3.7,23.7,23.7,0,0,0-1.4-2.5c-.4-.8-.8-1.3-1.2-2.1l-.6-1.3-1.1-2.3c-.6-1.5-.7-1.5-1.2-2.7s-.6-1.4-1.3-3.1-1.4-3-2.4-5.4c-.2-.3-.4-.9-.8-1.7s-.3-.6-.7-1.4a11.1,11.1,0,0,1-1-2.1c-.7-1.5-.7-2.1-1-2.1s-.2,0-.8,1.3a14.3,14.3,0,0,0-.9,1.9l-.5,1.4-1.3,3.1a12.3,12.3,0,0,0-.8,1.5c-.4,1-.3,1.2-.8,2.4l-1,2.6c-.2.5-.4.8-.6,1.4s-1.2,2.9-1.7,3.9l-1.3,3.2-3.5,8.4L327,80l-1.5,3-.9,2.2c-1.1,2.8-1.6,3.4-2.6,6.1a9.5,9.5,0,0,0-.7,1.6c-.7,2-1.1,3-1.4,3.7s-.9,1.6-1.6,3.2-.2.7-.7,2-1.2,2.5-1.8,3.9l-.6,1.5-.4.8a8.2,8.2,0,0,0-.4,1.1l-.5,1.1a6.6,6.6,0,0,1-.3,1l-.7,1.2a16.7,16.7,0,0,0-1.1,2.8l-.4.9-.4,1.2h-.9c.2-.5.4-1.3.8-2.2l.9-2a26,26,0,0,0,1-2.5,2.5,2.5,0,0,0,.3-.7l1-2.6.7-1.6c.6-1.4.8-2.1,2.1-5.5.6-1.6,1-2.4,1-2.6a42.5,42.5,0,0,0,2.2-5.6l.4-1.3c.3-1,.6-1.6,1.4-3.6a19.2,19.2,0,0,0,1.4-3.3,18,18,0,0,1,.8-2.1l1-2.1c.3-.7.5-1.3,1-2.4s1.4-3,2.3-5.3a22.8,22.8,0,0,1,1.3-3.2c.3-.8.6-1.4,1-2.5s.4-1.1.7-1.8l2.1-4.8c.5-1,.7-1.5,1-2.2l.8-1.8c.7-1.6,1-2.3,1.5-3.3s.5-1.4,1.1-2.8l.8-1.7c.3-.7.4-.7.7-1.3s.3-.9.7-1.6.6-.9.7-.9.7.5.9.8l.4,1c.1.5.2.4.9,1.9s.4,1,1,2.2l3.5,7.8,2,4.3c.4.9.6,1.3.9,2.1s1,1.9,1.6,3.2l1.8,3.7,2.8,5.8c1,2.2,1,2.3,2.3,5l2.2,4.7,3.4,7,1.3,3c.4,1.1.7,1.6.8,1.9l1.6,3.3c.1.1.2.5.6,1.2a29.7,29.7,0,0,0,2.2,4.8,4.3,4.3,0,0,1,.5,1l.6,1Z" transform="translate(-18.8 -15.2)"/><path d="M340.3,34.2h-.1c-.1.3,0,.4-.1.9s-.1.4-.2.6a11.2,11.2,0,0,1-.5,1.5l-1.2,2.7c-.8,1.6-1.3,2.8-1.9,4.3s-.6,1.9-1.4,3.7-.5,1.1-.9,2.1-1,2.4-1.3,3.1a11.2,11.2,0,0,1-1,2.4c-.5,1.2-.7,1.6-1.3,2.8l-1,2.4-1.6,3.9c-1.3,3-1.5,3.2-2.2,5.2l-.8,2.2c-.4,1.1-.8,1.9-1.3,3.2s-.7,1.5-1.5,3.5c-1.9,4.3-2.4,5.3-3.1,7.1s-.4.9-.7,1.8a14.3,14.3,0,0,0-.9,2c-.5,1.1-.4,1.3-.8,2.3l-.8,1.6c-.4.9-.6,1.4-1.4,3.7s-.6,1.7-.7,2.1l-2.2,5.3-.6,1.3c-.8,1.9-.8,2.3-1.5,3.9s-.7,1.6-1.7,4l-.6,1.7-.5,1.8h-.6c-.3-1-.9-2.6-1.4-3.8l.7-.3c0,.1,0,.2.1.2s.4,1.3.7,1.3.2-.1.5-.9l.5-1.4a17.8,17.8,0,0,1,.9-2.3c.6-1.6.6-1.5.9-2.2s.4-1.4.8-2.4a23.5,23.5,0,0,1,1.2-3.3l2.1-5.7,1.1-3.1c.5-1,.7-1.5,1.3-2.9s.4-1.1.6-1.8l.6-1.6.7-1.7,2.7-6.8,3.1-7.9c2.5-6.1,2.4-5.5,3.1-7.4a20,20,0,0,1,1.6-3.9,18.2,18.2,0,0,1,1-1.9,22.3,22.3,0,0,0,1.2-3.1l2.2-4.5,1.1-2.4c1.2-2.6,1.3-3.1,2-4.3l1.1-1.9a17.2,17.2,0,0,1,1.2-2.1l1-2.3c.6-1.2.7-1.6,1.1-2.5l.3-.5Z" transform="translate(-18.8 -15.2)"/><path d="M381.5,114.2h-.4a5.6,5.6,0,0,1-.5-.8c-.5-1.1-.7-1.5-1.3-2.6a20.6,20.6,0,0,1-1.2-2.6c-1-2-.9-2-1.6-3.4s-.7-1.5-1.3-2.5a9.1,9.1,0,0,1-.7-1.4c-.5-.8-.5-1.1-.9-1.8l-1-1.8c-.7-1.3-.6-1.5-1.5-3.2l-.7-1.4-1.2-2.3-.6-1.3a6.8,6.8,0,0,1-.8-1.7,1.8,1.8,0,0,0-.1-.6c-.1-.3-.3-.5-.4-.5a12.5,12.5,0,0,1-1.4-2.7l-1.1-2.5-.5-.9-.8-1.5-1.2-2.4-3.6-7-.9-1.9c-.4-.8-.5-.8-.9-1.7l-1.5-2.9a10.2,10.2,0,0,0-.8-1.5c-.1-.3,0-.1-.6-1.2l-.5-.8-.7-.9-.5-1.1c-.8-1.7-1.5-2.7-2.7-5.6l-.8-1.9c-1-2.3-1.2-2.3-2-4.2s-.7-1.9-1.5-3.4l-.5-1.1a22.3,22.3,0,0,1-1.3-3,7.9,7.9,0,0,0-.8-1.6,11.9,11.9,0,0,0-.9-1.5c-.5-1.1-.6-1.5-.9-1.5s-.5.3-.6.6l-.4-.3c.4-1,.7-1.6,1.1-1.6s.5.5,1.7,2.3a19.6,19.6,0,0,1,1.2,1.7l1.2,2.1a18.5,18.5,0,0,1,1.4,2.6l.6,1.5a4.8,4.8,0,0,1,.5,1.1l.7,1c.3.4.2.5.8,1.5a5.7,5.7,0,0,0,.8,1.6l.5,1c.6,1.1.9,1.9,1.2,2.4a35.6,35.6,0,0,0,2.1,4.6c1,2.3,1.5,3.4,1.8,3.9,1.1,2.2,1.2,2.2,2.5,4.8s1.7,3.6,3.3,6.7c.4.7,1,1.7,1.7,3.2l1.2,2.3c.5,1,.5,1.1,1.1,2.2s.9,1.9,1.1,2.3l.7,1.3c.5,1,.7,1.4,1.2,2.6s1.1,2.1,1.9,3.9.5,1,.8,1.8,1,3,1.8,4.1a5,5,0,0,0,.5.7,8.9,8.9,0,0,1,.7,1.8l1.3,2.7,1.2,2.5c.1.2.2.6.5,1.2l.4.9a10,10,0,0,1,1,2.6,20.6,20.6,0,0,0,1.8,3.9,8.1,8.1,0,0,1,.6,1.3,7,7,0,0,1,.5,1.3Z" transform="translate(-18.8 -15.2)"/><path d="M163,133.3v1.6c-.1.1-.1.4-.2.6a2.1,2.1,0,0,1-.7.8l-.4.2-.9.2h-4.5l-.7.2h0a28.1,28.1,0,0,0-.1-2.9h.9a2.3,2.3,0,0,0,1.4-.1,1.7,1.7,0,0,0,1.1-.4l.3-.3a.5.5,0,0,0,.2-.4.6.6,0,0,0,.1-.4,3.7,3.7,0,0,0,0-1.5,4.2,4.2,0,0,1,.1-.7v-.2a.5.5,0,0,1,.4-.3h.6l.8.4,1.1.8a6.2,6.2,0,0,1,.3,1A8.9,8.9,0,0,0,163,133.3Z" transform="translate(-18.8 -15.2)"/><path d="M451.1,123h-.7a.4.4,0,0,0,.1.3,2.6,2.6,0,0,0,.1.7v2.3c0,.4,0,.5-.1.6s-.1.3-.2.5a4.5,4.5,0,0,0-.2.8c0,.4-.1,1.1-.1,2.3v.8c.1.6.2.8.3.8h2.4a16.5,16.5,0,0,0,2.3,0h.8l.8-.2v1.9c-3.9.1-7.1.3-9.3.5a65.3,65.3,0,0,1-7.9.3H424.8c-.1-.1-.3-.2-.3-.3s.4-.2,1.3-.3h1.1l3.9-.2h1.3l.9-.2h3.7l4-.3h7.2c.2-.1.2-.5.3-1s-.1-.6-.1-1.2a2,2,0,0,1,.1-.7c.1-1.1.1-1.7.2-2.4v-1.4a4.4,4.4,0,0,1-.2-1.2c-.1-.8-.2-1.3-.4-1.4H427.2l-10.1.2-5.6.2H401.4c-.2,0-.5,0-.6.2a.6.6,0,0,0-.1.4,4.1,4.1,0,0,1,0,1.1v4.5a38.9,38.9,0,0,1-.3,4.2,20.2,20.2,0,0,1-.8,3.8c0,.2,0,.1-.3.8a1.7,1.7,0,0,1-.3.7l-.2.3h-.4c-.2-.2-.1-.6,0-1.3a13.8,13.8,0,0,0,.1-1.4,8.6,8.6,0,0,0,.1-1.5c0-1-.1-1.3-.2-2.6v-2.5c-.1-1.1-.2-2-.3-2.8s-.2-1.2-.4-2.7.1-.8-.2-1-.4-.1-.8-.1h-1.3a13.3,13.3,0,0,0-2,0h-6.6a9.9,9.9,0,0,0-2.3-.1l-2.7.2h-5.6c-4.2-.1-11.5.1-12.4.1h-8.3c-3.3-.1-6.5.2-9.7.1a1.4,1.4,0,0,0-1.2.2c-.3.3-.3.5-.6,2.5s-.2,1.3-.3,1.9a8.5,8.5,0,0,0-.3.9,7.7,7.7,0,0,1-.4,1.2,4.8,4.8,0,0,1-.5,1.2l-.2.8c-.2.4-.3.5-.2.6s1.1.2,1.5.1,2.4-.1,3.6-.3c2.7-.2,4-.3,4-.7l-.4-.7a1.1,1.1,0,0,1-.2-.8c0-.1.1-.4.8-.8a6.8,6.8,0,0,1,2.4-.5,4.8,4.8,0,0,1,2.1.6,1.2,1.2,0,0,1,.7.7,1.5,1.5,0,0,1,.1.7,1.1,1.1,0,0,1,0,.8l-.4.6c-.3.4-.2.5-.4.7a1.2,1.2,0,0,1-.9.3l-1.9.2-2,.3-1.4.2-2.7.2h-2.3l-6.4.2H321l-.7-.3a.4.4,0,0,1-.4-.3l.5-.2a50.1,50.1,0,0,1,7.5-.5l4.1-.2h6.1a2.8,2.8,0,0,0,1.2-.1.7.7,0,0,0,.6-.2,1.6,1.6,0,0,0,.7-1,12.4,12.4,0,0,0,.4-1.6,6.2,6.2,0,0,0,.3-1.6,19.3,19.3,0,0,0,.1-2.5c.1-1.4.4-1.9.1-2.3l-1.3-.2h-8.6c-2.6-.1-5.4,0-11.7.1s-11.4-.1-14.9.1h-2.6c-1.3-.1-2.5.1-3.8,0a1.1,1.1,0,0,0-.7.2c-.1.2,0,.4.1.9v7.6c.1,1.2-.1,2.5,0,3.7s0,.9-.4,1.1-.2.2-.4.1a.7.7,0,0,1-.3-.6l-.3-2.4a10.6,10.6,0,0,0-.3-2c-.2-.9-.3-1-.5-1.8v-1.8a26.1,26.1,0,0,1,0-2.8c0-1.8-.1-2-.2-2.1s-.8,0-2.9-.1H275.9a18.5,18.5,0,0,1-2.4,0H249.4c-.2.1-.2.5-.2.8a6.8,6.8,0,0,1-.3,1.9,21.4,21.4,0,0,1-.9,3.8l-.5,1.2c-.3.6-.6.9-.4,1.1s.1.2.8.2h6.7c.9,0,1.1-.1,1.2-.2s.3-.2.8-1.3l.5-1.4a11.2,11.2,0,0,1,.4-1.1,2.6,2.6,0,0,1,1.3-1.2l.8-.2a3.4,3.4,0,0,1,1.1.7l.6.5.6.5a2.9,2.9,0,0,1,1,.6,1.4,1.4,0,0,1,.3.6c.2.6-.2,1.1-.6,1.7a4.8,4.8,0,0,1-1.5,1.4,3.9,3.9,0,0,1-1.6,1l-1.1.2H246.7c-2.7,0-3.9.1-6.2,0H222.7a1,1,0,0,1-.7-.2l-.5-.5c-.2-.4-.4-.6-.3-.7s.5-.3,1.6-.3h2a60,60,0,0,0,6,0h10.7a7.5,7.5,0,0,1,2-.1h2.1a.6.6,0,0,0,.1-.4c0-.3.2-.7.2-1a16,16,0,0,1,.3-2.3,13.3,13.3,0,0,0,.3-1.3,6.4,6.4,0,0,1,.2-.9c.1-.5.1-.7.2-1.2s.4-1.7.3-1.8-.6-.1-1.4,0h-5.9c-2.4.1-2.2-.1-6.3,0H211.8l-10.6.2h-3.7a20.2,20.2,0,0,1-2.5,0h-.8a.4.4,0,0,0-.1.3,4.1,4.1,0,0,0,0,1.1c0,.5-.1,1.1-.1,1.6a38.7,38.7,0,0,1-.1,4.5c-.1,1.5-.1,1.7-.1,2.3s-.3,2.3-.3,2.6a18.2,18.2,0,0,0-.5,2.3,12.7,12.7,0,0,0-.4,1.5,5.5,5.5,0,0,1-.5,1.7s-.4.6-.5.6h-.1c-.1,0-.1-.2-.1-.3v-.3c.1-.5.1-.8.2-.9a9.3,9.3,0,0,1,.1-1.3,6.8,6.8,0,0,1,.1-1.2v-2.3c0-2.4-.1-4.8-.1-4.8a43.1,43.1,0,0,0-.4-5.1,3.7,3.7,0,0,0-.1-.8,3,3,0,0,0-.4-1,4.5,4.5,0,0,0-1-.5,1.3,1.3,0,0,0-.9,0c-1.2,0-2.5-.1-3.7,0h-6.1a23.9,23.9,0,0,0-2.7,0H161.8c-2.7-.1-5,0-6.5,0v-1.5h7.3l12.7-.2,13.8-.2H202l21.7-.2h45.9c3.3,0,4.7.2,7.2,0h2.9a28.5,28.5,0,0,1,3,0h15c.5,0,1.9.1,3.8,0h11.6l4.8-.2h70.4c3.5-.1,2.5,0,7.4,0s8.3-.2,9.9-.1h2.9c1.2-.2,1.7,0,4.7,0h5.3c3.1-.2,5.9,0,10.7,0h27.4V123h-5.5Z" transform="translate(-18.8 -15.2)"/><path d="M301.8,117.4h47.4c4.4-.1,4-.2,6.6-.1h6.1l2.8-.2c1.9-.1,2.6,0,7.4.1h4.7a33.5,33.5,0,0,1,4.8.1h.2c1.3.1,1.8,0,3.8,0h4.5c3.9,0,3.6.1,7.3,0h59.2V118H445.9l-6.8.2h-3.7l-10.1.2c-7.3.1-11,.2-12.1.1a15.9,15.9,0,0,0-2.2,0l-1.9.2H393.5c-2.8.1-2.9-.1-5.8-.1s-2.2.2-4.6.2h-7.5l-1.9.2h-2a52.8,52.8,0,0,0-6.9,0c-7.2.2-14.3.1-21.5.1l-29.1.3H283.5c-6.7.1-8-.2-11.8,0l-4.2.2H253.4l-18.7.2H162.8l-3-.2a38,38,0,0,0-4.4.2c.1-.4.3-.6.3-1a3.5,3.5,0,0,0-.2-1h22.2a17.5,17.5,0,0,1,3.5-.1h13.2c2.7.1,2.6,0,4.2,0a10.1,10.1,0,0,0,1.8,0h6.7c3.2.1,5.4-.1,10-.1h35.7a17.4,17.4,0,0,1,3.2-.1h2l2.5-.2h4.2c2-.1,2.5.1,4.5.1h12.7l2-.2h3.4c.8,0,3.5.1,6.5-.1h2.1a13.9,13.9,0,0,1,3.3.1h2.6Z" transform="translate(-18.8 -15.2)"/><path d="M442.6,110.1c.4.9.8,1.3.6,1.6s-.4.3-.7.4h-.9l-1.7-.2h-6.6l-2,.2h-2.1a11.1,11.1,0,0,1-2.5-.5l-1.3-.4a22.5,22.5,0,0,1-2.8-1.4,8,8,0,0,1-1.4-1.1l-.7-1-1.3-1.9c0-.1-.2-.4-.3-.7s-.4-1.1-.7-2.3a7.1,7.1,0,0,1-.1-1.4,1.1,1.1,0,0,1-.1-.5c0-.4.1-.5.2-.5s.3.1.4.3a1.6,1.6,0,0,1,.2,1,3.7,3.7,0,0,0,.4,1.5l.8,1.4c.7,1.1.7,1.1.7,1.2l1.4,1.5,1.2,1.1a6,6,0,0,0,1.4.7l1.3.5,2,.6,1.7.4,2.4.3h4.2a14.6,14.6,0,0,0,2.1,0h1.3a2.9,2.9,0,0,0,1.3-.1.7.7,0,0,0,.6-.3c.2-.4-.1-1-.4-1.4s-.6-.6-.8-1.2l-.2-.7a3.6,3.6,0,0,0-.7-1c-.3-.6-.2-.6-.6-1.5l-.7-1.2a8.1,8.1,0,0,1-.6-1.3,10.7,10.7,0,0,0-1.1-1.9c-.5-1-.6-1-.8-1.4s-.6-1.4-1.2-2.6-1.2-2-1.9-3.8l-.8-1.7a6.7,6.7,0,0,0-.6-1.2l-.6-1.5a22.2,22.2,0,0,0-1.5-3.3l-1.4-3-1-1.9-.6-1.4a25.4,25.4,0,0,0-2.1-4.6c-.5-1.2-.2-.6-1.5-3.4s-1.8-3.8-2.2-4.5l-1.1-1.9c-.4-.9-.6-1.4-1.2-2.6s-1-2-1.2-2h0c-.3-.1-.5.8-.6,1.3l-1,2.4s-.3,1.1-.7,2.1-1,2.1-1.6,3.5-.7,1.9-1.2,3.1-1.1,2.7-2.4,5.6c-2,4.5-3.5,8.7-4,10.1l-.9,2.2c-.9,2.6-1.3,3.3-2.3,6a20.7,20.7,0,0,0-.8,2.1c-.8,1.9-1,2.2-1.6,3.7s-.7,2.1-1.6,4.2a24.7,24.7,0,0,1-1.3,3c-.5,1-.7,1.3-.6,1.6s3.4.4,4,.3l1.5-.3,1.7-.2a17.6,17.6,0,0,0,2.7-.5l1.9-.3a12.2,12.2,0,0,0,1.7-.5,10.8,10.8,0,0,0,2.6-1.5,5.9,5.9,0,0,0,1.8-1.7c1.3-1.9,1.1-5.3,1-5.9s0-.8.2-.9.3,0,.4.1a1.5,1.5,0,0,1,.2,1,3.8,3.8,0,0,0,0,1.1v.6c-.1.6-.1,1.3-.3,2.2a4.8,4.8,0,0,1-.5,1.7,7.4,7.4,0,0,1-2.1,2.8l-1.1,1.1-.9.6c-1.5,1-6,1.2-6.8,1.3l-4.9.2c-4,0-4.4-.7-4.5-.9s.2-.8.9-2.3.4-1.2,1.2-3.3.8-1.9,1.7-4,1-2.5,2-5.2l1.9-4.5,4.1-9.9c.9-2.3.6-1.7,1.7-4.4,1.8-4.5,3.5-8.5,4.6-11.1l.7-1.8.5-1.1.6-1.4a4.1,4.1,0,0,1,.3-.8,19.5,19.5,0,0,1,.8-2.2c.7-1.4.8-1.4.9-1.4s.4.1,1.2,2.1l.8,1.7c.5,1.5,1,2,2.4,4.6l1.7,3.2,3.3,6.3,1.4,3.1c1.9,4.2,2.8,5.6,4.8,9.9s1.1,2.3,3.6,7.8l4.7,9.8a29.3,29.3,0,0,1,1.3,2.9A16.5,16.5,0,0,0,442.6,110.1Z" transform="translate(-18.8 -15.2)" fill="#211613"/><path d="M435.3,107.6c0,.1.2.4,0,.5s-.1.1-.2.1h-.6l-.9-.2h-1c-1.4-.1-1.4-.3-2.6-.4h-1l-1-.2-.7-.4-1.3-.6a6.1,6.1,0,0,1-1.8-1.2,10.1,10.1,0,0,1-1.5-1.8,4.6,4.6,0,0,1-1.2-2.1c-.1-.4-.1-1,0-1s.1,0,.4.5a8.9,8.9,0,0,1,.9,1.6l.6.8a1.9,1.9,0,0,0,.7.6,6.3,6.3,0,0,0,1.7,1l2.2.9,1.5.4h3.4l.4-.2c.1-.1.1-.2,0-.6l-.3-.6-.5-.8a7.6,7.6,0,0,1-.9-1.8,27.9,27.9,0,0,0-1.5-2.9c-.9-1.6-1.4-2.7-2-3.9-1.7-3.6-1.9-3.8-4.3-8.8l-4-8.1-1.2-2.6c-1.4-2.8-1.9-4-2.3-4s-.3.4-.6,1.5a13,13,0,0,0-.8,2.1c-1,2.5-.9,2.5-1.3,3.6a9.8,9.8,0,0,0-.7,1.6,13.3,13.3,0,0,0-.5,1.9,9.8,9.8,0,0,1-.6,1.4c-.6,1.4-1.6,3.7-2.4,6.1s-.2.8-.5,1.7-.9,2.4-1.7,4.4-.3,1.1-.8,2.6-1,2.8-1.2,3.2a3.7,3.7,0,0,0-.4,1,2,2,0,0,0-.2.8c.1.2.3.2.9.2h3.1l.9-.2.8-.7a7.6,7.6,0,0,0,.7-1.3l.5-1.1c.1-.7-.1-1.1.2-1.4s.3-.3.5-.2a.8.8,0,0,1,.3.7,4.8,4.8,0,0,1,0,1.2c0,.1-.2.5-.5,1.5a4,4,0,0,1-.6,1.3c-.1.2-.3.4-.9.7a6.3,6.3,0,0,1-2.9.6,14.9,14.9,0,0,1-2.5.1h-1.4a1.1,1.1,0,0,1-.6-.4,1.2,1.2,0,0,1,.1-1,6.5,6.5,0,0,1,.3-1.2,14.5,14.5,0,0,0,.8-2.1l.7-2.2c.2-.7.4-1.1.5-1.4s.8-2,1.5-3.8a9.3,9.3,0,0,0,.8-1.7c1.1-3.2,2.2-5.9,3-7.9l1.4-3.5c1.6-3.7,2.3-4.6,2.7-6.4a15.7,15.7,0,0,1,.7-1.8c.5-1.5.7-1.6.9-1.6s.6.6.9,1.3,1.2,2.2,1.8,3.4l2.2,4.3c.8,1.8.9,2.1,2,4.3l1.2,2.3a25.7,25.7,0,0,1,1.3,2.7l1.3,3a20.5,20.5,0,0,0,1.1,2.5c.6,1.2.8,1.3,1.4,2.4s.4.9,1.3,2.9,1.1,2.4,1.8,3.7l.9,1.9.6,1.6c.3.6.3.7.5.9S435.2,107.3,435.3,107.6Z" transform="translate(-18.8 -15.2)" fill="#211613"/><path d="M365.5,109c.2.4.6.9.4,1.4a.9.9,0,0,1-.6.4,4.3,4.3,0,0,1-1.5.3h-10l-1.7-.2a9.4,9.4,0,0,1-2.7-.6l-1.5-.7-1.1-.7a6,6,0,0,1-.8-.8l-1.1-1.6c-.6-.9-1.2-1.9-1.9-2.8h-.1c-.2-.3-.4-.6-.3-.9l.3-.2c.1,0,.2.2.2.3l.5.6a17.1,17.1,0,0,0,1.7,2.5c1.3,1.7,1.5,1.9,1.8,2.1l1.1.6,1,.6,1.6.2h7.1l.8-.3h4.6c.6-.1,1-.1,1.1-.3s0-.4,0-.6-.8-2-1.2-2.8a10.4,10.4,0,0,1-.5-1.2,10.5,10.5,0,0,1-.7-1.1c-.4-.8-.4-1-.8-1.7l-.8-1.2c-.5-.9-.8-1.4-1.5-2.9s-1.1-2.1-2.3-4.6-.4-1-1.4-3.1L353,85.4l-2.4-4.6-1.1-2.1c-1.3-2.5-1.6-3.5-2.5-5.2l-.8-1.5-.7-1.4-1-2.1-.9-1.6-1.3-2.7L340.8,61c-.3-.7-.4-1.3-.7-1.3s-.2.1-.6,1.2l-.8,2.1a6.8,6.8,0,0,1-.3,1l-.9,2.5-.8,2.3-.5,1.4-.6,2.3c-.3,1-.5,1.2-1,2.5s-.4,1.2-1.1,3.1a28.9,28.9,0,0,1-1.8,4.9l-1.2,2.9-.8,2.1c-.2.7-.4,1.1-.6,1.7s-.6,1.1-.7,1.4a26.5,26.5,0,0,0-1.4,3.6c-.5,1.3-.2.3-1.8,4.4-.5,1.3-.6,1.7-.9,2.3s-.6,1.1-1,2a7.8,7.8,0,0,0-.5,1.4,5.4,5.4,0,0,0-.3,1,14.8,14.8,0,0,0-.8,1.3c-.3.7-.2.7-.5,1.3a10.5,10.5,0,0,1-.7,1.1c-.3.6-.5,1.1-.3,1.4s.7.3,1.3.4h.9l1.4-.3h.9l3.3-.5h2.3l1.1-.2h1.1l1.8-.2h.6a3.7,3.7,0,0,0,1.5-.8l1.6-1.2a4.7,4.7,0,0,0,.8-1.4,2,2,0,0,0,.2-.8c.1-.5.1-.7.2-1.1a1,1,0,0,1,.4-.5.8.8,0,0,1,.8-.2.1.1,0,0,0,.1.1c.3.4,0,1.5-.2,2.2a5.5,5.5,0,0,1-.5,1.7,5.3,5.3,0,0,1-2.1,1.9,11.1,11.1,0,0,1-2.9,1.4l-1.4.4h-3.7l-3.1.3-1,.2-1.5.2h-3.2c-1.1,0-1.5,0-1.7-.3s0-.4,0-.9a4.3,4.3,0,0,1,.5-1.3,8.8,8.8,0,0,1,.6-1.7,8.9,8.9,0,0,1,.5-1.3,14.7,14.7,0,0,0,.6-1.4,4.8,4.8,0,0,0,.5-1.4c.1-.4.2-.5,1.1-2.7l1.1-2.8a15.6,15.6,0,0,0,.8-2.1c.5-1.2.5-1.4.9-2.5l.8-1.8,1.1-2.9.7-1.5a15.5,15.5,0,0,0,.7-2.3c.2-.4.5-1.3,1.2-3.1l.8-1.8.8-1.8c.4-1,.3-1,.7-2s.4-.7,1.3-2.8a7.9,7.9,0,0,0,.5-1.3c.2-.7.2-.9.4-1.7s.3-.6.6-1.5a20.9,20.9,0,0,0,.8-2.3c.3-.9.3-.8.8-2.1a8.4,8.4,0,0,1,.4-1.2c.1-.1.2-.5.6-1.2s.5-.9.7-1.4.3-1,.7-1.8,0-.1.3-.6.3-.7.4-.7.3.1.8.8l.6.7a9.7,9.7,0,0,1,.7,1.2,4.7,4.7,0,0,1,.5,1,21.7,21.7,0,0,0,1.1,2.2,5.5,5.5,0,0,1,.6.8l.5.9c.4.9,1.3,2.5,2.6,5l2.6,5,4.8,9.7,3.4,7.3,1.8,3.9,2,4.4,1,2.4a23.8,23.8,0,0,1,1.3,2.9C365.7,109.2,365.2,108.5,365.5,109Z" transform="translate(-18.8 -15.2)" fill="#211613"/><path d="M357.9,104.1c.6,1.1.6,1.2.5,1.4s-.9.8-1.7,1l-1.9.3h-3.1a2.7,2.7,0,0,1-1.2-.4,9.5,9.5,0,0,1-2-1.6,11.5,11.5,0,0,1-1.8-2.3c-.1-.3-.7-1.3-.5-1.5s.4,0,.5.1l.5.7a4.5,4.5,0,0,0,.9,1.4l.6.6.8.7a4.1,4.1,0,0,0,1.6.6l1.9.2h2.6c.3-.1.6-.2.7-.4s0-.3-.2-.7,0,0-.5-1.1a11.2,11.2,0,0,1-.8-1.7l-.4-1a13.1,13.1,0,0,0-1.2-2.4,11.9,11.9,0,0,0-.6-1.4L351,93.3c-1.5-3.2-1.7-3.4-2.7-5.6s-.3-.7-.9-2l-1.9-4.1c-.1,0-.3-.3-.5-.7l-.3-.8a12,12,0,0,0-.6-1.2,9.1,9.1,0,0,0-.7-1.4l-.9-2.1-1-1.8c-.5-.8-.7-1.1-.9-1s-.2.3-.3.7a12.7,12.7,0,0,1-.6,1.8l-1.2,3.2c-.7,1.7-1.1,3-1.7,4.6s-.5,1.5-.9,2.6-1.1,2.9-1.9,5l-.5,1.6c-.4,1-.6,1.6-.9,2.2s-.6,1.8-1.6,4.8l-.7,2.2-.3,1-.5,1.6-.3.7c-.1.4-.2.5-.1.6h1.2l2-.3a5.4,5.4,0,0,0,2-.9l.7-.5c.4-.2.5-.5.9-.9s1.2-1.5,1.4-1.5.3.3.4.4-.2.6-.3.9-.4.9-.9,1.6a6.7,6.7,0,0,1-2.2,1.9,15.3,15.3,0,0,1-3.4.8l-1.9.3h-1.6c-1,0-1.1-.2-1.1-.2s0-.3.5-1.2a4.3,4.3,0,0,0,.6-1.2,6.4,6.4,0,0,0,.2-.9,2.4,2.4,0,0,0,.3-.7,11.8,11.8,0,0,0,.8-1.6,10,10,0,0,0,.4-1.1,9.6,9.6,0,0,1,.7-1.8c.2-.7.2-.9.5-1.8s.7-1.9,1.1-3.1a17.8,17.8,0,0,0,.9-2.3c.3-.7.2-.7.5-1.4a33.4,33.4,0,0,1,1.4-3.8l.7-1.6.5-1.3a37.8,37.8,0,0,1,1.7-4.5l.6-1.5a6.9,6.9,0,0,0,.4-1l.6-1.2a13.1,13.1,0,0,0,.5-1.5c.4-.9.8-2,1.4-2s.3.3,1.4,2.1l1.2,2c.4.8.4,1,.8,1.7l1.4,2.4c.8,1.4.9,1.8,3.8,7.5.5.9,1,1.8,1.4,2.7a20.5,20.5,0,0,1,1.3,2.6l.5,1.1a10.6,10.6,0,0,0,1.1,1.9c.3.5.2.5,1.1,2.4s.8,1.8,1.4,2.8l1,1.9Z" transform="translate(-18.8 -15.2)" fill="#211613"/><path d="M305.2,113.2l-.7.3a3.1,3.1,0,0,1-.2-.8c-.9-2.4-1.8-4.8-2.6-7.2a26.9,26.9,0,0,0-2.1-5.2l-.8-1.7-1.7-3.9-.9-2.1c-1.3-3-1.3-3.1-2-4.6a30.5,30.5,0,0,0-2.1-4.4c-.4-.9-.8-1.5-1.5-2.8l-1.1-2.2-2.3-4.5-2.7-4.9c-1.4-2.7-1.3-2.7-2.4-4.7s-1.8-2.8-3.3-5.7l-3-6.2a9.3,9.3,0,0,1-.8-1.7,19.5,19.5,0,0,1-.8-2.2,19.1,19.1,0,0,0-1.1-2.6c-.7-1.5-1.3-2.8-1.5-3.1-1.3-2.7-2-4-2.7-5.4-2.1-3.8-2.6-4.2-2.9-4.1l-.3.2-.4-.2c0-.1.1-.2.2-.3s.5-.8.7-.8,1.4.7,1.7,1.2a4.2,4.2,0,0,0,.6.8c.2.2.4.2.6.5l.4.5.8,1.1,1.6,2.8c.5.9.6.9,1,1.6s.4.8.8,1.6.5,1,1,2l1.8,3.2,2.7,5.3c1.3,2.6,1.4,2.8,2.5,4.8s.9,1.7,1.8,3.4l2.8,5.7c1.1,2.2,1.1,2,1.5,3l3.1,6.4c2.8,6.1,4.2,9.2,5.9,13.3,0,0,2.7,6.6,5.5,14.6.8,2.3,1.3,4.2,1.9,5.9a6.4,6.4,0,0,1,.6,1.8C305,112.4,305,112.7,305.2,113.2Z" transform="translate(-18.8 -15.2)"/><path d="M301.8,117.4h-.7a8.9,8.9,0,0,0-1.1-2.2c-.3-.6-.6-.8-1-1.5a8.1,8.1,0,0,1-1-1.8l-2-3.8a23.1,23.1,0,0,1-1.4-2.8c-1.5-3.1-1.6-3.1-2.3-4.7s-1.4-3-2.8-6.1-1.6-3.4-2.6-5.6c-2.6-5.9-2.6-6-3.3-7.2s-.8-1.5-1.3-2.7l-.9-2.5a8.1,8.1,0,0,0-.9-2.1l-1.1-2.1-.9-2.2c-.9-2.3-1.4-3.4-1.7-4.1s-.9-1.4-1.6-2.8-.4-1-1-2.5-1.2-3.1-1.9-4.5l-1.6-3.1c-1-1.8-1-2-1.5-2.8l-1.6-2.5-.7-1.1c-.5-.8-.6-1.2-.8-1.2s-.5.5-.7,1.1-1,1.9-1.4,2.9l-1.1,2.6L261.7,55l-1.2,3.3c-.4,1.2-.7,1.8-1,2.6s-.7,1.5-1.1,2.6-.5,1.3-1.1,3l-1.7,4.3-1.2,2.9a5.6,5.6,0,0,1-.4,1.2,14.3,14.3,0,0,1-.5,1.8,6.7,6.7,0,0,1-.7,1.8,50.4,50.4,0,0,0-1.9,4.7c-1.5,3.6-2.2,5.5-2.5,6.1s-.8,1.9-1.3,3.3-.5,1.5-.9,2.7c-1.1,3.2-2.3,5.3-3,7.5a9.4,9.4,0,0,1-.4,1,10.7,10.7,0,0,1-.7,1.9c-.2.6-.3.7-.7,1.7a41.6,41.6,0,0,1-1.5,3.9,22,22,0,0,1-1.3,3.5,6.7,6.7,0,0,0-.3.7,4.1,4.1,0,0,0-.3.8,2.5,2.5,0,0,0-.4.9c-.2.2-.2.5-.3.6h-.8c.3-1,.7-1.8.9-2.4s1-2.1,1.3-3.2a9,9,0,0,1,.4-1.6c.2-.7.4-1.1.5-1.4s1-2.7,1.3-3.2c1.1-3,1.3-3.7,1.4-4a1.4,1.4,0,0,1,.2-.7l.5-1.2a4.7,4.7,0,0,0,.4-1.4,12.6,12.6,0,0,0,.7-1.6c.3-.6.2-.7.5-1.4a8.7,8.7,0,0,1,.5-1.2c.6-1.3.7-2.2,1.5-4.3s.8-2.2,1.2-3.1l1-2.4c.3-.8.2-.9.5-1.7a24.1,24.1,0,0,1,1.1-2.5c.5-1.3.8-1.9,1.1-2.6s.5-1.3.8-2.2.3-1.1.6-1.9l.6-1.3,1.3-3a22.4,22.4,0,0,0,1-2.6l.5-1.4c.4-1.1.6-1.3,1-2.4l.5-1.3a6.8,6.8,0,0,1,.9-1.7c.6-1.2.4-1.3,1.2-3.1l.9-1.8a17.8,17.8,0,0,1,1.2-2.7l.6-1.2.9-2,.6-1.6a17.4,17.4,0,0,0,1-1.9,15.5,15.5,0,0,0,1-2.2c.2-.5.2-.9.4-.9s.4.5.7,1.1.9,1.9,1.3,2.8l1.2,2.3c.9,1.9,1,2.2,1.7,3.5s1,1.7,2.6,4.6l1.8,3.5a20.2,20.2,0,0,1,1.1,2.2l1,2.1a20.8,20.8,0,0,1,1.3,2.5,15.4,15.4,0,0,1,.8,1.9c.9,2,1.6,3.5,2.4,4.9l1.3,2.6c.7,1.4.8,1.8,1.8,3.9s1.5,3,2.3,5,.6,1.6,1.3,3.1,1.4,3,2,4.2l1.1,2.2c.7,1.4,1.1,2.4,1.9,4.4,2.8,6.8,2.8,6.7,2.9,7.1a32.5,32.5,0,0,0,1.5,4,24.2,24.2,0,0,1,1.2,2.3,16.7,16.7,0,0,0,1.1,2.3,5.4,5.4,0,0,0,.4.8l.2.6Z" transform="translate(-18.8 -15.2)"/><path d="M291.7,110.9a1.6,1.6,0,0,1,0,.7,1.1,1.1,0,0,1-.7.3,18.1,18.1,0,0,1-2.5.2h-1.3l-.6.2h-9.5a13.8,13.8,0,0,1-2.9-.6,3.1,3.1,0,0,1-1.4-.6,5.5,5.5,0,0,1-1.1-1.1l-1.2-1.2a10.9,10.9,0,0,1-.6-1.1l-.3-.8a2,2,0,0,0-.2-.6,12.9,12.9,0,0,0-.6-1.2c-.4-.5-.6-.6-.7-1s-.1-.5,0-.6,1.2.8,1.4.9l.2.2c.9,1.1.8,1.8,2,3.3l1.3,1.4,1,.7a4.8,4.8,0,0,0,2.7.5l2.3.2c2.4.1,3.7.1,6,0s4.4-.3,4.6-.7-.1-.4-.8-1.8-.2-.6-.8-1.9l-1-2a17.3,17.3,0,0,0-1.2-2.8l-1.1-2.1a28.6,28.6,0,0,1-1.5-3.3c-2.4-5.4-2.4-5.5-2.8-6.5s-.6-1.7-1.1-2.8L277.5,83c-.2-.5-.4-.8-.7-1.4a18.3,18.3,0,0,0-1.3-2.6l-.5-.9a7,7,0,0,1-.3-1.4c0-.2,0-.2-.7-2.2a7.2,7.2,0,0,0-.6-1.5,7.3,7.3,0,0,0-.7-1.4l-.6-1.2-.4-1.2c-.4-.9-.5-.9-.9-1.7s-.2-.8-.5-1.5a15.1,15.1,0,0,0-.9-1.8,24.4,24.4,0,0,1-1-2.8l-.6-1.6c-.8-1.9-.9-2.5-1.2-2.5s-.4.3-.7,1-.4.8-.8,1.5l-.6,1.3a3.4,3.4,0,0,0-.4,1.2c-.1.4-.3.8-.6,1.7l-1,2.8-.9,2.5-1.2,3.3-2.8,7.7c-.1.3-.3.7-.4,1.1a8.5,8.5,0,0,1-.3.9c-.3.4-.6.4-.7.8a1.3,1.3,0,0,0-.1.6,3.4,3.4,0,0,1-.5,1.6,56.5,56.5,0,0,0-2.3,5.7c-1.6,4-2.4,6-2.6,6.7l-.7,1.6a23.9,23.9,0,0,0-1.2,2.2c-.1.2-.2.6-.5,1.2a3.9,3.9,0,0,1-.4,1c-.4.8-.6.9-.9,1.6a6.2,6.2,0,0,0-.3,1c-.2.6-.4.8-.7,1.5s-1,1.9-.9,2.1.4.4,1.6.1h5.6l1.8-.2,1.8-.2,2.4-.4a5.5,5.5,0,0,0,1.5-.8,8.9,8.9,0,0,0,1.2-1.4,5.4,5.4,0,0,0,.6-1.6c.2-.7.3-.5.8-1.8a4.7,4.7,0,0,1,.5-1c.4-.5.7-.6.9-.6h.5c.2.1.2.4-.2,1.7a15.5,15.5,0,0,1-.4,1.5c-.1.6-.2.9-.3,1.4l-.3.7a5.3,5.3,0,0,1-1,1.5l-1,1a5,5,0,0,1-1.3.7l-1.2.3-1.1.2h-2a24.3,24.3,0,0,1-3.6-.2l-3.2-.3h-3.2c-1,.1-1.4.2-1.6,0s.2-.8,1.2-3a9.1,9.1,0,0,0,.7-1.4c.5-1.1.5-1.2.9-2.2s.7-1.4,1.1-2.6l.5-1.2,1.2-3.1.7-1.8a17,17,0,0,1,.6-1.8,22.2,22.2,0,0,1,1.3-3.1c.5-1.4.5-1.7,1.2-3.6s.7-1.6,1.6-4.1c2.2-5.3,2.4-6.1,3.4-8.4l1.4-3.3.5-1.3c.3-.7.3-1,.6-1.7a15.6,15.6,0,0,1,.6-1.5c1-2.2.8-2.5,1.5-3.8a7.1,7.1,0,0,0,.7-1.5,4.1,4.1,0,0,1,.2-.7c.2-.5.4-.8.4-.9l1.2-2.3c.5-1,.8-1.5,1.1-1.5s1.2.8,1.5,1.3.2.6.7,1.6l.7,1.4a12.9,12.9,0,0,0,.9,1.6l1.1,2.1a12.1,12.1,0,0,0,.5,1.4,4.6,4.6,0,0,0,.7,1.3l1.3,2.9c.9,1.8,1.2,2.8,2.2,5.2s1.5,3.6,3.2,7.3a27.2,27.2,0,0,0,1.3,2.8c2.5,5.4,3.5,7,4.5,9.7.2.4.5,1.2.9,2.3s.7,1.3,1.1,2.3a22.4,22.4,0,0,1,1.2,2.9c.7,1.5.9,1.6,1.6,3.2l.6,1.7c.6,1.5.3.8.7,1.9S291.5,110.3,291.7,110.9Z" transform="translate(-18.8 -15.2)" fill="#211613"/><path d="M283.9,104.8c.3.6.5.9.4,1.3s-.1.4-.4.5-.1.1-.3.1h-.5a7.9,7.9,0,0,1-1.6,0h-2.2l-1.4-.2a11.4,11.4,0,0,1-2.4-.5,10.8,10.8,0,0,1-2-1.2l-1-.9a3.1,3.1,0,0,1-.5-1c-.1-.5,0-1.1.2-1.2s.4.3.8.7a10.4,10.4,0,0,0,1.6,1.6,11.5,11.5,0,0,0,2.4,1l1.7.4h3.5c.2-.3-.3-1-1.1-2.4l-1-1.7c-1.8-3-2.2-5.1-3.7-7.5l-.6-1.2a19.5,19.5,0,0,1-.9-2,12.6,12.6,0,0,0-.8-1.8l-1.9-3.9c-.5-1.1-.4-1-1.2-2.7s-1.5-3.1-2.9-6.1c-2.6-5.1-1.6-2.9-1.4-2.4s-.6-1.4-.8-1.3-.2.2-.6,1.3l-.5,1.3-.6,1.3-.8,2.1-.7,2.3c-.5,1.4-.7,2.1-.9,2.7l-.9,2.2a19.4,19.4,0,0,1-.6,2.2,8.6,8.6,0,0,0-.5,1.5,12.6,12.6,0,0,0-.8,1.8c-.2.6-.1.7-.3,1.3a8.3,8.3,0,0,1-.7,1.8c-.3.7-.2.7-.8,2.5l-.5,1.7c-.4,1.3-.5,1.4-.7,2.1s-.1.8-.4,1.6-.5,1.4-.4,1.6.3,0,1.2-.1l1.4-.2a5,5,0,0,0,1.2-.8,5.1,5.1,0,0,0,1.2-1.3,13.4,13.4,0,0,0,.6-1.2c.2-.5.2-.7.4-.9s.8-.6,1-.5.1.5.1.7a6.2,6.2,0,0,1-1,1.7l-.6,1.2-.3.3-.6.6-1.1,1.1-1.1.4-.9.4h-1.3l-1.1.2-1.4.2c-.6.1-.9.3-1.1.1a.6.6,0,0,1,0-.6c.1-.3.4-.3.7-.7s.2-.4.3-.8l.9-2.3a12.3,12.3,0,0,1,.5-1.3,14.2,14.2,0,0,1,.5-1.6c.2-.6.4-1.2.7-1.9l.7-1.4a15.2,15.2,0,0,0,.6-2,25.6,25.6,0,0,1,.9-2.6c.2-.4.6-1.3,1.3-3.1l1-2.3c.4-1,.5-1.4.8-2.3s.4-.8,1.4-3.4l1.8-4.2a13,13,0,0,0,.8-1.7,7.9,7.9,0,0,1,.4-1.3c.3-.6.4-.8.6-.9h1.4c.5.1.7.6.9,1l1,1.7c.7,1.7.2.1,3.8,7.9a16.3,16.3,0,0,1,1.5,3.3l.7,1.8a10,10,0,0,1,.8,1.4c.3.7.3.8.6,1.6l.5,1,.6,1.3a9.1,9.1,0,0,0,.7,1.4c1.5,3,1.6,3,1.6,3.2s.6,1.4,1.5,3a22.7,22.7,0,0,0,1.9,3.5A4.1,4.1,0,0,0,283.9,104.8Z" transform="translate(-18.8 -15.2)" fill="#211613"/><path d="M265.3,33.5l.4.2a2,2,0,0,1-.3.8,27.2,27.2,0,0,1-1.1,2.5c-.7,1.8-1.6,3.2-2.7,5.5s-.6,1.2-2.3,5.4-2,4.5-3.1,7.2l-3.2,8c-.6,1.7-1,3-1.9,5.1s-.6,1.4-1,2.5-.8,2.2-1.3,3.6l-1.7,4.4c-1.3,3.6-1.3,3.7-1.9,5.2s-1.1,2.7-1.9,4.4-.7,1.9-1.3,3.3c-1.5,4.1-1.9,5.1-3.6,9.5s-2.3,5.8-2.9,7.7c0,0-1,2.6-1.8,5s-.7,1.8-.7,1.8h0a17.1,17.1,0,0,0-.9,2.2h-1.7a21.4,21.4,0,0,0-1-2.2c-1.2-2.6-1.6-3.4-2-4.5l-1-2.4c-1.3-3.4-2.3-5.8-3.6-8.7-.3-.7-.2-.3-1.1-2.4s-1.3-2.8-2.4-5.3l-4.5-9.9-1.9-4c-1.6-3.6-1.6-3.6-2.4-5.2s-1-1.8-2.9-5.6l-1.5-3c-1.9-3.7-2.5-4.4-4.9-8.8-1.6-2.8-1.4-2.7-3-5.6L195,44.7c-.8-1.4-1.2-2.2-1.9-3.2a22.9,22.9,0,0,0-1.6-2.3c-.5-.9-1.2-1.8-1.8-2.7s-.8-1.3-1.1-1.2-.3.1-.8,1.1a12.2,12.2,0,0,0-.7,1.7,8.4,8.4,0,0,1-1.2,2.3,29.4,29.4,0,0,0-2.2,4.4l-.6,1.3c-1.4,3.4-1.8,4-3.1,7.1-.5,1.3-.7,1.7-1.4,3.3l-1,2.3c-2.6,5.6-2.5,5.5-2.8,6.3a47.8,47.8,0,0,0-1.9,4.8c-1,2.5-1.6,4.4-1.9,5.1-4.5,13-4.3,12.1-5.2,14.9s-.4,1.2-4.8,15.4c-.8,2.5-1.8,5.9-2.1,6.9s-1.4,4.5-2,6.2h-1.4a9.1,9.1,0,0,1-.2-1.2,10.9,10.9,0,0,1-.1-2c.6-1.2,1.1-2.4,1.5-3.3a18.9,18.9,0,0,0,1-3.1,14.6,14.6,0,0,1,.4-1.7,13.6,13.6,0,0,1,1.1-2.8c.2-.8.3-1.1.5-2s.5-1.8,1.2-4c2.3-7.3,3.5-11,4.5-13.9,2.1-6,2.1-5.5,3.3-9.2l2.4-7c.4-.9.8-2,1.3-3.3a25.1,25.1,0,0,0,1.1-2.3c.7-1.5.6-1.6,1.4-3.5s1.3-2.9,2.1-4.5a7,7,0,0,0,.5-1.3,6.9,6.9,0,0,0,.5-1.3c.3-.6.5-1.1.9-1.8l.5-1.1.5-1.1c.4-.8.6-1,1.1-1.9l.8-1.6,1.5-2.8c.4-.8.4-.7.8-1.4s.9-2,1.6-3.3a11.1,11.1,0,0,1,1.5-2.2l.6-1a1.7,1.7,0,0,1,.3-.7l.3-.3c.2-.2.3-.4.4-.4s.3.3.8,1l.7.8a3.7,3.7,0,0,0,.6,1l.4.5.9,1.4a17.1,17.1,0,0,0,1.1,1.4,10.2,10.2,0,0,1,1.1,2l1.4,2.1.9,1.5,1.1,1.7a22.2,22.2,0,0,1,1.7,2.9l1.8,2.9,3.3,5.7,1.8,3.3,3,5.3a10.8,10.8,0,0,1,1.2,2.1c.9,1.8,1,2.2,1.9,4.1s1.1,1.9,1.8,3.5.4,1.2,1.2,3.2a23.1,23.1,0,0,0,1.2,2.9l1,2,.8,2,.8,1.7c.9,1.9,2.3,5.8,2.9,7.3,1.3,3.2,3.5,8.7,4.8,11.4a30.1,30.1,0,0,1,1.2,3c.3.8.3,1,.6,1.9s.8,1.8,1,2.4a5.7,5.7,0,0,1,.7,1.6l.4,1c.2.5.3.7.4.7a2.2,2.2,0,0,0,.3-.6,18.9,18.9,0,0,0,.6-1.8,5.9,5.9,0,0,1,.3-.7c.8-2,1.4-3.3,2-5s.2-.9.6-2.1l1.4-3.7c.3-.6.8-2.1,1.9-4.9a54.3,54.3,0,0,1,1.9-5.1c.1-.4.5-1.1.8-2.2l.4-1.3a9.3,9.3,0,0,1,.8-2c.7-1.6.4-1.4,1.2-3.1s.7-1.5,1.1-2.6a4.1,4.1,0,0,1,.3-1,36.4,36.4,0,0,1,1.8-4.7c.8-1.7.4-1.1,2.3-5.7s1.2-2.9,2.3-5.5a49.4,49.4,0,0,1,2-5.1l1.1-2.6,1.5-3.5c1.2-2.9,1.6-3.3,3.6-7.8l.6-1.5c1.4-2.9,1.7-3.1,2.8-5.5s1.8-4,1.9-4.1A3.6,3.6,0,0,1,265.3,33.5Z" transform="translate(-18.8 -15.2)"/><path d="M226.4,117.8h-1.1l-2.6-5.4-2.9-5.7c-3.2-6.4-2.8-5.9-5-10.2l-4.2-8.2-1.8-3.7a36.6,36.6,0,0,1-2-3.9c-.7-1.5-.5-1.3-1.3-2.9s-1.2-2.5-2-3.9a8.4,8.4,0,0,0-.8-1.5,15.8,15.8,0,0,1-1.3-1.8,6.5,6.5,0,0,1-.8-1.7l-1.7-3.4c-1.5-3-1.3-2.8-2.4-5s-1.1-1.9-2.3-4.3L192.1,52c-.6-1.3-1.2-2.5-1.7-3.7s-1.3-2.7-1.7-2.6-.4.4-.8,1.4l-1,2.7c-.8,2.7-1.2,2.7-2.5,6.5l-.7,2c-.4,1.2-.6,1.5-1.1,2.7l-1,2.7c-1,2.7-1.1,2.9-1.1,3.3s-.1.7-.3,1.3l-.6,1.1-.6,1.4c-.6,1.3-1,2.9-1.8,5.1s-1.2,2.6-1.8,4.5l-.6,1.7a17,17,0,0,1-.7,1.8c-.6,1.4-1,2.5-1.8,4.5-1.6,4.1-1.7,4.1-3.1,7.7s-1.2,3.4-2.1,5.7a39.3,39.3,0,0,0-1.8,4.6,12.2,12.2,0,0,1-.7,2c-.4,1.1-.5,1.2-.9,2.2s-.4,1.3-.8,2.3l-.7,1.4c-.3.7-.1.7-.5,1.6a12.7,12.7,0,0,0-.6,1.8c-.1.3-.1.6-.2.8h-1.4l.9-2.1c.9-2.5,1.5-4.4,1.7-5.1a36.5,36.5,0,0,1,1.2-3.6c.8-2.6,1.1-2.6,1.8-4.7s.4-1.9,1-3.8a30.2,30.2,0,0,1,1.2-2.9c.7-2,.8-2.5,1.6-4.9s.8-2.1,2-5.4c.6-1.6.5-1.2,1.9-5.2,2.4-6.7,2.7-7.1,3-8.5a22.7,22.7,0,0,1,.7-2.2c.4-1.1.7-1.5,1.1-2.5a22.3,22.3,0,0,0,1.2-3.4l1.7-4c1.5-3.6,1.3-3.3,2.4-5.8s1.2-2.5,2.3-5l1.5-3.2c.9-2,1.5-3.2,2.2-3.2a1.3,1.3,0,0,1,.8.2c.3.3.3.6.5,1s.4.7.8,1.5,2.6,4.8,3,5.5c1.9,3.9,2.9,5.8,4.4,8.7l3.4,7.1c1.9,4,2,4.4,2.8,5.8a21.2,21.2,0,0,1,1.9,3.5c.5,1.1.6,1.4,1.1,2.7s.8,1.4,1.9,3.7,1.4,2.9,2.3,4.5a14.3,14.3,0,0,1,1.2,2.1c.3.6.4,1.1.9,2.2l.4.9A16.5,16.5,0,0,0,215,94l4.7,9.6c.6,1.4.6,1.7,1.3,3.1s1.6,3.3,2,4.1A66.9,66.9,0,0,1,226.4,117.8Z" transform="translate(-18.8 -15.2)"/><path d="M215.8,111.4c.2.5.4.7.3.9s-.7.5-1,.5h-1.6a26.6,26.6,0,0,0-3.5-.5,16.9,16.9,0,0,0-3.8.1,23.4,23.4,0,0,1-2.7,0h-1.2l-1.8-.5-1.3-.3-1-.6a8.4,8.4,0,0,1-1.2-1.3l-1.1-1.3-.7-1.3c-.5-1-.8-1.4-1.1-2.1l-.4-1.3a3,3,0,0,1-.2-1c0-.1-.1-.6.1-.7l.2.2a1.9,1.9,0,0,1,.4.9c0,.2.1.4.1.6l1,2,.9,1.5a11.3,11.3,0,0,0,2.2,2.1l1.4.7,1.7.6a16.9,16.9,0,0,0,5.4.3h2.3l1.7.2,1.5.3c.7.2,1.9.4,2.1,0s-.1-.2-.4-.8a6.2,6.2,0,0,1-.5-1.1c-.4-.9-.6-1.1-1.3-2.7l-.7-1.4a14.6,14.6,0,0,1-.9-1.6c-.7-1.2-.6-1.4-1.3-2.8a8.3,8.3,0,0,0-.7-1.3c-.5-.9-.7-1.6-1-2.2s-.5-.9-1.4-2.9l-1.6-3.6a24.4,24.4,0,0,0-1.3-2.9l-1.2-2.5c-1.1-2.1-1.2-2.6-1.9-3.8l-.8-1.4L199,79l-.3-.6a9.7,9.7,0,0,1-.5-1.1l-.7-1.5a6,6,0,0,1-.6-1.1c-.8-1.6-2-4.2-2.8-5.6a10,10,0,0,0-.9-1.8,12.2,12.2,0,0,0-.7-1.7l-1-2.2-.9-1.7a16.2,16.2,0,0,0-1-2.3c-.3-.7-.4-.9-.5-.9s-.5.7-1,2.3-.5,1.3-1.2,3.4c-.1.4-.3.8-.5,1.5l-1.2,3.9c-.2.4-.3,1.1-.7,2.3s-.8,2.8-1.2,4l-.8,2.4a43.7,43.7,0,0,1-1.6,4.6c-1,3-1,2.6-1.6,4.3a33.7,33.7,0,0,1-1.2,4.1,19.6,19.6,0,0,0-1,2.9,13.1,13.1,0,0,1-.5,1.5c-.3.8-.5,1.1-.7,1.8a4.2,4.2,0,0,0-.3,1.2,19.8,19.8,0,0,1-1,2.9,13,13,0,0,1-.7,2.2c-.5,1.5-.7,2-.8,2.5l-.5,1.4-.6,1.9c-.1.2-.2.5-.1.6s.4.1.6.1a11.1,11.1,0,0,1,1.7-.2l3.5-.4h6.9a8.1,8.1,0,0,0,2.9-2.2,5.6,5.6,0,0,0,.9-1.3,3.9,3.9,0,0,0,.6-1.1,4.9,4.9,0,0,0,.3-1.2,2.5,2.5,0,0,1,.1-.9c.1-.2.2-.8.5-.8s.3.4.3.5a2.1,2.1,0,0,1,0,.8l-.3,1.4a5.1,5.1,0,0,0-.2,1.3,5.5,5.5,0,0,1-.5,1.7,3.4,3.4,0,0,1-.8,1.4,3.1,3.1,0,0,1-1.1,1.2,5.5,5.5,0,0,1-2,.8l-.9.3h-6.8l-1.3.2-2.4.2a10.2,10.2,0,0,0-3,.4l-.8.2a1.4,1.4,0,0,1-.9-.4c-.2-.2-.3-.6,0-1.7l.8-2.3c.6-1.3.7-1.4,1-2.2a13,13,0,0,0,.3-1.3,14.7,14.7,0,0,0,.7-1.7,6.2,6.2,0,0,0,.6-1.7c.9-2.3,2.4-6.6,2.4-6.6l2.1-6c.9-2.5.9-2.6,1.7-4.7l3-8.8c1.9-5.5,1.9-5.1,2.4-6.8s.9-3.1,1.7-5.1,1-2.2,1.5-3.8a34,34,0,0,0,1.2-3.4,2.8,2.8,0,0,1,.3-.6c.2-.2.3-.4.5-.4s.4.1.8.9a14.7,14.7,0,0,1,.6,1.4c.2.9.3.6,1.7,3.8l1.2,3,.6,1,.7,1.2c.5.8.5,1.1,1.7,3.6,0,0,.4.7,1,2a25.5,25.5,0,0,1,1.2,2.4c.6,1.1.8,1.6,3,6.6.3.5.5,1.1.9,1.8a14.5,14.5,0,0,0,1,1.8c.4.8.6,1.3,1,2.3l2.3,5,1.1,2.5,1,2.3c.5,1.1.6,1.6,1.3,3a9.3,9.3,0,0,0,.7,1.5l.6,1.2a26.6,26.6,0,0,1,1.5,3.2,11.1,11.1,0,0,0,.7,1.6l1.1,2.7C215.8,111.4,215.7,111.4,215.8,111.4Z" transform="translate(-18.8 -15.2)" fill="#211613"/><path d="M207.6,105.5a4.5,4.5,0,0,1,.2.8l-.7.4-1.5.2-1.2.2a1.1,1.1,0,0,1-.8,0h-1.5a4.8,4.8,0,0,1-2.1-.5,5.1,5.1,0,0,1-1.8-1.8h-.1a3.6,3.6,0,0,0-.5-1,4.8,4.8,0,0,1-.7-1.5c0-.1-.1-.9.1-1a.9.9,0,0,1,.5.3c.1.1.1.2.1.4l.2.5a4.6,4.6,0,0,0,1.3,1.7,5,5,0,0,0,1.3.9,9.3,9.3,0,0,0,2.3.4h1.9c.6.1,1,.1,1.1-.1s0-.3-.2-.8-.4-1-.6-1.3l-.8-1.4a3.2,3.2,0,0,0-.6-.8l-.5-.5c-.2-.2-.2-.4-.4-.9a11.1,11.1,0,0,0-.7-1.6l-.4-.6c-.5-1.1-.9-2.1-1.1-2.7s-.7-1.4-1.8-3.8-1.1-2.5-1.4-3.3a21.5,21.5,0,0,0-1.3-3,11.3,11.3,0,0,1-.6-1.4,9.3,9.3,0,0,0-.3-1l-.5-.9a8.4,8.4,0,0,0-.7-1.6,4.2,4.2,0,0,1-.5-.7l-.4-.9c-.3-.5-.4-.5-.6-.9a4.2,4.2,0,0,0-.4-1,5.3,5.3,0,0,0-.6-1c-.3-.4-.2-.5-.5-1.1s-.4-1.2-.7-1.2-.2,1-.8,2.5-.3.5-.9,1.9l-.9,2.2c-.5,1.3-.6,1.3-.8,2s-.3,1-.6,1.8-.5,1.3-1,2.8-.5,1.1-1.1,2.8-1.2,3.9-2.3,6.7c-.4.9-.3.8-.6,1.4-.9,2.4-.7,3-1.3,4.5a11.4,11.4,0,0,0-.6,1.5c-.1.5-.2.6-.1.8s.8.4,1.8.5a9.7,9.7,0,0,0,2.4-.2l1.2-.5c.4-.3.8-.6,1.9-2.6s.9-1.5,1.1-1.4.2.6.3.7a2.3,2.3,0,0,1-.3,1.1,4,4,0,0,1-.4,1.3h0l-.7,1.7c-.3.7-.4.9-.7,1.1l-.9.3-1.7.2h-4.4l-.9-.2a2.6,2.6,0,0,1-.6-2.1,10.3,10.3,0,0,1,.5-1.6c.3-.9.2-.8.6-1.9s.4-1.1.8-2,.4-1.2.9-2.6l1.3-3.3.5-1.3c.2-.8.1-.9.3-1.6s.1-.1.5-1.2l.4-.9a15.1,15.1,0,0,1,.6-1.5c.6-1.4,1-2.3,1.4-3.5s.4-1.2.8-2a8.4,8.4,0,0,1,.6-1.4l.8-2.1c.6-1.5,1-2.1,1.5-3.2l.3-.9a2.6,2.6,0,0,1,.5-.9l.3-.4c.2-.2.3-.4.5-.4l.4.2c.1,0,.2.1.3.4s.2.3.2.4.6,1.1,1.1,2l.7,1.6.8,1.5c.7,1.3.7,1.6,1.4,2.9l1.1,2.2,2.1,4.2a28.2,28.2,0,0,0,1.3,2.8,4,4,0,0,1,.7,1.3c.2.4.2.7.5,1.3l.3.6c.7,1.3.7,1.8,1.3,2.9s1,1.5,1.2,2.1a2.7,2.7,0,0,0,.3.8,1.6,1.6,0,0,0,.3.6l1.5,3c.9,1.8.8,1.8,1.2,2.6S207.2,104.7,207.6,105.5Z" transform="translate(-18.8 -15.2)" fill="#211613"/><path d="M155.2,115.1a8.8,8.8,0,0,1-.1-2.2c-.2-9.4-.2-12.5-.2-12.5,0-5.2-.1-3.9-.2-11.9,0,0-.1-6.1.1-17.2a48.4,48.4,0,0,1,.4-6.8,40,40,0,0,1,.6-4.5c.5-3.2.9-4.8,1-5.5s.3-1.1.6-2.3.9-3.6,1.5-5.7.5-1.8,1.3-4.1c1.5-4.7,1.8-5.6,2.1-6.4s.8-1.9,1.6-3.6a46.5,46.5,0,0,1,2.9-5.4c.3-.4,1.3-2,2.7-3.8a11.8,11.8,0,0,1,1.8-2.1l1.4-1.1,1.5-.8h4l8.9-.2h7.1l10.2-.2h1.7l.5.4.7.6.9.9,2.8,2.9a50.8,50.8,0,0,1,5.6,7.3l1.5,2.5c1.1,1.9,1.7,2.7,2.3,3.7a41.4,41.4,0,0,1,4.3,8.7c.2.5.4,1.4,1,3.1s.7,2.2,1,3.4a21.8,21.8,0,0,1,.7,2.7c.1,1,.2,1.9.3,3.7v1.8c.1-.8.1-2.4.4-4s.2-1.1.2-1.2a13,13,0,0,1,.4-1.9l.4-1.3c.5-1.5.7-2.3.9-2.7a25.2,25.2,0,0,1,.8-2.5,7.7,7.7,0,0,1,.7-2.2,19.5,19.5,0,0,1,.9-2,7.5,7.5,0,0,1,.6-1.3c.1-.4.3-.7.6-1.5l.8-1.8c.5-1.3,1.2-2.9,1.9-4.3a63.9,63.9,0,0,1,3.9-6.3l1.9-2.5c1.8-2.1,3-3.1,4.3-4.6l1-1.1.8-.7.4-.3h1.3a8.6,8.6,0,0,0,1.6,0,6.4,6.4,0,0,0,2,0h9.1c4.7,0,4.9-.2,7.8-.1h9.4a5.4,5.4,0,0,1,1.3,0,3.8,3.8,0,0,1,3.2,1.2,13.1,13.1,0,0,1,1.6,1.3l1.7,1.6,1.4,2,3.3,5c.7,1.1,1.3,2.3,2.7,4.9a8.6,8.6,0,0,1,.7,1.4c.6,1,.5,1,.7,1.3s.8,1,1.4,2a5.4,5.4,0,0,1,.6,1.1,13.7,13.7,0,0,1,1.4,3.2,62.3,62.3,0,0,1,2.4,7.2c.5,2.1.4,2.3,1.1,5.2.2,1,.4,1.7.6,2.7a38,38,0,0,1,.4,3.8,39.8,39.8,0,0,1,.4-5.7c.1-1.2.3-2.2.4-2.8l.8-3.6a46.6,46.6,0,0,1,1.5-5.1c.3-.9.8-2,1.6-4.1l1.9-4.4A46.4,46.4,0,0,1,315,29l3.3-4.5,1.7-2.1,1.8-1.9,2.3-2.2a3.6,3.6,0,0,1,.7-.7c.7-.6.9-.7,1.1-.7H357a5.2,5.2,0,0,1,1.8.2,5.2,5.2,0,0,1,1.8.6,7.7,7.7,0,0,1,1.7,1.2L364,20l1.6,2,2.5,3.4c.7,1.1,1.1,1.9,1.9,3.3s1.2,2.4,1.8,3.8,2.1,4.5,3.6,8.4c.7,1.9,1.4,3.8,2.1,6.3s1.4,5.9,1.8,7.8.6,3,.7,4c.3-2.3.6-4.2.9-5.8s.4-1.9.9-3.7a43.3,43.3,0,0,1,1.4-4.7c1-3.2,1.2-3.6,2.4-7.2s.8-2.6,1.7-5.2a40.4,40.4,0,0,1,2.4-6.3,24.2,24.2,0,0,1,1.5-2.7,20,20,0,0,1,1.9-3,16.9,16.9,0,0,1,4-3.6l1.5-.7.7-.2h35.2l.8.4a3.5,3.5,0,0,1,.9.6,19.8,19.8,0,0,1,2.8,2.6c.2.3.9,1.2,2.2,3.2l1.6,2.2c.4.8.8,1.4,1.4,2.7l1.9,3.8,1.4,3.1c.2.6.9,2.2,1.7,4.4s.9,2.5,1.3,3.8a32.9,32.9,0,0,1,1.4,5.4l2.3,11c.6,3.1.9,4.3,1.1,6.3s.2,1.5.5,3,.4,2.1.5,2.9a21.2,21.2,0,0,1,.2,4.9V87.8c0,1.1,0,.3.1,6.4,0,4,0,6.1.1,7.4,0,5.2-.1,6-.1,12.5v2h0v17.7c0,1.3,0,2.4.1,3.6v6.9c.1,1.6.1,3,.1,4.1l-16,.2-22.6.2-27.8.4-34.4.3-16.3.2-13.1.2H257.8l-12.7.2H234.3L208,151l-14.6.3H155.8V147a7.1,7.1,0,0,1-.1-1.4V145c0-.7-.1-4.3-.1-5v-2.9a28.1,28.1,0,0,0-.1-2.9c0-2.1,0-4.2-.1-6.3,0,0,0-1-.1-2.5v-4.8a.4.4,0,0,0,.1-.3c.1-.4.3-.6.3-1a3.5,3.5,0,0,0-.2-1,9.1,9.1,0,0,1-.2-1.2A10.9,10.9,0,0,1,155.2,115.1Z" transform="translate(-18.8 -15.2)" fill="none" stroke="#000" stroke-linecap="round" stroke-linejoin="round" stroke-width="0.57"/></g></svg>