<svg xmlns="http://www.w3.org/2000/svg" xmlns:xlink="http://www.w3.org/1999/xlink" viewBox="0 0 166.7 201.7"><defs><pattern id="_10_lpi_10_" data-name="10 lpi 10%" width="72" height="72" patternTransform="translate(36.7 2.3) rotate(45)" patternUnits="userSpaceOnUse" viewBox="0 0 72 72"><rect width="72" height="72" fill="none"/><line x1="71.8" y1="68.4" x2="144.3" y2="68.4" fill="none" stroke="#231815" stroke-width="0.28"/><line x1="71.8" y1="54" x2="144.3" y2="54" fill="none" stroke="#231815" stroke-width="0.28"/><line x1="71.8" y1="39.6" x2="144.3" y2="39.6" fill="none" stroke="#231815" stroke-width="0.28"/><line x1="71.8" y1="25.2" x2="144.3" y2="25.2" fill="none" stroke="#231815" stroke-width="0.28"/><line x1="71.8" y1="10.8" x2="144.3" y2="10.8" fill="none" stroke="#231815" stroke-width="0.28"/><line x1="71.8" y1="61.2" x2="144.3" y2="61.2" fill="none" stroke="#231815" stroke-width="0.28"/><line x1="71.8" y1="46.8" x2="144.3" y2="46.8" fill="none" stroke="#231815" stroke-width="0.28"/><line x1="71.8" y1="32.4" x2="144.3" y2="32.4" fill="none" stroke="#231815" stroke-width="0.28"/><line x1="71.8" y1="18" x2="144.3" y2="18" fill="none" stroke="#231815" stroke-width="0.28"/><line x1="71.8" y1="3.6" x2="144.3" y2="3.6" fill="none" stroke="#231815" stroke-width="0.28"/><line x1="-0.3" y1="68.4" x2="72.3" y2="68.4" fill="none" stroke="#231815" stroke-width="0.28"/><line x1="-0.3" y1="54" x2="72.3" y2="54" fill="none" stroke="#231815" stroke-width="0.28"/><line x1="-0.3" y1="39.6" x2="72.3" y2="39.6" fill="none" stroke="#231815" stroke-width="0.28"/><line x1="-0.3" y1="25.2" x2="72.3" y2="25.2" fill="none" stroke="#231815" stroke-width="0.28"/><line x1="-0.3" y1="10.8" x2="72.3" y2="10.8" fill="none" stroke="#231815" stroke-width="0.28"/><line x1="-0.3" y1="61.2" x2="72.3" y2="61.2" fill="none" stroke="#231815" stroke-width="0.28"/><line x1="-0.3" y1="46.8" x2="72.3" y2="46.8" fill="none" stroke="#231815" stroke-width="0.28"/><line x1="-0.3" y1="32.4" x2="72.3" y2="32.4" fill="none" stroke="#231815" stroke-width="0.28"/><line x1="-0.3" y1="18" x2="72.3" y2="18" fill="none" stroke="#231815" stroke-width="0.28"/><line x1="-0.3" y1="3.6" x2="72.3" y2="3.6" fill="none" stroke="#231815" stroke-width="0.28"/><line x1="0.4" y1="71.8" x2="72.9" y2="71.8" fill="none" stroke="#231815" stroke-width="0.28"/><line x1="0.4" y1="57.4" x2="72.9" y2="57.4" fill="none" stroke="#231815" stroke-width="0.28"/><line x1="0.4" y1="43" x2="72.9" y2="43" fill="none" stroke="#231815" stroke-width="0.28"/><line x1="0.4" y1="28.6" x2="72.9" y2="28.6" fill="none" stroke="#231815" stroke-width="0.28"/><line x1="0.4" y1="14.2" x2="72.9" y2="14.2" fill="none" stroke="#231815" stroke-width="0.28"/><line x1="0.4" y1="64.6" x2="72.9" y2="64.6" fill="none" stroke="#231815" stroke-width="0.28"/><line x1="0.4" y1="50.2" x2="72.9" y2="50.2" fill="none" stroke="#231815" stroke-width="0.28"/><line x1="0.4" y1="35.8" x2="72.9" y2="35.8" fill="none" stroke="#231815" stroke-width="0.28"/><line x1="0.4" y1="21.4" x2="72.9" y2="21.4" fill="none" stroke="#231815" stroke-width="0.28"/><line x1="0.4" y1="7" x2="72.9" y2="7" fill="none" stroke="#231815" stroke-width="0.28"/><line x1="-72.3" y1="68.4" x2="0.3" y2="68.4" fill="none" stroke="#231815" stroke-width="0.28"/><line x1="-72.3" y1="54" x2="0.3" y2="54" fill="none" stroke="#231815" stroke-width="0.28"/><line x1="-72.3" y1="39.6" x2="0.3" y2="39.6" fill="none" stroke="#231815" stroke-width="0.28"/><line x1="-72.3" y1="25.2" x2="0.3" y2="25.2" fill="none" stroke="#231815" stroke-width="0.28"/><line x1="-72.3" y1="10.8" x2="0.3" y2="10.8" fill="none" stroke="#231815" stroke-width="0.28"/><line x1="-72.3" y1="61.2" x2="0.3" y2="61.2" fill="none" stroke="#231815" stroke-width="0.28"/><line x1="-72.3" y1="46.8" x2="0.3" y2="46.8" fill="none" stroke="#231815" stroke-width="0.28"/><line x1="-72.3" y1="32.4" x2="0.3" y2="32.4" fill="none" stroke="#231815" stroke-width="0.28"/><line x1="-72.3" y1="18" x2="0.3" y2="18" fill="none" stroke="#231815" stroke-width="0.28"/><line x1="-72.3" y1="3.6" x2="0.3" y2="3.6" fill="none" stroke="#231815" stroke-width="0.28"/><line x1="-71.6" y1="71.8" x2="0.9" y2="71.8" fill="none" stroke="#231815" stroke-width="0.28"/><line x1="-71.6" y1="57.4" x2="0.9" y2="57.4" fill="none" stroke="#231815" stroke-width="0.28"/><line x1="-71.6" y1="43" x2="0.9" y2="43" fill="none" stroke="#231815" stroke-width="0.28"/><line x1="-71.6" y1="28.6" x2="0.9" y2="28.6" fill="none" stroke="#231815" stroke-width="0.28"/><line x1="-71.6" y1="14.2" x2="0.9" y2="14.2" fill="none" stroke="#231815" stroke-width="0.28"/><line x1="-71.6" y1="64.6" x2="0.9" y2="64.6" fill="none" stroke="#231815" stroke-width="0.28"/><line x1="-71.6" y1="50.2" x2="0.9" y2="50.2" fill="none" stroke="#231815" stroke-width="0.28"/><line x1="-71.6" y1="35.8" x2="0.9" y2="35.8" fill="none" stroke="#231815" stroke-width="0.28"/><line x1="-71.6" y1="21.4" x2="0.9" y2="21.4" fill="none" stroke="#231815" stroke-width="0.28"/><line x1="-71.6" y1="7" x2="0.9" y2="7" fill="none" stroke="#231815" stroke-width="0.28"/></pattern><pattern id="_10_lpi_10_3" data-name="10 lpi 10%" width="72" height="72" patternTransform="matrix(0.81, 0.49, -0.81, 0.49, 61.9, 24.48)" patternUnits="userSpaceOnUse" viewBox="0 0 72 72"><rect width="72" height="72" fill="none"/><line x1="71.8" y1="68.4" x2="144.3" y2="68.4" fill="none" stroke="#231815" stroke-width="0.28"/><line x1="71.8" y1="54" x2="144.3" y2="54" fill="none" stroke="#231815" stroke-width="0.28"/><line x1="71.8" y1="39.6" x2="144.3" y2="39.6" fill="none" stroke="#231815" stroke-width="0.28"/><line x1="71.8" y1="25.2" x2="144.3" y2="25.2" fill="none" stroke="#231815" stroke-width="0.28"/><line x1="71.8" y1="10.8" x2="144.3" y2="10.8" fill="none" stroke="#231815" stroke-width="0.28"/><line x1="71.8" y1="61.2" x2="144.3" y2="61.2" fill="none" stroke="#231815" stroke-width="0.28"/><line x1="71.8" y1="46.8" x2="144.3" y2="46.8" fill="none" stroke="#231815" stroke-width="0.28"/><line x1="71.8" y1="32.4" x2="144.3" y2="32.4" fill="none" stroke="#231815" stroke-width="0.28"/><line x1="71.8" y1="18" x2="144.3" y2="18" fill="none" stroke="#231815" stroke-width="0.28"/><line x1="71.8" y1="3.6" x2="144.3" y2="3.6" fill="none" stroke="#231815" stroke-width="0.28"/><line x1="-0.3" y1="68.4" x2="72.3" y2="68.4" fill="none" stroke="#231815" stroke-width="0.28"/><line x1="-0.3" y1="54" x2="72.3" y2="54" fill="none" stroke="#231815" stroke-width="0.28"/><line x1="-0.3" y1="39.6" x2="72.3" y2="39.6" fill="none" stroke="#231815" stroke-width="0.28"/><line x1="-0.3" y1="25.2" x2="72.3" y2="25.2" fill="none" stroke="#231815" stroke-width="0.28"/><line x1="-0.3" y1="10.8" x2="72.3" y2="10.8" fill="none" stroke="#231815" stroke-width="0.28"/><line x1="-0.3" y1="61.2" x2="72.3" y2="61.2" fill="none" stroke="#231815" stroke-width="0.28"/><line x1="-0.3" y1="46.8" x2="72.3" y2="46.8" fill="none" stroke="#231815" stroke-width="0.28"/><line x1="-0.3" y1="32.4" x2="72.3" y2="32.4" fill="none" stroke="#231815" stroke-width="0.28"/><line x1="-0.3" y1="18" x2="72.3" y2="18" fill="none" stroke="#231815" stroke-width="0.28"/><line x1="-0.3" y1="3.6" x2="72.3" y2="3.6" fill="none" stroke="#231815" stroke-width="0.28"/><line x1="0.4" y1="71.8" x2="72.9" y2="71.8" fill="none" stroke="#231815" stroke-width="0.28"/><line x1="0.4" y1="57.4" x2="72.9" y2="57.4" fill="none" stroke="#231815" stroke-width="0.28"/><line x1="0.4" y1="43" x2="72.9" y2="43" fill="none" stroke="#231815" stroke-width="0.28"/><line x1="0.4" y1="28.6" x2="72.9" y2="28.6" fill="none" stroke="#231815" stroke-width="0.28"/><line x1="0.4" y1="14.2" x2="72.9" y2="14.2" fill="none" stroke="#231815" stroke-width="0.28"/><line x1="0.4" y1="64.6" x2="72.9" y2="64.6" fill="none" stroke="#231815" stroke-width="0.28"/><line x1="0.4" y1="50.2" x2="72.9" y2="50.2" fill="none" stroke="#231815" stroke-width="0.28"/><line x1="0.4" y1="35.8" x2="72.9" y2="35.8" fill="none" stroke="#231815" stroke-width="0.28"/><line x1="0.4" y1="21.4" x2="72.9" y2="21.4" fill="none" stroke="#231815" stroke-width="0.28"/><line x1="0.4" y1="7" x2="72.9" y2="7" fill="none" stroke="#231815" stroke-width="0.28"/><line x1="-72.3" y1="68.4" x2="0.3" y2="68.4" fill="none" stroke="#231815" stroke-width="0.28"/><line x1="-72.3" y1="54" x2="0.3" y2="54" fill="none" stroke="#231815" stroke-width="0.28"/><line x1="-72.3" y1="39.6" x2="0.3" y2="39.6" fill="none" stroke="#231815" stroke-width="0.28"/><line x1="-72.3" y1="25.2" x2="0.3" y2="25.2" fill="none" stroke="#231815" stroke-width="0.28"/><line x1="-72.3" y1="10.8" x2="0.3" y2="10.8" fill="none" stroke="#231815" stroke-width="0.28"/><line x1="-72.3" y1="61.2" x2="0.3" y2="61.2" fill="none" stroke="#231815" stroke-width="0.28"/><line x1="-72.3" y1="46.8" x2="0.3" y2="46.8" fill="none" stroke="#231815" stroke-width="0.28"/><line x1="-72.3" y1="32.4" x2="0.3" y2="32.4" fill="none" stroke="#231815" stroke-width="0.28"/><line x1="-72.3" y1="18" x2="0.3" y2="18" fill="none" stroke="#231815" stroke-width="0.28"/><line x1="-72.3" y1="3.6" x2="0.3" y2="3.6" fill="none" stroke="#231815" stroke-width="0.28"/><line x1="-71.6" y1="71.8" x2="0.9" y2="71.8" fill="none" stroke="#231815" stroke-width="0.28"/><line x1="-71.6" y1="57.4" x2="0.9" y2="57.4" fill="none" stroke="#231815" stroke-width="0.28"/><line x1="-71.6" y1="43" x2="0.9" y2="43" fill="none" stroke="#231815" stroke-width="0.28"/><line x1="-71.6" y1="28.6" x2="0.9" y2="28.6" fill="none" stroke="#231815" stroke-width="0.28"/><line x1="-71.6" y1="14.2" x2="0.9" y2="14.2" fill="none" stroke="#231815" stroke-width="0.28"/><line x1="-71.6" y1="64.6" x2="0.9" y2="64.6" fill="none" stroke="#231815" stroke-width="0.28"/><line x1="-71.6" y1="50.2" x2="0.9" y2="50.2" fill="none" stroke="#231815" stroke-width="0.28"/><line x1="-71.6" y1="35.8" x2="0.9" y2="35.8" fill="none" stroke="#231815" stroke-width="0.28"/><line x1="-71.6" y1="21.4" x2="0.9" y2="21.4" fill="none" stroke="#231815" stroke-width="0.28"/><line x1="-71.6" y1="7" x2="0.9" y2="7" fill="none" stroke="#231815" stroke-width="0.28"/></pattern><pattern id="_10_lpi_10_5" data-name="10 lpi 10%" width="72" height="72" patternTransform="translate(3.7 2.5) rotate(45)" patternUnits="userSpaceOnUse" viewBox="0 0 72 72"><rect width="72" height="72" fill="none"/><line x1="71.8" y1="68.4" x2="144.3" y2="68.4" fill="none" stroke="#231815" stroke-width="0.28"/><line x1="71.8" y1="54" x2="144.3" y2="54" fill="none" stroke="#231815" stroke-width="0.28"/><line x1="71.8" y1="39.6" x2="144.3" y2="39.6" fill="none" stroke="#231815" stroke-width="0.28"/><line x1="71.8" y1="25.2" x2="144.3" y2="25.2" fill="none" stroke="#231815" stroke-width="0.28"/><line x1="71.8" y1="10.8" x2="144.3" y2="10.8" fill="none" stroke="#231815" stroke-width="0.28"/><line x1="71.8" y1="61.2" x2="144.3" y2="61.2" fill="none" stroke="#231815" stroke-width="0.28"/><line x1="71.8" y1="46.8" x2="144.3" y2="46.8" fill="none" stroke="#231815" stroke-width="0.28"/><line x1="71.8" y1="32.4" x2="144.3" y2="32.4" fill="none" stroke="#231815" stroke-width="0.28"/><line x1="71.8" y1="18" x2="144.3" y2="18" fill="none" stroke="#231815" stroke-width="0.28"/><line x1="71.8" y1="3.6" x2="144.3" y2="3.6" fill="none" stroke="#231815" stroke-width="0.28"/><line x1="-0.3" y1="68.4" x2="72.3" y2="68.4" fill="none" stroke="#231815" stroke-width="0.28"/><line x1="-0.3" y1="54" x2="72.3" y2="54" fill="none" stroke="#231815" stroke-width="0.28"/><line x1="-0.3" y1="39.6" x2="72.3" y2="39.6" fill="none" stroke="#231815" stroke-width="0.28"/><line x1="-0.3" y1="25.2" x2="72.3" y2="25.2" fill="none" stroke="#231815" stroke-width="0.28"/><line x1="-0.3" y1="10.8" x2="72.3" y2="10.8" fill="none" stroke="#231815" stroke-width="0.28"/><line x1="-0.3" y1="61.2" x2="72.3" y2="61.2" fill="none" stroke="#231815" stroke-width="0.28"/><line x1="-0.3" y1="46.8" x2="72.3" y2="46.8" fill="none" stroke="#231815" stroke-width="0.28"/><line x1="-0.3" y1="32.4" x2="72.3" y2="32.4" fill="none" stroke="#231815" stroke-width="0.28"/><line x1="-0.3" y1="18" x2="72.3" y2="18" fill="none" stroke="#231815" stroke-width="0.28"/><line x1="-0.3" y1="3.6" x2="72.3" y2="3.6" fill="none" stroke="#231815" stroke-width="0.28"/><line x1="0.4" y1="71.8" x2="72.9" y2="71.8" fill="none" stroke="#231815" stroke-width="0.28"/><line x1="0.4" y1="57.4" x2="72.9" y2="57.4" fill="none" stroke="#231815" stroke-width="0.28"/><line x1="0.4" y1="43" x2="72.9" y2="43" fill="none" stroke="#231815" stroke-width="0.28"/><line x1="0.4" y1="28.6" x2="72.9" y2="28.6" fill="none" stroke="#231815" stroke-width="0.28"/><line x1="0.4" y1="14.2" x2="72.9" y2="14.2" fill="none" stroke="#231815" stroke-width="0.28"/><line x1="0.4" y1="64.6" x2="72.9" y2="64.6" fill="none" stroke="#231815" stroke-width="0.28"/><line x1="0.4" y1="50.2" x2="72.9" y2="50.2" fill="none" stroke="#231815" stroke-width="0.28"/><line x1="0.4" y1="35.8" x2="72.9" y2="35.8" fill="none" stroke="#231815" stroke-width="0.28"/><line x1="0.4" y1="21.4" x2="72.9" y2="21.4" fill="none" stroke="#231815" stroke-width="0.28"/><line x1="0.4" y1="7" x2="72.9" y2="7" fill="none" stroke="#231815" stroke-width="0.28"/><line x1="-72.3" y1="68.4" x2="0.3" y2="68.4" fill="none" stroke="#231815" stroke-width="0.28"/><line x1="-72.3" y1="54" x2="0.3" y2="54" fill="none" stroke="#231815" stroke-width="0.28"/><line x1="-72.3" y1="39.6" x2="0.3" y2="39.6" fill="none" stroke="#231815" stroke-width="0.28"/><line x1="-72.3" y1="25.2" x2="0.3" y2="25.2" fill="none" stroke="#231815" stroke-width="0.28"/><line x1="-72.3" y1="10.8" x2="0.3" y2="10.8" fill="none" stroke="#231815" stroke-width="0.28"/><line x1="-72.3" y1="61.2" x2="0.3" y2="61.2" fill="none" stroke="#231815" stroke-width="0.28"/><line x1="-72.3" y1="46.8" x2="0.3" y2="46.8" fill="none" stroke="#231815" stroke-width="0.28"/><line x1="-72.3" y1="32.4" x2="0.3" y2="32.4" fill="none" stroke="#231815" stroke-width="0.28"/><line x1="-72.3" y1="18" x2="0.3" y2="18" fill="none" stroke="#231815" stroke-width="0.28"/><line x1="-72.3" y1="3.6" x2="0.3" y2="3.6" fill="none" stroke="#231815" stroke-width="0.28"/><line x1="-71.6" y1="71.8" x2="0.9" y2="71.8" fill="none" stroke="#231815" stroke-width="0.28"/><line x1="-71.6" y1="57.4" x2="0.9" y2="57.4" fill="none" stroke="#231815" stroke-width="0.28"/><line x1="-71.6" y1="43" x2="0.9" y2="43" fill="none" stroke="#231815" stroke-width="0.28"/><line x1="-71.6" y1="28.6" x2="0.9" y2="28.6" fill="none" stroke="#231815" stroke-width="0.28"/><line x1="-71.6" y1="14.2" x2="0.9" y2="14.2" fill="none" stroke="#231815" stroke-width="0.28"/><line x1="-71.6" y1="64.6" x2="0.9" y2="64.6" fill="none" stroke="#231815" stroke-width="0.28"/><line x1="-71.6" y1="50.2" x2="0.9" y2="50.2" fill="none" stroke="#231815" stroke-width="0.28"/><line x1="-71.6" y1="35.8" x2="0.9" y2="35.8" fill="none" stroke="#231815" stroke-width="0.28"/><line x1="-71.6" y1="21.4" x2="0.9" y2="21.4" fill="none" stroke="#231815" stroke-width="0.28"/><line x1="-71.6" y1="7" x2="0.9" y2="7" fill="none" stroke="#231815" stroke-width="0.28"/></pattern><pattern id="_10_lpi_10_9" data-name="10 lpi 10%" width="72" height="72" patternTransform="translate(-7.5 -1.7) rotate(45)" patternUnits="userSpaceOnUse" viewBox="0 0 72 72"><rect width="72" height="72" fill="none"/><line x1="71.8" y1="68.4" x2="144.3" y2="68.4" fill="none" stroke="#231815" stroke-width="0.28"/><line x1="71.8" y1="54" x2="144.3" y2="54" fill="none" stroke="#231815" stroke-width="0.28"/><line x1="71.8" y1="39.6" x2="144.3" y2="39.6" fill="none" stroke="#231815" stroke-width="0.28"/><line x1="71.8" y1="25.2" x2="144.3" y2="25.2" fill="none" stroke="#231815" stroke-width="0.28"/><line x1="71.8" y1="10.8" x2="144.3" y2="10.8" fill="none" stroke="#231815" stroke-width="0.28"/><line x1="71.8" y1="61.2" x2="144.3" y2="61.2" fill="none" stroke="#231815" stroke-width="0.28"/><line x1="71.8" y1="46.8" x2="144.3" y2="46.8" fill="none" stroke="#231815" stroke-width="0.28"/><line x1="71.8" y1="32.4" x2="144.3" y2="32.4" fill="none" stroke="#231815" stroke-width="0.28"/><line x1="71.8" y1="18" x2="144.3" y2="18" fill="none" stroke="#231815" stroke-width="0.28"/><line x1="71.8" y1="3.6" x2="144.3" y2="3.6" fill="none" stroke="#231815" stroke-width="0.28"/><line x1="-0.3" y1="68.4" x2="72.3" y2="68.4" fill="none" stroke="#231815" stroke-width="0.28"/><line x1="-0.3" y1="54" x2="72.3" y2="54" fill="none" stroke="#231815" stroke-width="0.28"/><line x1="-0.3" y1="39.6" x2="72.3" y2="39.6" fill="none" stroke="#231815" stroke-width="0.28"/><line x1="-0.3" y1="25.2" x2="72.3" y2="25.2" fill="none" stroke="#231815" stroke-width="0.28"/><line x1="-0.3" y1="10.8" x2="72.3" y2="10.8" fill="none" stroke="#231815" stroke-width="0.28"/><line x1="-0.3" y1="61.2" x2="72.3" y2="61.2" fill="none" stroke="#231815" stroke-width="0.28"/><line x1="-0.3" y1="46.8" x2="72.3" y2="46.8" fill="none" stroke="#231815" stroke-width="0.28"/><line x1="-0.3" y1="32.4" x2="72.3" y2="32.4" fill="none" stroke="#231815" stroke-width="0.28"/><line x1="-0.3" y1="18" x2="72.3" y2="18" fill="none" stroke="#231815" stroke-width="0.28"/><line x1="-0.3" y1="3.6" x2="72.3" y2="3.6" fill="none" stroke="#231815" stroke-width="0.28"/><line x1="0.4" y1="71.8" x2="72.9" y2="71.8" fill="none" stroke="#231815" stroke-width="0.28"/><line x1="0.4" y1="57.4" x2="72.9" y2="57.4" fill="none" stroke="#231815" stroke-width="0.28"/><line x1="0.4" y1="43" x2="72.9" y2="43" fill="none" stroke="#231815" stroke-width="0.28"/><line x1="0.4" y1="28.6" x2="72.9" y2="28.6" fill="none" stroke="#231815" stroke-width="0.28"/><line x1="0.4" y1="14.2" x2="72.9" y2="14.2" fill="none" stroke="#231815" stroke-width="0.28"/><line x1="0.4" y1="64.6" x2="72.9" y2="64.6" fill="none" stroke="#231815" stroke-width="0.28"/><line x1="0.4" y1="50.2" x2="72.9" y2="50.2" fill="none" stroke="#231815" stroke-width="0.28"/><line x1="0.4" y1="35.8" x2="72.9" y2="35.8" fill="none" stroke="#231815" stroke-width="0.28"/><line x1="0.4" y1="21.4" x2="72.9" y2="21.4" fill="none" stroke="#231815" stroke-width="0.28"/><line x1="0.4" y1="7" x2="72.9" y2="7" fill="none" stroke="#231815" stroke-width="0.28"/><line x1="-72.3" y1="68.4" x2="0.3" y2="68.4" fill="none" stroke="#231815" stroke-width="0.28"/><line x1="-72.3" y1="54" x2="0.3" y2="54" fill="none" stroke="#231815" stroke-width="0.28"/><line x1="-72.3" y1="39.6" x2="0.3" y2="39.6" fill="none" stroke="#231815" stroke-width="0.28"/><line x1="-72.3" y1="25.2" x2="0.3" y2="25.2" fill="none" stroke="#231815" stroke-width="0.28"/><line x1="-72.3" y1="10.8" x2="0.3" y2="10.8" fill="none" stroke="#231815" stroke-width="0.28"/><line x1="-72.3" y1="61.2" x2="0.3" y2="61.2" fill="none" stroke="#231815" stroke-width="0.28"/><line x1="-72.3" y1="46.8" x2="0.3" y2="46.8" fill="none" stroke="#231815" stroke-width="0.28"/><line x1="-72.3" y1="32.4" x2="0.3" y2="32.4" fill="none" stroke="#231815" stroke-width="0.28"/><line x1="-72.3" y1="18" x2="0.3" y2="18" fill="none" stroke="#231815" stroke-width="0.28"/><line x1="-72.3" y1="3.6" x2="0.3" y2="3.6" fill="none" stroke="#231815" stroke-width="0.28"/><line x1="-71.6" y1="71.8" x2="0.9" y2="71.8" fill="none" stroke="#231815" stroke-width="0.28"/><line x1="-71.6" y1="57.4" x2="0.9" y2="57.4" fill="none" stroke="#231815" stroke-width="0.28"/><line x1="-71.6" y1="43" x2="0.9" y2="43" fill="none" stroke="#231815" stroke-width="0.28"/><line x1="-71.6" y1="28.6" x2="0.9" y2="28.6" fill="none" stroke="#231815" stroke-width="0.28"/><line x1="-71.6" y1="14.2" x2="0.9" y2="14.2" fill="none" stroke="#231815" stroke-width="0.28"/><line x1="-71.6" y1="64.6" x2="0.9" y2="64.6" fill="none" stroke="#231815" stroke-width="0.28"/><line x1="-71.6" y1="50.2" x2="0.9" y2="50.2" fill="none" stroke="#231815" stroke-width="0.28"/><line x1="-71.6" y1="35.8" x2="0.9" y2="35.8" fill="none" stroke="#231815" stroke-width="0.28"/><line x1="-71.6" y1="21.4" x2="0.9" y2="21.4" fill="none" stroke="#231815" stroke-width="0.28"/><line x1="-71.6" y1="7" x2="0.9" y2="7" fill="none" stroke="#231815" stroke-width="0.28"/></pattern><pattern id="_10_lpi_10_11" data-name="10 lpi 10%" width="72" height="72" patternTransform="translate(86.9 0.2) rotate(45)" patternUnits="userSpaceOnUse" viewBox="0 0 72 72"><rect width="72" height="72" fill="none"/><line x1="71.8" y1="68.4" x2="144.3" y2="68.4" fill="none" stroke="#231815" stroke-width="0.28"/><line x1="71.8" y1="54" x2="144.3" y2="54" fill="none" stroke="#231815" stroke-width="0.28"/><line x1="71.8" y1="39.6" x2="144.3" y2="39.6" fill="none" stroke="#231815" stroke-width="0.28"/><line x1="71.8" y1="25.2" x2="144.3" y2="25.2" fill="none" stroke="#231815" stroke-width="0.28"/><line x1="71.8" y1="10.8" x2="144.3" y2="10.8" fill="none" stroke="#231815" stroke-width="0.28"/><line x1="71.8" y1="61.2" x2="144.3" y2="61.2" fill="none" stroke="#231815" stroke-width="0.28"/><line x1="71.8" y1="46.8" x2="144.3" y2="46.8" fill="none" stroke="#231815" stroke-width="0.28"/><line x1="71.8" y1="32.4" x2="144.3" y2="32.4" fill="none" stroke="#231815" stroke-width="0.28"/><line x1="71.8" y1="18" x2="144.3" y2="18" fill="none" stroke="#231815" stroke-width="0.28"/><line x1="71.8" y1="3.6" x2="144.3" y2="3.6" fill="none" stroke="#231815" stroke-width="0.28"/><line x1="-0.3" y1="68.4" x2="72.3" y2="68.4" fill="none" stroke="#231815" stroke-width="0.28"/><line x1="-0.3" y1="54" x2="72.3" y2="54" fill="none" stroke="#231815" stroke-width="0.28"/><line x1="-0.3" y1="39.6" x2="72.3" y2="39.6" fill="none" stroke="#231815" stroke-width="0.28"/><line x1="-0.3" y1="25.2" x2="72.3" y2="25.2" fill="none" stroke="#231815" stroke-width="0.28"/><line x1="-0.3" y1="10.8" x2="72.3" y2="10.8" fill="none" stroke="#231815" stroke-width="0.28"/><line x1="-0.3" y1="61.2" x2="72.3" y2="61.2" fill="none" stroke="#231815" stroke-width="0.28"/><line x1="-0.3" y1="46.8" x2="72.3" y2="46.8" fill="none" stroke="#231815" stroke-width="0.28"/><line x1="-0.3" y1="32.4" x2="72.3" y2="32.4" fill="none" stroke="#231815" stroke-width="0.28"/><line x1="-0.3" y1="18" x2="72.3" y2="18" fill="none" stroke="#231815" stroke-width="0.28"/><line x1="-0.3" y1="3.6" x2="72.3" y2="3.6" fill="none" stroke="#231815" stroke-width="0.28"/><line x1="0.4" y1="71.8" x2="72.9" y2="71.8" fill="none" stroke="#231815" stroke-width="0.28"/><line x1="0.4" y1="57.4" x2="72.9" y2="57.4" fill="none" stroke="#231815" stroke-width="0.28"/><line x1="0.4" y1="43" x2="72.9" y2="43" fill="none" stroke="#231815" stroke-width="0.28"/><line x1="0.4" y1="28.6" x2="72.9" y2="28.6" fill="none" stroke="#231815" stroke-width="0.28"/><line x1="0.4" y1="14.2" x2="72.9" y2="14.2" fill="none" stroke="#231815" stroke-width="0.28"/><line x1="0.4" y1="64.6" x2="72.9" y2="64.6" fill="none" stroke="#231815" stroke-width="0.28"/><line x1="0.4" y1="50.2" x2="72.9" y2="50.2" fill="none" stroke="#231815" stroke-width="0.28"/><line x1="0.4" y1="35.8" x2="72.9" y2="35.8" fill="none" stroke="#231815" stroke-width="0.28"/><line x1="0.4" y1="21.4" x2="72.9" y2="21.4" fill="none" stroke="#231815" stroke-width="0.28"/><line x1="0.4" y1="7" x2="72.9" y2="7" fill="none" stroke="#231815" stroke-width="0.28"/><line x1="-72.3" y1="68.4" x2="0.3" y2="68.4" fill="none" stroke="#231815" stroke-width="0.28"/><line x1="-72.3" y1="54" x2="0.3" y2="54" fill="none" stroke="#231815" stroke-width="0.28"/><line x1="-72.3" y1="39.6" x2="0.3" y2="39.6" fill="none" stroke="#231815" stroke-width="0.28"/><line x1="-72.3" y1="25.2" x2="0.3" y2="25.2" fill="none" stroke="#231815" stroke-width="0.28"/><line x1="-72.3" y1="10.8" x2="0.3" y2="10.8" fill="none" stroke="#231815" stroke-width="0.28"/><line x1="-72.3" y1="61.2" x2="0.3" y2="61.2" fill="none" stroke="#231815" stroke-width="0.28"/><line x1="-72.3" y1="46.8" x2="0.3" y2="46.8" fill="none" stroke="#231815" stroke-width="0.28"/><line x1="-72.3" y1="32.4" x2="0.3" y2="32.4" fill="none" stroke="#231815" stroke-width="0.28"/><line x1="-72.3" y1="18" x2="0.3" y2="18" fill="none" stroke="#231815" stroke-width="0.28"/><line x1="-72.3" y1="3.6" x2="0.3" y2="3.6" fill="none" stroke="#231815" stroke-width="0.28"/><line x1="-71.6" y1="71.8" x2="0.9" y2="71.8" fill="none" stroke="#231815" stroke-width="0.28"/><line x1="-71.6" y1="57.4" x2="0.9" y2="57.4" fill="none" stroke="#231815" stroke-width="0.28"/><line x1="-71.6" y1="43" x2="0.9" y2="43" fill="none" stroke="#231815" stroke-width="0.28"/><line x1="-71.6" y1="28.6" x2="0.9" y2="28.6" fill="none" stroke="#231815" stroke-width="0.28"/><line x1="-71.6" y1="14.2" x2="0.9" y2="14.2" fill="none" stroke="#231815" stroke-width="0.28"/><line x1="-71.6" y1="64.6" x2="0.9" y2="64.6" fill="none" stroke="#231815" stroke-width="0.28"/><line x1="-71.6" y1="50.2" x2="0.9" y2="50.2" fill="none" stroke="#231815" stroke-width="0.28"/><line x1="-71.6" y1="35.8" x2="0.9" y2="35.8" fill="none" stroke="#231815" stroke-width="0.28"/><line x1="-71.6" y1="21.4" x2="0.9" y2="21.4" fill="none" stroke="#231815" stroke-width="0.28"/><line x1="-71.6" y1="7" x2="0.9" y2="7" fill="none" stroke="#231815" stroke-width="0.28"/></pattern></defs><g id="scale-1:1"><path d="M156.6,195.6v10H14.9v-10" transform="translate(-11.2 -4.2)" fill="none" stroke="#000" stroke-miterlimit="10" stroke-width="0.5"/><line x1="32" y1="191.5" x2="32" y2="201.4" fill="none" stroke="#000" stroke-miterlimit="10" stroke-width="0.5"/><line x1="60.3" y1="191.5" x2="60.3" y2="201.4" fill="none" stroke="#000" stroke-miterlimit="10" stroke-width="0.5"/><line x1="88.7" y1="191.5" x2="88.7" y2="201.4" fill="none" stroke="#000" stroke-miterlimit="10" stroke-width="0.5"/><line x1="117" y1="191.5" x2="117" y2="201.4" fill="none" stroke="#000" stroke-miterlimit="10" stroke-width="0.5"/><text transform="translate(0 187)" font-size="14.17" font-family="AdobeMingStd-Light-B5pc-H, Adobe Ming Std">0</text><text transform="translate(142 187)" font-size="14.17" font-family="AdobeMingStd-Light-B5pc-H, Adobe Ming Std">5cm</text></g><g id="outline-1"><text transform="translate(14.9 27.6)" font-size="14.17" font-family="AdobeMingStd-Light-B5pc-H, Adobe Ming Std">1</text><path d="M135.5,18c.1,1.2.3,2.1.5,3.3s.3,1.6.5,3.4a3.6,3.6,0,0,1,.2,1.5v1c.1.3.1.4,0,.5s-.3.3-1.1.3h-1.7c-.6,0-.7.1-.9-.1s-.2-.3-.3-1.2-.2-.9-.4-1h-.6l-.7-.3-.9-.2-1.4-.2-2.9-.5-2.8-.6-3.7-.6c-1.4-.3-2.7-.5-9.7-1.3l-8.7-.9-3.7-.3c-2.3-.2-4-.2-6.6-.2h-11l-6.4.3-6.1.3c-2.3.1-4.1.3-7.8.7L49,23l-2.3.3-2.9.4c-1,.1-1.2.1-1.4,0s-1-.9-1.5-1.8A13.2,13.2,0,0,1,40,20c-.2-.7-.2-.9-.5-2.5s-.2-.9-.3-1.4a31.3,31.3,0,0,1-.8-4.6,12.7,12.7,0,0,1,.1-3.9l.7-2.2a2.4,2.4,0,0,1,.6-.9H43l5.9.2H51a2.4,2.4,0,0,1,1.3.2l.4.4.6.6.8.7.5.4a1.7,1.7,0,0,0,1,.3h.8l.5-.4.6-.4.8-.4.5-.2a1.3,1.3,0,0,0,.6-.5l.7-.7c.3-.2.6-.2,1.5-.2h3.7c3,0,16.1.1,22.4.3l4.1.2,2.8.2c3.5.3,7.7.3,14.7.4l8.4.3c.6,0,3.9,0,6.2.2h7.5a2.7,2.7,0,0,1,1.4.2c.3.2.4.5.7,1.2a10.4,10.4,0,0,1,.5,1.6,4.7,4.7,0,0,1,.4,1.4,38.7,38.7,0,0,1,.8,3.9C135.4,16.3,135.3,16.2,135.5,18Z" transform="translate(-11.2 -4.2)" fill="none" stroke="#000" stroke-miterlimit="10" stroke-width="0.57"/><path d="M150,10.2c-.1,2.6.1,5.8.1,5.8s.2,3.7.3,6.4v3.7h-.5c-.3.1,1,0-1,.2l-2.8.4h-1.2c-.5,0-.8.1-1-.1l-.2-.6c0-.2-.1-.3-.1-.5l-.4-2.5a52,52,0,0,1-.8-5.2l-.2-2.8c0-.4-.2-1.7-.2-2.7a6.8,6.8,0,0,0-.1-1.2,1.6,1.6,0,0,1,0-.7l.4-.5.7-.5c1-.6.9-.7,1.4-.8l.8-.2.8-.3.7-.9c.5-.8.6-.9.8-.9s.4-.3.9-.2l.5.2a1.5,1.5,0,0,1,.7.5c.1.1.3.2.4.4a2.9,2.9,0,0,1,.2.8c0,.3-.1.5-.1.7A4.2,4.2,0,0,0,150,10.2Z" transform="translate(-11.2 -4.2)" stroke="#000" stroke-linecap="round" stroke-linejoin="round" stroke-width="0.57" fill="url(#_10_lpi_10_)"/><path d="M52.3,5a5.4,5.4,0,0,0,.1,1.1c0,.8-.1.8,0,1.1a4.3,4.3,0,0,0,.7,1.6,2.7,2.7,0,0,0,.7.9l.8.2A3.1,3.1,0,0,0,56,10a3.6,3.6,0,0,0,1.5-.2,3.9,3.9,0,0,0,1.7-2.4l.4-1.5c.2-.7.2-1,.5-1.1s.5.1,1.1.3a3.2,3.2,0,0,0,1.5.2l17.2.6,9.5.4,9.7.5c10.3.5,18.7.6,25.4,1h2l7.1.2" transform="translate(-11.2 -4.2)" fill="none" stroke="#000" stroke-miterlimit="10" stroke-width="0.43"/><line x1="125.4" y1="12.9" x2="130.1" y2="12.9" fill="url(#_10_lpi_10_3)"/><line x1="125.4" y1="12.9" x2="126.8" y2="12.9" fill="none" stroke="#000" stroke-linecap="round" stroke-linejoin="round" stroke-width="0.28"/><line x1="128.7" y1="12.9" x2="130.1" y2="12.9" fill="none" stroke="#000" stroke-linecap="round" stroke-linejoin="round" stroke-width="0.28"/></g><g id="outline-2"><text transform="translate(14.9 85.1)" font-size="14.17" font-family="AdobeMingStd-Light-B5pc-H, Adobe Ming Std">2</text><path d="M151.4,69.3a13.8,13.8,0,0,1,.1,1.4,8.1,8.1,0,0,0,.1,1.6c.1.9.1,1.1,0,1.3s-.3.2-1.1.3H139.6c-.2-.2-.1-.6-.1-1.1V71.5c0-.9,0-.9-.1-2.5v-.9a14.8,14.8,0,0,0-.1-2.1,2.5,2.5,0,0,1,.1-.8.9.9,0,0,1,.3-.6l.7-.4,1.4-.2,2.9-.2,2-.2a5,5,0,0,1,1.9.2,3.5,3.5,0,0,1,1.7,1,8.6,8.6,0,0,1,.7,1c.1.4.1.6.2,1.1S151.3,68.2,151.4,69.3Z" transform="translate(-11.2 -4.2)" stroke="#000" stroke-miterlimit="10" stroke-width="0.57" fill="url(#_10_lpi_10_5)"/><path d="M49.6,62.5c.3,1.7.5,3.4.7,5.2,0,0,.6,4.3.8,5.5s.1.4.2.5a3.2,3.2,0,0,1,.1.7l-.5.4-.5.3-1.9.6a25.9,25.9,0,0,1-3.7.3,22.6,22.6,0,0,1-3.3-.4c-1.3-.2-2.4-.5-2.5-1.1s0-.3,0-.7a3.5,3.5,0,0,1,.1-.7c.2-1.9.9-5.8.9-5.8.4-2.4.4-2.5.6-3.5s.5-1.5.7-2.6a7.7,7.7,0,0,1,.6-2.4,4.2,4.2,0,0,1,.4-1,10,10,0,0,1,1.8-1.7c1.1-.7,1.7-1.1,2.3-1.1a3.6,3.6,0,0,1,2.2,1.1c.4.4.5.6.5.8s.1.2.1.5v.8a14.7,14.7,0,0,0,.1,1.6C49.5,61.4,49.6,62.5,49.6,62.5Z" transform="translate(-11.2 -4.2)" stroke="#000" stroke-miterlimit="10" stroke-width="0.57" fill="url(#_10_lpi_10_5)"/><path d="M124.2,78c-.2.1-.4.4-.8.5a1.6,1.6,0,0,1-.9.2h-1.8a16.1,16.1,0,0,0-2.2,0l-1.9-.3-1.3-.2a3.9,3.9,0,0,1-1.4-1.6c-.3-.5-.2-.6-.5-1.1a2.3,2.3,0,0,0-.9-1.1,2.7,2.7,0,0,0-1.1-.5H88.5c-4.3.1-7.8.5-11.6.9l-2.9.3-8.1.8-1.7.2H62.9a3.6,3.6,0,0,1-1.1,0h-.6a1.3,1.3,0,0,1-.3-.7c-.1-4.6,0-5.8,0-5.8V65.3c0-.5.1-1.5.2-2.7a8.8,8.8,0,0,1,.4-2.3h0a2.5,2.5,0,0,0,.1-.8,2.1,2.1,0,0,0,.1-.6c.1-.5,0-.7.1-1l.2-.3a1.3,1.3,0,0,0,.1-.5l.7-.2,1.1-.2h6.8l4.2.2,4.6.2h2.2c.5.1.6.1.8.3a1.8,1.8,0,0,0,.1.5c0,.2.1.3.2.6a4.7,4.7,0,0,0,.5,1,5.5,5.5,0,0,0,.9,1.3,3.7,3.7,0,0,0,1.4,1,5.8,5.8,0,0,0,1.7.6,16.9,16.9,0,0,0,3.4.4h17.4c2.7.1,4.2.3,5,.4l3.6.5,1.9.4,1.5.5a7.1,7.1,0,0,1,1.7,1.3,13.9,13.9,0,0,1,1.5,2.2c.1.4.5,1.1.9,2l.7,1.9a8.7,8.7,0,0,1,.3,1.3,2.8,2.8,0,0,1,0,1.3,3.4,3.4,0,0,1-.1,1.1A3.5,3.5,0,0,1,124.2,78Z" transform="translate(-11.2 -4.2)" fill="none" stroke="#000" stroke-miterlimit="10" stroke-width="0.57"/><path d="M83.5,60.1H78.2l-7.1-.3-6-.3H61.7" transform="translate(-11.2 -4.2)" fill="none" stroke="#000" stroke-miterlimit="10" stroke-width="0.43"/><line x1="41.6" y1="63.3" x2="48.5" y2="63.3" fill="url(#_10_lpi_10_9)"/><line x1="41.6" y1="63.3" x2="43" y2="63.3" fill="none" stroke="#000" stroke-linecap="round" stroke-linejoin="round" stroke-width="0.28"/><line x1="47.1" y1="63.3" x2="48.5" y2="63.3" fill="none" stroke="#000" stroke-linecap="round" stroke-linejoin="round" stroke-width="0.28"/><line x1="81.6" y1="50" x2="81.6" y2="56.8" fill="none" stroke="#000" stroke-linecap="round" stroke-linejoin="round" stroke-width="0.28"/><line x1="81.5" y1="71.8" x2="81.5" y2="78.4" fill="none" stroke="#000" stroke-linecap="round" stroke-linejoin="round" stroke-width="0.28"/></g><g id="outline-3"><text transform="translate(14.9 150.2)" font-size="14.17" font-family="AdobeMingStd-Light-B5pc-H, Adobe Ming Std">3</text><path d="M135,144.7a.4.4,0,0,1-.4.2c-3.8.3-6.2.3-6.2.3h-5.3c-.1-.1-.1-.2-.2-.6l-.3-.6a12.8,12.8,0,0,0-.8-2,11.3,11.3,0,0,0-1.5-2.1c-.3-.4-.5-.7-.9-.8l-1.1-.2h-1.7l-12,.6c-3.8.1-6.8.3-9.9.2H91.4l-4.6.3-3.3.2-11.2.4-1,.2H69.5c-.4-.2-.5-.7-.7-1.3a26.7,26.7,0,0,1-.5-2.8c-.1-1-.2-1.6-.2-1.9a30.1,30.1,0,0,1-.2-4.1,27.2,27.2,0,0,1-.1-2.8,26.3,26.3,0,0,1,.1-5c.1-.8.1-.7.2-1.9a18.4,18.4,0,0,0,.3-3.3c.1-.6.1-1.1.2-1.6a4.2,4.2,0,0,1,.2-1.4.9.9,0,0,1,.4-.6c.1-.1.2-.2.8-.2h1.6l.6.2a2,2,0,0,1,.6.7,2.5,2.5,0,0,0,1.6,1,1.8,1.8,0,0,0,.9-.2l.5-.7c.3-.5.2-.6.4-.8a1.6,1.6,0,0,1,.9-.6l1-.2h3.1a1.1,1.1,0,0,1,.7.3,2,2,0,0,1,.1.5v.6a2.9,2.9,0,0,0,.3.9,2.7,2.7,0,0,0,.8.7l.5.3.6.3h2.5l1,.2c.1.1.1.2.2.5a2.9,2.9,0,0,0,.2.9c.2.8.5,1.4.5,1.6s.6,1.2,1.1,1.5a3.1,3.1,0,0,0,1.3.3h1.4l1.4.2h17.6a29.3,29.3,0,0,1,4.4,0l2.5.2,2.4.4a30.9,30.9,0,0,1,4.6,1.3,29.7,29.7,0,0,1,3.4,1.6,15.3,15.3,0,0,1,3.6,2.7,9.2,9.2,0,0,1,1.6,3.3c.4.9.6,2.6,1.1,6,.1.5.2,1.4.3,2.5v1.5c0,.6-.1.5-.1,1.1v1.1C135.2,144.4,135.2,144.6,135,144.7Z" transform="translate(-11.2 -4.2)" fill="none" stroke="#000" stroke-miterlimit="10" stroke-width="0.57"/><path d="M59.6,140l-.3.2a.8.8,0,0,1-.5.2,10.5,10.5,0,0,1-2,.5l-3.2.3-2.5.2H48.7c-1.8,0-.7-.1-1.2-.1s-.8.1-1-.1a1.3,1.3,0,0,1-.4-.6,10.2,10.2,0,0,1-.4-1.6c0-.2.1.9-.4-2.4s-.4-3.5-.5-4.1a27.7,27.7,0,0,1,.2-4.6,12.2,12.2,0,0,1,.3-2.2,29.3,29.3,0,0,1,1.3-4.8c.1-.3.5-1.6,1.1-3.2l1-2.3c.1-.2.2-.3.2-.5s.2-.3.2-.5l.2-.2h.6c.2.1.2,0,.6,0h3.6c.1.1.1.2.2.4s.1.3.2.4l.6,1.4c.4,1,.9,2.9,1,3,.6,2.4.7,2.1,1.2,4.2a58.2,58.2,0,0,1,1.8,7.8,44.1,44.1,0,0,1,.6,6v2.1A2,2,0,0,1,59.6,140Z" transform="translate(-11.2 -4.2)" stroke="#000" stroke-miterlimit="10" stroke-width="0.57" fill="url(#_10_lpi_10_11)"/><path d="M123.9,145.2a83.8,83.8,0,0,1-.6-9.5c0-.6,0-2.6.2-2.6a6,6,0,0,1,.4,1.5l.4,2a34.3,34.3,0,0,1,.4,4.7,36.1,36.1,0,0,0,.3,3.9" transform="translate(-11.2 -4.2)" fill="none" stroke="#000" stroke-linecap="round" stroke-linejoin="round" stroke-width="0.43"/><path d="M117.3,138.8v-4.2a9.9,9.9,0,0,1-.1-1.5c0-.4.1-1.8.4-1.8s.5,1,.6,1.3a11.2,11.2,0,0,1,.4,2.6,14.1,14.1,0,0,1,.2,1.8c.1.7.1,1.3.2,1.8" transform="translate(-11.2 -4.2)" fill="none" stroke="#000" stroke-linecap="round" stroke-linejoin="round" stroke-width="0.43"/><path d="M83.3,140.2c0-1.4.1-2.5.1-3.3a26.9,26.9,0,0,1,.3-3.2c.1-.8.2-1.5.4-2.7s.3-1.4.4-1.7.7-2.5,1.2-2.5,1.6,4.7,1.7,5.2.2,1.3.4,2.4a12.1,12.1,0,0,1,.3,1.4,13.4,13.4,0,0,1,.1,2c.1.5.1,1.2.3,2.1" transform="translate(-11.2 -4.2)" fill="none" stroke="#000" stroke-linecap="round" stroke-linejoin="round" stroke-width="0.43"/><path d="M85.7,126.8c.2,2.6.3,5.2.4,7.9s.1,3.6.1,5.3" transform="translate(-11.2 -4.2)" fill="none" stroke="#000" stroke-linecap="round" stroke-linejoin="round" stroke-width="0.43"/><path d="M74.6,140.5c0-1.2-.1-2.2-.1-2.9v-2.2c0-.9-.1-1.4.1-1.5s.5.3.6.7.1.2.2.7a4.5,4.5,0,0,1,.2.8c.2.7.3.8.4,1.3a1.7,1.7,0,0,1,.1.8,14.1,14.1,0,0,1,.1,2.2" transform="translate(-11.2 -4.2)" fill="none" stroke="#000" stroke-linecap="round" stroke-linejoin="round" stroke-width="0.43"/><line x1="49.8" y1="125.9" x2="51.2" y2="125.9" fill="none" stroke="#000" stroke-linecap="round" stroke-linejoin="round" stroke-width="0.28"/><line x1="53.3" y1="125.9" x2="54.7" y2="125.9" fill="none" stroke="#000" stroke-linecap="round" stroke-linejoin="round" stroke-width="0.28"/></g></svg>