<svg xmlns="http://www.w3.org/2000/svg" xmlns:xlink="http://www.w3.org/1999/xlink" viewBox="0 0 166.7 130.2"><defs><pattern id="_10_lpi_10_" data-name="10 lpi 10%" width="72" height="72" patternTransform="translate(-8.2 44.8) rotate(-45)" patternUnits="userSpaceOnUse" viewBox="0 0 72 72"><rect width="72" height="72" fill="none"/><line x1="71.8" y1="68.4" x2="144.3" y2="68.4" fill="none" stroke="#231815" stroke-width="0.28"/><line x1="71.8" y1="54" x2="144.3" y2="54" fill="none" stroke="#231815" stroke-width="0.28"/><line x1="71.8" y1="39.6" x2="144.3" y2="39.6" fill="none" stroke="#231815" stroke-width="0.28"/><line x1="71.8" y1="25.2" x2="144.3" y2="25.2" fill="none" stroke="#231815" stroke-width="0.28"/><line x1="71.8" y1="10.8" x2="144.3" y2="10.8" fill="none" stroke="#231815" stroke-width="0.28"/><line x1="71.8" y1="61.2" x2="144.3" y2="61.2" fill="none" stroke="#231815" stroke-width="0.28"/><line x1="71.8" y1="46.8" x2="144.3" y2="46.8" fill="none" stroke="#231815" stroke-width="0.28"/><line x1="71.8" y1="32.4" x2="144.3" y2="32.4" fill="none" stroke="#231815" stroke-width="0.28"/><line x1="71.8" y1="18" x2="144.3" y2="18" fill="none" stroke="#231815" stroke-width="0.28"/><line x1="71.8" y1="3.6" x2="144.3" y2="3.6" fill="none" stroke="#231815" stroke-width="0.28"/><line x1="-0.3" y1="68.4" x2="72.3" y2="68.4" fill="none" stroke="#231815" stroke-width="0.28"/><line x1="-0.3" y1="54" x2="72.3" y2="54" fill="none" stroke="#231815" stroke-width="0.28"/><line x1="-0.3" y1="39.6" x2="72.3" y2="39.6" fill="none" stroke="#231815" stroke-width="0.28"/><line x1="-0.3" y1="25.2" x2="72.3" y2="25.2" fill="none" stroke="#231815" stroke-width="0.28"/><line x1="-0.3" y1="10.8" x2="72.3" y2="10.8" fill="none" stroke="#231815" stroke-width="0.28"/><line x1="-0.3" y1="61.2" x2="72.3" y2="61.2" fill="none" stroke="#231815" stroke-width="0.28"/><line x1="-0.3" y1="46.8" x2="72.3" y2="46.8" fill="none" stroke="#231815" stroke-width="0.28"/><line x1="-0.3" y1="32.4" x2="72.3" y2="32.4" fill="none" stroke="#231815" stroke-width="0.28"/><line x1="-0.3" y1="18" x2="72.3" y2="18" fill="none" stroke="#231815" stroke-width="0.28"/><line x1="-0.3" y1="3.6" x2="72.3" y2="3.6" fill="none" stroke="#231815" stroke-width="0.28"/><line y1="72" x2="72.5" y2="72" fill="none" stroke="#231815" stroke-width="0.28"/><line y1="57.6" x2="72.5" y2="57.6" fill="none" stroke="#231815" stroke-width="0.28"/><line y1="43.2" x2="72.5" y2="43.2" fill="none" stroke="#231815" stroke-width="0.28"/><line y1="28.8" x2="72.5" y2="28.8" fill="none" stroke="#231815" stroke-width="0.28"/><line y1="14.4" x2="72.5" y2="14.4" fill="none" stroke="#231815" stroke-width="0.28"/><line y1="64.8" x2="72.5" y2="64.8" fill="none" stroke="#231815" stroke-width="0.28"/><line y1="50.4" x2="72.5" y2="50.4" fill="none" stroke="#231815" stroke-width="0.28"/><line y1="36" x2="72.5" y2="36" fill="none" stroke="#231815" stroke-width="0.28"/><line y1="21.6" x2="72.5" y2="21.6" fill="none" stroke="#231815" stroke-width="0.28"/><line y1="7.2" x2="72.5" y2="7.2" fill="none" stroke="#231815" stroke-width="0.28"/><line x1="-72.3" y1="68.4" x2="0.3" y2="68.4" fill="none" stroke="#231815" stroke-width="0.28"/><line x1="-72.3" y1="54" x2="0.3" y2="54" fill="none" stroke="#231815" stroke-width="0.28"/><line x1="-72.3" y1="39.6" x2="0.3" y2="39.6" fill="none" stroke="#231815" stroke-width="0.28"/><line x1="-72.3" y1="25.2" x2="0.3" y2="25.2" fill="none" stroke="#231815" stroke-width="0.28"/><line x1="-72.3" y1="10.8" x2="0.3" y2="10.8" fill="none" stroke="#231815" stroke-width="0.28"/><line x1="-72.3" y1="61.2" x2="0.3" y2="61.2" fill="none" stroke="#231815" stroke-width="0.28"/><line x1="-72.3" y1="46.8" x2="0.3" y2="46.8" fill="none" stroke="#231815" stroke-width="0.28"/><line x1="-72.3" y1="32.4" x2="0.3" y2="32.4" fill="none" stroke="#231815" stroke-width="0.28"/><line x1="-72.3" y1="18" x2="0.3" y2="18" fill="none" stroke="#231815" stroke-width="0.28"/><line x1="-72.3" y1="3.6" x2="0.3" y2="3.6" fill="none" stroke="#231815" stroke-width="0.28"/><line x1="-72" y1="72" x2="0.5" y2="72" fill="none" stroke="#231815" stroke-width="0.28"/><line x1="-72" y1="57.6" x2="0.5" y2="57.6" fill="none" stroke="#231815" stroke-width="0.28"/><line x1="-72" y1="43.2" x2="0.5" y2="43.2" fill="none" stroke="#231815" stroke-width="0.28"/><line x1="-72" y1="28.8" x2="0.5" y2="28.8" fill="none" stroke="#231815" stroke-width="0.28"/><line x1="-72" y1="14.4" x2="0.5" y2="14.4" fill="none" stroke="#231815" stroke-width="0.28"/><line x1="-72" y1="64.8" x2="0.5" y2="64.8" fill="none" stroke="#231815" stroke-width="0.28"/><line x1="-72" y1="50.4" x2="0.5" y2="50.4" fill="none" stroke="#231815" stroke-width="0.28"/><line x1="-72" y1="36" x2="0.5" y2="36" fill="none" stroke="#231815" stroke-width="0.28"/><line x1="-72" y1="21.6" x2="0.5" y2="21.6" fill="none" stroke="#231815" stroke-width="0.28"/><line x1="-72" y1="7.2" x2="0.5" y2="7.2" fill="none" stroke="#231815" stroke-width="0.28"/><line x2="72.5" fill="none" stroke="#231815" stroke-width="0.28"/><line x1="-72" x2="0.5" fill="none" stroke="#231815" stroke-width="0.28"/></pattern></defs><g id="scale-1:1"><path d="M147.1,123.4v10H5.3v-10" transform="translate(-1.7 -3.5)" fill="none" stroke="#000" stroke-miterlimit="10" stroke-width="0.5"/><line x1="32" y1="120" x2="32" y2="130" fill="none" stroke="#000" stroke-miterlimit="10" stroke-width="0.5"/><line x1="60.3" y1="120" x2="60.3" y2="130" fill="none" stroke="#000" stroke-miterlimit="10" stroke-width="0.5"/><line x1="88.7" y1="120" x2="88.7" y2="130" fill="none" stroke="#000" stroke-miterlimit="10" stroke-width="0.5"/><line x1="117" y1="120" x2="117" y2="129.9" fill="none" stroke="#000" stroke-miterlimit="10" stroke-width="0.5"/><text transform="translate(0 115.5)" font-size="14.17" font-family="AdobeMingStd-Light-B5pc-H, Adobe Ming Std">0</text><text transform="translate(142 115.5)" font-size="14.17" font-family="AdobeMingStd-Light-B5pc-H, Adobe Ming Std">5cm</text></g><g id="outline"><path d="M111.6,68.4a7.8,7.8,0,0,1-1.2,2.9c-.3.6-.8,1.2-1.6,2.4l-.5.7-.4.5v.4c-.1.3-.2.6-.4.7s-.2.2-.5.4-.5.1-.7.3l-.5.6a1.5,1.5,0,0,0-.3.6c-.5.6-.6.7-.7,1a2.8,2.8,0,0,1-.1.6l-.2.8a2,2,0,0,0-.2.6l-.3.6-.4.4-.7.3c-.2.1-.2.3-.4.8a2.8,2.8,0,0,1-.5,1.2l-.7.4H99.6l-1,.2-.8.2H97c-.4.1-.4.3-1,.7l-.8.4H93.9a8.5,8.5,0,0,0-1.6,0H91.1c-.8-.1-8.2-.3-13.3-.3H62.6l-1.1-.3a29.3,29.3,0,0,1-3.1-1.2,11.1,11.1,0,0,1-2.3-1.2l-1-.6-.9-.5-1.3-.7a2.9,2.9,0,0,1-.8-.7,2.2,2.2,0,0,1-.3-.9,12.9,12.9,0,0,1-.4-1.7c0-.2.1-.5.2-1.1a7.4,7.4,0,0,1,.4-1.4c.2-.7.4-.9.6-1.5s.6-1.6.8-2.1c.7-2.6,4-10.6,5.5-14.4l2.4-5.7c.8-1.9,1.3-2.8,2.1-4.8s.4-1.3,1.3-3.3,1.3-3.4,1.5-3.9l1.1-2.3c.6-1.5,1.2-2.6,1.4-3l3.1-6.7,4.7-10.4L78.7,13a29.2,29.2,0,0,1,1.4-3.1.9.9,0,0,1,.5-.8c.2-.2.3-.1,1.3-.1h1l.6.5a5.5,5.5,0,0,1,.7.9,16,16,0,0,1,1.5,2.8c.6,1.3,1.3,2.6,1.8,3.9s2.2,4.5,5.3,10.8c2.2,4.5,2.1,4.2,3.8,7.5s1.9,4,3.8,7.8,2.8,5.9,4.6,9.5.4,1,2.9,6.1l1.8,3.9a25.9,25.9,0,0,0,1.4,2.9,6,6,0,0,1,.5,1.6A2,2,0,0,1,111.6,68.4Z" transform="translate(-1.7 -3.5)" fill="none" stroke="#000" stroke-miterlimit="10" stroke-width="0.57"/><path d="M50.7,79a13.8,13.8,0,0,0-.8,2" transform="translate(-1.7 -3.5)" fill="none" stroke="#000" stroke-linecap="round" stroke-linejoin="round" stroke-width="0.43"/><path d="M49.4,82.5a3,3,0,0,1-.3,1.1,6.2,6.2,0,0,0-.3,1c-.4,1.1-.3,1.2-.3,1.3s.8.2,1.4.2H57" transform="translate(-1.7 -3.5)" fill="none" stroke="#000" stroke-linecap="round" stroke-linejoin="round" stroke-width="0.43" stroke-dasharray="4.82 1.61"/><path d="M57.8,86.1h2.1" transform="translate(-1.7 -3.5)" fill="none" stroke="#000" stroke-linecap="round" stroke-linejoin="round" stroke-width="0.43"/><path d="M97.2,86.4h21.4a16.2,16.2,0,0,1,2.2,0c.5,0-.6,0,.6-.1h.4c.1-.1-.1-.4-.4-1.1l-.4-.6c-.8-1.6-1.8-3.3-1.8-3.3s-.8-1.4-1.7-3.2c-1.9-3.7-4-8.1-4.6-9.3" transform="translate(-1.7 -3.5)" fill="none" stroke="#000" stroke-linecap="round" stroke-linejoin="round" stroke-width="0.43" stroke-dasharray="4.25 1.42"/><line x1="55.3" y1="40.7" x2="56.6" y2="41.3" fill="none" stroke="#000" stroke-linecap="round" stroke-linejoin="round" stroke-width="0.28"/><line x1="57.5" y1="41.6" x2="59.2" y2="42.3" fill="none" stroke-dasharray="1.46 0.87" stroke-linecap="round" stroke-linejoin="round" stroke-width="0.28" stroke="#000"/><line x1="59.6" y1="42.4" x2="60.9" y2="43" fill="none" stroke="#000" stroke-linecap="round" stroke-linejoin="round" stroke-width="0.28"/><path d="M55.9,43.5c1.5-3.6,1.3-2.9,2.8-6.4,3.2-7.7,5.5-13.4,6.6-16.4.2-.4,1.7-4.5,3-8,.7-2,1-3,1.2-3.4a26.7,26.7,0,0,1,.9-2.6,2.3,2.3,0,0,1,.4-1.1l.3-.4c-.1-.3-.4-.5-1.1-.8l-1.1-.5c-.5-.2-.7-.2-.8-.1s-.4.2-.6.5a12.3,12.3,0,0,0-.9,1.8L66,7.4c-.7,1.4-1,2.2-1.6,3.3-1.2,2.8-4,8.1-7.4,15.4-1.4,2.9-3.5,7.5-5.2,11.3l-.7,1.3c-.9,2-1.5,3.4-2.3,5l-2.6,5.5c-.8,1.7-1,2.3-1.9,4.5s-1,2.2-3.1,7.2-3.5,8.1-4.1,9.7l-.5,1c-.4.8-.6,1-.6,1.4l.7.9,1.6,1.5,1.1.9c1.4,1.1,1.7,1.2,1.8,1.1l.3-.6a.9.9,0,0,0,.3-.5,17.7,17.7,0,0,0,1.4-3.1c.6-1.7,3.1-6.8,5-11.1C51.4,55.2,51,55,55.9,43.5Z" transform="translate(-1.7 -3.5)" stroke="#000" stroke-linecap="round" stroke-linejoin="round" stroke-width="0.57" fill="url(#_10_lpi_10_)"/><path d="M35.3,74.5a11.2,11.2,0,0,0-.5,1.3" transform="translate(-1.7 -3.5)" fill="none" stroke="#000" stroke-linecap="round" stroke-linejoin="round" stroke-width="0.43"/><path d="M34.2,77.4a12.4,12.4,0,0,1-1.1,2.3c-.3.5-.4.9-.8,1.7a3,3,0,0,0-.3,1.2c.1.4.5.5,1.9,1.2l2.8,1.1a.8.8,0,0,0,.9.2c.2-.1.3-.3.5-.8l.5-.9c.3-.8.3-.7,1.2-2.8" transform="translate(-1.7 -3.5)" fill="none" stroke="#000" stroke-linecap="round" stroke-linejoin="round" stroke-width="0.43" stroke-dasharray="2.79 1.67"/><path d="M40.2,79.9a6.9,6.9,0,0,1,.5-1.3" transform="translate(-1.7 -3.5)" fill="none" stroke="#000" stroke-linecap="round" stroke-linejoin="round" stroke-width="0.43"/></g></svg>