<svg xmlns="http://www.w3.org/2000/svg" viewBox="0 0 744 783.8"><g id="scale-1:100"><path d="M637.6,783.9v9.9H495.8v-9.9" transform="translate(-16.7 -10.4)" fill="none" stroke="#000" stroke-miterlimit="10" stroke-width="0.5"/><line x1="507.5" y1="773.5" x2="507.5" y2="783.4" fill="none" stroke="#000" stroke-miterlimit="10" stroke-width="0.5"/><line x1="535.8" y1="773.5" x2="535.8" y2="783.4" fill="none" stroke="#000" stroke-miterlimit="10" stroke-width="0.5"/><line x1="564.1" y1="773.5" x2="564.1" y2="783.4" fill="none" stroke="#000" stroke-miterlimit="10" stroke-width="0.5"/><line x1="592.5" y1="773.5" x2="592.5" y2="783.4" fill="none" stroke="#000" stroke-miterlimit="10" stroke-width="0.5"/><text transform="translate(475.5 769)" font-size="14.17" font-family="AdobeMingStd-Light-B5pc-H, Adobe Ming Std">0</text><text transform="translate(617.5 769)" font-size="14.17" font-family="AdobeMingStd-Light-B5pc-H, Adobe Ming Std">5m</text></g><g id="outline"><path d="M81.9,196.9l77.2,26.7L246.2,48l180.7,69.2q20.9-40.8,41.6-81.5" transform="translate(-16.7 -10.4)" fill="none" stroke="#000" stroke-linecap="round" stroke-linejoin="round" stroke-width="0.85"/><path d="M600.6,102.4c-10.6,24.1-21.3,48.2-31.9,72.2l173,69.6L663.9,421.6l96.4,42.3" transform="translate(-16.7 -10.4)" fill="none" stroke="#000" stroke-linecap="round" stroke-linejoin="round" stroke-width="0.85"/><path d="M686,591.9l-93.1-33.4-87,169.4L326.1,651.4,257.2,793.8" transform="translate(-16.7 -10.4)" fill="none" stroke="#000" stroke-linecap="round" stroke-linejoin="round" stroke-width="0.85"/><path d="M119,736.3q30.6-65.8,61.1-131.6L17.2,526q36.6-83.8,73.3-167.6L18.2,330" transform="translate(-16.7 -10.4)" fill="none" stroke="#000" stroke-linecap="round" stroke-linejoin="round" stroke-width="0.85"/><path d="M447.8,585.4,328.9,547.9,244,737.5,157.8,701q45-91.8,89.8-183.7l-108-44.2,51-122-59.8-26.4c-.8-24.4-1.7-48.8-2.5-73.3l96.4,25.5,61.5-122,127.9,43.9,32.7-57.5q30.4,33.6,61.1,67c-4.2,11.4-8.4,22.7-12.7,34.1l101,43Q574,338.2,551.9,390.9l6.8,6.9q-12.2,43.5-24.5,87l-24.3-7.6Z" transform="translate(-16.7 -10.4)" fill="none" stroke="#000" stroke-linecap="round" stroke-linejoin="round" stroke-width="0.57"/><path d="M506,381.3c-.3,2.1-.6,2.5-1.1,4.8s-.3,3-.9,6.3-.9,4.7-1.8,6.5a15.8,15.8,0,0,0-1.3,3,17.4,17.4,0,0,0-.5,2.6c-.4,2.9-2.6,6-3.4,7.2-5.9,8.5-18.5,28.7-19.7,30.5-3.2,5.2-2.4,4.3-4.6,7.7a190.1,190.1,0,0,1-15.8,20.5l-5,5.7a60.1,60.1,0,0,0-4.6,5.1c-1.6,2-1.7,2.4-3.2,4.2a48.7,48.7,0,0,1-4.1,4.4,81.5,81.5,0,0,1-9.8,8.6c-2.5,1.8-6,3.6-13,7.3a37.9,37.9,0,0,1-7.9,3.3c-2.5.7-2.6.4-6.2,1.2s-4.5,1.3-11.2,3a50.2,50.2,0,0,1-5.8,1.2l-4.7.5-6.4.9-3.8.5-5,.5-7,1.1-3.4.4a41.3,41.3,0,0,1-5.1.5h-4.5c-8.6-.1-9.8.1-14.3-.2l-3.6-.2c-4.5-.3-5.8-.2-8.4-.7L317,517l-5.1-1.5-4.3-1.1a31.7,31.7,0,0,1-4.3-1.6,95.7,95.7,0,0,1-11-5.6l-9.6-5.4-5.4-3.7c-3.3-2.4-5.7-4.3-10.4-8.1l-5.3-4.3c-3.3-2.9-5-4.4-7.1-6.5a22.1,22.1,0,0,0-3-2.5c-1.6-1.2-2.1-1.1-4.3-2.5l-3.2-2.3a19,19,0,0,1-2.9-2.4,14.6,14.6,0,0,1-2.1-3.2,28.9,28.9,0,0,1-1.5-4.1c-1-3.3-1.7-6-1.9-7s-.1-.6-1.1-5.5l-1.2-5.7c-.4-2.9-.3-3.2-.8-5.7-.2-.9-.5-2.3-1-4.2s-1-2.3-1.5-4.3a45,45,0,0,1-1-4.5c0-.1-.2-1.4-.3-2.8-.4-5.4,0-14.6,0-14.6.3-5.5.1-2.5.5-10.1.6-12.4.8-12.8.9-18.7s.3-9.7.2-10.8.1-3,.2-7.8a10.7,10.7,0,0,1,.5-3c.2-.6.2-.7.8-2.2l1.1-3a21.3,21.3,0,0,1,1.8-3.1c.5-.7.8-1.2,1.6-2.2l2.6-3.6a78.2,78.2,0,0,0,7.4-11.7c1.3-2.8,2.3-5.6,2.3-5.6s.2-.5.7-2l1.9-5.6c1-3.2.5-2.9,1.8-7.6.7-2.6.7-2.4,1.5-5.3.3-.8.5-1.8,1-3a23.6,23.6,0,0,1,1.2-2.6c2.5-4.4,5.9-9.5,5.9-9.5l4.4-6.4c.8-1,3.9-5.3,8.8-10.7a59.2,59.2,0,0,1,6.3-6.1,52.8,52.8,0,0,1,5.7-3.5l10.1-5.7,12.4-6.6c5.7-2.7,9.1-4.4,14.1-6,3.2-1,6-1.7,9.2-2.4l11-2.2,7.6-1.6a111.8,111.8,0,0,1,11.2-1.1c3-.2,6.2-.4,10.6-.4,2.2-.1,6.2.1,14.1.5a19.3,19.3,0,0,1,5,.6c1.3.2,1.7.5,3.2.8a31.7,31.7,0,0,0,4.6.7l9.3,1.4,3.8.8a19.5,19.5,0,0,1,4.1,1.5l2.7,1.4,3.1,1.2a36.5,36.5,0,0,1,4.2,2.3,9.5,9.5,0,0,0,1.7.9l2.5.5,1.5.4a15.9,15.9,0,0,1,3,1,38.2,38.2,0,0,1,5.5,3.1c2.5,1.7,3.1,2.4,3.3,2.7a19.6,19.6,0,0,1,1.7,2.6,31,31,0,0,0,3,3.8l5.6,6.2c4.1,4.5,3.6,5.2,10.5,14,2.8,3.6,3,3.6,4.4,5.6,2.4,3.6,3,5.3,5.3,9.4s2.8,4.2,5.4,8.3,3.6,6.3,6.9,12.5,5.6,10.9,8.9,18.1a81.6,81.6,0,0,1,4,9.6c1.2,3.5,2,7.6,3.5,15.9.1.7.7,3.8,1.1,7.9a35.6,35.6,0,0,1,.4,5.2A28.2,28.2,0,0,1,506,381.3Z" transform="translate(-16.7 -10.4)" fill="none" stroke="#000" stroke-linecap="round" stroke-linejoin="round" stroke-width="0.57"/><path d="M457.6,283.6a2.2,2.2,0,0,1-.9,1.4,2.5,2.5,0,0,1-1.8.4c-1.1-.3-1.5-1.7-1.5-2.5a2.6,2.6,0,0,1,.4-1.5,2.1,2.1,0,0,1,1.5-.6,2,2,0,0,1,1.7.8A2.4,2.4,0,0,1,457.6,283.6Z" transform="translate(-16.7 -10.4)" fill="none" stroke="#000" stroke-linecap="round" stroke-linejoin="round" stroke-width="0.57"/><path d="M511,361.1c.3.3.3.8.3,1.5s0,.9-.2,1.1-.6.3-1.2.3-1,.1-1.4-.3a1.6,1.6,0,0,1-.3-.6,2,2,0,0,1-.2-1.5c.3-.7,1.2-.8,1.3-.9h.8A1.8,1.8,0,0,1,511,361.1Z" transform="translate(-16.7 -10.4)" fill="none" stroke="#000" stroke-linecap="round" stroke-linejoin="round" stroke-width="0.57"/><path d="M520.6,346.8a1.8,1.8,0,0,1-.3,1.2,2.1,2.1,0,0,1-1.6.4,1.1,1.1,0,0,1-.9-.3,2,2,0,0,1-.7-1.1,1.6,1.6,0,0,1,.5-1.4,1.5,1.5,0,0,1,1.1-.4c.4-.1,1.3-.2,1.7.4S520.6,346.3,520.6,346.8Z" transform="translate(-16.7 -10.4)" fill="none" stroke="#000" stroke-linecap="round" stroke-linejoin="round" stroke-width="0.57"/><path d="M527,364.7a2.3,2.3,0,0,1-.3,2c-.4.3-.9.3-2,.3a2.5,2.5,0,0,1-1.3-.1,2,2,0,0,1-.6-1.4,2,2,0,0,1,.1-1.5,1.9,1.9,0,0,1,.7-.8,3,3,0,0,1,1.2-.2,2.3,2.3,0,0,1,1.9.6C527,363.9,527,364.2,527,364.7Z" transform="translate(-16.7 -10.4)" fill="none" stroke="#000" stroke-linecap="round" stroke-linejoin="round" stroke-width="0.57"/><path d="M534.5,368.7c0,.9.1,1.4-.2,1.8a2.3,2.3,0,0,1-1.8.7,1.6,1.6,0,0,1-1.2-.4,1.7,1.7,0,0,1-.7-1.4,3.7,3.7,0,0,1-.1-1.8,1.8,1.8,0,0,1,.2-1.1,1.3,1.3,0,0,1,.8-.9,1.9,1.9,0,0,1,1.9.4,2.2,2.2,0,0,1,.8,1A3.4,3.4,0,0,1,534.5,368.7Z" transform="translate(-16.7 -10.4)" fill="none" stroke="#000" stroke-linecap="round" stroke-linejoin="round" stroke-width="0.57"/><path d="M533,376a1.8,1.8,0,0,1-.5,1.1,2.6,2.6,0,0,1-.9.9,1.3,1.3,0,0,1-.8.2h-1.6a1.7,1.7,0,0,1-.9-.8,1.2,1.2,0,0,1-.2-.7,1.2,1.2,0,0,1,.1-.8,1,1,0,0,1,.4-.5,1.9,1.9,0,0,1,.9-.4,2.4,2.4,0,0,1,1.3-.3c.8,0,1.4,0,1.8.4A1.2,1.2,0,0,1,533,376Z" transform="translate(-16.7 -10.4)" fill="none" stroke="#000" stroke-linecap="round" stroke-linejoin="round" stroke-width="0.57"/><path d="M294.4,230.4a1.3,1.3,0,0,1,.3,1v1.1a3.9,3.9,0,0,1-.5,1.4,2.2,2.2,0,0,1-1.1,1,1.9,1.9,0,0,1-1.3.2l-.6-.2a1.8,1.8,0,0,1-.9-.9,2.6,2.6,0,0,1-.2-1.5,9.3,9.3,0,0,1,.3-1,1.6,1.6,0,0,1,.3-.8l.7-.4a3.5,3.5,0,0,1,1.2-.3h1.2A1.3,1.3,0,0,1,294.4,230.4Z" transform="translate(-16.7 -10.4)" fill="none" stroke="#000" stroke-linecap="round" stroke-linejoin="round" stroke-width="0.57"/><path d="M284.9,235.2a2,2,0,0,1,.1,1.3,2.7,2.7,0,0,1-1.5,2.2c-.5.2-1.4.4-1.9-.1s-.4-.6-.6-1.1a2,2,0,0,1-.2-1.5,1.9,1.9,0,0,1,.9-1.3,1.7,1.7,0,0,1,1-.6,1.6,1.6,0,0,1,1.3.2A1.9,1.9,0,0,1,284.9,235.2Z" transform="translate(-16.7 -10.4)" fill="none" stroke="#000" stroke-linecap="round" stroke-linejoin="round" stroke-width="0.57"/><path d="M286.8,246a1.2,1.2,0,0,1,.1,1,1.5,1.5,0,0,1-.3.7c0,.1-.2.4-.8.9l-1,.7a2.2,2.2,0,0,1-1.5.1,1.6,1.6,0,0,1-1.1-.8v-1.3a2.4,2.4,0,0,1,.6-.9,4.6,4.6,0,0,1,1.2-.9l1-.3h1A1.5,1.5,0,0,1,286.8,246Z" transform="translate(-16.7 -10.4)" fill="none" stroke="#000" stroke-linecap="round" stroke-linejoin="round" stroke-width="0.57"/><path d="M278.9,251.1a3.7,3.7,0,0,1,.2,1.8c-.1.3-.1.6-.2.9a2.2,2.2,0,0,1-1.1,1,1.8,1.8,0,0,1-1.1.1c-.1-.1-.4-.1-.6-.4a2.1,2.1,0,0,1-.3-1.4v-.7a12,12,0,0,1,.6-1.2,1.6,1.6,0,0,1,.7-.7,1,1,0,0,1,1-.1A1.4,1.4,0,0,1,278.9,251.1Z" transform="translate(-16.7 -10.4)" fill="none" stroke="#000" stroke-linecap="round" stroke-linejoin="round" stroke-width="0.57"/><path d="M130.5,250.1a1.6,1.6,0,0,1-.4,1.3,1.3,1.3,0,0,1-1,.4,1.9,1.9,0,0,1-1.7-.3,2.3,2.3,0,0,1-.2-1.1,1.4,1.4,0,0,1,0-.9,1.3,1.3,0,0,1,.9-1,1.7,1.7,0,0,1,1.7.4A2.2,2.2,0,0,1,130.5,250.1Z" transform="translate(-16.7 -10.4)" fill="none" stroke="#000" stroke-linecap="round" stroke-linejoin="round" stroke-width="0.57"/><text transform="translate(123.7 239.2)" font-size="11.34" font-family="AdobeMingStd-Light-B5pc-H, Adobe Ming Std">1.0±</text><text transform="translate(242.8 260.2)" font-size="11.34" font-family="AdobeMingStd-Light-B5pc-H, Adobe Ming Std">9.3</text><text transform="translate(288.4 234.5)" font-size="11.34" font-family="AdobeMingStd-Light-B5pc-H, Adobe Ming Std">9.35</text><text transform="translate(251 213.8)" font-size="11.34" font-family="AdobeMingStd-Light-B5pc-H, Adobe Ming Std">9.25</text><text transform="translate(494.8 326)" font-size="11.34" font-family="AdobeMingStd-Light-B5pc-H, Adobe Ming Std">9.3</text><text transform="translate(467.9 368.8)" font-size="11.34" font-family="AdobeMingStd-Light-B5pc-H, Adobe Ming Std">9.4</text><text transform="translate(524.4 347.3)" font-size="11.34" font-family="AdobeMingStd-Light-B5pc-H, Adobe Ming Std">9.2</text><text transform="translate(513.5 385.2)" font-size="11.34" font-family="AdobeMingStd-Light-B5pc-H, Adobe Ming Std">9.15</text><line x1="115.7" y1="239.2" x2="121.6" y2="237.6" fill="none" stroke="#000" stroke-linecap="round" stroke-linejoin="round" stroke-width="0.28"/><line x1="260.4" y1="216.1" x2="263.8" y2="222.4" fill="none" stroke="#000" stroke-linecap="round" stroke-linejoin="round" stroke-width="0.28"/><line x1="252.1" y1="249.5" x2="256.4" y2="245.9" fill="none" stroke="#000" stroke-linecap="round" stroke-linejoin="round" stroke-width="0.28"/><line x1="273.1" y1="235.7" x2="285.3" y2="232.3" fill="none" stroke="#000" stroke-linecap="round" stroke-linejoin="round" stroke-width="0.28"/><line x1="279.5" y1="225" x2="286.4" y2="229.5" fill="none" stroke="#000" stroke-linecap="round" stroke-linejoin="round" stroke-width="0.28"/><line x1="480.4" y1="358.6" x2="489.9" y2="354.7" fill="none" stroke="#000" stroke-linecap="round" stroke-linejoin="round" stroke-width="0.28"/><path d="M529.4,362.5c.4,0,10-4.8,10-4.8" transform="translate(-16.7 -10.4)" fill="none" stroke="#000" stroke-linecap="round" stroke-linejoin="round" stroke-width="0.28"/><line x1="520" y1="355.1" x2="525" y2="349.2" fill="none" stroke="#000" stroke-linecap="round" stroke-linejoin="round" stroke-width="0.28"/><line x1="516.2" y1="369.2" x2="522.2" y2="375" fill="none" stroke="#000" stroke-linecap="round" stroke-linejoin="round" stroke-width="0.28"/><line x1="502.1" y1="327.4" x2="502.1" y2="332.8" fill="none" stroke="#000" stroke-linecap="round" stroke-linejoin="round" stroke-width="0.28"/><path d="M523.8,367c0,.2.1.4.1.7s.1.4.2.5.7.3.9.4a2.4,2.4,0,0,0,1.3-.3,1.8,1.8,0,0,0,.4-1.6" transform="translate(-16.7 -10.4)" fill="none" stroke="#000" stroke-linecap="round" stroke-linejoin="round" stroke-width="0.57"/><path d="M518,348.3a5.4,5.4,0,0,0,.1.8,1.5,1.5,0,0,0,.4.8.8.8,0,0,0,.7,0l.6-.2a1.1,1.1,0,0,0,.3-.7,2.2,2.2,0,0,0,.1-.9" transform="translate(-16.7 -10.4)" fill="none" stroke="#000" stroke-linecap="round" stroke-linejoin="round" stroke-width="0.57"/><text transform="translate(451.9 534.1) rotate(-60)" font-size="14.17" font-family="AdobeMingStd-Light-B5pc-H, Adobe Ming Std">9M</text><text transform="translate(461.8 426) rotate(-58.1)" font-size="14.17" font-family="AdobeMingStd-Light-B5pc-H, Adobe Ming Std">9M</text></g><g id="compass"><line x1="110.6" y1="34.4" x2="110.6" y2="178.1" fill="none" stroke="#000" stroke-linecap="round" stroke-linejoin="round" stroke-width="0.57"/><polygon points="107.3 36.7 110.6 24.4 113.8 36.7 107.3 36.7"/><line x1="81.1" y1="87.2" x2="145" y2="87.2" fill="none" stroke="#000" stroke-linecap="round" stroke-linejoin="round" stroke-width="0.57"/><circle cx="110.6" cy="87.2" r="19.4" fill="none" stroke="#000" stroke-miterlimit="10" stroke-width="0.57"/><text transform="translate(103.8 17)" font-size="19.84" font-family="ArialMT, Arial">N</text></g><g id="text"><text transform="translate(309.5 378.6)" font-size="14.17" font-family="AdobeMingStd-Light-B5pc-H, Adobe Ming Std">早期盜掘坑</text></g></svg>