<svg xmlns="http://www.w3.org/2000/svg" xmlns:xlink="http://www.w3.org/1999/xlink" viewBox="0 0 211.5 172.6"><defs><pattern id="_10_lpi_10_" data-name="10 lpi 10%" width="72" height="72" patternTransform="translate(-14.9 20.8) rotate(-45)" patternUnits="userSpaceOnUse" viewBox="0 0 72 72"><rect width="72" height="72" fill="none"/><line x1="71.8" y1="68.4" x2="144.3" y2="68.4" fill="none" stroke="#231815" stroke-width="0.28"/><line x1="71.8" y1="54" x2="144.3" y2="54" fill="none" stroke="#231815" stroke-width="0.28"/><line x1="71.8" y1="39.6" x2="144.3" y2="39.6" fill="none" stroke="#231815" stroke-width="0.28"/><line x1="71.8" y1="25.2" x2="144.3" y2="25.2" fill="none" stroke="#231815" stroke-width="0.28"/><line x1="71.8" y1="10.8" x2="144.3" y2="10.8" fill="none" stroke="#231815" stroke-width="0.28"/><line x1="71.8" y1="61.2" x2="144.3" y2="61.2" fill="none" stroke="#231815" stroke-width="0.28"/><line x1="71.8" y1="46.8" x2="144.3" y2="46.8" fill="none" stroke="#231815" stroke-width="0.28"/><line x1="71.8" y1="32.4" x2="144.3" y2="32.4" fill="none" stroke="#231815" stroke-width="0.28"/><line x1="71.8" y1="18" x2="144.3" y2="18" fill="none" stroke="#231815" stroke-width="0.28"/><line x1="71.8" y1="3.6" x2="144.3" y2="3.6" fill="none" stroke="#231815" stroke-width="0.28"/><line x1="71.8" y1="72" x2="144.3" y2="72" fill="none" stroke="#231815" stroke-width="0.28"/><line x1="71.8" y1="57.6" x2="144.3" y2="57.6" fill="none" stroke="#231815" stroke-width="0.28"/><line x1="71.8" y1="43.2" x2="144.3" y2="43.2" fill="none" stroke="#231815" stroke-width="0.28"/><line x1="71.8" y1="28.8" x2="144.3" y2="28.8" fill="none" stroke="#231815" stroke-width="0.28"/><line x1="71.8" y1="14.4" x2="144.3" y2="14.4" fill="none" stroke="#231815" stroke-width="0.28"/><line x1="71.8" y1="64.8" x2="144.3" y2="64.8" fill="none" stroke="#231815" stroke-width="0.28"/><line x1="71.8" y1="50.4" x2="144.3" y2="50.4" fill="none" stroke="#231815" stroke-width="0.28"/><line x1="71.8" y1="36" x2="144.3" y2="36" fill="none" stroke="#231815" stroke-width="0.28"/><line x1="71.8" y1="21.6" x2="144.3" y2="21.6" fill="none" stroke="#231815" stroke-width="0.28"/><line x1="71.8" y1="7.2" x2="144.3" y2="7.2" fill="none" stroke="#231815" stroke-width="0.28"/><line x1="-0.3" y1="68.4" x2="72.3" y2="68.4" fill="none" stroke="#231815" stroke-width="0.28"/><line x1="-0.3" y1="54" x2="72.3" y2="54" fill="none" stroke="#231815" stroke-width="0.28"/><line x1="-0.3" y1="39.6" x2="72.3" y2="39.6" fill="none" stroke="#231815" stroke-width="0.28"/><line x1="-0.3" y1="25.2" x2="72.3" y2="25.2" fill="none" stroke="#231815" stroke-width="0.28"/><line x1="-0.3" y1="10.8" x2="72.3" y2="10.8" fill="none" stroke="#231815" stroke-width="0.28"/><line x1="-0.3" y1="61.2" x2="72.3" y2="61.2" fill="none" stroke="#231815" stroke-width="0.28"/><line x1="-0.3" y1="46.8" x2="72.3" y2="46.8" fill="none" stroke="#231815" stroke-width="0.28"/><line x1="-0.3" y1="32.4" x2="72.3" y2="32.4" fill="none" stroke="#231815" stroke-width="0.28"/><line x1="-0.3" y1="18" x2="72.3" y2="18" fill="none" stroke="#231815" stroke-width="0.28"/><line x1="-0.3" y1="3.6" x2="72.3" y2="3.6" fill="none" stroke="#231815" stroke-width="0.28"/><line x1="-0.3" y1="72" x2="72.3" y2="72" fill="none" stroke="#231815" stroke-width="0.28"/><line x1="-0.3" y1="57.6" x2="72.3" y2="57.6" fill="none" stroke="#231815" stroke-width="0.28"/><line x1="-0.3" y1="43.2" x2="72.3" y2="43.2" fill="none" stroke="#231815" stroke-width="0.28"/><line x1="-0.3" y1="28.8" x2="72.3" y2="28.8" fill="none" stroke="#231815" stroke-width="0.28"/><line x1="-0.3" y1="14.4" x2="72.3" y2="14.4" fill="none" stroke="#231815" stroke-width="0.28"/><line x1="-0.3" y1="64.8" x2="72.3" y2="64.8" fill="none" stroke="#231815" stroke-width="0.28"/><line x1="-0.3" y1="50.4" x2="72.3" y2="50.4" fill="none" stroke="#231815" stroke-width="0.28"/><line x1="-0.3" y1="36" x2="72.3" y2="36" fill="none" stroke="#231815" stroke-width="0.28"/><line x1="-0.3" y1="21.6" x2="72.3" y2="21.6" fill="none" stroke="#231815" stroke-width="0.28"/><line x1="-0.3" y1="7.2" x2="72.3" y2="7.2" fill="none" stroke="#231815" stroke-width="0.28"/><line x1="-72.3" y1="68.4" x2="0.3" y2="68.4" fill="none" stroke="#231815" stroke-width="0.28"/><line x1="-72.3" y1="54" x2="0.3" y2="54" fill="none" stroke="#231815" stroke-width="0.28"/><line x1="-72.3" y1="39.6" x2="0.3" y2="39.6" fill="none" stroke="#231815" stroke-width="0.28"/><line x1="-72.3" y1="25.2" x2="0.3" y2="25.2" fill="none" stroke="#231815" stroke-width="0.28"/><line x1="-72.3" y1="10.8" x2="0.3" y2="10.8" fill="none" stroke="#231815" stroke-width="0.28"/><line x1="-72.3" y1="61.2" x2="0.3" y2="61.2" fill="none" stroke="#231815" stroke-width="0.28"/><line x1="-72.3" y1="46.8" x2="0.3" y2="46.8" fill="none" stroke="#231815" stroke-width="0.28"/><line x1="-72.3" y1="32.4" x2="0.3" y2="32.4" fill="none" stroke="#231815" stroke-width="0.28"/><line x1="-72.3" y1="18" x2="0.3" y2="18" fill="none" stroke="#231815" stroke-width="0.28"/><line x1="-72.3" y1="3.6" x2="0.3" y2="3.6" fill="none" stroke="#231815" stroke-width="0.28"/><line x1="-72.3" y1="72" x2="0.3" y2="72" fill="none" stroke="#231815" stroke-width="0.28"/><line x1="-72.3" y1="57.6" x2="0.3" y2="57.6" fill="none" stroke="#231815" stroke-width="0.28"/><line x1="-72.3" y1="43.2" x2="0.3" y2="43.2" fill="none" stroke="#231815" stroke-width="0.28"/><line x1="-72.3" y1="28.8" x2="0.3" y2="28.8" fill="none" stroke="#231815" stroke-width="0.28"/><line x1="-72.3" y1="14.4" x2="0.3" y2="14.4" fill="none" stroke="#231815" stroke-width="0.28"/><line x1="-72.3" y1="64.8" x2="0.3" y2="64.8" fill="none" stroke="#231815" stroke-width="0.28"/><line x1="-72.3" y1="50.4" x2="0.3" y2="50.4" fill="none" stroke="#231815" stroke-width="0.28"/><line x1="-72.3" y1="36" x2="0.3" y2="36" fill="none" stroke="#231815" stroke-width="0.28"/><line x1="-72.3" y1="21.6" x2="0.3" y2="21.6" fill="none" stroke="#231815" stroke-width="0.28"/><line x1="-72.3" y1="7.2" x2="0.3" y2="7.2" fill="none" stroke="#231815" stroke-width="0.28"/><line x1="71.8" x2="144.3" fill="none" stroke="#231815" stroke-width="0.28"/><line x1="-0.3" x2="72.3" fill="none" stroke="#231815" stroke-width="0.28"/><line x1="-72.3" x2="0.3" fill="none" stroke="#231815" stroke-width="0.28"/></pattern></defs><g id="scale-1:1"><path d="M176.5,165.8v9.9H34.7v-9.9" transform="translate(-4.7 -3.4)" fill="none" stroke="#000" stroke-miterlimit="10" stroke-width="0.5"/><line x1="58.4" y1="162.4" x2="58.4" y2="172.4" fill="none" stroke="#000" stroke-miterlimit="10" stroke-width="0.5"/><line x1="86.7" y1="162.4" x2="86.7" y2="172.4" fill="none" stroke="#000" stroke-miterlimit="10" stroke-width="0.5"/><line x1="115.1" y1="162.4" x2="115.1" y2="172.4" fill="none" stroke="#000" stroke-miterlimit="10" stroke-width="0.5"/><line x1="143.4" y1="162.4" x2="143.4" y2="172.4" fill="none" stroke="#000" stroke-miterlimit="10" stroke-width="0.5"/><text transform="translate(26.4 157.9)" font-size="14.17" font-family="AdobeMingStd-Light-B5pc-H, Adobe Ming Std">0</text><text transform="translate(168.4 157.9)" font-size="14.17" font-family="AdobeMingStd-Light-B5pc-H, Adobe Ming Std">5cm</text></g><g id="outline"><path d="M103.3,44.4c-.5,1.2-1.4,4.1-3,9.7A23.9,23.9,0,0,1,99,57.8a27.2,27.2,0,0,1-1.5,2.8L96,63.2a17.6,17.6,0,0,1-1.3,2,9,9,0,0,1-1,1.2L92,68.8a5.8,5.8,0,0,0-.7,1.4l-1.6,2.7c-.4.6-1.1,2-2.6,4.7l-.7,1.5a38.4,38.4,0,0,1-1.8,3.6L83.4,84l-1,1.4a13.9,13.9,0,0,0-1.7,3,2.5,2.5,0,0,1-.4.9c-.3.7-.7.9-1,1.4s-.3.8-.7,1.6a13.5,13.5,0,0,1-2.1,2.6L75.3,96l-.6.5c-.4.4-.5.5-.7.5s-.2-.2-.5-.6l-.6-.9a3.5,3.5,0,0,0-.9-1.1l-1.2-.7-.9-.2h-1c-.3-.1-.4-.4-.5-.5a21.3,21.3,0,0,1-.9-2.3c-.3-1.4-.3-1.6-.6-3.1s-.1-.5-.3-1.3a14.5,14.5,0,0,1-.4-1.6c-.2-1.1,0-1.4-.2-2.5a2.4,2.4,0,0,0-.2-.8c-.7-2.9-1.1-4.4-1.3-4.9a12,12,0,0,1-.6-2.4c0-.4-.1-.8-.1-1.2s-.1-.5-.1-.8,0-.6-.2-.8-.1-.2-.2-.3l-.6-.6a2.6,2.6,0,0,1-.8-1.3,8.7,8.7,0,0,1-.2-2.8,21.7,21.7,0,0,0-.1-2.4,4.7,4.7,0,0,0-.7-2c-.4-.5-.6-.5-1.4-1.3s-.1-.1-.9-1a7.7,7.7,0,0,1-1.3-1.6c-.4-.5-.2-.5-.5-1s-.8-.7-1.7-1.9a15.9,15.9,0,0,0-1.3-1.3,2.3,2.3,0,0,0-.5-.5h-.8a3.2,3.2,0,0,0-1,0l-1.9-.2-1-.2c-.4,0-.6-.1-.8,0h-.6c-.2,0-.3,0-.3-.1s-.2-.1-.3-.3a1.4,1.4,0,0,0-.2-.6L46,51c-.3-.5-.3-.5-.3-.6s0-.5.2-1.1a6.2,6.2,0,0,0,.3-1.1l.3-1.2a7.8,7.8,0,0,1,.5-1.2,3.3,3.3,0,0,0,.5-1.2,11.3,11.3,0,0,0,1-2.2,8.1,8.1,0,0,0,.1-1.5v-1c0-.4.1-.6.1-1.2s.1-1.6.1-1.8a5.8,5.8,0,0,1,.5-1.4,34,34,0,0,0,1-3.3c.4-1.4.3-1.3.7-2.7s.6-1.6.9-2.8.3-1.4.7-3.3.4-1.4.6-2.5.2-1.3.4-2.2,0-1.4.2-2.8.2-1.2.2-1.5.1-.2.3-1l.2-1.1a13.3,13.3,0,0,0,.3-2.1,1.1,1.1,0,0,1,.1-.5c.1-.2.1-.4.2-.5a9.5,9.5,0,0,0,.4-2.1,4.4,4.4,0,0,1,.1-.9,2.9,2.9,0,0,1,.3-.9l.2-.2h53.4V7.5a10.7,10.7,0,0,0,0,1.8c0,1.6-.1,1.6-.1,2.8a9.1,9.1,0,0,1,.2,2c.1,1.6.1,1.9.1,2.3a15,15,0,0,1-.7,1.7l-.8,2.4a12.2,12.2,0,0,0-.6,2.7,9,9,0,0,0-.2,2.3c0,.5,0-.5-.3,5a26.7,26.7,0,0,0-.1,4v.8a3.1,3.1,0,0,1-.1,1.1c0,.2-.1.3-.3.7l-.7,1.3a8.4,8.4,0,0,0-.8,1.9C104.5,41.9,103.9,43.1,103.3,44.4Z" transform="translate(-4.7 -3.4)" fill="none" stroke="#000" stroke-linecap="round" stroke-linejoin="round" stroke-width="0.57"/><path d="M208.6,51.2a1.1,1.1,0,0,0-.1.5,9.4,9.4,0,0,0-.1,1.2,21.8,21.8,0,0,0,.1,2.7v1.2c0,.8-.1.8-.1,1.4s.2.7.3,1.8a3.7,3.7,0,0,0,.1.8v5.5c0,1.2,0,1.4.1,5.2s.1,4.8.1,5.7,0,2.4.1,3.8.1,1.1.1,1.8v1.3a.8.8,0,0,0,.1.4,2.4,2.4,0,0,0,.1.7l.3.2.2.3a4.5,4.5,0,0,1,.7.7c.2.1.3.3.5.7l.5,1.2a3.4,3.4,0,0,0,.6,1.2l.5,1.6a17.4,17.4,0,0,1,.3,2.3,1.5,1.5,0,0,1,.1.6v.5c-.2.2-.5.1-.7.1h-.4c-.5-.2-.6-.4-.9-.4h-3.8l-.9-.4-.4-.2h-.2c-.1-.1-.1-.2-.2-.4v-.5a2.8,2.8,0,0,1-.1-.9,9.3,9.3,0,0,1-.2-1.4l-.4-3.4c-.4-4.9-.7-7.4-.7-8.4-.2-3.1-.2-5.7-.2-7.5V68.2c.1-4.3,0-5,.1-10.8s.1-9.3.2-11.6.3-3.3.3-4,.2-1.3.3-2.4V37.7a24.7,24.7,0,0,1,.5-4.3c.3-2,.2-1.8.5-4.2s.6-3.2,1.7-9.5l.4-2.5a19.8,19.8,0,0,1,.3-3.7,21.2,21.2,0,0,1,.6-2.1c.2-.7.2-1,.8-3.4a12,12,0,0,1,1.5-3.7,1.7,1.7,0,0,1,.8-.6,1.8,1.8,0,0,1,1,.1,3.4,3.4,0,0,1,1.1.5,3.9,3.9,0,0,1,1.6,2.1l.2.9v.8c-.4,3.9-.5,4.4-.5,4.4-.2,1.5-.4,2.8-.7,5.5s-.2,1.8-.5,4.1-.3,2.3-.6,4.1-.3,2.6-.7,4.3-.3,1.8-.5,3-.2,1.5-.4,2.8-.6,4.6-.7,5.3c-.4,2.4-.5,2.4-.6,3.6a15.2,15.2,0,0,1-.3,2.1,9.4,9.4,0,0,1-.9,2.5l-.3.6-.4.5A.4.4,0,0,1,208.6,51.2Z" transform="translate(-4.7 -3.4)" stroke="#000" stroke-linecap="round" stroke-linejoin="round" stroke-width="0.57" fill="url(#_10_lpi_10_)"/><path d="M46.5,51.9l54.6-.5" transform="translate(-4.7 -3.4)" fill="none" stroke="#000" stroke-linecap="round" stroke-linejoin="round" stroke-width="0.57"/><path d="M67,88.2H80.8" transform="translate(-4.7 -3.4)" fill="none" stroke="#000" stroke-linecap="round" stroke-linejoin="round" stroke-width="0.57"/><path d="M205.8,95.2c.2,1.3.3,2.5.4,3.5" transform="translate(-4.7 -3.4)" fill="none" stroke="#000" stroke-linecap="round" stroke-linejoin="round" stroke-width="0.43"/><path d="M206.6,101.1h0l.5,2.9c.2,1.5.1,2,.4,4.2s.2,1.4.3,2.2.1,2.7.1,3.9v2.5c.1,1,.1,1.3.3,3.1s.2,2.8.4,4.1.3,1.4.5,2.9.1,1.2.2,1.8a7.4,7.4,0,0,0,1.2,2.8c.4.4,1.5,1.8,2.8,1.6a2.7,2.7,0,0,0,1.6-1.2,6,6,0,0,0,.6-2c.2-1.7.2-3,.3-4.4a19.4,19.4,0,0,0,.1-2.2,55.5,55.5,0,0,0,0-5.8c-.1-1.4-.2-2.5-.4-4.8s-.3-3.3-.6-5.1-.4-2.7-.6-4.1-.3-1.9-.5-3.1" transform="translate(-4.7 -3.4)" fill="none" stroke="#000" stroke-linecap="round" stroke-linejoin="round" stroke-width="0.43" stroke-dasharray="7.48 2.39"/><path d="M213.7,99.2c-.2-1-.3-2.2-.5-3.5" transform="translate(-4.7 -3.4)" fill="none" stroke="#000" stroke-linecap="round" stroke-linejoin="round" stroke-width="0.43"/><path d="M54.8,5.3H36.3l-12.9.3H6.8a2.1,2.1,0,0,0-.8.6,1.5,1.5,0,0,0-.4,1.1c0,1.2-.3,2.5-.2,3.8s-.2.9-.1,5.4c0,1.2,0,1.6.2,6.6s.2,5.7.4,7.3.1,1.3.5,4.1c.8,5.7,1.1,8.6,1.3,9.7a52,52,0,0,0,1.2,7.3L9.4,53c.4.9.6.9,1,1.7a7.3,7.3,0,0,1,.5,2,2.6,2.6,0,0,1,0,.9c-.3,4.1,0,8.1,0,12.2-.1,5.7-.1,8.6-.1,9.3s-.1,2.7,0,4a4.8,4.8,0,0,1-.1,1.6,13,13,0,0,1-.8,1.7,19.9,19.9,0,0,0-1,2.2,16.7,16.7,0,0,0-1.1,4.8c-.8,6-.9,6.9-.9,6.9-.5,4-.7,6-.8,6.8-.3,3.2-.2,3.1-.5,7.7,0,0-.7,8.4-.7,12.9,0,0,0,.8.1,1.9a11.4,11.4,0,0,0,.5,2.3,12.7,12.7,0,0,0,1.1,1.5,5.2,5.2,0,0,0,2,1.4H53.3c35.5-.2,38-.6,76.2-.9,21.7-.1,32.9,0,57.3-.4l26.2-.4" transform="translate(-4.7 -3.4)" fill="none" stroke="#000" stroke-linecap="round" stroke-linejoin="round" stroke-width="0.43" stroke-dasharray="7.09 2.27"/><path d="M111.1,4.5l99.2-.6" transform="translate(-4.7 -3.4)" fill="none" stroke="#000" stroke-linecap="round" stroke-linejoin="round" stroke-width="0.43" stroke-dasharray="7.09 2.27"/><path d="M9.5,89.1" transform="translate(-4.7 -3.4)" fill="none" stroke="#000" stroke-linecap="round" stroke-linejoin="round" stroke-width="0.43" stroke-dasharray="7.09 2.27"/><path d="M8.9,88.6l29.3-.2,26.6-.2" transform="translate(-4.7 -3.4)" fill="none" stroke="#000" stroke-linecap="round" stroke-linejoin="round" stroke-width="0.43" stroke-dasharray="7.09 2.27"/><path d="M82.7,87.9l121.1-1.3" transform="translate(-4.7 -3.4)" fill="none" stroke="#000" stroke-linecap="round" stroke-linejoin="round" stroke-width="0.43" stroke-dasharray="7.09 2.27"/><path d="M102.5,51.7l100.1-.4" transform="translate(-4.7 -3.4)" fill="none" stroke="#000" stroke-linecap="round" stroke-linejoin="round" stroke-width="0.43" stroke-dasharray="7.09 2.27"/><path d="M8.9,51.6c5.6.2,11.2.2,16.9.3H44" transform="translate(-4.7 -3.4)" fill="none" stroke="#000" stroke-linecap="round" stroke-linejoin="round" stroke-width="0.43" stroke-dasharray="7.09 2.27"/></g></svg>