<svg xmlns="http://www.w3.org/2000/svg" xmlns:xlink="http://www.w3.org/1999/xlink" viewBox="0 0 1168.5 1865.8"><defs><pattern id="_10_lpi_10_" data-name="10 lpi 10%" width="72" height="72" patternTransform="matrix(0.74, -0.67, 0.67, 0.74, 6.58, 44.21)" patternUnits="userSpaceOnUse" viewBox="0 0 72 72"><rect width="72" height="72" fill="none"/><line x1="71.8" y1="68.4" x2="144.3" y2="68.4" fill="none" stroke="#231815" stroke-width="0.28"/><line x1="71.8" y1="54" x2="144.3" y2="54" fill="none" stroke="#231815" stroke-width="0.28"/><line x1="71.8" y1="39.6" x2="144.3" y2="39.6" fill="none" stroke="#231815" stroke-width="0.28"/><line x1="71.8" y1="25.2" x2="144.3" y2="25.2" fill="none" stroke="#231815" stroke-width="0.28"/><line x1="71.8" y1="10.8" x2="144.3" y2="10.8" fill="none" stroke="#231815" stroke-width="0.28"/><line x1="71.8" y1="61.2" x2="144.3" y2="61.2" fill="none" stroke="#231815" stroke-width="0.28"/><line x1="71.8" y1="46.8" x2="144.3" y2="46.8" fill="none" stroke="#231815" stroke-width="0.28"/><line x1="71.8" y1="32.4" x2="144.3" y2="32.4" fill="none" stroke="#231815" stroke-width="0.28"/><line x1="71.8" y1="18" x2="144.3" y2="18" fill="none" stroke="#231815" stroke-width="0.28"/><line x1="71.8" y1="3.6" x2="144.3" y2="3.6" fill="none" stroke="#231815" stroke-width="0.28"/><line x1="-0.3" y1="68.4" x2="72.3" y2="68.4" fill="none" stroke="#231815" stroke-width="0.28"/><line x1="-0.3" y1="54" x2="72.3" y2="54" fill="none" stroke="#231815" stroke-width="0.28"/><line x1="-0.3" y1="39.6" x2="72.3" y2="39.6" fill="none" stroke="#231815" stroke-width="0.28"/><line x1="-0.3" y1="25.2" x2="72.3" y2="25.2" fill="none" stroke="#231815" stroke-width="0.28"/><line x1="-0.3" y1="10.8" x2="72.3" y2="10.8" fill="none" stroke="#231815" stroke-width="0.28"/><line x1="-0.3" y1="61.2" x2="72.3" y2="61.2" fill="none" stroke="#231815" stroke-width="0.28"/><line x1="-0.3" y1="46.8" x2="72.3" y2="46.8" fill="none" stroke="#231815" stroke-width="0.28"/><line x1="-0.3" y1="32.4" x2="72.3" y2="32.4" fill="none" stroke="#231815" stroke-width="0.28"/><line x1="-0.3" y1="18" x2="72.3" y2="18" fill="none" stroke="#231815" stroke-width="0.28"/><line x1="-0.3" y1="3.6" x2="72.3" y2="3.6" fill="none" stroke="#231815" stroke-width="0.28"/><line y1="72" x2="72.5" y2="72" fill="none" stroke="#231815" stroke-width="0.28"/><line y1="57.6" x2="72.5" y2="57.6" fill="none" stroke="#231815" stroke-width="0.28"/><line y1="43.2" x2="72.5" y2="43.2" fill="none" stroke="#231815" stroke-width="0.28"/><line y1="28.8" x2="72.5" y2="28.8" fill="none" stroke="#231815" stroke-width="0.28"/><line y1="14.4" x2="72.5" y2="14.4" fill="none" stroke="#231815" stroke-width="0.28"/><line y1="64.8" x2="72.5" y2="64.8" fill="none" stroke="#231815" stroke-width="0.28"/><line y1="50.4" x2="72.5" y2="50.4" fill="none" stroke="#231815" stroke-width="0.28"/><line y1="36" x2="72.5" y2="36" fill="none" stroke="#231815" stroke-width="0.28"/><line y1="21.6" x2="72.5" y2="21.6" fill="none" stroke="#231815" stroke-width="0.28"/><line y1="7.2" x2="72.5" y2="7.2" fill="none" stroke="#231815" stroke-width="0.28"/><line x1="-72.3" y1="68.4" x2="0.3" y2="68.4" fill="none" stroke="#231815" stroke-width="0.28"/><line x1="-72.3" y1="54" x2="0.3" y2="54" fill="none" stroke="#231815" stroke-width="0.28"/><line x1="-72.3" y1="39.6" x2="0.3" y2="39.6" fill="none" stroke="#231815" stroke-width="0.28"/><line x1="-72.3" y1="25.2" x2="0.3" y2="25.2" fill="none" stroke="#231815" stroke-width="0.28"/><line x1="-72.3" y1="10.8" x2="0.3" y2="10.8" fill="none" stroke="#231815" stroke-width="0.28"/><line x1="-72.3" y1="61.2" x2="0.3" y2="61.2" fill="none" stroke="#231815" stroke-width="0.28"/><line x1="-72.3" y1="46.8" x2="0.3" y2="46.8" fill="none" stroke="#231815" stroke-width="0.28"/><line x1="-72.3" y1="32.4" x2="0.3" y2="32.4" fill="none" stroke="#231815" stroke-width="0.28"/><line x1="-72.3" y1="18" x2="0.3" y2="18" fill="none" stroke="#231815" stroke-width="0.28"/><line x1="-72.3" y1="3.6" x2="0.3" y2="3.6" fill="none" stroke="#231815" stroke-width="0.28"/><line x1="-72" y1="72" x2="0.5" y2="72" fill="none" stroke="#231815" stroke-width="0.28"/><line x1="-72" y1="57.6" x2="0.5" y2="57.6" fill="none" stroke="#231815" stroke-width="0.28"/><line x1="-72" y1="43.2" x2="0.5" y2="43.2" fill="none" stroke="#231815" stroke-width="0.28"/><line x1="-72" y1="28.8" x2="0.5" y2="28.8" fill="none" stroke="#231815" stroke-width="0.28"/><line x1="-72" y1="14.4" x2="0.5" y2="14.4" fill="none" stroke="#231815" stroke-width="0.28"/><line x1="-72" y1="64.8" x2="0.5" y2="64.8" fill="none" stroke="#231815" stroke-width="0.28"/><line x1="-72" y1="50.4" x2="0.5" y2="50.4" fill="none" stroke="#231815" stroke-width="0.28"/><line x1="-72" y1="36" x2="0.5" y2="36" fill="none" stroke="#231815" stroke-width="0.28"/><line x1="-72" y1="21.6" x2="0.5" y2="21.6" fill="none" stroke="#231815" stroke-width="0.28"/><line x1="-72" y1="7.2" x2="0.5" y2="7.2" fill="none" stroke="#231815" stroke-width="0.28"/><line x2="72.5" fill="none" stroke="#231815" stroke-width="0.28"/><line x1="-72" x2="0.5" fill="none" stroke="#231815" stroke-width="0.28"/></pattern></defs><g id="scale"><path d="M229.8,1900.5v10H88.1v-10" transform="translate(-46.4 -49.7)" fill="none" stroke="#000" stroke-miterlimit="10" stroke-width="0.5"/><line x1="70" y1="1850.8" x2="70" y2="1860.8" fill="none" stroke="#000" stroke-miterlimit="10" stroke-width="0.5"/><line x1="98.3" y1="1850.8" x2="98.3" y2="1860.8" fill="none" stroke="#000" stroke-miterlimit="10" stroke-width="0.5"/><line x1="126.7" y1="1850.8" x2="126.7" y2="1860.8" fill="none" stroke="#000" stroke-miterlimit="10" stroke-width="0.5"/><line x1="155" y1="1850.8" x2="155" y2="1860.8" fill="none" stroke="#000" stroke-miterlimit="10" stroke-width="0.5"/><text transform="translate(36 1846.4)" font-size="22.68" font-family="SimSun">0</text><text transform="translate(178 1846.4)" font-size="22.68" font-family="SimSun">5m</text></g><g id="outline"><path d="M46.9,553.6l312.5,67.6q-13.5,90.9-26.9,181.9l128.9,34.2L444,1073.5" transform="translate(-46.4 -49.7)" fill="none" stroke="#000" stroke-linecap="round" stroke-linejoin="round" stroke-width="0.85"/><path d="M679.5,1086.5,702.3,891l131.5,6.9q23.9-86.9,47.5-173.9l295.3,27.9" transform="translate(-46.4 -49.7)" fill="none" stroke="#000" stroke-linecap="round" stroke-linejoin="round" stroke-width="0.85"/><path d="M1214.5,601.2,920.7,537,948,374.7,767.2,337q17.1-124.6,34.1-249.4" transform="translate(-46.4 -49.7)" fill="none" stroke="#000" stroke-linecap="round" stroke-linejoin="round" stroke-width="0.85"/><path d="M635.4,57.4q-13.2,82-27.2,163.8c-5.4,31-10.9,61.9-16.4,92.9L425.2,290.7,387.3,465.8l-316.2-55" transform="translate(-46.4 -49.7)" fill="none" stroke="#000" stroke-linecap="round" stroke-linejoin="round" stroke-width="0.85"/><path d="M372.9,427.4q-18.6,114.5-37.4,229.1" transform="translate(-46.4 -49.7)" fill="none" stroke="#000" stroke-linecap="round" stroke-linejoin="round" stroke-width="0.57"/><path d="M564.4,241.2l250.3,35.5" transform="translate(-46.4 -49.7)" fill="none" stroke="#000" stroke-linecap="round" stroke-linejoin="round" stroke-width="0.57"/><path d="M956.5,504.8q-21,129.5-42.1,258.7" transform="translate(-46.4 -49.7)" fill="none" stroke="#000" stroke-linecap="round" stroke-linejoin="round" stroke-width="0.57"/><path d="M419.6,878.6l317.7,41.9" transform="translate(-46.4 -49.7)" fill="none" stroke="#000" stroke-linecap="round" stroke-linejoin="round" stroke-width="0.57"/><path d="M1135.5,1170.8l11.5,2.1c-.4,3.4-.8,6.8-1.3,10.3a306.9,306.9,0,0,1-15,60.1l-10.8,19.9-19.2,32.3c-7.4,18.2-13.8,33.7-18.9,45.8-6.1,14.5-11.3,26.9-18.7,43.4-6.3,14.2-11.8,26-16,34.7l-190.4-4.3-16.5-64.3q-17.7-28.8-35.6-57.6l-19-53.6-31.5-59.9c2.8-3,5.5-6.1,8.3-9.2,5.7,9.4,11.3,19,17,28.8s11,19.3,16.4,28.8l19,56.6q6.9,11.3,13.8,22.8c7.7,12.8,15.1,25.6,22.2,38.1.9,3.7,2.4,9.4,4.3,16.3s3.2,11,4.7,16.5,4.1,14.4,6.9,25l170.8,3.1c3.7-7.2,6.8-13.1,8.9-17,5.8-11.2,8.2-15.8,12.2-23.8s6.6-12.9,8-16.1c3.4-7.8,3.5-9.4,8.3-20.3.9-2.2,2.3-5.2,4-9.5s2.7-7.3,3.3-8.9c1.5-4.3,3.8-10.6,7.5-18.9l31.1-58.3c3.2-14.4,5.3-23.3,6.8-28.9.8-3.1,1.8-7.1,3-12.9.9-4.1,1.2-6,2-10S1134.8,1173.3,1135.5,1170.8Z" transform="translate(-46.4 -49.7)" fill="url(#_10_lpi_10_)"/><path d="M1127.3,1497l12.3,2.7c-11.4,21.6-22.7,44.2-33.9,68-17.7,37.6-33,74.1-46.3,108.8l-12.4,60.9-20.1,49.6q-10.4,62.9-20.6,125.7l-225.8,2.8q-24-89.7-48.1-179.4c-11.5-33.1-23.8-67-36.9-101.4-9.5-25-19.2-49.4-28.9-73.3l-37.3-50.9,10.9-11c4.1,6.1,8.3,12.3,12.6,18.4q13.7,19.6,27.2,37.8c8.1,19.7,16.1,39.4,24.2,59q9.8,29.7,21.2,60.8c6.8,18.2,13.6,35.9,20.6,53,1.6,6.7,4.2,16.8,7.2,29.3s3.8,16.6,5.6,23.4c2.1,8.4,5.4,20.5,10.1,35.2,2.4,9.7,4.8,19.3,7.3,29s3.7,19.2,5.6,28.8,3.5,17.7,5.2,26.5l207.1-1q9.1-56.7,18.2-113.6l22.2-57.2,12-59.7c2-4.6,5.8-14,7.8-18.7l17.3-41.9c8.8-20.7,14.2-33.5,22.7-50.4,4.1-8.2,7.4-14.5,12.7-24.5C1115.1,1518.6,1122.1,1506,1127.3,1497Z" transform="translate(-46.4 -49.7)" fill="url(#_10_lpi_10_)"/><path d="M470.7,1171.3l10,.3q-21.6,83.6-42.2,167.4-9.2,37.2-18.1,74.6l-247,3.8c-3.4-11.3-8.9-29.5-16-51.8-19.2-61.4-21.8-65.9-27.8-90.6-3-12.3-2.9-13.1-14.2-62-2.9-12.2-5.2-22.3-6.8-29l10.2-8.6c2.1,10,4,18.1,5.1,23.3,4.8,21,6.3,27,10,44,2.1,9.8,3.4,16.2,3.4,16.2,1.6,7.5,3.3,14.9,4.8,22.4.3,1.8,1,5.1,2.2,9.4s2.3,7,2.7,8c2.9,7.5,3.6,11.1,8.7,26.4,4.5,13.2,4.8,13,10,28.4,2.6,7.8,4.6,13.8,5.4,16.5,2.8,8.8,6.3,20.4,10.2,34.5l229.1-2.1c1.2-4.7,3-11.7,5.3-20.3,3.7-13.8,6.5-23.6,7.6-27.5,2.5-8.6,3-11.3,14-56.5,14-58.1,13.3-54.6,13.8-56.8.9-4.7,2.4-11.9,5-20.7.6-1.9,1.7-5.5,3.4-11.3s2.4-8,2.7-9.2Z" transform="translate(-46.4 -49.7)" fill="url(#_10_lpi_10_)"/><path d="M461.7,1500.1Q438.9,1560,416,1619.7l-31.8,93.7-36.9,85.3-108.4.8-38-61.8-14.1-57-31.2-62-12-56.6q-10.8-27.7-21.4-55.3l11.2-9c3.9,11.9,7.6,21.5,10.2,28.2,4.6,11.5,8.1,19.1,11.1,30.5,1.7,6.3,3.3,13,3.3,13,.4,1.6.5,2,3.2,14,2,8.8,2.2,9.7,2.8,11.8,1,3.9,1.6,5.3,2.4,8.7a70.6,70.6,0,0,1,1.6,9.1c.8,1.1,1.8,2.8,3,4.8,2.4,4.2,3.6,6.9,5.3,10.5s2,3.8,5.5,10.3c4.4,8.4,5.4,10.9,12.1,24.1,1.9,3.8,3.5,6.8,4.4,8.5s1.3,5,2.1,8.7c2.5,10.2,3.9,17,5.1,22.4s3.4,14.7,6.3,25.5c5.5,10,11.2,20.2,17,30.5s10.6,18.5,16,27.5h91.7l28.8-55.6c1.5-4.8,3.9-12.1,6.7-21.1,5.5-17.2,9.2-29.7,10.2-33.2,4-13.2,10.7-33.9,23-66.6q21.9-55.7,43.9-111.5Z" transform="translate(-46.4 -49.7)" fill="url(#_10_lpi_10_)"/><path d="M118.8,1175.4c2.1,10,4,18.1,5.1,23.3,4.8,21,6.3,27,10,44,2.1,9.8,3.4,16.2,3.4,16.2,1.6,7.5,3.3,14.9,4.8,22.4.3,1.8,1,5.1,2.2,9.4s2.3,7,2.7,8c2.9,7.5,3.6,11.1,8.7,26.4,4.5,13.2,4.8,13,10,28.4,2.6,7.8,4.6,13.8,5.4,16.5,2.8,8.8,6.3,20.4,10.2,34.5l229.1-2.1c1.2-4.7,3-11.7,5.3-20.3,3.7-13.8,6.5-23.6,7.6-27.5,2.5-8.6,3-11.3,14-56.5,14-58.1,13.3-54.6,13.8-56.8.9-4.7,2.4-11.9,5-20.7.6-1.9,1.7-5.5,3.4-11.3s2.4-8,2.7-9.2l8.5-28.8" transform="translate(-46.4 -49.7)" fill="none" stroke="#000" stroke-linecap="round" stroke-linejoin="round" stroke-width="0.85"/><path d="M762.4,1170.5c5.7,9.4,11.3,19,17,28.8s11,19.3,16.4,28.8l19,56.6q6.9,11.3,13.8,22.8c7.7,12.8,15.1,25.6,22.2,38.1.9,3.7,2.4,9.4,4.3,16.3s3.2,11,4.7,16.5,4.1,14.4,6.9,25l170.8,3.1c3.7-7.2,6.8-13.1,8.9-17,5.8-11.2,8.2-15.8,12.2-23.8s6.6-12.9,8-16.1c3.4-7.8,3.5-9.4,8.3-20.3.9-2.2,2.3-5.2,4-9.5s2.7-7.3,3.3-8.9c1.5-4.3,3.8-10.6,7.5-18.9l31.1-58.3c3.2-14.4,5.3-23.3,6.8-28.9.8-3.1,1.8-7.1,3-12.9.9-4.1,1.2-6,2-10s2.2-8.6,2.9-11.1" transform="translate(-46.4 -49.7)" fill="none" stroke="#000" stroke-linecap="round" stroke-linejoin="round" stroke-width="0.85"/><path d="M133.4,1497.8c3.9,11.9,7.6,21.5,10.2,28.2,4.6,11.5,8.1,19.1,11.1,30.5,1.7,6.3,3.3,13,3.3,13,.4,1.6.5,2,3.2,14,2,8.8,2.2,9.7,2.8,11.8,1,3.9,1.6,5.3,2.4,8.7a70.6,70.6,0,0,1,1.6,9.1c.8,1.1,1.8,2.8,3,4.8,2.4,4.2,3.6,6.9,5.3,10.5s2,3.8,5.5,10.3c4.4,8.4,5.4,10.9,12.1,24.1,1.9,3.8,3.5,6.8,4.4,8.5s1.3,5,2.1,8.7c2.5,10.2,3.9,17,5.1,22.4s3.4,14.7,6.3,25.5c5.5,10,11.2,20.2,17,30.5s10.6,18.5,16,27.5h91.7l28.8-55.6c1.5-4.8,3.9-12.1,6.7-21.1,5.5-17.2,9.2-29.7,10.2-33.2,4-13.2,10.7-33.9,23-66.6q21.9-55.7,43.9-111.5" transform="translate(-46.4 -49.7)" fill="none" stroke="#000" stroke-linecap="round" stroke-linejoin="round" stroke-width="0.85"/><path d="M640.2,1499.5c4.1,6.1,8.3,12.3,12.6,18.4q13.7,19.6,27.2,37.8c8.1,19.7,16.1,39.4,24.2,59q9.8,29.7,21.2,60.8c6.8,18.2,13.6,35.9,20.6,53,1.6,6.7,4.2,16.8,7.2,29.3s3.8,16.6,5.6,23.4c2.1,8.4,5.4,20.5,10.1,35.2,2.4,9.7,4.8,19.3,7.3,29s3.7,19.2,5.6,28.8,3.5,17.7,5.2,26.5l207.1-1q9.1-56.7,18.2-113.6l22.2-57.2,12-59.7c2-4.6,5.8-14,7.8-18.7l17.3-41.9c8.8-20.7,14.2-33.5,22.7-50.4,4.1-8.2,7.4-14.5,12.7-24.5,8.1-15.1,15.1-27.7,20.3-36.7" transform="translate(-46.4 -49.7)" fill="none" stroke="#000" stroke-linecap="round" stroke-linejoin="round" stroke-width="0.85"/><text transform="translate(565.2 568)" font-size="28.35" font-family="SimSun">1003</text></g><g id="compass"><path d="M335.9,106.1l7.2-31.5,3,176.9" transform="translate(-46.4 -49.7)" fill="none" stroke="#000" stroke-linecap="round" stroke-linejoin="round" stroke-width="0.71"/><text transform="translate(288.1 19.7) rotate(-1.2)" font-size="22.68" font-family="SimSun">N</text><text transform="translate(497.1 195.5) rotate(8.1)" font-size="22.68" font-family="SimSun">F</text><text transform="matrix(0.99, 0.13, -0.13, 0.99, 773.29, 235.13)" font-size="22.68" font-family="SimSun">F’</text><text transform="translate(872.4 737.1) rotate(-79.5)" font-size="22.68" font-family="SimSun">G</text><text transform="translate(919.4 451.9) rotate(-78.3)" font-size="22.68" font-family="SimSun">G’</text><text transform="translate(354.3 833.7) rotate(9.5)" font-size="22.68" font-family="SimSun">E</text><text transform="translate(695.6 879.4) rotate(8.1)" font-size="22.68" font-family="SimSun">E’</text><text transform="matrix(0.17, -0.99, 0.99, 0.17, 336.91, 375.81)" font-size="22.68" font-family="SimSun">H’</text><text transform="matrix(0.21, -0.98, 0.98, 0.21, 292.41, 628.58)" font-size="22.68" font-family="SimSun">H</text><text transform="translate(64.3 1115.3)" font-size="22.68" font-family="SimSun">F</text><text transform="translate(419.5 1115.3)" font-size="22.68" font-family="SimSun">F’</text><text transform="translate(76.3 1438.4)" font-size="22.68" font-family="SimSun">H</text><text transform="translate(397.6 1438.4)" font-size="22.68" font-family="SimSun">H’</text><text transform="translate(711.4 1112.7)" font-size="22.68" font-family="SimSun">G</text><text transform="translate(1083.6 1112.7)" font-size="22.68" font-family="SimSun">G’</text><text transform="translate(583.2 1437.6)" font-size="22.68" font-family="SimSun">E</text><text transform="translate(1076.4 1437.6)" font-size="22.68" font-family="SimSun">E’</text></g></svg>