<svg xmlns="http://www.w3.org/2000/svg" viewBox="0 0 214.2 291.6"><g id="scale-1:100"><path d="M184,290.2v9.9H42.3v-9.9" transform="translate(-11.2 -8.8)" fill="none" stroke="#010101" stroke-miterlimit="10" stroke-width="0.5"/><line x1="59.5" y1="281.4" x2="59.5" y2="291.4" fill="none" stroke="#010101" stroke-miterlimit="10" stroke-width="0.5"/><line x1="87.8" y1="281.4" x2="87.8" y2="291.4" fill="none" stroke="#010101" stroke-miterlimit="10" stroke-width="0.5"/><line x1="116.1" y1="281.4" x2="116.1" y2="291.4" fill="none" stroke="#010101" stroke-miterlimit="10" stroke-width="0.5"/><line x1="144.5" y1="281.4" x2="144.5" y2="291.4" fill="none" stroke="#010101" stroke-miterlimit="10" stroke-width="0.5"/><text transform="translate(27.5 276.9)" font-size="14.17" fill="#010101" font-family="AdobeMingStd-Light-B5pc-H, Adobe Ming Std">0</text><text transform="translate(169.5 276.9)" font-size="14.17" fill="#010101" font-family="AdobeMingStd-Light-B5pc-H, Adobe Ming Std">5m</text></g><g id="outline"><path d="M63.3,181.4l.6,38.8H81c.2,11.4.3,22.8.4,34.2l76-.5c0-11.5,0-22.9-.1-34.3h16.8V181H225V96.1H173.5c0-12.9-.1-25.7-.2-38.6H150.5l-.3-48.3-64.3.3-.2,47.8H62.9c0,12.9,0,25.7.1,38.6H11.5l.5,85.5Z" transform="translate(-11.2 -8.8)" fill="none" stroke="#000" stroke-linecap="round" stroke-linejoin="round" stroke-width="0.57"/><line x1="54.9" y1="76.7" x2="159.3" y2="76.7" fill="none" stroke="#000" stroke-linecap="round" stroke-linejoin="round" stroke-width="0.28"/><polygon points="55.4 77.5 52.4 76.7 55.4 75.8 55.4 77.5"/><polygon points="158.7 77.5 161.8 76.7 158.7 75.8 158.7 77.5"/><line x1="78" y1="48.4" x2="136.2" y2="48.4" fill="none" stroke="#000" stroke-linecap="round" stroke-linejoin="round" stroke-width="0.28"/><polygon points="78.5 49.2 75.5 48.4 78.5 47.5 78.5 49.2"/><polygon points="135.6 49.2 138.7 48.4 135.6 47.5 135.6 49.2"/><line x1="72.9" y1="211.4" x2="143.1" y2="211.4" fill="none" stroke="#000" stroke-linecap="round" stroke-linejoin="round" stroke-width="0.28"/><polygon points="73.5 212.2 70.4 211.4 73.5 210.6 73.5 212.2"/><polygon points="142.5 212.2 145.6 211.4 142.5 210.6 142.5 212.2"/><line x1="52.2" y1="169" x2="52.2" y2="90" fill="none" stroke="#000" stroke-linecap="round" stroke-linejoin="round" stroke-width="0.28"/><polygon points="53 168.4 52.2 171.5 51.3 168.4 53 168.4"/><polygon points="53 90.5 52.2 87.5 51.3 90.5 53 90.5"/><line x1="67.4" y1="207.3" x2="67.4" y2="51.7" fill="none" stroke="#000" stroke-linecap="round" stroke-linejoin="round" stroke-width="0.28"/><polygon points="68.2 206.7 67.4 209.8 66.6 206.7 68.2 206.7"/><polygon points="68.2 52.3 67.4 49.2 66.6 52.3 68.2 52.3"/><line x1="86.9" y1="44.9" x2="86.9" y2="4.3" fill="none" stroke="#000" stroke-linecap="round" stroke-linejoin="round" stroke-width="0.28"/><polygon points="87.8 44.4 86.9 47.4 86.1 44.4 87.8 44.4"/><polygon points="87.8 4.9 86.9 1.8 86.1 4.9 87.8 4.9"/><line x1="84.1" y1="242.6" x2="84.1" y2="214.5" fill="none" stroke="#000" stroke-linecap="round" stroke-linejoin="round" stroke-width="0.28"/><polygon points="84.9 242 84.1 245.1 83.3 242 84.9 242"/><polygon points="84.9 215 84.1 211.9 83.3 215 84.9 215"/><line x1="3.8" y1="101.2" x2="48.6" y2="101.2" fill="none" stroke="#000" stroke-linecap="round" stroke-linejoin="round" stroke-width="0.28"/><polygon points="4.3 102.1 1.3 101.2 4.3 100.4 4.3 102.1"/><polygon points="48.1 102.1 51.1 101.2 48.1 100.4 48.1 102.1"/><rect x="99.1" y="45.4" width="16" height="5.97" fill="#fff"/><text transform="translate(99.5 50.5)" font-size="5.67" font-family="AdobeMingStd-Light-B5pc-H, Adobe Ming Std">2.15M</text><rect x="99.1" y="73.7" width="16" height="5.97" fill="#fff"/><text transform="translate(99.5 78.8)" font-size="5.67" font-family="AdobeMingStd-Light-B5pc-H, Adobe Ming Std">3.90M</text><rect x="100" y="208.4" width="16" height="5.97" fill="#fff"/><text transform="translate(100.5 213.6)" font-size="5.67" font-family="AdobeMingStd-Light-B5pc-H, Adobe Ming Std">2.70M</text><rect x="18.2" y="98.3" width="16" height="5.97" fill="#fff"/><text transform="translate(18.7 103.4)" font-size="5.67" font-family="AdobeMingStd-Light-B5pc-H, Adobe Ming Std">1.75M</text><rect x="55.3" y="135.3" width="16" height="5.97" transform="translate(-86.1 192.8) rotate(-90)" fill="#fff"/><text transform="translate(54.3 137) rotate(-90)" font-size="5.67" font-family="AdobeMingStd-Light-B5pc-H, Adobe Ming Std">3.00M</text><rect x="70.6" y="135.3" width="16" height="5.97" transform="translate(-70.8 208.1) rotate(-90)" fill="#fff"/><text transform="translate(69.6 137) rotate(-90)" font-size="5.67" font-family="AdobeMingStd-Light-B5pc-H, Adobe Ming Std">5.70M</text><rect x="90.1" y="28.3" width="16" height="5.97" transform="translate(55.7 120.6) rotate(-90)" fill="#fff"/><text transform="translate(89.1 30) rotate(-90)" font-size="5.67" font-family="AdobeMingStd-Light-B5pc-H, Adobe Ming Std">1.65M</text><rect x="87.2" y="234.3" width="16" height="5.97" transform="translate(-153.2 323.8) rotate(-90)" fill="#fff"/><text transform="translate(86.2 236.1) rotate(-90)" font-size="5.67" font-family="AdobeMingStd-Light-B5pc-H, Adobe Ming Std">1.20M</text></g></svg>