<svg xmlns="http://www.w3.org/2000/svg" viewBox="0 0 1356.2 1880.8"><g id="scale-1:200"><path d="M788.1,1887.4v10H646.4v-10" transform="translate(-31.7 -17.3)" fill="none" stroke="#000" stroke-miterlimit="10" stroke-width="0.57"/><line x1="643" y1="1870.1" x2="643" y2="1880.1" fill="none" stroke="#000" stroke-miterlimit="10" stroke-width="0.57"/><line x1="671.3" y1="1870.1" x2="671.3" y2="1880.1" fill="none" stroke="#000" stroke-miterlimit="10" stroke-width="0.57"/><line x1="699.7" y1="1870.1" x2="699.7" y2="1880.1" fill="none" stroke="#000" stroke-miterlimit="10" stroke-width="0.57"/><line x1="728" y1="1870.1" x2="728" y2="1880.1" fill="none" stroke="#000" stroke-miterlimit="10" stroke-width="0.57"/><text transform="translate(609 1865.7)" font-size="19.84" font-family="SimSun">0</text><text transform="translate(747 1865.7)" font-size="19.84" font-family="SimSun">10m</text></g><g id="outline-1002"><path d="M1386.1,1207.9l-10.6-3.6q-29.4,71.4-58.6,142.7l-95-24.1-32.6,90.9-137.8-30.7c-4.4,20.2-8.9,40.5-13.3,60.8l123.3,35.9-28.8,85.7,88.5,28.7-101.3,265.6,72.2,19.8,102.1-268.5,93.3,25.3" transform="translate(-31.7 -17.3)" fill="none" stroke="#000" stroke-linecap="round" stroke-linejoin="round" stroke-width="0.85"/><text transform="translate(1218.6 1480.9)" font-size="34.02" font-family="AdobeMingStd-Light-B5pc-H, Adobe Ming Std">1002</text></g><g id="outline-1003"><path d="M532.8,598l-1.4-.3" transform="translate(-31.7 -17.3)" fill="none" stroke="#000" stroke-linecap="round" stroke-linejoin="round" stroke-width="0.85"/><path d="M528.9,597.3l-9-1.7" transform="translate(-31.7 -17.3)" fill="none" stroke="#000" stroke-linecap="round" stroke-linejoin="round" stroke-width="0.85" stroke-dasharray="2.61 2.61"/><path d="M518.6,595.3l-1.4-.2" transform="translate(-31.7 -17.3)" fill="none" stroke="#000" stroke-linecap="round" stroke-linejoin="round" stroke-width="0.85"/><path d="M516.2,594.9l-3.7-.7-4.2-.9q3.7-29.5,7.6-59.3l51.2,3.8q84.9,6.5,169.7,13.9c5.5-27.3,11.1-54.5,16.6-81.8l78.8,4.2,18.3-148.5,45.7,1.8,32,1.7q-4.5,74.7-8.9,149.4l16.9.5q35.4,1.2,70.5,2.9c-3.1,28.8-6.2,57.7-9.2,86.5l205.5,24c-2.4,22.8-4.9,45.6-7.3,68.3l-205.9.4L973,742.3l-67.8,1.5q-5.1,135.3-10.3,270.5H785.7c-.7-11.7-1.6-28.4-2-48.7s-.2-33.9,0-55.9c.5-37.8.7-56.6,1.1-76.5.5-26.2,1.1-64.1,1.4-111.6l-69.5-9.7q3.3-42.3,6.4-84.6c-28.6-4.6-51.8-8.1-67.6-10.4l-54.6-8c-35-5.1-47.7-7.2-55.8-8.7l-10.9-1.9" transform="translate(-31.7 -17.3)" fill="none" stroke="#000" stroke-linecap="round" stroke-linejoin="round" stroke-width="0.85"/><text transform="translate(800.2 607.9)" font-size="34.02" font-family="AdobeMingStd-Light-B5pc-H, Adobe Ming Std">1003</text></g><g id="outline-1004"><path d="M1385.6,713.3l-102.3-23.8c1.9-13,3.7-26.1,5.6-39.1l58.2,7.4,37.1,4.7" transform="translate(-31.7 -17.3)" fill="none" stroke="#000" stroke-linecap="round" stroke-linejoin="round" stroke-width="0.85"/><text transform="translate(1268.4 673)" font-size="34.02" font-family="AdobeMingStd-Light-B5pc-H, Adobe Ming Std">1004</text></g><g id="outline-1217"><path d="M257.9,1897.7l3.4-38.6-7-.3q-.3-64.6-.5-129.1l-64-6.2c1.1-22.6,2.3-45.2,3.4-67.9l-132.5-9.2c-.8-11.4-1.5-22.9-2.3-34.3l-25.5-1.6" transform="translate(-31.7 -17.3)" fill="none" stroke="#000" stroke-linecap="round" stroke-linejoin="round" stroke-width="0.85"/><path d="M32.2,1557.3l38.5,1.9,6.3-31.9,135.2,2.6,11.7-58.4,62.3,1.8,14.7-131.4,22.7,2.7c1.5-14.6,4.7-45.6,7.6-72.7.8-7.9,1.2-11.5,1.8-16.5,2-16,3.1-21.5,5-37.8.5-4.1,1-8.2,1.5-13.9.3-3.8.8-9.4,1.8-28,.3-4.1.6-9.8,1-16.7q13.1-40.9,26-81.9l35.3,1.5c-1.1,21.6-2.8,54-5,93.8-1.7,30.4-1.8,31.8-2.4,44.8-.8,15.7-1.5,33.4-3.9,98.6-.2,7.6-.7,22.6-1,30l25,3.4-9,132.8,71.3,9-5.4,64.2,138,10.1c-.9,11.1-1.7,22.3-2.5,33.5L852,1617.5c-1,16.1-1.9,32.2-2.9,48.3l-244.4-17.1c-2.2,12.2-4.3,24.5-6.4,36.7l-135.5-6c-2.5,20.4-5.1,40.8-7.6,61.2L390,1737q-15,64.2-30.2,128.5H346.5l-3.3,31.8" transform="translate(-31.7 -17.3)" fill="none" stroke="#000" stroke-linecap="round" stroke-linejoin="round" stroke-width="0.85"/><text transform="translate(247.5 1603.6)" font-size="34.02" font-family="AdobeMingStd-Light-B5pc-H, Adobe Ming Std">1217</text></g><g id="outline-1500"><path d="M413.7,844.8l-.4,5.7" transform="translate(-31.7 -17.3)" fill="none" stroke="#000" stroke-linecap="round" stroke-linejoin="round" stroke-width="0.85"/><path d="M412.4,861.8q-10.9,133.1-21.7,266" transform="translate(-31.7 -17.3)" fill="none" stroke="#000" stroke-linecap="round" stroke-linejoin="round" stroke-width="0.85" stroke-dasharray="11.36 11.36"/><path d="M390.2,1133.5l-.5,5.6-5.6.6" transform="translate(-31.7 -17.3)" fill="none" stroke="#000" stroke-linecap="round" stroke-linejoin="round" stroke-width="0.85"/><path d="M375,1140.7l-9,.8-4.8.4" transform="translate(-31.7 -17.3)" fill="none" stroke="#000" stroke-linecap="round" stroke-linejoin="round" stroke-width="0.85" stroke-dasharray="9.19 9.19"/><path d="M356.7,1142.3l-5.7.5" transform="translate(-31.7 -17.3)" fill="none" stroke="#000" stroke-linecap="round" stroke-linejoin="round" stroke-width="0.85"/><path d="M347.3,1143.3l-5.2.2c2.9-56.3,5.4-108,7.7-154.2,7.3-146.4,9.9-203.7,15.5-313.8,2.9-56.4,5.6-108,8.1-153.9L283,517.4l3.3-97.1c-36.9-2.6-73.7-5-110.6-7.2l-59.5-3.5-1.2-49,173-.6c4.3-30.4,8.6-60.9,13-91.3l91.9,2.8c2.2-30.1,4.3-60.3,6.4-90.4l-34.7-1.7.7-13.7,34.9.7q6-74.4,11.9-148.7c10.5.2,21.3.4,32.3.9,9.4.4,18.7.9,27.7,1.5l-7.8,145.4,42.5,1.7c-.3,2.9-.5,5.9-.8,8.9s-.5,6.9-.6,10.3c-8.4-.4-17-.7-25.6-.8l-16.1-.3-5.3,92.8,87.9,4.2-6.9,96,233.2,20.9L770.5,440l-230-6.1c-3.4,31.5-6.8,62.9-10.1,94.4l-90.5-4q-13,157.4-25.9,314.8" transform="translate(-31.7 -17.3)" fill="none" stroke="#000" stroke-linecap="round" stroke-linejoin="round" stroke-width="0.85"/><text transform="translate(348.3 400.1)" font-size="34.02" font-family="AdobeMingStd-Light-B5pc-H, Adobe Ming Std">1500</text></g><g id="outline-1567"><path d="M1314.8,878.1c-8.5,52.3-15.9,95-21.2,125.3-7.1,40.3-14.1,78.1-24.2,138.8-2.9,17-5.2,31.1-6.8,40.7-9.3-1.5-18.8-2.9-28.7-4.1l-23.1-2.7c-2.9-1.5-5.7-3.1-8.5-4.7-6.6-2.7-13.3-5.8-20.2-9.1l-9.9-5-23.7-4-18.5-11.5-2.1-13.8-23.3.9c-.9-2.2-1.7-4.4-2.6-6.7l-22.9,2.5c-3,5.9-6,11.8-8.9,17.7l3.4,4.4c-.7,1.2-1.5,2.5-2.5,3.9a39.6,39.6,0,0,1-2.8,3.7l-26-19.8-29.5-9-5,5.8-61.7-9.7c1.1-4.6,2.2-9.2,3.4-13.7l-12-2.6c2.5-8.1,4.9-16.2,7.4-24.3h9.3c2.5-17.8,4.9-35.7,7.4-53.5l-4.8-5.4a164.7,164.7,0,0,0,3.7-22.8,173.2,173.2,0,0,0,.5-25.6l15.4-3.4c.7-4.5,1.4-9.1,2.2-13.7,1.7-9.3,3.4-18.2,5.3-26.9L972,920.9c.3-1.7.5-3.4.9-5.3s1-4.2,1.6-6h13l18-93.4Z" transform="translate(-31.7 -17.3)" fill="none" stroke="#000" stroke-linecap="round" stroke-linejoin="round" stroke-width="0.85"/><text transform="translate(1056.7 997)" font-size="34.02" font-family="AdobeMingStd-Light-B5pc-H, Adobe Ming Std">1567</text></g><g id="outline-pits"><path d="M531.7,609.5a7.4,7.4,0,0,1-3.1,2.2,15.1,15.1,0,0,1-3.4.6l-4.5.4h-4.5a2.2,2.2,0,0,1-.1-1v-6.4s-.1-2.1-.1-4.2.2-5.4.4-11.3c.1-3.5.1-2.8.2-5.2s.1-2.9.2-4.4.1-3.2.4-4a7.8,7.8,0,0,1,2.4-3,11.7,11.7,0,0,1,2.5-1.6,5.1,5.1,0,0,1,1.4-.7,6.5,6.5,0,0,1,2.4-.6l1.9.4,1.6.3a6.1,6.1,0,0,1,1.5.2,2.3,2.3,0,0,1,1.5.7,5.8,5.8,0,0,1,.5,1.6,15.7,15.7,0,0,0,.3,1.6,34.1,34.1,0,0,1,.5,4.2c.2,2,.2,3.6.2,3.8.2,7,.3,7.5.3,12.6a58.2,58.2,0,0,1-.8,9.4,14.1,14.1,0,0,1-.7,2.2A8.1,8.1,0,0,1,531.7,609.5Z" transform="translate(-31.7 -17.3)" fill="none" stroke="#000" stroke-linecap="round" stroke-linejoin="round" stroke-width="0.57"/><path d="M518.6,574.2c1.3,2.2,3.2,5.6,5.3,10s2.3,5.3,4,8.9,3.1,6.6,5.7,11.3" transform="translate(-31.7 -17.3)" fill="none" stroke="#000" stroke-linecap="round" stroke-linejoin="round" stroke-width="0.57"/><path d="M502,596.4s-.5,3.6-2.9,14.6c-.4,1.8-.8,3.6-2.2,4.2s-2.2.1-4.2-.4l-3.1-1.2s-2.7-1-4.9-2.1l-1.3-.7a2.5,2.5,0,0,1-1-.8,1.3,1.3,0,0,1-.4-.6,2.6,2.6,0,0,1,.1-1.2,4.9,4.9,0,0,0,.1-1.2,16.6,16.6,0,0,0,.2-2.4c.3-3.7.4-6.6.4-6.6,0-2-.1-1.9-.1-5.7a62.5,62.5,0,0,1,.3-9.8,17.8,17.8,0,0,1,.8-3.9,9.3,9.3,0,0,1,3.7-4.7,9.9,9.9,0,0,1,4.9-1.4,15.2,15.2,0,0,1,4,.1,37.2,37.2,0,0,1,4.1,1.1l1.2.4c1.8.5,2.2.6,2.5,1a3.2,3.2,0,0,1,.2,1.3v.7c0,.3-.1.9-.1,1.3-.5,4.4-1.4,11.3-1.4,11.3C502.7,591.2,502.8,590,502,596.4Z" transform="translate(-31.7 -17.3)" fill="none" stroke="#000" stroke-linecap="round" stroke-linejoin="round" stroke-width="0.57"/><path d="M488.6,573.3c1.8,6.4,3.8,12.9,5.9,19.5s3.4,10.6,5.2,15.6" transform="translate(-31.7 -17.3)" fill="none" stroke="#000" stroke-linecap="round" stroke-linejoin="round" stroke-width="0.57"/><path d="M688,1267.3c.7.8.9,1.9,0,7.1-.4,1.8-.7,3.4-1.4,6.7s-1.1,4.5-1.4,6.5-.2,1.6-.5,3.2-.2,1.2-.3,1.8a15.1,15.1,0,0,1-.7,2.5l-.6,1.2h0a3.7,3.7,0,0,1-1.8,1.7,5.5,5.5,0,0,1-2.9.3c-2.1-.1-3.5-.1-5.1-1.1a4.2,4.2,0,0,1-2.2-1.9c-.2-.6-.2-1.2.7-4.8l1-3.4c.8-2.8.9-3,1.1-4s0-1,.2-3.2.1-1.6.2-2.4l.8-3.7a10.5,10.5,0,0,0,.5-2,10.2,10.2,0,0,1,1-2.8,6.6,6.6,0,0,1,1.4-1.7,7.9,7.9,0,0,1,2.8-1.8,5,5,0,0,1,1.7-.2,8.6,8.6,0,0,1,2.3.3A6.7,6.7,0,0,1,688,1267.3Z" transform="translate(-31.7 -17.3)" fill="none" stroke="#000" stroke-linecap="round" stroke-linejoin="round" stroke-width="0.57"/><path d="M547.9,1264.9c-.6,1.1-2.1,1.4-2.6,1.6h-2.2a14.7,14.7,0,0,1-3.3-.7,8.2,8.2,0,0,1-3.3-3c-.8-1.4-1.1-3.2-1.7-6.5s-.3-3-.7-5.1l-.8-3.9c-.4-1.9-.6-2.4-.5-3.3a5.3,5.3,0,0,1,1.2-3,7.9,7.9,0,0,1,1.8-1.2,11.8,11.8,0,0,1,2.6-1,6.3,6.3,0,0,1,2-.3,6.8,6.8,0,0,1,2.9.3c1.1.6,1.4,2.1,1.8,4.6s.9,4.3,1.2,6.4c0,0,1.2,7,1.8,11.6a13.8,13.8,0,0,1,.1,1.4A4,4,0,0,1,547.9,1264.9Z" transform="translate(-31.7 -17.3)" fill="none" stroke="#000" stroke-linecap="round" stroke-linejoin="round" stroke-width="0.57"/><path d="M677.7,1267.7l6.3,26.4" transform="translate(-31.7 -17.3)" fill="none" stroke="#000" stroke-linecap="round" stroke-linejoin="round" stroke-width="0.57"/><path d="M533.7,1249.1c1.8,1.4,3.6,2.8,5.4,4.4s6.3,5.6,9.1,8.3" transform="translate(-31.7 -17.3)" fill="none" stroke="#000" stroke-linecap="round" stroke-linejoin="round" stroke-width="0.57"/></g><g id="compass"><line x1="1218.7" y1="193.6" x2="1324.2" y2="184.5" fill="#fff" stroke="#000" stroke-linecap="round" stroke-linejoin="round" stroke-width="0.57"/><line x1="1263.9" y1="101.2" x2="1283.4" y2="328.1" fill="#fff"/><line x1="1264.5" y1="108.8" x2="1283.4" y2="328.1" fill="none" stroke="#000" stroke-linecap="round" stroke-linejoin="round" stroke-width="0.57"/><polygon points="1262.2 110.6 1263.9 101.2 1267.2 110.2 1262.2 110.6"/><circle cx="1271.4" cy="188.8" r="30.8" fill="none" stroke="#000" stroke-linecap="round" stroke-linejoin="round" stroke-width="0.57"/><text transform="translate(1252.8 96) rotate(-4.9)" font-size="28.33" font-family="AdobeSongStd-Light-GBpc-EUC-H, Adobe Song Std">N</text></g></svg>