<svg xmlns="http://www.w3.org/2000/svg" viewBox="0 0 383.2 358.3"><g id="outline"><path d="M245,193.9a47.1,47.1,0,0,1-1,8.9c-.6,2.3-1.2,4.1-1.6,5.2a28.7,28.7,0,0,1-2.1,5,30.8,30.8,0,0,1-1.6,2.8,61.1,61.1,0,0,1-3.5,5.1,44.3,44.3,0,0,1-14.7,11.4,45.7,45.7,0,0,1-8,2.8c-2.7.7-4.7,1-5.3,1.1a47.9,47.9,0,0,1-6.1.4l-4.1-.4a40.9,40.9,0,0,1-8.4-1.8,43.8,43.8,0,0,1-12.6-6.7,42.5,42.5,0,0,1-6.5-5.9,35.3,35.3,0,0,1-4-5.2,41.9,41.9,0,0,1-2.1-3.8c-.2-.4-1.3-2.7-2.2-4.9a42.8,42.8,0,0,1-2.5-13.4,36.2,36.2,0,0,1,.8-9.3,41.9,41.9,0,0,1,2.4-8,48.9,48.9,0,0,1,6.7-11.1,48.3,48.3,0,0,1,7.6-7.2,45.3,45.3,0,0,1,12.5-6.3,47,47,0,0,1,12.6-2.1,44.2,44.2,0,0,1,9.5,1,63.2,63.2,0,0,1,6.1,1.8c1.1.5,2.9,1.2,5,2.3a33.1,33.1,0,0,1,6.2,3.8,34.7,34.7,0,0,1,5,4.6,42,42,0,0,1,5.1,6.4,40.7,40.7,0,0,1,4,7.9,45.2,45.2,0,0,1,1.6,4.9A47,47,0,0,1,245,193.9Z" transform="translate(-16.1 -14)" fill="none" stroke="#000" stroke-linecap="round" stroke-linejoin="round" stroke-width="0.43"/><path d="M314.6,303.8H85c.6-12.2,1.1-24.4,1.6-36.6q3.8-94.5,7-189L313,84c.2,22,.7,82.3.8,104.4C314,214.7,314.5,277.5,314.6,303.8Z" transform="translate(-16.1 -14)" fill="none" stroke="#000" stroke-linecap="round" stroke-linejoin="round" stroke-width="0.57"/><path d="M326.7,316.8l-132,.6-121.6.8c.5-13.1,1.2-30.5,1.7-43.6Q78.7,171,82.2,67.3L208.7,70l118.5,2.3Q327.1,194.6,326.7,316.8Z" transform="translate(-16.1 -14)" fill="none" stroke="#000" stroke-linecap="round" stroke-linejoin="round" stroke-width="0.57"/><path d="M340.2,328.7,63,329.7c.7-18.9,1.4-37.7,2-56.5q3.9-107.8,7.1-215.9H342.4Q341.4,193,340.2,328.7Z" transform="translate(-16.1 -14)" fill="none" stroke="#000" stroke-linecap="round" stroke-linejoin="round" stroke-width="0.57"/><path d="M371.7,361.8c-21.2-.2-54.8-.3-96.5-.3l-45,.2c-34.6.1-93.7.2-200.4.1.9-19.6,2.2-52.2,3.7-92.8.9-23.7,2-56.3,4.8-142.8C39.3,96.6,40.4,61,41.6,25l143.5,1.2,187.6,1.1Z" transform="translate(-16.1 -14)" fill="none" stroke="#000" stroke-linecap="round" stroke-linejoin="round" stroke-width="0.57"/><path d="M41.6,25C51.8,35.8,62,46.5,72.1,57.3" transform="translate(-16.1 -14)" fill="none" stroke="#000" stroke-linecap="round" stroke-linejoin="round" stroke-width="0.57"/><path d="M342.4,57.4l30.3-30.1" transform="translate(-16.1 -14)" fill="none" stroke="#000" stroke-linecap="round" stroke-linejoin="round" stroke-width="0.57"/><path d="M340.2,328.7l31.5,33.1" transform="translate(-16.1 -14)" fill="none" stroke="#000" stroke-linecap="round" stroke-linejoin="round" stroke-width="0.57"/><path d="M29.8,361.8,63,329.7" transform="translate(-16.1 -14)" fill="none" stroke="#000" stroke-linecap="round" stroke-linejoin="round" stroke-width="0.57"/><path d="M372.7,27.3h1.5" transform="translate(-16.1 -14)" fill="none" stroke="#000" stroke-linecap="round" stroke-linejoin="round" stroke-width="0.28"/><path d="M375.8,27.3h8.8" transform="translate(-16.1 -14)" fill="none" stroke="#000" stroke-linecap="round" stroke-linejoin="round" stroke-width="0.28" stroke-dasharray="3.23 1.61"/><path d="M385.4,27.2h1.5" transform="translate(-16.1 -14)" fill="none" stroke="#000" stroke-linecap="round" stroke-linejoin="round" stroke-width="0.28"/><path d="M372.8,16.5v1.4" transform="translate(-16.1 -14)" fill="none" stroke="#000" stroke-linecap="round" stroke-linejoin="round" stroke-width="0.28"/><path d="M372.8,19v6.3" transform="translate(-16.1 -14)" fill="none" stroke="#000" stroke-linecap="round" stroke-linejoin="round" stroke-width="0.28" stroke-dasharray="2.28 1.14"/><path d="M372.7,25.9v1.4" transform="translate(-16.1 -14)" fill="none" stroke="#000" stroke-linecap="round" stroke-linejoin="round" stroke-width="0.28"/><text transform="translate(358.1 11.3)" font-size="8.5" font-family="SimSun">90째</text><path d="M372.6,361.9" transform="translate(-16.1 -14)" fill="none" stroke="#000" stroke-miterlimit="10"/><path d="M383.2,361.9" transform="translate(-16.1 -14)" fill="none" stroke="#000" stroke-miterlimit="10"/><path d="M371.7,361.7v1.5" transform="translate(-16.1 -14)" fill="none" stroke="#000" stroke-linecap="round" stroke-linejoin="round" stroke-width="0.28"/><path d="M371.8,364.9v4.4" transform="translate(-16.1 -14)" fill="none" stroke="#000" stroke-linecap="round" stroke-linejoin="round" stroke-width="0.28" stroke-dasharray="3.53 1.77"/><path d="M371.8,370.2v1.4" transform="translate(-16.1 -14)" fill="none" stroke="#000" stroke-linecap="round" stroke-linejoin="round" stroke-width="0.28"/><path d="M371.7,361.8h1.4" transform="translate(-16.1 -14)" fill="none" stroke="#000" stroke-linecap="round" stroke-linejoin="round" stroke-width="0.28"/><path d="M374.3,361.8h6.9" transform="translate(-16.1 -14)" fill="none" stroke="#000" stroke-linecap="round" stroke-linejoin="round" stroke-width="0.28" stroke-dasharray="2.48 1.24"/><path d="M381.8,361.9h1.4" transform="translate(-16.1 -14)" fill="none" stroke="#000" stroke-linecap="round" stroke-linejoin="round" stroke-width="0.28"/><text transform="translate(357.7 356.3)" font-size="8.5" font-family="SimSun">90.5째</text><text transform="translate(0.6 356.7)" font-size="8.5" font-family="SimSun">89째</text><text transform="translate(4 7.3)" font-size="8.5" font-family="SimSun">91.5째</text><path d="M41.8,14.4v1.4" transform="translate(-16.1 -14)" fill="none" stroke="#000" stroke-linecap="round" stroke-linejoin="round" stroke-width="0.28"/><path d="M41.8,16.9c-.1,2-.1,4.1-.2,6.1" transform="translate(-16.1 -14)" fill="none" stroke="#000" stroke-linecap="round" stroke-linejoin="round" stroke-width="0.28" stroke-dasharray="2.23 1.11"/><path d="M41.6,23.6V25" transform="translate(-16.1 -14)" fill="none" stroke="#000" stroke-linecap="round" stroke-linejoin="round" stroke-width="0.28"/><path d="M30.5,24.8h1.4" transform="translate(-16.1 -14)" fill="none" stroke="#000" stroke-linecap="round" stroke-linejoin="round" stroke-width="0.28"/><path d="M33.1,24.8h6.5" transform="translate(-16.1 -14)" fill="none" stroke="#000" stroke-linecap="round" stroke-linejoin="round" stroke-width="0.28" stroke-dasharray="2.35 1.17"/><path d="M40.2,25h1.4" transform="translate(-16.1 -14)" fill="none" stroke="#000" stroke-linecap="round" stroke-linejoin="round" stroke-width="0.28"/><path d="M16.3,361.9h1.4" transform="translate(-16.1 -14)" fill="none" stroke="#000" stroke-linecap="round" stroke-linejoin="round" stroke-width="0.28"/><path d="M19.2,361.9h8.4" transform="translate(-16.1 -14)" fill="none" stroke="#000" stroke-linecap="round" stroke-linejoin="round" stroke-width="0.28" stroke-dasharray="3.06 1.53"/><path d="M28.4,361.8h1.4" transform="translate(-16.1 -14)" fill="none" stroke="#000" stroke-linecap="round" stroke-linejoin="round" stroke-width="0.28"/><path d="M29.8,361.8v1.5" transform="translate(-16.1 -14)" fill="none" stroke="#000" stroke-linecap="round" stroke-linejoin="round" stroke-width="0.28"/><path d="M29.7,365.1c-.1,1.6-.1,3.1-.2,4.7" transform="translate(-16.1 -14)" fill="none" stroke="#000" stroke-linecap="round" stroke-linejoin="round" stroke-width="0.28" stroke-dasharray="3.75 1.87"/><path d="M29.5,370.7v1.5" transform="translate(-16.1 -14)" fill="none" stroke="#000" stroke-linecap="round" stroke-linejoin="round" stroke-width="0.28"/></g><g id="texts"><rect x="175.5" y="341" width="30.3" height="13.35" fill="#fff"/><text transform="translate(176.4 351.7)" font-size="11.34" font-family="SimSun">367mm</text><rect x="175.5" y="308.4" width="30.3" height="13.35" fill="#fff"/><text transform="translate(176.4 319.2)" font-size="11.34" font-family="SimSun">297mm</text><rect x="175.5" y="36.7" width="30.3" height="13.35" fill="#fff"/><text transform="translate(176.4 47.4)" font-size="11.34" font-family="SimSun">290mm</text><rect x="175.5" y="5.7" width="30.3" height="13.35" fill="#fff"/><text transform="translate(176.4 16.5)" font-size="11.34" font-family="SimSun">356mm</text><rect x="21.2" y="187.2" width="30.3" height="13.35" transform="translate(-173.7 216.2) rotate(-90)" fill="#fff"/><text transform="translate(24.2 194) rotate(-90)" font-size="11.34" font-family="SimSun">362mm</text><rect x="53.2" y="187.2" width="30.3" height="13.35" transform="translate(-141.7 248.1) rotate(-90)" fill="#fff"/><text transform="translate(56.2 194) rotate(-90)" font-size="11.34" font-family="SimSun">292mm</text><rect x="326.4" y="187.2" width="30.3" height="13.35" transform="translate(131.5 521.4) rotate(-90)" fill="#fff"/><text transform="translate(329.5 194) rotate(-90)" font-size="11.34" font-family="SimSun">292mm</text><rect x="357.2" y="187.2" width="30.3" height="13.35" transform="translate(162.3 552.1) rotate(-90)" fill="#fff"/><text transform="translate(360.2 194) rotate(-90)" font-size="11.34" font-family="SimSun">361mm</text><path d="M372.8,16.5" transform="translate(-16.1 -14)"/></g></svg>