<svg xmlns="http://www.w3.org/2000/svg" viewBox="0 0 1581.7 2096.9"><g id="scale-1:100"><path d="M1166.4,1959.8v9.9H1024.6v-10" transform="translate(-11.8 -113.4)" fill="none" stroke="#010101" stroke-miterlimit="10" stroke-width="0.71"/><line x1="1041.2" y1="1846.3" x2="1041.2" y2="1856.3" fill="none" stroke="#010101" stroke-miterlimit="10" stroke-width="0.71"/><line x1="1069.6" y1="1846.4" x2="1069.6" y2="1856.3" fill="none" stroke="#010101" stroke-miterlimit="10" stroke-width="0.71"/><line x1="1097.9" y1="1846.3" x2="1097.9" y2="1856.3" fill="none" stroke="#010101" stroke-miterlimit="10" stroke-width="0.71"/><line x1="1126.2" y1="1846.3" x2="1126.2" y2="1856.3" fill="none" stroke="#010101" stroke-miterlimit="10" stroke-width="0.71"/><text transform="translate(1009.2 1841.9)" font-size="14.17" fill="#010101" font-family="AdobeMingStd-Light-B5pc-H, Adobe Ming Std">0</text><text transform="translate(1151.2 1841.9)" font-size="14.17" fill="#010101" font-family="AdobeMingStd-Light-B5pc-H, Adobe Ming Std">5m</text></g><g id="outline"><path d="M852,824.9a48.8,48.8,0,0,0-2.1,8.9,27,27,0,0,0-.4,2.9c-.4,3.2-.4,3.6-.6,4.7a16,16,0,0,1-.8,3.8,14.2,14.2,0,0,0-1,2.9c-.1,0-.2.5-.4,1a1.8,1.8,0,0,1-.8,1.2c-.3.1-.6,0-1.3-.2l-1.7-.4-4.8-1.6c-2.1-.7-2.3-.6-6.6-1.8a13.3,13.3,0,0,1-2.5-.8c-1.1-.3-1.5-.3-1.7-.7s0-1.1.5-2.4.4-1.5,1.1-3.7a14,14,0,0,0,.8-3.6,11.4,11.4,0,0,0,.1-1.9v-2.9a22.1,22.1,0,0,1,.8-3.4l1.1-3.9c.6-2.2.6-2.5,1.1-4.6l1-3.1a5.8,5.8,0,0,1,.5-1.3c.3-1,.4-1.2.6-1.4s.5-.1,1.6,0a15.8,15.8,0,0,1,2.3,0h1.6l2.2.2,4.2.7a41.6,41.6,0,0,1,5.8,1.4,1.8,1.8,0,0,1,.8.4,1.9,1.9,0,0,1,1,.8,2.5,2.5,0,0,1-.1,1.7l-.9,2.8C853.2,821.2,852.8,822.4,852,824.9Z" transform="translate(-11.8 -113.4)" fill="none" stroke="#010101" stroke-miterlimit="10" stroke-width="0.71"/><path d="M642.6,960.2l99.6,38.4-9.9,78.6,86.3,14.4c3-11.9,6-24,9-36.1l7.2-29.8,107.9,10.6c3.9-18.7,7.1-34.1,9.3-44.9,5.8-28.7,6.7-33.2,11.4-56.1,3.8-18.6,4.2-20.6,5.6-27.7s1.8-10.1,3.2-16.5c2-9.3,3.9-16,4.5-18.5,4.6-17.3,8.9-37,25.8-106.3,2.5-10.5,6.5-26.8,11.6-47l-5.5-1.3c-8.4-2-14.8-3.2-16.5-3.5-7.7-1.4-36.3-7.2-81.8-16.5-22.8-7.2-45.7-14.7-68.9-22.5L807.5,664l-71.9-11.2L706,648.3c-7,22.8-20.7,68.5-26.3,105.5l-8.1,53.6c-1.2,7.7-2.3,15.4-3.5,23.2-.5,2.1-1.1,5.4-1.9,9.3-5.6,26.8-9.4,47-11.4,57.1Z" transform="translate(-11.8 -113.4)" fill="none" stroke="#010101" stroke-linecap="round" stroke-linejoin="round" stroke-width="0.71"/><path d="M707.4,1186.4l100.2,18.1c4.3-23.1,8.5-46.1,12.6-69.2q9.3-51.7,18.4-103.7l108.5,12.9q16-74.7,32-149.4l9.3-25.3c7-19.5,10.6-29.4,13.5-38.5,1.8-5.8,1-3.7,10.1-36.8,6.8-25,11.9-43.6,15.8-56.5.4-1.2,1.6-4.9,3-10,2.1-7.3,3.6-13.3,4.6-17.2L910.6,688.2c-16.8-5.4-30.4-9.6-39.7-12.5-12.9-4.1-21.6-6.7-35-11.1l-24.1-7.9L703.6,628.3q-18,66.9-35.9,133.6c-1.9,15.7-3.6,28.1-4.8,36.6-.9,6.6-2.1,14.5-3.4,25.8-.9,7.3-1.5,13.3-1.9,17.2Q646.4,904.2,634.9,967l50.7,20.3,49.7,19.8c-.1,1.3-.3,3.2-.6,5.6-1,9-2.3,15.6-2.8,18.4-1.5,8.3-2.6,16.6-3.9,25C724.5,1077.8,708,1182.6,707.4,1186.4Z" transform="translate(-11.8 -113.4)" fill="none" stroke="#010101" stroke-linecap="round" stroke-linejoin="round" stroke-width="0.71"/><path d="M698,1226.8q15.3-105.5,30.8-211-41.1-18.3-82.7-37.4l-16.9-7.8,3.9-19.6c6.2-31.4,12.7-62.5,19.3-93.3l.9-89,49.5-150c20.1,5.8,36.5,10.4,47.9,13.5,18.9,5.2,28.2,7.6,47.4,13.2,11.6,3.3,21.7,6.3,32.3,9.6l21.6,6.7c12.3,4,30.4,9.6,54.9,16.7l148.6,22.3c-9.5,33.4-15.5,54.3-19.3,67.4-5.8,20-6.5,22.3-8.9,31.1s-3.6,14-6.4,23c-1.6,5-2.5,7.6-6.5,19,0,0-3.5,10.3-9.8,28.4-2.6,7.5-6.3,18.4-10.8,31.9q-18.7,73.2-37.6,146.4l-117.6-16.3L802,1292.9" transform="translate(-11.8 -113.4)" fill="none" stroke="#010101" stroke-linecap="round" stroke-linejoin="round" stroke-width="0.71"/><path d="M649.5,1488.2l114.6,17.2q44.3-218.4,88.4-436.9l112.1,18.8,53.6-163.7,42.4,2.6q47.9,3,95.7,5.7c6.6-23.6,13.3-47.2,19.9-70.7l-117.6-33.6,13.9-148.8L935.1,658.7l28.8-175.3-45.5-10.5-59.9-13.5L818.6,602.3,732.4,599l-45.1-1.5L635.2,737.9,445.1,716.7l-12.6,47.2,193.7,67.7q-11.9,76.9-23.6,153.8l101.9,42q-16.8,138.4-33.3,277Q660.3,1396.2,649.5,1488.2Z" transform="translate(-11.8 -113.4)" fill="none" stroke="#010101" stroke-linecap="round" stroke-linejoin="round" stroke-width="0.71"/><path d="M741.4,1818.7q66.1-357.5,132.2-714.8l19.8,3.6c34.9,6.4,69.5,13.1,103.5,20.2l54.6-170.8,312.3,48.2q24.5-59.4,49-118.7L1096.6,796l26.2-150.4L968.7,616.4l40.7-296.7L875.5,285.9q-32.4,140.9-64.6,281.7l-87.8-11.7-67.4-9L610.1,710.8,237,634.6,205.8,739,585.6,844.9q-13.1,82.6-25.9,165.3l63.7,25.1,50.5,19.9q-36.4,257.7-72.2,515.5-15,108.6-29.8,217.2Z" transform="translate(-11.8 -113.4)" fill="none" stroke="#010101" stroke-linecap="round" stroke-linejoin="round" stroke-width="0.71"/><path d="M876.9,250.5l158.4,34.2Q1007.1,437.1,979,589.5l174.6,47q-17.7,79.3-35.5,158.9l383.2,107q-14.1,66-28.3,132L1072.2,976q-28.2,84.4-56.5,168.9l-129.6-14.1c-6.2,37.4-15.5,93.1-26.5,160.7-27.7,169.9-46.5,291.7-60,377.8-17.1,110.1-42,267.8-74,465.8l-203-31.5c8.4-64.9,21.1-164.2,36.3-286.1,21.3-171.5,21.2-177,39.4-321.3,13.5-106.7,21-162.6,39.3-309.6,6.4-50.9,11.5-92.7,14.9-120.4l-122-41.1q17.3-87.7,34.7-175.6-152.4-42.9-305-85-61.6-17.1-123.4-33.9,14.3-66.3,28.6-132.5l436.2,99.5q22-84.3,44.2-168.6l161,27.9Q841.9,403.8,876.9,250.5Z" transform="translate(-11.8 -113.4)" fill="none" stroke="#010101" stroke-miterlimit="10" stroke-width="1.13"/><path d="M795,1714.6l1.2-7" transform="translate(-11.8 -113.4)" fill="none" stroke="#010101" stroke-linecap="round" stroke-linejoin="round" stroke-width="0.85"/><path d="M797.2,1702.2l1.5-8.3" transform="translate(-11.8 -113.4)" fill="none" stroke="#010101" stroke-linecap="round" stroke-linejoin="round" stroke-width="0.85" stroke-dasharray="5.57 5.57"/><path d="M799.2,1691.2l97.5-540.3" transform="translate(-11.8 -113.4)" fill="none" stroke="#010101" stroke-linecap="round" stroke-linejoin="round" stroke-width="0.85" stroke-dasharray="13.93 5.57 5.57 5.57"/><path d="M897.2,1148.2l1.2-7,7,1.3" transform="translate(-11.8 -113.4)" fill="none" stroke="#010101" stroke-linecap="round" stroke-linejoin="round" stroke-width="0.85"/><path d="M911.4,1143.7l9,1.8" transform="translate(-11.8 -113.4)" fill="none" stroke="#010101" stroke-linecap="round" stroke-linejoin="round" stroke-width="0.85" stroke-dasharray="6.11 6.11"/><path d="M923.4,1146.1l129,25.2" transform="translate(-11.8 -113.4)" fill="none" stroke="#010101" stroke-linecap="round" stroke-linejoin="round" stroke-width="0.85" stroke-dasharray="15.28 6.11 6.11 6.11"/><path d="M1055.4,1171.9l6.9,1.3,1.5-6.9" transform="translate(-11.8 -113.4)" fill="none" stroke="#010101" stroke-linecap="round" stroke-linejoin="round" stroke-width="0.85"/><path d="M1064.9,1161l1.7-8" transform="translate(-11.8 -113.4)" fill="none" stroke="#010101" stroke-linecap="round" stroke-linejoin="round" stroke-width="0.85" stroke-dasharray="5.42 5.42"/><path d="M1067.2,1150.4l30.6-143.1" transform="translate(-11.8 -113.4)" fill="none" stroke="#010101" stroke-linecap="round" stroke-linejoin="round" stroke-width="0.85" stroke-dasharray="13.55 5.42 5.42 5.42"/><path d="M1098.3,1004.6l1.5-6.9,7,1.2" transform="translate(-11.8 -113.4)" fill="none" stroke="#010101" stroke-linecap="round" stroke-linejoin="round" stroke-width="0.85"/><path d="M1112.4,999.9l8.5,1.6" transform="translate(-11.8 -113.4)" fill="none" stroke="#010101" stroke-linecap="round" stroke-linejoin="round" stroke-width="0.85" stroke-dasharray="5.76 5.76"/><path d="M1123.8,1002l402.3,72.1" transform="translate(-11.8 -113.4)" fill="none" stroke="#010101" stroke-linecap="round" stroke-linejoin="round" stroke-width="0.85" stroke-dasharray="14.39 5.76 5.76 5.76"/><path d="M1529,1074.7l7,1.2,2.1-6.7" transform="translate(-11.8 -113.4)" fill="none" stroke="#010101" stroke-linecap="round" stroke-linejoin="round" stroke-width="0.85"/><path d="M1539.9,1063.8l2.6-8" transform="translate(-11.8 -113.4)" fill="none" stroke="#010101" stroke-linecap="round" stroke-linejoin="round" stroke-width="0.85" stroke-dasharray="5.62 5.62"/><path d="M1543.3,1053.1q23.4-72,46.7-144.2" transform="translate(-11.8 -113.4)" fill="none" stroke="#010101" stroke-linecap="round" stroke-linejoin="round" stroke-width="0.85" stroke-dasharray="14.04 5.62 5.62 5.62"/><path d="M1590.8,906.2l2.2-6.7-6.8-1.9" transform="translate(-11.8 -113.4)" fill="none" stroke="#010101" stroke-linecap="round" stroke-linejoin="round" stroke-width="0.85"/><path d="M1580.5,896.1l-8.4-2.2" transform="translate(-11.8 -113.4)" fill="none" stroke="#010101" stroke-linecap="round" stroke-linejoin="round" stroke-width="0.85" stroke-dasharray="5.83 5.83"/><path d="M1569.3,893.1l-306.7-81.9" transform="translate(-11.8 -113.4)" fill="none" stroke="#010101" stroke-linecap="round" stroke-linejoin="round" stroke-width="0.85" stroke-dasharray="14.56 5.83 5.83 5.83"/><path d="M1259.7,810.4l-6.8-1.8.9-7.1" transform="translate(-11.8 -113.4)" fill="none" stroke="#010101" stroke-linecap="round" stroke-linejoin="round" stroke-width="0.85"/><path d="M1254.8,793.6l1.5-11.8" transform="translate(-11.8 -113.4)" fill="none" stroke="#010101" stroke-linecap="round" stroke-linejoin="round" stroke-width="0.85" stroke-dasharray="7.97 7.97"/><path d="M1256.8,777.8c.3-2.3.6-4.7.8-7l-6.9-1.6" transform="translate(-11.8 -113.4)" fill="none" stroke="#010101" stroke-linecap="round" stroke-linejoin="round" stroke-width="0.85"/><path d="M1246,768.2l-7.2-1.7" transform="translate(-11.8 -113.4)" fill="none" stroke="#010101" stroke-linecap="round" stroke-linejoin="round" stroke-width="0.85" stroke-dasharray="4.88 4.88"/><path d="M1236.4,766l-76.1-17.2" transform="translate(-11.8 -113.4)" fill="none" stroke="#010101" stroke-linecap="round" stroke-linejoin="round" stroke-width="0.85" stroke-dasharray="12.2 4.88 4.88 4.88"/><path d="M1157.9,748.3l-6.9-1.6,1.4-6.9" transform="translate(-11.8 -113.4)" fill="none" stroke="#010101" stroke-linecap="round" stroke-linejoin="round" stroke-width="0.85"/><path d="M1153.8,733.5c.6-3.1,1.3-6.3,1.9-9.4" transform="translate(-11.8 -113.4)" fill="none" stroke="#010101" stroke-linecap="round" stroke-linejoin="round" stroke-width="0.85" stroke-dasharray="6.41 6.41"/><path d="M1156.4,720.9q10.6-50.1,21.2-100.3" transform="translate(-11.8 -113.4)" fill="none" stroke="#010101" stroke-linecap="round" stroke-linejoin="round" stroke-width="0.85" stroke-dasharray="16.03 6.41 6.41 6.41"/><path d="M1178.2,617.4l1.5-6.9-6.9-1.4" transform="translate(-11.8 -113.4)" fill="none" stroke="#010101" stroke-linecap="round" stroke-linejoin="round" stroke-width="0.85"/><path d="M1167.4,608l-8-1.6" transform="translate(-11.8 -113.4)" fill="none" stroke="#010101" stroke-linecap="round" stroke-linejoin="round" stroke-width="0.85" stroke-dasharray="5.47 5.47"/><path d="M1156.7,605.8,1012,576.5" transform="translate(-11.8 -113.4)" fill="none" stroke="#010101" stroke-linecap="round" stroke-linejoin="round" stroke-width="0.85" stroke-dasharray="13.67 5.47 5.47 5.47"/><path d="M1009.3,576l-6.9-1.4c.4-2.3.8-4.7,1.3-7" transform="translate(-11.8 -113.4)" fill="none" stroke="#010101" stroke-linecap="round" stroke-linejoin="round" stroke-width="0.85"/><path d="M1004.7,562c.5-2.8,1.1-5.6,1.6-8.4" transform="translate(-11.8 -113.4)" fill="none" stroke="#010101" stroke-linecap="round" stroke-linejoin="round" stroke-width="0.85" stroke-dasharray="5.69 5.69"/><path d="M1006.8,550.8q26-138.7,51.3-277.5L1080,153.2" transform="translate(-11.8 -113.4)" fill="none" stroke="#010101" stroke-linecap="round" stroke-linejoin="round" stroke-width="0.85" stroke-dasharray="14.23 5.69 5.69 5.69"/><path d="M1080.5,150.4c.5-2.3.9-4.6,1.3-6.9l-7-1" transform="translate(-11.8 -113.4)" fill="none" stroke="#010101" stroke-linecap="round" stroke-linejoin="round" stroke-width="0.85"/><path d="M1069,141.8l-8.7-1.2" transform="translate(-11.8 -113.4)" fill="none" stroke="#010101" stroke-linecap="round" stroke-linejoin="round" stroke-width="0.85" stroke-dasharray="5.85 5.85"/><path d="M1057.4,140.2l-188.5-25" transform="translate(-11.8 -113.4)" fill="none" stroke="#010101" stroke-linecap="round" stroke-linejoin="round" stroke-width="0.85" stroke-dasharray="14.63 5.85 5.85 5.85"/><path d="M866,114.8l-7.1-.9c-.3,2.3-.7,4.6-1.1,7" transform="translate(-11.8 -113.4)" fill="none" stroke="#010101" stroke-linecap="round" stroke-linejoin="round" stroke-width="0.85"/><path d="M856.9,126.3l-1.4,8.2" transform="translate(-11.8 -113.4)" fill="none" stroke="#010101" stroke-linecap="round" stroke-linejoin="round" stroke-width="0.85" stroke-dasharray="5.54 5.54"/><path d="M855.1,137.2q-32,194-64,387.8" transform="translate(-11.8 -113.4)" fill="none" stroke="#010101" stroke-linecap="round" stroke-linejoin="round" stroke-width="0.85" stroke-dasharray="13.84 5.54 5.54 5.54"/><path d="M790.7,527.7l-1.2,7-6.9-1.5" transform="translate(-11.8 -113.4)" fill="none" stroke="#010101" stroke-linecap="round" stroke-linejoin="round" stroke-width="0.85"/><path d="M776.8,531.9,768,530" transform="translate(-11.8 -113.4)" fill="none" stroke="#010101" stroke-linecap="round" stroke-linejoin="round" stroke-width="0.85" stroke-dasharray="5.99 5.99"/><path d="M765.1,529.3l-190-41.9" transform="translate(-11.8 -113.4)" fill="none" stroke="#010101" stroke-linecap="round" stroke-linejoin="round" stroke-width="0.85" stroke-dasharray="14.96 5.99 5.99 5.99"/><path d="M572.2,486.8l-6.9-1.5c-.5,2.3-.9,4.6-1.3,6.9" transform="translate(-11.8 -113.4)" fill="none" stroke="#010101" stroke-linecap="round" stroke-linejoin="round" stroke-width="0.85"/><path d="M562.9,497.7l-1.5,8.1" transform="translate(-11.8 -113.4)" fill="none" stroke="#010101" stroke-linecap="round" stroke-linejoin="round" stroke-width="0.85" stroke-dasharray="5.52 5.52"/><path d="M560.9,508.5c-.4,2.3-.9,4.6-1.3,7l6.7,2.2" transform="translate(-11.8 -113.4)" fill="none" stroke="#010101" stroke-linecap="round" stroke-linejoin="round" stroke-width="0.85"/><path d="M570.9,519.1l6.8,2.2" transform="translate(-11.8 -113.4)" fill="none" stroke="#010101" stroke-linecap="round" stroke-linejoin="round" stroke-width="0.85" stroke-dasharray="4.77 4.77"/><path d="M580,522.1l22.7,7.3" transform="translate(-11.8 -113.4)" fill="none" stroke="#010101" stroke-linecap="round" stroke-linejoin="round" stroke-width="0.85" stroke-dasharray="11.94 4.77 4.77 4.77"/><path d="M604.9,530.2l6.8,2.1c-.5,2.4-1,4.7-1.6,7" transform="translate(-11.8 -113.4)" fill="none" stroke="#010101" stroke-linecap="round" stroke-linejoin="round" stroke-width="0.85"/><path d="M608.8,545c-.6,2.9-1.3,5.8-1.9,8.7" transform="translate(-11.8 -113.4)" fill="none" stroke="#010101" stroke-linecap="round" stroke-linejoin="round" stroke-width="0.85" stroke-dasharray="5.91 5.91"/><path d="M606.3,556.6c-2.8,12-5.5,24-8.2,36q-6.3,28-12.8,56.2" transform="translate(-11.8 -113.4)" fill="none" stroke="#010101" stroke-linecap="round" stroke-linejoin="round" stroke-width="0.85" stroke-dasharray="14.77 5.91 5.91 5.91"/><path d="M584.6,651.6c-.5,2.3-1,4.6-1.6,6.9l-6.9-1.3" transform="translate(-11.8 -113.4)" fill="none" stroke="#010101" stroke-linecap="round" stroke-linejoin="round" stroke-width="0.85"/><path d="M570.5,656.1l-8.3-1.6" transform="translate(-11.8 -113.4)" fill="none" stroke="#010101" stroke-linecap="round" stroke-linejoin="round" stroke-width="0.85" stroke-dasharray="5.67 5.67"/><path d="M559.4,654q-191.7-36.9-383.5-72.9l-104-19.4" transform="translate(-11.8 -113.4)" fill="none" stroke="#010101" stroke-linecap="round" stroke-linejoin="round" stroke-width="0.85" stroke-dasharray="14.18 5.67 5.67 5.67"/><path d="M69.1,561.1l-7-1.3c-.6,2.3-1.1,4.6-1.7,6.9" transform="translate(-11.8 -113.4)" fill="none" stroke="#010101" stroke-linecap="round" stroke-linejoin="round" stroke-width="0.85"/><path d="M58.8,572.7c-.7,2.9-1.5,5.9-2.2,8.9" transform="translate(-11.8 -113.4)" fill="none" stroke="#010101" stroke-linecap="round" stroke-linejoin="round" stroke-width="0.85" stroke-dasharray="6.14 6.14"/><path d="M55.8,584.5,14.7,745.1" transform="translate(-11.8 -113.4)" fill="none" stroke="#010101" stroke-linecap="round" stroke-linejoin="round" stroke-width="0.85" stroke-dasharray="15.35 6.14 6.14 6.14"/><path d="M13.9,748.1c-.5,2.3-1.1,4.6-1.7,6.9l6.9,1.4" transform="translate(-11.8 -113.4)" fill="none" stroke="#010101" stroke-linecap="round" stroke-linejoin="round" stroke-width="0.85"/><path d="M24.7,757.5l8.5,1.7" transform="translate(-11.8 -113.4)" fill="none" stroke="#010101" stroke-linecap="round" stroke-linejoin="round" stroke-width="0.85" stroke-dasharray="5.72 5.72"/><path d="M36,759.7l490.6,97.9" transform="translate(-11.8 -113.4)" fill="none" stroke="#010101" stroke-linecap="round" stroke-linejoin="round" stroke-width="0.85" stroke-dasharray="14.3 5.72 5.72 5.72"/><path d="M529.4,858.1l7,1.4-1.5,6.9" transform="translate(-11.8 -113.4)" fill="none" stroke="#010101" stroke-linecap="round" stroke-linejoin="round" stroke-width="0.85"/><path d="M533.6,872.3c-.7,3-1.3,5.9-2,8.9" transform="translate(-11.8 -113.4)" fill="none" stroke="#010101" stroke-linecap="round" stroke-linejoin="round" stroke-width="0.85" stroke-dasharray="6.05 6.05"/><path d="M531,884.2c-2.6,11.6-5.1,23.2-7.6,34.8q-16.9,78.6-33.4,157.4" transform="translate(-11.8 -113.4)" fill="none" stroke="#010101" stroke-linecap="round" stroke-linejoin="round" stroke-width="0.85" stroke-dasharray="15.12 6.05 6.05 6.05"/><path d="M489.4,1079.3c-.4,2.3-.9,4.6-1.4,7l6.9,1.4" transform="translate(-11.8 -113.4)" fill="none" stroke="#010101" stroke-linecap="round" stroke-linejoin="round" stroke-width="0.85"/><path d="M499.8,1088.7l7.3,1.5" transform="translate(-11.8 -113.4)" fill="none" stroke="#010101" stroke-linecap="round" stroke-linejoin="round" stroke-width="0.85" stroke-dasharray="4.95 4.95"/><path d="M509.5,1090.7l24.2,4.9" transform="translate(-11.8 -113.4)" fill="none" stroke="#010101" stroke-linecap="round" stroke-linejoin="round" stroke-width="0.85" stroke-dasharray="12.37 4.95 4.95 4.95"/><path d="M536.1,1096.1l7,1.5c.5-2.3.9-4.7,1.4-7" transform="translate(-11.8 -113.4)" fill="none" stroke="#010101" stroke-linecap="round" stroke-linejoin="round" stroke-width="0.85"/><path d="M545.2,1087.4c.3-1.7.6-3.3,1-4.9" transform="translate(-11.8 -113.4)" fill="none" stroke="#010101" stroke-linecap="round" stroke-linejoin="round" stroke-width="0.85" stroke-dasharray="3.32 3.32"/><path d="M546.5,1080.9c.5-2.3,1-4.7,1.4-7l7,1.5" transform="translate(-11.8 -113.4)" fill="none" stroke="#010101" stroke-linecap="round" stroke-linejoin="round" stroke-width="0.85"/><path d="M560.3,1076.7l8.3,1.8" transform="translate(-11.8 -113.4)" fill="none" stroke="#010101" stroke-linecap="round" stroke-linejoin="round" stroke-width="0.85" stroke-dasharray="5.63 5.63"/><path d="M571.3,1079.1l23,5.2,34.6,8.1" transform="translate(-11.8 -113.4)" fill="none" stroke="#010101" stroke-linecap="round" stroke-linejoin="round" stroke-width="0.85" stroke-dasharray="14.07 5.63 5.63 5.63"/><path d="M631.6,1093l6.9,1.7c-.3,2.3-.7,4.7-1.1,7" transform="translate(-11.8 -113.4)" fill="none" stroke="#010101" stroke-linecap="round" stroke-linejoin="round" stroke-width="0.85"/><path d="M636.5,1107.4c-.4,2.8-.8,5.6-1.3,8.5" transform="translate(-11.8 -113.4)" fill="none" stroke="#010101" stroke-linecap="round" stroke-linejoin="round" stroke-width="0.85" stroke-dasharray="5.73 5.73"/><path d="M634.8,1118.7q-41.2,263.4-82.6,526.7" transform="translate(-11.8 -113.4)" fill="none" stroke="#010101" stroke-linecap="round" stroke-linejoin="round" stroke-width="0.85" stroke-dasharray="14.33 5.73 5.73 5.73"/><path d="M551.8,1648.3c-.4,2.3-.7,4.6-1.1,7" transform="translate(-11.8 -113.4)" fill="none" stroke="#010101" stroke-linecap="round" stroke-linejoin="round" stroke-width="0.85"/><path d="M907.9,697.2c7.7,2.7,14.2,5.5,19.3,7.8s9.1,4.3,11.9,5.8l9.5,5.2,7.7,1.2,3.4.6,14.1,2.1c2.8.4,6.6,1,11.4,1.9a117.8,117.8,0,0,1,12.8,2.7l7.2,2c-.3,1.7-.7,4.1-1.4,7s-1.4,5.5-1.7,6.4c-.9,3.2-2.3,8.1-4,15.6-.2,10.6-.5,21.3-.8,32" transform="translate(-11.8 -113.4)" fill="none" stroke="#010101" stroke-linecap="round" stroke-linejoin="round" stroke-width="0.71"/><path d="M974.1,882.7c-6.6,17.3-10.9,26.8-13.7,32.4-.7,1.4-2.5,5.1-4.8,10.3-1.1,2.5-2.3,5.3-5.5,13.1l-5.8,14.6c-.4,1-3.6,9-6.8,16.7s-6.5,15-11.3,25.2c0,0-1.4,3.2-3.6,7.7-4.3,8.9-7.1,13.2-9.1,16-.9,1.3-1.7,2.4-2.3,3.1l-2.8-.3c-2.8-.3-4.9-.8-5.5-.9-7.6-1.6-15.2-2.8-22.7-4.4-21.3-4.6-25.7-4.7-46-9.3l-24.8-6.1c-32.7-8-37-8.9-52.6-12.8s-19.3-5-40.1-10.5c-15.8-4.2-38.9-10.2-67.6-17.4a135.3,135.3,0,0,1,3-22.5c.6-2.7,2.2-8.1,5.4-18.8a45.6,45.6,0,0,1,2.9-8c.8-1.8,1.2-2.3,1.9-4a38.1,38.1,0,0,0,2-7.4c.9-4.5,2.3-10.1,5-21.4a61.9,61.9,0,0,0,1.5-6.5c.5-3.1.5-4.9.9-9l.9-8.7c1.2-11.9,3.3-24.2,3.3-24.2,1-6.1,2.6-15.1,5.4-26.6,2.4-9.3,2.5-7.8,4.9-17.5s2.8-13.3,6.1-26.4c1.4-5.9,2.8-10.7,3.5-13.4,1.8-6.3,3.3-11.1,4.4-14.9s.9-2.6,3-9.3,3.4-11,4.8-14.6c.7-1.9,1.2-3,1.9-5l.9-2.3a11.8,11.8,0,0,0,1-1.9,9.4,9.4,0,0,0,.6-2.3c.3-1.1.4-1.3.8-2.9,1-3.3,3-11.4,3-11.4,2.3-9.1,2.8-10.2,5.5-20.5.5-2.2,1-4,1.2-5.1l4.6-.2h2.1c1.8.1,2.2.4,4.9.8l2.7.4a27.5,27.5,0,0,0,3,.8l3.4.3,4.3.2a6.5,6.5,0,0,1,1.8.2,6.4,6.4,0,0,1,1.8.6,14.7,14.7,0,0,0,2.8.8,14.1,14.1,0,0,0,3.1.5,13,13,0,0,0,2.8,0,57.2,57.2,0,0,1,6.3.3l2.9.5,6.7,1,7.3.7c6.6.4,12.8.5,16.6.4" transform="translate(-11.8 -113.4)" fill="none" stroke="#010101" stroke-linecap="round" stroke-linejoin="round" stroke-width="0.71"/><rect x="948.2" y="700.3" width="17.9" height="13.84" transform="translate(145.9 -287.8) rotate(11.3)" fill="#fff"/><text transform="translate(935.9 598.1) rotate(11.3)" font-size="17.01" font-family="SimSun">10</text><rect x="1011" y="702.1" width="17.9" height="13.84" transform="translate(147.5 -300.1) rotate(11.3)" fill="#fff"/><text transform="translate(1002.9 600.7) rotate(11.3)" font-size="17.01" font-family="SimSun">9</text><rect x="987.4" y="684.3" width="17.9" height="13.84" transform="translate(106.9 -259) rotate(8.9)" fill="#fff"/><text transform="translate(979.5 583.2) rotate(8.9)" font-size="17.01" font-family="SimSun">8</text><rect x="949.5" y="654.9" width="17.9" height="13.84" transform="translate(105.5 -257.2) rotate(9.1)" fill="#fff"/><text transform="translate(941.6 553.7) rotate(9.1)" font-size="17.01" font-family="SimSun">6</text><rect x="1008.9" y="618.7" width="17.9" height="13.84" transform="matrix(0.98, 0.2, -0.2, 0.98, 131.03, -301.27)" fill="#fff"/><text transform="translate(1000.8 517.3) rotate(11.3)" font-size="17.01" font-family="SimSun">3</text><line x1="951.4" y1="1660.4" x2="958.5" y2="1660.4" fill="none" stroke="#000" stroke-miterlimit="10"/><line x1="963" y1="1660.4" x2="969.8" y2="1660.4" fill="none" stroke="#000" stroke-miterlimit="10" stroke-dasharray="4.5 4.5"/><line x1="972" y1="1660.4" x2="1019.2" y2="1660.4" fill="none" stroke="#000" stroke-miterlimit="10" stroke-dasharray="11.25 4.5 4.5 4.5"/><line x1="1021.5" y1="1660.4" x2="1028.6" y2="1660.4" fill="none" stroke="#000" stroke-miterlimit="10"/><text transform="translate(1041.2 1668.6)" font-size="22.68" font-family="SimSun">探坑</text><line x1="951.4" y1="1712.3" x2="1028.6" y2="1712.3" fill="none" stroke="#000" stroke-miterlimit="10" stroke-width="1.13"/><text transform="translate(1041.2 1720.4)" font-size="22.68" font-family="SimSun">發掘時尚存之墓坑壁最高部分</text><line x1="951.4" y1="1764.2" x2="1028.6" y2="1764.2" fill="none" stroke="#000" stroke-miterlimit="10" stroke-width="0.71"/><text transform="translate(1041.2 1772.3)" font-size="22.68" font-family="SimSun">墓坑在不同深度之平面</text><line x1="951.4" y1="80.2" x2="940.9" y2="131.2" fill="none" stroke="#000" stroke-linecap="round" stroke-linejoin="round" stroke-width="0.57"/><text transform="translate(946.6 75.3) rotate(11.7)" font-size="22.68" font-family="SimSun">A</text><line x1="561.8" y1="2073.3" x2="572.5" y2="2022.2" fill="none" stroke="#000" stroke-linecap="round" stroke-linejoin="round" stroke-width="0.57"/><text transform="translate(552 2091.5) rotate(11.8)" font-size="22.68" font-family="SimSun">B</text><line x1="1540.4" y1="890.1" x2="1489.6" y2="878.7" fill="none" stroke="#000" stroke-linecap="round" stroke-linejoin="round" stroke-width="0.57"/><text transform="matrix(0.97, 0.26, -0.26, 0.97, 1551.63, 901.48)" font-size="22.68" font-family="SimSun">D</text><line x1="74.4" y1="562.2" x2="125.1" y2="574.3" fill="none" stroke="#000" stroke-linecap="round" stroke-linejoin="round" stroke-width="0.57"/><text transform="translate(55.7 566) rotate(11.4)" font-size="22.68" font-family="SimSun">C</text></g><g id="compass"><line x1="290.5" y1="154.9" x2="396.4" y2="154.3" fill="#fff" stroke="#000" stroke-linecap="round" stroke-linejoin="round" stroke-width="0.85"/><line x1="343" y1="66.5" x2="344.1" y2="294.1" fill="#fff"/><line x1="343" y1="77.8" x2="344.1" y2="294.1" fill="none" stroke="#000" stroke-linecap="round" stroke-linejoin="round" stroke-width="0.85"/><polygon points="339.3 80.3 343 66.5 346.8 80.3 339.3 80.3"/><circle cx="343.4" cy="154.3" r="30.8" fill="none" stroke="#000" stroke-linecap="round" stroke-linejoin="round" stroke-width="0.85"/><text transform="translate(334.6 61.6) rotate(-0.3)" font-size="34.02" font-family="SimSun">N</text></g></svg>