<svg xmlns="http://www.w3.org/2000/svg" viewBox="0 0 346.8 360.8"><g id="scale-1:1"><path d="M251.2,352.6v10H109.5v-10" transform="translate(-6.4 -2.1)" fill="none" stroke="#000" stroke-miterlimit="10" stroke-width="0.5"/><line x1="131.5" y1="350.6" x2="131.5" y2="360.6" fill="none" stroke="#000" stroke-miterlimit="10" stroke-width="0.5"/><line x1="159.8" y1="350.6" x2="159.8" y2="360.6" fill="none" stroke="#000" stroke-miterlimit="10" stroke-width="0.5"/><line x1="188.1" y1="350.6" x2="188.1" y2="360.5" fill="none" stroke="#000" stroke-miterlimit="10" stroke-width="0.5"/><line x1="216.5" y1="350.6" x2="216.5" y2="360.5" fill="none" stroke="#000" stroke-miterlimit="10" stroke-width="0.5"/><text transform="translate(99.5 346.1)" font-size="14.17" font-family="AdobeMingStd-Light-B5pc-H, Adobe Ming Std">0</text><text transform="translate(241.5 346.1)" font-size="14.17" font-family="AdobeMingStd-Light-B5pc-H, Adobe Ming Std">5cm</text></g><g id="outline-1"><text transform="translate(0 15.4)" font-size="14.17" font-family="AdobeMingStd-Light-B5pc-H, Adobe Ming Std">(2)</text><text transform="translate(53.4 44.7)" font-size="14.17" font-family="AdobeMingStd-Light-B5pc-H, Adobe Ming Std">1</text><path d="M85.6,25.4c-.1.2-.3.1-1,.1H50.1c-.1-.1,0-.3.1-.8a2.8,2.8,0,0,0,.1-.8,11.6,11.6,0,0,0,.1-1.7V18.8s0-1.1-.1-2.7a1,1,0,0,0-.1-.4.6.6,0,0,0-.2-.5l-.3-.3H40.5v3.9c-.1.1,0,.3,0,.4s-.1.6,0,.6H41c.2-.1.5,0,.7,0h3.1v5.3H35.1c-.2-.1-.1-.2-.1-.6s-.1-.4-.1-.7V22.5a27.4,27.4,0,0,1-.1-3.3,19.4,19.4,0,0,0-.1-2.7,9.7,9.7,0,0,0-.1-1.8c0-.9-.1-1.2-.1-1.9a6.7,6.7,0,0,1,.1-1.6,4.7,4.7,0,0,1,1.2-2.1,6.5,6.5,0,0,1,2.3-1.5A7.5,7.5,0,0,1,40,7.3l2.4-.2c4.3.1,8.7,0,13,0H68.7l.7.2a.8.8,0,0,1,.2.4,1.8,1.8,0,0,1,.1.6c0,.5.1,1,.1,1.6v4.1a3.4,3.4,0,0,1,.1,1.1c0,.3.1.5.1.8a3.5,3.5,0,0,0,.1.6c.1.4.1.6.2.7a.8.8,0,0,0,.6.2h7.9l1-.2c.4-.1,1.1-.3,1.3-.9s.1-.5.1-1.2a3.1,3.1,0,0,0-.1-1.1l-.3-.5-.7-.5H76c-.1-.1-.1-.3-.1-.7V9.5A7.6,7.6,0,0,1,76,7.9l.2-.5a1.6,1.6,0,0,1,.9-.6l1-.2h7c.1.1.1.2.1.5v.5c0,.7.1,2.4.1,5.3v2.4c0,.3,0,.4.1,2.1s.1,2,.1,2.5.1,1.6.1,2.2a10.9,10.9,0,0,0,.1,1.8v.9C85.7,25.3,85.7,25.3,85.6,25.4Z" transform="translate(-6.4 -2.1)" fill="none" stroke="#000" stroke-miterlimit="10" stroke-width="0.57"/><path d="M62.8,15.8V18H56.1c-.1-.1-.1-.2-.1-.4V13h6.7a.8.8,0,0,0,.1.3v2.3Z" transform="translate(-6.4 -2.1)" fill="none" stroke="#000" stroke-miterlimit="10" stroke-width="0.57"/></g><g id="outline-3"><text transform="translate(1.2 84.3)" font-size="14.17" font-family="AdobeMingStd-Light-B5pc-H, Adobe Ming Std">(3)</text><text transform="translate(55 179.6)" font-size="14.17" font-family="AdobeMingStd-Light-B5pc-H, Adobe Ming Std">3</text><path d="M42.7,151.5c.7,2.2.6,2.4,1.4,4.7a24.9,24.9,0,0,1,1,3q.1.9.3,1.5H38.2c0-1.1-.1-6.5-.2-10.7-.1-1.6-.2-2.7-.2-3.7s-.2-2.4-.2-3.4a45.4,45.4,0,0,1-.1-5.5,20.8,20.8,0,0,1,1.4,3.6,12.2,12.2,0,0,1,.6,2.1C40.4,146.3,41.2,147,42.7,151.5Z" transform="translate(-6.4 -2.1)" fill="none" stroke="#000" stroke-linecap="round" stroke-linejoin="round" stroke-width="0.57"/><path d="M68.8,148.9c.3,1.9.3,2.1.6,3.7s.6,3,.8,3.8l-10.7-.2,1.7-4c.9-2.2,1.2-3.1,2.3-5.6l1.3-3.1c.8-1.9,1.5-3.4,1.9-4.5a15.4,15.4,0,0,1,.9,2.8c.2,1,.2,1.4.4,2.8S68.4,146.5,68.8,148.9Z" transform="translate(-6.4 -2.1)" fill="none" stroke="#000" stroke-linecap="round" stroke-linejoin="round" stroke-width="0.57"/><path d="M87.5,150.6l1.6-3.8c1.5-3.8,3.5-7.7,3.9-8.5,0,1.1.1,2.7.1,4.7.1,4.4.1,6.6.2,8s.2,3.4.2,6,.1,2.8.1,3.7H83.8a12,12,0,0,1,.6-1.7c.8-2.4,1.3-3.2,2.3-6Z" transform="translate(-6.4 -2.1)" fill="none" stroke="#000" stroke-linecap="round" stroke-linejoin="round" stroke-width="0.57"/><path d="M75.3,160.3H54.2c.7-1.8,1.1-3.2,1.4-4.2s.4-1.4.8-2.7.6-1.8,1.3-3.7.8-2.1,1.7-4.5a67.8,67.8,0,0,0,2.5-6.9,18,18,0,0,1,.8-3.2c.2-.5.3-1,.9-2.4s1.2-3.4,1.8-4.9.8-2,1.3-3.5c.2.8.5,1.9.8,3.3,1.3,5.2,1.4,5.7,1.9,8.1,1.1,4.4,1.2,4.1,2.2,8.1s.6,3,1.4,6.5,1.1,4.3,1.7,7.2C75,158.7,75.2,159.7,75.3,160.3Z" transform="translate(-6.4 -2.1)" fill="none" stroke="#000" stroke-linecap="round" stroke-linejoin="round" stroke-width="0.57"/><path d="M81.3,141.2l1.9-3.6c.4-.9,2.1-4.4,4.3-9.6,1.1-2.5,1.6-3.8,2.7-6l1.7-3c0,2.8.1,5.6.1,8.6s-.1,3.1-.1,4.6-.7,1.4-1.1,2.4l-3.7,8.3c-1.6,3.7-1.8,4.3-4.2,10.1l-2.7,6.4-.8-2.2a33.4,33.4,0,0,1-1-4,36,36,0,0,1-1.2-4.4l-3.5-14.2c-1.8-6.9-2-7.3-5.2-19.4-.6-2.5-1.2-4.5-1.5-5.9-.5,1.1-1.1,2.8-1.8,4.8s-1.2,3.6-2.2,6.6c-1.8,5.1-2.4,5.9-4,10.8l-1,3.2c-1,3-1.5,4.4-2.6,7.2-2.1,5.8-3.1,8.7-3.8,11.1a34.6,34.6,0,0,1-1.2,3.6,10.9,10.9,0,0,1-.9,2.1c-.4-1.2-1.1-3.1-2.1-5.4s-1.4-3-2.5-5.5c-.5-1-1.1-2.7-2.4-5.9l-3-7.4-2.4-5.9c0-1.7,0-3-.1-4a12.1,12.1,0,0,0-.1-1.9c0-1-.1-2,0-3.3a24.5,24.5,0,0,1,.1-2.5c.4.8,1.1,2.1,1.8,3.6s.5,1.1,1.4,3.4l2.4,5.7,1.5,3.4c1.4,3.6,1.5,4.2,2.3,6s1.2,2.7,2.3,4.7l1.7-4c1.5-3.5,2.4-6.1,2.8-7.1,1.9-5.7,4.1-11.3,6.2-16.9,2.8-7.8,3.7-10.1,4.8-12.8s2.3-5.5,3-7.2c1.9,5.8,3.4,10.6,4.3,14s1.4,5.2,2.6,8.7,1.6,4.6,3,8.9,1.1,4,2.5,8.3Z" transform="translate(-6.4 -2.1)" fill="none" stroke="#000" stroke-linecap="round" stroke-linejoin="round" stroke-width="0.57"/></g><g id="outline-4"><text transform="translate(206.7 12.5)" font-size="14.17" font-family="AdobeMingStd-Light-B5pc-H, Adobe Ming Std">(1a)</text><text transform="translate(280.8 36.5)" font-size="14.17" font-family="AdobeMingStd-Light-B5pc-H, Adobe Ming Std">4</text><path d="M250.9,5.6q27.9-1,58.2-.6c12.1.3,23.9.7,35.4,1.3" transform="translate(-6.4 -2.1)" fill="none" stroke="#000" stroke-linecap="round" stroke-linejoin="round" stroke-width="0.57"/><path d="M251.3,7.5c13.2-.6,27.1-1,41.4-1,18.4-.1,35.9.5,52.4,1.6" transform="translate(-6.4 -2.1)" fill="none" stroke="#000" stroke-linecap="round" stroke-linejoin="round" stroke-width="0.57"/><path d="M253.6,15.6c13.5-.4,27.5-.6,41.8-.5,18.3.2,35.8.8,52.7,1.8" transform="translate(-6.4 -2.1)" fill="none" stroke="#000" stroke-linecap="round" stroke-linejoin="round" stroke-width="0.57"/><path d="M254.1,17.3q19.3-.7,39.9-.6c18.9.2,37,.9,54.3,2" transform="translate(-6.4 -2.1)" fill="none" stroke="#000" stroke-linecap="round" stroke-linejoin="round" stroke-width="0.57"/><path d="M252.8,9.1a20.7,20.7,0,0,0,.6,2.4l.3.8c.2.7.2.8.4,1s.5.2,1,.3h9l1.3-.2c.6-.1.7-.2.8-.3s.1-.4-.1-1a10.6,10.6,0,0,0-.6-1.9c-.4-1-.5-1.1-.6-1.2a2.2,2.2,0,0,0-1.1-.2,1.1,1.1,0,0,0-.6,0h-5.3a14.7,14.7,0,0,0-2.1,0c-.2,0-.5,0-.6.2s-.1.2.1,1.1.1.6.3.7l.3.2h7.9" transform="translate(-6.4 -2.1)" fill="none" stroke="#000" stroke-linecap="round" stroke-linejoin="round" stroke-width="0.57"/><path d="M266.8,8.8c.1.3.4,1.3.8,2.3l.6,1.2.2.4.2.3h12c.1-.1.1-.4-.2-1s-.3-.9-.5-1.3-.4-.9-.4-1-.2-.4-.4-.9l-.2-.4h-10c-.1,0-.1.1,0,.6l.3.6c.4.8.5.9.6.9h.6a2.2,2.2,0,0,0,.8,0h7.2" transform="translate(-6.4 -2.1)" fill="none" stroke="#000" stroke-linecap="round" stroke-linejoin="round" stroke-width="0.57"/><path d="M295.9,8.1a13.1,13.1,0,0,1,.3,1.5l.3,1.3c.1.5.1.2.4,1.3s.2.8.4.9h13.9q.2,0,0-.6a4.2,4.2,0,0,1-.1-.7c-.2-.8-.1-.6-.3-1.4a3.5,3.5,0,0,0-.4-1.1c-.2-.8-.4-.9-.5-1l-.8-.2h-11c-.1.1,0,.3,0,.7a2,2,0,0,1,.1.5l.4,1a.6.6,0,0,0,.2.5h10" transform="translate(-6.4 -2.1)" fill="none" stroke="#000" stroke-linecap="round" stroke-linejoin="round" stroke-width="0.57"/><path d="M312.8,8.4c.2,1,.3,1.8.4,2.3s.2.8.7,2.3.2.6.6.7.2,0,.7,0h4.3l9.8.2h.8V12.8c0-.3-.1-.5-.1-.9a9.4,9.4,0,0,1-.4-1.6c-.1-.2-.1-.4-.2-.5a.5.5,0,0,0-.2-.4h-4.8l-3.8-.2h-5.3s-.1.1,0,.7a1.8,1.8,0,0,1,.1.6c.1.1.1.2.3.9a1.7,1.7,0,0,0,.4.7h4.5c3.6.1,4.2,0,5.9.2h1.2" transform="translate(-6.4 -2.1)" fill="none" stroke="#000" stroke-linecap="round" stroke-linejoin="round" stroke-width="0.57"/><path d="M294.2,11.2a3.5,3.5,0,0,1,.4,1.1c.3,1.1-.1,0,.1.4s.1.4,0,.4h-.9l-8.1.3h-1.5l-.4-.4a2.5,2.5,0,0,1-.4-.8l-1.2-2.5-.2-.4-.2-.6V8.4h11.5c.1.1.1.1.2.4s.1.3.1.5Z" transform="translate(-6.4 -2.1)" fill="none" stroke="#000" stroke-linecap="round" stroke-linejoin="round" stroke-width="0.57"/><path d="M346.7,15h-6.1l-3.6-.2h-1.9l-.5-.5-.4-.4-.9-1.2a5,5,0,0,0-.7-1.3c-.4-.7-.6-.9-.6-1.2s0-.6.3-.8.5-.2,1-.2h10.4a1.7,1.7,0,0,1,.6.6,8.7,8.7,0,0,1,.9,1.5l.9,1.5a8.4,8.4,0,0,0,.4,1.2C346.8,14.7,346.8,14.9,346.7,15Z" transform="translate(-6.4 -2.1)" fill="none" stroke="#000" stroke-linecap="round" stroke-linejoin="round" stroke-width="0.57"/></g><g id="outline-5"><text transform="translate(181.7 177.6)" font-size="14.17" font-family="AdobeMingStd-Light-B5pc-H, Adobe Ming Std">5</text><path d="M234.6,151.2H216.1a10.3,10.3,0,0,1-.7-2.1,35.4,35.4,0,0,1-1.2-6l2,1.1a25.2,25.2,0,0,0,3.3,1.4l2.7.7,2.3.3h2.1c.1-.1,0-.3-.1-.7s-.1-.3-.1-.5l-.3-1.2a9.4,9.4,0,0,1-.5-1.5c-.5-1.8-1.3-4.1-1.3-4.1a61.3,61.3,0,0,1-2-6.9,12.2,12.2,0,0,1-.7-2.5c-.3-1-.4-1.5-.7-2.6a2.9,2.9,0,0,0-.8-1.4,1.2,1.2,0,0,0-.9-.4,1.4,1.4,0,0,0-1,.2,2.1,2.1,0,0,0-.7,1.4,2.8,2.8,0,0,0,.1.9,1.5,1.5,0,0,0,.6.6h1.2c.1.1.1.4.1,1s0,.5-.1.6l-.5.2h-1.4a7.1,7.1,0,0,1-1.5-.7,7.5,7.5,0,0,1-2.2-2.7,7.3,7.3,0,0,1-.6-1.4,16.4,16.4,0,0,1-.6-3.8c0-.8-.1-1.9-.2-3.2h6.2c-.2-.8-.5-2-1-3.5s-1-2.9-1.6-4.9-.2-1-1.1-4.4c-.4-1.4-.3-1-.7-2.6s-.7-2.7-1-3.7l-.9-2.2-1.1,2.5c-1.1,2.7-1.2,3.3-2.1,5.7a10.3,10.3,0,0,0-.8,2.1l-.2.8a34.7,34.7,0,0,1-1.3,3.8l-.6,1.5-1.2,2.9a11.3,11.3,0,0,0-.9,2.5h6.2c-.1.5-.2,1.3-.4,2.2s-.4,1.8-.8,3.5-.3.9-.8,2.8a5.2,5.2,0,0,1-.7,2c-.4.6-.6.8-.7.8a2.3,2.3,0,0,1-1.8.5,1.8,1.8,0,0,1-1.4-.2.9.9,0,0,1-.6-.6,1.6,1.6,0,0,1,0-1.1l.5-.2h.8l.6-.2a1.2,1.2,0,0,0,.5-.9,1.3,1.3,0,0,0-.2-1.4c-.3-.3-.7-.3-1.5-.2h-1a3.3,3.3,0,0,0-1.7,1.8c-1.2,2.3-1.7,3.5-1.7,3.5-1.7,4-1.5,3.5-1.7,4.1l-1.6,4.7c-.2.6.1-.2-.7,2.5a7.4,7.4,0,0,0-.4,1.4c-.1.4-.1.8-.2,1.5s-.2.9-.2,1.1-.1,1.2.1,1.4.6.2,1.3.1a2.7,2.7,0,0,0,1.1-.2l4.1-1.2a20.3,20.3,0,0,0,4.2-2,9.1,9.1,0,0,0,1.6-1c-.1.6-.3,1.6-.6,2.7a9.3,9.3,0,0,0-.5,1.4c-.7,2.1-.7,2.4-1,3.1a11.9,11.9,0,0,1-1,1.7H186.8c.3-.8.7-2.1,1.3-3.7a47,47,0,0,1,1.7-4.5c.8-2,.9-2.5,1.7-4.9,1.5-4.6,2.3-5.9,3.9-10.5l1.4-3.8c.4-1.2.6-2,.7-2.2,1.1-3.6,3.4-8.9,5.2-13.6s1-3.2,3.2-9,2.3-5.8,3.4-9.2l1.8-5.5c.7-1.8,1.3-3.4,1.8-4.4.6,2.3,1.7,5.8,3.1,10.1s1.6,5.2,3.9,12.7l4.6,14.4c2.2,7.1,3.3,10.6,4.2,13.7s2.4,8.6,3.7,12.1l1,2.7A46.5,46.5,0,0,1,234.6,151.2Z" transform="translate(-6.4 -2.1)" fill="none" stroke="#000" stroke-miterlimit="10" stroke-width="0.43"/><path d="M147,73.1c1,1.7,2.6,4.3,4.3,7.6s1.8,3.8,3.4,7.1c.6,1.3,1.2,2.5,5.3,10s4.2,7.8,5.4,10.3,2.6,5,5.2,10.2c1,2.2,2.9,5.9,6.6,13.4,0,.1,1.3,2.7,1.4,2.8s1.1-2,1.9-3.5l1.4-3c2.8-6.1,6.3-14.8,6.3-14.8,1.4-3.7,2.7-6.9,5.3-13.2,3.3-7.9,3.1-7,7-16.5,2.5-6,5-11.9,7.5-18.2q.5-1.3,1.8-4.5c1.7-4.2,3.2-7.6,4.2-9.8l4.5,14c2.6,8,2.8,8.5,5,15.4l5.6,17.7c.9,2.7,2.7,8.4,3,9.2,1.9,6.1,4.8,15.1,8.7,26.9l.3,13.5c.1,4.2.2,8.3.2,12.4l-33.4.4-31.5.3H149.3c0-2.3-.1-6.6-.2-8.9-.4-16.3-.6-24.4-.7-28.3-.5-12.3-.8-15.3-1.1-27.8,0-3.2-.1-5.8-.1-7.6a25.9,25.9,0,0,1,1.3,2.5,20.6,20.6,0,0,1,1.3,3.4,48,48,0,0,0,2.6,6.5c2.9,7.1,3.2,9.7,6.7,18.3l3,7.2,2.3,5.3c.9,2.5.8,2.4,3.2,9.4,1.2,3.5,1.8,5.2,2.2,6s.5,1.2.9,2.4a14.9,14.9,0,0,1,.6,2.9h-1.1l-4.2.4c-2.3.1-2.7,0-7.3,0h-1.6l-1.6-.3a8,8,0,0,1-2.8-1.3c-.4-2.9-.9-5.8-1.3-8.8a9.2,9.2,0,0,0,2.1,2.8,10.1,10.1,0,0,0,3.5,2,6.2,6.2,0,0,0,2.4.5h3l1.4-.3a7.4,7.4,0,0,0-.2-1.2,10.4,10.4,0,0,0-.6-2.2c-.6-1.6-.1-.1-.9-2.3l-1.1-2.9c-.4-1.2-.7-2.1-1.2-4.1s-.5-1.4-.8-2.4-.4-1.2-1-2.8a4.5,4.5,0,0,0-1-1.8,1.4,1.4,0,0,0-1.1-.6,2.3,2.3,0,0,0-2.2,1.8,2.7,2.7,0,0,0,1.7,2.9c.1,0,.8.2,1.2-.2s.2-.7.3-.7-.1.9-.1,1.6v.5c0,.2-.1.3-.1.4a1.2,1.2,0,0,1-.5.5,2.3,2.3,0,0,1-1.4.1l-.9-.3a4.1,4.1,0,0,1-1.7-2.1,6.7,6.7,0,0,1-.5-1.9c-.2-1.2-.2-1.7-.4-4.4s-.1-2.4-.2-3.7v-1.1h1.6l2.3-.2h.8c-.2-.5-.4-1.2-.7-2.1s-1-2.1-2-4.2l-1.3-3.1-1.5-3.5-1.4-2.3c0,1.1,0,2.7.1,4.7.1,4.1.3,6.2.8,12.3.2,3.4.1,2.7.4,6.8.1,1.2.5,7.3.9,10.8a134.1,134.1,0,0,0,2.5,16.8l63.8-.3,18.4-.2h5.5c-.6-2.2-1.1-4-1.5-5.2l-1.8-5.3c-.6-1.5-.9-2.5-1.3-3.8l-1.3-4.9c-.5-2-1.2-4.2-2.4-8.4s-2.2-6.8-4.2-13.1c-1.2-3.9-.9-3.1-3.5-11.5-1.9-6.3-1.7-5.7-5.1-16.7L217,76.1s-.3-1.3-2-6.6a14.5,14.5,0,0,0-.8-2.1l-.4-1.2-.6-1.4-.7,1.3a6.5,6.5,0,0,0-.6,2,48.4,48.4,0,0,1-1.8,4.8c-1.8,4.6-3.1,7.8-4.3,11l-1.3,3.5c-2.1,5.5-2.8,7.3-4.5,12-2.8,7.2-2.2,6.1-3.9,10.3s-2.1,5.2-3.4,9-.9,2.5-1.7,4.9-1.9,4.8-3.5,8.8-.8,2.4-3,8.2c-2.8,7.4-3,7.5-3.3,8.7s-.4,1.3-1,2.6a3.5,3.5,0,0,1-.6.9l-1.1-2a32.9,32.9,0,0,1-1.5-3.2l-4.5-10.1-2.7-5.9-5.4-12-2.6-5.6c-1.2-2.6-1.3-2.6-2.3-4.7s-1.3-3.4-2.5-5.9-1-1.8-2-3.6-2.2-4.7-2.7-5.9-2.7-6.1-5.5-11.7V76.1C146.9,75.1,146.9,74.1,147,73.1Z" transform="translate(-6.4 -2.1)" fill="none" stroke="#000" stroke-linecap="round" stroke-linejoin="round" stroke-width="0.57"/></g><g id="outline-12"><text transform="translate(307.7 176.9)" font-size="14.17" font-family="AdobeMingStd-Light-B5pc-H, Adobe Ming Std">12</text><path d="M349.3,143.1c.1-3,.3-7.7.4-13.4s.1-6.1.3-15.4.3-15.3.3-16.3.2-3.7.2-8.6c0-1-.1-2-.1-2a13.5,13.5,0,0,0-.1-2.2l-1.8,3.7c-1,2.4-1.6,4-2.9,7.4s-1.4,3.9-2.2,5.8c-2.1,5.3-2.7,6.1-4,9.8-.3.7-.7,1.9-1.4,3.8l-1.4,3.6c-.6,1.6-1.6,3.7-2.9,6.3a9.1,9.1,0,0,1-.6-1.6c-.3-.9-.4-1.4-.6-2.2l-.8-2.7c-.9-2.6-1.2-4-2.2-7.5-.5-1.8-.5-1.5-1.7-5.3s-2.1-6.7-3.2-10.7-1.5-5.3-1.5-5.3c-.8-2.8-.9-3.3-1.3-4.5s-.9-2.3-1.4-3.9a12.6,12.6,0,0,0-.8-2.3l-.5-1.2c-.4,1.2-1,3-1.6,5.1s-.6,1.7-.9,2.7c-1.4,4.4-3,9-3.7,11.3s-.5,1.9-.5,1.9-.4,1.4-.4,1.5a84,84,0,0,1-2.7,8c-.9,2.7-1.4,4.1-2,6.1s-.7,2.7-1.1,4a18.8,18.8,0,0,1-.9,3l-.7,1.7-2-4.3c-1.1-2.4-2.7-5.9-4.6-10.5l-2.2-5.8c-2.4-5.9-2.1-5-2.9-7.2,0,0-.8-2.2-1.8-4.4a17.6,17.6,0,0,0-1.2-2.3,6.1,6.1,0,0,0-.9-1.3l-1.9-2.8-1-1.3v1.9" transform="translate(-6.4 -2.1)" fill="none" stroke="#000" stroke-linecap="round" stroke-linejoin="round" stroke-width="0.57"/><path d="M286.2,86.5c0,.5.1,1,.1,1.5" transform="translate(-6.4 -2.1)" fill="none" stroke="#000" stroke-linecap="round" stroke-linejoin="round" stroke-width="0.43"/><path d="M286.3,89.4c.3,6,.5,10.9.7,14.6.1,2.1.2,4.1.5,8.1l.8,13.8c.4,7.4.5,7.5.7,11.3s.1,3.7.3,8.1.3,6.4.5,7.9.2,3.1.4,4.4" transform="translate(-6.4 -2.1)" fill="none" stroke="#000" stroke-linecap="round" stroke-linejoin="round" stroke-width="0.43" stroke-dasharray="2.87 1.44"/><path d="M290.2,158.3a6.8,6.8,0,0,1,.2,1.4h1.4" transform="translate(-6.4 -2.1)" fill="none" stroke="#000" stroke-linecap="round" stroke-linejoin="round" stroke-width="0.43"/><path d="M293.2,159.7h53.3" transform="translate(-6.4 -2.1)" fill="none" stroke="#000" stroke-linecap="round" stroke-linejoin="round" stroke-width="0.43" stroke-dasharray="2.77 1.38"/><path d="M347.2,159.9h1.4a7.6,7.6,0,0,1,.1-1.5" transform="translate(-6.4 -2.1)" fill="none" stroke="#000" stroke-linecap="round" stroke-linejoin="round" stroke-width="0.43"/><path d="M348.7,157.2c0-1.7.1-3.3.1-5l.3-5.8" transform="translate(-6.4 -2.1)" fill="none" stroke="#000" stroke-linecap="round" stroke-linejoin="round" stroke-width="0.43" stroke-dasharray="2.53 1.27"/><path d="M349.2,145.8v-1.4" transform="translate(-6.4 -2.1)" fill="none" stroke="#000" stroke-linecap="round" stroke-linejoin="round" stroke-width="0.43"/><path d="M325.5,121.7H312c.5-1.8,1.8-6.8,2.3-8.5l1.6-5.8c.8-3.3,1.1-4.8,2.1-8.8.3-1.3.6-2.3.8-3,1.1,3.9,1.9,7.2,2.6,9.5s1.5,5.6,2.1,8S325.1,119.7,325.5,121.7Z" transform="translate(-6.4 -2.1)" fill="none" stroke="#000" stroke-linecap="round" stroke-linejoin="round" stroke-width="0.43"/><path d="M288.8,99.7c0,.4.1.9.1,1.4" transform="translate(-6.4 -2.1)" fill="none" stroke="#000" stroke-linecap="round" stroke-linejoin="round" stroke-width="0.43"/><path d="M288.9,102.6c.1,1.4.2,3.1.3,5s.3,4.3.4,6.1c.5,6.5.4,6.8,1,16.2.4,5.6.5,6.5.7,10.7.1,2.1.2,3.2.4,6.9s.2,4.9.3,6.8" transform="translate(-6.4 -2.1)" fill="none" stroke="#000" stroke-linecap="round" stroke-linejoin="round" stroke-width="0.43" stroke-dasharray="2.92 1.46"/><path d="M292,155a7.1,7.1,0,0,1,.1,1.4h1.4" transform="translate(-6.4 -2.1)" fill="none" stroke="#000" stroke-linecap="round" stroke-linejoin="round" stroke-width="0.43"/><path d="M294.9,156.5h49.5" transform="translate(-6.4 -2.1)" fill="none" stroke="#000" stroke-linecap="round" stroke-linejoin="round" stroke-width="0.43" stroke-dasharray="2.79 1.39"/><path d="M345.1,156.6h1.4a11.3,11.3,0,0,1,.1-1.4" transform="translate(-6.4 -2.1)" fill="none" stroke="#000" stroke-linecap="round" stroke-linejoin="round" stroke-width="0.43"/><path d="M346.7,153.5v-.6c0-.1.1-2,.2-3.6" transform="translate(-6.4 -2.1)" fill="none" stroke="#000" stroke-linecap="round" stroke-linejoin="round" stroke-width="0.43" stroke-dasharray="3.37 1.68"/><path d="M347,148.5V147" transform="translate(-6.4 -2.1)" fill="none" stroke="#000" stroke-linecap="round" stroke-linejoin="round" stroke-width="0.43"/><path d="M315.7,139.7a7.2,7.2,0,0,1,0,2.4,2.3,2.3,0,0,1-.8,1.4,1.9,1.9,0,0,1-1.8.1l-1.2-.3-1.2-.4-1.4-.5a2.3,2.3,0,0,1-.9-.8c-.3-.4-.2-.6-.2-1.9s.1-1.6.1-2.4a.8.8,0,0,1,.2-.6c.1-.1.3,0,.8.1l.7.2a12.9,12.9,0,0,1,2.2.6C314.2,138.3,315.4,138.7,315.7,139.7Z" transform="translate(-6.4 -2.1)" fill="none" stroke="#000" stroke-linecap="round" stroke-linejoin="round" stroke-width="0.43"/><path d="M331.2,140.9a10.4,10.4,0,0,1-.3,1.2,1.7,1.7,0,0,1-.2.7,1,1,0,0,1-.3.6l-.5.2h-5.5c-.7,0-.8-.1-.9-.2s-.2-.2-.2-.9v-1a13.2,13.2,0,0,1,.2-1.6l.3-.8.3-.4.6-.5c.4-.3.9-.2,1.7-.3l2-.3h1.5c.6.1.9.1,1.1.3a1.4,1.4,0,0,1,.2.7,2.5,2.5,0,0,1,.1.9A10.6,10.6,0,0,0,331.2,140.9Z" transform="translate(-6.4 -2.1)" fill="none" stroke="#000" stroke-linecap="round" stroke-linejoin="round" stroke-width="0.43"/><path d="M314.4,140.1v1.3c0,.5,0,.6-.1.7l-.3.4h-1l-1.4-.4c-1.3-.4-1.9-.6-2.2-1.1a4.2,4.2,0,0,1-.1-1.5c-.1-1-.1-1.1,0-1.2s.6,0,2.1.4a23.4,23.4,0,0,0,2.4.9A2.2,2.2,0,0,1,314.4,140.1Z" transform="translate(-6.4 -2.1)" fill="none" stroke="#000" stroke-linecap="round" stroke-linejoin="round" stroke-width="0.43"/><path d="M329.9,139.3v1.2a5.7,5.7,0,0,1-.3,1.8c-.1.2-.3.1-1.8.2h-2.2c-.3,0-.6,0-.7-.2s-.2-.4-.2-1.1a2,2,0,0,1,.1-.9l.3-.5a1.9,1.9,0,0,1,.9-.4c.5-.2.6-.1,1.9-.2h1.1C329.5,139.2,329.7,139.1,329.9,139.3Z" transform="translate(-6.4 -2.1)" fill="none" stroke="#000" stroke-linecap="round" stroke-linejoin="round" stroke-width="0.43"/><path d="M340.2,151.3a3.4,3.4,0,0,1-.2-1.4,3.9,3.9,0,0,1,0-1.1,1.4,1.4,0,0,1,.5-.8h3c.5-.1.7-.1.9-.4a.8.8,0,0,0,.2-.6c0-.5.1-.9-.1-1.1h-1.6l-.6-.2a1.3,1.3,0,0,1-.8-.9c-.1-.1-.1-.2-.1-1.3a5.2,5.2,0,0,1,.2-1.8.9.9,0,0,1,.1-.5,4.6,4.6,0,0,1,.7-.7l.5-.2a1.1,1.1,0,0,1,.9.2c.1.1.1.3.2.6v.7c.1.3.1.5.3.6s.3.2.6.2a1.2,1.2,0,0,0,1-.3c.1-.1.2-.2.1-1.5a13.9,13.9,0,0,1-.2-1.5,3.3,3.3,0,0,0-.2-1.1c-.2-.2-.3-.2-1.3-.5s-1.3-.3-1.5-.5a1.4,1.4,0,0,1-.4-.9,3.6,3.6,0,0,1,.1-1.4c.1-.2.1-.4.3-1s.3-.8.4-1.2.3-1.4.7-2.8.5-1.7.7-2.3a3.3,3.3,0,0,0,.4-1.4,2.8,2.8,0,0,0,.1-1.2,1.6,1.6,0,0,0-1.2-.5,1.7,1.7,0,0,0-1.1.2,1.1,1.1,0,0,0-.4.5,1.1,1.1,0,0,0,0,.6c.2.6.7.6.9,1a1.1,1.1,0,0,1,0,.8,3.2,3.2,0,0,1-1,1.3l-.6.4H340l-.8-.5a3.3,3.3,0,0,1-.6-1.2,4.7,4.7,0,0,1-.2-1.9,2.5,2.5,0,0,1,.1-.8l.2-.7a4.2,4.2,0,0,1,.7-1.1,4.1,4.1,0,0,1,2.4-1.3,4.8,4.8,0,0,1,2.1-.3h2c.3-.2.3-.7.3-.9s.1-.5-.1-.7-.2-.2-.9-.3h-4.1a1.7,1.7,0,0,1-.1-.8c.1-.4.1-.7.2-1.1a6.4,6.4,0,0,0,.2-.9c.1-.4.1-.6.5-2.2a9.1,9.1,0,0,1,.3-1.2l.3-1.1c.1-.3.1-.5.3-.7s.2-.3.4-.5a1.1,1.1,0,0,1,.8,0,1.4,1.4,0,0,1,.9.5,2.5,2.5,0,0,1,.4.9,7.5,7.5,0,0,0,.1,1.1c0,.6,0,1,.2,1.1h.6c.2-.1.2-.2.3-.6s.2-.4.3-.9.1-.9.2-1.5a6.6,6.6,0,0,0,.3-1.5.8.8,0,0,0-.1-.8c-.1-.2-.3-.3-.4-.4l-.8-.3-1.1-.4a1.3,1.3,0,0,1-.6-1.6,2.4,2.4,0,0,1,.3-.8l1.1-3.3c.2-.6.4-1.5.8-3.2s.7-3.1,1.1-4.3.9-2.2,1.2-2.8c.1,1.6.1,3.8.1,6.5-.1,4.5-.2,7.6-.3,12.7s-.3,8.7-.6,12.7c-.1,2.4-.2,3.7-.4,7s-.3,6.7-.3,7.7c-.1,2.6-.1,4.9-.1,6.8" transform="translate(-6.4 -2.1)" fill="none" stroke="#000" stroke-linecap="round" stroke-linejoin="round" stroke-width="0.43"/><path d="M336.6,151a8.1,8.1,0,0,0,.6,1.3" transform="translate(-6.4 -2.1)" fill="none" stroke="#000" stroke-linecap="round" stroke-linejoin="round" stroke-width="0.43"/><path d="M338,153.1a5.9,5.9,0,0,0,1.7.8,3.6,3.6,0,0,0,1.4.2c.5,0,1.1,0,1.2-.2s-.4-.4-1-1" transform="translate(-6.4 -2.1)" fill="none" stroke="#000" stroke-linecap="round" stroke-linejoin="round" stroke-width="0.43" stroke-dasharray="2.16 1.08"/><path d="M341,152.5a3.6,3.6,0,0,1-.7-1v-.2" transform="translate(-6.4 -2.1)" fill="none" stroke="#000" stroke-linecap="round" stroke-linejoin="round" stroke-width="0.43"/><path d="M301.9,149.7a1.6,1.6,0,0,0,.4-.7,6,6,0,0,0,.1-1.3,14.3,14.3,0,0,0-.2-2.8s0-.7-.2-2.9,0-1.7-.2-4.7c-.1-1.2,0-2.4,0-3.6a1.7,1.7,0,0,1,.1-1.2c.1-.5.3-.8.3-1s.3-.6.5-.7a2,2,0,0,1,1.4-.5h6.4a22.3,22.3,0,0,1,5.3,1,2,2,0,0,1,1.6.9,3.4,3.4,0,0,1,.3,1.4v.6c0,.6,0,.8-.1.9h-.5l-.6-.2-1-.3-1.2-.3-1.4-.3a15.6,15.6,0,0,0-2.5-.3h-2a4.1,4.1,0,0,0-2,.3,2.3,2.3,0,0,0-1,1,3.4,3.4,0,0,0-.2,1.5,10,10,0,0,0,.2,2.1c.2.8.4.8.7,1.8s.5,2.2.6,2.6.1,1.2.4,1.5.2.2,1,.8l1,.6a12.2,12.2,0,0,0,2.8,1,12.3,12.3,0,0,1,2.2.8,1.2,1.2,0,0,1,.7.7.6.6,0,0,1,.1.6,1,1,0,0,1-.4.6c-.2.3-.5.3-.9.4h-2.2a4.6,4.6,0,0,1-2.3-.9c-.9-.6-1.2-1.1-1.4-1s-.1.1.4,2,.4,1.6.8,1.7h6a3,3,0,0,1,1.2.2l1.2.6a4.9,4.9,0,0,1,.8,1c.3.5.3.9.4.9s.2-.5.7-1l.6-.6a3.8,3.8,0,0,1,1.1-.5h6.6a1.5,1.5,0,0,0,.6-.4c.2-.2.3-.5.4-1.2s.2-.8,0-.9-.3.1-.9.3l-1.3.4-1.3.2a3.4,3.4,0,0,1-1.4-.2,2.7,2.7,0,0,1-1.5-.9,1.7,1.7,0,0,1-.6-1,1.2,1.2,0,0,1,.1-.8,1.4,1.4,0,0,1,.7-.6,3.5,3.5,0,0,1,1.3-.5,15.7,15.7,0,0,1,2.9-.1h7.3c.1-.1.2-.3.3-1a5.4,5.4,0,0,0,.1-1.1,4.1,4.1,0,0,0,.1-1.1c.1-1.2.2-1.9.3-3.4a42.9,42.9,0,0,0,.1-4.7v-.6c-.1-.6-.2-.7-.2-.7s-.2-.2-.7-.3h-2.5l-1.3.2-1.2.3-1.7.4-1.9.6-1.2.5-.7.2-.3.2c-.1-.1-.2-.2-.2-.6v-1c0-.7,0-.8.1-1a1.1,1.1,0,0,1,.3-.6,1.9,1.9,0,0,1,.7-.6,8,8,0,0,1,2.5-.9l1.7-.3h2.4a33.5,33.5,0,0,1,5.3.3,1.8,1.8,0,0,1,.9.2l.5.4a3,3,0,0,1,.3.9,6.2,6.2,0,0,1,.1.9,7.3,7.3,0,0,0,.2,1.5c0,.4.1,1,.1,1.7s0,1.3-.1,2.6-.2,1.3-.4,3a48.7,48.7,0,0,1-.7,5.1,10.9,10.9,0,0,0-.2,1.7,3.8,3.8,0,0,0,.1,1.5v.2" transform="translate(-6.4 -2.1)" fill="none" stroke="#000" stroke-linecap="round" stroke-linejoin="round" stroke-width="0.43"/><path d="M299,140.3a8.9,8.9,0,0,1-.3,1.4" transform="translate(-6.4 -2.1)" fill="none" stroke="#000" stroke-linecap="round" stroke-linejoin="round" stroke-width="0.43"/><path d="M298,142.8a2,2,0,0,1-1.6.7H295l-.3.3a1.9,1.9,0,0,0-.1.8c.1.3.1.5.2.6s.3.2.4.3h2.5a3.3,3.3,0,0,1,1.2.2l.6.3a1.4,1.4,0,0,1,.2.7,1.1,1.1,0,0,1,0,.6,2.9,2.9,0,0,1-.2.9,12.2,12.2,0,0,1-.9,1.7,5.4,5.4,0,0,0-.7.9l-.6.6c.2.3,1.6,0,3-.7" transform="translate(-6.4 -2.1)" fill="none" stroke="#000" stroke-linecap="round" stroke-linejoin="round" stroke-width="0.43" stroke-dasharray="2.65 1.33"/><path d="M300.8,150.6a3.1,3.1,0,0,0,1.1-.9" transform="translate(-6.4 -2.1)" fill="none" stroke="#000" stroke-linecap="round" stroke-linejoin="round" stroke-width="0.43"/><path d="M288.7,98.5V93.4a6.4,6.4,0,0,1,.6,1,10.9,10.9,0,0,1,.9,2.1c.8,2.3,1,2.2,1.7,4.2a8.5,8.5,0,0,0,.6,1.9l.6,1.5c.2.4,0,0,.2.7s.2.4.1.6,0,.2-.3.4l-.6.3a2,2,0,0,0-.9.8,1.7,1.7,0,0,0-.1.8,2.4,2.4,0,0,0,.1,1.3,5.1,5.1,0,0,0,.4,1.1,21.2,21.2,0,0,0,1,2.2c.3.5.5.8.8.9h.6c.3-.1.5-.1.5-.3s.1-.2-.1-.7l-.4-.8c-.3-.6-.4-.7-.4-.9a.9.9,0,0,1,0-.7l.3-.3a1.2,1.2,0,0,1,1,.2,1.4,1.4,0,0,1,.6.8,13.9,13.9,0,0,1,.9,2.2c.4,1,.5.8,1,2.1a5.7,5.7,0,0,1,.7,2,10.4,10.4,0,0,0,.3,1.2c.1.4.2.7.1.8s-.4.1-.5.1h-4.3c-.6,0-.9,0-1,.2s-.1.7.1,1.5.1.5.2.6l.7.4h1.2l.8.2,2.3.3c.8.1,1,0,1.3.2a2.2,2.2,0,0,1,.7.7,3.6,3.6,0,0,1,.4.9,6.1,6.1,0,0,1,.3,1.7,2.8,2.8,0,0,1-.1,1.1,1.2,1.2,0,0,1-.8.7h-2.3a1.2,1.2,0,0,1-.8-.7c-.1-.2-.1-.3-.1-.9a3,3,0,0,0-.3-1.2,1.1,1.1,0,0,0-.7-.7h-2c-.3.2-.3.6-.4,1.3a6.1,6.1,0,0,0,0,1.4,4.6,4.6,0,0,0,.3.9,2.7,2.7,0,0,0,.4,1,4.1,4.1,0,0,0,.8,1.2l1.6,1.7.6.7c.1.2.1.4.1,1.4s0,.9-.1,1h-2.4c-.6-.1-.7-.2-.9,0s-.2.4-.3.9a6,6,0,0,0,0,1.9c.1.5.1.7.3.8s.4.2.7.2.9.1,1.1-.1.2-.1.4-.7.2-.9.4-1,1.4.2,1.9,1a3.8,3.8,0,0,1,.4,1.6c0,.3.1.8.1,1.3" transform="translate(-6.4 -2.1)" fill="none" stroke="#000" stroke-linecap="round" stroke-linejoin="round" stroke-width="0.43"/></g><g id="outline-13"><text transform="translate(53 298.8)" font-size="14.17" font-family="AdobeMingStd-Light-B5pc-H, Adobe Ming Std">13</text><path d="M41.4,271.6c-.2-6.6-.4-12-.5-15.8-.2-6.5-.3-8.1-.4-11.9s0-4.8-.1-8.6-.2-3.7-.3-6.8-.1-5.1-.2-15c0-2.3,0-5.2-.1-7.8.7,1.7,1.7,4.3,2.8,7.5s.7,2.4,2.1,6.9c2,6.6,2,6.4,3.7,12.1l2.1,6.7c0,.1,1.1,3.6,2,6.3a11.9,11.9,0,0,1,.7,2c.4.9.7,1.7.9,2.3a13,13,0,0,0,1-2.3c.1-.4.2-1,.5-2.1s.3-1.5.5-2.4.5-2.2.6-2.5c.5-2.7,1.5-5.4,3.3-11.6.3-1,.5-1.6.7-2.4.6-2.4,1-4,1.2-5a115.4,115.4,0,0,1,3.3-11.5c.4-1.3.8-2.4,1-3.2l.9,3.2c.8,2.8,1.2,4.6,2.8,11,1.1,4.4,1.4,5.5,1.9,7.4s.7,2.2,1.3,4.2c1.2,4.6,2.1,9,2.3,10.1s.8,2.8,1.1,4.3a8.2,8.2,0,0,0,.5,1.7l.5,1.1a5.4,5.4,0,0,0,.6-1.1,4.3,4.3,0,0,0,.4-1.4,30.7,30.7,0,0,1,1.1-3.3c.6-1.7,1-3.1,1.6-5.1s1-3.7,1.1-4.1a5.9,5.9,0,0,1,.4-1.5c.5-2,.9-3,1.5-4.8l1.4-4.5c.9-2.9,1.4-4.4,1.5-4.6s.5-1.3.8-2.4.1-.8.2-1.6l.8-3,.9-2.9a22.3,22.3,0,0,1,.8-2.4l1-2c0,.9.1,2.1.1,3.7.1,3.7.1,6.6.1,8.8.1,8.2-.1,9.5,0,16.5v33" transform="translate(-6.4 -2.1)" fill="none" stroke="#000" stroke-linecap="round" stroke-linejoin="round" stroke-width="0.57"/><path d="M43.4,272.7c-.2-7.1-.4-12.9-.5-17.1l-.4-10.3c-.2-3.4-.4-6.4-.5-11-.1-1.9,0-1.4-.1-3.6-.1-5.6-.3-7.8-.3-11.9v-3.1a12.6,12.6,0,0,1,.7,1.6c1.2,3.1,1.3,5.3,2.1,8.4.2.6.3,1.2.5,1.8a9.4,9.4,0,0,0,.4,1.6,3.7,3.7,0,0,0,.1.8c.1.4.1.6,0,.7s-.2.2-.4.2H43.4c-.1.1-.1.2-.1.4v.7a7.6,7.6,0,0,1,.1,1.5s.3,3.4.5,4.8.1.3.1.4.1.5.2.6l.9.3h.5v-.3c0-.5.1.1,0-.4a17.5,17.5,0,0,1,0-2.3c0-.2,0-1.5.3-1.5s.6.9.8,1.6a39.7,39.7,0,0,1,.9,4.7c.1.4.2,1.2.4,2.1s.2.9.4,2.3.2.8.2,1.1.1.7.2,1,.1.3.1.6v.4H47.3l-1.5-.5L45,248l-.7-.2c-.2.2,0,.9.2,1.3a2.5,2.5,0,0,0,.4,1.1,7.8,7.8,0,0,0,1,1.5,6.4,6.4,0,0,0,1.8,1l1,.3h.9l2.2.2,2.5.2,2.2.2,1.3.2,1.2.6,1.4,1.4.7.9c.4.5.5.7.4.8H50.8c-.1.1-.1.2-.1.5a6.4,6.4,0,0,0,.2.9c.2.6,0,.3.4,1.7a10.3,10.3,0,0,0,.4,1.4c.4,1.5.3,1.7.6,2.5a4.8,4.8,0,0,0,.8,1.6,4.3,4.3,0,0,0,1.5,1.6,6.2,6.2,0,0,0,2.3.7l3.1.5h3.4c.4.1,1.1.2,1.4.6a1.5,1.5,0,0,1,.1.6,1.1,1.1,0,0,1-.3.7l-.6.4H59.3l-1.1-.3h-1a.5.5,0,0,0-.3.4.7.7,0,0,0,.2.7.8.8,0,0,0,.5.5l.5.2h6.8a3.4,3.4,0,0,1,1.1.5l.4.4a4.1,4.1,0,0,1,.9,1.2c.2.5.3.8.4.8l.3-.8a1.1,1.1,0,0,1,.2-.6,1.5,1.5,0,0,1,.7-.7l.6-.4.9-.3h3.8l1.6-.4a1.5,1.5,0,0,0,.8-.4,1.4,1.4,0,0,0,.2-.7.6.6,0,0,0-.2-.5H74.7l-1.9.2H69.2l-.5-.3a1.1,1.1,0,0,1-.2-.7,3.9,3.9,0,0,1,.2-.6l.3-.3.6-.4h2.9l3-.2,1.6-.3a4.8,4.8,0,0,0,1.4-.6l1.1-1a4.6,4.6,0,0,0,.8-1.3,21.7,21.7,0,0,0,1-2.1,9.3,9.3,0,0,0,.5-1.3,10,10,0,0,0,.2-1.6v-2c-.1-.3-.1-.5-.2-.5H70.2c-.3,0-.3,0-.3-.1s-.1,0,0-.3v-.2l.2-.4.6-.7.6-.6,1.3-.8.9-.4H83.8l.3-.3.3-.3.8-.8a6.9,6.9,0,0,0,1.6-2.1c.1-.2.4-.7.2-.9H85.6l-1.8.2H82.6c-.1-.1-.1-.2,0-.7a4.2,4.2,0,0,0,.1-.7c.2-.6.2-.9.3-1.2a18.7,18.7,0,0,0,.6-2.2,21.7,21.7,0,0,1,.5-2.5,11.3,11.3,0,0,0,.4-1.5l.3-1.2a3.2,3.2,0,0,1,.3-.9.5.5,0,0,1,.1-.3h.2a.9.9,0,0,1,.5.3,4,4,0,0,1,.6,1.3,4.1,4.1,0,0,1,.3,1c0,.3.1.6.1.9s.1.4.2.5h.7l.6-.2a.6.6,0,0,0,.1-.4c0-1.6-.1-3.1,0-4.7a5.3,5.3,0,0,0-.2-1.3l-.2-.5-.5-.6-.5-.2-.7-.3c-.3-.2-.5-.2-.5-.3v-.4a.6.6,0,0,1,.1-.4c.3-1,.4-2,.7-3s.3-1.1.6-2.5.8-3.2,1.3-5.3a12.6,12.6,0,0,1,.5-1.6l.8-1.5c0,7.8.1,14,.1,18.3v29" transform="translate(-6.4 -2.1)" fill="none" stroke="#000" stroke-linecap="round" stroke-linejoin="round" stroke-width="0.43"/><path d="M69.5,247.9H61.8c.1-1.1.3-2.5.6-4.3l1-4.1,1.1-4.7a19.5,19.5,0,0,1,.9-3.1,8.4,8.4,0,0,1,.7-1.6l.3.8a3.3,3.3,0,0,1,.3,1.3c.5,3.5,1.4,6.8,1.9,10.3C68.8,243.6,69.1,245.5,69.5,247.9Z" transform="translate(-6.4 -2.1)" fill="none" stroke="#000" stroke-linecap="round" stroke-linejoin="round" stroke-width="0.43"/><path d="M69.3,237.4c1.2,6,.9,4.7,1.1,5.5a34.4,34.4,0,0,1,.9,5c0,.7.1,1.3.1,1.7h-3c-3,.1-6.1,0-9-.1a21.7,21.7,0,0,1,.5-2.5,18.9,18.9,0,0,0,.6-1.8,22.3,22.3,0,0,0,.3-2.3c.1-.5.2-1.1.4-1.9a13.3,13.3,0,0,1,.5-1.9l.7-2.3c.7-2.1,1.1-4.1,1.9-6.9s1-3.5,1.8-6l.5,1.2a21.9,21.9,0,0,1,.7,2.3,44.8,44.8,0,0,1,1,5.2C68.4,233.2,68.3,232.6,69.3,237.4Z" transform="translate(-6.4 -2.1)" fill="none" stroke="#000" stroke-linecap="round" stroke-linejoin="round" stroke-width="0.43"/><path d="M74.1,251.2h-.8a20.3,20.3,0,0,0-3.5.4,10.7,10.7,0,0,0-2.5.7,3.1,3.1,0,0,0-.8.7l-.3.4c-.2.4-.2.5-.3.5s-.2-.2-.4-.5l-.4-.4a3,3,0,0,0-1.1-.7l-1.3-.6a8.8,8.8,0,0,0-2.8-.7l-2.3-.2h-.9c-.1,0,0-.2.1-.6s.1-.5.1-.7a6.5,6.5,0,0,0,.2-1.1c.3-1.1.9-2.6,1.3-4.3s.1-.7.4-2.1.5-2.3,1.2-5.1c.3-1.1.7-2.2,1.4-4.5,1.4-4.5,1.6-4.9,2-6.6s.8-3.3.8-3.3a9.8,9.8,0,0,1,.5-2.2c.3-1.3.3-1.1.6-2.2a5.9,5.9,0,0,1,.4-.8,1.5,1.5,0,0,1,.4-.6,4.3,4.3,0,0,1,.4.7,9.2,9.2,0,0,1,.3.9,14.1,14.1,0,0,0,.6,2.3c.2,1.1.3,1.4.5,2.3s.8,3,1,3.5.7,2.9,2.1,9.8,1.4,7.1,1.7,8,.8,3.7,1.3,5.6a1.7,1.7,0,0,1,.1.7Q74.3,251.1,74.1,251.2Z" transform="translate(-6.4 -2.1)" fill="none" stroke="#000" stroke-linecap="round" stroke-linejoin="round" stroke-width="0.43"/><path d="M64,266.5H57.1l-.9-.2-.5-.3a2.2,2.2,0,0,1-1-.9l-.5-.7c-.2-.6-.4-1-.6-1.7a2.7,2.7,0,0,0-.2-.9,8.4,8.4,0,0,1-.2-1v-.8c0-.5.1-.6.1-.6h8.6l.2.3c.2.4.2.3.4.5a6.4,6.4,0,0,1,.6,1.6l.4,1.4a6.6,6.6,0,0,1,.4,1.5,2.5,2.5,0,0,0,.1.9v.7Z" transform="translate(-6.4 -2.1)" fill="none" stroke="#000" stroke-linecap="round" stroke-linejoin="round" stroke-width="0.43"/><path d="M79.6,260v1a14.5,14.5,0,0,1-.6,1.9,13.3,13.3,0,0,1-.6,1.4,7.8,7.8,0,0,1-1.2,1.8l-.4.2a.7.7,0,0,1-.6.2c-.6,0-.9.1-1.1,0H69.5a1,1,0,0,1-.4-.7,6,6,0,0,1-.2-1.2V263a3.8,3.8,0,0,1,.1-1.2,2.5,2.5,0,0,1,.5-1.5,1.5,1.5,0,0,1,.7-.7h.6a20.4,20.4,0,0,1,2.5,0h5.9C79.3,259.6,79.5,259.7,79.6,260Z" transform="translate(-6.4 -2.1)" fill="none" stroke="#000" stroke-linecap="round" stroke-linejoin="round" stroke-width="0.43"/><path d="M41.4,272.9c0,1,.1,1.9.1,2.9" transform="translate(-6.4 -2.1)" fill="none" stroke="#000" stroke-linecap="round" stroke-linejoin="round" stroke-width="0.43"/><path d="M41.6,278.8c.1.9.1,1.9.2,2.8h2.8" transform="translate(-6.4 -2.1)" fill="none" stroke="#000" stroke-linecap="round" stroke-linejoin="round" stroke-width="0.43"/><path d="M46,281.6H88.1" transform="translate(-6.4 -2.1)" fill="none" stroke="#000" stroke-linecap="round" stroke-linejoin="round" stroke-width="0.43" stroke-dasharray="5.71 1.43"/><path d="M88.8,281.6h2.9v-2.9" transform="translate(-6.4 -2.1)" fill="none" stroke="#000" stroke-linecap="round" stroke-linejoin="round" stroke-width="0.43"/><path d="M91.7,277.5v-5.9" transform="translate(-6.4 -2.1)" fill="none" stroke="#000" stroke-linecap="round" stroke-linejoin="round" stroke-width="0.43" stroke-dasharray="5.25 1.31"/><path d="M91.7,270.9c0-.9.1-1.8.1-2.8" transform="translate(-6.4 -2.1)" fill="none" stroke="#000" stroke-linecap="round" stroke-linejoin="round" stroke-width="0.43"/><path d="M43.6,274.1V277h2.9" transform="translate(-6.4 -2.1)" fill="none" stroke="#000" stroke-linecap="round" stroke-linejoin="round" stroke-width="0.43"/><path d="M47.8,277H86.4" transform="translate(-6.4 -2.1)" fill="none" stroke="#000" stroke-linecap="round" stroke-linejoin="round" stroke-width="0.43" stroke-dasharray="5.24 1.31"/><path d="M87.1,277.1h2.8v-2.9" transform="translate(-6.4 -2.1)" fill="none" stroke="#000" stroke-linecap="round" stroke-linejoin="round" stroke-width="0.43"/><path d="M89.9,270.6v-2.9" transform="translate(-6.4 -2.1)" fill="none" stroke="#000" stroke-linecap="round" stroke-linejoin="round" stroke-width="0.43"/></g><g id="outline-14"><path d="M197.4,233c.5,1.7.4,1.7,1.1,4.4s1.3,4.6,1.5,5.7.1.7.2,1.3l.2.7c.1.4.1.5,0,.6s-.4.3-.6.4a19.6,19.6,0,0,1-2.9.3h-3.3a1.3,1.3,0,0,1-.8-.2.8.8,0,0,1-.2-.4,1.3,1.3,0,0,1,0-1l.5-.5.3-.2.6-.3h2.9l.7-.2v-.8c0-.3-.1-.4-.1-.6l-.3-.3h-2.7c-.8.1-1.2.1-1.3-.1s-.2-.4-.2-.8,0-.7.3-.9.3-.2.7-.2h2.6a.8.8,0,0,0,.2-.5c-.1-.3-.2-.6-.5-.7h-3.1c-.2-.1-.2-.3-.3-.4a2.7,2.7,0,0,1,0-.9c.1-.7.1-1,.3-1.1H195c.5,0,.6.1.7-.1s.1-.2.1-.5,0-.5-.1-.6-.2-.2-.9-.2h-2c-.2-.1-.2-.5-.2-.8s-.1-.2,0-.4,0-.5.1-.6h1.9a1.1,1.1,0,0,0,.1-.5,1.4,1.4,0,0,0-.2-.6l-.8-.2H193c-.7,0-.8,0-.9-.2a1,1,0,0,1-.1-.4.9.9,0,0,1,.1-.5.5.5,0,0,1,.3-.4l.3-.2h.6l.5-.2h.2v-.2a.8.8,0,0,0-.1-.4,1.4,1.4,0,0,0-.2-.6l-.5-1.6c-.4-1-.3-.9-.8-2.4a18.2,18.2,0,0,0-.7-2,8.2,8.2,0,0,0-.4-1.1c-.3-.7-.4-.9-.5-.9s-.1.2-.4.9-.2.4-.2.6a12.2,12.2,0,0,0-.5,1.7,3.5,3.5,0,0,0-.3,1.2,22,22,0,0,1-.6,2.2,19,19,0,0,0-.3,2.1.9.9,0,0,0-.1.5v.3c0,.1.1.2.6.3h.6c.5.1.6.2.6.3a.5.5,0,0,1,.3.4c0,.1.1.4-.1.6a.8.8,0,0,1-.7.2h-1.4a.6.6,0,0,0-.1.4.8.8,0,0,0,.2.5h1c.5.1.6,0,.8.2l.2.2a3.5,3.5,0,0,1,.1.7c.1.5.1.7-.1.8l-.3.2h-2.3c-.7,0-.8,0-1,.2v.6c-.1.2,0,.3,0,.4H189c.5,0,.8,0,.9.2l.2.4v1c0,.5,0,.7-.2.8s-.1.2-.6.2H186l-.2.3a.8.8,0,0,0-.1.4v.4c.1.1.3.2.9.2h.9l.8.3.7.3.4.3a2.2,2.2,0,0,1,.1.6c0,.5,0,.8-.2.9h-1.5l-1.3-.3h-1.4l-.2.4a1.1,1.1,0,0,0,.1.5c.1.2.5.1,1.3.3l.7.3,1,.5.4.5a.7.7,0,0,1,0,.5l-.3.4a2.2,2.2,0,0,1-1.4.3h-.9l-1.6-.4-1.4-.3h-.4l-.8-.2c-.4-.1-.6-.2-.7-.4s-.1-.4-.1-.5.1-.3.2-.5l.3-.9c.1-.4,1-2.7,1.4-4.1s.3-1.2.8-2.8.8-2,1.1-2.9.7-2.2,1.4-4.8c1.5-5.3,1.7-5.9,2.1-7.1l1.1-3.1a38.9,38.9,0,0,0,1.5-4.5,3,3,0,0,0,.3-.9c.2-.6.3-.7.4-.7s.3.4.4.8a1.2,1.2,0,0,1,.2.6l3,12,1.4,5C196.9,231.3,197,231.7,197.4,233Z" transform="translate(-6.4 -2.1)" fill="none" stroke="#000" stroke-linecap="round" stroke-linejoin="round" stroke-width="0.43"/><path d="M173.1,281.3h-13c0-1-.1-2.3-.1-4a27.6,27.6,0,0,0-.2-2.8c-.1-4.8-.6-19.3-.6-19.3-.1-2.5-.3-9.6-.8-23.8-.3-6.5-.4-13-.7-19.6-.1-1.6-.3-6-.4-11.9V195l1.3,2.6c1.2,2.5,1.7,4.2,2.4,6a50.4,50.4,0,0,0,2.8,6.3c2.1,4.6,4.4,10.6,8.9,22.6.9,2.4,2.2,5.9,3.8,10,.3-.7.8-1.9,1.3-3.3s.7-2.4,1.4-4.7.9-2.6,1.7-5.4l1.5-5c2.3-8.2,3.9-11.6,5.6-17.9l1.8-6.1a19.3,19.3,0,0,1,.8-2.7l.7-1.7a17.9,17.9,0,0,1,.9,1.9,12.8,12.8,0,0,1,.6,2.5c.4,2.2,1.8,6.3,4,13.9.9,3.5,2.4,8.8,3.5,13.4.3,1,.6,2.5,1.2,4.6l1.8,5.8c.3,1.1.8,2.8,1.3,4.8.8-1.4,1.3-2.7,1.7-3.5a25.2,25.2,0,0,1,1-2.9l1.1-2.7c1.1-2.6,3.4-7.9,5.1-12.3s.8-2.6,2.2-6.2,1.6-3.9,3.3-8.4,2-5.3,2-5.3a21.6,21.6,0,0,1,2.1-5l.9-1.4c0,.9.1,2,.1,3.3V203c-.1,3.6-.3,6.9-.4,9.2s-.3,6.9-.4,10.4-.5,13.4-1,28.8" transform="translate(-6.4 -2.1)" fill="none" stroke="#000" stroke-linecap="round" stroke-linejoin="round" stroke-width="0.57"/><path d="M161.1,251v-3.1c-.1-5-.2-8.7-.3-11.8-.6-16.2-.5-15.2-.7-18.6-.1-.9-.2-3.6-.2-7.3a8.8,8.8,0,0,1,0-2.3c.3.7.9,1.8,1.4,3.2s.5,1.6,1.4,4.4,1.3,4.3,1.7,5.8.3,1.4.6,2.2l.3,1c.2.7.3.9.2,1.1h-2a1.6,1.6,0,0,0-1,.2l-.6.4a2.5,2.5,0,0,0-.1.8,19.2,19.2,0,0,1,0,2.4,18.6,18.6,0,0,1,.1,2.2v1.5a2.9,2.9,0,0,0,.3,1,.9.9,0,0,0,.6.3.7.7,0,0,0,.7-.2c.1-.1.1-.3.2-.5v-1.2c0-.6.1-.4.1-1.3a2.2,2.2,0,0,1,.1-.8.9.9,0,0,1,.3-.6c.2-.2.5-.2,1-.2l.9.2c.1,0,.4.2.7,1.4l.3,1c.3,1.4.6,3,.8,4s.3.7.7,2.1a32.2,32.2,0,0,1,.8,3.3c.2,1,.4,2,.7,3s.1.4.2.9a1.7,1.7,0,0,1-.1.8c-.1.3-.5.4-1.2.6l-1.4.3H167a.7.7,0,0,1-.5-.3,1.1,1.1,0,0,1-.2-.8,1.1,1.1,0,0,1,.3-.9c.1-.1.2,0,.4-.2a1.5,1.5,0,0,0,.7-.5l.4-.4a1.3,1.3,0,0,0-.2-.9c0-.1-.1-.3-.4-.4s-.3-.2-1.1-.1a3.7,3.7,0,0,0-1.5.3l-.8.5a3.4,3.4,0,0,0-.8.9,3.6,3.6,0,0,0-.2,1" transform="translate(-6.4 -2.1)" fill="none" stroke="#000" stroke-linecap="round" stroke-linejoin="round" stroke-width="0.57"/><path d="M214.8,255.6l1.3-2.9c1-2.2,1.4-3.4,2-4.6l.6-1.5a4.1,4.1,0,0,0,.4-.9,1.7,1.7,0,0,0,.3-1.3l-.2-.4a1.4,1.4,0,0,0-.8-.5,11.9,11.9,0,0,0-2.1-.8h-1.1a1,1,0,0,0-.7.2,2.5,2.5,0,0,0-.7.9,3,3,0,0,0-.4.8c-.2.4-.2.5-.2.6a1.5,1.5,0,0,0,.1.6c.1.2.2.1.4.4l.4.5c0,.2-.1.3-.2.6a1.5,1.5,0,0,1-.5.7l-.3.2h-.6l-.9-.3a1.3,1.3,0,0,1-.8-.3l-.5-.2a1.7,1.7,0,0,1-.3-.7,1.2,1.2,0,0,1,.2-.7c.2-.6.4-.9.5-1.2l.3-.9a9.7,9.7,0,0,1,.8-1.9l.5-1.5c.3-.8.3-1,.8-2.4a14.5,14.5,0,0,1,.6-1.9,7.7,7.7,0,0,1,.6-1.5c.3-.9.9-2.9,1.3-3.8s.2-.4.5-.5a.6.6,0,0,1,.5-.2c.2,0,.7-.1.9.2s.1.2.2.5a3.4,3.4,0,0,0,.1.9c0,.4.1.6.1.8s.2.6.3.7h1c.1,0,.1-.2.1-.4v-.3c.1-1.7.1-3.5.1-3.5v-1.4a1.5,1.5,0,0,1-.1-.6l-.6-.4-.9-.5-1.3-.4c-.4-.1-.6-.2-.6-.4a1.8,1.8,0,0,1,.1-.5v-.5c.2-.6.9-2.7,1.2-3.8s.2-1,.4-1.7.8-2.6,1.8-5.8,1-3.7,1.8-5.2a8.3,8.3,0,0,1,.9-1.5v3.6c0,3.3-.1,5.7-.2,7.4s-.1,6.5-.2,9.7c-.2,5.3-.7,19.9-.9,25.1" transform="translate(-6.4 -2.1)" fill="none" stroke="#000" stroke-linecap="round" stroke-linejoin="round" stroke-width="0.57"/><path d="M222.3,252.4c0,.8-.1,1.7-.2,2.9" transform="translate(-6.4 -2.1)" fill="none" stroke="#000" stroke-linecap="round" stroke-linejoin="round" stroke-width="0.43"/><path d="M222,256.7c-.1,1.2-.1,2.7-.2,4.2-.2,3.8-.1,5.8-.3,10,0,1.7-.1,3.9-.2,6.5" transform="translate(-6.4 -2.1)" fill="none" stroke="#000" stroke-linecap="round" stroke-linejoin="round" stroke-width="0.43" stroke-dasharray="5.73 1.43"/><path d="M221.2,278.2c0,.8-.1,1.8-.1,2.8h-2.9" transform="translate(-6.4 -2.1)" fill="none" stroke="#000" stroke-linecap="round" stroke-linejoin="round" stroke-width="0.43"/><path d="M216.9,281.1h-9.3c-10,.2-19.9.2-29.7.1" transform="translate(-6.4 -2.1)" fill="none" stroke="#000" stroke-linecap="round" stroke-linejoin="round" stroke-width="0.43" stroke-dasharray="5.29 1.32"/><path d="M177.3,281.3h-2.9" transform="translate(-6.4 -2.1)" fill="none" stroke="#000" stroke-linecap="round" stroke-linejoin="round" stroke-width="0.43"/><path d="M161.2,252.6c.2,4.7.5,9.5.7,14.3s.2,6.5.3,9.6l36.5-.2h21.2c0-.4.1-1.1.1-1.9.4-6,.3-9,.6-14.1,0-1.5.1-3.9.3-6.8" transform="translate(-6.4 -2.1)" fill="none" stroke="#000" stroke-linecap="round" stroke-linejoin="round" stroke-width="0.43" stroke-dasharray="5.67 1.42"/><path d="M186.1,260.5a3.1,3.1,0,0,1,.1,1,3.1,3.1,0,0,0,.1.9v2a2.1,2.1,0,0,0-.1.6h-.5c-.2.1-.3.1-.4,0h-.7a12.3,12.3,0,0,1-2.9-.7,3.1,3.1,0,0,1-1.2-.4c-.5-.2-.8-.4-.9-.7s-.1-.1-.1-.5a5.4,5.4,0,0,1-.2-1.7V260a1.7,1.7,0,0,0,.1-.8v-1c.1-.1.4,0,1.3.2h.9l.8.2,1.4.4c.6.1.4.1.6.2s1.4.3,1.6.5S186.1,260.1,186.1,260.5Z" transform="translate(-6.4 -2.1)" fill="none" stroke="#000" stroke-linecap="round" stroke-linejoin="round" stroke-width="0.43" stroke-dasharray="2.66 1.33"/><path d="M202.3,264.2h-.9l-1.8.3-2.7.3a.5.5,0,0,1-.5,0c-.1-.1-.2-.1-.3-.3l-.2-.6c-.1-.2,0-.4,0-.7a8.5,8.5,0,0,1-.1-1.5v-.6c0-.4,0-.6.1-.7s.2-.3.7-.6a4.9,4.9,0,0,1,1.5-.6l.8-.2,1.2-.2h2.5c.1.1.1.3.2.7v3.2l-.2.7A1,1,0,0,1,202.3,264.2Z" transform="translate(-6.4 -2.1)" fill="none" stroke="#000" stroke-linecap="round" stroke-linejoin="round" stroke-width="0.43" stroke-dasharray="3.07 1.53"/><path d="M163.3,246.5a42.9,42.9,0,0,0,1.5,5.1c.3,1.1.4,1.2.7,2.2s.8,2.8,1.2,3.6a7.9,7.9,0,0,1,.4.9,1.5,1.5,0,0,1,.2.8c.1.2.1.3,0,.4s0,.4-.2.5h-1.4c-.2.1-.5.1-.7.4a1.2,1.2,0,0,0-.1.5,5.2,5.2,0,0,0,.2,1.4,5.9,5.9,0,0,0,.4.8c.2.4.5.9.7.9s-.1-.6.3-1.2l.4-.4a.8.8,0,0,1,.7,0c.1,0,.3.1.6.5a4.1,4.1,0,0,1,.5.9,2,2,0,0,1,.3,1.4,1.4,1.4,0,0,1-.4,1c-.4.5-1.3.3-1.7.3s-2-1.2-2.2-1,.4,1.8,1.7,2.6l1.4.7c.7.3,1.2.4,1.2.6s-.6.3-.9.4h-2.3a3.5,3.5,0,0,0,1.9,1.2,7.8,7.8,0,0,0,3,.4,2.2,2.2,0,0,0,1.6-.4,2.6,2.6,0,0,0,.6-.8,2.9,2.9,0,0,0,.1-1.6,13.2,13.2,0,0,0-.4-2.2s-.5-1.6-1.3-4.7a27.7,27.7,0,0,1-.9-4.7s-.2-1.3-.4-3.7c0-.1,0-1.1.1-2.3a3.4,3.4,0,0,1,.7-1.7l.7-.5.9-.2h3.4l3.1.4,2.2.4,1.3.2,1.6.3.9.3c.4.2.5.7.7,1.5s.1,1.3.1,1.4H185l-1.3-.2a9.5,9.5,0,0,0-2.9-.2h-1.2a4.7,4.7,0,0,0-1.6.2l-.9.3a4.1,4.1,0,0,0-1.5.7,2.2,2.2,0,0,0-.2,1,11.6,11.6,0,0,0-.1,1.3V259a14.9,14.9,0,0,0,.1,3.3,6.5,6.5,0,0,0,.6,2.3,7.1,7.1,0,0,0,1.3,1.9,6.3,6.3,0,0,0,1.8,1.2,11.9,11.9,0,0,0,2.8,1.1l1.9.4a9,9,0,0,1,1.8.6l.6.4c.1.2.3.3.4.6a1,1,0,0,1-.1.9c-.1.2-.4.2-1.5-.1l-2.1-.5c-1-.2-1.2-.4-1.4-.2s-.2,1.1.3,1.7.7.5,1.6,1l1.2.5a4.3,4.3,0,0,0,1.5.3c1.6.2,5.2.2,5.7.2a47.6,47.6,0,0,0,7.6-.7,1.1,1.1,0,0,0,.9-.5c.1-.2.2-.5,0-.7s-.4-.3-.8-.3h-1.8c-.2-.1-1.3-.3-1.5-1.1a1.7,1.7,0,0,1,.1-.7c0-.2.2-.3.3-.5l.7-.5a4.8,4.8,0,0,1,1.8-.5l2-.4,1.8-.5a5.2,5.2,0,0,0,1.5-.7,3.8,3.8,0,0,0,1.3-1.8,8.1,8.1,0,0,1,.2-.9l.2-1.1a50.8,50.8,0,0,0,.2-5.3" transform="translate(-6.4 -2.1)" fill="none" stroke="#000" stroke-linecap="round" stroke-linejoin="round" stroke-width="0.43" stroke-dasharray="2.83 1.42"/><path d="M206.3,257.3v-1.9a1.7,1.7,0,0,0-.1-.8,2.5,2.5,0,0,0-1-1.2l-1.5-.4H200l-1.8.3-1,.2h-.8c-.1-.1-.3-.2-.3-1.1s0-1.4.3-1.8a1.5,1.5,0,0,1,.9-.4l2.7-.5,2.2-.3h4l1.5.2a4.9,4.9,0,0,1,2.3,1.1,5.6,5.6,0,0,1,.8,1.5v3.1" transform="translate(-6.4 -2.1)" fill="none" stroke="#000" stroke-linecap="round" stroke-linejoin="round" stroke-width="0.43"/><path d="M210.6,256.6a11.5,11.5,0,0,1-.2,1.4" transform="translate(-6.4 -2.1)" fill="none" stroke="#000" stroke-linecap="round" stroke-linejoin="round" stroke-width="0.43"/><path d="M210.2,259.4h0c-.2,1.3-.2,1.4-.4,3s-.5,3.8-.6,4.4-.2,1.4-.3,2.3a13.4,13.4,0,0,1-.1,1.9v.7c0,.5-.1.7,0,1s.1.3.3.4.4.3,1.2.2h1.5a3.7,3.7,0,0,0,1.3-.7,4.7,4.7,0,0,0,1.2-.9c.1-.1,1.1-1,.9-1.3s-.3,0-.8,0h-.7c-.7,0-1.1.1-1.2-.1s.1-.7.3-.9.2-.2.5-.4l.9-.5a7.2,7.2,0,0,0,1.5-1.1s.6-.7.4-1-.5,0-1.2.2l-1.1.3c-.5.1-.8.1-1-.1s-.1-.4,0-1,.1-.4.1-.7a8,8,0,0,1,.5-1.1c.3-.3.5-.7.8-.6s.2,0,.6.5l.8.7c.4,0,.5-.7.6-.9a2,2,0,0,0,.1-.7c-.1-.4-.1-.7-.2-.8a.9.9,0,0,0-.3-.7,1.8,1.8,0,0,0-.8-.5l-1-.2c-.5-.1-.6-.3-.6-.4s-.1-.1,0-.5a7.3,7.3,0,0,1,.2-.8,1.7,1.7,0,0,1,.2-.5" transform="translate(-6.4 -2.1)" fill="none" stroke="#000" stroke-linecap="round" stroke-linejoin="round" stroke-width="0.43" stroke-dasharray="2.9 1.45"/><path d="M214,257.9a5,5,0,0,0,.5-1.3" transform="translate(-6.4 -2.1)" fill="none" stroke="#000" stroke-linecap="round" stroke-linejoin="round" stroke-width="0.43"/><text transform="translate(180.6 300)" font-size="14.17" font-family="AdobeMingStd-Light-B5pc-H, Adobe Ming Std">14</text></g><g id="outline-15"><text transform="translate(306.6 300)" font-size="14.17" font-family="AdobeMingStd-Light-B5pc-H, Adobe Ming Std">15</text><path d="M292.1,280.4h-3.2c-.2-4.3-.5-10.9-.7-19-.3-10-.3-12.1-.6-20.7-.4-12.4-.6-13.9-.8-22.9-.2-5.4-.4-13.5-.4-23.5l.7,1.4c1.5,3.1,2.4,5.5,3.7,8.9l3.3,8.9c.7,1.9,1.2,3.3,2.1,5.5s1.9,4.3,2.1,4.8c1.2,2.5,3.2,7.4,6.8,18l1.7-5.2c1.4-4.2,1.9-5.7,2-6.3l1.1-3.7c.7-2.3,1.3-4,2.1-6.4,1.7-5.5,1.8-5.5,2.5-7.9s.6-2.3,1.3-4.6.7-2.3,1.6-5,1.4-4.3,1.9-5.7l.9-2.1a22.6,22.6,0,0,1,1.1,3c.6,1.9.9,3.3,1.1,4,.9,3.9,2,7.9,2.8,10.6s.7,2.1,1.5,4.8,1,3.9,2.4,9.5,1.9,6.5,2.3,8.4a18.9,18.9,0,0,0,1,3.7,21.7,21.7,0,0,0,1,2.1l.4-.8a21.3,21.3,0,0,0,1.5-3.7c.4-1.2.5-1.3,1.9-4.5s1.8-4.2,3.5-8.5c3.4-8.5,5.1-12.7,6.9-17.5.5-1.5,1.2-3.4,2.3-6.1s2.3-5.2,3-6.7c-.1,4.4-.2,11.2-.5,19.7-.2,6.5-.3,7.7-.7,16.2-.2,5.9-.3,11.1-.7,21.5-.3,11.9-.4,16.1-.5,19.4s-.1,7.6-.2,10H347" transform="translate(-6.4 -2.1)" fill="none" stroke="#000" stroke-linecap="round" stroke-linejoin="round" stroke-width="0.57"/><path d="M293.1,280.4h1.4" transform="translate(-6.4 -2.1)" fill="none" stroke="#000" stroke-linecap="round" stroke-linejoin="round" stroke-width="0.43"/><path d="M295.9,280.4l47.5-.3" transform="translate(-6.4 -2.1)" fill="none" stroke="#000" stroke-linecap="round" stroke-linejoin="round" stroke-width="0.43" stroke-dasharray="2.92 1.46"/><path d="M344.1,280.1h1.4" transform="translate(-6.4 -2.1)" fill="none" stroke="#000" stroke-linecap="round" stroke-linejoin="round" stroke-width="0.43"/><path d="M298.6,243.7a1.4,1.4,0,0,1,0,1.3h0" transform="translate(-6.4 -2.1)" fill="none" stroke="#000" stroke-linecap="round" stroke-linejoin="round" stroke-width="0.43"/><path d="M297.5,246a2.2,2.2,0,0,1-1.3.3c-.5.1-1,.2-1.2-.1a.8.8,0,0,1-.3-.7.6.6,0,0,1,.1-.6,1.1,1.1,0,0,1,.5-.7c.6-.5.9-.5,1.1-.8a2,2,0,0,0,0-.8l-.3-.4a1.4,1.4,0,0,0-.9-.4,3,3,0,0,0-1.8.6,3.6,3.6,0,0,0-1,1.1,5.5,5.5,0,0,0-.2,1.6,4.4,4.4,0,0,0,.2,1.8,15.6,15.6,0,0,0,.9,3.4c.6,2.1.5,2.2,1,3.6a18.5,18.5,0,0,0,.9,2.4c0,.1.2.4.3.8a3.5,3.5,0,0,1,.1.6c0,.4,0,.6-.1.7s-.2.3-.6.5l-.6.2a2,2,0,0,0-.8.8,1.2,1.2,0,0,0-.1,1,1.2,1.2,0,0,0,.5,1.1.9.9,0,0,0,.7,0c.3-.1.3-.4.6-.5h.6l.6.2c.3.1.4.3.8,1.2a5.7,5.7,0,0,1,.5,1.7,1.1,1.1,0,0,1-.3.9c0,.1-.2.2-.7.3a3.7,3.7,0,0,1-1.8-.4c-.8-.3-1-.7-1.2-.5s.4,1.2.4,1.4a6.1,6.1,0,0,0,.7,1,4,4,0,0,0,1.2.8l.8.2c.5.2.8.2.9.4a.5.5,0,0,1,0,.4,1.1,1.1,0,0,1-.4.5h-1.4l-1.3-.2c-.1.1.4.8,1.1,1.1a4.5,4.5,0,0,0,1.6.3h2.8l.5-.4.3-.5c.1,0,.2-.2.2-.8v-1.7c0-.7-.3-.9-.6-1.9a15,15,0,0,0-.3-1.7,10.3,10.3,0,0,0-.3-1.2c-.2-1.5-.2-1.4-.3-2a20.2,20.2,0,0,1-.5-2.8c0-.1,0-.6-.1-1.6a14.1,14.1,0,0,0-.2-2.2c0-.5,0-1.3.1-3a3.2,3.2,0,0,1,.2-1.4,2.5,2.5,0,0,1,.9-1.3l.3-.2h5.2l1.2.2,2,.4,3.2.4c1,.2,1.5.4,1.7.8s.2.3.3.9a1.9,1.9,0,0,1,.2.8c0,.3,0,.4-.1.5s-.3.2-1,.1h-4.7l-.8.2-1,.3h-.9l-.8.3-.3.3a1.5,1.5,0,0,0-.2.8c0,1.2-.2,2.4-.2,3.6v4.1c0,.2,0,0,.2,2a2.9,2.9,0,0,0,.3,1.4c.2.5.3.6.5.7s.2.2.7.3l.8.3,1.8.7,2.2.8,1.4.4,1.1.3c1,.1,1.3,0,1.5.2s.2.4.3.9.1,1-.1,1.3-.5.2-1,.3h-1.9c-.9-.1-1.3-.5-1.4-.4s.1.8.5,1.2.5.3,1.8.7l1.7.4h2a45.1,45.1,0,0,0,5.2,0h3.8l3.3-.3a1.2,1.2,0,0,0,.7-.2l.4-.3a.7.7,0,0,0-.2-.7c-.3-.3-.6-.3-1.6-.4h-1.2c-1.1-.1-1.3-.1-1.6-.3l-.6-.7a1.4,1.4,0,0,1-.2-.7,1,1,0,0,1,.4-.8,3,3,0,0,1,1.9-.8,5.9,5.9,0,0,1,1.7-.2l3-.4,1.3-.4a2,2,0,0,0,.9-.5,2.9,2.9,0,0,0,.3-1c0-.5.1-1.1.1-1.7s0-.2.3-3.5h0" transform="translate(-6.4 -2.1)" fill="none" stroke="#000" stroke-linecap="round" stroke-linejoin="round" stroke-width="0.43" stroke-dasharray="2.84 1.42"/><path d="M334.4,259.5c0-.4.1-.9.1-1.5" transform="translate(-6.4 -2.1)" fill="none" stroke="#000" stroke-linecap="round" stroke-linejoin="round" stroke-width="0.43"/><path d="M338,263a7.1,7.1,0,0,0-.1,1.4" transform="translate(-6.4 -2.1)" fill="none" stroke="#000" stroke-linecap="round" stroke-linejoin="round" stroke-width="0.43"/><path d="M337.7,265.8a11.8,11.8,0,0,1-.1,1.6,7.2,7.2,0,0,1-.1,1.3v1.6c-.1.6-.1.8,0,1a2.2,2.2,0,0,0,.6.7,2.8,2.8,0,0,0,1.3.5,3.6,3.6,0,0,0,2.2-.7,5,5,0,0,0,1.2-.8c.1-.1,1.3-1.1,1.2-1.3s-.2,0-1.1.1h-1.4l-.4-.2a1,1,0,0,1-.1-.3c0-.2.1-.2.3-.4s.5-.3.5-.4a2.3,2.3,0,0,0,.9-.6l.6-.7a3.6,3.6,0,0,0,.7-1,.8.8,0,0,0,.1-.4l-.6.2h-1.9c-.3-.1-.4-.5-.5-.8a2.8,2.8,0,0,1-.1-1.2,2.1,2.1,0,0,1,.4-1,1.6,1.6,0,0,1,1.1-.5c.4.1.6.4.9.6s.4.8.6.8.3-.7.4-1a5.7,5.7,0,0,0,0-1.3c-.1-.1-.2-.5-.4-.8" transform="translate(-6.4 -2.1)" fill="none" stroke="#000" stroke-linecap="round" stroke-linejoin="round" stroke-width="0.43" stroke-dasharray="2.88 1.44"/><path d="M343.4,260.2h-1.3" transform="translate(-6.4 -2.1)" fill="none" stroke="#000" stroke-linecap="round" stroke-linejoin="round" stroke-width="0.43"/><path d="M332.6,245.7c.8-2.1,2.1-5.4,3.8-9.3s1.8-4,3.5-8c2.5-6,2.3-6,4.8-11.9,1.3-3,1.9-4.3,3-7s1.1-3.1,1.9-5.3,2.1-4.9,2.7-6.4" transform="translate(-6.4 -2.1)" fill="none" stroke="#000" stroke-linecap="round" stroke-linejoin="round" stroke-width="0.43"/><path d="M286.4,197.2c.8,1.9,2,4.7,3.4,8.3l2.5,6.7c2.9,7.6,3.7,8.9,7.5,18.9.7,1.7,1.1,2.8,1.9,4.9l3.5,8.6c5-15.2,9.9-30.4,14.9-45.6,3.9,14.7,7.9,29.3,11.8,44" transform="translate(-6.4 -2.1)" fill="none" stroke="#000" stroke-linecap="round" stroke-linejoin="round" stroke-width="0.43"/><path d="M328.8,244.6l-.4.2h-.9l-2.4.3h-3c-.4-.1-.6-.1-.7-.3a1,1,0,0,1-.3-.6,1,1,0,0,1,.4-.5c.3-.3.5-.4.7-.4a5.6,5.6,0,0,1,1.8-.3h2.1q.1-.1,0-.6a1.7,1.7,0,0,0-.1-.7c-.1-.2-.1-.4-.2-.4s-.2-.2-1.1-.1h-3.1c-.1-.1-.2-.2-.2-.7a2,2,0,0,1,.2-1.2l.6-.3h2.7c.2-.1.2-.3.2-.6s-.1-.5-.2-.6l-.6-.2h-2.2a1.1,1.1,0,0,1-.5-.4c-.2-.2-.2-.4-.3-.4v-.9c.1,0,.1-.2.3-.4l.4-.2h1.6a.9.9,0,0,0,.1-.5,1.2,1.2,0,0,0-.2-.7c-.2-.2-.4-.2-1-.2h-.9a.7.7,0,0,1-.4-.3,1,1,0,0,1-.2-.6.7.7,0,0,1,.3-.7c.1-.2.4-.2.6-.2h.9c.2-.1.2-.2.2-.3a.6.6,0,0,0-.2-.5c-.2-.3-.4-.3-.7-.4H321l-.5-.2c-.2-.2-.1-.5-.1-.6a.6.6,0,0,1,.2-.5l.6-.5h.5l.6-.2c.1-.1.1-.1,0-.5s-.1-.4-.2-.5l-.4-1.6-.9-2.9c-.2-.9-.5-1.7-.7-2.6l-.2-.5c-.1-.3-.2-.5-.3-.5s-.5.8-.7,1.6l-1.1,3.6a18,18,0,0,0-.5,1.9c-.2.6-.3,1.2-.5,1.7s-.2.6-.1.8l1.1.2c.6,0,.7.1.8.2s.2.5.3.5a1.1,1.1,0,0,1-.1.5.5.5,0,0,1-.1.3c-.2.2-.5.2-.9.2h-1.3a.4.4,0,0,0-.1.3c.1.3.3.4,1,.8a2.6,2.6,0,0,1,1.1.8c0,.1.2.2.2.5a.4.4,0,0,1,0,.5l-.6.2h-2.2l-.6.3a.9.9,0,0,0-.3.6.5.5,0,0,0,.3.5h1.1a7.5,7.5,0,0,0,1.5,0l.6.2c.2.2.2.4.2.9s.1.7-.1.8-.4.2-.7.3h-3.5l-.3.3a.9.9,0,0,0-.1.5.4.4,0,0,0,0,.5,1,1,0,0,0,.7.2l1.2.2,1.1.2a1.4,1.4,0,0,1,1,.7,1.1,1.1,0,0,1,0,.8c-.2.2-.4.2-1.1.2h-3.2c-.1.1.1.4.1.4s.4.3.5.4l1.5.6.8.5c.3.3.3.5.3.5a.8.8,0,0,1-.2.5,1.3,1.3,0,0,1-1.1.1h-3.4l-1.5-.2c-.5-.2-1.1-.3-1.2-.7l.2-.5c.1-.4.2-.7.2-.8a3.9,3.9,0,0,0,.4-.9l.5-1.4.4-1.5c.2-.4.3-.8.4-.9a28.2,28.2,0,0,0,.9-3c.5-1.8.6-1.7,1.1-3.4l.6-2.4c.4-1.5,1.1-3.6,2.5-7.7s1.9-5.4,2.2-6.5a10.3,10.3,0,0,1,.4-1.4c.4-1.2.7-2,.9-2s.3.5.6,1.7l.6,2.3c.3,1.2.6,2.4.8,3.5s.4,1.6,1.3,5.1.5,2,2,8.4c.9,3.7,1.1,4.5,1.4,5.6s.5,1.5,1,3a8,8,0,0,0,.5,1.9,7.5,7.5,0,0,1,.2,1.1c.1.1.1.4.1.5v.4Z" transform="translate(-6.4 -2.1)" fill="none" stroke="#000" stroke-linecap="round" stroke-linejoin="round" stroke-width="0.43"/><path d="M334.6,257a9.8,9.8,0,0,1,.1-1.9c0-.4-.1-.6-.1-1.2v-.7a3.1,3.1,0,0,0-.5-1c-.2-.2-.5-.4-1.7-.5h-3.2l-1.6.3-1.1.2h-1.3c-.3.1-.4.2-.5.1s-.1-.1,0-.9.1-.5.1-.7.1-.6.2-.7.6-.5,1.4-.7l1.6-.3h1.2l2.6-.4h4.5a5,5,0,0,1,2.2,1.1,3.3,3.3,0,0,1,1.1,1.4,6.5,6.5,0,0,1,0,2.2,19.8,19.8,0,0,1-.4,2.8,12.3,12.3,0,0,1-.5,2.1c-.1.6-.2,1.1-.3,2a16.4,16.4,0,0,1-.3,1.8" transform="translate(-6.4 -2.1)" fill="none" stroke="#000" stroke-linecap="round" stroke-linejoin="round" stroke-width="0.43"/><path d="M314.7,259.7v2.8c-.1.2-.1.2-.1.7v.5h-2.4l-2.3-.5c-1-.4-1.5-.6-1.7-1s0-.1-.1-1.2-.1-.8-.1-1.3v-1.1a1.5,1.5,0,0,1,.1-1.1l.6-.2,1.6.2,1.3.3,1.7.6.7.3.4.2.3.3Z" transform="translate(-6.4 -2.1)" fill="none" stroke="#000" stroke-linecap="round" stroke-linejoin="round" stroke-width="0.43" stroke-dasharray="3.04 1.52"/><path d="M331.3,262.8l-.3.3-.4.3h-2.1l-.8.2h-2.9l-.3-.2a1.8,1.8,0,0,1-.1-.6c-.1-.8-.1-1-.1-1a11.3,11.3,0,0,1-.1-1.4,2.9,2.9,0,0,1,.2-.8c.1-.2.3-.2.6-.4l.9-.7,1.6-.4a8.4,8.4,0,0,1,1.9-.3c1.1-.1,1.4,0,1.5.2s.1.1.2.6a5.5,5.5,0,0,0,.1.9c0,.6.1,1.1.1,1.9v.4C331.4,262.6,331.4,262.6,331.3,262.8Z" transform="translate(-6.4 -2.1)" fill="none" stroke="#000" stroke-linecap="round" stroke-linejoin="round" stroke-width="0.43" stroke-dasharray="3 1.5"/><path d="M341.9,258.9c.6-1.7,1.1-3.1,1.6-4.3l1.4-3.6c.7-1.7.8-1.8,1.2-2.9s.8-2.2,1.1-2.9.2-.4.4-1.2a.4.4,0,0,0,.1-.3h0c0-.2-.2-.3-.6-.6l-.4-.3-1.4-.7-.7-.3-.6-.2h-.6l-.2.2v.2a3.1,3.1,0,0,0-.5.7,4.7,4.7,0,0,0-.5,1l-.2.4v.2a.5.5,0,0,0-.2.4c-.1.1-.2.1-.1.2h0l.3.2.4.4.3.2c.1.2.2.3.2.5l-.2.3c-.2.3-.4.4-.4.5l-.3.4c-.1,0-.3.1-1.2-.3l-.7-.4-.6-.3-.4-.2c-.3-.2-.3-.3-.3-.3s0-.2.1-.7,0,.2.2-.4l.5-1.6c.5-1.2.5-1.4,1-2.6,1.3-3.6,2.6-6.5,3.2-8.1a11.5,11.5,0,0,1,.6-1.7l.3-.7a1.7,1.7,0,0,1,.4-.7c.1,0,.4-.2.7-.1a.6.6,0,0,1,.5.2c.2.2.2.4.3,1.2s.1,1,.2,1.1.3.6.6.7a.5.5,0,0,0,.5-.1c.2-.1.2-.4.3-.5s.1-2.1.1-2.1v-.9c0-.6.1-1.2.1-2a1.1,1.1,0,0,0-.3-.8l-.4-.2-.7-.4-.8-.4-.6-.4-.5-.2-.3-.3c-.1-.1,0-.2.1-.4s0,0,.2-.8a2.5,2.5,0,0,0,.2-.7,7.4,7.4,0,0,1,.6-1.4c.4-1.2,1.1-3.9,1.2-4.1.5-1.9,1.4-4.7,2.5-8.4" transform="translate(-6.4 -2.1)" fill="none" stroke="#000" stroke-linecap="round" stroke-linejoin="round" stroke-width="0.43"/><path d="M332.2,244.2a8.6,8.6,0,0,0,.3,1.3c.1,0,.1.2.2.5a1.7,1.7,0,0,0,.4.7h2.2l1.4.3,1.1.2a6.4,6.4,0,0,1,1.7,1.1,4.8,4.8,0,0,1,1.1,1.8,5.9,5.9,0,0,1,.2,1.7c-.1.4-.1.8-.3,1.6s-.1.8-.2,1.1" transform="translate(-6.4 -2.1)" fill="none" stroke="#000" stroke-linecap="round" stroke-linejoin="round" stroke-width="0.43"/><path d="M295.7,275.4h1.4" transform="translate(-6.4 -2.1)" fill="none" stroke="#000" stroke-linecap="round" stroke-linejoin="round" stroke-width="0.43"/><path d="M298.5,275.4h13.7l13-.2H344" transform="translate(-6.4 -2.1)" fill="none" stroke="#000" stroke-linecap="round" stroke-linejoin="round" stroke-width="0.43" stroke-dasharray="2.8 1.4"/><path d="M344.7,275.2h1.5" transform="translate(-6.4 -2.1)" fill="none" stroke="#000" stroke-linecap="round" stroke-linejoin="round" stroke-width="0.43"/><path d="M347.3,275.2h.6c.5,0,.7-.1.7-.2s.1-.1.1-.4.1-.6.1-.9V273c.6-17.1.8-24.9.8-24.9.3-13,.5-19.5.8-23.1,0,0,.3-3.4.6-14.8,0-.4,0-1.6-.1-3.2a10.6,10.6,0,0,0-.2-2.1c-.2.6-.9,2.3-1.2,2.9-3.6,8.8-4,9.7-5,12.3-2.3,5.9-1.7,4.8-3.7,9.5s-2.3,5.5-4.6,10.9c-1.1,2.7-2,4.9-2.5,6.3" transform="translate(-6.4 -2.1)" fill="none" stroke="#000" stroke-linecap="round" stroke-linejoin="round" stroke-width="0.43"/><path d="M294.6,275.6h-3.8v-1a6.1,6.1,0,0,1-.1-1.4v-.5c0-5.7-.3-12-.3-12-.3-6.8-.4-13.7-.6-20.5-.8-22.9-.7-22.2-.7-22.7s-.2-3.3-.2-6.8c-.1-1.4-.1-2.6-.1-3.3.6,1.6,1.5,4,2.7,7s1.4,3.5,2.8,7,2.4,6.1,3.8,9.8l2.5,6.8c.5,1.5,1,2.9,1.8,5s1.1,2.6,1.5,3.4" transform="translate(-6.4 -2.1)" fill="none" stroke="#000" stroke-linecap="round" stroke-linejoin="round" stroke-width="0.43"/><path d="M290,210.3q.9,3.4,1.5,5.4c.7,2.2,1,3.3,1.1,3.5a38.1,38.1,0,0,1,1.2,4.5c0,.1.1.2.1.3v.5h-2.2a1,1,0,0,0-.8.7v1.1a8.6,8.6,0,0,1-.1,1.5v3a10.1,10.1,0,0,0,.1,1.5c0,.6-.1,1,.2,1.2h.4s.3,0,.4-.2.2-.3.2-.8v-2.5a2,2,0,0,1,0-.8l.2-.3.4-.4a2.2,2.2,0,0,1,1-.2c.4,0,.7,0,.9.2a1.8,1.8,0,0,1,.7,1l.9,4.4a24.6,24.6,0,0,0,.6,3c0,.1.1.3.2.8a2.1,2.1,0,0,1,.1.6,1.9,1.9,0,0,1,.1.8,1.3,1.3,0,0,1,.1.6l.3,1v.4c0,.2,0,.2-.1.3s0,.5.1.6.1.3.4.5" transform="translate(-6.4 -2.1)" fill="none" stroke="#000" stroke-linecap="round" stroke-linejoin="round" stroke-width="0.43"/><path d="M296.1,225.8h-2.7c-.6,0-.8,0-.9.2a.5.5,0,0,0-.1.7l.2.3h1.6a1.8,1.8,0,0,1,1.2.3l.5.7c.2.4.2.7.3.8a12.1,12.1,0,0,0,.5,1.8c.3,1.3.8,2.5,1.5,4.9l1.2,4.6c.4,1.3.9,3.3,1.8,5.7" transform="translate(-6.4 -2.1)" fill="none" stroke="#000" stroke-linecap="round" stroke-linejoin="round" stroke-width="0.43"/><path d="M342.5,225.4l.9.3,2,.5a1.4,1.4,0,0,1,.9.4l.3.3a.6.6,0,0,1-.1.6h-2.6l-.5.3a3.3,3.3,0,0,0-.9,1.3,3,3,0,0,0-.4.8c-.2.6-.3,1-.4,1s-.8,2.2-1.3,3.4-.6,1.6-1.4,3.7-1,2.8-1.3,3.7-.4,1.3-.8,2.4l-1,2.8" transform="translate(-6.4 -2.1)" fill="none" stroke="#000" stroke-linecap="round" stroke-linejoin="round" stroke-width="0.43"/><path d="M341.5,256.1a24.8,24.8,0,0,1,1.5-3.9l1.2-2.8a8.4,8.4,0,0,0,.5-1.7l.4-1.1a5.6,5.6,0,0,1,.4-1.2,4,4,0,0,0,.3-.9,1.3,1.3,0,0,0,.1-.5.9.9,0,0,0-.6-.4l-.4-.2a1.9,1.9,0,0,0-1.1-.1h-.4a.6.6,0,0,0-.1.4c0,.1-.1.2,0,.4l.3.3.5.2c.1.2-.1.3-.2.7l-.2.6-.4,1.1c-.3.6-.9,2-1.7,4.1" transform="translate(-6.4 -2.1)" fill="none" stroke="#000" stroke-linecap="round" stroke-linejoin="round" stroke-width="0.43"/><path d="M339.1,248.1l1.3.5,2,.6" transform="translate(-6.4 -2.1)" fill="none" stroke="#000" stroke-linecap="round" stroke-linejoin="round" stroke-width="0.43"/><path d="M318.6,251.2c.3,1.1.4,1.6.2,1.8s-.4.2-.8.2a1.1,1.1,0,0,1-.8,0c-.2-.2-.2-.3-.4-1.3a3.9,3.9,0,0,1-.2-1.2,6.6,6.6,0,0,0-.4-1.1,3.8,3.8,0,0,0-1.1-1.4,3.7,3.7,0,0,0-1.4-.8,14.9,14.9,0,0,0-2.2-.5l-2-.2h-2.3a.9.9,0,0,1-.6-.4c-.1-.1,0-.3.2-.8l.3-.9c.5-1,1.5-4.2,1.5-4.2,3.6-11.6.7-1.8,6.7-21.8.6-1.7.8-2.5.9-2.8.6-2.2,1.4-5,2.4-8.3.6-1.7,1.2-3.5,1.6-3.5s.4.4.7,1.2l.3,1c.5,1.6.9,3.9,1.3,5.5s.4,1.3.7,2.3.6,1.9,2.3,8.6,2,7.5,2.1,8.2l.6,2.2c.7,3,1.1,3.6,1.8,6.2a27.4,27.4,0,0,0,.7,3.2s.5,1.6.8,3a6.4,6.4,0,0,1,.2.7,4.2,4.2,0,0,0,.1.7v.4c-.1.1-.2.2-.7.3h-.7l-1.7.2-1.8.3-2,.4c-1.5.4-1.8.5-2.1.8a2.7,2.7,0,0,0-.6,1,7.8,7.8,0,0,0-.3,1.4,3,3,0,0,0-.2,1c-.1.3,0,.4-.1.5a.9.9,0,0,1-.9.1c-.4,0-.6,0-.8-.2s-.2-.4,0-1.4a18.6,18.6,0,0,1,.5-1.9s.2-.6.4-1.4.4-1,.7-1.2h1.7l4.8-.7.8-.2.8-.3c.3-.1.5-.2.5-.4v-.3a4.1,4.1,0,0,0-.3-1l-1.2-4.1c-.3-1.2-.6-2.1-1.1-4.2-2.3-9.3-2.9-12.3-4-15.8l-1.2-4.1c-.4-1.5-.6-2.2-.7-2.7l-.8-3c-.5-1.5-.6-1.7-.8-1.7s-.5.4-1,2-.7,2.3-.9,3.1-.6,1.7-2.8,8.8c-1.4,4.4-1.3,4.4-2.6,8.6s-1.5,4.4-1.7,5.2-.8,2.1-2.3,6.9a4.1,4.1,0,0,0-.3,1c-.1.4-.1.5,0,.6s.3.3,1.1.6l1.4.3H313a6.2,6.2,0,0,1,2.7.5,3.4,3.4,0,0,1,1.5.9,14.4,14.4,0,0,1,.7,1.6l.4,1.6Z" transform="translate(-6.4 -2.1)" fill="none" stroke="#000" stroke-linecap="round" stroke-linejoin="round" stroke-width="0.43"/><path d="M302.4,246.2h4.5" transform="translate(-6.4 -2.1)" fill="none" stroke="#000" stroke-linecap="round" stroke-linejoin="round" stroke-width="0.43"/></g></svg>