<svg xmlns="http://www.w3.org/2000/svg" viewBox="0 0 166.7 595"><g id="scale-1:1"><path d="M177.2,588.3v10H35.4v-10" transform="translate(-31.8 -3.6)" fill="none" stroke="#000" stroke-miterlimit="10" stroke-width="0.5"/><line x1="32" y1="584.8" x2="32" y2="594.7" fill="none" stroke="#000" stroke-miterlimit="10" stroke-width="0.5"/><line x1="60.3" y1="584.8" x2="60.3" y2="594.7" fill="none" stroke="#000" stroke-miterlimit="10" stroke-width="0.5"/><line x1="88.7" y1="584.8" x2="88.7" y2="594.7" fill="none" stroke="#000" stroke-miterlimit="10" stroke-width="0.5"/><line x1="117" y1="584.8" x2="117" y2="594.7" fill="none" stroke="#000" stroke-miterlimit="10" stroke-width="0.5"/><text transform="translate(0 580.3)" font-size="14.17" font-family="AdobeMingStd-Light-B5pc-H, Adobe Ming Std">0</text><text transform="translate(142 580.3)" font-size="14.17" font-family="AdobeMingStd-Light-B5pc-H, Adobe Ming Std">5cm</text></g><g id="outline"><path d="M129.2,485a22.3,22.3,0,0,1-8,11.4,23,23,0,0,1-25.7.6,22.2,22.2,0,0,1-8.3-9.6,19,19,0,0,1-1.9-6.8A22.4,22.4,0,0,1,86.8,470a23.9,23.9,0,0,1,7.3-9.6,22.3,22.3,0,0,1,13.6-4.6,23.5,23.5,0,0,1,8.1,1.6,23.1,23.1,0,0,1,8.4,5.7,24.7,24.7,0,0,1,3.9,5.9A23.8,23.8,0,0,1,129.2,485Z" transform="translate(-31.8 -3.6)" fill="none" stroke="#000" stroke-miterlimit="10" stroke-width="0.43"/><path d="M176.7,478.4a69.2,69.2,0,0,1-70.4,69A70.6,70.6,0,0,1,72,537.3a67,67,0,0,1-18.3-15.9,69.8,69.8,0,0,1-15.1-42.8,69,69,0,0,1,5.5-27.1,67.8,67.8,0,0,1,11.1-17.9A69.8,69.8,0,0,1,81,414.8a67.3,67.3,0,0,1,26.4-5.4,68.9,68.9,0,0,1,29.4,6.6,69.2,69.2,0,0,1,39.9,62.4Z" transform="translate(-31.8 -3.6)" fill="none" stroke="#000" stroke-miterlimit="10" stroke-width="0.57"/><line x1="74.9" y1="387" x2="74.9" y2="389.8" fill="none" stroke="#000" stroke-linecap="round" stroke-linejoin="round" stroke-width="0.28"/><line x1="74.9" y1="392.7" x2="74.9" y2="399.8" fill="none" stroke-dasharray="5.73 2.86" stroke-linecap="round" stroke-linejoin="round" stroke-width="0.28" stroke="#000"/><line x1="74.9" y1="401.2" x2="74.9" y2="404.1" fill="none" stroke="#000" stroke-linecap="round" stroke-linejoin="round" stroke-width="0.28"/><line x1="72.7" y1="113.1" x2="72.7" y2="115.9" fill="none" stroke="#000" stroke-linecap="round" stroke-linejoin="round" stroke-width="0.28"/><line x1="72.7" y1="118.8" x2="72.7" y2="125.9" fill="none" stroke-dasharray="5.73 2.86" stroke-linecap="round" stroke-linejoin="round" stroke-width="0.28" stroke="#000"/><line x1="72.7" y1="127.3" x2="72.7" y2="130.2" fill="none" stroke="#000" stroke-linecap="round" stroke-linejoin="round" stroke-width="0.28"/><path d="M155.3,197.9a4,4,0,0,0,.2,1.3c.1.3.2.3.2.5s.1.3.1.8a3.2,3.2,0,0,1,.1.7c-.2,7.4-.5,13-.5,13l-.3,5c-.3,5.8-.2,9.3-.3,18.3-.1,13.2-.3,17-.1,25.9,0,2.4,0,4,.1,4.7s.2,8,.8,16.2c.3,3.9.5,7,.7,8.9s.4,4.4.8,7.6,1,7.3,1.9,12.9c.3,2.4,1.3,8.5,2.1,14.2,1.6,10.6,1.5,11.3,2.6,17.5s.8,3.9,2.3,12.5c0,0,1.3,7,2.8,13.6.6,2.4.9,3.5,1.3,4.8l1.5,4c0,.2.5,1.6.9,3.3a16.7,16.7,0,0,0,.1,1.9c0,.8,0,1.1-.3,1.3l-.8.2H160.4l-55.4.5H39.2c-.5-.1-.8-.1-1-.3s-.2-.3-.2-1.1v-1.7a8.7,8.7,0,0,0,.1-1.1,77.3,77.3,0,0,1,1.5-8.4c.7-2.8,1-4.2,1.1-4.3.3-1.6.7-3.3,1.4-7.2.3-1.5,1-5.1,1.5-8,.9-5.2,1.2-7.9,2.2-16.3.5-4.2,1.2-10,2.2-16.9s1.3-7.9,2.1-14.3c.5-3.6,1.1-7.8,1.6-13.5.3-2.2.9-8.2,1.1-12.8,0-1.8.1-3.7.2-5.5s.1-2.9.1-3.1c.2-4.3.1-8.6,0-10.4s.1-3.4.3-12.9c.5-21.6.6-28.3.3-33.4-.2-2.5-.3-5-.5-7.5,0,0-.3-3.5-.3-5.9a12.8,12.8,0,0,0-.1-1.9v-1a4.1,4.1,0,0,1,.1-1.1l.2-.5.3-.4c.1-.1.1-.2.1-.5v-.8a.7.7,0,0,0-.1-.5c-.1-.3-.2-.3-.3-.5a1.1,1.1,0,0,1-.2-.7c0-.8-.1-1.5-.1-2.3s0-2.6,0-3.5a5.5,5.5,0,0,1-.1-1.2V187a2,2,0,0,1,.1-.7l.3-.4a1.2,1.2,0,0,0,.2-.8,1.9,1.9,0,0,0-.3-1.2l-.3-.3-.3-.4a.8.8,0,0,0-.1-.4v-.6c-.1-.7-.1-4.1-.3-5.9,0,0-.1-2.5-.2-5.8a.8.8,0,0,1,.2-.6l.3-.4a1.3,1.3,0,0,0,.2-.9,2.4,2.4,0,0,0-.2-.8c0-.1,0-.2-.3-.5l-.5-.9a1.3,1.3,0,0,1-.2-.8c0-.9-.1-1.8-.1-2.7s-.3-3.6-.3-4.3v-1a4.9,4.9,0,0,1,.3-.7v-.6c0-.5,0-.7-.1-.8s-.4-.3-.6-.7a3.1,3.1,0,0,1-.2-.7,3.9,3.9,0,0,1-.2-1.1,11,11,0,0,1-.2-1.8c-.1-.9-.3-3-.8-7.2,0,0-.2-5.1-.3-5.7a2.3,2.3,0,0,1,.2-.9,2.2,2.2,0,0,1,1-1.2l1.2-.3h51.5s15.9-.4,52.7-.3h.7c.5.1.7.2.7.3s.3.1.5.4.1.2.3.7.1.5.2.8l.3,1.2v.9c.1,4.2,0,6.5,0,6.5s-.1,2.6-.4,5.4a3.2,3.2,0,0,1-.1.7,2.3,2.3,0,0,1-.5,1.4l-.5.5-.3.2a1.3,1.3,0,0,0-.1.6.9.9,0,0,0,.1.5l.2.2.3.4a2.3,2.3,0,0,1,.1.7c0,.4-.2,8.1-.2,9.1a4.5,4.5,0,0,1-.1,1.1,1.6,1.6,0,0,1-.3.6l-.3.3a.6.6,0,0,0-.1.4.6.6,0,0,0,0,.6l.3.2c0,.1.1.2.2.5a2.3,2.3,0,0,1,.1.7c.1.8.1,1,.1,1,0,3.6-.2,7.3-.3,10.9v.6a1.7,1.7,0,0,1-.1.8,1.3,1.3,0,0,1-.4.7l-.3.3a1.2,1.2,0,0,0-.2.8,1.3,1.3,0,0,0,.2.8l.3.4a1.7,1.7,0,0,1,.3.7,2.2,2.2,0,0,1,.1,1v1c-.1,2-.1,4-.1,5.1s-.1.6-.1.9.1.9-.1,1.2-.2.2-.4.5A3.1,3.1,0,0,0,155.3,197.9Z" transform="translate(-31.8 -3.6)" fill="none" stroke="#000" stroke-linecap="round" stroke-linejoin="round" stroke-width="0.57"/><path d="M51.2,156.1l105-1" transform="translate(-31.8 -3.6)" fill="none" stroke="#000" stroke-linejoin="round" stroke-width="1.7"/><path d="M52.5,168.6H155.9" transform="translate(-31.8 -3.6)" fill="none" stroke="#000" stroke-linejoin="round" stroke-width="1.7"/><path d="M53.3,185.1l102,.3" transform="translate(-31.8 -3.6)" fill="none" stroke="#000" stroke-linejoin="round" stroke-width="1.7"/><path d="M53.5,197.7l101.8.6" transform="translate(-31.8 -3.6)" fill="none" stroke="#000" stroke-linejoin="round" stroke-width="1.7"/><path d="M81.3,135.9c.2.8.5,1.7.7,2.7" transform="translate(-31.8 -3.6)" fill="none" stroke="#000" stroke-linecap="round" stroke-linejoin="round" stroke-width="0.43"/><path d="M82.8,141.4v.2c.5,2.1,1.2,4.4,1.8,7.1,1.1,4.7,1.3,6.1,2.8,12.5,1.1,4.8.5,2.1,1.1,4.6s.7,3.2,1.2,4.2a17.8,17.8,0,0,0,2.5,3.3,11.5,11.5,0,0,1,1.5,2,21.6,21.6,0,0,1,.8,2.3l.3,1.6s.2,1.1.5,2.5.6,2.8,1,4.2a13.8,13.8,0,0,0,1,2.4,8.8,8.8,0,0,0,1.5,1.7,7,7,0,0,0,3.6,1.6,10.6,10.6,0,0,0,2.9.2c2.7,0,4.1,0,4.4-.2,2.8-.8,4.1-3.5,4.4-4a7,7,0,0,0,.7-2.2,16.9,16.9,0,0,0,.3-2.1c.1-1.5.3-1.5.4-2.8s.1-1.3.1-1.9,0-1.2.1-1.4.9-1.6,2.1-2.9a10.1,10.1,0,0,0,1.9-2.3,8.1,8.1,0,0,0,1.1-4.4,13.4,13.4,0,0,0,0-2.3v-3.9c.1-1.5.2-2.7.3-3.7s.2-.9.6-3.6.6-4.1.7-5.1a11,11,0,0,1,.2-2.4,21.4,21.4,0,0,1,.3-2.5c.1-.6.2-.8.4-2s.4-1.7.5-2.4" transform="translate(-31.8 -3.6)" fill="none" stroke="#000" stroke-linecap="round" stroke-linejoin="round" stroke-width="0.43" stroke-dasharray="5.75 2.87"/><path d="M124,138.3h0a17,17,0,0,0,.3-2.8" transform="translate(-31.8 -3.6)" fill="none" stroke="#000" stroke-linecap="round" stroke-linejoin="round" stroke-width="0.43"/><path d="M86.2,387.6c.1-.8.2-1.7.4-2.8" transform="translate(-31.8 -3.6)" fill="none" stroke="#000" stroke-linecap="round" stroke-linejoin="round" stroke-width="0.43"/><path d="M86.9,382c.3-2.3.7-5,1.1-8,.7-5.4,1.5-11.7,1.9-17,.1-2.7.2-4.2.2-4.2.2-4.4.3-6.1.3-6.1.1-3.5.1-4,.6-4.8l1.9-2.9a12.1,12.1,0,0,0,1.3-2.1c.3-.9.1-1,.4-3.4s.3-2,.4-3.3.1-.9.1-1.8a4.2,4.2,0,0,1,.2-1.1,3.4,3.4,0,0,1,.8-1.4,8.3,8.3,0,0,1,2.5-2.4l2.2-.7a13.8,13.8,0,0,1,3.6-.5h2.4a14.4,14.4,0,0,1,3.4.4,6.4,6.4,0,0,1,3.1,1.9,8.7,8.7,0,0,1,1.5,2.7,34.4,34.4,0,0,1,1.1,4.4,41.2,41.2,0,0,1,1,4.8c.2,1.4.2,1.9.4,2.9a13.4,13.4,0,0,0,1.2,3.2c1.1,2.3,1.7,5.4,2.8,11.1l2.3,11.1c1.5,6.9,1.8,7.9,2.9,13.2.3,1.9.7,3.6,1,5.1" transform="translate(-31.8 -3.6)" fill="none" stroke="#000" stroke-linecap="round" stroke-linejoin="round" stroke-width="0.43" stroke-dasharray="5.76 2.88"/><path d="M127.8,384.5c.2,1.1.3,2,.5,2.8" transform="translate(-31.8 -3.6)" fill="none" stroke="#000" stroke-linecap="round" stroke-linejoin="round" stroke-width="0.43"/><path d="M118.6,112a55.5,55.5,0,0,1-14.6,1.9,54.1,54.1,0,0,1-11-1.1,57.9,57.9,0,0,1-10.7-3.4A56.5,56.5,0,0,1,62.7,95.5a44.1,44.1,0,0,1-4.9-6.3,53.5,53.5,0,0,1-6.1-12.3,53.5,53.5,0,0,1-2.9-12c-.2-2.1-.2-4.4-.2-4.4s0-2.4,0-3.9a60.9,60.9,0,0,1,1.9-12.5c.1-.2.2-.6.5-.7s.6.1,1.3.2h3.3l.8-.3c.4-.2.7-.1,2-.1h1.4a3.3,3.3,0,0,1,1,0c.5,0,.7-.1.9.1s.2.2.4.5l.6.6c.8.6.7.8,1.2,1.1l.7.3a4.4,4.4,0,0,0,1,.2c.7.2.6.5,1.3.7a2.5,2.5,0,0,0,1.3.2h1.1l.8-.2,1.2-.6h.9l.6-.3a1.7,1.7,0,0,1,1.2,0l.8.3h2.6l.9.2.7.3.6.5c.2.1.3,0,.8,0l1.1.4.7.3c.6.4.8.4.8.6s-.1.4-.4,1a4.9,4.9,0,0,0-.4,1.2,17.3,17.3,0,0,0-1.1,3.6,11.2,11.2,0,0,0-.3,2.2,14.1,14.1,0,0,0-.1,2.2,32.3,32.3,0,0,0,.3,4.6c.6,4.1,3.4,9,7.1,12.5A32.8,32.8,0,0,0,90.9,78a20.4,20.4,0,0,0,6.4,2.9,22.2,22.2,0,0,0,6.7.9,17.8,17.8,0,0,0,3.3-.2,22.6,22.6,0,0,0,11.1-4.8,24.5,24.5,0,0,0,5.2-5.8,20.7,20.7,0,0,0,3.2-7.8,33.9,33.9,0,0,0,.2-3.9,17.6,17.6,0,0,0-.3-3.8,24.4,24.4,0,0,0-1.1-4.2l-.3-1.2c-.2-.4-.2-.5-.2-.6s.3-.6,1.7-1.3,1.3-.5,2-1a8.9,8.9,0,0,1,1.6-.7h1l.5.2.7.2a3.7,3.7,0,0,0,1.7.2h1.6a12.4,12.4,0,0,0,2,0l1.4-.2,1.3-.2,1.4-.3,1.1-.3.9-.3h2a8.5,8.5,0,0,1,1.6,0h.8c.3.1.3.3.6.5a1,1,0,0,0,.5.4,6.7,6.7,0,0,0,2.1,1l1,.2c1.5.1,1.9-.1,3.2,0s2.1.2,2.4.8.2.6.3,1.5.1,1,.2,1.4a21,21,0,0,0,.2,2.1c.1,1.6.1,4.1.1,5.7a63.2,63.2,0,0,1-1.6,13.2,51,51,0,0,1-6.1,14.7,55.3,55.3,0,0,1-16.5,17.2A57.1,57.1,0,0,1,118.6,112Z" transform="translate(-31.8 -3.6)" fill="none" stroke="#000" stroke-linecap="round" stroke-linejoin="round" stroke-width="0.57"/><path d="M51.3,41.1q.6-1.8,1.5-3.9" transform="translate(-31.8 -3.6)" fill="none" stroke="#000" stroke-linecap="round" stroke-linejoin="round" stroke-width="0.43"/><path d="M54,34.7a50.8,50.8,0,0,1,5-8.3A55.9,55.9,0,0,1,75,11.9a56.6,56.6,0,0,1,29-8.1,55.5,55.5,0,0,1,29,8.3,56.3,56.3,0,0,1,21.9,25.3c.5,1.1.9,2.2,1.3,3.2" transform="translate(-31.8 -3.6)" fill="none" stroke="#000" stroke-linecap="round" stroke-linejoin="round" stroke-width="0.43" stroke-dasharray="8.21 2.74"/><path d="M156.6,42c.5,1.5.9,2.9,1.2,4" transform="translate(-31.8 -3.6)" fill="none" stroke="#000" stroke-linecap="round" stroke-linejoin="round" stroke-width="0.43"/><path d="M123.9,47.4a18.1,18.1,0,0,0-2.5-3.5" transform="translate(-31.8 -3.6)" fill="none" stroke="#000" stroke-linecap="round" stroke-linejoin="round" stroke-width="0.43"/><path d="M119.3,41.7a23.2,23.2,0,0,0-18.7-5.8,22.6,22.6,0,0,0-13,6.6" transform="translate(-31.8 -3.6)" fill="none" stroke="#000" stroke-linecap="round" stroke-linejoin="round" stroke-width="0.43" stroke-dasharray="9.15 3.05"/><path d="M86.5,43.6A19.8,19.8,0,0,0,83.9,47" transform="translate(-31.8 -3.6)" fill="none" stroke="#000" stroke-linecap="round" stroke-linejoin="round" stroke-width="0.43"/><path d="M157.8,305.9c-.7-.8-1.5-2.1-2.6-3.7l-3.6-5.6-8.7-13.8c-5.7-8.9-7-10.7-10.5-16.5l-3-5.1c-4.6-8-4.9-8.6-7.4-12.8l-3.2-5.4c-1.1-1.9-1.9-3.4-2.4-4.1-3.1-5.5-5.9-10.4-9.4-15.9-1.7-2.6-3.7-5.8-3.9-5.7s3.1,6.4,7,13.7c1.9,3.6,3.1,5.9,4.9,9.1s3.9,6.8,5.8,9.9c6.9,11.6,6.5,11.7,11.9,20.7l8,12.8,6.5,10.3c2.8,4.4,6.6,10.5,11.4,17.8" transform="translate(-31.8 -3.6)"/><path d="M160.5,323.4l-2.4-3c-4.2-5.3-6.2-7.9-8.2-10.8s-2.7-4.2-5.5-8l-3.6-4.8-3.6-4.4-3-3.8c-1.5-1.9-2.5-3.4-3.5-4.8l-4-6L123,272c-2.5-4-2.9-4.9-5.2-8.5l-2.9-4.3c-2.4-3.6-4.2-6.6-6.8-10.9l-3.7-5.9c-1.7-2.6-3.5-5.4-3.8-5.2s1.5,3.6,2.2,5l3.6,6.8,1.8,3.1a15.9,15.9,0,0,1,1.3,2.2c.8,1.2,1.3,2.2,1.9,3.3l3.5,6.3c.5.9,2.7,4.9,5.7,9.3l2.2,3.1,2.6,3.4,6,7.9,3.4,4.5,3.4,4.2c.2.3,1.5,1.8,3,3.8s3.3,4.3,5.5,7.4l2.7,3.9c2,2.9,2.1,3.1,2.9,4.1s2.8,3.9,3.9,5.4l4.8,6" transform="translate(-31.8 -3.6)"/><path d="M163.1,341.7a13.5,13.5,0,0,1-2.1-2.1,13.8,13.8,0,0,1-1.3-1.8c-.6-.9-.7-.9-3.6-4.7s-2.6-3.5-3.9-5l-2.9-3.5-5.5-6.9-5.1-6.4-3.9-4.9-3.4-4.5c-3-4.2-6.2-8.7-9.4-13.9a58.4,58.4,0,0,0-3.4-5.4c-.6-.9-1.3-1.7-2.3-3.2s-.9-1.6-1.8-2.9-1.4-2-3.1-4.6-2.5-4-2.8-4.4l-1.1-2c-.4-.8-1.4-2.6-2.5-4.3s-3-4.4-3.4-4.1,1.6,4.8,3.1,7.9l2.6,4.6c2,3.3,3.7,5.8,5.5,8.5l3.3,4.8c2,3,3.4,5,4.1,6.2,3.2,4.8,3.7,5.1,8.9,12.5s5.1,7.8,7.8,11.3l5.7,7.3c.6.7,1.3,1.5,2.1,2.6l3.8,4.4c1.9,2.1,2.5,2.6,3.8,4.3l1.3,1.9c1.6,2.2,2.9,3.8,4.4,5.5s3.3,3.9,5.6,6.2" transform="translate(-31.8 -3.6)"/><path d="M166.6,361l-9.2-11.6c-5.7-6.8-10.9-12.9-15.7-18.9l-4.1-5.2-3.9-5c-2.4-3-6.9-8.9-11.9-15.9-3.2-4.5-5.8-8.4-9.4-13.3l-1.6-2.2c-2.9-4-3.7-5.3-5.7-7.9s-3.7-5-4-4.9,1.7,3.4,2.7,5.1c3.3,5.6,6,9.6,9.2,14.3,4.9,7.2,4,6.1,7.3,10.9s5.1,7.5,8.2,11.7c0,0,4.4,6,7.9,9.8l1.6,1.7,1.7,1.9,1.8,2.3c.4.5.4.6,2.2,2.7l1.9,2.5c2.3,2.8,5.4,6.4,7.2,8.7,4.2,4.9,4.1,5.1,7.7,9.5s5.4,6.4,7,8.1" transform="translate(-31.8 -3.6)"/><path d="M41.4,367.2c.9-1.1,2.2-3,3.7-5.2l3.3-5.1c3.8-5.8,10.1-14.9,14.8-21.7,6.5-9.5,5.1-7.3,10.6-15.3,4.3-6.2,11.5-16.8,17.3-25.6l3.1-4.5s2.7-4,7.1-9.9c.7-.8,1.4-1.8,1.5-1.7s-.4,1-1.7,3.3-3.6,6-4.7,7.7c-2.8,4.5-2.3,3.9-4.3,7.1-.8,1.3-1.1,1.6-4.6,6.9l-3.3,5.1c-3.4,5-5.7,8.9-6.8,10.6-3.2,5.2-7.1,10.9-14.8,22.4L47.1,363.8c-3,4.4-5.5,8.1-7.3,10.6" transform="translate(-31.8 -3.6)"/><path d="M45,345.8c1.3-2.3,2.5-4.2,3.4-5.6a70.8,70.8,0,0,1,5.6-7.9,23.9,23.9,0,0,0,1.9-2.5l1.3-2c1.2-1.9,2.1-3.3,2.9-4.4l1.5-1.9,1.1-1.3a7.7,7.7,0,0,0,1.1-1.7c.6-1.3,1.4-2.4,2.1-3.7s.7-1.2,3-4.7c1.1-1.5,2.1-3.1,3.1-4.6,2.9-4.3,3.4-5.3,7.8-12.1,1.4-2.1.8-1.1,3.8-5.8s5.2-7.9,7.3-11.2,4.5-7,4.9-7.5,2.2-3.8,4.3-6.7c1-1.3,2.5-3.4,2.7-3.3s-1.3,3.4-2.8,6L98,268c-1.3,2.1-1.6,2.8-2.7,4.7s-1.9,3-2.5,3.8c-2.6,4-5.4,9-10.2,16.8-3.5,5.8-6.1,9.9-8.3,13.4-4.7,7.6-2.7,4.2-8.1,12.6l-2.9,4.2-2,2.6c-1.8,2.3-2.3,3.3-5.7,8.3s-3.2,4.7-5.4,8c-.8,1.3-1.4,2.3-2.7,4.2l-3.2,4.8" transform="translate(-31.8 -3.6)"/><path d="M47.3,327.4l2.7-3.7c1-1.6,1.4-2.4,2.7-4.6l2.6-4.1c2.1-3.3,2.3-3.9,3.8-6.2l2.2-3.1c2-2.7,2.7-3.9,6.7-10s3.6-5.5,6.4-9.8,3.7-5.6,5.7-8.9l4.6-7.7,5.9-9.7,4.6-7.3c.1-.2,1.9-3,4.4-6.7a50.1,50.1,0,0,1,3.4-4.7c.2.1-1.6,3.3-2.5,5s-2.8,4.9-4.2,7.2l-4.2,7.1-6.2,10.4c-4.6,7.7-4.2,6.8-8.4,13.8-2,3.4-2.9,5.1-4.8,7.9s-1.5,2.3-3.9,6l-3.9,5.8c-4.5,6.8-5.3,7.8-9.2,13.8-1.7,2.5-1.6,2.5-3.2,4.8L46.9,331" transform="translate(-31.8 -3.6)"/><path d="M50.5,305.1l2.2-3.2c1.3-2,1.9-3,2.8-4.6,3-4.8,4-5.9,6.2-9.6a36.1,36.1,0,0,0,2-3.2l1.5-2.3c1.1-1.7,1.5-2,2.4-3.4l1.3-2.2c1.8-3.5,8.1-13.4,10.7-17.4,7.6-11.9,6.1-9.2,10-15.5,1.3-2.1,6.7-10.7,9.9-14.8l2.6-3.5,2.7-3.7-2.8,4.4-3.1,5.4a28.7,28.7,0,0,1-2,3.1c-2.4,4-4.3,7.4-5.6,9.8s-4.8,7.7-10.5,16.5c-3.4,5.4-3,4.6-5.6,8.7L65,286c-6.3,10.1-7.2,11.5-9,14.5l-6.3,10.4" transform="translate(-31.8 -3.6)"/></g></svg>