<svg xmlns="http://www.w3.org/2000/svg" xmlns:xlink="http://www.w3.org/1999/xlink" viewBox="0 0 315.3 386.6"><defs><pattern id="_10_lpi_10_" data-name="10 lpi 10%" width="72" height="72" patternTransform="translate(55.3 -14.3) rotate(45)" patternUnits="userSpaceOnUse" viewBox="0 0 72 72"><rect width="72" height="72" fill="none"/><line x1="71.8" y1="68.4" x2="74.6" y2="68.4" fill="none" stroke="#1d1d1b" stroke-linecap="round" stroke-linejoin="round" stroke-width="0.28"/><line x1="71.8" y1="54" x2="74.6" y2="54" fill="none" stroke="#1d1d1b" stroke-linecap="round" stroke-linejoin="round" stroke-width="0.28"/><line x1="71.8" y1="39.6" x2="74.6" y2="39.6" fill="none" stroke="#1d1d1b" stroke-linecap="round" stroke-linejoin="round" stroke-width="0.28"/><line x1="71.8" y1="25.2" x2="74.6" y2="25.2" fill="none" stroke="#1d1d1b" stroke-linecap="round" stroke-linejoin="round" stroke-width="0.28"/><line x1="71.8" y1="10.8" x2="74.6" y2="10.8" fill="none" stroke="#1d1d1b" stroke-linecap="round" stroke-linejoin="round" stroke-width="0.28"/><line x1="71.8" y1="61.2" x2="74.6" y2="61.2" fill="none" stroke="#1d1d1b" stroke-linecap="round" stroke-linejoin="round" stroke-width="0.28"/><line x1="71.8" y1="46.8" x2="74.6" y2="46.8" fill="none" stroke="#1d1d1b" stroke-linecap="round" stroke-linejoin="round" stroke-width="0.28"/><line x1="71.8" y1="32.4" x2="74.6" y2="32.4" fill="none" stroke="#1d1d1b" stroke-linecap="round" stroke-linejoin="round" stroke-width="0.28"/><line x1="71.8" y1="18" x2="74.6" y2="18" fill="none" stroke="#1d1d1b" stroke-linecap="round" stroke-linejoin="round" stroke-width="0.28"/><line x1="71.8" y1="3.6" x2="74.6" y2="3.6" fill="none" stroke="#1d1d1b" stroke-linecap="round" stroke-linejoin="round" stroke-width="0.28"/><line x1="67.5" y1="72" x2="70.3" y2="72" fill="none" stroke="#1d1d1b" stroke-linecap="round" stroke-linejoin="round" stroke-width="0.28"/><line x1="67.5" y1="57.6" x2="70.3" y2="57.6" fill="none" stroke="#1d1d1b" stroke-linecap="round" stroke-linejoin="round" stroke-width="0.28"/><line x1="67.5" y1="43.2" x2="70.3" y2="43.2" fill="none" stroke="#1d1d1b" stroke-linecap="round" stroke-linejoin="round" stroke-width="0.28"/><line x1="67.5" y1="28.8" x2="70.3" y2="28.8" fill="none" stroke="#1d1d1b" stroke-linecap="round" stroke-linejoin="round" stroke-width="0.28"/><line x1="67.5" y1="14.4" x2="70.3" y2="14.4" fill="none" stroke="#1d1d1b" stroke-linecap="round" stroke-linejoin="round" stroke-width="0.28"/><line x1="67.5" y1="64.8" x2="70.3" y2="64.8" fill="none" stroke="#1d1d1b" stroke-linecap="round" stroke-linejoin="round" stroke-width="0.28"/><line x1="67.5" y1="50.4" x2="70.3" y2="50.4" fill="none" stroke="#1d1d1b" stroke-linecap="round" stroke-linejoin="round" stroke-width="0.28"/><line x1="67.5" y1="36" x2="70.3" y2="36" fill="none" stroke="#1d1d1b" stroke-linecap="round" stroke-linejoin="round" stroke-width="0.28"/><line x1="67.5" y1="21.6" x2="70.3" y2="21.6" fill="none" stroke="#1d1d1b" stroke-linecap="round" stroke-linejoin="round" stroke-width="0.28"/><line x1="67.5" y1="7.2" x2="70.3" y2="7.2" fill="none" stroke="#1d1d1b" stroke-linecap="round" stroke-linejoin="round" stroke-width="0.28"/><line x1="-0.3" y1="68.4" x2="2.6" y2="68.4" fill="none" stroke="#1d1d1b" stroke-linecap="round" stroke-linejoin="round" stroke-width="0.28"/><line x1="5.3" y1="68.4" x2="68.1" y2="68.4" fill="none" stroke-dasharray="5.35 2.67" stroke-linecap="round" stroke-linejoin="round" stroke-width="0.28" stroke="#1d1d1b"/><line x1="69.4" y1="68.4" x2="72.3" y2="68.4" fill="none" stroke="#1d1d1b" stroke-linecap="round" stroke-linejoin="round" stroke-width="0.28"/><line x1="-0.3" y1="54" x2="2.6" y2="54" fill="none" stroke="#1d1d1b" stroke-linecap="round" stroke-linejoin="round" stroke-width="0.28"/><line x1="5.3" y1="54" x2="68.1" y2="54" fill="none" stroke-dasharray="5.35 2.67" stroke-linecap="round" stroke-linejoin="round" stroke-width="0.28" stroke="#1d1d1b"/><line x1="69.4" y1="54" x2="72.3" y2="54" fill="none" stroke="#1d1d1b" stroke-linecap="round" stroke-linejoin="round" stroke-width="0.28"/><line x1="-0.3" y1="39.6" x2="2.6" y2="39.6" fill="none" stroke="#1d1d1b" stroke-linecap="round" stroke-linejoin="round" stroke-width="0.28"/><line x1="5.3" y1="39.6" x2="68.1" y2="39.6" fill="none" stroke-dasharray="5.35 2.67" stroke-linecap="round" stroke-linejoin="round" stroke-width="0.28" stroke="#1d1d1b"/><line x1="69.4" y1="39.6" x2="72.3" y2="39.6" fill="none" stroke="#1d1d1b" stroke-linecap="round" stroke-linejoin="round" stroke-width="0.28"/><line x1="-0.3" y1="25.2" x2="2.6" y2="25.2" fill="none" stroke="#1d1d1b" stroke-linecap="round" stroke-linejoin="round" stroke-width="0.28"/><line x1="5.3" y1="25.2" x2="68.1" y2="25.2" fill="none" stroke-dasharray="5.35 2.67" stroke-linecap="round" stroke-linejoin="round" stroke-width="0.28" stroke="#1d1d1b"/><line x1="69.4" y1="25.2" x2="72.3" y2="25.2" fill="none" stroke="#1d1d1b" stroke-linecap="round" stroke-linejoin="round" stroke-width="0.28"/><line x1="-0.3" y1="10.8" x2="2.6" y2="10.8" fill="none" stroke="#1d1d1b" stroke-linecap="round" stroke-linejoin="round" stroke-width="0.28"/><line x1="5.3" y1="10.8" x2="68.1" y2="10.8" fill="none" stroke-dasharray="5.35 2.67" stroke-linecap="round" stroke-linejoin="round" stroke-width="0.28" stroke="#1d1d1b"/><line x1="69.4" y1="10.8" x2="72.3" y2="10.8" fill="none" stroke="#1d1d1b" stroke-linecap="round" stroke-linejoin="round" stroke-width="0.28"/><line x1="-0.3" y1="61.2" x2="2.6" y2="61.2" fill="none" stroke="#1d1d1b" stroke-linecap="round" stroke-linejoin="round" stroke-width="0.28"/><line x1="5.3" y1="61.2" x2="68.1" y2="61.2" fill="none" stroke-dasharray="5.35 2.67" stroke-linecap="round" stroke-linejoin="round" stroke-width="0.28" stroke="#1d1d1b"/><line x1="69.4" y1="61.2" x2="72.3" y2="61.2" fill="none" stroke="#1d1d1b" stroke-linecap="round" stroke-linejoin="round" stroke-width="0.28"/><line x1="-0.3" y1="46.8" x2="2.6" y2="46.8" fill="none" stroke="#1d1d1b" stroke-linecap="round" stroke-linejoin="round" stroke-width="0.28"/><line x1="5.3" y1="46.8" x2="68.1" y2="46.8" fill="none" stroke-dasharray="5.35 2.67" stroke-linecap="round" stroke-linejoin="round" stroke-width="0.28" stroke="#1d1d1b"/><line x1="69.4" y1="46.8" x2="72.3" y2="46.8" fill="none" stroke="#1d1d1b" stroke-linecap="round" stroke-linejoin="round" stroke-width="0.28"/><line x1="-0.3" y1="32.4" x2="2.6" y2="32.4" fill="none" stroke="#1d1d1b" stroke-linecap="round" stroke-linejoin="round" stroke-width="0.28"/><line x1="5.3" y1="32.4" x2="68.1" y2="32.4" fill="none" stroke-dasharray="5.35 2.67" stroke-linecap="round" stroke-linejoin="round" stroke-width="0.28" stroke="#1d1d1b"/><line x1="69.4" y1="32.4" x2="72.3" y2="32.4" fill="none" stroke="#1d1d1b" stroke-linecap="round" stroke-linejoin="round" stroke-width="0.28"/><line x1="-0.3" y1="18" x2="2.6" y2="18" fill="none" stroke="#1d1d1b" stroke-linecap="round" stroke-linejoin="round" stroke-width="0.28"/><line x1="5.3" y1="18" x2="68.1" y2="18" fill="none" stroke-dasharray="5.35 2.67" stroke-linecap="round" stroke-linejoin="round" stroke-width="0.28" stroke="#1d1d1b"/><line x1="69.4" y1="18" x2="72.3" y2="18" fill="none" stroke="#1d1d1b" stroke-linecap="round" stroke-linejoin="round" stroke-width="0.28"/><line x1="-0.3" y1="3.6" x2="2.6" y2="3.6" fill="none" stroke="#1d1d1b" stroke-linecap="round" stroke-linejoin="round" stroke-width="0.28"/><line x1="5.3" y1="3.6" x2="68.1" y2="3.6" fill="none" stroke-dasharray="5.35 2.67" stroke-linecap="round" stroke-linejoin="round" stroke-width="0.28" stroke="#1d1d1b"/><line x1="69.4" y1="3.6" x2="72.3" y2="3.6" fill="none" stroke="#1d1d1b" stroke-linecap="round" stroke-linejoin="round" stroke-width="0.28"/><line x1="-4.5" y1="72" x2="-1.7" y2="72" fill="none" stroke="#1d1d1b" stroke-linecap="round" stroke-linejoin="round" stroke-width="0.28"/><line x1="1.1" y1="72" x2="82.7" y2="72" fill="none" stroke-dasharray="5.54 2.77" stroke-linecap="round" stroke-linejoin="round" stroke-width="0.28" stroke="#1d1d1b"/><line x1="84.1" y1="72" x2="87" y2="72" fill="none" stroke="#1d1d1b" stroke-linecap="round" stroke-linejoin="round" stroke-width="0.28"/><line x1="-4.5" y1="57.6" x2="-1.7" y2="57.6" fill="none" stroke="#1d1d1b" stroke-linecap="round" stroke-linejoin="round" stroke-width="0.28"/><line x1="1.1" y1="57.6" x2="82.7" y2="57.6" fill="none" stroke-dasharray="5.54 2.77" stroke-linecap="round" stroke-linejoin="round" stroke-width="0.28" stroke="#1d1d1b"/><line x1="84.1" y1="57.6" x2="87" y2="57.6" fill="none" stroke="#1d1d1b" stroke-linecap="round" stroke-linejoin="round" stroke-width="0.28"/><line x1="-4.5" y1="43.2" x2="-1.7" y2="43.2" fill="none" stroke="#1d1d1b" stroke-linecap="round" stroke-linejoin="round" stroke-width="0.28"/><line x1="1.1" y1="43.2" x2="82.7" y2="43.2" fill="none" stroke-dasharray="5.54 2.77" stroke-linecap="round" stroke-linejoin="round" stroke-width="0.28" stroke="#1d1d1b"/><line x1="84.1" y1="43.2" x2="87" y2="43.2" fill="none" stroke="#1d1d1b" stroke-linecap="round" stroke-linejoin="round" stroke-width="0.28"/><line x1="-4.5" y1="28.8" x2="-1.7" y2="28.8" fill="none" stroke="#1d1d1b" stroke-linecap="round" stroke-linejoin="round" stroke-width="0.28"/><line x1="1.1" y1="28.8" x2="82.7" y2="28.8" fill="none" stroke-dasharray="5.54 2.77" stroke-linecap="round" stroke-linejoin="round" stroke-width="0.28" stroke="#1d1d1b"/><line x1="84.1" y1="28.8" x2="87" y2="28.8" fill="none" stroke="#1d1d1b" stroke-linecap="round" stroke-linejoin="round" stroke-width="0.28"/><line x1="-4.5" y1="14.4" x2="-1.7" y2="14.4" fill="none" stroke="#1d1d1b" stroke-linecap="round" stroke-linejoin="round" stroke-width="0.28"/><line x1="1.1" y1="14.4" x2="82.7" y2="14.4" fill="none" stroke-dasharray="5.54 2.77" stroke-linecap="round" stroke-linejoin="round" stroke-width="0.28" stroke="#1d1d1b"/><line x1="84.1" y1="14.4" x2="87" y2="14.4" fill="none" stroke="#1d1d1b" stroke-linecap="round" stroke-linejoin="round" stroke-width="0.28"/><line x1="-4.5" y1="64.8" x2="-1.7" y2="64.8" fill="none" stroke="#1d1d1b" stroke-linecap="round" stroke-linejoin="round" stroke-width="0.28"/><line x1="1.1" y1="64.8" x2="82.7" y2="64.8" fill="none" stroke-dasharray="5.54 2.77" stroke-linecap="round" stroke-linejoin="round" stroke-width="0.28" stroke="#1d1d1b"/><line x1="84.1" y1="64.8" x2="87" y2="64.8" fill="none" stroke="#1d1d1b" stroke-linecap="round" stroke-linejoin="round" stroke-width="0.28"/><line x1="-4.5" y1="50.4" x2="-1.7" y2="50.4" fill="none" stroke="#1d1d1b" stroke-linecap="round" stroke-linejoin="round" stroke-width="0.28"/><line x1="1.1" y1="50.4" x2="82.7" y2="50.4" fill="none" stroke-dasharray="5.54 2.77" stroke-linecap="round" stroke-linejoin="round" stroke-width="0.28" stroke="#1d1d1b"/><line x1="84.1" y1="50.4" x2="87" y2="50.4" fill="none" stroke="#1d1d1b" stroke-linecap="round" stroke-linejoin="round" stroke-width="0.28"/><line x1="-4.5" y1="36" x2="-1.7" y2="36" fill="none" stroke="#1d1d1b" stroke-linecap="round" stroke-linejoin="round" stroke-width="0.28"/><line x1="1.1" y1="36" x2="82.7" y2="36" fill="none" stroke-dasharray="5.54 2.77" stroke-linecap="round" stroke-linejoin="round" stroke-width="0.28" stroke="#1d1d1b"/><line x1="84.1" y1="36" x2="87" y2="36" fill="none" stroke="#1d1d1b" stroke-linecap="round" stroke-linejoin="round" stroke-width="0.28"/><line x1="-4.5" y1="21.6" x2="-1.7" y2="21.6" fill="none" stroke="#1d1d1b" stroke-linecap="round" stroke-linejoin="round" stroke-width="0.28"/><line x1="1.1" y1="21.6" x2="82.7" y2="21.6" fill="none" stroke-dasharray="5.54 2.77" stroke-linecap="round" stroke-linejoin="round" stroke-width="0.28" stroke="#1d1d1b"/><line x1="84.1" y1="21.6" x2="87" y2="21.6" fill="none" stroke="#1d1d1b" stroke-linecap="round" stroke-linejoin="round" stroke-width="0.28"/><line x1="-4.5" y1="7.2" x2="-1.7" y2="7.2" fill="none" stroke="#1d1d1b" stroke-linecap="round" stroke-linejoin="round" stroke-width="0.28"/><line x1="1.1" y1="7.2" x2="82.7" y2="7.2" fill="none" stroke-dasharray="5.54 2.77" stroke-linecap="round" stroke-linejoin="round" stroke-width="0.28" stroke="#1d1d1b"/><line x1="84.1" y1="7.2" x2="87" y2="7.2" fill="none" stroke="#1d1d1b" stroke-linecap="round" stroke-linejoin="round" stroke-width="0.28"/><line x1="-2.6" y1="68.4" x2="0.3" y2="68.4" fill="none" stroke="#1d1d1b" stroke-linecap="round" stroke-linejoin="round" stroke-width="0.28"/><line x1="-2.6" y1="54" x2="0.3" y2="54" fill="none" stroke="#1d1d1b" stroke-linecap="round" stroke-linejoin="round" stroke-width="0.28"/><line x1="-2.6" y1="39.6" x2="0.3" y2="39.6" fill="none" stroke="#1d1d1b" stroke-linecap="round" stroke-linejoin="round" stroke-width="0.28"/><line x1="-2.6" y1="25.2" x2="0.3" y2="25.2" fill="none" stroke="#1d1d1b" stroke-linecap="round" stroke-linejoin="round" stroke-width="0.28"/><line x1="-2.6" y1="10.8" x2="0.3" y2="10.8" fill="none" stroke="#1d1d1b" stroke-linecap="round" stroke-linejoin="round" stroke-width="0.28"/><line x1="-2.6" y1="61.2" x2="0.3" y2="61.2" fill="none" stroke="#1d1d1b" stroke-linecap="round" stroke-linejoin="round" stroke-width="0.28"/><line x1="-2.6" y1="46.8" x2="0.3" y2="46.8" fill="none" stroke="#1d1d1b" stroke-linecap="round" stroke-linejoin="round" stroke-width="0.28"/><line x1="-2.6" y1="32.4" x2="0.3" y2="32.4" fill="none" stroke="#1d1d1b" stroke-linecap="round" stroke-linejoin="round" stroke-width="0.28"/><line x1="-2.6" y1="18" x2="0.3" y2="18" fill="none" stroke="#1d1d1b" stroke-linecap="round" stroke-linejoin="round" stroke-width="0.28"/><line x1="-2.6" y1="3.6" x2="0.3" y2="3.6" fill="none" stroke="#1d1d1b" stroke-linecap="round" stroke-linejoin="round" stroke-width="0.28"/><line x1="-70.9" y1="72" x2="10.7" y2="72" fill="none" stroke-dasharray="5.54 2.77" stroke-linecap="round" stroke-linejoin="round" stroke-width="0.28" stroke="#1d1d1b"/><line x1="12.1" y1="72" x2="15" y2="72" fill="none" stroke="#1d1d1b" stroke-linecap="round" stroke-linejoin="round" stroke-width="0.28"/><line x1="-70.9" y1="57.6" x2="10.7" y2="57.6" fill="none" stroke-dasharray="5.54 2.77" stroke-linecap="round" stroke-linejoin="round" stroke-width="0.28" stroke="#1d1d1b"/><line x1="12.1" y1="57.6" x2="15" y2="57.6" fill="none" stroke="#1d1d1b" stroke-linecap="round" stroke-linejoin="round" stroke-width="0.28"/><line x1="-70.9" y1="43.2" x2="10.7" y2="43.2" fill="none" stroke-dasharray="5.54 2.77" stroke-linecap="round" stroke-linejoin="round" stroke-width="0.28" stroke="#1d1d1b"/><line x1="12.1" y1="43.2" x2="15" y2="43.2" fill="none" stroke="#1d1d1b" stroke-linecap="round" stroke-linejoin="round" stroke-width="0.28"/><line x1="-70.9" y1="28.8" x2="10.7" y2="28.8" fill="none" stroke-dasharray="5.54 2.77" stroke-linecap="round" stroke-linejoin="round" stroke-width="0.28" stroke="#1d1d1b"/><line x1="12.1" y1="28.8" x2="15" y2="28.8" fill="none" stroke="#1d1d1b" stroke-linecap="round" stroke-linejoin="round" stroke-width="0.28"/><line x1="-70.9" y1="14.4" x2="10.7" y2="14.4" fill="none" stroke-dasharray="5.54 2.77" stroke-linecap="round" stroke-linejoin="round" stroke-width="0.28" stroke="#1d1d1b"/><line x1="12.1" y1="14.4" x2="15" y2="14.4" fill="none" stroke="#1d1d1b" stroke-linecap="round" stroke-linejoin="round" stroke-width="0.28"/><line x1="-70.9" y1="64.8" x2="10.7" y2="64.8" fill="none" stroke-dasharray="5.54 2.77" stroke-linecap="round" stroke-linejoin="round" stroke-width="0.28" stroke="#1d1d1b"/><line x1="12.1" y1="64.8" x2="15" y2="64.8" fill="none" stroke="#1d1d1b" stroke-linecap="round" stroke-linejoin="round" stroke-width="0.28"/><line x1="-70.9" y1="50.4" x2="10.7" y2="50.4" fill="none" stroke-dasharray="5.54 2.77" stroke-linecap="round" stroke-linejoin="round" stroke-width="0.28" stroke="#1d1d1b"/><line x1="12.1" y1="50.4" x2="15" y2="50.4" fill="none" stroke="#1d1d1b" stroke-linecap="round" stroke-linejoin="round" stroke-width="0.28"/><line x1="-70.9" y1="36" x2="10.7" y2="36" fill="none" stroke-dasharray="5.54 2.77" stroke-linecap="round" stroke-linejoin="round" stroke-width="0.28" stroke="#1d1d1b"/><line x1="12.1" y1="36" x2="15" y2="36" fill="none" stroke="#1d1d1b" stroke-linecap="round" stroke-linejoin="round" stroke-width="0.28"/><line x1="-70.9" y1="21.6" x2="10.7" y2="21.6" fill="none" stroke-dasharray="5.54 2.77" stroke-linecap="round" stroke-linejoin="round" stroke-width="0.28" stroke="#1d1d1b"/><line x1="12.1" y1="21.6" x2="15" y2="21.6" fill="none" stroke="#1d1d1b" stroke-linecap="round" stroke-linejoin="round" stroke-width="0.28"/><line x1="-70.9" y1="7.2" x2="10.7" y2="7.2" fill="none" stroke-dasharray="5.54 2.77" stroke-linecap="round" stroke-linejoin="round" stroke-width="0.28" stroke="#1d1d1b"/><line x1="12.1" y1="7.2" x2="15" y2="7.2" fill="none" stroke="#1d1d1b" stroke-linecap="round" stroke-linejoin="round" stroke-width="0.28"/><line x1="67.5" x2="70.3" fill="none" stroke="#1d1d1b" stroke-linecap="round" stroke-linejoin="round" stroke-width="0.28"/><line x1="1.1" x2="82.7" fill="none" stroke-dasharray="5.54 2.77" stroke-linecap="round" stroke-linejoin="round" stroke-width="0.28" stroke="#1d1d1b"/><line x1="-70.9" x2="10.7" fill="none" stroke-dasharray="5.54 2.77" stroke-linecap="round" stroke-linejoin="round" stroke-width="0.28" stroke="#1d1d1b"/><line x1="12.1" x2="15" fill="none" stroke="#1d1d1b" stroke-linecap="round" stroke-linejoin="round" stroke-width="0.28"/></pattern><pattern id="_10_lpi_10_3" data-name="10 lpi 10%" width="72" height="72" patternTransform="translate(53.8 -8.7) rotate(45)" patternUnits="userSpaceOnUse" viewBox="0 0 72 72"><rect width="72" height="72" fill="none"/><line x1="71.8" y1="68.4" x2="74.6" y2="68.4" fill="none" stroke="#1d1d1b" stroke-linecap="round" stroke-linejoin="round" stroke-width="0.28"/><line x1="71.8" y1="54" x2="74.6" y2="54" fill="none" stroke="#1d1d1b" stroke-linecap="round" stroke-linejoin="round" stroke-width="0.28"/><line x1="71.8" y1="39.6" x2="74.6" y2="39.6" fill="none" stroke="#1d1d1b" stroke-linecap="round" stroke-linejoin="round" stroke-width="0.28"/><line x1="71.8" y1="25.2" x2="74.6" y2="25.2" fill="none" stroke="#1d1d1b" stroke-linecap="round" stroke-linejoin="round" stroke-width="0.28"/><line x1="71.8" y1="10.8" x2="74.6" y2="10.8" fill="none" stroke="#1d1d1b" stroke-linecap="round" stroke-linejoin="round" stroke-width="0.28"/><line x1="71.8" y1="61.2" x2="74.6" y2="61.2" fill="none" stroke="#1d1d1b" stroke-linecap="round" stroke-linejoin="round" stroke-width="0.28"/><line x1="71.8" y1="46.8" x2="74.6" y2="46.8" fill="none" stroke="#1d1d1b" stroke-linecap="round" stroke-linejoin="round" stroke-width="0.28"/><line x1="71.8" y1="32.4" x2="74.6" y2="32.4" fill="none" stroke="#1d1d1b" stroke-linecap="round" stroke-linejoin="round" stroke-width="0.28"/><line x1="71.8" y1="18" x2="74.6" y2="18" fill="none" stroke="#1d1d1b" stroke-linecap="round" stroke-linejoin="round" stroke-width="0.28"/><line x1="71.8" y1="3.6" x2="74.6" y2="3.6" fill="none" stroke="#1d1d1b" stroke-linecap="round" stroke-linejoin="round" stroke-width="0.28"/><line x1="67.5" y1="72" x2="70.3" y2="72" fill="none" stroke="#1d1d1b" stroke-linecap="round" stroke-linejoin="round" stroke-width="0.28"/><line x1="67.5" y1="57.6" x2="70.3" y2="57.6" fill="none" stroke="#1d1d1b" stroke-linecap="round" stroke-linejoin="round" stroke-width="0.28"/><line x1="67.5" y1="43.2" x2="70.3" y2="43.2" fill="none" stroke="#1d1d1b" stroke-linecap="round" stroke-linejoin="round" stroke-width="0.28"/><line x1="67.5" y1="28.8" x2="70.3" y2="28.8" fill="none" stroke="#1d1d1b" stroke-linecap="round" stroke-linejoin="round" stroke-width="0.28"/><line x1="67.5" y1="14.4" x2="70.3" y2="14.4" fill="none" stroke="#1d1d1b" stroke-linecap="round" stroke-linejoin="round" stroke-width="0.28"/><line x1="67.5" y1="64.8" x2="70.3" y2="64.8" fill="none" stroke="#1d1d1b" stroke-linecap="round" stroke-linejoin="round" stroke-width="0.28"/><line x1="67.5" y1="50.4" x2="70.3" y2="50.4" fill="none" stroke="#1d1d1b" stroke-linecap="round" stroke-linejoin="round" stroke-width="0.28"/><line x1="67.5" y1="36" x2="70.3" y2="36" fill="none" stroke="#1d1d1b" stroke-linecap="round" stroke-linejoin="round" stroke-width="0.28"/><line x1="67.5" y1="21.6" x2="70.3" y2="21.6" fill="none" stroke="#1d1d1b" stroke-linecap="round" stroke-linejoin="round" stroke-width="0.28"/><line x1="67.5" y1="7.2" x2="70.3" y2="7.2" fill="none" stroke="#1d1d1b" stroke-linecap="round" stroke-linejoin="round" stroke-width="0.28"/><line x1="-0.3" y1="68.4" x2="2.6" y2="68.4" fill="none" stroke="#1d1d1b" stroke-linecap="round" stroke-linejoin="round" stroke-width="0.28"/><line x1="5.3" y1="68.4" x2="68.1" y2="68.4" fill="none" stroke-dasharray="5.35 2.67" stroke-linecap="round" stroke-linejoin="round" stroke-width="0.28" stroke="#1d1d1b"/><line x1="69.4" y1="68.4" x2="72.3" y2="68.4" fill="none" stroke="#1d1d1b" stroke-linecap="round" stroke-linejoin="round" stroke-width="0.28"/><line x1="-0.3" y1="54" x2="2.6" y2="54" fill="none" stroke="#1d1d1b" stroke-linecap="round" stroke-linejoin="round" stroke-width="0.28"/><line x1="5.3" y1="54" x2="68.1" y2="54" fill="none" stroke-dasharray="5.35 2.67" stroke-linecap="round" stroke-linejoin="round" stroke-width="0.28" stroke="#1d1d1b"/><line x1="69.4" y1="54" x2="72.3" y2="54" fill="none" stroke="#1d1d1b" stroke-linecap="round" stroke-linejoin="round" stroke-width="0.28"/><line x1="-0.3" y1="39.6" x2="2.6" y2="39.6" fill="none" stroke="#1d1d1b" stroke-linecap="round" stroke-linejoin="round" stroke-width="0.28"/><line x1="5.3" y1="39.6" x2="68.1" y2="39.6" fill="none" stroke-dasharray="5.35 2.67" stroke-linecap="round" stroke-linejoin="round" stroke-width="0.28" stroke="#1d1d1b"/><line x1="69.4" y1="39.6" x2="72.3" y2="39.6" fill="none" stroke="#1d1d1b" stroke-linecap="round" stroke-linejoin="round" stroke-width="0.28"/><line x1="-0.3" y1="25.2" x2="2.6" y2="25.2" fill="none" stroke="#1d1d1b" stroke-linecap="round" stroke-linejoin="round" stroke-width="0.28"/><line x1="5.3" y1="25.2" x2="68.1" y2="25.2" fill="none" stroke-dasharray="5.35 2.67" stroke-linecap="round" stroke-linejoin="round" stroke-width="0.28" stroke="#1d1d1b"/><line x1="69.4" y1="25.2" x2="72.3" y2="25.2" fill="none" stroke="#1d1d1b" stroke-linecap="round" stroke-linejoin="round" stroke-width="0.28"/><line x1="-0.3" y1="10.8" x2="2.6" y2="10.8" fill="none" stroke="#1d1d1b" stroke-linecap="round" stroke-linejoin="round" stroke-width="0.28"/><line x1="5.3" y1="10.8" x2="68.1" y2="10.8" fill="none" stroke-dasharray="5.35 2.67" stroke-linecap="round" stroke-linejoin="round" stroke-width="0.28" stroke="#1d1d1b"/><line x1="69.4" y1="10.8" x2="72.3" y2="10.8" fill="none" stroke="#1d1d1b" stroke-linecap="round" stroke-linejoin="round" stroke-width="0.28"/><line x1="-0.3" y1="61.2" x2="2.6" y2="61.2" fill="none" stroke="#1d1d1b" stroke-linecap="round" stroke-linejoin="round" stroke-width="0.28"/><line x1="5.3" y1="61.2" x2="68.1" y2="61.2" fill="none" stroke-dasharray="5.35 2.67" stroke-linecap="round" stroke-linejoin="round" stroke-width="0.28" stroke="#1d1d1b"/><line x1="69.4" y1="61.2" x2="72.3" y2="61.2" fill="none" stroke="#1d1d1b" stroke-linecap="round" stroke-linejoin="round" stroke-width="0.28"/><line x1="-0.3" y1="46.8" x2="2.6" y2="46.8" fill="none" stroke="#1d1d1b" stroke-linecap="round" stroke-linejoin="round" stroke-width="0.28"/><line x1="5.3" y1="46.8" x2="68.1" y2="46.8" fill="none" stroke-dasharray="5.35 2.67" stroke-linecap="round" stroke-linejoin="round" stroke-width="0.28" stroke="#1d1d1b"/><line x1="69.4" y1="46.8" x2="72.3" y2="46.8" fill="none" stroke="#1d1d1b" stroke-linecap="round" stroke-linejoin="round" stroke-width="0.28"/><line x1="-0.3" y1="32.4" x2="2.6" y2="32.4" fill="none" stroke="#1d1d1b" stroke-linecap="round" stroke-linejoin="round" stroke-width="0.28"/><line x1="5.3" y1="32.4" x2="68.1" y2="32.4" fill="none" stroke-dasharray="5.35 2.67" stroke-linecap="round" stroke-linejoin="round" stroke-width="0.28" stroke="#1d1d1b"/><line x1="69.4" y1="32.4" x2="72.3" y2="32.4" fill="none" stroke="#1d1d1b" stroke-linecap="round" stroke-linejoin="round" stroke-width="0.28"/><line x1="-0.3" y1="18" x2="2.6" y2="18" fill="none" stroke="#1d1d1b" stroke-linecap="round" stroke-linejoin="round" stroke-width="0.28"/><line x1="5.3" y1="18" x2="68.1" y2="18" fill="none" stroke-dasharray="5.35 2.67" stroke-linecap="round" stroke-linejoin="round" stroke-width="0.28" stroke="#1d1d1b"/><line x1="69.4" y1="18" x2="72.3" y2="18" fill="none" stroke="#1d1d1b" stroke-linecap="round" stroke-linejoin="round" stroke-width="0.28"/><line x1="-0.3" y1="3.6" x2="2.6" y2="3.6" fill="none" stroke="#1d1d1b" stroke-linecap="round" stroke-linejoin="round" stroke-width="0.28"/><line x1="5.3" y1="3.6" x2="68.1" y2="3.6" fill="none" stroke-dasharray="5.35 2.67" stroke-linecap="round" stroke-linejoin="round" stroke-width="0.28" stroke="#1d1d1b"/><line x1="69.4" y1="3.6" x2="72.3" y2="3.6" fill="none" stroke="#1d1d1b" stroke-linecap="round" stroke-linejoin="round" stroke-width="0.28"/><line x1="-4.5" y1="72" x2="-1.7" y2="72" fill="none" stroke="#1d1d1b" stroke-linecap="round" stroke-linejoin="round" stroke-width="0.28"/><line x1="1.1" y1="72" x2="82.7" y2="72" fill="none" stroke-dasharray="5.54 2.77" stroke-linecap="round" stroke-linejoin="round" stroke-width="0.28" stroke="#1d1d1b"/><line x1="84.1" y1="72" x2="87" y2="72" fill="none" stroke="#1d1d1b" stroke-linecap="round" stroke-linejoin="round" stroke-width="0.28"/><line x1="-4.5" y1="57.6" x2="-1.7" y2="57.6" fill="none" stroke="#1d1d1b" stroke-linecap="round" stroke-linejoin="round" stroke-width="0.28"/><line x1="1.1" y1="57.6" x2="82.7" y2="57.6" fill="none" stroke-dasharray="5.54 2.77" stroke-linecap="round" stroke-linejoin="round" stroke-width="0.28" stroke="#1d1d1b"/><line x1="84.1" y1="57.6" x2="87" y2="57.6" fill="none" stroke="#1d1d1b" stroke-linecap="round" stroke-linejoin="round" stroke-width="0.28"/><line x1="-4.5" y1="43.2" x2="-1.7" y2="43.2" fill="none" stroke="#1d1d1b" stroke-linecap="round" stroke-linejoin="round" stroke-width="0.28"/><line x1="1.1" y1="43.2" x2="82.7" y2="43.2" fill="none" stroke-dasharray="5.54 2.77" stroke-linecap="round" stroke-linejoin="round" stroke-width="0.28" stroke="#1d1d1b"/><line x1="84.1" y1="43.2" x2="87" y2="43.2" fill="none" stroke="#1d1d1b" stroke-linecap="round" stroke-linejoin="round" stroke-width="0.28"/><line x1="-4.5" y1="28.8" x2="-1.7" y2="28.8" fill="none" stroke="#1d1d1b" stroke-linecap="round" stroke-linejoin="round" stroke-width="0.28"/><line x1="1.1" y1="28.8" x2="82.7" y2="28.8" fill="none" stroke-dasharray="5.54 2.77" stroke-linecap="round" stroke-linejoin="round" stroke-width="0.28" stroke="#1d1d1b"/><line x1="84.1" y1="28.8" x2="87" y2="28.8" fill="none" stroke="#1d1d1b" stroke-linecap="round" stroke-linejoin="round" stroke-width="0.28"/><line x1="-4.5" y1="14.4" x2="-1.7" y2="14.4" fill="none" stroke="#1d1d1b" stroke-linecap="round" stroke-linejoin="round" stroke-width="0.28"/><line x1="1.1" y1="14.4" x2="82.7" y2="14.4" fill="none" stroke-dasharray="5.54 2.77" stroke-linecap="round" stroke-linejoin="round" stroke-width="0.28" stroke="#1d1d1b"/><line x1="84.1" y1="14.4" x2="87" y2="14.4" fill="none" stroke="#1d1d1b" stroke-linecap="round" stroke-linejoin="round" stroke-width="0.28"/><line x1="-4.5" y1="64.8" x2="-1.7" y2="64.8" fill="none" stroke="#1d1d1b" stroke-linecap="round" stroke-linejoin="round" stroke-width="0.28"/><line x1="1.1" y1="64.8" x2="82.7" y2="64.8" fill="none" stroke-dasharray="5.54 2.77" stroke-linecap="round" stroke-linejoin="round" stroke-width="0.28" stroke="#1d1d1b"/><line x1="84.1" y1="64.8" x2="87" y2="64.8" fill="none" stroke="#1d1d1b" stroke-linecap="round" stroke-linejoin="round" stroke-width="0.28"/><line x1="-4.5" y1="50.4" x2="-1.7" y2="50.4" fill="none" stroke="#1d1d1b" stroke-linecap="round" stroke-linejoin="round" stroke-width="0.28"/><line x1="1.1" y1="50.4" x2="82.7" y2="50.4" fill="none" stroke-dasharray="5.54 2.77" stroke-linecap="round" stroke-linejoin="round" stroke-width="0.28" stroke="#1d1d1b"/><line x1="84.1" y1="50.4" x2="87" y2="50.4" fill="none" stroke="#1d1d1b" stroke-linecap="round" stroke-linejoin="round" stroke-width="0.28"/><line x1="-4.5" y1="36" x2="-1.7" y2="36" fill="none" stroke="#1d1d1b" stroke-linecap="round" stroke-linejoin="round" stroke-width="0.28"/><line x1="1.1" y1="36" x2="82.7" y2="36" fill="none" stroke-dasharray="5.54 2.77" stroke-linecap="round" stroke-linejoin="round" stroke-width="0.28" stroke="#1d1d1b"/><line x1="84.1" y1="36" x2="87" y2="36" fill="none" stroke="#1d1d1b" stroke-linecap="round" stroke-linejoin="round" stroke-width="0.28"/><line x1="-4.5" y1="21.6" x2="-1.7" y2="21.6" fill="none" stroke="#1d1d1b" stroke-linecap="round" stroke-linejoin="round" stroke-width="0.28"/><line x1="1.1" y1="21.6" x2="82.7" y2="21.6" fill="none" stroke-dasharray="5.54 2.77" stroke-linecap="round" stroke-linejoin="round" stroke-width="0.28" stroke="#1d1d1b"/><line x1="84.1" y1="21.6" x2="87" y2="21.6" fill="none" stroke="#1d1d1b" stroke-linecap="round" stroke-linejoin="round" stroke-width="0.28"/><line x1="-4.5" y1="7.2" x2="-1.7" y2="7.2" fill="none" stroke="#1d1d1b" stroke-linecap="round" stroke-linejoin="round" stroke-width="0.28"/><line x1="1.1" y1="7.2" x2="82.7" y2="7.2" fill="none" stroke-dasharray="5.54 2.77" stroke-linecap="round" stroke-linejoin="round" stroke-width="0.28" stroke="#1d1d1b"/><line x1="84.1" y1="7.2" x2="87" y2="7.2" fill="none" stroke="#1d1d1b" stroke-linecap="round" stroke-linejoin="round" stroke-width="0.28"/><line x1="-2.6" y1="68.4" x2="0.3" y2="68.4" fill="none" stroke="#1d1d1b" stroke-linecap="round" stroke-linejoin="round" stroke-width="0.28"/><line x1="-2.6" y1="54" x2="0.3" y2="54" fill="none" stroke="#1d1d1b" stroke-linecap="round" stroke-linejoin="round" stroke-width="0.28"/><line x1="-2.6" y1="39.6" x2="0.3" y2="39.6" fill="none" stroke="#1d1d1b" stroke-linecap="round" stroke-linejoin="round" stroke-width="0.28"/><line x1="-2.6" y1="25.2" x2="0.3" y2="25.2" fill="none" stroke="#1d1d1b" stroke-linecap="round" stroke-linejoin="round" stroke-width="0.28"/><line x1="-2.6" y1="10.8" x2="0.3" y2="10.8" fill="none" stroke="#1d1d1b" stroke-linecap="round" stroke-linejoin="round" stroke-width="0.28"/><line x1="-2.6" y1="61.2" x2="0.3" y2="61.2" fill="none" stroke="#1d1d1b" stroke-linecap="round" stroke-linejoin="round" stroke-width="0.28"/><line x1="-2.6" y1="46.8" x2="0.3" y2="46.8" fill="none" stroke="#1d1d1b" stroke-linecap="round" stroke-linejoin="round" stroke-width="0.28"/><line x1="-2.6" y1="32.4" x2="0.3" y2="32.4" fill="none" stroke="#1d1d1b" stroke-linecap="round" stroke-linejoin="round" stroke-width="0.28"/><line x1="-2.6" y1="18" x2="0.3" y2="18" fill="none" stroke="#1d1d1b" stroke-linecap="round" stroke-linejoin="round" stroke-width="0.28"/><line x1="-2.6" y1="3.6" x2="0.3" y2="3.6" fill="none" stroke="#1d1d1b" stroke-linecap="round" stroke-linejoin="round" stroke-width="0.28"/><line x1="-70.9" y1="72" x2="10.7" y2="72" fill="none" stroke-dasharray="5.54 2.77" stroke-linecap="round" stroke-linejoin="round" stroke-width="0.28" stroke="#1d1d1b"/><line x1="12.1" y1="72" x2="15" y2="72" fill="none" stroke="#1d1d1b" stroke-linecap="round" stroke-linejoin="round" stroke-width="0.28"/><line x1="-70.9" y1="57.6" x2="10.7" y2="57.6" fill="none" stroke-dasharray="5.54 2.77" stroke-linecap="round" stroke-linejoin="round" stroke-width="0.28" stroke="#1d1d1b"/><line x1="12.1" y1="57.6" x2="15" y2="57.6" fill="none" stroke="#1d1d1b" stroke-linecap="round" stroke-linejoin="round" stroke-width="0.28"/><line x1="-70.9" y1="43.2" x2="10.7" y2="43.2" fill="none" stroke-dasharray="5.54 2.77" stroke-linecap="round" stroke-linejoin="round" stroke-width="0.28" stroke="#1d1d1b"/><line x1="12.1" y1="43.2" x2="15" y2="43.2" fill="none" stroke="#1d1d1b" stroke-linecap="round" stroke-linejoin="round" stroke-width="0.28"/><line x1="-70.9" y1="28.8" x2="10.7" y2="28.8" fill="none" stroke-dasharray="5.54 2.77" stroke-linecap="round" stroke-linejoin="round" stroke-width="0.28" stroke="#1d1d1b"/><line x1="12.1" y1="28.8" x2="15" y2="28.8" fill="none" stroke="#1d1d1b" stroke-linecap="round" stroke-linejoin="round" stroke-width="0.28"/><line x1="-70.9" y1="14.4" x2="10.7" y2="14.4" fill="none" stroke-dasharray="5.54 2.77" stroke-linecap="round" stroke-linejoin="round" stroke-width="0.28" stroke="#1d1d1b"/><line x1="12.1" y1="14.4" x2="15" y2="14.4" fill="none" stroke="#1d1d1b" stroke-linecap="round" stroke-linejoin="round" stroke-width="0.28"/><line x1="-70.9" y1="64.8" x2="10.7" y2="64.8" fill="none" stroke-dasharray="5.54 2.77" stroke-linecap="round" stroke-linejoin="round" stroke-width="0.28" stroke="#1d1d1b"/><line x1="12.1" y1="64.8" x2="15" y2="64.8" fill="none" stroke="#1d1d1b" stroke-linecap="round" stroke-linejoin="round" stroke-width="0.28"/><line x1="-70.9" y1="50.4" x2="10.7" y2="50.4" fill="none" stroke-dasharray="5.54 2.77" stroke-linecap="round" stroke-linejoin="round" stroke-width="0.28" stroke="#1d1d1b"/><line x1="12.1" y1="50.4" x2="15" y2="50.4" fill="none" stroke="#1d1d1b" stroke-linecap="round" stroke-linejoin="round" stroke-width="0.28"/><line x1="-70.9" y1="36" x2="10.7" y2="36" fill="none" stroke-dasharray="5.54 2.77" stroke-linecap="round" stroke-linejoin="round" stroke-width="0.28" stroke="#1d1d1b"/><line x1="12.1" y1="36" x2="15" y2="36" fill="none" stroke="#1d1d1b" stroke-linecap="round" stroke-linejoin="round" stroke-width="0.28"/><line x1="-70.9" y1="21.6" x2="10.7" y2="21.6" fill="none" stroke-dasharray="5.54 2.77" stroke-linecap="round" stroke-linejoin="round" stroke-width="0.28" stroke="#1d1d1b"/><line x1="12.1" y1="21.6" x2="15" y2="21.6" fill="none" stroke="#1d1d1b" stroke-linecap="round" stroke-linejoin="round" stroke-width="0.28"/><line x1="-70.9" y1="7.2" x2="10.7" y2="7.2" fill="none" stroke-dasharray="5.54 2.77" stroke-linecap="round" stroke-linejoin="round" stroke-width="0.28" stroke="#1d1d1b"/><line x1="12.1" y1="7.2" x2="15" y2="7.2" fill="none" stroke="#1d1d1b" stroke-linecap="round" stroke-linejoin="round" stroke-width="0.28"/><line x1="67.5" x2="70.3" fill="none" stroke="#1d1d1b" stroke-linecap="round" stroke-linejoin="round" stroke-width="0.28"/><line x1="1.1" x2="82.7" fill="none" stroke-dasharray="5.54 2.77" stroke-linecap="round" stroke-linejoin="round" stroke-width="0.28" stroke="#1d1d1b"/><line x1="-70.9" x2="10.7" fill="none" stroke-dasharray="5.54 2.77" stroke-linecap="round" stroke-linejoin="round" stroke-width="0.28" stroke="#1d1d1b"/><line x1="12.1" x2="15" fill="none" stroke="#1d1d1b" stroke-linecap="round" stroke-linejoin="round" stroke-width="0.28"/></pattern></defs><g id="scale-1:100"><path d="M145.7,379.5v9.9H4v-9.9" transform="translate(-0.3 -3.1)" fill="none" stroke="#000" stroke-miterlimit="10" stroke-width="0.5"/><line x1="32" y1="376.4" x2="32" y2="386.3" fill="none" stroke="#000" stroke-miterlimit="10" stroke-width="0.5"/><line x1="60.3" y1="376.4" x2="60.3" y2="386.3" fill="none" stroke="#000" stroke-miterlimit="10" stroke-width="0.5"/><line x1="88.7" y1="376.4" x2="88.7" y2="386.3" fill="none" stroke="#000" stroke-miterlimit="10" stroke-width="0.5"/><line x1="117" y1="376.4" x2="117" y2="386.3" fill="none" stroke="#000" stroke-miterlimit="10" stroke-width="0.5"/><text transform="translate(0 371.9)" font-size="14.17" font-family="SimSun">0</text><text transform="translate(142 371.9)" font-size="14.17" font-family="SimSun">5m</text></g><g id="outline"><rect x="176.1" y="374.2" width="21.2" height="10.88" stroke="#000" stroke-miterlimit="10" stroke-width="0.28" fill="url(#_10_lpi_10_)"/><path d="M105.9,337.6H93.8l-2,.3h-8a9,9,0,0,1-2.4.2H76.6l-1.1.2a18,18,0,0,1-2.4,0H71l-2,.2a17.7,17.7,0,0,1-3.3.2h-19a27.3,27.3,0,0,1-3.1,0H42.1l-1.8.3-4.8.3H33.3l-2.9.2-2.7.2-2.9-.2a26.6,26.6,0,0,1-3.5-.4l-2.4-.3c-1.2-.1-1.2,0-1.4-.2s-.5-2.4-.3-6.9c0-1.6-.1-1.7,0-3.8s.2-2.5.2-3.8-.2-2.1-.5-4.9-.4-3-.5-3.6-.2-1.4-.3-2.5a49.5,49.5,0,0,1-.7-6.6,12.3,12.3,0,0,0-.2-2.8,8.5,8.5,0,0,1-.4-1.7,6.7,6.7,0,0,1-.1-1.6v-.4a1.5,1.5,0,0,0,.1-.6.8.8,0,0,0,0-.7,22.5,22.5,0,0,1,0-2.6c.1-1,.2-1.7.3-2.3l.2-1.6c.1-.7.1-1.2.3-3.1s.1-2.3.1-2.4c.1-1.7.1-3,.1-4.3v-3.9c0-1.1.1-1.6.1-1.9s.1-.8.1-1.6a9.5,9.5,0,0,0,.1-1.4c0-.7-.1-.8-.1-1.7v-1.1c0-.6.1-.8.1-1.5a7.2,7.2,0,0,1,.1-1.3v-2.2a12.5,12.5,0,0,1,.2-2v-1.2a15.5,15.5,0,0,0-.1-2.1,14.7,14.7,0,0,1,.1-1.6v-1.8a15,15,0,0,0-.3-2.9l-.2-1.4c-.1-.7,0-1-.1-1.9a25.7,25.7,0,0,0-.2-3.3,6.2,6.2,0,0,0-.1-1.3,6.2,6.2,0,0,0-.1-1.5,4.5,4.5,0,0,0-.3-1.6l-.4-2.6a33.1,33.1,0,0,1-.3-3.4v-1.2a3.1,3.1,0,0,0-.1-1.1,2.4,2.4,0,0,0-.3-1.2,12.3,12.3,0,0,1-.3-2,16,16,0,0,1-.4-2.5c0-.3-.1-.5-.1-.9a3.1,3.1,0,0,0-.2-1l-.2-.8c-.1-.3-.1-.6-.2-1v-.6c-.1-1-.2-1.8-.2-2.1A15.5,15.5,0,0,1,12,222c-.1-.5-.1-.8-.3-1.9a12.4,12.4,0,0,1-.2-2.1,24.9,24.9,0,0,1-.3-2.6c-.2-3.2-1-5.6-1.6-10.8a28.5,28.5,0,0,1-.3-4.4c-.1-1.5,0-1.9-.1-3.7s-.1-1.9-.2-3.5-.3-2.6-.3-3.6,0-1.6-.2-2.7-.2-1.3-.2-1.6a30.7,30.7,0,0,1-.7-5.4c-.2-2.2-.1-2.1-.3-5-.1-.7-.1-1.4-.3-3s-.2-2.5-.4-4.2a24.7,24.7,0,0,1-.2-5.1c0-.5.1-.9.1-1.8s.4-2.3.6-3.8.3-2.9.4-5.2.1-1.4.2-2.2.2-1.3.4-2.5.1-1.2.1-1.5v-5.5c.1-1.1.2-1.3.3-2.6s.2-1.1.3-4.2.3-4,.3-4.7,0-1.2-.1-3.7v-4.2c.1-1.1.2-2.6.3-5.7a31.3,31.3,0,0,0,.1-5.2c0-1-.1-1-.2-2.3s-.1-3.3-.2-6.6-.1-2.9-.1-5.7V89.3a56.1,56.1,0,0,0-.1-8,4.9,4.9,0,0,1-.2-1.7,12.3,12.3,0,0,1,.2-2,14.6,14.6,0,0,0-.1-2.8c-.1-2.8.1-2.7-.1-5.1s-.2-1.5-.2-2.2A18.1,18.1,0,0,0,8.6,65a4.1,4.1,0,0,0-.1-1.2,36.6,36.6,0,0,1-.1-5V55.5c-.1-4.6-.2-8.3,0-12.4,0-1,.1-1.9.1-3.4V35.6c.1-3,.4-2.7.3-4.2A15.8,15.8,0,0,1,9,28.6a1.9,1.9,0,0,1,.4-1A3.4,3.4,0,0,1,10,27l1.1-.5h1.3c1.7.1,1.8-.1,3.3,0h2.4c1-.1,1.3.1,1.8-.1l.4-.4,2.5-2.3,6-5.6c4.3-4.1,4.4-4.3,5.7-5.3s1.6-1.3,2.8-2.5l2-1.9,1.1-1,1.2-1.2c1.2-1.3,1.1-1,1.4-1.4l.7-.7.6-.4c.1-.2.2-.2.3-.2H45l.3.3.7.5,2,1.9c.9.9,1,.8,1.7,1.5s2.1,2.6,3.7,4.1L55,13.3l.6.5.6.7.7.8.9,1.3A19.9,19.9,0,0,0,59.7,19a7.4,7.4,0,0,0,1.6,1.4,9.1,9.1,0,0,0,1.6.4l2,.2,2.6.3h7l3.8-.2h1.9a15.8,15.8,0,0,0,3.4-.7,22.7,22.7,0,0,1,2.8-.7l2.1-.4a28.8,28.8,0,0,1,3.5-.4h2.3l2.4-.2h1.8a42,42,0,0,0,7.3-.2,9.4,9.4,0,0,0,2.7-.4,4.3,4.3,0,0,1,1.7-.4l1.2.2,1.4.2,4.5.2h3.3l5.6-.2h2.5l4-.3a9.5,9.5,0,0,0,2.2-.4l1.1-.3h2l2.1.2a18.6,18.6,0,0,1,2.9.6l2.6.5,2.9.3c2.6.3,2.3.4,3.1.4l3.3.2,1.3.2,1.3.2H162l.8.2,1,.3h3.5l1.4.3.8.2a5.9,5.9,0,0,0,1.7.2l3.6.3,3.4.6,2.9.5,2.2.5,1.6.3h4.2l1.5.3,3.1.4,2.4.3,4.3.6a36.7,36.7,0,0,0,4,.3h5.5c3.3.1,7.7-.1,8-.1a79.4,79.4,0,0,0,9.2-.5,20,20,0,0,1,3.6-.4h4.1c2,0,3-.1,4.1,0s1.7.2,2.9.1h5.7l1.5.2,3.4-.2,1.8-.3c2.3-.4,2.3-.6,3.9-.8s1.3,0,2.4-.2l1.3-.3,3.3-.4c3.2-.3,3.9-.1,7-.4l3.5-.5,4.5-.4h2.1l3.1-.4,2.3-.2,4-.4h1.8l2.5-.4,1.8-.2h.8l1.2-.2h.8c.5,0,.6-.1.8,0a1.6,1.6,0,0,1,.6.5c.1.1.2.3.3.9a4.5,4.5,0,0,0,.2.8c.2,1.6.6,3.2.9,4.9a55.2,55.2,0,0,0,1.7,7c.8,2.9,1,2.6,1.4,4.3s.1,2.7.6,6.3c.1.7.2,1.9.6,4.3s.5,2.9.6,4.4a22.2,22.2,0,0,1,.2,2.7c.2,4.5.2,5,.3,6.2s.1.9.2,1.9a12.8,12.8,0,0,0,.1,1.9v3.3c-.1,1.1,0,2.5,0,5.3s.1,5.1.2,7.6.7,7.2.8,7.8.1,1.2.2,2.5.1,1.1.1,1.6c.1,3.2,0,7,.3,11.1a59.9,59.9,0,0,0,.8,7.5c0,.3.2,1.1.4,2.3s.2,1.9.2,2.4.1,3.3.2,6.2.1,3.7.1,4.6.2,3.1.4,3.9a15.4,15.4,0,0,1,.2,2.4c0,.8-.1,1.1-.1,2s-.1.7.1,3.3.2,2.7.2,3.7a12.5,12.5,0,0,1-.2,2.4c-.1,1.4-.1,3.1-.1,6.5,0,6,.1,7.1,0,9.6s-.3,2.2-.3,3.7a10.2,10.2,0,0,1-.2,2.3c-.1.5-.1.7-.3,1.5a18.3,18.3,0,0,0-.3,1.9c-.1,1-.2,1.4-.4,4.4s-.2,3-.2,3.2a12.6,12.6,0,0,1-.1,1.6,6.9,6.9,0,0,1-.3.8,15.2,15.2,0,0,0-.2,3.2v1a2.5,2.5,0,0,1-.1.8,8.6,8.6,0,0,1-.3,1.3,6.3,6.3,0,0,0-.4,2.1c-.3,1.7-.1,1.9-.4,3.2a8.9,8.9,0,0,0-.3,1.4,19.7,19.7,0,0,0-.2,2.6c0,.5-.1,1-.2,1.9s-.3,1.7-.4,2.7a24,24,0,0,0-.3,2.8c-.3,3.6-.4,3.3-.7,7.1-.1,1-.2,2-.4,3.5a12.2,12.2,0,0,1-.3,2.1,23.6,23.6,0,0,1-.7,3.3c-.4,1.9-.2,1.7-.7,4.5a37.2,37.2,0,0,0-.7,3.9c-.1.7-.1,1.2-.3,2.2s-.2,1.3-.3,2.2a10.8,10.8,0,0,0-.2,2.2c-.1,1.3-.3,2.5-.7,5s-.6,3.5-2.2,11.3c-.5,2.3-.7,3.4-.9,4-1.1,5.1-1.7,8-2.5,10.7-.1.5-.4,1.2-.6,2.4s-.3,1.6-.7,3.3a30.2,30.2,0,0,1-.8,3.3c-.1.5-.3,1.1-.5,1.9s-.1.8-.2,1.4-.3,1-.5,1.9-.4,1.6-.6,2.4,0,1-.1,1.8-.5,1.1-.7,2-.1,1.1-.3,2.8a11.2,11.2,0,0,1-.3,2.4,21.8,21.8,0,0,1-.5,3.5c-.3,1.5-.4,1.4-.9,3.7s-.5,2.7-.5,2.7c-.3,1.8-.2,1.8-.4,2.5a20,20,0,0,0-1,2.6,8.1,8.1,0,0,0-.4,1.9l-.6,3.2c-.4,2.9-.5,2.6-.8,4.4s-.2,1.9-.5,3.9a9.9,9.9,0,0,1-.4,2,26.4,26.4,0,0,1-.7,3l-.6,3.1-.5,3a1.1,1.1,0,0,1-.1.5c0,.3,0,.4-.1.5s-.1.3-.9.6l-1.1.2c-1.1,0-.8.2-3.1.3h-8.8l-2,.2h-20l-2.5.2a9.6,9.6,0,0,1-2.2.3h-3.7c-2,.1-2.2-.1-4.6,0a29.1,29.1,0,0,1-3,0l-2.2-.3" transform="translate(-0.3 -3.1)" fill="none" stroke="#000" stroke-miterlimit="10" stroke-width="0.57"/><path d="M181.6,43.9c-.3,15.3-.6,30.5-.8,45.8H169.2V85.2H158.5l-.2,5.5H139.4c-.3-15.7-.7-31.5-1-47.3Z" transform="translate(-0.3 -3.1)" fill="url(#_10_lpi_10_3)"/><path d="M181.6,43.9v-.8L204,44l.3,40.5,20,.6-1.5,40.5,53.4-1.6q-.6,32.4-1.4,64.8c-.3,9.2-.5,18.3-.8,27.4l-32.2,2.1c-.7,11.5-1.4,23-2,34.5L211.7,254l-1,33.3H207l-.3,6.9-10.2-.3c-.1,2.3-.3,4.6-.4,6.8l-22.7-.8c0-2,0-4.1-.1-6.1l-8.9-.4c0,1.2,0,2.4-.1,3.6l-17.9-.9-.3-7.9L128.9,287c.1-13.7.3-27.5.4-41.2h-6.9c-.2,3-.3,5.9-.4,8.9l-15.8-.2c0-2.9.1-5.8.1-8.7h-5.8c.3-7.7.5-15.5.8-23.3H60c.2-21,.3-41.9.5-62.9,0-14.1.1-28.2.1-42.3h4.7l-.3,8.5,45.7,3.3c.2-12.8.3-25.6.5-38.3l28.2-.2h18.9l.2-5.5h10.7v4.6h11.6C181,74.4,181.3,59.2,181.6,43.9Z" transform="translate(-0.3 -3.1)" fill="none" stroke="#000" stroke-linecap="round" stroke-linejoin="round" stroke-width="0.43"/><path d="M181.6,43.9l-43.2-.6c.3,15.8.7,31.6,1,47.3" transform="translate(-0.3 -3.1)" fill="none" stroke="#000" stroke-miterlimit="10" stroke-width="0.43"/><path d="M20.8,26.3l2.8-.2" transform="translate(-0.3 -3.1)" fill="none" stroke="#000" stroke-linecap="round" stroke-linejoin="round" stroke-width="0.43"/><path d="M26.2,25.9l4.2-.4,2.9-.3,3.9-.4h2.9l5-.5,7-.7,3.8-.6" transform="translate(-0.3 -3.1)" fill="none" stroke="#000" stroke-linecap="round" stroke-linejoin="round" stroke-width="0.43" stroke-dasharray="5.2 2.6"/><path d="M57.1,22.5l2.7-.8" transform="translate(-0.3 -3.1)" fill="none" stroke="#000" stroke-linecap="round" stroke-linejoin="round" stroke-width="0.43"/><path d="M109.3,18.8l2.8.7" transform="translate(-0.3 -3.1)" fill="none" stroke="#000" stroke-linecap="round" stroke-linejoin="round" stroke-width="0.43"/><path d="M114.8,20.1l1.3.3,7,1.2,4.7.3,9.9.8,8.4.4,7.1.4,9.1.3,3.2.2c4.7.1,6.2,0,12,0h3.1" transform="translate(-0.3 -3.1)" fill="none" stroke="#000" stroke-linecap="round" stroke-linejoin="round" stroke-width="0.43" stroke-dasharray="5.62 2.81"/><path d="M182,24h1.7l1.1-.2" transform="translate(-0.3 -3.1)" fill="none" stroke="#000" stroke-linecap="round" stroke-linejoin="round" stroke-width="0.43"/><text transform="translate(201.9 384)" font-size="11.34" font-family="SimSun">地板遺跡被破壞之部分</text></g></svg>