<svg xmlns="http://www.w3.org/2000/svg" viewBox="0 0 1097.4 1570.2"><g id="scale-1:200"><path d="M463.3,1573.4v10H321.6v-10" transform="translate(-7.3 -14.5)" fill="none" stroke="#000" stroke-miterlimit="10" stroke-width="0.85"/><line x1="342.6" y1="1558.9" x2="342.6" y2="1568.9" fill="none" stroke="#000" stroke-miterlimit="10" stroke-width="0.85"/><line x1="370.9" y1="1558.9" x2="370.9" y2="1568.9" fill="none" stroke="#000" stroke-miterlimit="10" stroke-width="0.85"/><line x1="399.3" y1="1558.9" x2="399.3" y2="1568.9" fill="none" stroke="#000" stroke-miterlimit="10" stroke-width="0.85"/><line x1="427.6" y1="1558.9" x2="427.6" y2="1568.9" fill="none" stroke="#000" stroke-miterlimit="10" stroke-width="0.85"/><text transform="translate(308.6 1554.5)" font-size="22.68" font-family="SimSun">0</text><text transform="translate(444.6 1554.5)" font-size="22.68" font-family="SimSun">10m</text></g><g id="outline"><path d="M46.4,162.9c6.9,1.5,17.4,3.7,30.3,6.2,21.6,4,37.7,6.4,42.7,7.1,18.7,2.7,52.8,8.2,120.4,19.8q-6.5,32-13,63.7l-99.1-6.3-92.6-6" transform="translate(-7.3 -14.5)" fill="none" stroke="#000" stroke-linecap="round" stroke-linejoin="round" stroke-width="1.13"/><path d="M18.6,717.6l6.6,4.5a37.8,37.8,0,0,1,3.1,2.5,20.9,20.9,0,0,1,1.8,1.9c2.9,3.4,12.2,10.4,12.2,10.4l13.3,9.7q1.8-1.5,3.9-3.6a42.8,42.8,0,0,0,2.9-3.3l-6.2-6.3c-.8-.9-1.7-1.7-2.5-2.5,1.1-1.2,2.3-2.5,3.7-3.8s2.2-2.1,3.3-3l3.6.7,4.8-7,56.1,8.6-4.6,10.4c2-.2,4.2-.4,6.5-.8s5.6-1,8.1-1.6c.7,4.4,1.4,8.9,2,13.4l39.3,12.4,15.2,14.7,58.2,13c3-10.7,7.5-26.6,12.7-46.1,6.3-23.4,10.7-40.9,14.2-54.7,17-66.7,25.2-99.5,34.3-135.5,3.5-13.6,8.9-34.8,15.8-61.2l-62.5-17.8Q145.3,438.7,25.7,406.2" transform="translate(-7.3 -14.5)" fill="none" stroke="#000" stroke-linecap="round" stroke-linejoin="round" stroke-width="1.13"/><path d="M250.3,1216.9l20.5,7.7q34.8,13.1,68.6,26.4l40.8-86.6c21.5,7.8,43.3,15.7,65.3,23.4l41.9,14.7q12.8-31.4,25.6-62.5l-42.4-17.9-55.1-23.5,37.5-89.8-89.4-30.2c4.7-10.5,9.4-21.1,14.2-31.6q30.8-68.1,62.1-135.8l-58.6-21.4-87,164.1-49.5-16.2L204,924l-42.4,87.9L28.1,972.6c-6.7,18.6-13.5,37.2-20.2,55.7l121.3,47.8c-11.8,27-23.6,54.1-35.5,81.1l27.7,12.2c19.5,8.6,38.9,16.9,58.2,25.1-25.9,54.5-46,96-59.8,124.5-9,18.4-27.7,56.8-52.2,109.1l-9.3,20.1c9.5,4.4,17.4,7.8,22.9,10.1,8.3,3.6,12.3,5.1,22,9.2l20.6,8.8c4.2-8.3,11-21.8,19.2-38.6s14.6-30.5,17.2-36.1c27.9-59.5,61.8-127.7,73.9-152.1C241.1,1235.3,246.9,1223.8,250.3,1216.9Z" transform="translate(-7.3 -14.5)" fill="none" stroke="#000" stroke-linecap="round" stroke-linejoin="round" stroke-width="1.13"/><path d="M929.1,1377.5l19,5.9,39.2-74.5c12.8,3.8,25.8,7.5,39.1,11.2s24.9,6.7,37.2,9.8c2.6-8.7,5.3-17.5,8-26.2l8.4-27.4-84.1-27.2c5.8-31,11.7-62.1,17.6-93.1l-54.7-21.3,53-154.5-64-20.5q-27.4,76.2-55.1,152.4l-61.9-11.3c-4.9,17.9-10,35.9-15.4,54.2-2.5,8.6-5.1,17.1-7.6,25.6l-127.3-29.9q-8.8,29.5-17.8,59.1l8.4,2.7c10.7,3.4,18.6,5.4,24,6.8,3.7.9,1,.3,28.3,7.9l58.2,16.2c-5.3,27.3-10.7,54.7-16,82l42.6,19.8c-22.9,82.5-33.5,122-38.6,142-.6,2.2-3.8,14.8-8.3,32s-8.8,33.9-11.5,44.2l64.7,20.8q15.8-40.7,31.6-81.3,21.8-55.2,43.6-110.3" transform="translate(-7.3 -14.5)" fill="none" stroke="#000" stroke-linecap="round" stroke-linejoin="round" stroke-width="1.13"/><path d="M890.5,1390.5l1.6-3.9" transform="translate(-7.3 -14.5)" fill="none" stroke="#000" stroke-linecap="round" stroke-linejoin="round" stroke-width="1.13"/><path d="M894,1381.8c.9-2.4,1.9-4.7,2.8-7.1" transform="translate(-7.3 -14.5)" fill="none" stroke="#000" stroke-linecap="round" stroke-linejoin="round" stroke-width="1.13" stroke-dasharray="5.14 5.14"/><path d="M897.8,1372.3c.5-1.3,1-2.7,1.6-4l4,1.3" transform="translate(-7.3 -14.5)" fill="none" stroke="#000" stroke-linecap="round" stroke-linejoin="round" stroke-width="1.13"/><path d="M909.9,1371.6l9.7,3" transform="translate(-7.3 -14.5)" fill="none" stroke="#000" stroke-linecap="round" stroke-linejoin="round" stroke-width="1.13" stroke-dasharray="6.76 6.76"/><path d="M922.8,1375.6l4.1,1.3" transform="translate(-7.3 -14.5)" fill="none" stroke="#000" stroke-linecap="round" stroke-linejoin="round" stroke-width="1.13"/><path d="M415.5,802.1,518.7,450.3,456.8,433l28.8-83.5L298.9,286.3,312,250.6,503.3,293l27-99.2,63.5,9.3q32.6-94,65.2-188L732.4,42,670.9,228.6l56.3,31.6-19.5,82.2,205.4,69.4c-2.9,15.5-5.9,30.9-8.9,46.3L693,413.8c-5.5,27-11.1,54.1-16.7,81.1l-62.6-16.4-26.6,74.2c-24.1,67.5-43.3,121.5-51.8,145.7C518.9,744.6,495.1,812,465,898.3l-58.1-15.1" transform="translate(-7.3 -14.5)" fill="none" stroke="#000" stroke-linecap="round" stroke-linejoin="round" stroke-width="1.13"/><path d="M406.9,883.2l-4.1-1.1" transform="translate(-7.3 -14.5)" fill="none" stroke="#000" stroke-linecap="round" stroke-linejoin="round" stroke-width="1.13"/><path d="M397,880.6l-4.1-1.1,1.2-4.1" transform="translate(-7.3 -14.5)" fill="none" stroke="#000" stroke-linecap="round" stroke-linejoin="round" stroke-width="1.13"/><path d="M396.2,868.1c5.4-18.3,10.7-36.6,16.1-54.9" transform="translate(-7.3 -14.5)" fill="none" stroke="#000" stroke-linecap="round" stroke-linejoin="round" stroke-width="1.13" stroke-dasharray="7.63 7.63"/><path d="M413.4,809.5l1.2-4.1" transform="translate(-7.3 -14.5)" fill="none" stroke="#000" stroke-linecap="round" stroke-linejoin="round" stroke-width="1.13"/><path d="M608.9,1134.7q31.1-96.2,62.3-192.3l-43.9-15c2.9-12.5,5.8-25,9-37.7q5.4-22.2,11.1-43.8l-47.3-7.7c2.2-7.3,4.4-14.7,6.7-22L503.2,789.6" transform="translate(-7.3 -14.5)" fill="none" stroke="#000" stroke-linecap="round" stroke-linejoin="round" stroke-width="1.13"/><path d="M707.3,1161.5l-1.2,4.1" transform="translate(-7.3 -14.5)" fill="none" stroke="#000" stroke-linecap="round" stroke-linejoin="round" stroke-width="1.13"/><path d="M703.8,1173.5q-15,49.9-29.7,99.9-12.7,42.9-25.3,85.8" transform="translate(-7.3 -14.5)" fill="none" stroke="#000" stroke-linecap="round" stroke-linejoin="round" stroke-width="1.13" stroke-dasharray="8.24 8.24"/><path d="M647.6,1363.1c-.4,1.4-.7,2.8-1.1,4.1l-4.2-1.1" transform="translate(-7.3 -14.5)" fill="none" stroke="#000" stroke-linecap="round" stroke-linejoin="round" stroke-width="1.13"/><path d="M633.7,1363.8c-11.4-3-22.9-6.1-34.5-9.4-16-4.5-31.8-9-47.3-13.7" transform="translate(-7.3 -14.5)" fill="none" stroke="#000" stroke-linecap="round" stroke-linejoin="round" stroke-width="1.13" stroke-dasharray="8.94 8.94"/><path d="M547.7,1339.4l-4.1-1.2c.4-1.3.9-2.7,1.3-4.1" transform="translate(-7.3 -14.5)" fill="none" stroke="#000" stroke-linecap="round" stroke-linejoin="round" stroke-width="1.13"/><path d="M547.5,1325.9l57-177.7" transform="translate(-7.3 -14.5)" fill="none" stroke="#000" stroke-linecap="round" stroke-linejoin="round" stroke-width="1.13" stroke-dasharray="8.68 8.68"/><path d="M605.9,1144.1c.4-1.4.8-2.7,1.3-4.1" transform="translate(-7.3 -14.5)" fill="none" stroke="#000" stroke-linecap="round" stroke-linejoin="round" stroke-width="1.13"/><path d="M902.7,541.3c-.1.5-.3,1-.4,1.6L893,572.6q-22.3,71.5-44.5,143.1L895.6,730q-13.6,38.4-27.2,76.8l54,14.2.6,26.5,181.2,45.7-11.4,43.7L909,892.5l-10.6,22.3-55.1-13.1-27.9,77-49.8-11q-28.5,94.6-56.9,189.3" transform="translate(-7.3 -14.5)" fill="none" stroke="#000" stroke-linecap="round" stroke-linejoin="round" stroke-width="1.13"/><path d="M902.7,541.3" transform="translate(-7.3 -14.5)" fill="none" stroke="#000" stroke-linecap="round" stroke-linejoin="round" stroke-width="1.13"/><path d="M837.9,440.7c.4-1.4.9-2.7,1.4-4.1" transform="translate(-7.3 -14.5)" fill="none" stroke="#000" stroke-linecap="round" stroke-linejoin="round" stroke-width="1.13"/><path d="M839.6,435.7c.4-1.3.9-2.7,1.4-4l4.1,1" transform="translate(-7.3 -14.5)" fill="none" stroke="#000" stroke-linecap="round" stroke-linejoin="round" stroke-width="1.13"/><path d="M853.3,434.6l61.8,14.7" transform="translate(-7.3 -14.5)" fill="none" stroke="#000" stroke-linecap="round" stroke-linejoin="round" stroke-width="1.13" stroke-dasharray="8.47 8.47"/><path d="M919.2,450.3l4.2,1c-.3,1.3-.7,2.7-1,4.1" transform="translate(-7.3 -14.5)" fill="none" stroke="#000" stroke-linecap="round" stroke-linejoin="round" stroke-width="1.13"/><path d="M920.5,463.7c-3.3,14.7-6.6,29.3-10,44-1.4,6.2-2.9,12.4-4.3,18.6" transform="translate(-7.3 -14.5)" fill="none" stroke="#000" stroke-linecap="round" stroke-linejoin="round" stroke-width="1.13" stroke-dasharray="8.56 8.56"/><path d="M905.2,530.5c-.3,1.3-.6,2.7-1,4.1" transform="translate(-7.3 -14.5)" fill="none" stroke="#000" stroke-linecap="round" stroke-linejoin="round" stroke-width="1.13"/><path d="M520.2,741.1l101.9,25.2,6.3-19.5,44.6,2.6q13.9-35.1,27.8-70.2L752,690.7q42.3-122.9,84.4-245.8" transform="translate(-7.3 -14.5)" fill="none" stroke="#000" stroke-linecap="round" stroke-linejoin="round" stroke-width="1.13"/><path d="M500.9,789.1l-4.1-1" transform="translate(-7.3 -14.5)" fill="none" stroke="#000" stroke-linecap="round" stroke-linejoin="round" stroke-width="1.13"/><path d="M489.7,786.2,465,779.9" transform="translate(-7.3 -14.5)" fill="none" stroke="#000" stroke-linecap="round" stroke-linejoin="round" stroke-width="1.13" stroke-dasharray="7.3 7.3"/><path d="M461.5,779l-4.1-1c.4-1.4.9-2.7,1.3-4.1" transform="translate(-7.3 -14.5)" fill="none" stroke="#000" stroke-linecap="round" stroke-linejoin="round" stroke-width="1.13"/><path d="M461.5,765.9l9.7-28.2" transform="translate(-7.3 -14.5)" fill="none" stroke="#000" stroke-linecap="round" stroke-linejoin="round" stroke-width="1.13" stroke-dasharray="8.51 8.51"/><path d="M472.6,733.7c.4-1.3.9-2.7,1.4-4l4.1,1" transform="translate(-7.3 -14.5)" fill="none" stroke="#000" stroke-linecap="round" stroke-linejoin="round" stroke-width="1.13"/><path d="M485,732.4l24.1,6" transform="translate(-7.3 -14.5)" fill="none" stroke="#000" stroke-linecap="round" stroke-linejoin="round" stroke-width="1.13" stroke-dasharray="7.1 7.1"/><path d="M512.6,739.2l4.1,1.1" transform="translate(-7.3 -14.5)" fill="none" stroke="#000" stroke-linecap="round" stroke-linejoin="round" stroke-width="1.13"/><text transform="translate(224.5 1087.3)" font-size="45.35" font-family="SimSun">1002</text><text transform="translate(96.2 597.3)" font-size="45.35" font-family="SimSun">1567</text><text transform="translate(96.2 218.9)" font-size="45.35" font-family="SimSun">1003</text><text transform="translate(542.4 349.1)" font-size="45.35" font-family="SimSun">1004</text><text transform="translate(713.3 833.9)" font-size="45.35" font-family="SimSun">1001</text><text transform="translate(839.9 1246.9)" font-size="45.35" font-family="SimSun">1550</text></g><g id="compass"><line x1="954" y1="159.1" x2="1059.9" y2="158" fill="#fff" stroke="#000" stroke-linecap="round" stroke-linejoin="round" stroke-width="0.85"/><line x1="1005.8" y1="74.7" x2="1008" y2="302.4" fill="#fff"/><line x1="1005.9" y1="86" x2="1008" y2="302.4" fill="none" stroke="#000" stroke-linecap="round" stroke-linejoin="round" stroke-width="0.85"/><polygon points="1002.2 88.6 1005.8 74.7 1009.6 88.5 1002.2 88.6"/><circle cx="1006.9" cy="158.6" r="30.8" fill="none" stroke="#000" stroke-linecap="round" stroke-linejoin="round" stroke-width="0.85"/><text transform="translate(997.5 68.1) rotate(-0.6)" font-size="34.02" font-family="SimSun">N</text><circle cx="1006.9" cy="158.6" r="37.1" fill="none" stroke="#000" stroke-linecap="round" stroke-linejoin="round" stroke-width="0.85"/></g></svg>