<svg xmlns="http://www.w3.org/2000/svg" xmlns:xlink="http://www.w3.org/1999/xlink" viewBox="0 0 305.9 341.4"><defs><pattern id="_10_lpi_10_" data-name="10 lpi 10%" width="72" height="72" patternTransform="translate(-2.7 75.7) rotate(-45)" patternUnits="userSpaceOnUse" viewBox="0 0 72 72"><rect width="72" height="72" fill="none"/><line x1="71.8" y1="68.4" x2="144.3" y2="68.4" fill="none" stroke="#1d1d1b" stroke-width="0.28"/><line x1="71.8" y1="54" x2="144.3" y2="54" fill="none" stroke="#1d1d1b" stroke-width="0.28"/><line x1="71.8" y1="39.6" x2="144.3" y2="39.6" fill="none" stroke="#1d1d1b" stroke-width="0.28"/><line x1="71.8" y1="25.2" x2="144.3" y2="25.2" fill="none" stroke="#1d1d1b" stroke-width="0.28"/><line x1="71.8" y1="10.8" x2="144.3" y2="10.8" fill="none" stroke="#1d1d1b" stroke-width="0.28"/><line x1="71.8" y1="61.2" x2="144.3" y2="61.2" fill="none" stroke="#1d1d1b" stroke-width="0.28"/><line x1="71.8" y1="46.8" x2="144.3" y2="46.8" fill="none" stroke="#1d1d1b" stroke-width="0.28"/><line x1="71.8" y1="32.4" x2="144.3" y2="32.4" fill="none" stroke="#1d1d1b" stroke-width="0.28"/><line x1="71.8" y1="18" x2="144.3" y2="18" fill="none" stroke="#1d1d1b" stroke-width="0.28"/><line x1="71.8" y1="3.6" x2="144.3" y2="3.6" fill="none" stroke="#1d1d1b" stroke-width="0.28"/><line x1="71.8" y1="72" x2="144.3" y2="72" fill="none" stroke="#1d1d1b" stroke-width="0.28"/><line x1="71.8" y1="57.6" x2="144.3" y2="57.6" fill="none" stroke="#1d1d1b" stroke-width="0.28"/><line x1="71.8" y1="43.2" x2="144.3" y2="43.2" fill="none" stroke="#1d1d1b" stroke-width="0.28"/><line x1="71.8" y1="28.8" x2="144.3" y2="28.8" fill="none" stroke="#1d1d1b" stroke-width="0.28"/><line x1="71.8" y1="14.4" x2="144.3" y2="14.4" fill="none" stroke="#1d1d1b" stroke-width="0.28"/><line x1="71.8" y1="64.8" x2="144.3" y2="64.8" fill="none" stroke="#1d1d1b" stroke-width="0.28"/><line x1="71.8" y1="50.4" x2="144.3" y2="50.4" fill="none" stroke="#1d1d1b" stroke-width="0.28"/><line x1="71.8" y1="36" x2="144.3" y2="36" fill="none" stroke="#1d1d1b" stroke-width="0.28"/><line x1="71.8" y1="21.6" x2="144.3" y2="21.6" fill="none" stroke="#1d1d1b" stroke-width="0.28"/><line x1="71.8" y1="7.2" x2="144.3" y2="7.2" fill="none" stroke="#1d1d1b" stroke-width="0.28"/><line x1="-0.3" y1="68.4" x2="72.3" y2="68.4" fill="none" stroke="#1d1d1b" stroke-width="0.28"/><line x1="-0.3" y1="54" x2="72.3" y2="54" fill="none" stroke="#1d1d1b" stroke-width="0.28"/><line x1="-0.3" y1="39.6" x2="72.3" y2="39.6" fill="none" stroke="#1d1d1b" stroke-width="0.28"/><line x1="-0.3" y1="25.2" x2="72.3" y2="25.2" fill="none" stroke="#1d1d1b" stroke-width="0.28"/><line x1="-0.3" y1="10.8" x2="72.3" y2="10.8" fill="none" stroke="#1d1d1b" stroke-width="0.28"/><line x1="-0.3" y1="61.2" x2="72.3" y2="61.2" fill="none" stroke="#1d1d1b" stroke-width="0.28"/><line x1="-0.3" y1="46.8" x2="72.3" y2="46.8" fill="none" stroke="#1d1d1b" stroke-width="0.28"/><line x1="-0.3" y1="32.4" x2="72.3" y2="32.4" fill="none" stroke="#1d1d1b" stroke-width="0.28"/><line x1="-0.3" y1="18" x2="72.3" y2="18" fill="none" stroke="#1d1d1b" stroke-width="0.28"/><line x1="-0.3" y1="3.6" x2="72.3" y2="3.6" fill="none" stroke="#1d1d1b" stroke-width="0.28"/><line x1="-0.3" y1="72" x2="72.3" y2="72" fill="none" stroke="#1d1d1b" stroke-width="0.28"/><line x1="-0.3" y1="57.6" x2="72.3" y2="57.6" fill="none" stroke="#1d1d1b" stroke-width="0.28"/><line x1="-0.3" y1="43.2" x2="72.3" y2="43.2" fill="none" stroke="#1d1d1b" stroke-width="0.28"/><line x1="-0.3" y1="28.8" x2="72.3" y2="28.8" fill="none" stroke="#1d1d1b" stroke-width="0.28"/><line x1="-0.3" y1="14.4" x2="72.3" y2="14.4" fill="none" stroke="#1d1d1b" stroke-width="0.28"/><line x1="-0.3" y1="64.8" x2="72.3" y2="64.8" fill="none" stroke="#1d1d1b" stroke-width="0.28"/><line x1="-0.3" y1="50.4" x2="72.3" y2="50.4" fill="none" stroke="#1d1d1b" stroke-width="0.28"/><line x1="-0.3" y1="36" x2="72.3" y2="36" fill="none" stroke="#1d1d1b" stroke-width="0.28"/><line x1="-0.3" y1="21.6" x2="72.3" y2="21.6" fill="none" stroke="#1d1d1b" stroke-width="0.28"/><line x1="-0.3" y1="7.2" x2="72.3" y2="7.2" fill="none" stroke="#1d1d1b" stroke-width="0.28"/><line x1="-72.3" y1="68.4" x2="0.3" y2="68.4" fill="none" stroke="#1d1d1b" stroke-width="0.28"/><line x1="-72.3" y1="54" x2="0.3" y2="54" fill="none" stroke="#1d1d1b" stroke-width="0.28"/><line x1="-72.3" y1="39.6" x2="0.3" y2="39.6" fill="none" stroke="#1d1d1b" stroke-width="0.28"/><line x1="-72.3" y1="25.2" x2="0.3" y2="25.2" fill="none" stroke="#1d1d1b" stroke-width="0.28"/><line x1="-72.3" y1="10.8" x2="0.3" y2="10.8" fill="none" stroke="#1d1d1b" stroke-width="0.28"/><line x1="-72.3" y1="61.2" x2="0.3" y2="61.2" fill="none" stroke="#1d1d1b" stroke-width="0.28"/><line x1="-72.3" y1="46.8" x2="0.3" y2="46.8" fill="none" stroke="#1d1d1b" stroke-width="0.28"/><line x1="-72.3" y1="32.4" x2="0.3" y2="32.4" fill="none" stroke="#1d1d1b" stroke-width="0.28"/><line x1="-72.3" y1="18" x2="0.3" y2="18" fill="none" stroke="#1d1d1b" stroke-width="0.28"/><line x1="-72.3" y1="3.6" x2="0.3" y2="3.6" fill="none" stroke="#1d1d1b" stroke-width="0.28"/><line x1="-72.3" y1="72" x2="0.3" y2="72" fill="none" stroke="#1d1d1b" stroke-width="0.28"/><line x1="-72.3" y1="57.6" x2="0.3" y2="57.6" fill="none" stroke="#1d1d1b" stroke-width="0.28"/><line x1="-72.3" y1="43.2" x2="0.3" y2="43.2" fill="none" stroke="#1d1d1b" stroke-width="0.28"/><line x1="-72.3" y1="28.8" x2="0.3" y2="28.8" fill="none" stroke="#1d1d1b" stroke-width="0.28"/><line x1="-72.3" y1="14.4" x2="0.3" y2="14.4" fill="none" stroke="#1d1d1b" stroke-width="0.28"/><line x1="-72.3" y1="64.8" x2="0.3" y2="64.8" fill="none" stroke="#1d1d1b" stroke-width="0.28"/><line x1="-72.3" y1="50.4" x2="0.3" y2="50.4" fill="none" stroke="#1d1d1b" stroke-width="0.28"/><line x1="-72.3" y1="36" x2="0.3" y2="36" fill="none" stroke="#1d1d1b" stroke-width="0.28"/><line x1="-72.3" y1="21.6" x2="0.3" y2="21.6" fill="none" stroke="#1d1d1b" stroke-width="0.28"/><line x1="-72.3" y1="7.2" x2="0.3" y2="7.2" fill="none" stroke="#1d1d1b" stroke-width="0.28"/><line x1="71.8" x2="144.3" fill="none" stroke="#1d1d1b" stroke-width="0.28"/><line x1="-0.3" x2="72.3" fill="none" stroke="#1d1d1b" stroke-width="0.28"/><line x1="-72.3" x2="0.3" fill="none" stroke="#1d1d1b" stroke-width="0.28"/></pattern><pattern id="_10_lpi_10_3" data-name="10 lpi 10%" width="72" height="72" patternTransform="translate(16.4 6.9) rotate(45)" patternUnits="userSpaceOnUse" viewBox="0 0 72 72"><rect width="72" height="72" fill="none"/><line x1="71.8" y1="68.4" x2="144.3" y2="68.4" fill="none" stroke="#1d1d1b" stroke-width="0.28"/><line x1="71.8" y1="54" x2="144.3" y2="54" fill="none" stroke="#1d1d1b" stroke-width="0.28"/><line x1="71.8" y1="39.6" x2="144.3" y2="39.6" fill="none" stroke="#1d1d1b" stroke-width="0.28"/><line x1="71.8" y1="25.2" x2="144.3" y2="25.2" fill="none" stroke="#1d1d1b" stroke-width="0.28"/><line x1="71.8" y1="10.8" x2="144.3" y2="10.8" fill="none" stroke="#1d1d1b" stroke-width="0.28"/><line x1="71.8" y1="61.2" x2="144.3" y2="61.2" fill="none" stroke="#1d1d1b" stroke-width="0.28"/><line x1="71.8" y1="46.8" x2="144.3" y2="46.8" fill="none" stroke="#1d1d1b" stroke-width="0.28"/><line x1="71.8" y1="32.4" x2="144.3" y2="32.4" fill="none" stroke="#1d1d1b" stroke-width="0.28"/><line x1="71.8" y1="18" x2="144.3" y2="18" fill="none" stroke="#1d1d1b" stroke-width="0.28"/><line x1="71.8" y1="3.6" x2="144.3" y2="3.6" fill="none" stroke="#1d1d1b" stroke-width="0.28"/><line x1="71.8" y1="72" x2="144.3" y2="72" fill="none" stroke="#1d1d1b" stroke-width="0.28"/><line x1="71.8" y1="57.6" x2="144.3" y2="57.6" fill="none" stroke="#1d1d1b" stroke-width="0.28"/><line x1="71.8" y1="43.2" x2="144.3" y2="43.2" fill="none" stroke="#1d1d1b" stroke-width="0.28"/><line x1="71.8" y1="28.8" x2="144.3" y2="28.8" fill="none" stroke="#1d1d1b" stroke-width="0.28"/><line x1="71.8" y1="14.4" x2="144.3" y2="14.4" fill="none" stroke="#1d1d1b" stroke-width="0.28"/><line x1="71.8" y1="64.8" x2="144.3" y2="64.8" fill="none" stroke="#1d1d1b" stroke-width="0.28"/><line x1="71.8" y1="50.4" x2="144.3" y2="50.4" fill="none" stroke="#1d1d1b" stroke-width="0.28"/><line x1="71.8" y1="36" x2="144.3" y2="36" fill="none" stroke="#1d1d1b" stroke-width="0.28"/><line x1="71.8" y1="21.6" x2="144.3" y2="21.6" fill="none" stroke="#1d1d1b" stroke-width="0.28"/><line x1="71.8" y1="7.2" x2="144.3" y2="7.2" fill="none" stroke="#1d1d1b" stroke-width="0.28"/><line x1="-0.3" y1="68.4" x2="72.3" y2="68.4" fill="none" stroke="#1d1d1b" stroke-width="0.28"/><line x1="-0.3" y1="54" x2="72.3" y2="54" fill="none" stroke="#1d1d1b" stroke-width="0.28"/><line x1="-0.3" y1="39.6" x2="72.3" y2="39.6" fill="none" stroke="#1d1d1b" stroke-width="0.28"/><line x1="-0.3" y1="25.2" x2="72.3" y2="25.2" fill="none" stroke="#1d1d1b" stroke-width="0.28"/><line x1="-0.3" y1="10.8" x2="72.3" y2="10.8" fill="none" stroke="#1d1d1b" stroke-width="0.28"/><line x1="-0.3" y1="61.2" x2="72.3" y2="61.2" fill="none" stroke="#1d1d1b" stroke-width="0.28"/><line x1="-0.3" y1="46.8" x2="72.3" y2="46.8" fill="none" stroke="#1d1d1b" stroke-width="0.28"/><line x1="-0.3" y1="32.4" x2="72.3" y2="32.4" fill="none" stroke="#1d1d1b" stroke-width="0.28"/><line x1="-0.3" y1="18" x2="72.3" y2="18" fill="none" stroke="#1d1d1b" stroke-width="0.28"/><line x1="-0.3" y1="3.6" x2="72.3" y2="3.6" fill="none" stroke="#1d1d1b" stroke-width="0.28"/><line x1="-0.3" y1="72" x2="72.3" y2="72" fill="none" stroke="#1d1d1b" stroke-width="0.28"/><line x1="-0.3" y1="57.6" x2="72.3" y2="57.6" fill="none" stroke="#1d1d1b" stroke-width="0.28"/><line x1="-0.3" y1="43.2" x2="72.3" y2="43.2" fill="none" stroke="#1d1d1b" stroke-width="0.28"/><line x1="-0.3" y1="28.8" x2="72.3" y2="28.8" fill="none" stroke="#1d1d1b" stroke-width="0.28"/><line x1="-0.3" y1="14.4" x2="72.3" y2="14.4" fill="none" stroke="#1d1d1b" stroke-width="0.28"/><line x1="-0.3" y1="64.8" x2="72.3" y2="64.8" fill="none" stroke="#1d1d1b" stroke-width="0.28"/><line x1="-0.3" y1="50.4" x2="72.3" y2="50.4" fill="none" stroke="#1d1d1b" stroke-width="0.28"/><line x1="-0.3" y1="36" x2="72.3" y2="36" fill="none" stroke="#1d1d1b" stroke-width="0.28"/><line x1="-0.3" y1="21.6" x2="72.3" y2="21.6" fill="none" stroke="#1d1d1b" stroke-width="0.28"/><line x1="-0.3" y1="7.2" x2="72.3" y2="7.2" fill="none" stroke="#1d1d1b" stroke-width="0.28"/><line x1="-72.3" y1="68.4" x2="0.3" y2="68.4" fill="none" stroke="#1d1d1b" stroke-width="0.28"/><line x1="-72.3" y1="54" x2="0.3" y2="54" fill="none" stroke="#1d1d1b" stroke-width="0.28"/><line x1="-72.3" y1="39.6" x2="0.3" y2="39.6" fill="none" stroke="#1d1d1b" stroke-width="0.28"/><line x1="-72.3" y1="25.2" x2="0.3" y2="25.2" fill="none" stroke="#1d1d1b" stroke-width="0.28"/><line x1="-72.3" y1="10.8" x2="0.3" y2="10.8" fill="none" stroke="#1d1d1b" stroke-width="0.28"/><line x1="-72.3" y1="61.2" x2="0.3" y2="61.2" fill="none" stroke="#1d1d1b" stroke-width="0.28"/><line x1="-72.3" y1="46.8" x2="0.3" y2="46.8" fill="none" stroke="#1d1d1b" stroke-width="0.28"/><line x1="-72.3" y1="32.4" x2="0.3" y2="32.4" fill="none" stroke="#1d1d1b" stroke-width="0.28"/><line x1="-72.3" y1="18" x2="0.3" y2="18" fill="none" stroke="#1d1d1b" stroke-width="0.28"/><line x1="-72.3" y1="3.6" x2="0.3" y2="3.6" fill="none" stroke="#1d1d1b" stroke-width="0.28"/><line x1="-72.3" y1="72" x2="0.3" y2="72" fill="none" stroke="#1d1d1b" stroke-width="0.28"/><line x1="-72.3" y1="57.6" x2="0.3" y2="57.6" fill="none" stroke="#1d1d1b" stroke-width="0.28"/><line x1="-72.3" y1="43.2" x2="0.3" y2="43.2" fill="none" stroke="#1d1d1b" stroke-width="0.28"/><line x1="-72.3" y1="28.8" x2="0.3" y2="28.8" fill="none" stroke="#1d1d1b" stroke-width="0.28"/><line x1="-72.3" y1="14.4" x2="0.3" y2="14.4" fill="none" stroke="#1d1d1b" stroke-width="0.28"/><line x1="-72.3" y1="64.8" x2="0.3" y2="64.8" fill="none" stroke="#1d1d1b" stroke-width="0.28"/><line x1="-72.3" y1="50.4" x2="0.3" y2="50.4" fill="none" stroke="#1d1d1b" stroke-width="0.28"/><line x1="-72.3" y1="36" x2="0.3" y2="36" fill="none" stroke="#1d1d1b" stroke-width="0.28"/><line x1="-72.3" y1="21.6" x2="0.3" y2="21.6" fill="none" stroke="#1d1d1b" stroke-width="0.28"/><line x1="-72.3" y1="7.2" x2="0.3" y2="7.2" fill="none" stroke="#1d1d1b" stroke-width="0.28"/><line x1="71.8" x2="144.3" fill="none" stroke="#1d1d1b" stroke-width="0.28"/><line x1="-0.3" x2="72.3" fill="none" stroke="#1d1d1b" stroke-width="0.28"/><line x1="-72.3" x2="0.3" fill="none" stroke="#1d1d1b" stroke-width="0.28"/></pattern><pattern id="_10_lpi_10_5" data-name="10 lpi 10%" width="72" height="72" patternTransform="translate(60.4 28.8) rotate(45)" patternUnits="userSpaceOnUse" viewBox="0 0 72 72"><rect width="72" height="72" fill="none"/><line x1="71.8" y1="68.4" x2="144.3" y2="68.4" fill="none" stroke="#1d1d1b" stroke-width="0.28"/><line x1="71.8" y1="54" x2="144.3" y2="54" fill="none" stroke="#1d1d1b" stroke-width="0.28"/><line x1="71.8" y1="39.6" x2="144.3" y2="39.6" fill="none" stroke="#1d1d1b" stroke-width="0.28"/><line x1="71.8" y1="25.2" x2="144.3" y2="25.2" fill="none" stroke="#1d1d1b" stroke-width="0.28"/><line x1="71.8" y1="10.8" x2="144.3" y2="10.8" fill="none" stroke="#1d1d1b" stroke-width="0.28"/><line x1="71.8" y1="61.2" x2="144.3" y2="61.2" fill="none" stroke="#1d1d1b" stroke-width="0.28"/><line x1="71.8" y1="46.8" x2="144.3" y2="46.8" fill="none" stroke="#1d1d1b" stroke-width="0.28"/><line x1="71.8" y1="32.4" x2="144.3" y2="32.4" fill="none" stroke="#1d1d1b" stroke-width="0.28"/><line x1="71.8" y1="18" x2="144.3" y2="18" fill="none" stroke="#1d1d1b" stroke-width="0.28"/><line x1="71.8" y1="3.6" x2="144.3" y2="3.6" fill="none" stroke="#1d1d1b" stroke-width="0.28"/><line x1="71.8" y1="72" x2="144.3" y2="72" fill="none" stroke="#1d1d1b" stroke-width="0.28"/><line x1="71.8" y1="57.6" x2="144.3" y2="57.6" fill="none" stroke="#1d1d1b" stroke-width="0.28"/><line x1="71.8" y1="43.2" x2="144.3" y2="43.2" fill="none" stroke="#1d1d1b" stroke-width="0.28"/><line x1="71.8" y1="28.8" x2="144.3" y2="28.8" fill="none" stroke="#1d1d1b" stroke-width="0.28"/><line x1="71.8" y1="14.4" x2="144.3" y2="14.4" fill="none" stroke="#1d1d1b" stroke-width="0.28"/><line x1="71.8" y1="64.8" x2="144.3" y2="64.8" fill="none" stroke="#1d1d1b" stroke-width="0.28"/><line x1="71.8" y1="50.4" x2="144.3" y2="50.4" fill="none" stroke="#1d1d1b" stroke-width="0.28"/><line x1="71.8" y1="36" x2="144.3" y2="36" fill="none" stroke="#1d1d1b" stroke-width="0.28"/><line x1="71.8" y1="21.6" x2="144.3" y2="21.6" fill="none" stroke="#1d1d1b" stroke-width="0.28"/><line x1="71.8" y1="7.2" x2="144.3" y2="7.2" fill="none" stroke="#1d1d1b" stroke-width="0.28"/><line x1="-0.3" y1="68.4" x2="72.3" y2="68.4" fill="none" stroke="#1d1d1b" stroke-width="0.28"/><line x1="-0.3" y1="54" x2="72.3" y2="54" fill="none" stroke="#1d1d1b" stroke-width="0.28"/><line x1="-0.3" y1="39.6" x2="72.3" y2="39.6" fill="none" stroke="#1d1d1b" stroke-width="0.28"/><line x1="-0.3" y1="25.2" x2="72.3" y2="25.2" fill="none" stroke="#1d1d1b" stroke-width="0.28"/><line x1="-0.3" y1="10.8" x2="72.3" y2="10.8" fill="none" stroke="#1d1d1b" stroke-width="0.28"/><line x1="-0.3" y1="61.2" x2="72.3" y2="61.2" fill="none" stroke="#1d1d1b" stroke-width="0.28"/><line x1="-0.3" y1="46.8" x2="72.3" y2="46.8" fill="none" stroke="#1d1d1b" stroke-width="0.28"/><line x1="-0.3" y1="32.4" x2="72.3" y2="32.4" fill="none" stroke="#1d1d1b" stroke-width="0.28"/><line x1="-0.3" y1="18" x2="72.3" y2="18" fill="none" stroke="#1d1d1b" stroke-width="0.28"/><line x1="-0.3" y1="3.6" x2="72.3" y2="3.6" fill="none" stroke="#1d1d1b" stroke-width="0.28"/><line x1="-0.3" y1="72" x2="72.3" y2="72" fill="none" stroke="#1d1d1b" stroke-width="0.28"/><line x1="-0.3" y1="57.6" x2="72.3" y2="57.6" fill="none" stroke="#1d1d1b" stroke-width="0.28"/><line x1="-0.3" y1="43.2" x2="72.3" y2="43.2" fill="none" stroke="#1d1d1b" stroke-width="0.28"/><line x1="-0.3" y1="28.8" x2="72.3" y2="28.8" fill="none" stroke="#1d1d1b" stroke-width="0.28"/><line x1="-0.3" y1="14.4" x2="72.3" y2="14.4" fill="none" stroke="#1d1d1b" stroke-width="0.28"/><line x1="-0.3" y1="64.8" x2="72.3" y2="64.8" fill="none" stroke="#1d1d1b" stroke-width="0.28"/><line x1="-0.3" y1="50.4" x2="72.3" y2="50.4" fill="none" stroke="#1d1d1b" stroke-width="0.28"/><line x1="-0.3" y1="36" x2="72.3" y2="36" fill="none" stroke="#1d1d1b" stroke-width="0.28"/><line x1="-0.3" y1="21.6" x2="72.3" y2="21.6" fill="none" stroke="#1d1d1b" stroke-width="0.28"/><line x1="-0.3" y1="7.2" x2="72.3" y2="7.2" fill="none" stroke="#1d1d1b" stroke-width="0.28"/><line x1="-72.3" y1="68.4" x2="0.3" y2="68.4" fill="none" stroke="#1d1d1b" stroke-width="0.28"/><line x1="-72.3" y1="54" x2="0.3" y2="54" fill="none" stroke="#1d1d1b" stroke-width="0.28"/><line x1="-72.3" y1="39.6" x2="0.3" y2="39.6" fill="none" stroke="#1d1d1b" stroke-width="0.28"/><line x1="-72.3" y1="25.2" x2="0.3" y2="25.2" fill="none" stroke="#1d1d1b" stroke-width="0.28"/><line x1="-72.3" y1="10.8" x2="0.3" y2="10.8" fill="none" stroke="#1d1d1b" stroke-width="0.28"/><line x1="-72.3" y1="61.2" x2="0.3" y2="61.2" fill="none" stroke="#1d1d1b" stroke-width="0.28"/><line x1="-72.3" y1="46.8" x2="0.3" y2="46.8" fill="none" stroke="#1d1d1b" stroke-width="0.28"/><line x1="-72.3" y1="32.4" x2="0.3" y2="32.4" fill="none" stroke="#1d1d1b" stroke-width="0.28"/><line x1="-72.3" y1="18" x2="0.3" y2="18" fill="none" stroke="#1d1d1b" stroke-width="0.28"/><line x1="-72.3" y1="3.6" x2="0.3" y2="3.6" fill="none" stroke="#1d1d1b" stroke-width="0.28"/><line x1="-72.3" y1="72" x2="0.3" y2="72" fill="none" stroke="#1d1d1b" stroke-width="0.28"/><line x1="-72.3" y1="57.6" x2="0.3" y2="57.6" fill="none" stroke="#1d1d1b" stroke-width="0.28"/><line x1="-72.3" y1="43.2" x2="0.3" y2="43.2" fill="none" stroke="#1d1d1b" stroke-width="0.28"/><line x1="-72.3" y1="28.8" x2="0.3" y2="28.8" fill="none" stroke="#1d1d1b" stroke-width="0.28"/><line x1="-72.3" y1="14.4" x2="0.3" y2="14.4" fill="none" stroke="#1d1d1b" stroke-width="0.28"/><line x1="-72.3" y1="64.8" x2="0.3" y2="64.8" fill="none" stroke="#1d1d1b" stroke-width="0.28"/><line x1="-72.3" y1="50.4" x2="0.3" y2="50.4" fill="none" stroke="#1d1d1b" stroke-width="0.28"/><line x1="-72.3" y1="36" x2="0.3" y2="36" fill="none" stroke="#1d1d1b" stroke-width="0.28"/><line x1="-72.3" y1="21.6" x2="0.3" y2="21.6" fill="none" stroke="#1d1d1b" stroke-width="0.28"/><line x1="-72.3" y1="7.2" x2="0.3" y2="7.2" fill="none" stroke="#1d1d1b" stroke-width="0.28"/><line x1="71.8" x2="144.3" fill="none" stroke="#1d1d1b" stroke-width="0.28"/><line x1="-0.3" x2="72.3" fill="none" stroke="#1d1d1b" stroke-width="0.28"/><line x1="-72.3" x2="0.3" fill="none" stroke="#1d1d1b" stroke-width="0.28"/></pattern><pattern id="_10_lpi_10_9" data-name="10 lpi 10%" width="72" height="72" patternTransform="translate(62.3 15.6) rotate(45)" patternUnits="userSpaceOnUse" viewBox="0 0 72 72"><rect width="72" height="72" fill="none"/><line x1="71.8" y1="68.4" x2="144.3" y2="68.4" fill="none" stroke="#1d1d1b" stroke-width="0.28"/><line x1="71.8" y1="54" x2="144.3" y2="54" fill="none" stroke="#1d1d1b" stroke-width="0.28"/><line x1="71.8" y1="39.6" x2="144.3" y2="39.6" fill="none" stroke="#1d1d1b" stroke-width="0.28"/><line x1="71.8" y1="25.2" x2="144.3" y2="25.2" fill="none" stroke="#1d1d1b" stroke-width="0.28"/><line x1="71.8" y1="10.8" x2="144.3" y2="10.8" fill="none" stroke="#1d1d1b" stroke-width="0.28"/><line x1="71.8" y1="61.2" x2="144.3" y2="61.2" fill="none" stroke="#1d1d1b" stroke-width="0.28"/><line x1="71.8" y1="46.8" x2="144.3" y2="46.8" fill="none" stroke="#1d1d1b" stroke-width="0.28"/><line x1="71.8" y1="32.4" x2="144.3" y2="32.4" fill="none" stroke="#1d1d1b" stroke-width="0.28"/><line x1="71.8" y1="18" x2="144.3" y2="18" fill="none" stroke="#1d1d1b" stroke-width="0.28"/><line x1="71.8" y1="3.6" x2="144.3" y2="3.6" fill="none" stroke="#1d1d1b" stroke-width="0.28"/><line x1="71.8" y1="72" x2="144.3" y2="72" fill="none" stroke="#1d1d1b" stroke-width="0.28"/><line x1="71.8" y1="57.6" x2="144.3" y2="57.6" fill="none" stroke="#1d1d1b" stroke-width="0.28"/><line x1="71.8" y1="43.2" x2="144.3" y2="43.2" fill="none" stroke="#1d1d1b" stroke-width="0.28"/><line x1="71.8" y1="28.8" x2="144.3" y2="28.8" fill="none" stroke="#1d1d1b" stroke-width="0.28"/><line x1="71.8" y1="14.4" x2="144.3" y2="14.4" fill="none" stroke="#1d1d1b" stroke-width="0.28"/><line x1="71.8" y1="64.8" x2="144.3" y2="64.8" fill="none" stroke="#1d1d1b" stroke-width="0.28"/><line x1="71.8" y1="50.4" x2="144.3" y2="50.4" fill="none" stroke="#1d1d1b" stroke-width="0.28"/><line x1="71.8" y1="36" x2="144.3" y2="36" fill="none" stroke="#1d1d1b" stroke-width="0.28"/><line x1="71.8" y1="21.6" x2="144.3" y2="21.6" fill="none" stroke="#1d1d1b" stroke-width="0.28"/><line x1="71.8" y1="7.2" x2="144.3" y2="7.2" fill="none" stroke="#1d1d1b" stroke-width="0.28"/><line x1="-0.3" y1="68.4" x2="72.3" y2="68.4" fill="none" stroke="#1d1d1b" stroke-width="0.28"/><line x1="-0.3" y1="54" x2="72.3" y2="54" fill="none" stroke="#1d1d1b" stroke-width="0.28"/><line x1="-0.3" y1="39.6" x2="72.3" y2="39.6" fill="none" stroke="#1d1d1b" stroke-width="0.28"/><line x1="-0.3" y1="25.2" x2="72.3" y2="25.2" fill="none" stroke="#1d1d1b" stroke-width="0.28"/><line x1="-0.3" y1="10.8" x2="72.3" y2="10.8" fill="none" stroke="#1d1d1b" stroke-width="0.28"/><line x1="-0.3" y1="61.2" x2="72.3" y2="61.2" fill="none" stroke="#1d1d1b" stroke-width="0.28"/><line x1="-0.3" y1="46.8" x2="72.3" y2="46.8" fill="none" stroke="#1d1d1b" stroke-width="0.28"/><line x1="-0.3" y1="32.4" x2="72.3" y2="32.4" fill="none" stroke="#1d1d1b" stroke-width="0.28"/><line x1="-0.3" y1="18" x2="72.3" y2="18" fill="none" stroke="#1d1d1b" stroke-width="0.28"/><line x1="-0.3" y1="3.6" x2="72.3" y2="3.6" fill="none" stroke="#1d1d1b" stroke-width="0.28"/><line x1="-0.3" y1="72" x2="72.3" y2="72" fill="none" stroke="#1d1d1b" stroke-width="0.28"/><line x1="-0.3" y1="57.6" x2="72.3" y2="57.6" fill="none" stroke="#1d1d1b" stroke-width="0.28"/><line x1="-0.3" y1="43.2" x2="72.3" y2="43.2" fill="none" stroke="#1d1d1b" stroke-width="0.28"/><line x1="-0.3" y1="28.8" x2="72.3" y2="28.8" fill="none" stroke="#1d1d1b" stroke-width="0.28"/><line x1="-0.3" y1="14.4" x2="72.3" y2="14.4" fill="none" stroke="#1d1d1b" stroke-width="0.28"/><line x1="-0.3" y1="64.8" x2="72.3" y2="64.8" fill="none" stroke="#1d1d1b" stroke-width="0.28"/><line x1="-0.3" y1="50.4" x2="72.3" y2="50.4" fill="none" stroke="#1d1d1b" stroke-width="0.28"/><line x1="-0.3" y1="36" x2="72.3" y2="36" fill="none" stroke="#1d1d1b" stroke-width="0.28"/><line x1="-0.3" y1="21.6" x2="72.3" y2="21.6" fill="none" stroke="#1d1d1b" stroke-width="0.28"/><line x1="-0.3" y1="7.2" x2="72.3" y2="7.2" fill="none" stroke="#1d1d1b" stroke-width="0.28"/><line x1="-72.3" y1="68.4" x2="0.3" y2="68.4" fill="none" stroke="#1d1d1b" stroke-width="0.28"/><line x1="-72.3" y1="54" x2="0.3" y2="54" fill="none" stroke="#1d1d1b" stroke-width="0.28"/><line x1="-72.3" y1="39.6" x2="0.3" y2="39.6" fill="none" stroke="#1d1d1b" stroke-width="0.28"/><line x1="-72.3" y1="25.2" x2="0.3" y2="25.2" fill="none" stroke="#1d1d1b" stroke-width="0.28"/><line x1="-72.3" y1="10.8" x2="0.3" y2="10.8" fill="none" stroke="#1d1d1b" stroke-width="0.28"/><line x1="-72.3" y1="61.2" x2="0.3" y2="61.2" fill="none" stroke="#1d1d1b" stroke-width="0.28"/><line x1="-72.3" y1="46.8" x2="0.3" y2="46.8" fill="none" stroke="#1d1d1b" stroke-width="0.28"/><line x1="-72.3" y1="32.4" x2="0.3" y2="32.4" fill="none" stroke="#1d1d1b" stroke-width="0.28"/><line x1="-72.3" y1="18" x2="0.3" y2="18" fill="none" stroke="#1d1d1b" stroke-width="0.28"/><line x1="-72.3" y1="3.6" x2="0.3" y2="3.6" fill="none" stroke="#1d1d1b" stroke-width="0.28"/><line x1="-72.3" y1="72" x2="0.3" y2="72" fill="none" stroke="#1d1d1b" stroke-width="0.28"/><line x1="-72.3" y1="57.6" x2="0.3" y2="57.6" fill="none" stroke="#1d1d1b" stroke-width="0.28"/><line x1="-72.3" y1="43.2" x2="0.3" y2="43.2" fill="none" stroke="#1d1d1b" stroke-width="0.28"/><line x1="-72.3" y1="28.8" x2="0.3" y2="28.8" fill="none" stroke="#1d1d1b" stroke-width="0.28"/><line x1="-72.3" y1="14.4" x2="0.3" y2="14.4" fill="none" stroke="#1d1d1b" stroke-width="0.28"/><line x1="-72.3" y1="64.8" x2="0.3" y2="64.8" fill="none" stroke="#1d1d1b" stroke-width="0.28"/><line x1="-72.3" y1="50.4" x2="0.3" y2="50.4" fill="none" stroke="#1d1d1b" stroke-width="0.28"/><line x1="-72.3" y1="36" x2="0.3" y2="36" fill="none" stroke="#1d1d1b" stroke-width="0.28"/><line x1="-72.3" y1="21.6" x2="0.3" y2="21.6" fill="none" stroke="#1d1d1b" stroke-width="0.28"/><line x1="-72.3" y1="7.2" x2="0.3" y2="7.2" fill="none" stroke="#1d1d1b" stroke-width="0.28"/><line x1="71.8" x2="144.3" fill="none" stroke="#1d1d1b" stroke-width="0.28"/><line x1="-0.3" x2="72.3" fill="none" stroke="#1d1d1b" stroke-width="0.28"/><line x1="-72.3" x2="0.3" fill="none" stroke="#1d1d1b" stroke-width="0.28"/></pattern></defs><g id="scale-1:1"><path d="M236.2,341v10H94.5V341" transform="translate(-12.2 -9.9)" fill="none" stroke="#010101" stroke-miterlimit="10" stroke-width="0.5"/><line x1="110.7" y1="331.2" x2="110.7" y2="341.2" fill="none" stroke="#010101" stroke-miterlimit="10" stroke-width="0.5"/><line x1="139" y1="331.2" x2="139" y2="341.2" fill="none" stroke="#010101" stroke-miterlimit="10" stroke-width="0.5"/><line x1="167.4" y1="331.2" x2="167.4" y2="341.1" fill="none" stroke="#010101" stroke-miterlimit="10" stroke-width="0.5"/><line x1="195.7" y1="331.2" x2="195.7" y2="341.1" fill="none" stroke="#010101" stroke-miterlimit="10" stroke-width="0.5"/><text transform="translate(78.7 326.7)" font-size="14.17" fill="#010101" font-family="AdobeMingStd-Light-B5pc-H, Adobe Ming Std">0</text><text transform="translate(220.7 326.7)" font-size="14.17" fill="#010101" font-family="AdobeMingStd-Light-B5pc-H, Adobe Ming Std">5cm</text></g><g id="outline-1"><path d="M40.4,68.1c.1,5.4.1,5.1.1,7.2,0,4.2.1,4.4.2,8.2v7.4c0,2.8.1,2.8.1,6.7s.1,8,.1,8.9v4.3c0,3.3.1,3.7.1,7.5,0,1.9,0,2.5.1,4v3.2a26.6,26.6,0,0,1,.1,3.4,12,12,0,0,1-.3,1.4c-.1.3-.4,1-.8,1H16.3l-.6-.5-.2-.4-.8-.8-.7-.8-.6-.6a2,2,0,0,1-.1-.9,8.8,8.8,0,0,0,.1-1.4v-2.6c0-1.1-.1-2.7-.1-4.5s-.1-4.6-.1-5.3a22.5,22.5,0,0,1,0-2.6c0-3.3-.1-4.2-.1-7.7s0-3.1-.1-6.4,0-3.3-.1-6.7V71c0-2.9,0-5-.1-7.6,0-4.7-.1-4.9-.1-7.6s.1-2.7.1-6.4c0-1.5,0-4.4-.1-7.9s-.1-3.7-.1-7.2c0-1.9,0-1-.1-7.6V17.6a34.5,34.5,0,0,1,.1-4.3,1.3,1.3,0,0,1,.2-.8,2.3,2.3,0,0,1,.5-.5.7.7,0,0,1,.5-.4l.6-.2H36.9a2.3,2.3,0,0,1,1.1.2,2.7,2.7,0,0,1,1.2.6,2,2,0,0,1,.5.9,4.9,4.9,0,0,1,.2,1.4,24.3,24.3,0,0,0,0,2.7c0,.1,0,2.1.1,6.2s.1,4,.1,4.9,0,3.4-.1,4.5c0,3.1,0,5.4.1,10s.1,3.7.2,9.4v7C40.4,61.2,40.4,64.2,40.4,68.1Z" transform="translate(-12.2 -9.9)" stroke="#1d1d1b" stroke-linecap="round" stroke-linejoin="round" stroke-width="0.57" fill="url(#_10_lpi_10_)"/><path d="M207.8,89.4v.5l-2.6.2h-5.5l-4.4.2H177.4c-5.2.2-5.7.3-8.6.3H161l-3.6.2H110.5l-8-.2L93,90.6H80.3a28.7,28.7,0,0,0-4.2,0V81.5c.1-3.4.1-4.9.1-7.4s-.1-4.2-.2-6.8l.7-.3c.7-.3.9-.3,1.1-.6l.3-.4c.1-.2,0-.4,0-1v-.6c.2-.5,1-.7,1.1-.7h34.1c9.4-.1,9.7,0,14.8,0,.5,0,5.5-.1,6.9,0h4.2l1.5-.4h2.8l.6.4c.3.3.5.5.7.5s.3,0,.7-.1l.8-.2,1-.2,1.1-.2,1.3-.3h5.6l.6.4c.5.4.7.6,1,.6h.6l.8-.5h47.2v.7c.2,2,.2,2.2.4,4.2,0,.3.1.4.3,2.5s.3,3.5.3,3.6c.3,2.6.2,2.7.4,5.9s.5,5,.5,5.1C207.6,87.4,207.7,88,207.8,89.4Z" transform="translate(-12.2 -9.9)" fill="url(#_10_lpi_10_3)"/><path d="M207.8,89.9c0,.4.1,1,.1,2.4a17.2,17.2,0,0,1,.1,2c.1,1.1.3,2,.3,2.3s.2,1.4.7,7,.6,7,.7,7.3.3,4.9.5,7.2.2,1.5.2,1.5l.3,2.5c0,.4.1,1.3.1,2.5v1.6a5.4,5.4,0,0,1,.1.8,8.2,8.2,0,0,1,.1,1l.3,1a3.5,3.5,0,0,1,.2,1.2c0,.3.1.4-.1.6l-.4.2h-1.5l-9.1.4h-6.9c-3.9.1-7.1,0-8.7-.1h-7.7l-1.9-.2-3.9-.5-3.5-.6-1.7-.2c-2-.1-2.4.1-4.4.1a24.8,24.8,0,0,0-2.9-.2l-2.5.2-1.4.3-2.7.3-3.1.6-4.6.2-2.5.2c-3.3.1-4.5,0-8.7.2h-1.7a61.6,61.6,0,0,1-6.8-.2h-8.5l-1.1-.2h-2.5l-1.6.3h-.5l-1.5.2h-6l-3-.2H92.5l-2.5-.2H84.3l-3.1.2H78.8a1.8,1.8,0,0,1-.7-.5c-.3-.2-.3-.3-1.2-1.4s-.2-.3-.2-.5v-1c0-.3-.1-.6-.1-.8v-2.1c-.1-1.7-.3-8.9-.4-12.8s-.1-8.1-.2-10c0-4,0-7.6.1-11.6V81.5c.1-3.4.1-4.9.1-7.4s-.1-4.2-.2-6.8v-11c.1-8.1,0-9.5.1-13.8s.1-4.8.1-9.1,0-8.7-.1-10.7c0,0-.2-2.7-.2-4.5,0-.2.1-.8.1-1.7v-.6a7.6,7.6,0,0,1,.1-1.5,3.4,3.4,0,0,1,.3-.8c.2-.3.6-.4,1.3-.6l1.3-.3h6.1l5.4-.3,6.2-.4,9.6-.3,9.2-.4h57.1c8.2.1,8.7.2,11.1.1h9.8l2,.2a4.6,4.6,0,0,1,1.4.5l1.3,1c.5.5.6.4,1.1.8a3.4,3.4,0,0,1,1.2,1.2,3,3,0,0,1,.7,1.5,30.1,30.1,0,0,1,.5,4.6c0,.2.1.7.1,1.2s.2,1.2.2,1.3a41.5,41.5,0,0,1,.4,5.5c0,.8.1,1.6.2,3.4s.2,2,.3,3.8c.4,5.2.6,5.9.9,10.3.2,2.7.3,4.1.4,5.1s0,1.7.1,3.1a23.6,23.6,0,0,1,.3,2.6c.2,1.2.3,1.7.4,2.6s.3,2.1.5,3.9v.7c.2,2,.2,2.2.4,4.2,0,.3.1.4.3,2.5s.3,3.5.3,3.6c.3,2.6.2,2.7.4,5.9s.5,5,.5,5.1c.2,1.8.3,2.4.4,3.8Z" transform="translate(-12.2 -9.9)" fill="none" stroke="#1d1d1b" stroke-linecap="round" stroke-linejoin="round" stroke-width="0.57"/><path d="M76,67.3h0l.7-.3c.7-.3.9-.3,1.1-.6l.3-.4c.1-.2,0-.4,0-1v-.6c.2-.5,1-.7,1.1-.7h34.1c9.4-.1,9.7,0,14.8,0,.5,0,5.5-.1,6.9,0h4.2l1.5-.4h2.8l.6.4c.3.3.5.5.7.5s.3,0,.7-.1l.8-.2,1-.2,1.1-.2,1.3-.3h5.6l.6.4c.5.4.7.6,1,.6h.6l.8-.5h47.2" transform="translate(-12.2 -9.9)" fill="none" stroke="#1d1d1b" stroke-miterlimit="10" stroke-width="0.57"/><path d="M207.8,89.9h0l-2.6.2h-5.5l-4.4.2H177.4c-5.2.2-5.7.3-8.6.3H161l-3.6.2H110.5l-8-.2L93,90.6H80.3a28.7,28.7,0,0,0-4.2,0H76" transform="translate(-12.2 -9.9)" fill="none" stroke="#1d1d1b" stroke-miterlimit="10" stroke-width="0.57"/><path d="M144.3,10.8c.5,10.2,1.2,20.5,1.9,30.9l1.5,21.7" transform="translate(-12.2 -9.9)" fill="none" stroke="#1d1d1b" stroke-linecap="round" stroke-linejoin="round" stroke-width="0.43"/><path d="M151.6,10.7c.4,7,.8,13.7,1.2,20.5s.7,11.1,1.1,15.7c.1,1.1.2,2.2.4,4,.2,3.6.2,5.2.5,8.6.1,1.6.3,2.8.3,3.6" transform="translate(-12.2 -9.9)" fill="none" stroke="#1d1d1b" stroke-linecap="round" stroke-linejoin="round" stroke-width="0.43"/><path d="M149.6,91.1c.5,9,1.1,18.2,1.7,27.4.2,4,.5,8,.8,12.1" transform="translate(-12.2 -9.9)" fill="none" stroke="#1d1d1b" stroke-linecap="round" stroke-linejoin="round" stroke-width="0.43"/><path d="M157,91c.1,2.1.4,5.2.6,9,.5,7,.7,10.4,1.2,17.7.2,2.9.5,7,.9,12.1" transform="translate(-12.2 -9.9)" fill="none" stroke="#1d1d1b" stroke-linecap="round" stroke-linejoin="round" stroke-width="0.43"/><line x1="31.2" y1="66.1" x2="32.6" y2="66.1" fill="none" stroke="#1d1d1b" stroke-linecap="round" stroke-linejoin="round" stroke-width="0.28"/><line x1="35.3" y1="66.1" x2="55.2" y2="66.1" fill="none" stroke-dasharray="2.65 2.65" stroke-linecap="round" stroke-linejoin="round" stroke-width="0.28" stroke="#1d1d1b"/><line x1="56.5" y1="66.1" x2="57.9" y2="66.1" fill="none" stroke="#1d1d1b" stroke-linecap="round" stroke-linejoin="round" stroke-width="0.28"/><text transform="translate(125.8 136.2)" font-size="12" font-family="SimSun">1</text></g><g id="outline-2"><path d="M37.7,244.2c.8,11.4.4,9.6.8,12.1,0,0,1.3,9,1.1,13,0,.3-.1,1-.2,2.5a7.7,7.7,0,0,1-.3,2c-.8,1-3.7-.1-6-1a39.8,39.8,0,0,1-7.7-4c-2-1.3-3.4-2.4-3.9-4.1a2.8,2.8,0,0,1-.2-1.1c-.9-11.7-1.3-17.6-1.8-35.8a34.8,34.8,0,0,0-.2-3.9,3.6,3.6,0,0,1-.1-1.8c.3-.8.9-1.1,1.6-1.6s1.4-3.3,3.1-4.2a3.5,3.5,0,0,1,3-.2c.7.3.9.7,3,2.8s1.3,1.1,1.6,1.2a5.5,5.5,0,0,0,3-.1c.8-.3,1-.6,1.3-.4s.8,2.2.8,2.8c-.1,2.8.5,5.7.2,8.5S36.9,232,37.7,244.2Z" transform="translate(-12.2 -9.9)" stroke="#1d1d1b" stroke-linecap="round" stroke-linejoin="round" stroke-width="0.57" fill="url(#_10_lpi_10_5)"/><path d="M184.2,186.8l-.9,1.1a3,3,0,0,1-.9.7l-.9.2h-6.2l-3.1.2-7.1.2-4.1.2H146.6c-5.2,0-4.6-.1-8,0H124.3c-2.8-.2-5.2-.2-7.5-.2h-6.6l-5.1.2-7.6.2H92.6l-4.3.2H78.6l-1.1-.2-1.7-.2H71.5l-4.1-.3-3.9-.2H59.4l-.8-.8a3,3,0,0,1-.4-.8,3.6,3.6,0,0,1-.3-1.7,22.5,22.5,0,0,1,0-2.6v-3.8c0-1,0-1.6.1-2.8a7.3,7.3,0,0,1,.2-1.8c.1-.2.2-.6.4-1a3,3,0,0,1,1.2-1.4l1.4-.2H71.4l.9.3c2.1.9,3.3,1.6,4.4,1.7h1l1,.2h7.8l5.3-.2,4.4-.2h1.5l1.6-.2,1.5-.8a11.3,11.3,0,0,1,1.8-.7l1.3-.3a21.6,21.6,0,0,1,3.3-.2h3.2l1.7.6c1.3.4,1.7.7,2.6.9h1.5a21.1,21.1,0,0,0,3.2.3h10.2l5.2-.3a7.2,7.2,0,0,0,2.3-.2l1-.4,2.8-1.1,1-.4,1.8-.3h4a7.6,7.6,0,0,1,1.8.6l1.1.5,1.4,1.3.7.5a2.2,2.2,0,0,0,1.1.2h12.3l1-.5c1.2-.8,2-1.7,2.9-2.3l.8-.4.8-.2a3.5,3.5,0,0,0,1.1-.3h5.9l1.5.2a2.5,2.5,0,0,1,1.1.4l1.4.7a14.8,14.8,0,0,1,2,1.7,10,10,0,0,1,1.8,2.4,3.7,3.7,0,0,1,.4.9c.1.3.1.5.3,1.3a10.7,10.7,0,0,0,.3,1.7,6.2,6.2,0,0,1,.1,1.2,8.4,8.4,0,0,1,0,1.6,13,13,0,0,1-.3,1.3l-.8.9-1.2,1.3Z" transform="translate(-12.2 -9.9)" stroke="#1d1d1b" stroke-linecap="round" stroke-linejoin="round" stroke-width="0.57" fill="url(#_10_lpi_10_5)"/><path d="M183.2,274.8H146.5c-5.3.1-5.4,0-15,0H78.6c-2.1.1-2.8-.1-4.8,0H67.7l-1.2-.3h-5a7.9,7.9,0,0,1-2.3-.8c-.5-.2-.7-.2-.9-.4a4.2,4.2,0,0,1-1.3-1.4l-.6-1A12.3,12.3,0,0,1,56,269v-1.3a3.5,3.5,0,0,0-.1-.7v-4.8c.1-1.6,0-1.3,0-3.1s.1-2.5.1-3.8,0-2.7,0-7.4c0-1.7,0-2.5-.1-4.1V241c-.1-1.3-.1-2-.1-2.5s-.1-2.3-.1-3.3v-2.5c.1-2.4,0-3,0-6.5a18.7,18.7,0,0,1,.1-2.1,16.9,16.9,0,0,1,.1-3.2l.2-.8.4-.9.5-1c.2-.6.2-.7.4-.8a1.2,1.2,0,0,1,.9-.3h4.3c2.8,0,5.1-.3,9-.2h1.1c2,0,3.1-.2,5-.3h2.9l7.2-.2,10.6-.3h2.3l7.8-.2h2.8a16.9,16.9,0,0,0,2.5-.2h10.5l1.1-.2h17.8l6.2-.3h6.7l4.8-.2h3.9l11.4-.2h7.9c1,0,1.2.2,1.3.3s.2.4.3.6a4,4,0,0,1,0,1.1v2.7a9.3,9.3,0,0,1-.1,2.2v2.5c-.1,3.8-.1,4.4-.2,7s-.1,2.6-.2,5.5-.1,4.1-.2,10-.1,4.4-.2,6.9c-.1,5.8-.2,8.7-.2,10.5v7.6c-.1.5-.1.9-.2,1.4a8.2,8.2,0,0,1-.4,1.4,1,1,0,0,1-.3.8Z" transform="translate(-12.2 -9.9)" fill="none" stroke="#1d1d1b" stroke-linecap="round" stroke-linejoin="round" stroke-width="0.57"/><path d="M58,221.1c-.1,1.5-.1,3.7-.1,6.4s-.1,3.4-.1,6.6v6.8c-.1,7.4-.1,8.5-.1,10.8,0,.4-.1,1.8-.1,3.7v2.4a32.6,32.6,0,0,0-.1,4.2,13.7,13.7,0,0,0,.4,2" transform="translate(-12.2 -9.9)" fill="none" stroke="#1d1d1b" stroke-linecap="round" stroke-linejoin="round" stroke-width="0.28"/><path d="M71.1,219.7c0,5.7.1,10.3.2,13.5.1,4.8.2,5.6.2,9.9.1,5.9,0,6.3.1,10.3.1,2,.2,3.8.2,6.9s0,3.5,0,4.6" transform="translate(-12.2 -9.9)" fill="none" stroke="#1d1d1b" stroke-linecap="round" stroke-linejoin="round" stroke-width="0.28"/><path d="M99.4,218.2c0,1.6.1,3.8.2,6.4s.1,5.5.2,8.6,0,2.8.1,7,.1,4.2.1,6.4V252c.1,5.3.2,5,.1,7.6,0,.8,0,2,.1,3.6a19.5,19.5,0,0,0,.2,2.9" transform="translate(-12.2 -9.9)" fill="none" stroke="#1d1d1b" stroke-linecap="round" stroke-linejoin="round" stroke-width="0.28"/><path d="M110.5,217.4c.1,8.9.1,13.9.1,16.9,0,.8-.1,2.4,0,4.7s.1,3.5.2,7.1,0,1.8.1,6.6c0,2.7.1,4,.1,5.1s0,3.8.1,5.6a3.3,3.3,0,0,1,0,1.4v.9a1.3,1.3,0,0,0-.1.6" transform="translate(-12.2 -9.9)" fill="none" stroke="#1d1d1b" stroke-linecap="round" stroke-linejoin="round" stroke-width="0.28"/><path d="M138.2,217.9v11.4c.1,9,.1,8.9.1,15.8,0,4.4,0,5.9.1,8.5s.2,5.6.2,6.9a3.6,3.6,0,0,0,0,1.1,3.1,3.1,0,0,0,.1,1.2,10.4,10.4,0,0,0,.2,1.5" transform="translate(-12.2 -9.9)" fill="none" stroke="#1d1d1b" stroke-linecap="round" stroke-linejoin="round" stroke-width="0.28"/><path d="M147.9,216.3c.1,11.4.3,18,.4,22,0,.7.2,6.7.3,12.6v4.3c0,4.1.1,6.1.1,6.7a3.8,3.8,0,0,0,0,1.5c0,.7.1,1.1.1,1.8s-.1.9-.1,1.1" transform="translate(-12.2 -9.9)" fill="none" stroke="#1d1d1b" stroke-linecap="round" stroke-linejoin="round" stroke-width="0.28"/><path d="M169.1,216.9c.1,4.4.1,7.9.2,10.2v24.4c0,1.9,0,5.2.2,9.6.1,2.7.2,4.9.3,6.3" transform="translate(-12.2 -9.9)" fill="none" stroke="#1d1d1b" stroke-linecap="round" stroke-linejoin="round" stroke-width="0.28"/><path d="M56.2,269.9a14.4,14.4,0,0,0,.9-2.1c.1-.5.1-.8.3-1.6l.3-1a2.7,2.7,0,0,1,.2-1.2.9.9,0,0,1,.3-.6h0l.3-.2h1.1c.6.2.6.4,1.1.6h1a37.1,37.1,0,0,0,6-.1h.9l1-.2.6.3,1,.6.6.4,1.1.4a9.9,9.9,0,0,0,2.2.5l4.2.2h3.4l1.6.2,2.9.3H99.5c.3-.1.3-.3.7-.6l.9-.6.5-.3c1.1-.7,1.4-.9,1.7-.8s.2.1.4.2h1.6c1.1,0,1.5.1,1.6.2l.4.2,1.5.8a16.8,16.8,0,0,0,2.5,1l2.2.8a30.5,30.5,0,0,0,2.9,1.1l1.4.3,1.8.6.7.2.7.3a3.5,3.5,0,0,0,1.1.3,11,11,0,0,0,2.6,0h10.1a8.6,8.6,0,0,1,1.8.4,2.4,2.4,0,0,0,1,0l1-.5.7-.4a3.7,3.7,0,0,1,1.3-.7l1.3-.4h4.9l.8.2,1.3.5.8.3.8.4,1.2.9.9.5h3.1l1.8-.2h1.6l2.1-.3,1.8-.3,2.2-.3,1.4-.2h1.7c.2,0,.4-.2,1-.5l.9-.5.9-.6.8-.3a4.5,4.5,0,0,1,1.2,0,7,7,0,0,1,1.7.6l1.6.5,1.6.8,2.1.9,2.6,1.4a7.9,7.9,0,0,1,1.3,1.2" transform="translate(-12.2 -9.9)" fill="none" stroke="#1d1d1b" stroke-linecap="round" stroke-linejoin="round" stroke-width="0.43"/><path d="M185.7,220.2h-1l-1.5.2h-5.9a7,7,0,0,1-1.7-.4,10.2,10.2,0,0,0-1.5-.8l-.8-.3-1.6-.5-.9-.6-.8-.6c-.4-.2-.6-.1-1.1-.4l-.6-.4-.9-.3-1.3-.4a8.3,8.3,0,0,0-2.5-.2h-6l-1.1.2-1.4.2h-1l-1.3.2h-4.6a3,3,0,0,0-1.4.2l-.7.4-.7.6-.5.6-.9.4-1.3.2H140a4,4,0,0,1-1.5-.7l-1.1-.6-.7-.4c-.4-.2-.8-.1-1.6-.1h-1.5l-1.6-.3h-.5l-1.6-.2h-7.3l-1.6.2H108.8a2.7,2.7,0,0,0-1,.6l-.8.5a8.8,8.8,0,0,1-2.8.6l-1.8-.2a4.5,4.5,0,0,1-1.6-.3,12.1,12.1,0,0,0-1.4-.5H89.5l-2.2.2H85.2l-2.3.2a17.6,17.6,0,0,0-2.3,0H76.9l-1.1.2-1,.2H70.7l-1.3.3-1.2.3-1.5.2H63l-1.2.2L60,221H56.7a1.7,1.7,0,0,1-.6-.6" transform="translate(-12.2 -9.9)" fill="none" stroke="#1d1d1b" stroke-linecap="round" stroke-linejoin="round" stroke-width="0.43"/><path d="M147.1,216.6c-.2,2.6-.2,4.7-.2,6.2s.1,2.3.1,2.6.2,2.2.3,3" transform="translate(-12.2 -9.9)" fill="none" stroke="#1d1d1b" stroke-linecap="round" stroke-linejoin="round" stroke-width="0.28"/><line x1="27.5" y1="234.7" x2="28.9" y2="234.7" fill="none" stroke="#1d1d1b" stroke-linecap="round" stroke-linejoin="round" stroke-width="0.28"/><line x1="31.3" y1="234.7" x2="39.7" y2="234.7" fill="none" stroke-dasharray="2.4 2.4" stroke-linecap="round" stroke-linejoin="round" stroke-width="0.28" stroke="#1d1d1b"/><line x1="40.9" y1="234.7" x2="42.3" y2="234.7" fill="none" stroke="#1d1d1b" stroke-linecap="round" stroke-linejoin="round" stroke-width="0.28"/><text transform="translate(98.3 279)" font-size="12" font-family="SimSun">2</text><line x1="110.9" y1="182.3" x2="110.9" y2="202" fill="#fff"/><line x1="110.9" y1="182.3" x2="110.9" y2="183.7" fill="none" stroke="#000" stroke-linecap="round" stroke-linejoin="round" stroke-width="0.28"/><line x1="110.9" y1="186.1" x2="110.9" y2="199.4" fill="none" stroke-dasharray="2.42 2.42" stroke-linecap="round" stroke-linejoin="round" stroke-width="0.28" stroke="#000"/><line x1="110.9" y1="200.6" x2="110.9" y2="202" fill="none" stroke="#000" stroke-linecap="round" stroke-linejoin="round" stroke-width="0.28"/></g><g id="outline-3"><path d="M317.4,88.5v.4l-16.2.3-9.9.2-13.5.3-12.7.2-21.9.5c0-.4-.1-.8-.1-1.6-.2-4.2-.2-4.9-.5-10.2,0-1.3,0-.5-.3-7.2-.2-3-.2-4-.3-5.3v-.6h0l.6-.7c.4-.7.3-.5.5-.7s.2-.5.4-.5h.4c.2,0,.4,0,.4-.1a19.9,19.9,0,0,1,2.5,0h8.1l.5.5c.4.6.5.6.6.6l.4-.2,1-.6.8-.6h5.2c2.6,0,5.6-.3,7.5-.3h2.7a3.9,3.9,0,0,1,1.2,0l.7.4c.5.3.5.5.8.5a.7.7,0,0,0,.6-.1l.5-.3a2.2,2.2,0,0,0,.7-.6,3.1,3.1,0,0,1,1.3-.2h4.8c.4,0,.5,0,.5.1s.2.1.5.4a4.9,4.9,0,0,0,.9,1c.1,0,.2.1.4,0s.4-.1.7-.4.4-.5.5-.5.1-.3.2-.4.5-.2.9-.2h.9c.8,0,3.4,0,5.3-.2h4.7a.6.6,0,0,1,.5.2l.3.2,1.4.7h.8l.7-.4.5-.5.4-.4h8c.4,0,.4-.1.5,0l.5.2.4.3.5.5.8.2h1.9v.5c.1,1.7.2,5.9.1,7.4v5.1c.1,1.3,0,2.2,0,3.4s0,2.9.1,4.4S317.2,86.1,317.4,88.5Z" transform="translate(-12.2 -9.9)" fill="url(#_10_lpi_10_9)"/><path d="M317.4,88.9c.1,1.8.1,2.8.1,3.5a36.7,36.7,0,0,0,0,4.7c.1.6.1.9.2,1.7v5.1c-.1,2.7,0,4.3,0,7.7s-.1,4.2,0,7.1v6.5c0,2.6-.1,2.9-.1,4.2s0,1.3.1,3.9c0,.9,0,4.8-.2,7.9a12,12,0,0,1-.2,1.7,8.3,8.3,0,0,1-.7,2.6,1.4,1.4,0,0,1-.5.8l-.6.3-.7.2-1.4.2-2.5.3-4.1.4-1.8.3-2.6.3-3.4.3-2.9.2-6.5.5h-2.4l-6.6.4h-11l-1.6-.4-1-.3-.4-.2-.3-.2-.4.2-1.2.2h-4.9l-.3-.2-.6.3h-1.1l-.6-.2-.4-.2-.3.3h-1.2c-.2-.1-.3,0-.5,0h-2.6a9.2,9.2,0,0,1-2.2-.4l-.8-.3a2.5,2.5,0,0,1-.9-1.3,13.1,13.1,0,0,1-.7-1.9,12.3,12.3,0,0,1-.7-2.5c-.2-.7-.2-1.2-.3-1.5-.4-3.9-.4-3-.7-5.9-.1-1.3-.3-3-.4-5.3s-.2-3.7-.4-6.7-.3-2.6-.5-5.2-.1-2.9-.3-5.8-.1-2.5-.3-6.4c-.3-6.2-.3-6.9-.6-11.9-.1-2.2-.1-2.6-.2-3.6s-.1-.8-.1-1.6c-.2-4.2-.2-4.9-.5-10.2,0-1.3,0-.5-.3-7.2-.2-3-.2-4-.3-5.3v-.6c0-1-.1-2.8-.2-5s-.1-2.9-.2-4.5-.2-3-.3-5.7c0-.4-.1-2.7-.2-5.2s-.2-4.2-.3-9.6c-.1-2.8-.1-5.6-.2-7.1s-.1-1-.1-1.8V25c0-.5-.1-.5-.1-1.5a3.3,3.3,0,0,1,0-1.5c0-.4.1-.4.3-1a6.5,6.5,0,0,0,.4-1.8c.2-.8.2-1.2.3-1.6s.1-1.2.2-2a4.5,4.5,0,0,0,.2-.8,1.7,1.7,0,0,0,.1-.7c.1-.4.1-.5.2-.6s.3-.2.5-.2l1-.3,5.4-1.2,4.1-.8,1.5-.3h1.6l1.5-.2,1.6-.2h24.4l1.1.3c.8.2.9,0,2.4.2h.8a3.3,3.3,0,0,1,1,0l.7.2h.7l.9-.2,1.1-.2H297l1.3.2h1.8a10.6,10.6,0,0,0,2.4-.1l1.2-.2H316a1.5,1.5,0,0,1,.5.7,3,3,0,0,1,.2.9,4.1,4.1,0,0,1,.1,1c.1,1.2.1,2.9.1,3.4a28,28,0,0,0,0,2.9v2c0,2.2,0,2.7.1,4.3s-.1,2.3-.1,5.1v3.7c0,1.1.1,4,.1,7.4s-.1,3.3,0,5.4.1,2.7,0,4.7V56c-.1,3.1-.1,3.9-.1,5.5v2.4c.1,1.7.2,5.9.1,7.4v5.1c.1,1.3,0,2.2,0,3.4s0,2.9.1,4.4.1,1.9.3,4.3Z" transform="translate(-12.2 -9.9)" fill="none" stroke="#1d1d1b" stroke-linecap="round" stroke-linejoin="round" stroke-width="0.57"/><path d="M242,65.5l.6-.7c.4-.7.3-.5.5-.7s.2-.5.4-.5h.4c.2,0,.4,0,.4-.1a19.9,19.9,0,0,1,2.5,0h8.1l.5.5c.4.6.5.6.6.6l.4-.2,1-.6.8-.6h5.2c2.6,0,5.6-.3,7.5-.3h2.7a3.9,3.9,0,0,1,1.2,0l.7.4c.5.3.5.5.8.5a.7.7,0,0,0,.6-.1l.5-.3a2.2,2.2,0,0,0,.7-.6,3.1,3.1,0,0,1,1.3-.2h4.8c.4,0,.5,0,.5.1s.2.1.5.4a4.9,4.9,0,0,0,.9,1c.1,0,.2.1.4,0s.4-.1.7-.4.4-.5.5-.5.1-.3.2-.4.5-.2.9-.2h.9c.8,0,3.4,0,5.3-.2h4.7a.6.6,0,0,1,.5.2l.3.2,1.4.7h.8l.7-.4.5-.5.4-.4h8c.4,0,.4-.1.5,0l.5.2.4.3.5.5.8.2h1.9" transform="translate(-12.2 -9.9)" fill="none" stroke="#1d1d1b" stroke-linecap="round" stroke-linejoin="round" stroke-width="0.57"/><path d="M317.4,88.9l-16.2.3-9.9.2-13.5.3-12.7.2-21.9.5" transform="translate(-12.2 -9.9)" fill="none" stroke="#1d1d1b" stroke-linecap="round" stroke-linejoin="round" stroke-width="0.57"/><path d="M253.8,10.8c.3,17.6.7,35.1,1.1,52.6" transform="translate(-12.2 -9.9)" fill="none" stroke="#1d1d1b" stroke-linecap="round" stroke-linejoin="round" stroke-width="0.43"/><path d="M256.9,10.5c.1,9.6.2,19.2.4,28.9l.6,23.9" transform="translate(-12.2 -9.9)" fill="none" stroke="#1d1d1b" stroke-linecap="round" stroke-linejoin="round" stroke-width="0.43"/><path d="M274,10.3c0,1.2,0,2.8.1,4.8.1,5.2.3,8.9.3,10.5.2,5.5.2,8.6.3,15.3,0,5.1.2,12.6.4,22" transform="translate(-12.2 -9.9)" fill="none" stroke="#1d1d1b" stroke-linecap="round" stroke-linejoin="round" stroke-width="0.43"/><path d="M276.1,10.4c.1.9.2,2.2.3,3.8.2,3.6.1,6.2.1,7.3s.1,5.8.2,16.3c.1,7.4.1,5.3.2,9.1s0,6.8.1,10.2.3,4.8.4,6.1" transform="translate(-12.2 -9.9)" fill="none" stroke="#1d1d1b" stroke-linecap="round" stroke-linejoin="round" stroke-width="0.43"/><path d="M284.6,10.9c.1,7.2.3,14.5.3,21.9.1,10.1.1,20,.1,29.9" transform="translate(-12.2 -9.9)" fill="none" stroke="#1d1d1b" stroke-linecap="round" stroke-linejoin="round" stroke-width="0.43"/><path d="M287,11.1c.1,13.5.3,27.1.7,40.8.1,3.6.1,7.1.2,10.7" transform="translate(-12.2 -9.9)" fill="none" stroke="#1d1d1b" stroke-linecap="round" stroke-linejoin="round" stroke-width="0.43"/><path d="M300.6,11.4c.2,17.2.5,34.4.8,51.6" transform="translate(-12.2 -9.9)" fill="none" stroke="#1d1d1b" stroke-linecap="round" stroke-linejoin="round" stroke-width="0.43"/><path d="M302.8,11.2c.2,17.3.3,34.5.5,51.7" transform="translate(-12.2 -9.9)" fill="none" stroke="#1d1d1b" stroke-linecap="round" stroke-linejoin="round" stroke-width="0.43"/><path d="M311.9,11.2c.2,23.6.4,40.8.4,43.5,0,.5,0,2.2.1,4.6s.1,2,.2,2.7" transform="translate(-12.2 -9.9)" fill="none" stroke="#1d1d1b" stroke-linecap="round" stroke-linejoin="round" stroke-width="0.43"/><path d="M313,88.9c.2,9.4.4,18.7.5,28.1s.4,20,.5,29.9" transform="translate(-12.2 -9.9)" fill="none" stroke="#1d1d1b" stroke-linecap="round" stroke-linejoin="round" stroke-width="0.43"/><path d="M303.5,89.1c.1,10.2.3,20.4.5,30.6l.6,28.4" transform="translate(-12.2 -9.9)" fill="none" stroke="#1d1d1b" stroke-linecap="round" stroke-linejoin="round" stroke-width="0.43"/><path d="M302.1,89.2l1.5,59" transform="translate(-12.2 -9.9)" fill="none" stroke="#1d1d1b" stroke-linecap="round" stroke-linejoin="round" stroke-width="0.43"/><path d="M288.6,89.5c.1,7.5.3,15.1.5,22.7.3,12.4.5,24.8.7,37.1" transform="translate(-12.2 -9.9)" fill="none" stroke="#1d1d1b" stroke-linecap="round" stroke-linejoin="round" stroke-width="0.43"/><path d="M286.1,89.5c.5,20,.9,39.9,1.4,59.9" transform="translate(-12.2 -9.9)" fill="none" stroke="#1d1d1b" stroke-linecap="round" stroke-linejoin="round" stroke-width="0.43"/><path d="M277.5,89.7l1.2,60.2" transform="translate(-12.2 -9.9)" fill="none" stroke="#1d1d1b" stroke-linecap="round" stroke-linejoin="round" stroke-width="0.43"/><path d="M275.7,89.7l.6,23c.3,12.4.7,24.8,1,37.2" transform="translate(-12.2 -9.9)" fill="none" stroke="#1d1d1b" stroke-linecap="round" stroke-linejoin="round" stroke-width="0.43"/><path d="M258.4,90.1c.3,12.5.5,25.1.7,37.7.2,7.1.3,14.1.4,21.1" transform="translate(-12.2 -9.9)" fill="none" stroke="#1d1d1b" stroke-linecap="round" stroke-linejoin="round" stroke-width="0.43"/><path d="M255.6,90.1l1.2,58.9" transform="translate(-12.2 -9.9)" fill="none" stroke="#1d1d1b" stroke-linecap="round" stroke-linejoin="round" stroke-width="0.43"/><text transform="translate(268.1 154.4)" font-size="12" font-family="SimSun">3</text></g></svg>