<svg xmlns="http://www.w3.org/2000/svg" xmlns:xlink="http://www.w3.org/1999/xlink" viewBox="0 0 168.3 279.1"><defs><pattern id="_10_lpi_10_" data-name="10 lpi 10%" width="72" height="72" patternTransform="translate(23.9 35.9) rotate(-45)" patternUnits="userSpaceOnUse" viewBox="0 0 72 72"><rect width="72" height="72" fill="none"/><line x1="71.8" y1="68.4" x2="144.3" y2="68.4" fill="none" stroke="#231815" stroke-width="0.28"/><line x1="71.8" y1="54" x2="144.3" y2="54" fill="none" stroke="#231815" stroke-width="0.28"/><line x1="71.8" y1="39.6" x2="144.3" y2="39.6" fill="none" stroke="#231815" stroke-width="0.28"/><line x1="71.8" y1="25.2" x2="144.3" y2="25.2" fill="none" stroke="#231815" stroke-width="0.28"/><line x1="71.8" y1="10.8" x2="144.3" y2="10.8" fill="none" stroke="#231815" stroke-width="0.28"/><line x1="71.8" y1="61.2" x2="144.3" y2="61.2" fill="none" stroke="#231815" stroke-width="0.28"/><line x1="71.8" y1="46.8" x2="144.3" y2="46.8" fill="none" stroke="#231815" stroke-width="0.28"/><line x1="71.8" y1="32.4" x2="144.3" y2="32.4" fill="none" stroke="#231815" stroke-width="0.28"/><line x1="71.8" y1="18" x2="144.3" y2="18" fill="none" stroke="#231815" stroke-width="0.28"/><line x1="71.8" y1="3.6" x2="144.3" y2="3.6" fill="none" stroke="#231815" stroke-width="0.28"/><line x1="71.8" y1="72" x2="144.3" y2="72" fill="none" stroke="#231815" stroke-width="0.28"/><line x1="71.8" y1="57.6" x2="144.3" y2="57.6" fill="none" stroke="#231815" stroke-width="0.28"/><line x1="71.8" y1="43.2" x2="144.3" y2="43.2" fill="none" stroke="#231815" stroke-width="0.28"/><line x1="71.8" y1="28.8" x2="144.3" y2="28.8" fill="none" stroke="#231815" stroke-width="0.28"/><line x1="71.8" y1="14.4" x2="144.3" y2="14.4" fill="none" stroke="#231815" stroke-width="0.28"/><line x1="71.8" y1="64.8" x2="144.3" y2="64.8" fill="none" stroke="#231815" stroke-width="0.28"/><line x1="71.8" y1="50.4" x2="144.3" y2="50.4" fill="none" stroke="#231815" stroke-width="0.28"/><line x1="71.8" y1="36" x2="144.3" y2="36" fill="none" stroke="#231815" stroke-width="0.28"/><line x1="71.8" y1="21.6" x2="144.3" y2="21.6" fill="none" stroke="#231815" stroke-width="0.28"/><line x1="71.8" y1="7.2" x2="144.3" y2="7.2" fill="none" stroke="#231815" stroke-width="0.28"/><line x1="-0.3" y1="68.4" x2="72.3" y2="68.4" fill="none" stroke="#231815" stroke-width="0.28"/><line x1="-0.3" y1="54" x2="72.3" y2="54" fill="none" stroke="#231815" stroke-width="0.28"/><line x1="-0.3" y1="39.6" x2="72.3" y2="39.6" fill="none" stroke="#231815" stroke-width="0.28"/><line x1="-0.3" y1="25.2" x2="72.3" y2="25.2" fill="none" stroke="#231815" stroke-width="0.28"/><line x1="-0.3" y1="10.8" x2="72.3" y2="10.8" fill="none" stroke="#231815" stroke-width="0.28"/><line x1="-0.3" y1="61.2" x2="72.3" y2="61.2" fill="none" stroke="#231815" stroke-width="0.28"/><line x1="-0.3" y1="46.8" x2="72.3" y2="46.8" fill="none" stroke="#231815" stroke-width="0.28"/><line x1="-0.3" y1="32.4" x2="72.3" y2="32.4" fill="none" stroke="#231815" stroke-width="0.28"/><line x1="-0.3" y1="18" x2="72.3" y2="18" fill="none" stroke="#231815" stroke-width="0.28"/><line x1="-0.3" y1="3.6" x2="72.3" y2="3.6" fill="none" stroke="#231815" stroke-width="0.28"/><line x1="-0.3" y1="72" x2="72.3" y2="72" fill="none" stroke="#231815" stroke-width="0.28"/><line x1="-0.3" y1="57.6" x2="72.3" y2="57.6" fill="none" stroke="#231815" stroke-width="0.28"/><line x1="-0.3" y1="43.2" x2="72.3" y2="43.2" fill="none" stroke="#231815" stroke-width="0.28"/><line x1="-0.3" y1="28.8" x2="72.3" y2="28.8" fill="none" stroke="#231815" stroke-width="0.28"/><line x1="-0.3" y1="14.4" x2="72.3" y2="14.4" fill="none" stroke="#231815" stroke-width="0.28"/><line x1="-0.3" y1="64.8" x2="72.3" y2="64.8" fill="none" stroke="#231815" stroke-width="0.28"/><line x1="-0.3" y1="50.4" x2="72.3" y2="50.4" fill="none" stroke="#231815" stroke-width="0.28"/><line x1="-0.3" y1="36" x2="72.3" y2="36" fill="none" stroke="#231815" stroke-width="0.28"/><line x1="-0.3" y1="21.6" x2="72.3" y2="21.6" fill="none" stroke="#231815" stroke-width="0.28"/><line x1="-0.3" y1="7.2" x2="72.3" y2="7.2" fill="none" stroke="#231815" stroke-width="0.28"/><line x1="-72.3" y1="68.4" x2="0.3" y2="68.4" fill="none" stroke="#231815" stroke-width="0.28"/><line x1="-72.3" y1="54" x2="0.3" y2="54" fill="none" stroke="#231815" stroke-width="0.28"/><line x1="-72.3" y1="39.6" x2="0.3" y2="39.6" fill="none" stroke="#231815" stroke-width="0.28"/><line x1="-72.3" y1="25.2" x2="0.3" y2="25.2" fill="none" stroke="#231815" stroke-width="0.28"/><line x1="-72.3" y1="10.8" x2="0.3" y2="10.8" fill="none" stroke="#231815" stroke-width="0.28"/><line x1="-72.3" y1="61.2" x2="0.3" y2="61.2" fill="none" stroke="#231815" stroke-width="0.28"/><line x1="-72.3" y1="46.8" x2="0.3" y2="46.8" fill="none" stroke="#231815" stroke-width="0.28"/><line x1="-72.3" y1="32.4" x2="0.3" y2="32.4" fill="none" stroke="#231815" stroke-width="0.28"/><line x1="-72.3" y1="18" x2="0.3" y2="18" fill="none" stroke="#231815" stroke-width="0.28"/><line x1="-72.3" y1="3.6" x2="0.3" y2="3.6" fill="none" stroke="#231815" stroke-width="0.28"/><line x1="-72.3" y1="72" x2="0.3" y2="72" fill="none" stroke="#231815" stroke-width="0.28"/><line x1="-72.3" y1="57.6" x2="0.3" y2="57.6" fill="none" stroke="#231815" stroke-width="0.28"/><line x1="-72.3" y1="43.2" x2="0.3" y2="43.2" fill="none" stroke="#231815" stroke-width="0.28"/><line x1="-72.3" y1="28.8" x2="0.3" y2="28.8" fill="none" stroke="#231815" stroke-width="0.28"/><line x1="-72.3" y1="14.4" x2="0.3" y2="14.4" fill="none" stroke="#231815" stroke-width="0.28"/><line x1="-72.3" y1="64.8" x2="0.3" y2="64.8" fill="none" stroke="#231815" stroke-width="0.28"/><line x1="-72.3" y1="50.4" x2="0.3" y2="50.4" fill="none" stroke="#231815" stroke-width="0.28"/><line x1="-72.3" y1="36" x2="0.3" y2="36" fill="none" stroke="#231815" stroke-width="0.28"/><line x1="-72.3" y1="21.6" x2="0.3" y2="21.6" fill="none" stroke="#231815" stroke-width="0.28"/><line x1="-72.3" y1="7.2" x2="0.3" y2="7.2" fill="none" stroke="#231815" stroke-width="0.28"/><line x1="71.8" x2="144.3" fill="none" stroke="#231815" stroke-width="0.28"/><line x1="-0.3" x2="72.3" fill="none" stroke="#231815" stroke-width="0.28"/><line x1="-72.3" x2="0.3" fill="none" stroke="#231815" stroke-width="0.28"/></pattern></defs><g id="scale-1:1"><path d="M152.7,272.7v9.9H10.9v-9.9" transform="translate(-5.8 -3.7)" fill="none" stroke="#000" stroke-miterlimit="10" stroke-width="0.5"/><line x1="33.5" y1="268.9" x2="33.5" y2="278.9" fill="none" stroke="#000" stroke-miterlimit="10" stroke-width="0.5"/><line x1="61.9" y1="268.9" x2="61.9" y2="278.9" fill="none" stroke="#000" stroke-miterlimit="10" stroke-width="0.5"/><line x1="90.2" y1="268.9" x2="90.2" y2="278.9" fill="none" stroke="#000" stroke-miterlimit="10" stroke-width="0.5"/><line x1="118.6" y1="268.9" x2="118.6" y2="278.9" fill="none" stroke="#000" stroke-miterlimit="10" stroke-width="0.5"/><text transform="translate(1.5 264.4)" font-size="14.17" font-family="AdobeMingStd-Light-B5pc-H, Adobe Ming Std">0</text><text transform="translate(143.6 264.4)" font-size="14.17" font-family="AdobeMingStd-Light-B5pc-H, Adobe Ming Std">5cm</text></g><g id="outline"><path d="M115.1,150.8a6.1,6.1,0,0,1,.7,1l.5.7c-.1.3-.7.2-2.3.6s-1.2.4-1.5.2l-.7-.5-.7-.4a3.1,3.1,0,0,0-1.3-.1,11,11,0,0,0-1.6.3l-1.4.2h-2.3l-1.7-.2-1.4.3-1.2.2a17.2,17.2,0,0,1-2-.1H95.4c-1.5-.1-1.6-.2-2-.1l-.7.2H89.6l-3.6.5H82.8c-2.3,0-4,0-6.4-.2s-4.9-.5-6.7-.8l-5.5-1-2.9-.7a42,42,0,0,1-6.3-2.1l-1.6-.6-.3-.2h-.5c-.1-.1-.1-.2-.1-.6v-.5a16.2,16.2,0,0,0-.2-1.8,1.4,1.4,0,0,1,0-.7,2.4,2.4,0,0,1,.3-.9,7.1,7.1,0,0,0,.4-2,8,8,0,0,1-.1-1.1c0-.4,0-.6.1-.7l.7.2.8.3,1.6.7a52.8,52.8,0,0,0,5.5,2,75.8,75.8,0,0,0,15.2,2.8c3,.2,5.3.2,6.8.2a80,80,0,0,0,8.9-1,85.4,85.4,0,0,0,14.4-3.9l1.4-.6c1.2-.5,1.8-1,2-.8s.1.1.1.8a9.4,9.4,0,0,1,.1,1.2c.2.3.4.2.9.7a2.9,2.9,0,0,1,.8,1.1,3.6,3.6,0,0,1,.3,1.1,23.2,23.2,0,0,0,1.7,4.5A15,15,0,0,0,115.1,150.8Z" transform="translate(-5.8 -3.7)" fill="none" stroke="#000" stroke-linecap="round" stroke-linejoin="round" stroke-width="0.57"/><path d="M169.5,170.9c-.1,3.1-.1,4-.1,6.9v15.1c0,7.7-.1,7.9,0,12s.1,4.5.1,7.3-.2,6-.2,9.7a29.5,29.5,0,0,0-.1,4.2c0,.4-.1.9-.1,1.4s.1,1-.1,1.1a.7.7,0,0,1-.7-.2l-.6-.4c-.4-.3-.9,0-2.4.5l-2.2.7c-.6.3-.8.5-1.2.4s-.6-.2-1.5-.6l-.9-.2a3.1,3.1,0,0,0-1.5.1l-1.1.4-1.1.3-1-.6a2.5,2.5,0,0,0-1.1-.5,2.4,2.4,0,0,0-1.6.2c-.3.2-.4.4-.6.4s-.5-.3-.8-.5-.4-.2-1.3-1a5,5,0,0,1-1.3-1.3,2.3,2.3,0,0,1-.3-1.2c.3-22.3-.2-44.6.3-66.8,0-.2.1-5,.1-14.8,0,0,.2-46.4-.3-57.6-.1-.8,0-1.7-.1-2.5a8.6,8.6,0,0,1,0-1.8c0-.4,0-.4.1-.5s.4-.4,2.5-.5h3c.7,0,1-.1,1.3.1a4.2,4.2,0,0,1,.2.6,2.6,2.6,0,0,1,.1.7c.1.9.6,15.8.8,17.9a16.9,16.9,0,0,0,.1,2.3,4,4,0,0,1,.1,1.5c-.1.6-.3.8-.5,1.7a4.5,4.5,0,0,0-.3,1.6,6.2,6.2,0,0,0,.4,2.4c1,3.4,1.1,3.9,1.1,3.9s.5,1.8,1,2,.5,0,1.3-.1h1.5l4.4.2c.8,0,3.3-.1,4.2.4a1.2,1.2,0,0,1,.6.5,1.2,1.2,0,0,1,.1.8,19.3,19.3,0,0,0-.1,2.4c-.2,1.1-.1,3-.2,8,0,8.4-.1,8.3-.1,14.7,0,2.9.1,2.6.1,7.5v21.4Z" transform="translate(-5.8 -3.7)" stroke="#000" stroke-linecap="round" stroke-linejoin="round" stroke-width="0.57" fill="url(#_10_lpi_10_)"/><path d="M93.4,152.8l4.4-1.1c3.4-.8,4.1-.9,6-1.5l4.6-1.6,4.9-1.9" transform="translate(-5.8 -3.7)" fill="none" stroke="#000" stroke-linecap="round" stroke-linejoin="round" stroke-width="0.57"/><path d="M51.6,138.8a70,70,0,0,1-6.1-3.5" transform="translate(-5.8 -3.7)" fill="none" stroke="#000" stroke-linecap="round" stroke-linejoin="round" stroke-width="0.57"/><path d="M41.9,132.9a57.7,57.7,0,0,1-6.9-5.7A67.8,67.8,0,0,1,17.1,98.7,66.2,66.2,0,0,1,13.9,79,68.4,68.4,0,0,1,25.1,41.7a79.1,79.1,0,0,1,7.6-9.5,67.2,67.2,0,0,1,35.4-19,57,57,0,0,1,12.7-1.1c4.3,0,28.2.8,47,19.5a70.4,70.4,0,0,1,11.7,15.8A71.3,71.3,0,0,1,147.8,79a69.4,69.4,0,0,1-2.5,19.4,74.4,74.4,0,0,1-5.9,14,67.2,67.2,0,0,1-19.5,21.1" transform="translate(-5.8 -3.7)" fill="none" stroke="#000" stroke-linecap="round" stroke-linejoin="round" stroke-width="0.57" stroke-dasharray="14.49 4.35"/><path d="M118.1,134.7a58.6,58.6,0,0,1-6.1,3.7" transform="translate(-5.8 -3.7)" fill="none" stroke="#000" stroke-linecap="round" stroke-linejoin="round" stroke-width="0.57"/><path d="M146.7,115.6a61.6,61.6,0,0,1-3.7,6" transform="translate(-5.8 -3.7)" fill="none" stroke="#000" stroke-linecap="round" stroke-linejoin="round" stroke-width="0.57"/><path d="M139.7,126.1c-1.1,1.3-2.2,2.6-3.5,3.9A69.1,69.1,0,0,1,124,140.4" transform="translate(-5.8 -3.7)" fill="none" stroke="#000" stroke-linecap="round" stroke-linejoin="round" stroke-width="0.57" stroke-dasharray="18.52 5.56"/><path d="M121.7,141.9c-2.3,1.4-4.4,2.5-6.2,3.4" transform="translate(-5.8 -3.7)" fill="none" stroke="#000" stroke-linecap="round" stroke-linejoin="round" stroke-width="0.57"/><path d="M50.4,146.9c-1.8-.9-3.9-1.9-6.3-3.3" transform="translate(-5.8 -3.7)" fill="none" stroke="#000" stroke-linecap="round" stroke-linejoin="round" stroke-width="0.57"/><path d="M40.4,141.3a75.6,75.6,0,0,1-7.3-5.4A77.2,77.2,0,0,1,9.4,101.1,71,71,0,0,1,6.1,78.9c.1-29.5,18.2-49.5,19.8-51.3C47.6,4.3,76.4,4,80.9,4a76,76,0,0,1,63,35,73.4,73.4,0,0,1,10.9,30.1" transform="translate(-5.8 -3.7)" fill="none" stroke="#000" stroke-linecap="round" stroke-linejoin="round" stroke-width="0.57" stroke-dasharray="14.49 4.35"/><path d="M155.1,71.2a67.1,67.1,0,0,1,.4,7.1" transform="translate(-5.8 -3.7)" fill="none" stroke="#000" stroke-linecap="round" stroke-linejoin="round" stroke-width="0.57"/></g></svg>