<svg xmlns="http://www.w3.org/2000/svg" xmlns:xlink="http://www.w3.org/1999/xlink" viewBox="0 0 563.8 375.6"><defs><pattern id="_10_lpi_10_" data-name="10 lpi 10%" width="72" height="72" patternTransform="translate(119.8 19.9) rotate(158)" patternUnits="userSpaceOnUse" viewBox="0 0 72 72"><rect width="72" height="72" fill="none"/><line x1="71.8" y1="68.4" x2="144.3" y2="68.4" fill="none" stroke="#231815" stroke-linecap="round" stroke-linejoin="round" stroke-width="0.28"/><line x1="71.8" y1="54" x2="144.3" y2="54" fill="none" stroke="#231815" stroke-linecap="round" stroke-linejoin="round" stroke-width="0.28"/><line x1="71.8" y1="39.6" x2="144.3" y2="39.6" fill="none" stroke="#231815" stroke-linecap="round" stroke-linejoin="round" stroke-width="0.28"/><line x1="71.8" y1="25.2" x2="144.3" y2="25.2" fill="none" stroke="#231815" stroke-linecap="round" stroke-linejoin="round" stroke-width="0.28"/><line x1="71.8" y1="10.8" x2="144.3" y2="10.8" fill="none" stroke="#231815" stroke-linecap="round" stroke-linejoin="round" stroke-width="0.28"/><line x1="71.8" y1="61.2" x2="144.3" y2="61.2" fill="none" stroke="#231815" stroke-linecap="round" stroke-linejoin="round" stroke-width="0.28"/><line x1="71.8" y1="46.8" x2="144.3" y2="46.8" fill="none" stroke="#231815" stroke-linecap="round" stroke-linejoin="round" stroke-width="0.28"/><line x1="71.8" y1="32.4" x2="144.3" y2="32.4" fill="none" stroke="#231815" stroke-linecap="round" stroke-linejoin="round" stroke-width="0.28"/><line x1="71.8" y1="18" x2="144.3" y2="18" fill="none" stroke="#231815" stroke-linecap="round" stroke-linejoin="round" stroke-width="0.28"/><line x1="71.8" y1="3.6" x2="144.3" y2="3.6" fill="none" stroke="#231815" stroke-linecap="round" stroke-linejoin="round" stroke-width="0.28"/><line x1="71.5" y1="72" x2="144" y2="72" fill="none" stroke="#231815" stroke-linecap="round" stroke-linejoin="round" stroke-width="0.28"/><line x1="71.5" y1="57.6" x2="144" y2="57.6" fill="none" stroke="#231815" stroke-linecap="round" stroke-linejoin="round" stroke-width="0.28"/><line x1="71.5" y1="43.2" x2="144" y2="43.2" fill="none" stroke="#231815" stroke-linecap="round" stroke-linejoin="round" stroke-width="0.28"/><line x1="71.5" y1="28.8" x2="144" y2="28.8" fill="none" stroke="#231815" stroke-linecap="round" stroke-linejoin="round" stroke-width="0.28"/><line x1="71.5" y1="14.4" x2="144" y2="14.4" fill="none" stroke="#231815" stroke-linecap="round" stroke-linejoin="round" stroke-width="0.28"/><line x1="71.5" y1="64.8" x2="144" y2="64.8" fill="none" stroke="#231815" stroke-linecap="round" stroke-linejoin="round" stroke-width="0.28"/><line x1="71.5" y1="50.4" x2="144" y2="50.4" fill="none" stroke="#231815" stroke-linecap="round" stroke-linejoin="round" stroke-width="0.28"/><line x1="71.5" y1="36" x2="144" y2="36" fill="none" stroke="#231815" stroke-linecap="round" stroke-linejoin="round" stroke-width="0.28"/><line x1="71.5" y1="21.6" x2="144" y2="21.6" fill="none" stroke="#231815" stroke-linecap="round" stroke-linejoin="round" stroke-width="0.28"/><line x1="71.5" y1="7.2" x2="144" y2="7.2" fill="none" stroke="#231815" stroke-linecap="round" stroke-linejoin="round" stroke-width="0.28"/><line x1="-0.3" y1="68.4" x2="72.3" y2="68.4" fill="none" stroke="#231815" stroke-linecap="round" stroke-linejoin="round" stroke-width="0.28"/><line x1="-0.3" y1="54" x2="72.3" y2="54" fill="none" stroke="#231815" stroke-linecap="round" stroke-linejoin="round" stroke-width="0.28"/><line x1="-0.3" y1="39.6" x2="72.3" y2="39.6" fill="none" stroke="#231815" stroke-linecap="round" stroke-linejoin="round" stroke-width="0.28"/><line x1="-0.3" y1="25.2" x2="72.3" y2="25.2" fill="none" stroke="#231815" stroke-linecap="round" stroke-linejoin="round" stroke-width="0.28"/><line x1="-0.3" y1="10.8" x2="72.3" y2="10.8" fill="none" stroke="#231815" stroke-linecap="round" stroke-linejoin="round" stroke-width="0.28"/><line x1="-0.3" y1="61.2" x2="72.3" y2="61.2" fill="none" stroke="#231815" stroke-linecap="round" stroke-linejoin="round" stroke-width="0.28"/><line x1="-0.3" y1="46.8" x2="72.3" y2="46.8" fill="none" stroke="#231815" stroke-linecap="round" stroke-linejoin="round" stroke-width="0.28"/><line x1="-0.3" y1="32.4" x2="72.3" y2="32.4" fill="none" stroke="#231815" stroke-linecap="round" stroke-linejoin="round" stroke-width="0.28"/><line x1="-0.3" y1="18" x2="72.3" y2="18" fill="none" stroke="#231815" stroke-linecap="round" stroke-linejoin="round" stroke-width="0.28"/><line x1="-0.3" y1="3.6" x2="72.3" y2="3.6" fill="none" stroke="#231815" stroke-linecap="round" stroke-linejoin="round" stroke-width="0.28"/><line x1="-0.5" y1="72" x2="72" y2="72" fill="none" stroke="#231815" stroke-linecap="round" stroke-linejoin="round" stroke-width="0.28"/><line x1="-0.5" y1="57.6" x2="72" y2="57.6" fill="none" stroke="#231815" stroke-linecap="round" stroke-linejoin="round" stroke-width="0.28"/><line x1="-0.5" y1="43.2" x2="72" y2="43.2" fill="none" stroke="#231815" stroke-linecap="round" stroke-linejoin="round" stroke-width="0.28"/><line x1="-0.5" y1="28.8" x2="72" y2="28.8" fill="none" stroke="#231815" stroke-linecap="round" stroke-linejoin="round" stroke-width="0.28"/><line x1="-0.5" y1="14.4" x2="72" y2="14.4" fill="none" stroke="#231815" stroke-linecap="round" stroke-linejoin="round" stroke-width="0.28"/><line x1="-0.5" y1="64.8" x2="72" y2="64.8" fill="none" stroke="#231815" stroke-linecap="round" stroke-linejoin="round" stroke-width="0.28"/><line x1="-0.5" y1="50.4" x2="72" y2="50.4" fill="none" stroke="#231815" stroke-linecap="round" stroke-linejoin="round" stroke-width="0.28"/><line x1="-0.5" y1="36" x2="72" y2="36" fill="none" stroke="#231815" stroke-linecap="round" stroke-linejoin="round" stroke-width="0.28"/><line x1="-0.5" y1="21.6" x2="72" y2="21.6" fill="none" stroke="#231815" stroke-linecap="round" stroke-linejoin="round" stroke-width="0.28"/><line x1="-0.5" y1="7.2" x2="72" y2="7.2" fill="none" stroke="#231815" stroke-linecap="round" stroke-linejoin="round" stroke-width="0.28"/><line x1="-72.3" y1="68.4" x2="0.3" y2="68.4" fill="none" stroke="#231815" stroke-linecap="round" stroke-linejoin="round" stroke-width="0.28"/><line x1="-72.3" y1="54" x2="0.3" y2="54" fill="none" stroke="#231815" stroke-linecap="round" stroke-linejoin="round" stroke-width="0.28"/><line x1="-72.3" y1="39.6" x2="0.3" y2="39.6" fill="none" stroke="#231815" stroke-linecap="round" stroke-linejoin="round" stroke-width="0.28"/><line x1="-72.3" y1="25.2" x2="0.3" y2="25.2" fill="none" stroke="#231815" stroke-linecap="round" stroke-linejoin="round" stroke-width="0.28"/><line x1="-72.3" y1="10.8" x2="0.3" y2="10.8" fill="none" stroke="#231815" stroke-linecap="round" stroke-linejoin="round" stroke-width="0.28"/><line x1="-72.3" y1="61.2" x2="0.3" y2="61.2" fill="none" stroke="#231815" stroke-linecap="round" stroke-linejoin="round" stroke-width="0.28"/><line x1="-72.3" y1="46.8" x2="0.3" y2="46.8" fill="none" stroke="#231815" stroke-linecap="round" stroke-linejoin="round" stroke-width="0.28"/><line x1="-72.3" y1="32.4" x2="0.3" y2="32.4" fill="none" stroke="#231815" stroke-linecap="round" stroke-linejoin="round" stroke-width="0.28"/><line x1="-72.3" y1="18" x2="0.3" y2="18" fill="none" stroke="#231815" stroke-linecap="round" stroke-linejoin="round" stroke-width="0.28"/><line x1="-72.3" y1="3.6" x2="0.3" y2="3.6" fill="none" stroke="#231815" stroke-linecap="round" stroke-linejoin="round" stroke-width="0.28"/><line x1="-72.5" y1="72" y2="72" fill="none" stroke="#231815" stroke-linecap="round" stroke-linejoin="round" stroke-width="0.28"/><line x1="-72.5" y1="57.6" y2="57.6" fill="none" stroke="#231815" stroke-linecap="round" stroke-linejoin="round" stroke-width="0.28"/><line x1="-72.5" y1="43.2" y2="43.2" fill="none" stroke="#231815" stroke-linecap="round" stroke-linejoin="round" stroke-width="0.28"/><line x1="-72.5" y1="28.8" y2="28.8" fill="none" stroke="#231815" stroke-linecap="round" stroke-linejoin="round" stroke-width="0.28"/><line x1="-72.5" y1="14.4" y2="14.4" fill="none" stroke="#231815" stroke-linecap="round" stroke-linejoin="round" stroke-width="0.28"/><line x1="-72.5" y1="64.8" y2="64.8" fill="none" stroke="#231815" stroke-linecap="round" stroke-linejoin="round" stroke-width="0.28"/><line x1="-72.5" y1="50.4" y2="50.4" fill="none" stroke="#231815" stroke-linecap="round" stroke-linejoin="round" stroke-width="0.28"/><line x1="-72.5" y1="36" y2="36" fill="none" stroke="#231815" stroke-linecap="round" stroke-linejoin="round" stroke-width="0.28"/><line x1="-72.5" y1="21.6" y2="21.6" fill="none" stroke="#231815" stroke-linecap="round" stroke-linejoin="round" stroke-width="0.28"/><line x1="-72.5" y1="7.2" y2="7.2" fill="none" stroke="#231815" stroke-linecap="round" stroke-linejoin="round" stroke-width="0.28"/><line x1="71.5" x2="144" fill="none" stroke="#231815" stroke-linecap="round" stroke-linejoin="round" stroke-width="0.28"/><line x1="-0.5" x2="72" fill="none" stroke="#231815" stroke-linecap="round" stroke-linejoin="round" stroke-width="0.28"/><line x1="-72.5" fill="none" stroke="#231815" stroke-linecap="round" stroke-linejoin="round" stroke-width="0.28"/></pattern></defs><g id="scale-1:100"><path d="M368.1,376.2v10H226.4v-10" transform="translate(-15.7 -10.8)" fill="none" stroke="#000" stroke-miterlimit="10" stroke-width="0.5"/><line x1="239" y1="365.4" x2="239" y2="375.4" fill="none" stroke="#000" stroke-miterlimit="10" stroke-width="0.5"/><line x1="267.3" y1="365.4" x2="267.3" y2="375.4" fill="none" stroke="#000" stroke-miterlimit="10" stroke-width="0.5"/><line x1="295.7" y1="365.4" x2="295.7" y2="375.4" fill="none" stroke="#000" stroke-miterlimit="10" stroke-width="0.5"/><line x1="324" y1="365.4" x2="324" y2="375.4" fill="none" stroke="#000" stroke-miterlimit="10" stroke-width="0.5"/><text transform="translate(207 360.9)" font-size="14.17" font-family="SimSun">0</text><text transform="translate(349 360.9)" font-size="14.17" font-family="SimSun">5m</text></g><g id="outline"><text transform="translate(20.8 12.2)" font-size="14.17" font-family="SimSun">西</text><text transform="translate(0 73.6)" font-size="14.17" font-family="SimSun">南</text><text transform="translate(538.3 15.1)" font-size="14.17" font-family="SimSun">東</text><text transform="translate(549.6 77.7)" font-size="14.17" font-family="SimSun">北</text><text transform="translate(43.6 27.1)" font-size="11.34" font-family="SimSun">C</text><text transform="translate(22.7 88.6)" font-size="11.34" font-family="SimSun">D</text><text transform="translate(522.8 29.5)" font-size="11.34" font-family="SimSun">C’</text><text transform="translate(530.3 93.4)" font-size="11.34" font-family="SimSun">D’</text><path d="M572.6,92.9l5.7,3.7-10.6,12.6c-5.2,6.1-7.3,8.4-10.3,12.7a85.2,85.2,0,0,0-6.4,10.8c-9.9,19.1-14.8,28.6-17.2,33.8-14.2,31.3-20.9,32.3-36.4,66.8l-17,41.6c-4.3,10.7-7.4,18.4-11.3,29.2-3.1,8.6-3.9,11.3-6.6,18.8-3.3,9-7.2,18.7-11.8,29l-315.9-1.5A103,103,0,0,1,120,324.9a173,173,0,0,1-5.6-17.2c-2.6-9.5-2.2-10.9-3.7-15.8-3.2-10.7-6.6-10.3-15.2-26.1C89,253.7,90.2,252.1,84,239.9c-1.8-3.6-3.7-7-4.1-12a63.4,63.4,0,0,0-.6-6.7,33.3,33.3,0,0,0-2.9-8.1c-2.5-5-2.2-6.3-5.4-15.2-.8-2.3-9.2-25.5-17.8-39.9a32.1,32.1,0,0,1-3.4-7c-1.9-5.2-1.6-8.4-2.3-12.8a50.1,50.1,0,0,0-6.1-17.6c-1.1-1.7-2.5-3.7-11.4-12.7-4.9-5-9.2-9.1-12.1-11.9l6.3-6.1q6.2,6.6,12.3,13.5l13.2,14.3,2.2,7.3c2.2,7.3,2.5,9.1,3.7,12.8,1.7,5.5,3.3,9.4,5.2,14.3s2.9,6.5,6.5,15c1.6,3.9,1,2.6,4.7,11.6s5.4,13.3,6.2,15,1.5,3.2,2.7,6.3,1.5,4.4,1.7,4.8c1,3.3.8,3.3,2.2,8.2.4,1.7.8,2.7,1.1,4.5s.3,1.9.6,3.4.9,2.9,1.6,5.6c.3,1,.7,2.4,1.2,4.3s1.3,2.7,1.6,3.6,1,2.6,2,4.9l1.4,3.5c3.1,7,3.9,10.2,6.7,15.9.6,1.1,2.1,3.8,5.3,9.3,1.7,3,2.9,5.1,4.6,7.9l4.7,7.7,2.8,4.7c.3,1.3.7,3.2,1.3,5.5l1.5,5.4c1.4,5,1.2,5.8,2.4,10.3a77.3,77.3,0,0,0,2.5,8.1,67.6,67.6,0,0,0,4.9,10.1c1.7,3.3,4.1,8,6.9,14.1,203.3.5,288.1.8,292.4.9l8,.2h5.9l3.5-8.5c2.3-5.5,3.7-8.7,5.4-12.2l1.3-2.9a56.2,56.2,0,0,0,1.9-5.8l1.8-5,4.4-12.6a53.1,53.1,0,0,1,2.1-6.5c.3-.8.4-1.1,1.6-3.8l3.5-8,3-6.6c1.1-2.3,1.9-4,2.9-6.4l2.7-6.9c1.4-3.6,2.4-6.4,2.7-7.3,4.5-12.2,5-14.6,7.8-20.3L491,226l6.8-13.3a69,69,0,0,1,3.8-7.7c.6-1.1,1.3-2,2.6-4l5.6-7.9c3.9-5.5,3.8-5.5,5.4-7.5l3.1-4.1,3-4.8,3.3-6.8,3.7-7.7c5.1-10.4,5.6-11.4,7.3-15.1s1.7-3.8,3.2-7.5,4.7-11,8.3-19.2l11.4-12.3,6.7-7.2Z" transform="translate(-15.7 -10.8)" fill="url(#_10_lpi_10_)"/><path d="M563.8,30.2l6.2,4.7c-1.7,1.8-4.3,4.6-7.3,8.2-7.5,8.6-22.4,26-34.1,49.1-3.9,7.8-3.6,8.6-9.6,22.7-14.9,35.1-24,47.3-43.8,90.3-11.1,24.3-12.4,29.6-13.1,34.6s-1.2,11.7-5.1,19.9c-2,4.3-3.8,6.5-8.7,14s-7.6,12.2-9.7,15.9l-296.3.8c-2.4-6-5.6-14.5-8.9-25.1-3.7-12.1-6-21.8-9-35.2-4.7-20.7-3.6-18.9-5.8-27.2-1.6-6.1-3.8-12.9-18.6-46.2-9.1-20.5-13.7-30.7-17.8-39-13-25.9-15.9-27-19.6-39.2-1.3-4.2-3.1-11.1-8.3-19.1-2.3-3.6-4-5.4-8.8-11.6S37.3,36.5,35,33.3l5.7-5.8L62.6,55.6c1.4,3.1,2.4,5.7,3,7.3,1.5,3.6,2.8,7.3,5.3,13.9,1.4,3.9,1.7,4.8,2.4,6.3a69.9,69.9,0,0,0,4.5,7.4c2.2,3.3,3.8,5.8,5.6,8.8,3.2,5.3,2.7,5.1,5.5,9.5.6,1.1,1.6,2.6,2.6,4.8s1,2.3,1.9,4.3l2.6,6.2,4.3,10.5,2.4,5.8c4.2,10.6,4.7,12.3,7.7,19.4l3.6,8.6c2,4.5,2,4.2,5.2,11.2,1.9,4.1,4.6,10.1,5.6,12.4l1.1,2.6c.7,1.3,1.2,2.5,1.5,3.2l2,10.1c.6,3.2.3,1.9,2.4,12.1.5,2.6,1.1,5.3,1.6,7.9a36.5,36.5,0,0,0,.9,4.4c.5,1.7.9,2.6,1.3,4.4s.1,1.4.4,2.9.8,3.8,1.7,8c.5,2.2.4,1.9.7,3.5.8,3.4,1.6,5.8,2.3,7.9,1.5,4.2,2.6,7.8,5,15.2l1.9,6.2h41.6c18.3,0,19.1-.2,32-.1l16.4.2h34.2l20.3.2h18c13.2-.1,16.6,0,46.8.1h74.4l3.7-5c5.2-7,10.6-13.8,15.9-20.3,1-3.5,1.7-6.4,2.2-8.5,1.4-5.6,2.2-8.4,2.8-11.7a52.1,52.1,0,0,1,1.5-6.4,41,41,0,0,1,1.7-4.9c1.4-3.5,6.6-16.7,8.3-22.5a34.6,34.6,0,0,1,1.2-3.6c.9-1.9,1.7-3.2,1.9-3.7,2.8-4.6,9.2-17.1,11.7-22.2s2.3-5.2,6.1-12.9,4-7.6,7-13.8l6.5-14.3c2.5-5.7,3.8-8.6,5.3-12.3,3.6-8.5,4.5-11.6,9.1-23.2,1.8-4.6,3.3-8.2,4.3-10.6l16.9-25.9Z" transform="translate(-15.7 -10.8)" fill="url(#_10_lpi_10_)"/><path d="M24.2,89.9q6.2,6.6,12.3,13.5l13.2,14.3,2.2,7.3c2.2,7.3,2.5,9.1,3.7,12.8,1.7,5.5,3.3,9.4,5.2,14.3s2.9,6.5,6.5,15c1.6,3.9,1,2.6,4.7,11.6s5.4,13.3,6.2,15,1.5,3.2,2.7,6.3,1.5,4.4,1.7,4.8c1,3.3.8,3.3,2.2,8.2.4,1.7.8,2.7,1.1,4.5s.3,1.9.6,3.4.9,2.9,1.6,5.6c.3,1,.7,2.4,1.2,4.3s1.3,2.7,1.6,3.6,1,2.6,2,4.9l1.4,3.5c3.1,7,3.9,10.2,6.7,15.9.6,1.1,2.1,3.8,5.3,9.3,1.7,3,2.9,5.1,4.6,7.9l4.7,7.7,2.8,4.7c.3,1.3.7,3.2,1.3,5.5l1.5,5.4c1.4,5,1.2,5.8,2.4,10.3a77.3,77.3,0,0,0,2.5,8.1,67.6,67.6,0,0,0,4.9,10.1c1.7,3.3,4.1,8,6.9,14.1,203.3.5,288.1.8,292.4.9l8,.2h5.9l3.5-8.5c2.3-5.5,3.7-8.7,5.4-12.2l1.3-2.9a56.2,56.2,0,0,0,1.9-5.8l1.8-5,4.4-12.6a53.1,53.1,0,0,1,2.1-6.5c.3-.8.4-1.1,1.6-3.8l3.5-8,3-6.6c1.1-2.3,1.9-4,2.9-6.4l2.7-6.9c1.4-3.6,2.4-6.4,2.7-7.3,4.5-12.2,5-14.6,7.8-20.3L491,226l6.8-13.3a69,69,0,0,1,3.8-7.7c.6-1.1,1.3-2,2.6-4l5.6-7.9c3.9-5.5,3.8-5.5,5.4-7.5l3.1-4.1,3-4.8,3.3-6.8,3.7-7.7c5.1-10.4,5.6-11.4,7.3-15.1s1.7-3.8,3.2-7.5,4.7-11,8.3-19.2l11.4-12.3,6.7-7.2,7.4-8h0" transform="translate(-15.7 -10.8)" fill="none" stroke="#000" stroke-linecap="round" stroke-linejoin="round" stroke-width="0.57"/><path d="M40.7,27.5,62.6,55.6c1.4,3.1,2.4,5.7,3,7.3,1.5,3.6,2.8,7.3,5.3,13.9,1.4,3.9,1.7,4.8,2.4,6.3a69.9,69.9,0,0,0,4.5,7.4c2.2,3.3,3.8,5.8,5.6,8.8,3.2,5.3,2.7,5.1,5.5,9.5.6,1.1,1.6,2.6,2.6,4.8s1,2.3,1.9,4.3l2.6,6.2,4.3,10.5,2.4,5.8c4.2,10.6,4.7,12.3,7.7,19.4l3.6,8.6c2,4.5,2,4.2,5.2,11.2,1.9,4.1,4.6,10.1,5.6,12.4l1.1,2.6c.7,1.3,1.2,2.5,1.5,3.2l2,10.1c.6,3.2.3,1.9,2.4,12.1.5,2.6,1.1,5.3,1.6,7.9a36.5,36.5,0,0,0,.9,4.4c.5,1.7.9,2.6,1.3,4.4s.1,1.4.4,2.9.8,3.8,1.7,8c.5,2.2.4,1.9.7,3.5.8,3.4,1.6,5.8,2.3,7.9,1.5,4.2,2.6,7.8,5,15.2l1.9,6.2h41.6c18.3,0,19.1-.2,32-.1l16.4.2h34.2l20.3.2h18c13.2-.1,16.6,0,46.8.1h74.4l3.7-5c5.2-7,10.6-13.8,15.9-20.3,1-3.5,1.7-6.4,2.2-8.5,1.4-5.6,2.2-8.4,2.8-11.7a52.1,52.1,0,0,1,1.5-6.4,41,41,0,0,1,1.7-4.9c1.4-3.5,6.6-16.7,8.3-22.5a34.6,34.6,0,0,1,1.2-3.6c.9-1.9,1.7-3.2,1.9-3.7,2.8-4.6,9.2-17.1,11.7-22.2s2.3-5.2,6.1-12.9,4-7.6,7-13.8l6.5-14.3c2.5-5.7,3.8-8.6,5.3-12.3,3.6-8.5,4.5-11.6,9.1-23.2,1.8-4.6,3.3-8.2,4.3-10.6l16.9-25.9,26.4-29" transform="translate(-15.7 -10.8)" fill="none" stroke="#000" stroke-linecap="round" stroke-linejoin="round" stroke-width="0.57"/></g></svg>