<svg xmlns="http://www.w3.org/2000/svg" viewBox="0 0 1417.1 1061"><g id="scale-1:100"><path d="M365.1,994.3v9.9H223.3v-9.9" transform="translate(-28.4 -28.1)" fill="none" stroke="#000" stroke-miterlimit="10" stroke-width="0.71"/><line x1="223.3" y1="966.2" x2="223.3" y2="976.1" fill="none" stroke="#000" stroke-miterlimit="10" stroke-width="0.71"/><line x1="251.6" y1="966.2" x2="251.6" y2="976.1" fill="none" stroke="#000" stroke-miterlimit="10" stroke-width="0.71"/><line x1="279.9" y1="966.2" x2="279.9" y2="976.1" fill="none" stroke="#000" stroke-miterlimit="10" stroke-width="0.71"/><line x1="308.3" y1="966.2" x2="308.3" y2="976.1" fill="none" stroke="#000" stroke-miterlimit="10" stroke-width="0.71"/><text transform="translate(191.3 961.7)" font-size="14.17" font-family="AdobeMingStd-Light-B5pc-H, Adobe Ming Std">0</text><text transform="translate(333.3 961.7)" font-size="14.17" font-family="AdobeMingStd-Light-B5pc-H, Adobe Ming Std">5m</text></g><g id="outline"><path d="M701.5,38q-1.7,76.1-3.1,152.2l-162.2,5.7L525.6,366.8l-438.7-.6q-2.4,67.4-5,134.7l441.5,23.3,2.3,177.7,127.6,12.2,28.8,374.4" transform="translate(-28.4 -28.1)" fill="none" stroke="#000" stroke-linecap="round" stroke-linejoin="round" stroke-width="1.13"/><path d="M868.9,28.7q2.1,78.1,4,156.5l177.9,6.6q-1.3,79.3-2.6,158.6l396.7,21.5-.3,139.9-401.7,28.9-16.2,174.6L896.2,729.2Q904,906.7,911.7,1084" transform="translate(-28.4 -28.1)" fill="none" stroke="#000" stroke-linecap="round" stroke-linejoin="round" stroke-width="1.13"/><text transform="translate(697.1 461.7)" font-size="56.69" font-family="SimSun">1003</text><path d="M74.1,534s.2,1.1.5,4.3a11.3,11.3,0,0,1,.1,1.4c.1,1,.2,1.2,0,1.5s-.5.4-1.2.7l-1.2.4c-4,1-3.2.9-5.9,1.4l-4.3.8a53.7,53.7,0,0,1-6.5.9l-4.6.3a78.9,78.9,0,0,1-8.5.5H37.2c-1.9,0-2.1-.1-2.3-.3s-.5-1.2-.5-3-.1-2.3-.1-3.5-.1-2.6-.3-7.4c-.3-6.5-.3-7-.4-7.8s-.3-4.7-.3-5.1-.2-1.9-.3-3.1-.3-4.4-.7-8.3c-.7-6.3-.8-6-1.2-10.1-.2-2.2-.3-4.2-.6-8.3-.6-8.4-.4-7.7-.7-9.7,0,0-.6-4.9-.8-8a7.9,7.9,0,0,1-.1-1.4c0-.5,0-.4-.1-3.2,0-.9,0-1.4.3-1.6l.8-.2,1.3-.2c2.8-.4,7.7-.8,12.1-1.7l6.5-1.6,3.4-.7,4.7-.7,3.5-.7h1.1c1.3-.1,1.5-.2,1.8,0s.3.5.5,1.3a6.2,6.2,0,0,1,.3,1.8c.2,1.2.2,1.1.3,1.9s.5,4.6.6,6.6.3,2.4.5,4.4a98.2,98.2,0,0,0,1.3,10.2c.7,3.8.9,3.7,1.4,7.1s.4,3.3.9,7.3c.6,6,1.5,11.7,1.8,13.7s.6,3.9.8,6.4.1,2.8.4,5.5S73.7,531,74.1,534Z" transform="translate(-28.4 -28.1)" fill="none" stroke="#000" stroke-miterlimit="10" stroke-width="0.71"/><path d="M132.5,496.7c1.3,10.5,1.7,16,1.8,18.6.3,4.6.3,5.9.3,5.9.1,1.7.1,2.5.2,4.1s.1,1.2.3,3.3.1,2.2.2,2.9-.1,1.4,0,2.5.1,1.1-.1,1.4-.4.4-2,.6l-2.7.3h-1.9l-4.7.4c-3.8.2-9.5.3-13.5.3h-6.3a14.7,14.7,0,0,0-2.1,0c-.8,0-1.1.1-1.3-.1s-.4-.5-.5-2a10.6,10.6,0,0,1-.1-1.5c0-2.2-1.3-12-1.6-14.3s-.8-6.4-1.2-13c-.3-3.4-.4-6.7-.7-13.2-.1-3.6-.1-4.1-.4-10.7-.3-9-.4-10-.5-11.5-.7-5.5-1.3-9-1.3-9s-.4-2.6-.6-6v-2.1c-.1-2-.1-2.5.2-2.8s.9-.2,2.2-.2h3.3a42,42,0,0,0,5.4-.1l7.8-.3,6-.4a32.4,32.4,0,0,0,4.6-.1h1.6c1,0,1.4,0,1.6.2s.1.4.2,1.1.1.3.2,1.4.3,4.1.4,5.1.2,1,.9,5.1c0,0,.2.8.8,4.7s1.4,11.2,2.1,18.2C131.7,490.8,131.6,489.1,132.5,496.7Z" transform="translate(-28.4 -28.1)" fill="none" stroke="#000" stroke-miterlimit="10" stroke-width="0.71"/><ellipse cx="833.2" cy="879" rx="2.2" ry="2" fill="none" stroke="#000" stroke-miterlimit="10" stroke-width="0.71"/><line x1="831" y1="890" x2="839.4" y2="889.2" fill="none" stroke="#000" stroke-miterlimit="10" stroke-width="0.71"/><line x1="833.7" y1="882.1" x2="834.6" y2="898.9" fill="none" stroke="#000" stroke-miterlimit="10" stroke-width="0.71"/><line x1="835.9" y1="886.3" x2="837.6" y2="899.4" fill="none" stroke="#000" stroke-miterlimit="10" stroke-width="0.71"/><text transform="translate(825.7 919)" font-size="14.17" font-family="SimSun">1102</text><text transform="translate(564.2 718.9)" font-size="14.17" font-family="SimSun">2256</text><text transform="translate(1038.4 395.6)" font-size="14.17" font-family="SimSun">2254</text><text transform="translate(1109.6 464.9)" font-size="14.17" font-family="SimSun">2255</text><text transform="translate(938.9 241.6)" font-size="14.17" font-family="SimSun">2253</text><text transform="translate(13.5 535.2)" font-size="14.17" font-family="SimSun">1414</text><text transform="translate(76.2 528.6)" font-size="14.17" font-family="SimSun">1421</text><path d="M969.6,249.3a7.1,7.1,0,0,0,.1-1.4" transform="translate(-28.4 -28.1)" fill="none" stroke="#000" stroke-linecap="round" stroke-linejoin="round" stroke-width="0.57"/><path d="M969.7,245.3c0-4.7-.1-9.3-.2-13.9" transform="translate(-28.4 -28.1)" fill="none" stroke="#000" stroke-linecap="round" stroke-linejoin="round" stroke-width="0.57" stroke-dasharray="2.53 2.53"/><path d="M969.4,230.1v-1.4" transform="translate(-28.4 -28.1)" fill="none" stroke="#000" stroke-linecap="round" stroke-linejoin="round" stroke-width="0.57"/><path d="M969.5,227.4c-.1-2.5-.4-7.4-.3-10.5v-6.4c0-.4,0-2.1.1-4.3s.2-2,.5-2.3,1-.3,2.6-.1l4.2.2,3.4.2c1.1,0,1.8,0,2.1.5s.2.5.1,1.5-.1,1.2-.2,1.8,0,3.5,0,6.9c.1,1.5,0,1.1,0,3.9s0,6,.1,8.6.1,5.3.2,6.8.2,2.6.3,5,.1,3.7.2,6.3v4.2c.1,1.2,0,2.3.1,3.5a2.4,2.4,0,0,1-.1,1.7c-.4.6-1.2.7-1.9.9h-7.4c-2.9,0-3.1.1-3.5-.2s-.3-1.2-.3-3.2v-1.9" transform="translate(-28.4 -28.1)" fill="none" stroke="#000" stroke-linecap="round" stroke-linejoin="round" stroke-width="0.57"/><path d="M976.9,208a2.9,2.9,0,0,1,.3,1.4,3,3,0,0,1-.1,1.3,3.1,3.1,0,0,1-.7,1.2c-.4.5-.6.7-.9.7s-.9-.7-1.3-1.5a4,4,0,0,1-.7-2,2.2,2.2,0,0,1,2.1-2C976.4,207.1,976.8,207.9,976.9,208Z" transform="translate(-28.4 -28.1)" fill="none" stroke="#000" stroke-linecap="round" stroke-linejoin="round" stroke-width="0.85"/><path d="M975.4,212.6a4.9,4.9,0,0,1-.1,1.1l-.2,2.5c0,.9-.1,3.9-.1,8" transform="translate(-28.4 -28.1)" fill="none" stroke="#000" stroke-linecap="round" stroke-linejoin="round" stroke-width="0.85"/><path d="M971.9,223.6c-.1-1.8-.1-3-.1-3.9s0-1.4-.1-2a8.7,8.7,0,0,1,.1-1.1c.1-.6.2-.7.3-.8s.2,0,.8,0h5.7c.1.1.1.3.1.7a4.5,4.5,0,0,0,.1.8v1.3a8.9,8.9,0,0,1,.2,1.5v1.3a15.2,15.2,0,0,1-.3,1.9,15.1,15.1,0,0,1-1.5,3.5" transform="translate(-28.4 -28.1)" fill="none" stroke="#000" stroke-linecap="round" stroke-linejoin="round" stroke-width="0.85"/><path d="M971.8,224.7a6.5,6.5,0,0,0,1.5,1l2.3,1.1,1.6,1" transform="translate(-28.4 -28.1)" fill="none" stroke="#000" stroke-linecap="round" stroke-linejoin="round" stroke-width="0.85"/><path d="M977,228.1l.8.6.5.6a2,2,0,0,1,.1.7c-.1.8-.6,1.1-.5,1.3s1.1-.3,1.5,0,.1.4.1.9a3.8,3.8,0,0,1-.1,1.2,4.9,4.9,0,0,1-1,.9l-1.1.8" transform="translate(-28.4 -28.1)" fill="none" stroke="#000" stroke-linecap="round" stroke-linejoin="round" stroke-width="0.85"/><path d="M972.9,228.2l-.9,1.9c-.8,1.9-.7,2.2-.5,2.3h.6c.8,0,1.2,0,1.3.2s.2.3-.1,1.7-.5,1.8-.3,1.9l1-.6.7-.4" transform="translate(-28.4 -28.1)" fill="none" stroke="#000" stroke-linecap="round" stroke-linejoin="round" stroke-width="0.85"/><path d="M973.1,237.6c-.1,1-.1,2.1-.1,3.2s0,2.3,0,3.3" transform="translate(-28.4 -28.1)" fill="none" stroke="#000" stroke-linecap="round" stroke-linejoin="round" stroke-width="0.85"/><path d="M977.2,237.4c0,.4.1,1.1.2,2s.3,1.5.5,2.6.1,1.3.2,2.3" transform="translate(-28.4 -28.1)" fill="none" stroke="#000" stroke-linecap="round" stroke-linejoin="round" stroke-width="0.85"/><path d="M977.6,245.8c0,1.5.1,3.1.1,4.6v4.2" transform="translate(-28.4 -28.1)" fill="none" stroke="#000" stroke-linecap="round" stroke-linejoin="round" stroke-width="0.85"/><path d="M973.3,246.5a26.2,26.2,0,0,0,.1,2.8c0,1.2.1,2.4.1,3.6" transform="translate(-28.4 -28.1)" fill="none" stroke="#000" stroke-linecap="round" stroke-linejoin="round" stroke-width="0.85"/><path d="M1151.9,464.1a3.4,3.4,0,0,1-1,2.4,8.1,8.1,0,0,1-1,.9,4.1,4.1,0,0,1-2.3.9,2.4,2.4,0,0,1-1.8-.7,3.1,3.1,0,0,1-.7-2.4,5.9,5.9,0,0,1,.4-1.7,4,4,0,0,1,1.7-1.4,8.2,8.2,0,0,1,1.7-.5,3,3,0,0,1,1.8.4A2.9,2.9,0,0,1,1151.9,464.1Z" transform="translate(-28.4 -28.1)" fill="none" stroke="#000" stroke-linecap="round" stroke-linejoin="round" stroke-width="0.85"/><path d="M1147.9,461.8v-3.6c0-.1-.4-9.2-.4-9.3" transform="translate(-28.4 -28.1)" fill="none" stroke="#000" stroke-linecap="round" stroke-linejoin="round" stroke-width="0.85"/><path d="M1142.2,451.5c-.1.3-.1.9-.2,1.5a24.2,24.2,0,0,1-.5,3.3c-.3,1.5-.4,1.9-.2,2.1s.6.1,2.3-.1l2.9-.3,1.3-.2h2.4c1.3-.1,1.6-.1,1.7-.3s.2-.7.2-1.5a17.7,17.7,0,0,0-.1-2.3v-3.2" transform="translate(-28.4 -28.1)" fill="none" stroke="#000" stroke-linecap="round" stroke-linejoin="round" stroke-width="0.85"/><path d="M1152,450.4l-1.7-2.2a29,29,0,0,1-1.9-3.1" transform="translate(-28.4 -28.1)" fill="none" stroke="#000" stroke-linecap="round" stroke-linejoin="round" stroke-width="0.85"/><path d="M1147.5,444.2l-2.2,3c-.1.1-3.1,4.2-3.1,4.3" transform="translate(-28.4 -28.1)" fill="none" stroke="#000" stroke-linecap="round" stroke-linejoin="round" stroke-width="0.85"/><path d="M1143,435.9l.3-3.4.2-3a10.4,10.4,0,0,1,2.1-2.1,15.7,15.7,0,0,1,2.7-1.8" transform="translate(-28.4 -28.1)" fill="none" stroke="#000" stroke-linecap="round" stroke-linejoin="round" stroke-width="0.85"/><path d="M1148.7,425.5l.7.7a8.4,8.4,0,0,1,1.7,1.9c.5.7,1.2,1.7,1.9,2.9a8.8,8.8,0,0,0-.2,1.6c-.2,1.8-.4,3.6-.7,5.3" transform="translate(-28.4 -28.1)" fill="none" stroke="#000" stroke-linecap="round" stroke-linejoin="round" stroke-width="0.85"/><path d="M1148.2,438.3l1.4-.3c1.3-.2,1.5-.1,1.6,0s.2,1.2.2,1.3l-.3.9c-.2.4-.3.4-.2.5s.6.2,1,.5a1.2,1.2,0,0,1,.6.8,2.1,2.1,0,0,1,.2,1.6c-.2.5-.6.8-1.3,1.4l-1.4.9" transform="translate(-28.4 -28.1)" fill="none" stroke="#000" stroke-linecap="round" stroke-linejoin="round" stroke-width="0.85"/><path d="M1143.6,437.8l-.8,1.3a3,3,0,0,0-.3,1.1c.1.6.5.7.8,1.4v1.6c0,1,0,1.3.2,1.5s.4.4,1.1.4" transform="translate(-28.4 -28.1)" fill="none" stroke="#000" stroke-linecap="round" stroke-linejoin="round" stroke-width="0.85"/><path d="M584.5,719.3a2.9,2.9,0,0,1,3.3.1,3.1,3.1,0,0,1,1.1,1.6,2.4,2.4,0,0,1-.4,1.8,2.3,2.3,0,0,1-1.4.7,2.7,2.7,0,0,1-2.6-.7,2.2,2.2,0,0,1-.9-2.1A2,2,0,0,1,584.5,719.3Z" transform="translate(-28.4 -28.1)" fill="none" stroke="#000" stroke-linecap="round" stroke-linejoin="round" stroke-width="0.85"/><path d="M589,721.3l1.8-.4c1.2-.3,2.2-.3,2.6-.4l5.4-.7" transform="translate(-28.4 -28.1)" fill="none" stroke="#000" stroke-linecap="round" stroke-linejoin="round" stroke-width="0.85"/><path d="M600.7,724.8l-4,.2h-3.3c-.6,0-.7-.2-.8-.3s0-.3,0-1V723a10.4,10.4,0,0,0-.1-1.6,19.4,19.4,0,0,1-.1-2.2v-2c0-.4-.1-.5,0-.7h2.9l1.5-.2a3.3,3.3,0,0,1,1.4,0,4.8,4.8,0,0,1,2.1.6l2.5,1.4" transform="translate(-28.4 -28.1)" fill="none" stroke="#000" stroke-linecap="round" stroke-linejoin="round" stroke-width="0.85"/><path d="M600.7,724.8a9,9,0,0,0,1.9-1.4,8,8,0,0,0,1.6-1.9" transform="translate(-28.4 -28.1)" fill="none" stroke="#000" stroke-linecap="round" stroke-linejoin="round" stroke-width="0.85"/><path d="M604.9,717.4l.3-.3.7-.5h.8c1.2.2,1.5.5,1.9.3l.4-.4.4-.5c.4-.1.8.4,1.2.7a11.5,11.5,0,0,0,1.9,1.7" transform="translate(-28.4 -28.1)" fill="none" stroke="#000" stroke-linecap="round" stroke-linejoin="round" stroke-width="0.85"/><path d="M605.2,721.1l2,1.6c.8.6,1.6,1.1,2,.8s.3-.3.5-.9.5-1.1.7-1.2.5,0,.9,0l.8.2a3.5,3.5,0,0,0,2-.1" transform="translate(-28.4 -28.1)" fill="none" stroke="#000" stroke-linecap="round" stroke-linejoin="round" stroke-width="0.85"/><path d="M614.5,720.1a27,27,0,0,0,4.9.9,30.8,30.8,0,0,0,4.3,0" transform="translate(-28.4 -28.1)" fill="none" stroke="#000" stroke-linecap="round" stroke-linejoin="round" stroke-width="0.85"/><path d="M614.2,717h7.2" transform="translate(-28.4 -28.1)" fill="none" stroke="#000" stroke-linecap="round" stroke-linejoin="round" stroke-width="0.85"/><path d="M623.8,716.4h3.3a27.9,27.9,0,0,1,4.6.7" transform="translate(-28.4 -28.1)" fill="none" stroke="#000" stroke-linecap="round" stroke-linejoin="round" stroke-width="0.85"/><path d="M625.8,720.6l3-.4,3.6-.2" transform="translate(-28.4 -28.1)" fill="none" stroke="#000" stroke-linecap="round" stroke-linejoin="round" stroke-width="0.85"/><path d="M1089.8,458.8c.5,1.2-.4,2.3-.8,2.8a2.9,2.9,0,0,1-2.6,1.6c-.5,0-.9-.4-1.4-.8a3.2,3.2,0,0,1-1.4-2.3c0-1.4,1.5-2.6,3-2.8S1089.4,457.6,1089.8,458.8Z" transform="translate(-28.4 -28.1)" fill="none" stroke="#000" stroke-linecap="round" stroke-linejoin="round" stroke-width="0.85"/><path d="M1085.8,457.5l-2.4-15.9" transform="translate(-28.4 -28.1)" fill="none" stroke="#000" stroke-linecap="round" stroke-linejoin="round" stroke-width="0.85"/><path d="M1085,455.9l-4.4-1.7c.1-1.3.2-2.6.4-3.9s.5-4,.8-5.8" transform="translate(-28.4 -28.1)" fill="none" stroke="#000" stroke-linecap="round" stroke-linejoin="round" stroke-width="0.85"/><path d="M1084.4,433.6h1.1c.5,0,1.3,0,1.6.4s.1.3-.1,1.2-.6,2-.4,2.5l.7.5,1.2,1c.1.2.3.9-2.2,3.1" transform="translate(-28.4 -28.1)" fill="none" stroke="#000" stroke-linecap="round" stroke-linejoin="round" stroke-width="0.85"/><path d="M1081.6,434.9c-1.9,1.3-2.2,1.8-2.1,2.1s.4,0,1,.3a2,2,0,0,1,1,.9,1.6,1.6,0,0,1-.3,1c-.7,1.5-1,1.8-.9,2.2a1.7,1.7,0,0,0,.6.8,2.5,2.5,0,0,0,.8.5" transform="translate(-28.4 -28.1)" fill="none" stroke="#000" stroke-linecap="round" stroke-linejoin="round" stroke-width="0.85"/><path d="M1101.4,467.5a1.7,1.7,0,0,1-1,0h-1.2c-.9-.1-1.3-.6-1.5-.4s0,.2-.2,1a3.3,3.3,0,0,1-.3.6l-.5.2h-.8c-.5-.1-.7-.5-1.1-.4s-.3.2-.7.6a7.3,7.3,0,0,1-.9.9l-1,.6a12.3,12.3,0,0,1-.8-2.6,14.5,14.5,0,0,1-.4-2.3c-.2-1.2-.3-1.5-.1-1.8s.3-.4,1.3-1l1.4-.9,2.1-1.3,1.4-.7c.6,0,1,.5,2,1.4l.8,1a7.8,7.8,0,0,1,1.3,2.3,4.4,4.4,0,0,1,.5,1.8A4.1,4.1,0,0,1,1101.4,467.5Z" transform="translate(-28.4 -28.1)" opacity="0.6"/></g><g id="compass"><line x1="1104.3" y1="143.6" x2="1207.6" y2="120.3" fill="#fff" stroke="#000" stroke-linecap="round" stroke-linejoin="round" stroke-width="0.85"/><line x1="1136.6" y1="46" x2="1186.6" y2="268.1" fill="#fff"/><line x1="1139.1" y1="57" x2="1186.6" y2="268.1" fill="none" stroke="#000" stroke-linecap="round" stroke-linejoin="round" stroke-width="0.85"/><polygon points="1136 60.3 1136.6 46 1143.2 58.6 1136 60.3"/><text transform="matrix(0.98, -0.22, 0.22, 0.98, 1127.45, 42.97)" font-size="34.02" font-family="SimSun">N</text></g></svg>