<svg xmlns="http://www.w3.org/2000/svg" xmlns:xlink="http://www.w3.org/1999/xlink" viewBox="0 0 166.7 150.1"><defs><pattern id="_10_lpi_10_" data-name="10 lpi 10%" width="72" height="72" patternTransform="translate(50.7 2.8) rotate(45)" patternUnits="userSpaceOnUse" viewBox="0 0 72 72"><rect width="72" height="72" fill="none"/><line x1="71.8" y1="68.4" x2="144.3" y2="68.4" fill="none" stroke="#231815" stroke-width="0.28"/><line x1="71.8" y1="54" x2="144.3" y2="54" fill="none" stroke="#231815" stroke-width="0.28"/><line x1="71.8" y1="39.6" x2="144.3" y2="39.6" fill="none" stroke="#231815" stroke-width="0.28"/><line x1="71.8" y1="25.2" x2="144.3" y2="25.2" fill="none" stroke="#231815" stroke-width="0.28"/><line x1="71.8" y1="10.8" x2="144.3" y2="10.8" fill="none" stroke="#231815" stroke-width="0.28"/><line x1="71.8" y1="61.2" x2="144.3" y2="61.2" fill="none" stroke="#231815" stroke-width="0.28"/><line x1="71.8" y1="46.8" x2="144.3" y2="46.8" fill="none" stroke="#231815" stroke-width="0.28"/><line x1="71.8" y1="32.4" x2="144.3" y2="32.4" fill="none" stroke="#231815" stroke-width="0.28"/><line x1="71.8" y1="18" x2="144.3" y2="18" fill="none" stroke="#231815" stroke-width="0.28"/><line x1="71.8" y1="3.6" x2="144.3" y2="3.6" fill="none" stroke="#231815" stroke-width="0.28"/><line x1="71.8" y1="72" x2="144.3" y2="72" fill="none" stroke="#231815" stroke-width="0.28"/><line x1="71.8" y1="57.6" x2="144.3" y2="57.6" fill="none" stroke="#231815" stroke-width="0.28"/><line x1="71.8" y1="43.2" x2="144.3" y2="43.2" fill="none" stroke="#231815" stroke-width="0.28"/><line x1="71.8" y1="28.8" x2="144.3" y2="28.8" fill="none" stroke="#231815" stroke-width="0.28"/><line x1="71.8" y1="14.4" x2="144.3" y2="14.4" fill="none" stroke="#231815" stroke-width="0.28"/><line x1="71.8" y1="64.8" x2="144.3" y2="64.8" fill="none" stroke="#231815" stroke-width="0.28"/><line x1="71.8" y1="50.4" x2="144.3" y2="50.4" fill="none" stroke="#231815" stroke-width="0.28"/><line x1="71.8" y1="36" x2="144.3" y2="36" fill="none" stroke="#231815" stroke-width="0.28"/><line x1="71.8" y1="21.6" x2="144.3" y2="21.6" fill="none" stroke="#231815" stroke-width="0.28"/><line x1="71.8" y1="7.2" x2="144.3" y2="7.2" fill="none" stroke="#231815" stroke-width="0.28"/><line x1="-0.3" y1="68.4" x2="72.3" y2="68.4" fill="none" stroke="#231815" stroke-width="0.28"/><line x1="-0.3" y1="54" x2="72.3" y2="54" fill="none" stroke="#231815" stroke-width="0.28"/><line x1="-0.3" y1="39.6" x2="72.3" y2="39.6" fill="none" stroke="#231815" stroke-width="0.28"/><line x1="-0.3" y1="25.2" x2="72.3" y2="25.2" fill="none" stroke="#231815" stroke-width="0.28"/><line x1="-0.3" y1="10.8" x2="72.3" y2="10.8" fill="none" stroke="#231815" stroke-width="0.28"/><line x1="-0.3" y1="61.2" x2="72.3" y2="61.2" fill="none" stroke="#231815" stroke-width="0.28"/><line x1="-0.3" y1="46.8" x2="72.3" y2="46.8" fill="none" stroke="#231815" stroke-width="0.28"/><line x1="-0.3" y1="32.4" x2="72.3" y2="32.4" fill="none" stroke="#231815" stroke-width="0.28"/><line x1="-0.3" y1="18" x2="72.3" y2="18" fill="none" stroke="#231815" stroke-width="0.28"/><line x1="-0.3" y1="3.6" x2="72.3" y2="3.6" fill="none" stroke="#231815" stroke-width="0.28"/><line x1="-0.3" y1="72" x2="72.3" y2="72" fill="none" stroke="#231815" stroke-width="0.28"/><line x1="-0.3" y1="57.6" x2="72.3" y2="57.6" fill="none" stroke="#231815" stroke-width="0.28"/><line x1="-0.3" y1="43.2" x2="72.3" y2="43.2" fill="none" stroke="#231815" stroke-width="0.28"/><line x1="-0.3" y1="28.8" x2="72.3" y2="28.8" fill="none" stroke="#231815" stroke-width="0.28"/><line x1="-0.3" y1="14.4" x2="72.3" y2="14.4" fill="none" stroke="#231815" stroke-width="0.28"/><line x1="-0.3" y1="64.8" x2="72.3" y2="64.8" fill="none" stroke="#231815" stroke-width="0.28"/><line x1="-0.3" y1="50.4" x2="72.3" y2="50.4" fill="none" stroke="#231815" stroke-width="0.28"/><line x1="-0.3" y1="36" x2="72.3" y2="36" fill="none" stroke="#231815" stroke-width="0.28"/><line x1="-0.3" y1="21.6" x2="72.3" y2="21.6" fill="none" stroke="#231815" stroke-width="0.28"/><line x1="-0.3" y1="7.2" x2="72.3" y2="7.2" fill="none" stroke="#231815" stroke-width="0.28"/><line x1="-72.3" y1="68.4" x2="0.3" y2="68.4" fill="none" stroke="#231815" stroke-width="0.28"/><line x1="-72.3" y1="54" x2="0.3" y2="54" fill="none" stroke="#231815" stroke-width="0.28"/><line x1="-72.3" y1="39.6" x2="0.3" y2="39.6" fill="none" stroke="#231815" stroke-width="0.28"/><line x1="-72.3" y1="25.2" x2="0.3" y2="25.2" fill="none" stroke="#231815" stroke-width="0.28"/><line x1="-72.3" y1="10.8" x2="0.3" y2="10.8" fill="none" stroke="#231815" stroke-width="0.28"/><line x1="-72.3" y1="61.2" x2="0.3" y2="61.2" fill="none" stroke="#231815" stroke-width="0.28"/><line x1="-72.3" y1="46.8" x2="0.3" y2="46.8" fill="none" stroke="#231815" stroke-width="0.28"/><line x1="-72.3" y1="32.4" x2="0.3" y2="32.4" fill="none" stroke="#231815" stroke-width="0.28"/><line x1="-72.3" y1="18" x2="0.3" y2="18" fill="none" stroke="#231815" stroke-width="0.28"/><line x1="-72.3" y1="3.6" x2="0.3" y2="3.6" fill="none" stroke="#231815" stroke-width="0.28"/><line x1="-72.3" y1="72" x2="0.3" y2="72" fill="none" stroke="#231815" stroke-width="0.28"/><line x1="-72.3" y1="57.6" x2="0.3" y2="57.6" fill="none" stroke="#231815" stroke-width="0.28"/><line x1="-72.3" y1="43.2" x2="0.3" y2="43.2" fill="none" stroke="#231815" stroke-width="0.28"/><line x1="-72.3" y1="28.8" x2="0.3" y2="28.8" fill="none" stroke="#231815" stroke-width="0.28"/><line x1="-72.3" y1="14.4" x2="0.3" y2="14.4" fill="none" stroke="#231815" stroke-width="0.28"/><line x1="-72.3" y1="64.8" x2="0.3" y2="64.8" fill="none" stroke="#231815" stroke-width="0.28"/><line x1="-72.3" y1="50.4" x2="0.3" y2="50.4" fill="none" stroke="#231815" stroke-width="0.28"/><line x1="-72.3" y1="36" x2="0.3" y2="36" fill="none" stroke="#231815" stroke-width="0.28"/><line x1="-72.3" y1="21.6" x2="0.3" y2="21.6" fill="none" stroke="#231815" stroke-width="0.28"/><line x1="-72.3" y1="7.2" x2="0.3" y2="7.2" fill="none" stroke="#231815" stroke-width="0.28"/><line x1="71.8" x2="144.3" fill="none" stroke="#231815" stroke-width="0.28"/><line x1="-0.3" x2="72.3" fill="none" stroke="#231815" stroke-width="0.28"/><line x1="-72.3" x2="0.3" fill="none" stroke="#231815" stroke-width="0.28"/></pattern></defs><g id="scale-1:1"><path d="M145.4,144.6v9.9H3.6v-10" transform="translate(0 -4.7)" fill="none" stroke="#000" stroke-miterlimit="10" stroke-width="0.5"/><line x1="32" y1="139.9" x2="32" y2="149.9" fill="none" stroke="#000" stroke-miterlimit="10" stroke-width="0.5"/><line x1="60.3" y1="139.9" x2="60.3" y2="149.9" fill="none" stroke="#000" stroke-miterlimit="10" stroke-width="0.5"/><line x1="88.7" y1="139.9" x2="88.7" y2="149.9" fill="none" stroke="#000" stroke-miterlimit="10" stroke-width="0.5"/><line x1="117" y1="139.9" x2="117" y2="149.9" fill="none" stroke="#000" stroke-miterlimit="10" stroke-width="0.5"/><text transform="translate(0 135.4)" font-size="14.17" font-family="AdobeMingStd-Light-B5pc-H, Adobe Ming Std">0</text><text transform="translate(142 135.4)" font-size="14.17" font-family="AdobeMingStd-Light-B5pc-H, Adobe Ming Std">5cm</text></g><g id="outline"><path d="M111.3,115.7a7.8,7.8,0,0,1-2.6-.7,16.6,16.6,0,0,1-3.2-2.1c-7.3-6.6-9.3-8.7-9.3-8.7-4.5-4.8-3.7-3.4-8.1-8.1-.7-.7-7.3-7.7-9.1-10.7-.5-.9-1.2-1.7-1.7-2.5A4.7,4.7,0,0,0,76,81.4a4.2,4.2,0,0,0-1.4-.3,3.3,3.3,0,0,0-1.5.5c-.4.2-.5.3-.6.5s-.2.3-.4.7l-.4.8c-.3.6-.4,1-.5,1.1A9.1,9.1,0,0,1,69.7,87c-.8,1.1-1.5,2.2-2.4,3.3-2.7,3.4-2.4,3.2-9.2,11.8-2.7,3.3-3.7,4.6-4.7,5.7L49.8,112s-2.2,2.7-5.8,6.4a2.9,2.9,0,0,1-1.3,1,6.2,6.2,0,0,1-2.4.5h-1l-.9-.3a2.3,2.3,0,0,1-.5-.5c-.1-.3,0-.4-.1-1v-.6c-.2-1.2-.2-5.4-.3-6.9v-1.8c-.2-5.6-.8-19.1-1-26.3s.1-6.1-.1-18.2c-.2-7.3-.3-7.2-.7-24.3-.1-1.9-.4-14.6-.1-20.2l.5-8V10.1c0-.4.1-.8.1-1.2a1.4,1.4,0,0,1,.2-.7l.6-.3,1.1-.3a30.4,30.4,0,0,1,3.8-.5l2.4-.2,8.2-.7c2.3-.1,6.6-.4,11.9-.4l6.4.2c2.8.1,5.6.1,8.4.3H82l1.6-.3,3.5-.6A24.9,24.9,0,0,1,91,5h1a3.7,3.7,0,0,1,1.5.4,12.2,12.2,0,0,0,2.2.5h2.1l6.1-.6a1.9,1.9,0,0,1,1,.1c.5.2.7.6,1.2,1.1l1.4,1.1L109.1,9l.6.5c.4.4.5.4.6.6a3.2,3.2,0,0,0,.1.7v.6c0,.6.1,1.3.1,2.2s.3,2.2.5,3.3.2,2.5.3,3.8c.4,5.3,1,10.5,1.4,18.9.3,5.3.1,4.1.5,11.5.4,9,.7,9.7,1,17.2.1,1.1.2,6.8.5,18.1.1,4.9,0,9.8.1,14.7a53.9,53.9,0,0,1-.3,8.1c0,.3-.1.7-.2,1.6a11.9,11.9,0,0,1-.5,2.7c0,.2-.1.2-.2.6s-.2.7-.4.9-.4.4-.6.5A3.4,3.4,0,0,1,111.3,115.7Z" transform="translate(0 -4.7)" fill="none" stroke="#000" stroke-miterlimit="10" stroke-width="0.57"/><path d="M113.4,56.2c0,.5-1.2.8-2.2,1.2a12.1,12.1,0,0,1-3.3.6c-5.2.2-10.4.7-15.5,1l-4.1.2L78,59.4l-37.8.5a3.7,3.7,0,0,1-2.1-.6,2.9,2.9,0,0,1-1.5-1.7c-.5-1.6.9-3.3,1.8-4l1.4-.7a5.9,5.9,0,0,1,2-.2h2.3l33.1.5H87.4s7.4-.1,21.2,1l1.9.4C110.9,54.7,113.4,55.4,113.4,56.2Z" transform="translate(0 -4.7)" stroke="#000" stroke-miterlimit="10" stroke-width="0.57" fill="url(#_10_lpi_10_)"/><path d="M36.4,8.2l1.3,1.4.7.7.3.3h.2c0,.1,0,.1.1.1H52.9l23.2-.4L92.4,10h17.7" transform="translate(0 -4.7)" fill="none" stroke="#000" stroke-linecap="round" stroke-linejoin="round" stroke-width="0.43"/><path d="M38.9,10.8c-.2,14.2-.3,28.5-.4,42.8" transform="translate(0 -4.7)" fill="none" stroke="#000" stroke-linecap="round" stroke-linejoin="round" stroke-width="0.43"/><path d="M38.5,59.6c-.1,7.4-.2,14.9-.4,22.4-.1,12.4-.2,24.7-.2,36.9" transform="translate(0 -4.7)" fill="none" stroke="#000" stroke-linecap="round" stroke-linejoin="round" stroke-width="0.43"/><line x1="25.8" y1="52.4" x2="34.3" y2="52.4" fill="none" stroke="#000" stroke-linecap="round" stroke-linejoin="round" stroke-width="0.28"/><line x1="114.4" y1="51.3" x2="121.4" y2="51.3" fill="none" stroke="#000" stroke-linecap="round" stroke-linejoin="round" stroke-width="0.28"/></g></svg>