<svg xmlns="http://www.w3.org/2000/svg" viewBox="0 0 565.7 802.6"><g id="scale-1:100"><path d="M550.9,800.6v9.9H409.1v-10" transform="translate(-26.2 -8.2)" fill="none" stroke="#000" stroke-miterlimit="10" stroke-width="0.5"/><line x1="411.3" y1="792.4" x2="411.3" y2="802.4" fill="none" stroke="#000" stroke-miterlimit="10" stroke-width="0.5"/><line x1="439.6" y1="792.4" x2="439.6" y2="802.4" fill="none" stroke="#000" stroke-miterlimit="10" stroke-width="0.5"/><line x1="468" y1="792.4" x2="468" y2="802.3" fill="none" stroke="#000" stroke-miterlimit="10" stroke-width="0.5"/><line x1="496.3" y1="792.4" x2="496.3" y2="802.3" fill="none" stroke="#000" stroke-miterlimit="10" stroke-width="0.5"/><text transform="translate(379.3 787.9)" font-size="14.17" font-family="AdobeMingStd-Light-B5pc-H, Adobe Ming Std">0</text><text transform="translate(521.3 787.9)" font-size="14.17" font-family="AdobeMingStd-Light-B5pc-H, Adobe Ming Std">5m</text></g><g id="outline"><path d="M240.3,8.6l-.3,6H100c.1,15.1.3,30.3.4,45.4.3,31.7.5,63.5.6,95.2H96.8" transform="translate(-26.2 -8.2)" fill="none" stroke="#000" stroke-linecap="round" stroke-linejoin="round" stroke-width="0.71"/><path d="M352.1,9.2l.2,5.7c48-.6,70.8-1.1,82.6-1.4,3.3-.1,13.8-.5,27.9-.4,8.7,0,15.7.2,20,.3-.2,9.6-.5,23.9-.4,41.4,0,12.5.2,21,.5,33.6s.6,33.1.9,57l8.2.2" transform="translate(-26.2 -8.2)" fill="none" stroke="#000" stroke-linecap="round" stroke-linejoin="round" stroke-width="0.71"/><path d="M494.9,252.4l-9.5-.2c.7,43.5,1.1,68.9,1.4,84.4,0,2.9.2,9.7.3,18.8.2,18.4.3,33.3.3,43.3q-41.1-.1-82.2.1l-52.3.4c.1,1.9.1,3.8.1,5.7" transform="translate(-26.2 -8.2)" fill="none" stroke="#000" stroke-linecap="round" stroke-linejoin="round" stroke-width="0.71"/><path d="M225.5,407.6l-.3-8.6c-22.8-.4-41.2-.5-54-.4H153.4c-21.9.1-39.3,0-50.6,0V359.1q-.1-52.1-.9-103.3H95.2" transform="translate(-26.2 -8.2)" fill="none" stroke="#000" stroke-linecap="round" stroke-linejoin="round" stroke-width="0.71"/><path d="M442.7,201.5c.1,3,.1,5.9-.1,9.6,0,1.2-.1,1.8-.6,6.6-1.2,10.6-1.4,12.8-2.1,16.3-.3,1.6-.6,3-1.1,5-.9,3.7-2.2,7.4-3.2,10.3-.3.9-.9,2.6-1.5,4.9l-.4,2.4c-.8,3.4-1.8,4.3-4.1,10.3-.8,1.9-1.1,2.8-1.5,3.9a21.4,21.4,0,0,1-1.1,3.1,22.6,22.6,0,0,1-1.7,3c-2.9,4-6,7.6-6,7.6-4.4,5-3.7,4.4-5.7,6.6a78,78,0,0,1-10.3,9.8c-4.2,3.3-9,5.7-18.5,10.6a82,82,0,0,1-7.4,3.6l-4.1,1.7-5.1,2.7a48.4,48.4,0,0,0-4.5,3.4c-2.5,1.9-3.2,2.3-6.7,4.8s-4.6,3.5-8.6,6.4a139.5,139.5,0,0,1-13.8,9c-3.4,2-7,3.8-8.1,4.4l-4.9,2.3c-7.9,4-9.3,5.4-14.7,7.6a44.3,44.3,0,0,1-6,2.1l-4.3.9c-2.7.6-3.3.5-5.3.9l-5.4,1.4c-3.6,1-4.1,1-8.8,2.2l-3,.8a59.7,59.7,0,0,1-9,1l-6.5.2a95.9,95.9,0,0,1-10.6-.2,83.2,83.2,0,0,1-16.7-3.1,31.8,31.8,0,0,1-6.5-2.6,38.6,38.6,0,0,1-5.6-4.2l-3.9-3.3c-4.4-4.1-5.4-5.6-9.2-9.1s-2.5-2.1-5.3-4.7a117.6,117.6,0,0,1-9.8-9.8c-5.3-5.9-4.9-6.7-11.9-14.9-3.4-4-3.7-4.1-5.3-6.2s-2.4-4.5-6.7-11.9c-2.2-3.9-2.8-4.6-4-7.2a49.4,49.4,0,0,1-2.9-7.4,55.5,55.5,0,0,1-2-9.3c-.2-1.8-.6-4.6-.9-7.3s-.4-3.1-.7-4.9-.6-2.7-1.3-4.8-1-2.6-3.4-7.3-3.8-6.8-4.6-9.2-.8-3.1-1.3-5-.9-4.8-1.2-7.6-.4-3.7-1.1-11.2c0-.2-.4-3.5-1-10-.2-1.2-.4-3-.7-5.3s-.5-2.5-.7-3.9a41,41,0,0,1-.6-7.4,52.8,52.8,0,0,1,.6-8,104.5,104.5,0,0,1,2.9-11.2c1.2-3.8,1.7-5.9,2.8-8.7s2.5-6.2,3.4-8.2c7.7-16.8,7.6-17.5,10.9-23.8,2.3-4.3,4.1-7.3,5.8-10.1,2.9-4.8,5.7-9.3,7.7-11.2a12.7,12.7,0,0,0,2.2-2.5,6.6,6.6,0,0,0,1-1.8,5.4,5.4,0,0,0,.4-2,4.8,4.8,0,0,0,0-1.2c-.1-.4-.1-.7-.2-1l-.4-.8c-1.2-1.7-6-2.5-6-2.5l-5.5-.9a16.9,16.9,0,0,1-6.9-4c-1.1-1-4-3.6-4.2-6.4V82.5c.1-1,.2-1.7.3-2.6s.3-1.6.6-2.9l.8-3.1c.6-1.9.8-3,1-3.6.9-3.7,3.3-6.9,5.6-10A31.1,31.1,0,0,1,167,56a35.8,35.8,0,0,1,13.9-8.6c1.4-.6,3.5-1.2,7.6-2.6l5.1-1.5c.6-.2,8.6-2.7,13.8-3.7l2.8-.4h3.5l6.6.4a12.6,12.6,0,0,1,2.6.6,11.4,11.4,0,0,1,6.9,6,13.5,13.5,0,0,1,.9,2.8c.1.5.2.8.5,2.7l.6,3.9a14.8,14.8,0,0,0,1.3,3.1,11,11,0,0,0,2.7,3.3,6.7,6.7,0,0,0,2.4,1.7,9.9,9.9,0,0,0,3.3.3h2.1l1.8-.5,4.5-1.4a57.2,57.2,0,0,0,7.5-3.7l7.3-4.3c10.4-6.2,12.9-7.5,14.9-8.4a56.7,56.7,0,0,1,8-2.7,13.1,13.1,0,0,1,2.5-.6h3.1l3.4-.2a62.9,62.9,0,0,1,6.3.1,30.6,30.6,0,0,1,3.7.3,15.9,15.9,0,0,1,2.9.6l1.6.7c.5.3,1.3.7,1.5,1.5a7.1,7.1,0,0,1,.2,1.4,9.4,9.4,0,0,0,.1,1.4,2.3,2.3,0,0,0,1.2,1.7,1.7,1.7,0,0,0,1.1.1,5.8,5.8,0,0,0,2.6-.7c1.6-.8,1.8-1.1,3.3-1.8a10.9,10.9,0,0,1,2.3-.9,21.6,21.6,0,0,1,3.1-.3,10.3,10.3,0,0,1,3.3.3,9,9,0,0,1,2.2,1.1,21.3,21.3,0,0,1,3.3,3c.9.9,1.2,1.2,1.4,1.8a3.5,3.5,0,0,1-.1,2.2c-.4,1.2-1.4,1.9-3.5,2.8a45.8,45.8,0,0,1-7.2,2.6l-5.2,1.4-3.6,1.1c-1.3.3-2.5.9-3.8,1.2l-1,.5c-.5.3-.6.4-.6.5a.9.9,0,0,0-.1,1c.1.2.4.2.9.3h.9c1-.1,4.7.3,6,.4a65.9,65.9,0,0,1,7.2,1.5,87.2,87.2,0,0,1,11.7,3.6c2.7,1,5.1,2.1,7.7,3.2l4.2,2c9.5,4.6,19.2,10.6,19.2,10.6,7.3,4.5,12.3,8.3,18.8,13.1,1.7,1.2,2.8,2.1,4.1,3.2a126.2,126.2,0,0,1,11.5,10.6c3.6,3.7,6.1,6.3,9.2,10.1a109.2,109.2,0,0,1,6.4,9.1,46.1,46.1,0,0,1,4.4,7.5c.4.9.5,1.1,2,4.9s1.9,4.5,2.6,6.3a108,108,0,0,1,4,11.3,90.8,90.8,0,0,1,2.3,8.9,53.1,53.1,0,0,0,1.2,5.4,26.1,26.1,0,0,0,1.5,3.7c.8,1.7,1.3,2,2.2,3.8s.8,1.7,1.4,3.4a27.9,27.9,0,0,1,1.3,6.4A65,65,0,0,1,442.7,201.5Z" transform="translate(-26.2 -8.2)" fill="none" stroke="#000" stroke-linecap="round" stroke-linejoin="round" stroke-width="0.71"/><path d="M57.5,193H71.6" transform="translate(-26.2 -8.2)" fill="none" stroke="#000" stroke-linecap="round" stroke-linejoin="round" stroke-width="0.71"/><path d="M85.2,193l442.1-.5" transform="translate(-26.2 -8.2)" fill="none" stroke="#000" stroke-linecap="round" stroke-linejoin="round" stroke-width="0.71" stroke-dasharray="27.21 13.6"/><path d="M534.1,192.5h14.2" transform="translate(-26.2 -8.2)" fill="none" stroke="#000" stroke-linecap="round" stroke-linejoin="round" stroke-width="0.71"/><path d="M446.3,383.5c-.3.7-.8,1.1-2.5,2.1l-4,2.2-1.3.8c-2.4,1.4-2.8,2.1-4.9,3.3l-1.8.9c-1.4.7-1.4.8-1.6.8s-1.2-.2-3-3a15,15,0,0,1-1.6-2.7c-1.3-2.7-.3,0-5.8-10.7l-4.3-8.5c-2.8-5.8-1.9-4.3-4.5-9.7-.7-1.4-1.2-2.8-1.8-4.2a14.7,14.7,0,0,1-1.1-3.6,2.2,2.2,0,0,1,.1-1.6,3.5,3.5,0,0,1,1.1-.9l.7-.5c.9-.5,1.9-1.3,3.2-2.2l4.3-2.8a9.8,9.8,0,0,0,1.9-1.3l1.1-.8,1.5-.6c1.6-.3,4.1,4.1,5.5,6.6,2.3,4.3,3.7,6.7,4.5,8.2l4.3,7.6,3.1,5.2c2,3.2,3.6,6.5,5.8,9.5a7.7,7.7,0,0,1,1.1,2.4,5.6,5.6,0,0,1,.3,2.3C446.5,382.5,446.5,383,446.3,383.5Z" transform="translate(-26.2 -8.2)" fill="none" stroke="#000" stroke-linecap="round" stroke-linejoin="round" stroke-width="0.71"/><path d="M371.7,367.3c-1.9,4.8-2.9,7.1-3.4,8.5-1.9,5.3-3.1,9.5-4.6,12.4l-1.8,3.2a14,14,0,0,0-1.2,2.3,28.2,28.2,0,0,1-1.6,2.9c-.8,1.2-1.2,1.8-2,2.1s-1.1.5-4.1-.1l-3.7-.8-4.5-1.3c-3-.8-3.2-.9-3.4-1.2s-.3-.9,1.3-5.9a9.4,9.4,0,0,1,.5-1.7c.4-1.4.8-2.5,1.2-3.8l2.2-6.2c1.8-4.8,2.2-5.6,4.5-11.5.6-1.6,2.7-7,4.5-11.2a38.8,38.8,0,0,1,2.3-4.4s.7-1.1,1.9-2.7,1.5-1.7,2-1.9a3.8,3.8,0,0,1,2.2-.2,34.7,34.7,0,0,1,4.3.6,30.1,30.1,0,0,1,6,2c2.1,1,2.8,1.6,3,2.4a9.1,9.1,0,0,1-.2,1.6,15,15,0,0,1-.8,3c-1,3-1.5,4.2-1.5,4.2C373.8,362.2,372.8,364.8,371.7,367.3Z" transform="translate(-26.2 -8.2)" fill="none" stroke="#000" stroke-linecap="round" stroke-linejoin="round" stroke-width="0.71"/><path d="M170.2,398.6c0-.6-.1-1.3-.1-2.3a40.4,40.4,0,0,1,.2-5.5,39.2,39.2,0,0,1,.6-4.4,26.4,26.4,0,0,1,1.3-4.6,13.9,13.9,0,0,1,1-2.1,24.8,24.8,0,0,1,2.7-4.4,20.4,20.4,0,0,1,1.7-2l2.3-2.6c2.1-2.3,2.5-3,2.6-3.8a7.6,7.6,0,0,0,.1-1.5,11.6,11.6,0,0,0-.4-2.8,9.8,9.8,0,0,0-2.5-3.6,23.1,23.1,0,0,0-2.1-1.8l-1.8-1a4,4,0,0,0-1.3-.2,5.6,5.6,0,0,0-2.1.3c-.9.4-1.3,1.3-1.8,2.3a6.7,6.7,0,0,0-.6,1.6,21.8,21.8,0,0,1-2.3,4.8,42.3,42.3,0,0,1-6.6,8.7,26.4,26.4,0,0,1-4.5,4,32.6,32.6,0,0,1-5,3,40.2,40.2,0,0,1-9.3,3.9,26.5,26.5,0,0,1-3.2.6l-2.8.3-3.5.2c-3.7.2-4.1.1-5.3.4a9.8,9.8,0,0,0-2.5,1.1,11.5,11.5,0,0,0-4.5,3.8,14.8,14.8,0,0,0-.9,1.8,17.6,17.6,0,0,0-.4,4.1,11.5,11.5,0,0,1-.1,1.8" transform="translate(-26.2 -8.2)" fill="none" stroke="#000" stroke-linecap="round" stroke-linejoin="round" stroke-width="0.71"/><path d="M161.2,373.6l1.7.2a6.8,6.8,0,0,1,2,.4,8.5,8.5,0,0,1,3.7,2.1,15.2,15.2,0,0,1,2.5,3,9.9,9.9,0,0,1,1.2,2.2" transform="translate(-26.2 -8.2)" fill="none" stroke="#000" stroke-linecap="round" stroke-linejoin="round" stroke-width="0.71"/><path d="M26.6,532.6l14.8-.3,68.1-1.1,24.3-.4c21.8-.2,29.4.2,52.8,0h58c28.1-.1,29.7-.4,46.7-.3l20,.2c19.2.1,26.4,0,29.5,0l17.3-.4,17.5-.5c15.9-.5,18.1.1,39.9-.2l18.5-.2h24.2c27.7.3,28.9.8,47.3.8l27.5-.2c12.1-.1,17.4-.3,27.1-.1l15.2.3,16.2.4" transform="translate(-26.2 -8.2)" fill="none" stroke="#000" stroke-linecap="round" stroke-linejoin="round" stroke-width="0.71"/><path d="M98.6,726.2c12.9.4,24,.5,33.1.4,6.9,0,15.7,0,27.2-.4l9.2-.4c3.5-.1,9.3-.2,25.8-.1h17.4c11.2.1,17.9.4,24.2.5,15.8.4,27.7.3,45.6.2l31.3-.4c20.4-.2,35.8-.2,41.7-.1l35.9.2,43.6.5h46.2c6.5,0,8.9.1,12.7,0h9.1" transform="translate(-26.2 -8.2)" fill="none" stroke="#000" stroke-linecap="round" stroke-linejoin="round" stroke-width="0.71"/><path d="M490,726.9c.1-.4.3-.8.5-1.4s1.2-2.8,1.3-3.1c1.3-2.5,4.6-10.6,8.8-21,1-2.5,1.9-4.5,2.6-6.4,2.3-5.5,3.2-7.8,3.7-9.2,1.7-4.1,2.9-6.5,8.1-16.5,7.8-14.8,6.2-11.9,8.1-15.4,6.7-12.6,10-18.9,11.3-21.2a110.9,110.9,0,0,0,5.6-11.4c1.1-2.4,1.8-4.3,2.9-7.1,1.8-4.8,2.3-6.4,4.2-11.5.7-2,2-5.3,4.5-11.9l4.6-12c4.7-11.8,6.8-16.6,8-19.3s2.6-5.3,3.1-6.3c2-3.9,3.7-6.8,5.7-10.2s3.5-5.6,6.2-10.3l1.4-2.5" transform="translate(-26.2 -8.2)" fill="none" stroke="#000" stroke-linecap="round" stroke-linejoin="round" stroke-width="0.71"/><path d="M509.3,530.1c-.3.9-.5,2.1-.8,3.4s-.4,1.7-.7,3.5" transform="translate(-26.2 -8.2)" fill="none" stroke="#000" stroke-linecap="round" stroke-linejoin="round" stroke-width="0.71"/><path d="M506.4,545.6c-.3,1.9-.4,3.2-.4,3.2-.7,5.2-.4,5.1-1.1,10.3-.2,2.3-.6,5.1-1.2,8.6a78,78,0,0,1-3.5,14.7c-.3.8-1.5,3.9-3.4,7.8a76.9,76.9,0,0,1-3.9,6.9c-2.1,3.7-2.8,4.5-4.7,7.9-1,1.8-1.7,3.2-2.4,4.6s-2.9,5.7-4.9,10.1-3.2,8.4-6.3,16.9c-.4,1.3-.8,2.5-1.4,4.2-1.5,4.3-2,6.1-4.4,13.3-.5,1.3-.9,2.7-1.6,4.6-1.5,4.6-1.8,5.2-2.7,8-1.8,5.5-1.6,5.2-3,9.4l-2.7,7.5c-1,2.5-1.5,3.5-2.5,6.2s-.9,2.5-1.6,4.9c-2,5.8-2,5.6-3,8.9a101.7,101.7,0,0,0-2.9,10c-.1.3-.2.9-.4,1.8" transform="translate(-26.2 -8.2)" fill="none" stroke="#000" stroke-linecap="round" stroke-linejoin="round" stroke-width="0.71" stroke-dasharray="14.44 8.67"/><path d="M447.7,719.7l-.3,2.3c-.2,1.9-.3,3.5-.4,4.7" transform="translate(-26.2 -8.2)" fill="none" stroke="#000" stroke-linecap="round" stroke-linejoin="round" stroke-width="0.71"/><path d="M142.1,726.6v-7.1" transform="translate(-26.2 -8.2)" fill="none" stroke="#000" stroke-linecap="round" stroke-linejoin="round" stroke-width="0.71"/><path d="M142.1,710.7c0-7.6,0-14.1-.1-19.5-.1-2.1-.2-11.3-.8-23,0,0-.3-4.9-1-13.1a82.7,82.7,0,0,0-2.5-15.6c-.4-1.7-1.2-3.8-1.3-4.2a38.2,38.2,0,0,0-2.3-6,23.3,23.3,0,0,0-3-4.4,51.2,51.2,0,0,0-10.6-9.3,46.7,46.7,0,0,0-8.6-4.4c-2.4-1-4.5-1.7-7-2.5l-7.5-2.3a54.4,54.4,0,0,1-16.5-7.5,37.1,37.1,0,0,1-11.8-12.6,42.7,42.7,0,0,1-3.6-8.8,56.7,56.7,0,0,1-1.9-8.2q-.5-2.5-.6-3.9c-.2-1.3-1.7-11.3-3.7-21a12.4,12.4,0,0,0-.4-1.6" transform="translate(-26.2 -8.2)" fill="none" stroke="#000" stroke-linecap="round" stroke-linejoin="round" stroke-width="0.71" stroke-dasharray="14.69 8.81"/><path d="M57.8,538.6a38.6,38.6,0,0,0-2.9-6.5" transform="translate(-26.2 -8.2)" fill="none" stroke="#000" stroke-linecap="round" stroke-linejoin="round" stroke-width="0.71"/><path d="M33.8,532.5c.7,2,1.2,3.8,1.6,5.2s.8,3.3,1.5,6.8l.8,4.9c.6,4.5,2.1,8.6,4,14s3.8,9.3,7.9,18.3c.6,1.3,1.3,2.9,2.4,4.9s2.5,4.1,4.3,7.1,1.7,3.2,4.3,7.5,2.9,4.5,5.6,9.1l2.4,4.1c1.9,3.6,3.5,6.7,5.6,11.1,4.2,9.1,6.3,13.6,8.3,19.4,1.3,4,2.5,8.1,2.6,8.7.8,2.7,1.1,4.2,1.8,7,1.2,4.8,1.3,4.9,3.9,14.7L94,687.6c1.9,7.5,2.9,11.3,3.5,13.8,1.1,4.8,1.3,6.2,2.2,10,.2.8.6,2.4,1.1,4.6s.4,2.5.7,4a35.3,35.3,0,0,0,.5,3.8c.3,1.1.5,2,.7,2.5" transform="translate(-26.2 -8.2)" fill="none" stroke="#000" stroke-linecap="round" stroke-linejoin="round" stroke-width="0.71"/><path d="M119.3,396.6" transform="translate(-26.2 -8.2)" fill="none" stroke="#000" stroke-linecap="round" stroke-linejoin="round" stroke-width="0.71"/><text transform="translate(32.3 181.2)" font-size="14.17" font-family="SimSun">A</text><text transform="translate(514.3 181.2)" font-size="14.17" font-family="SimSun">B</text><text transform="translate(4.4 516.2)" font-size="14.17" font-family="SimSun">A</text><text transform="translate(543.4 516.2)" font-size="14.17" font-family="SimSun">B</text></g><g id="texts"><text transform="translate(224.7 207.8)" font-size="14.17" font-family="AdobeMingStd-Light-B5pc-H, Adobe Ming Std">翻　葬　坑</text><text transform="translate(107.4 388.1)" font-size="11.34" font-family="AdobeMingStd-Light-B5pc-H, Adobe Ming Std">盜　坑</text><text transform="translate(391.2 354) rotate(-27.9)" font-size="11.34" font-family="AdobeMingStd-Light-B5pc-H, Adobe Ming Std">盜<tspan x="0" y="27.2">坑</tspan></text><text transform="translate(331.7 352.6) rotate(21)" font-size="11.34" font-family="AdobeMingStd-Light-B5pc-H, Adobe Ming Std">盜<tspan x="0" y="27.2">坑</tspan></text><text transform="translate(65.4 641.2)" font-size="14.17" font-family="AdobeMingStd-Light-B5pc-H, Adobe Ming Std">夯　土</text><text transform="translate(466.6 609.5)" font-size="14.17" font-family="AdobeMingStd-Light-B5pc-H, Adobe Ming Std">夯　土</text><text transform="translate(237.3 602.3)" font-size="14.17" font-family="AdobeMingStd-Light-B5pc-H, Adobe Ming Std">翻　葬　坑</text></g></svg>