<svg xmlns="http://www.w3.org/2000/svg" viewBox="0 0 166.7 198.7"><g id="scale-1:1"><path d="M154.1,194.5v9.9H12.4v-9.9" transform="translate(-8.8 -6)" fill="none" stroke="#000" stroke-miterlimit="10" stroke-width="0.5"/><line x1="32" y1="188.5" x2="32" y2="198.4" fill="none" stroke="#000" stroke-miterlimit="10" stroke-width="0.5"/><line x1="60.3" y1="188.5" x2="60.3" y2="198.4" fill="none" stroke="#000" stroke-miterlimit="10" stroke-width="0.5"/><line x1="88.7" y1="188.5" x2="88.7" y2="198.4" fill="none" stroke="#000" stroke-miterlimit="10" stroke-width="0.5"/><line x1="117" y1="188.5" x2="117" y2="198.4" fill="none" stroke="#000" stroke-miterlimit="10" stroke-width="0.5"/><text transform="translate(0 184)" font-size="14.17" font-family="AdobeMingStd-Light-B5pc-H, Adobe Ming Std">0</text><text transform="translate(142 184)" font-size="14.17" font-family="AdobeMingStd-Light-B5pc-H, Adobe Ming Std">5cm</text></g><g id="outline"><path d="M121,75c.2.2.2.4.3,1.3s.2.6.3,1.3.1.8.1,1.3a5.2,5.2,0,0,1,0,1.8c-.1.8-.8,1.3-2.1,2.3a14.3,14.3,0,0,1-2.7,1.7l-2.1.6-4.7.9-3.8.5a19.6,19.6,0,0,1-3.6.2l-4.7.2c-2.8,0-5-.1-7.5-.3l-5.2-.4-9.2-.8A64.6,64.6,0,0,1,68,84.3c-1.3-.2-2.5-.6-4.8-1.2l-3.6-1.3a8.4,8.4,0,0,1-2.5-1.5l-.6-.8a8.7,8.7,0,0,1-.2-1s-.1-1.2-.1-2.6a3.2,3.2,0,0,1,.1-.7v-.4c.2-.4.8-.4,1.7-.5l1.5-.2,2.8-.2,4.2-.2,3.9-.2,15.1-.2h8.6c4.6.1,4.5-.1,9,0l5.2.2a50.2,50.2,0,0,1,6.2.5l4.9.6.9.2A1,1,0,0,1,121,75Z" transform="translate(-8.8 -6)" fill="none" stroke="#000" stroke-miterlimit="10" stroke-width="0.57"/><path d="M121.6,104.7a3.3,3.3,0,0,1,0,1,7.7,7.7,0,0,1-.6,1.5,8.5,8.5,0,0,1-1,1.4c-.7,1-.9,1.5-1.9,3.2s-2,3.2-3.7,5.8-3.4,5.3-6.3,9.2-2.1,2.8-6.1,8.1-5.7,8-8,10.4l-4,4.3-1.2,1.2L87,152.6l-1.3,1.2a2.3,2.3,0,0,1-.9.6H83.2a5.7,5.7,0,0,1-1.3-.8,14.9,14.9,0,0,1-2.3-2.8,16.5,16.5,0,0,1-1.2-2.1c-4.1-7.7-6.7-13.5-6.7-13.5s-.6-1.2-1.2-2.7l-4.8-10.9s-6.2-14-8-19.1a18.3,18.3,0,0,1-.6-1.9,8.6,8.6,0,0,1-.5-2.7c-.1-.4-.1-2.3.8-2.7H73l7.4.3c4,.1,6.6.3,9.7.5,1,.1,9.2.6,16.2,1.8,3.2.5,6,1.1,7.3,1.4l1.8.4a8.3,8.3,0,0,1,2,.5,4.1,4.1,0,0,1,1.5.7,5.7,5.7,0,0,1,1.9,1.7A4.3,4.3,0,0,1,121.6,104.7Z" transform="translate(-8.8 -6)" fill="none" stroke="#000" stroke-miterlimit="10" stroke-width="0.57"/><path d="M65.7,103.2a1.3,1.3,0,0,1,.1-.5,1.1,1.1,0,0,1,1.1-.5c.4.1.6.5.7.5a2.7,2.7,0,0,1,0,.9,2.2,2.2,0,0,1-.5.6h-.9A.9.9,0,0,1,65.7,103.2Z" transform="translate(-8.8 -6)" fill="none" stroke="#000" stroke-miterlimit="10" stroke-width="0.43"/><line x1="82" y1="59.4" x2="82" y2="60.1" fill="none" stroke="#000" stroke-linecap="round" stroke-linejoin="round" stroke-width="0.28"/><line x1="82" y1="61.2" x2="82" y2="65.1" fill="none" stroke-dasharray="1.11 1.11" stroke-linecap="round" stroke-linejoin="round" stroke-width="0.28" stroke="#000"/><line x1="82" y1="65.6" x2="82" y2="66.3" fill="none" stroke="#000" stroke-linecap="round" stroke-linejoin="round" stroke-width="0.28"/><line x1="81.8" y1="81.7" x2="81.8" y2="82.4" fill="none" stroke="#000" stroke-linecap="round" stroke-linejoin="round" stroke-width="0.28"/><line x1="81.8" y1="83.6" x2="81.8" y2="87.7" fill="none" stroke-dasharray="1.17 1.17" stroke-linecap="round" stroke-linejoin="round" stroke-width="0.28" stroke="#000"/><line x1="81.8" y1="88.3" x2="81.8" y2="89" fill="none" stroke="#000" stroke-linecap="round" stroke-linejoin="round" stroke-width="0.28"/><path d="M92.2,136.6c0,.2.1.6-.2.8H81.9a.7.7,0,0,1-.3-.8l.3-.2h3.6l2,.2H92A.6.6,0,0,1,92.2,136.6Z" transform="translate(-8.8 -6)"/><path d="M95.6,127.7a.4.4,0,0,1,0,.5c0,.2,0,.3-.1.4s-.4.2-.6.2H79.5l-.5-.7c0-.1-.1-.2-.1-.3a.3.3,0,0,1,.3-.3,2.3,2.3,0,0,1,1.1.1l.8.3H93.9a4.8,4.8,0,0,0,1.2,0h.5Z" transform="translate(-8.8 -6)"/><path d="M98.3,120.3H96.8a8.8,8.8,0,0,0-1.6-.2l-2.6-.3a21.5,21.5,0,0,1-3.2-.4h-.8l-2.8-.2H84.6l-3.1-.5-2-.4h-.6l-.7-.3c-.1-.1-.2-.1-.2-.2s.1-.4.4-.4.2,0,.5.1l.6.2a34,34,0,0,0,4.8.7l2.5.2h1.8l1.8.2a24.5,24.5,0,0,0,3.4.4l2.7.3h1.7a.4.4,0,0,1,.1.3Z" transform="translate(-8.8 -6)"/><path d="M77,109.4h.9l1.5.2h1.5c.7,0,.3-.1.7,0H82c0-.1-.1-.1-.3-.1H77.1A.1.1,0,0,0,77,109.4Zm-1.7-.9c.2-.2.5-.1,1,0l1,.2,2.5.4,3.3.3a49.5,49.5,0,0,1,5,.7l6.7,1.2,2.4.4,2.2.4,1.2.2h-.2l.6.2c0,.1.2.2.1.4s-.5.2-.7.2H99.3l-2.8-.7-3.1-.5L88,111l-2.6-.3-2.4-.2-3.7-.2H76.7a.7.7,0,0,1-.6-.2l-.2-.3c-.3-.5-.8-.5-.8-.8A.5.5,0,0,1,75.3,108.5Z" transform="translate(-8.8 -6)"/><path d="M66,53a1.5,1.5,0,0,1,1.2-.7,1.1,1.1,0,0,1,.9.2c.1,0,.3.2.5.5a2.6,2.6,0,0,1,0,.9,1.2,1.2,0,0,1-.7.9c-.6.4-1.4-.2-1.5-.3s-.6-.3-.6-.7A.9.9,0,0,1,66,53Z" transform="translate(-8.8 -6)" fill="none" stroke="#000" stroke-miterlimit="10" stroke-width="0.43"/><path d="M119.5,59.1l-4.1-.4-1.7-.2-7.1-.7h-1.4a5.9,5.9,0,0,0-1.4-.2,9.9,9.9,0,0,0-1.7-.2l-1.7-.3-1.8-.2-.7-.3a1.1,1.1,0,0,1-.3-.5c-.4-.7-.4-.6-.5-.7S97,55,97,53.9a3.4,3.4,0,0,1,0-1.1,1.3,1.3,0,0,1,.1-.6l.4-.2.2.3c.1.1.1.3.1.6v.4a3.4,3.4,0,0,0,.1.9,3.7,3.7,0,0,0,.9,1.1l.3.2a7.7,7.7,0,0,0,2.4.5h1.8l4,.4H109l3,.6,3.2.4,5.1.4,2.1.2a6.5,6.5,0,0,1,.2,1.1Zm-2.1-.5h1.2l.7.2c1,.3,2.3.3,2.3.1s-.3-.3-.5-.4h-.8a27.1,27.1,0,0,1-4-.4,7,7,0,0,1-2-.3h-2.5c-.1,0-.3.1-.3.2l1.7.3,1.1.2,2,.3Z" transform="translate(-8.8 -6)"/><path d="M122.6,59.3v1.2c0,.1-.1.6-.2,1.3a4.5,4.5,0,0,1-.7,1.4,3.5,3.5,0,0,1-1.6.4h-.9l-4.5.4-4,.3c-6.4.3-17.4.1-19.3.1l-10.8-.3-9.1-.4-4.9-.4-3.5-.3c-1.2-.1-2.5-.3-3.8-.3l-1.1-.2-.7-.3a2.9,2.9,0,0,1-1.1-.9,4,4,0,0,1-.2-1.3,9.9,9.9,0,0,1,.6-1.3,1.9,1.9,0,0,1,.3-.8,8.7,8.7,0,0,1,.5-1.2c.3-.7.4-1,1.1-2.4a15.1,15.1,0,0,0,.8-1.7c1.1-2.2,2.2-4.6,2.3-4.9,1.3-2.9,3.1-6.2,4.5-8.7a121.5,121.5,0,0,1,7.5-12.5c1.3-2,2-2.8,5-7.2l3-4.2,1.4-1.8,1.2-1.5L85.9,10l.8-1A14.7,14.7,0,0,1,88,7.3c.5-.6.8-.9,1.2-1s.8.3,1.7,1.1l2.3,2.4,2.1,2.4c1.6,2,1.5,1.7,2.2,2.6s1,1.4,2.3,3.6a19.8,19.8,0,0,1,1.6,2.4l1.5,2.2c1.5,2.4,3.2,5.4,5.2,8.9l3.1,5.2c.8,1.4,2.8,5,5,9.2l2.4,4.4a27.3,27.3,0,0,1,1.3,2.5l1,1.6A19.7,19.7,0,0,1,122,57c.2.5.3.9.4,1.2A6.5,6.5,0,0,1,122.6,59.3Z" transform="translate(-8.8 -6)" fill="none" stroke="#000" stroke-miterlimit="10" stroke-width="0.57"/><path d="M74.8,35.7l-2.2,3.9c-2.1,4-2,4.2-4.3,8.6-.8,1.5-1.6,3-2.3,4.5l-.9,2c-.4.5-.7.9-.5,1.2l1.1.2H67l2.9.2h3.2l4.7.2h1.3a1.6,1.6,0,0,0,1-.2c.3-.1.5-.4.8-1a9,9,0,0,0,.5-.9l.8-1.6a19.3,19.3,0,0,0,1-1.9l.3-1.2c.3-1.2.4-1.3.5-1.3s.3.4.3.4a3.2,3.2,0,0,1-.2,1.3,5.4,5.4,0,0,0-.4,1.2l-1.4,2.6c-.2.3-.5,1-1,1.7l-.5.7-.6.6H76l-6.2-.2H66.1a12.3,12.3,0,0,1-1.9-.2c-.7,0-.9,0-1.1-.2s.1-.7.6-1.5l.5-.8c.7-1,2.5-4.2,3.2-5.4,2.3-4.2,4.2-8.1,6.9-13,.2-.4,0,.1,4.8-8.6,2.7-4.6,3.5-6.1,4.4-7.8l2.8-5,.4-.8c.2-.4.2-.6.4-.7s.5,0,.5.1-.2.4-.2.4a40.9,40.9,0,0,0-2.5,4.3c-1.1,1.8-.9,1.7-1.6,2.8l-.8,1.5c-.4.6-.7,1.1-.5,1.3h5.1c.5,0,.7,0,.7.2s.1.1.1.6v.4a4.5,4.5,0,0,1-.2.8c-.1.3-.1.5-.2.6s-.1.8-.2,1.5-.1.8-.1,1.6-.1,1,0,1.2-.1.4-.1,1,0,.3-.1.4-.2-.1-.3-.3-.1-.1-.1-.5V30a1,1,0,0,1,.1-.4,7.1,7.1,0,0,1,.1-1.5,4.5,4.5,0,0,1,.1-1.3v-1a6.2,6.2,0,0,0,.1-1.3,1.1,1.1,0,0,0-.1-.6H82c-.3,0-.4-.1-.5,0s-.2.2-.4.6a4.3,4.3,0,0,1-.4.7l-.5.9-1.5,2.6Z" transform="translate(-8.8 -6)" fill="none" stroke="#000" stroke-miterlimit="10" stroke-width="0.57"/><path d="M103.4,30.5l3.5,5.9,3.2,5.3,1.8,2.8c.6.8,1,1.9,1.7,2.7a.3.3,0,0,1,.1.2c0,.1-.1.1-.2.1s-.3-.2-.4-.4l-.4-.6c-1.1-2.1-2.5-4.1-3.7-6.2l-3-4.6c-.7-1-3.1-4.8-4.2-6.6s-.8-1.3-1.1-1.7l-.7-1.1a4.5,4.5,0,0,0-.5-.9l-.4-.3H97.8a16,16,0,0,1-2.2,0H93.9c-.1,0-.3-.1-.4,0a.4.4,0,0,0-.1.3l-.4.9-.2.7c-.4,1-.5,1.3-.6,1.3a.3.3,0,0,1-.3-.3c-.1-.2,0-.4.2-1.2a1.3,1.3,0,0,1,.1-.5l.3-1.2a2.8,2.8,0,0,1,.5-.8c.2-.1.3-.1,1.2,0h4c.5,0,.6,0,.6-.1s-.1-.9-.2-1-.2-.5-.3-.5a14.9,14.9,0,0,1-1.1-2.4l-.8-1.7c-.4-.8-1-2.1-1.7-3.8l-.6-1.5a7.5,7.5,0,0,1-.6-1.3c-.1-.4-.4-1.3-.3-1.3s.5.4.6.4l.3.7.4.9.9,2a53.1,53.1,0,0,0,2.1,5.1,7.9,7.9,0,0,0,.8,1.6c1,1.8,1.5,3,1.8,3.4A56.7,56.7,0,0,0,103.4,30.5Z" transform="translate(-8.8 -6)" fill="none" stroke="#000" stroke-miterlimit="10" stroke-width="0.57"/></g></svg>