<svg xmlns="http://www.w3.org/2000/svg" viewBox="0 0 1350.2 1527.4"><g id="scale-1:100"><path d="M1094.4,1434.4v9.9H952.6v-9.9" transform="translate(-3.7 -16.7)" fill="none" stroke="#000" stroke-miterlimit="10" stroke-width="0.5"/><line x1="977.3" y1="1417.6" x2="977.3" y2="1427.6" fill="none" stroke="#000" stroke-miterlimit="10" stroke-width="0.5"/><line x1="1005.6" y1="1417.6" x2="1005.6" y2="1427.6" fill="none" stroke="#000" stroke-miterlimit="10" stroke-width="0.5"/><line x1="1034" y1="1417.6" x2="1034" y2="1427.6" fill="none" stroke="#000" stroke-miterlimit="10" stroke-width="0.5"/><line x1="1062.3" y1="1417.6" x2="1062.3" y2="1427.6" fill="none" stroke="#000" stroke-miterlimit="10" stroke-width="0.5"/><text transform="translate(945.3 1413.1)" font-size="14.17" font-family="AdobeMingStd-Light-B5pc-H, Adobe Ming Std">0</text><text transform="translate(1087.3 1413.1)" font-size="14.17" font-family="AdobeMingStd-Light-B5pc-H, Adobe Ming Std">5m</text></g><g id="outline"><path d="M712,1357c-.3,2.3-.5,4.7-.8,7" transform="translate(-3.7 -16.7)" fill="none" stroke="#000" stroke-linecap="round" stroke-linejoin="round" stroke-width="1.13"/><path d="M709.8,1377.3q-8.2,76.4-16.6,152.6" transform="translate(-3.7 -16.7)" fill="none" stroke="#000" stroke-linecap="round" stroke-linejoin="round" stroke-width="1.13" stroke-dasharray="13.35 13.35"/><path d="M692.5,1536.5c-.3,2.4-.5,4.7-.8,7.1" transform="translate(-3.7 -16.7)" fill="none" stroke="#000" stroke-linecap="round" stroke-linejoin="round" stroke-width="1.13"/><path d="M494,1301.6q15-232.9,29.9-465.8L397.7,803.6,422,625.2c-201.1-41.6-280.2-57.7-309.3-63.4-6.5-1.3-27.3-5.4-55.2-11.9-22.9-5.4-41.4-10.3-53.2-13.5,1.6-17.3,3.1-31.5,4.1-41.4,2-17.6,3.7-31.6,6.8-56.3,1.6-13.6,3.1-24.8,4-32.3l56,9.1C153,428,184,431.9,284.6,447.5l51.6,8c47.4,7.4,85.7,13.2,110.1,16.9l37.8-167,159.5,17.2q24.1-152.7,48.2-305.3L855.4,39.9,815.3,343.2c17.6,3.8,41.5,8.6,70,14l32.8,6c18.7,3.6,43.1,8.4,71.9,14.8-4.6,28.5-9.2,57.1-13.6,85.7q-5.4,35.4-10.7,70.8L1185.8,579l167.5,34-18.1,139.5L1202,741.6c-62.1-5.1-114.9-9.2-154-12.2l-111.7-8.5-2.7,9.9-6.3,22.9c-4.8,17.5-9.7,35-14.5,52.6l-22.4,81.5-128.5-1.1c-5.3,50.4-12,113.5-17.3,163.9q-16.1,151.8-32.4,303.5" transform="translate(-3.7 -16.7)" fill="none" stroke="#000" stroke-linecap="round" stroke-linejoin="round" stroke-width="1.13"/><path d="M480.3,1516.1l.4-7.1" transform="translate(-3.7 -16.7)" fill="none" stroke="#000" stroke-linecap="round" stroke-linejoin="round" stroke-width="1.13"/><path d="M481.6,1495.8,493,1317.5" transform="translate(-3.7 -16.7)" fill="none" stroke="#000" stroke-linecap="round" stroke-linejoin="round" stroke-width="1.13" stroke-dasharray="13.23 13.23"/><path d="M493.4,1310.9l.5-7" transform="translate(-3.7 -16.7)" fill="none" stroke="#000" stroke-linecap="round" stroke-linejoin="round" stroke-width="1.13"/><path d="M485.7,1208.6l6.6-6.5c2.9-2.9,3.5-3.6,4.8-4.7s2.7-2,4.6-3.7a42.1,42.1,0,0,0,3.7-3.6c5-5,6-5.4,10.3-9.8,2.1-2.2,1.4-1.6,4.1-4.5l9-9.1a87.3,87.3,0,0,0,6.2-6.5c1.4-1.5,1.2-1.5,2.5-3s3.8-3.9,6.3-6.7l3.5-4.1c3.3-4.1,4.3-5.4,7.2-9.2s5.3-6.4,7.6-9.1,5.2-6.2,6.3-7.2a40.6,40.6,0,0,0,3.6-3.9,37.8,37.8,0,0,0,2.4-3.2c1.6-2.2,4-4.3,8.8-8.5l3.4-2.8a39.3,39.3,0,0,1,4.6-2.5,37.2,37.2,0,0,1,4.5-1.7,45,45,0,0,1,5.3-1.2,53.6,53.6,0,0,1,9.3.1l5.7.6,18.2,2,10.8.7c7.6.4,11.6.7,15.6.7l7.1-.2,12.1.2,9.5.4c11.1.4,13.9.6,15.5.7l7,.6c9.2.7,9.6.5,13.1,1s3.7.7,7,1.1a42.5,42.5,0,0,0,4.7.4l14.3,1.3" transform="translate(-3.7 -16.7)" fill="none" stroke="#000" stroke-linecap="round" stroke-linejoin="round" stroke-width="0.71"/><path d="M533.5,1260.1c.6-2.2,1-4.2,1.3-5.8s.5-3,.7-5.3,0-1.1.1-2.1c.2-2.7.4-4.5.6-5.6s.1-2.1.2-7.6c.1-1.4.1-1.2.5-9,.2-4.1.3-6.1.3-6.4.1-2.7,0-2.9-.2-11l-.2-9.9c0-1,0-2,.1-3.4a44,44,0,0,1,.9-6.2c.8-4.5.6-3.9,1-6a67,67,0,0,1,1.9-7.3,66.1,66.1,0,0,1,3.1-6.9c2.7-5.6,4-8.4,4.4-9.1,2.4-4.6,3.6-6.8,5.8-9.5s1.6-1.7,4.5-5,2.4-3,4.3-5.1c4.2-5,8.1-8.8,9.3-10l4.2-4.2,3.5-3.5,5.7-5.6a41.6,41.6,0,0,1,7.8-5.1,44.3,44.3,0,0,1,4-2,42.5,42.5,0,0,1,5.1-1.4,56.8,56.8,0,0,1,9.8-1.2c3.4-.3,3.2-.1,9.7-.4l6.8-.4h8.4c4.8.1,5.2.2,7.4.1a16.1,16.1,0,0,1,3.4-.1l3,.3,4.4.3c3.6.2,3.3.4,6.2.6s3.4-.1,5.9.2l3.7.5,2.1.3,5.7.5,6.6.5,3.7.5,3.9.2,8.7.4,4.6.4,9.9.6a6.1,6.1,0,0,1,2.8.3,8.2,8.2,0,0,1,2.2,1.5,12.6,12.6,0,0,1,3.1,7.5c0,.3,0,.3-.2,3.7-.3,5.6-.3,5.9-.5,7.5s-.4,3.3-.7,5.6c-.8,4.5-1.1,5.6-1.6,9.3-.1,1.3,0,.7-.4,3.9-.6,5.8-.8,6.2-.9,8.8s-.1,3.2-.1,5.8,0,3.1-.1,5.3-.1,3.3-.2,4.9-.5,2.4-.7,4.5-.2,3.2-.5,7.2c-.2,2.3-.2,1.9-.6,6s-.3,3-.6,6.9-.6,5.1-.8,8.2-.3,4.1-.4,6.3c-.3,4.6-.2,5.2-.4,7.3a43,43,0,0,1-1,6.4c-.5,2.7-1.3,8.9-2.9,21.3-1.1,8.6-1.8,14.7-2.8,23.2-1.3,12.2-.7,9.4-1.7,18.3-.1,1.1-.3,3.8-.4,7.5,0,2,0,3.8.1,4.9" transform="translate(-3.7 -16.7)" fill="none" stroke="#000" stroke-linecap="round" stroke-linejoin="round" stroke-width="0.71"/><path d="M696.1,1304.5c.3-1.4.6-3.3,1.1-5.5s1-5.4,1.8-10c.3-2.1.9-5.6,1.5-10.2s.4-3.6.9-6.8c.8-6.2,1.1-6,1.4-9.5s.2-4.4.7-8.7c.3-1.9.4-2.4.7-4.9s.4-3.9.6-6.3c.5-4,.6-3.9.9-6.8.5-4.8.2-5.5.7-12.5.2-2.4.3-2.4.4-4.6.3-3.9.2-5.2.4-8.2s.4-2.9.8-8.2c.3-3.2.2-3.4.7-9.6a44.2,44.2,0,0,1,.4-5.3c.2-3.3.4-4.4.7-7.8s.2-2.4.4-4.7.5-5.9,1-8.8.7-3.5,1.1-6.6.2-2.2.5-4.5.8-3.6,1-6.2.1-2.6.4-4.6l.5-2.9a46.8,46.8,0,0,0,.9-6.6,54.8,54.8,0,0,0-.1-7c-.3-2.9-.5-4.4-.7-5.4a16.4,16.4,0,0,0-1.7-4.3,6.1,6.1,0,0,0-1.8-2.1l-1.3-.7a13.3,13.3,0,0,0-2.8-.3l-2.4-.7c-2.1-.7-4-.8-8-1.1l-4-.2c-5.1-.2-5.7-.5-12.4-.9-4.8-.3-4.9-.2-9.7-.6l-7.2-.5c-4.4-.3-6-.1-21.3.5l-6.3.2-11.6.7-5.4.6c-3.6.2-4.4.1-8.3.4a48.4,48.4,0,0,0-6.1.6,28.5,28.5,0,0,0-5.5,1,26.4,26.4,0,0,0-4.6,2.1,36.3,36.3,0,0,0-6,5c-3,2.9-4.9,4.7-7.6,7.8s-2.2,3.1-5.1,6.4a95.9,95.9,0,0,1-8.8,8.8c-2,1.7-2,1.5-3.4,2.8a63.5,63.5,0,0,0-6.2,7.1,71.7,71.7,0,0,0-6.6,11.4,53.7,53.7,0,0,0-2.7,6.4,36.9,36.9,0,0,0-2.1,7.3c-.1.6-.1,1.2-.3,2.5-.5,3.9-.5,5.6-.7,8s-.7,3.2-1.1,6.7a63.2,63.2,0,0,0-.5,12c.3,3.5.7,2.9,1.5,8.9s.9,8.9,1,9.9c.3,4.9.1,8.6.1,9.4s-.2,4.1-.6,7.3a54.9,54.9,0,0,1-1.1,6" transform="translate(-3.7 -16.7)" fill="none" stroke="#000" stroke-linecap="round" stroke-linejoin="round" stroke-width="0.71"/><path d="M373.2,470.6a10.8,10.8,0,0,1-2.3,4.2c-.2.2-.9,1.1-1.9,2.1a29.8,29.8,0,0,1-2.7,2.3l-2,1.4c-1.3.9-2.5,1.2-5,1.8a31,31,0,0,1-4.7.9,20.1,20.1,0,0,1-4.6-.2c-1.4-.1-1.6-.3-3.3-.5l-2.7-.3-2.3-.5-2.4-.7-4.8-1.1-3-.6a6.1,6.1,0,0,1-2.1-.3l-1.2-.5-2.4-1.6c-.3-.3-1.2-.9-2.3-2a20.6,20.6,0,0,1-2.8-3.3,14.6,14.6,0,0,1-1.8-3,11.7,11.7,0,0,1-1.1-6.4,11.5,11.5,0,0,1,4-7.6,15.4,15.4,0,0,1,3.7-2,18,18,0,0,1,2.8-1.1,42.5,42.5,0,0,1,7.3-1.4,58.2,58.2,0,0,1,7.7-.2,8.7,8.7,0,0,1,2,.2,8,8,0,0,1,2.3.5c1.9.4,2.4.3,4.5.6l4.1.9a28.3,28.3,0,0,1,11.3,5.8,16.3,16.3,0,0,1,4.1,5.2,18.5,18.5,0,0,1,1.2,3.3,6.3,6.3,0,0,1,.5,2.1A7.6,7.6,0,0,1,373.2,470.6Z" transform="translate(-3.7 -16.7)" fill="none" stroke="#000" stroke-linecap="round" stroke-linejoin="round" stroke-width="0.71"/><path d="M697.4,610.5,680.9,608c1-5.9,1.7-10.6,2.2-13.9s.9-6.3,1.6-10.4,1.4-9.4,1.9-12.1l10.3,1.8,6.3,1c-.4,2.3-1,5.8-1.7,10.1s-.9,6.7-1.2,9.1C699.7,597.5,698.8,603.2,697.4,610.5Z" transform="translate(-3.7 -16.7)" fill="none" stroke="#000" stroke-linecap="round" stroke-linejoin="round" stroke-width="0.71"/><path d="M579.4,629.1l-1.4-.3a7.8,7.8,0,0,0,.2-1.4" transform="translate(-3.7 -16.7)" fill="none" stroke="#000" stroke-linecap="round" stroke-linejoin="round" stroke-width="0.71"/><path d="M578.7,624.6l1.8-9.8" transform="translate(-3.7 -16.7)" fill="none" stroke="#000" stroke-linecap="round" stroke-linejoin="round" stroke-width="0.71" stroke-dasharray="8.51 2.84"/><path d="M580.8,613.4c4.9-27.5,9.9-54.9,14.8-82.4" transform="translate(-3.7 -16.7)" fill="none" stroke="#000" stroke-linecap="round" stroke-linejoin="round" stroke-width="0.71" stroke-dasharray="2.84 2.84 8.51 2.84"/><path d="M595.9,529.6a7.8,7.8,0,0,1,.2-1.4l1.4.3" transform="translate(-3.7 -16.7)" fill="none" stroke="#000" stroke-linecap="round" stroke-linejoin="round" stroke-width="0.71"/><path d="M598.3,528.7l2.9.6" transform="translate(-3.7 -16.7)" fill="none" stroke="#000" stroke-linecap="round" stroke-linejoin="round" stroke-width="0.71" stroke-dasharray="2.53 0.84"/><path d="M601.6,529.3l1.4.3c-.1.5-.1,1-.2,1.4" transform="translate(-3.7 -16.7)" fill="none" stroke="#000" stroke-linecap="round" stroke-linejoin="round" stroke-width="0.71"/><path d="M602.6,531.7c-.1.9-.3,1.7-.4,2.6" transform="translate(-3.7 -16.7)" fill="none" stroke="#000" stroke-linecap="round" stroke-linejoin="round" stroke-width="0.71" stroke-dasharray="2.19 0.73"/><path d="M602.1,534.6c-.1.5-.1,1-.2,1.4l1.4.3" transform="translate(-3.7 -16.7)" fill="none" stroke="#000" stroke-linecap="round" stroke-linejoin="round" stroke-width="0.71"/><path d="M606.6,536.9l11.7,2.1" transform="translate(-3.7 -16.7)" fill="none" stroke="#000" stroke-linecap="round" stroke-linejoin="round" stroke-width="0.71" stroke-dasharray="10.22 3.41"/><path d="M620,539.3l1.5.3,16.9,3.2" transform="translate(-3.7 -16.7)" fill="none" stroke="#000" stroke-linecap="round" stroke-linejoin="round" stroke-width="0.71" stroke-dasharray="3.41 3.41 10.22 3.41"/><path d="M640.1,543.2l1.4.2.3-1.3" transform="translate(-3.7 -16.7)" fill="none" stroke="#000" stroke-linecap="round" stroke-linejoin="round" stroke-width="0.71"/><path d="M642.3,539.7c.2-.7.3-1.4.5-2.1.4-2.2.8-4.3,1.1-6.3" transform="translate(-3.7 -16.7)" fill="none" stroke="#000" stroke-linecap="round" stroke-linejoin="round" stroke-width="0.71" stroke-dasharray="7.32 2.44"/><path d="M644.1,530.1a5.9,5.9,0,0,1,.2-1.4h1.4" transform="translate(-3.7 -16.7)" fill="none" stroke="#000" stroke-linecap="round" stroke-linejoin="round" stroke-width="0.71"/><path d="M645.9,528.8h.9" transform="translate(-3.7 -16.7)" fill="none" stroke="#000" stroke-linecap="round" stroke-linejoin="round" stroke-width="0.71" stroke-dasharray="0.79 0.26"/><path d="M647,528.9h1.4l.2-1.3" transform="translate(-3.7 -16.7)" fill="none" stroke="#000" stroke-linecap="round" stroke-linejoin="round" stroke-width="0.71"/><path d="M648.9,526.1l.9-5.2" transform="translate(-3.7 -16.7)" fill="none" stroke="#000" stroke-linecap="round" stroke-linejoin="round" stroke-width="0.71" stroke-dasharray="4.6 1.53"/><path d="M650,520.1c.5-2.8.9-5.5,1.4-8.3" transform="translate(-3.7 -16.7)" fill="none" stroke="#000" stroke-linecap="round" stroke-linejoin="round" stroke-width="0.71" stroke-dasharray="1.53 1.53 4.6 1.53"/><path d="M651.6,511l.2-1.3,1.4.2" transform="translate(-3.7 -16.7)" fill="none" stroke="#000" stroke-linecap="round" stroke-linejoin="round" stroke-width="0.71"/><path d="M655.8,510.2l9,1.3" transform="translate(-3.7 -16.7)" fill="none" stroke="#000" stroke-linecap="round" stroke-linejoin="round" stroke-width="0.71" stroke-dasharray="7.81 2.6"/><path d="M666.1,511.7l29.7,4.1" transform="translate(-3.7 -16.7)" fill="none" stroke="#000" stroke-linecap="round" stroke-linejoin="round" stroke-width="0.71" stroke-dasharray="2.6 2.6 7.81 2.6"/><path d="M697,516l1.4.2.2-1.4" transform="translate(-3.7 -16.7)" fill="none" stroke="#000" stroke-linecap="round" stroke-linejoin="round" stroke-width="0.71"/><path d="M698.7,514.5v-.9" transform="translate(-3.7 -16.7)" fill="none" stroke="#000" stroke-linecap="round" stroke-linejoin="round" stroke-width="0.71" stroke-dasharray="0.8 0.27"/><path d="M698.8,513.5l.2-1.4,1.4.3" transform="translate(-3.7 -16.7)" fill="none" stroke="#000" stroke-linecap="round" stroke-linejoin="round" stroke-width="0.71"/><path d="M702,512.7l5.7,1.2" transform="translate(-3.7 -16.7)" fill="none" stroke="#000" stroke-linecap="round" stroke-linejoin="round" stroke-width="0.71" stroke-dasharray="4.99 1.66"/><path d="M708.5,514.1l1.4.3-.2,1.4" transform="translate(-3.7 -16.7)" fill="none" stroke="#000" stroke-linecap="round" stroke-linejoin="round" stroke-width="0.71"/><path d="M709.7,516.1l-.2,1.2" transform="translate(-3.7 -16.7)" fill="none" stroke="#000" stroke-linecap="round" stroke-linejoin="round" stroke-width="0.71" stroke-dasharray="0.98 0.33"/><path d="M709.4,517.4l-.2,1.4,1.4.2" transform="translate(-3.7 -16.7)" fill="none" stroke="#000" stroke-linecap="round" stroke-linejoin="round" stroke-width="0.71"/><path d="M712.3,519.3l5.8.8" transform="translate(-3.7 -16.7)" fill="none" stroke="#000" stroke-linecap="round" stroke-linejoin="round" stroke-width="0.71" stroke-dasharray="5.05 1.68"/><path d="M718.9,520.3l1.4.2.3-1.4" transform="translate(-3.7 -16.7)" fill="none" stroke="#000" stroke-linecap="round" stroke-linejoin="round" stroke-width="0.71"/><path d="M721,516.8c.4-2.8.9-5.5,1.3-8.2" transform="translate(-3.7 -16.7)" fill="none" stroke="#000" stroke-linecap="round" stroke-linejoin="round" stroke-width="0.71" stroke-dasharray="7.05 2.35"/><path d="M722.5,507.5l4.5-26.7" transform="translate(-3.7 -16.7)" fill="none" stroke="#000" stroke-linecap="round" stroke-linejoin="round" stroke-width="0.71" stroke-dasharray="2.35 2.35 7.05 2.35"/><path d="M727.2,479.7l.2-1.4,1.4.2" transform="translate(-3.7 -16.7)" fill="none" stroke="#000" stroke-linecap="round" stroke-linejoin="round" stroke-width="0.71"/><path d="M730.8,478.8l6.8,1.2" transform="translate(-3.7 -16.7)" fill="none" stroke="#000" stroke-linecap="round" stroke-linejoin="round" stroke-width="0.71" stroke-dasharray="5.96 1.99"/><path d="M738.6,480.2l10.8,1.8" transform="translate(-3.7 -16.7)" fill="none" stroke="#000" stroke-linecap="round" stroke-linejoin="round" stroke-width="0.71" stroke-dasharray="1.99 1.99 5.96 1.99"/><path d="M750.4,482.2l1.4.2-.3,1.4" transform="translate(-3.7 -16.7)" fill="none" stroke="#000" stroke-linecap="round" stroke-linejoin="round" stroke-width="0.71"/><path d="M751,487.2c-.7,4-1.3,8-1.9,12" transform="translate(-3.7 -16.7)" fill="none" stroke="#000" stroke-linecap="round" stroke-linejoin="round" stroke-width="0.71" stroke-dasharray="10.37 3.46"/><path d="M748.8,500.9l-3,18.8" transform="translate(-3.7 -16.7)" fill="none" stroke="#000" stroke-linecap="round" stroke-linejoin="round" stroke-width="0.71" stroke-dasharray="3.46 3.46 10.37 3.46"/><path d="M745.5,521.4l-.2,1.4,1.4.2" transform="translate(-3.7 -16.7)" fill="none" stroke="#000" stroke-linecap="round" stroke-linejoin="round" stroke-width="0.71"/><path d="M749.7,523.4l10.5,1.4" transform="translate(-3.7 -16.7)" fill="none" stroke="#000" stroke-linecap="round" stroke-linejoin="round" stroke-width="0.71" stroke-dasharray="9.13 3.04"/><path d="M761.8,525l1.4.2-.3,1.4" transform="translate(-3.7 -16.7)" fill="none" stroke="#000" stroke-linecap="round" stroke-linejoin="round" stroke-width="0.71"/><path d="M762.4,529.9c-.7,3.9-1.4,7.8-2,11.6" transform="translate(-3.7 -16.7)" fill="none" stroke="#000" stroke-linecap="round" stroke-linejoin="round" stroke-width="0.71" stroke-dasharray="10.06 3.35"/><path d="M760.1,543.2c-1,6-2,12.1-3.1,18.2" transform="translate(-3.7 -16.7)" fill="none" stroke="#000" stroke-linecap="round" stroke-linejoin="round" stroke-width="0.71" stroke-dasharray="3.35 3.35 10.06 3.35"/><path d="M756.7,563a6.8,6.8,0,0,1-.2,1.4l1.4.2" transform="translate(-3.7 -16.7)" fill="none" stroke="#000" stroke-linecap="round" stroke-linejoin="round" stroke-width="0.71"/><path d="M760.8,565l10.2,1.6" transform="translate(-3.7 -16.7)" fill="none" stroke="#000" stroke-linecap="round" stroke-linejoin="round" stroke-width="0.71" stroke-dasharray="8.8 2.93"/><path d="M772.4,566.9l6.6,1,26.7,4.7" transform="translate(-3.7 -16.7)" fill="none" stroke="#000" stroke-linecap="round" stroke-linejoin="round" stroke-width="0.71" stroke-dasharray="2.93 2.93 8.8 2.93"/><path d="M807.1,572.8l1.4.3c-.1.5-.1.9-.2,1.4" transform="translate(-3.7 -16.7)" fill="none" stroke="#000" stroke-linecap="round" stroke-linejoin="round" stroke-width="0.71"/><path d="M807.8,577.6c-.6,3.7-1.1,7.3-1.7,10.7" transform="translate(-3.7 -16.7)" fill="none" stroke="#000" stroke-linecap="round" stroke-linejoin="round" stroke-width="0.71" stroke-dasharray="9.29 3.1"/><path d="M805.8,589.8c-1.9,11.4-3.7,20.7-5.1,27.8s-3.2,15.3-5.2,28.7c-.9,6-1.6,11.2-2,15.2" transform="translate(-3.7 -16.7)" fill="none" stroke="#000" stroke-linecap="round" stroke-linejoin="round" stroke-width="0.71" stroke-dasharray="3.1 3.1 9.29 3.1"/><path d="M793.3,663c0,.5-.1,1-.1,1.4l-1.4-.2" transform="translate(-3.7 -16.7)" fill="none" stroke="#000" stroke-linecap="round" stroke-linejoin="round" stroke-width="0.71"/><path d="M788.9,663.7l-9.8-1.6" transform="translate(-3.7 -16.7)" fill="none" stroke="#000" stroke-linecap="round" stroke-linejoin="round" stroke-width="0.71" stroke-dasharray="8.57 2.86"/><path d="M777.7,661.9l-3-.5-12.5-2" transform="translate(-3.7 -16.7)" fill="none" stroke="#000" stroke-linecap="round" stroke-linejoin="round" stroke-width="0.71" stroke-dasharray="2.86 2.86 8.57 2.86"/><path d="M760.7,659.1l-1.4-.2-.2,1.4" transform="translate(-3.7 -16.7)" fill="none" stroke="#000" stroke-linecap="round" stroke-linejoin="round" stroke-width="0.71"/><path d="M758.5,663.1l-1.8,9.6" transform="translate(-3.7 -16.7)" fill="none" stroke="#000" stroke-linecap="round" stroke-linejoin="round" stroke-width="0.71" stroke-dasharray="8.42 2.81"/><path d="M756.4,674.1l-2.9,15.1" transform="translate(-3.7 -16.7)" fill="none" stroke="#000" stroke-linecap="round" stroke-linejoin="round" stroke-width="0.71" stroke-dasharray="2.81 2.81 8.42 2.81"/><path d="M753.2,690.6,753,692l-1.4-.2" transform="translate(-3.7 -16.7)" fill="none" stroke="#000" stroke-linecap="round" stroke-linejoin="round" stroke-width="0.71"/><path d="M749.3,691.5l-7.9-1.1" transform="translate(-3.7 -16.7)" fill="none" stroke="#000" stroke-linecap="round" stroke-linejoin="round" stroke-width="0.71" stroke-dasharray="6.83 2.28"/><path d="M740.3,690.3l-12.4-1.7" transform="translate(-3.7 -16.7)" fill="none" stroke="#000" stroke-linecap="round" stroke-linejoin="round" stroke-width="0.71" stroke-dasharray="2.28 2.28 6.83 2.28"/><path d="M726.8,688.5l-1.5-.2a7.8,7.8,0,0,1-.2,1.4" transform="translate(-3.7 -16.7)" fill="none" stroke="#000" stroke-linecap="round" stroke-linejoin="round" stroke-width="0.71"/><path d="M724.5,692.6c-.6,3.5-1.2,7-1.9,10.5" transform="translate(-3.7 -16.7)" fill="none" stroke="#000" stroke-linecap="round" stroke-linejoin="round" stroke-width="0.71" stroke-dasharray="9.11 3.04"/><path d="M722.4,704.6c-.2,1.4-.5,2.8-.7,4.2-.7,4.1-1.3,8.2-1.9,12.3" transform="translate(-3.7 -16.7)" fill="none" stroke="#000" stroke-linecap="round" stroke-linejoin="round" stroke-width="0.71" stroke-dasharray="3.04 3.04 9.11 3.04"/><path d="M719.6,722.6l-.3,1.4-1.3-.3" transform="translate(-3.7 -16.7)" fill="none" stroke="#000" stroke-linecap="round" stroke-linejoin="round" stroke-width="0.71"/><path d="M717.4,723.6l-1.8-.4" transform="translate(-3.7 -16.7)" fill="none" stroke="#000" stroke-linecap="round" stroke-linejoin="round" stroke-width="0.71" stroke-dasharray="1.62 0.54"/><path d="M715.3,723.2l-1.4-.3-.2,1.3" transform="translate(-3.7 -16.7)" fill="none" stroke="#000" stroke-linecap="round" stroke-linejoin="round" stroke-width="0.71"/><path d="M713.6,724.4v.5" transform="translate(-3.7 -16.7)" fill="none" stroke="#000" stroke-linecap="round" stroke-linejoin="round" stroke-width="0.71" stroke-dasharray="0.43 0.14"/><path d="M713.5,724.9l-.2,1.4-1.4-.2" transform="translate(-3.7 -16.7)" fill="none" stroke="#000" stroke-linecap="round" stroke-linejoin="round" stroke-width="0.71"/><path d="M710.1,725.9l-6.2-.8" transform="translate(-3.7 -16.7)" fill="none" stroke="#000" stroke-linecap="round" stroke-linejoin="round" stroke-width="0.71" stroke-dasharray="5.39 1.8"/><path d="M703,724.9h-1.4l-.3,1.4" transform="translate(-3.7 -16.7)" fill="none" stroke="#000" stroke-linecap="round" stroke-linejoin="round" stroke-width="0.71"/><path d="M701.1,727.3l-.6,3.9" transform="translate(-3.7 -16.7)" fill="none" stroke="#000" stroke-linecap="round" stroke-linejoin="round" stroke-width="0.71" stroke-dasharray="3.43 1.14"/><path d="M700.4,731.8l-.3,1.4-1.4-.3" transform="translate(-3.7 -16.7)" fill="none" stroke="#000" stroke-linecap="round" stroke-linejoin="round" stroke-width="0.71"/><path d="M697.1,732.7l-5.6-1" transform="translate(-3.7 -16.7)" fill="none" stroke="#000" stroke-linecap="round" stroke-linejoin="round" stroke-width="0.71" stroke-dasharray="4.9 1.63"/><path d="M690.7,731.6l-8.9-1.4" transform="translate(-3.7 -16.7)" fill="none" stroke="#000" stroke-linecap="round" stroke-linejoin="round" stroke-width="0.71" stroke-dasharray="1.63 1.63 4.9 1.63"/><path d="M681,730l-1.4-.2.2-1.4" transform="translate(-3.7 -16.7)" fill="none" stroke="#000" stroke-linecap="round" stroke-linejoin="round" stroke-width="0.71"/><path d="M680,727.4l.6-3.5" transform="translate(-3.7 -16.7)" fill="none" stroke="#000" stroke-linecap="round" stroke-linejoin="round" stroke-width="0.71" stroke-dasharray="3.07 1.02"/><path d="M680.7,723.3l.3-1.3-1.4-.3" transform="translate(-3.7 -16.7)" fill="none" stroke="#000" stroke-linecap="round" stroke-linejoin="round" stroke-width="0.71"/><path d="M677.5,721.3l-7.4-1.2" transform="translate(-3.7 -16.7)" fill="none" stroke="#000" stroke-linecap="round" stroke-linejoin="round" stroke-width="0.71" stroke-dasharray="6.43 2.14"/><path d="M669,719.9l-1.4-.3-.2,1.4" transform="translate(-3.7 -16.7)" fill="none" stroke="#000" stroke-linecap="round" stroke-linejoin="round" stroke-width="0.71"/><path d="M667.4,721.2v.4" transform="translate(-3.7 -16.7)" fill="none" stroke="#000" stroke-linecap="round" stroke-linejoin="round" stroke-width="0.71" stroke-dasharray="0.42 0.14"/><path d="M667.3,721.7l-.3,1.4-1.4-.2" transform="translate(-3.7 -16.7)" fill="none" stroke="#000" stroke-linecap="round" stroke-linejoin="round" stroke-width="0.71"/><path d="M663.7,722.5l-6.6-1.2" transform="translate(-3.7 -16.7)" fill="none" stroke="#000" stroke-linecap="round" stroke-linejoin="round" stroke-width="0.71" stroke-dasharray="5.79 1.93"/><path d="M656.1,721.1l-1.4-.2.2-1.4" transform="translate(-3.7 -16.7)" fill="none" stroke="#000" stroke-linecap="round" stroke-linejoin="round" stroke-width="0.71"/><path d="M655,718.2l.4-4.5" transform="translate(-3.7 -16.7)" fill="none" stroke="#000" stroke-linecap="round" stroke-linejoin="round" stroke-width="0.71" stroke-dasharray="3.84 1.28"/><path d="M655.5,713.1v-1.4l-1.4-.2" transform="translate(-3.7 -16.7)" fill="none" stroke="#000" stroke-linecap="round" stroke-linejoin="round" stroke-width="0.71"/><path d="M651.2,711l-10.4-1.5" transform="translate(-3.7 -16.7)" fill="none" stroke="#000" stroke-linecap="round" stroke-linejoin="round" stroke-width="0.71" stroke-dasharray="9.04 3.01"/><path d="M639.3,709.3l-1.4-.2c.1-.5.1-1,.2-1.4" transform="translate(-3.7 -16.7)" fill="none" stroke="#000" stroke-linecap="round" stroke-linejoin="round" stroke-width="0.71"/><path d="M638.5,704.2c.5-4.1,1.1-8.1,1.6-12.2" transform="translate(-3.7 -16.7)" fill="none" stroke="#000" stroke-linecap="round" stroke-linejoin="round" stroke-width="0.71" stroke-dasharray="10.54 3.51"/><path d="M640.4,690.2a11,11,0,0,1,.2-1.8l2.4-17.3" transform="translate(-3.7 -16.7)" fill="none" stroke="#000" stroke-linecap="round" stroke-linejoin="round" stroke-width="0.71" stroke-dasharray="3.51 3.51 10.54 3.51"/><path d="M643.2,669.4c.1-.5.1-1,.2-1.4l-1.4-.3" transform="translate(-3.7 -16.7)" fill="none" stroke="#000" stroke-linecap="round" stroke-linejoin="round" stroke-width="0.71"/><path d="M640.8,667.4l-4.1-.8" transform="translate(-3.7 -16.7)" fill="none" stroke="#000" stroke-linecap="round" stroke-linejoin="round" stroke-width="0.71" stroke-dasharray="3.63 1.21"/><path d="M636.1,666.5l-1.4-.3-.3,1.4" transform="translate(-3.7 -16.7)" fill="none" stroke="#000" stroke-linecap="round" stroke-linejoin="round" stroke-width="0.71"/><path d="M634.2,668.7c-.2,1.3-.4,2.5-.7,3.8" transform="translate(-3.7 -16.7)" fill="none" stroke="#000" stroke-linecap="round" stroke-linejoin="round" stroke-width="0.71" stroke-dasharray="3.32 1.11"/><path d="M633.4,673l-.2,1.4-1.4-.2" transform="translate(-3.7 -16.7)" fill="none" stroke="#000" stroke-linecap="round" stroke-linejoin="round" stroke-width="0.71"/><path d="M629.3,673.8l-8.4-1.4" transform="translate(-3.7 -16.7)" fill="none" stroke="#000" stroke-linecap="round" stroke-linejoin="round" stroke-width="0.71" stroke-dasharray="7.36 2.45"/><path d="M619.7,672.2l-1.4-.2.3-1.4" transform="translate(-3.7 -16.7)" fill="none" stroke="#000" stroke-linecap="round" stroke-linejoin="round" stroke-width="0.71"/><path d="M618.9,669.5l1-3.8" transform="translate(-3.7 -16.7)" fill="none" stroke="#000" stroke-linecap="round" stroke-linejoin="round" stroke-width="0.71" stroke-dasharray="3.4 1.13"/><path d="M620,665.2c.1-.5.3-1,.4-1.4l-1.4-.4" transform="translate(-3.7 -16.7)" fill="none" stroke="#000" stroke-linecap="round" stroke-linejoin="round" stroke-width="0.71"/><path d="M618,663.2l-3.5-1" transform="translate(-3.7 -16.7)" fill="none" stroke="#000" stroke-linecap="round" stroke-linejoin="round" stroke-width="0.71" stroke-dasharray="3.1 1.03"/><path d="M614,662.1l-1.4-.3.3-1.4" transform="translate(-3.7 -16.7)" fill="none" stroke="#000" stroke-linecap="round" stroke-linejoin="round" stroke-width="0.71"/><path d="M613.2,658.4l1.1-6.8" transform="translate(-3.7 -16.7)" fill="none" stroke="#000" stroke-linecap="round" stroke-linejoin="round" stroke-width="0.71" stroke-dasharray="5.89 1.96"/><path d="M614.5,650.7l1.8-10.7" transform="translate(-3.7 -16.7)" fill="none" stroke="#000" stroke-linecap="round" stroke-linejoin="round" stroke-width="0.71" stroke-dasharray="1.96 1.96 5.89 1.96"/><path d="M616.5,639.1l.2-1.4-1.4-.4" transform="translate(-3.7 -16.7)" fill="none" stroke="#000" stroke-linecap="round" stroke-linejoin="round" stroke-width="0.71"/><path d="M612.1,636.6,600.6,634" transform="translate(-3.7 -16.7)" fill="none" stroke="#000" stroke-linecap="round" stroke-linejoin="round" stroke-width="0.71" stroke-dasharray="10.06 3.35"/><path d="M599,633.6l-18-4.1" transform="translate(-3.7 -16.7)" fill="none" stroke="#000" stroke-linecap="round" stroke-linejoin="round" stroke-width="0.71" stroke-dasharray="3.35 3.35 10.06 3.35"/><path d="M800.1,631.8a22.5,22.5,0,0,1,0,5.8,15.6,15.6,0,0,1-2,5.5,18.2,18.2,0,0,1-2.4,2.9c-1.6,1.9-2.4,2.3-5.1,5l-1.5,1.6a37.2,37.2,0,0,1-4.5,3.7l-5,4-11.3,9c-7.9,6.3-11.8,9.5-16.4,14.5-2.1,2.3-3.6,4.1-6.6,7.8s-6.7,8.5-8.7,11.1l-6.2,8.3c-2.4,3.3-3.6,5.2-6,8s-2.8,3.3-3.6,4.1a40.3,40.3,0,0,1-4.2,4.2,23.8,23.8,0,0,1-10.6,5.4,35.1,35.1,0,0,1-7,.6,90.9,90.9,0,0,1-10-.8c-4.8-.5-7.3-.8-11-1.4s-6.5-1.1-11.3-2.2c-6.9-1.6-12.2-2.9-18.6-6.1a55.2,55.2,0,0,1-10.3-6.6,44.6,44.6,0,0,1-6.4-6.4c-1.2-1.6-2.2-3-2.9-4.1s-1.4-2.2-2.4-3.7l-3.8-5.1-4.1-4.8c-6.8-7.7-5.9-7-7.8-8.9s-4.1-3.9-6.2-6.2l-2.3-2.7-2.3-2.3c-1.7-1.7-3-2.8-3.6-3.3s-2.4-2.4-7.6-8.7l-4.5-5.5c-3.4-4-5.8-6.4-8.4-9.1-6.8-7-5.7-6.6-12-13.2-4.2-4.3-8.3-8.5-12.9-12.9a61.7,61.7,0,0,1-5.6-6.2,37.1,37.1,0,0,1-3.5-5c-1.4-2.2-2.3-4.4-4.2-8.8-1.2-2.8-1.7-4.1-2.1-5.3a20.7,20.7,0,0,1-1.5-5.3c-.1-1-.1-2.4-.1-5a26.2,26.2,0,0,1,.1-2.9c.1-2.3.3-2.5.3-4.3s-.1-1.6-.1-3.5.1-2.9.2-4c.4-5.6.6-8.4.9-11.6s.5-6.9.6-10.1.1-5,.3-9.4c.1-1.4.2-3.6.5-6.4a23.6,23.6,0,0,1,.3-2.9c.3-2.6.4-3,1-7,.3-1.5.3-2,.5-3s.3-1.5.9-3.3.7-2,1.2-3.5.4-2.6,1.1-4.7a18.9,18.9,0,0,1,1.8-4.1,25.8,25.8,0,0,1,1.7-3l2.6-4.1c1.8-2.7,4.7-6.6,9.7-12.8s4.6-5.5,5.9-7.6a42.9,42.9,0,0,0,4.3-8.3,56.3,56.3,0,0,0,3-9.8c.8-3.4,1.2-6.1,1.4-7.6.6-3.9.5-5,1-9.4s.7-4.8,1.1-7c.9-3.8,1.9-8.3,5.1-12.9s4.9-5,5.5-5.3a16.7,16.7,0,0,1,3.8-1.4,21.9,21.9,0,0,1,5-.9,51.8,51.8,0,0,1,9.1.3,78.6,78.6,0,0,1,10,1.3c3,.5,4.5,1,8.5,1.6l4.4.7c26.1,3.4,33.4,4.3,42.7,4.2h7.1c8.8,0,10.3.4,15.8.1s4.2-.5,7.9-.6c.5,0,4.6-.1,9.3.3a82.1,82.1,0,0,1,31.6,9,67.9,67.9,0,0,1,6.8,4.2,53.6,53.6,0,0,1,9.5,8.9,50.5,50.5,0,0,1,8.4,15.6,84.3,84.3,0,0,1,3,10.2c.5,2,1.1,5.2,2.3,11.5.1.6.5,2.5.6,3.5.5,2.6,2.2,11.5,3.2,21.4.4,4.8.1,3.2,1,17.2.5,7.4.7,11,1,13,.5,3.8,1.7,9.2,4.1,20.2s1.9,7.6,3.1,12.9c.3,1.2.8,3.5,1.7,6.5s.7,1.9,1.4,4.2,1.1,4.1,2.5,9.1c1,3.3.9,3,1.2,4.2.7,2.9.6,3.8,1.5,5.6s.6.9,1.5,2.8l1.6,3.2a44.7,44.7,0,0,1,1.8,6.5c.8,3.6.8,3,1.6,6.4A129,129,0,0,1,800.1,631.8Z" transform="translate(-3.7 -16.7)" fill="none" stroke="#000" stroke-linecap="round" stroke-linejoin="round" stroke-width="0.71"/><path d="M774.3,482.8c.5,2.7.3,2.8,1,8.6.4,3.9.5,4.1.8,7.3s.4,3.6.8,8.2c.9,11.7,1.1,13.8,1.3,15,.4,3.7.8,6.5,1,7.9.6,3.6,1.1,6.3,1.2,7.2s.9,4.2,2,9.1,1.6,6.2,2.7,10.7c1.8,7.6,1.5,7,3.1,13.3s2.7,10.6,3.3,12.9.8,2.7,2.1,7.6a48.6,48.6,0,0,0,1.6,5.5,21.2,21.2,0,0,1,.9,3.1,10,10,0,0,0,.4,2.4,6.1,6.1,0,0,0,1,1.8,16.1,16.1,0,0,1,1.2,3.7c1.6,7.6.5,1.1,1.6,6.9l2.1,12s.4,3,.8,8.8a12.3,12.3,0,0,1-.1,3.8,16.2,16.2,0,0,1-1.8,5.3,32.2,32.2,0,0,1-4.2,5.8c-.7.8-2.7,3.1-6.9,7.1s-6.8,6.1-8.4,7.4l-5.5,4.5c-3.6,2.7-6.3,4.5-7.3,5.2-6.6,4.6-12.1,10.4-15.9,14.5s-2.4,3.1-11.5,13.7c-2.4,2.9-4.4,6-6.7,8.9a18.3,18.3,0,0,0-2,3.2c-.3.8-.3,1-.6,1.8a15.2,15.2,0,0,1-2.2,2.6c-.8.8-1.3,1.5-2.3,2.4l-2.3,2.1c-1.9,1.7-2.2,2.6-4.1,4.9s-3.4,4-5.5,5.3a21.7,21.7,0,0,1-5.7,2.4,33,33,0,0,1-4.5.6l-5.7.3a49.9,49.9,0,0,1-14.5-1l-7.6-1.3c-8.9-1.7-8.5-2-11.5-2.3a30.2,30.2,0,0,1-5.1-1l-2.6-.9-2.1-1a17.8,17.8,0,0,0-3.8-1.2,33.4,33.4,0,0,1-7.5-3,44.8,44.8,0,0,1-12-8.9l-3.8-4.1c-4-4.5-4.8-5.8-7.8-9s-1.6-1.6-6.4-6.6-5.6-5.7-8.1-8.4-3.1-3.9-8.4-10.1l-7.5-8.6c-2.5-2.8-3.7-4.3-5.4-6.4s-1.7-2.3-3.4-4.4-2.3-2.9-4.6-5.5c-.8-.9-2.1-2.4-6.1-6.6s-7-7.2-9.8-10-2.8-2.4-5.6-5.1-3.5-3.6-8.7-8.9l-4.5-4.5a28.3,28.3,0,0,1-3.1-3.1c-.8-1-.9-1.3-3.1-5.2s-1.7-2.9-2.2-3.9a37.7,37.7,0,0,1-1.8-4.4,76.1,76.1,0,0,1-3.4-17.5,107,107,0,0,1,0-11.4c.1-2.9.3-4.5.3-7.7s0-3.3-.3-7.9-.5-9-.9-13.6c-.6-8.1-.8-7-1-10.9-.4-6.9.1-11.5,1.1-20a31.1,31.1,0,0,1,2.3-9.2,23.5,23.5,0,0,1,3.6-5.8c6.2-8,9.4-12.1,15.4-17.9,4.3-4.1,6.1-5.3,8.6-9a53.7,53.7,0,0,0,4.2-7.3,50,50,0,0,0,3.2-7.8,42.7,42.7,0,0,0,1.6-8.6c.6-4.4.3-5.1.8-8.6a61.6,61.6,0,0,1,2.2-9c1.7-5.6,2.9-9.3,5.4-13.9a47.9,47.9,0,0,1,6.3-8.8,16.8,16.8,0,0,1,10.7-6.3,50.3,50.3,0,0,1,7.3-1.4l6-.9c6.7-.9,15.2.5,19.2,1,11.9,1.7,10.4,0,26.4,1.8,2.1.2,8.7,1,17.3,2.5,4.1.7,11.3,2.1,20.3,4.3,11,2.8,12.8,3.9,24.8,7.1l11.1,3.2,5.3,1.7c2.9,1.1,3.5,1.7,7.4,3.2s2.9,1.1,4.9,2a44.5,44.5,0,0,1,6.7,3.5,94.6,94.6,0,0,1,8.5,7.6c1.7,1.7,2.5,2.4,3.4,3.5a27.6,27.6,0,0,1,3.5,5.3c1.3,2.6,2.1,5.4,3.7,11,1,3.6,1.5,5.5,2,8.2s.3,1.8.9,5.8c.4,2.2.7,4.1,1.1,6.5C773.7,480.3,773.9,480,774.3,482.8Z" transform="translate(-3.7 -16.7)" fill="none" stroke="#000" stroke-linecap="round" stroke-linejoin="round" stroke-width="0.71"/><text transform="translate(753.1 1097.7)" font-size="14.17" font-family="SimSun">1.00</text><text transform="translate(699.1 1290) rotate(92.6)" font-size="14.17" font-family="SimSun">2.00</text><text transform="translate(685.2 1291.1) rotate(98.4)" font-size="14.17" font-family="SimSun">3.00</text><text transform="translate(328.8 479.5)" font-size="14.17" font-family="SimSun">1.00</text><path d="M858.9,370v2.1c.1,4.3,1.2,7.5,2.7,12.3.9,2.6,1.6,4.8,2.9,7.7a23,23,0,0,1,2.1,5.1c.3,1.5.2,1.9.7,5.4a33.9,33.9,0,0,1,.7,4.1c.3,2.2,0,3.4-.2,6.4s0,3.7-.3,8.8c-.1,1.7-.2,4-.5,6.9s-.8,4.4-1.1,7.5,0,2-.2,7.4-.2,4.9-.2,7,.1,1.4.7,6.6c.8,7.2,1,8.3,1.3,9.6.6,2.9,1.2,4.9,1.5,5.9l1.6,3.9,4.4,9.6c1.5,3.2,2.1,4.5,2.5,5.6s1,2.3,1.8,4.3c1.9,4.6,2.4,5.1,4,9a47.6,47.6,0,0,1,1.9,5.3,41.5,41.5,0,0,1,1.2,7.1c0,1,0,2.3-.1,4.9a33.3,33.3,0,0,1-.4,5.4,20,20,0,0,1-1.5,4,36,36,0,0,1-2.5,3.6l-2.2,3.4s-2,3.1-3.6,5.8a78.8,78.8,0,0,0-7.7,16.3,65.5,65.5,0,0,0-2.3,12.8c-2.2,24.3.5,31.3-2.6,48.5a156.4,156.4,0,0,1-3.8,16.2c-.5,1.9-2.4,8.9-5.7,17.8a141.4,141.4,0,0,1-7.8,18.5l-3.3,5.9c-1.1,2-4.5,8.1-10.4,19.6-4,7.6-3.1,6.1-5,9.7-4.8,9.1-8.4,15.1-9.5,17-2.7,4.6-4.2,7-6.5,10.3a119.9,119.9,0,0,1-9.8,12.7c-4.1,4.8-8,9.3-14.2,13.9a76.3,76.3,0,0,1-12.1,7.3c-3.2,1.8-9,4.2-20.4,9.1-4.8,2.1-8.6,3.6-13.6,5.3-2.4.8-5.2,1.7-8.5,2.5a39,39,0,0,1-6,1.3c-4.6.7-5.5,0-11.7.4-3.3.2-3.2.5-6.9.7s-5.2.1-7.7.1a102.5,102.5,0,0,0-12,1.1c-4.3.6-7.6,1.4-14.3,2.9s-12.8,2.6-19.2,4.2a24.9,24.9,0,0,1-6,.8,26.7,26.7,0,0,1-6.6-1c-1.5-.3-5.2-1.1-13.8-3.7-3.3-1-4.5-1.4-6-2.4a21.9,21.9,0,0,1-4.5-4.6,57.9,57.9,0,0,1-4.6-6.9,58.8,58.8,0,0,0-3.5-6,30.1,30.1,0,0,0-2.3-2.9c-1.4-1.7-4.6-4.8-12.6-8.3-3.2-1.4-2.6-.9-8.3-3.1-1.1-.4-6.5-2.5-13.5-5.7-4.8-2.3-6.8-3.6-9.9-5a15.3,15.3,0,0,1-3-1.5,21,21,0,0,1-3.1-2c-3.2-2.3-3.4-2.1-8.3-5.6s-6.8-4.9-8.3-6.2-5.6-5.3-8.3-7.3l-1.5-1.2-3.2-2.7h0L524,720a22.3,22.3,0,0,1-2.1-2.5c-1.8-2.5-3-4.7-3.5-5.5-2-4-3.9-8.1-6.3-13.9s-2.2-5.3-3.6-8.5-2.1-4.8-3.5-7.5c-3.2-6.8-6.3-11.7-11-19.1-1.6-2.6-3-4.6-4.5-6.9l-4.5-6s-4.7-6.1-11.4-15.2c-2.7-3.7-6.3-8.6-10.6-15s-4.3-6.6-7-10.4a58.1,58.1,0,0,1-4.1-5.8c-.8-1.4-1.7-3.1-3.1-6s-2.8-6.3-5.5-13.1c-.4-1-2.9-7.2-3.6-9.4a16.4,16.4,0,0,0-.7-2.1,6.7,6.7,0,0,1-.6-1.6,14.5,14.5,0,0,1-.2-2.3v-1.6a8.5,8.5,0,0,1,0-1.7c0-1.6-.1-5.1-.1-9.1,0-9,.3-9.8.2-12.6a14.1,14.1,0,0,1,.1-2.8c.2-.8.3-1.1.5-2.1a17.9,17.9,0,0,0,.1-2.1c0-5.9.1-5.4,0-6.8s-.1-3.2-.3-5.6-.3-4.7-.4-5.5c-.2-3-.5-6.6-1-10.9-1-9-1.2-7.6-1.6-12.5-.1-1.3-.1-1.2-.5-12.1-.2-3.5,0,1.8,0-3.8-.1-1.8-.1-2.4.2-3.1s.4-.7,1.8-2.6a31.1,31.1,0,0,0,1.8-2.7,25.9,25.9,0,0,0,1.4-2.9,29.6,29.6,0,0,1,3.3-4.8c1.2-1.5,1.4-1.6,2-2.5a16.9,16.9,0,0,0,1.7-3.4,48.3,48.3,0,0,1,4.4-7.2c3.5-5.3,4.2-5.7,5.9-9l.8-1.4a18.8,18.8,0,0,0,1.4-3.2c.2-.5.2-.9.3-1.1" transform="translate(-3.7 -16.7)" fill="none" stroke="#000" stroke-linecap="round" stroke-linejoin="round" stroke-width="0.71"/><path d="M461.4,433.7a44,44,0,0,0,2-6.8" transform="translate(-3.7 -16.7)" fill="none" stroke="#000" stroke-linecap="round" stroke-linejoin="round" stroke-width="0.71"/><path d="M464.1,421.3c0-.7.1-1.3.1-1.9,0-3.4-.5-3.9-.6-8.2s.2-3.2.1-6.3-.4-4.1-.1-6a12.8,12.8,0,0,1,2.1-5.2,19.7,19.7,0,0,1,3.5-3.2c.9-.7,2.1-1.7,3.9-2.9a43.5,43.5,0,0,1,8-4.8,10.6,10.6,0,0,0,2.8-1.6,30.6,30.6,0,0,0,2.4-2.2,36.9,36.9,0,0,1,2.9-2.7,20.6,20.6,0,0,0,2.2-4,49.5,49.5,0,0,0,3.5-8.7,27.2,27.2,0,0,0,.9-4.3c.2-2.1,0-2.4.1-4.8a16.4,16.4,0,0,1,1.3-6.8c.2-.4.9-1.5,2.4-3.7l2.1-3.1A39,39,0,0,1,509,333c2.1-1.7,4.9-3.1,10.3-5.8l4.2-2a103.4,103.4,0,0,1,12.8-4.8c6.3-1.8,7.3-1.4,13.2-3.4,2.9-1,3.3-1.4,5.8-2.3a78.5,78.5,0,0,1,15.1-3.7c20.6-3.2,23.5-2.7,33-4.9,2.9-.6,5.5-1.3,9.8-1.9s6.3-.6,11.1-1.5c3-.5,4.2-.9,6.4-1.3,4-.9,7.1-1.1,20.3-1.7l12.9-.5c8.8-.1,19.2-.3,27.4.9,1,.1,3.5.5,7.1.8l7,.3c5.6.2,6.4.7,11.2,1,1,.1,4.1.1,10.1,0,9.1,0,11.2-.1,14.5.5a49.7,49.7,0,0,1,6.7,1.7c12.6,3.8,11.1,2.7,26.4,7.3l19.4,6.1,10.8,3.4c7.5,2.4,10.8,3.5,14.8,5.1l6.2,2.7c10.3,4.4,11.2,4.2,14.2,6.2s4.6,4,7.6,7.2a43.8,43.8,0,0,1,5.3,6.6,46.3,46.3,0,0,1,2.8,5.4" transform="translate(-3.7 -16.7)" fill="none" stroke="#000" stroke-linecap="round" stroke-linejoin="round" stroke-width="0.71" stroke-dasharray="14.16 5.66"/><path d="M856.4,357l.6,1.5c.8,2.1,1.4,3.9,1.8,5.2" transform="translate(-3.7 -16.7)" fill="none" stroke="#000" stroke-linecap="round" stroke-linejoin="round" stroke-width="0.71"/><path d="M852.8,504.8c.8,4,.3,2,1.3,8.3,0,.5.4,2.8.4,5a13.3,13.3,0,0,1,.1,1.7,12.3,12.3,0,0,1-.1,2.6,10.3,10.3,0,0,0-.5,1.6,11.3,11.3,0,0,1-.2,1.4c0,1.6-.6,5.7-1.2,12.7-.3,4.7-.4,8.5-.7,11.6,0,.3-.1,1.3-.2,2.7s-.1,2-.1,2.5-.4,1.5-1,4.5-.5,2.4-.6,3.1a6.7,6.7,0,0,1-.2,2.4,8.2,8.2,0,0,1-.5,1.7c-.2.8-.3,1.5-.5,2.3a12.6,12.6,0,0,0-.1,1.6,23.5,23.5,0,0,1-.9,5.3c-.2,1.1-.9,4.1-1.3,7.3s-.1,2.1-.5,5.9-.5,4-.8,5.5-.7,2.4-1.1,4.6-.3,1.8-.5,3c-.8,5.1-.7,4.5-1.2,8s-.8,5.4-.9,6.4a22.3,22.3,0,0,1-.3,3.3,30.9,30.9,0,0,1-1,3.5c-.5,1.9-.8,2.8-1,3.5s-.6,3.1-1.1,6.7a32.8,32.8,0,0,0-.5,3.8c-.1.5-.1,1.2-.3,2.2a6.9,6.9,0,0,1-.3,2,12,12,0,0,1-.9,2.3,43.3,43.3,0,0,0-2,6.9c-.5,2.5-.3,2.2-.7,3.7s-1.1,2.8-1.8,4.9-.5,2.3-.9,3.9-.6,2.2-3.7,9c-1.1,2.4-1.8,3.8-2.8,5.8s-1.8,3.6-3.5,6.8c-2.9,5.5-2.4,4.8-3.8,7.3-2.9,5.4-4,6.4-6.7,11.4l-1.6,2.8a50.9,50.9,0,0,1-3.4,4.5c-1.3,1.8-.9,1.5-4.5,7.3-1.5,2.4-2.8,4.3-4.5,6.9s-2,3-2.4,3.5c-1.9,2.8-3.5,4.7-5.4,7.1a16.6,16.6,0,0,1-1.9,2.2,41.5,41.5,0,0,1-3.2,3.2,60.8,60.8,0,0,1-4.7,3.9c-1.9,1.4-3.4,2.2-3.8,2.5a39,39,0,0,1-10.9,4.1l-6.2,1.4c-4.9,1.1-5.4,1.4-9.2,2.3-2.3.6-2.3.5-17.2,3.3l-4,.7c-4,.5-4.9.3-9.5.9l-3.9.5-3.2.4a149,149,0,0,1-15.6.8,107.6,107.6,0,0,1-15.3-1.2c-4.8-.7-8.3-1.4-11.5-2.1l-6-1.5-5.9-2.1-8.9-3.4-3.4-1.5c-2.8-1.3-3.7-1.9-5.6-2.4l-1.9-.5-2.6-.8a16.6,16.6,0,0,1-2.6-1.2c-2.7-1.5-4.3-2.1-8.1-4.1s-4.9-2.9-12.4-7.6l-12-7.8c-8.2-5.3-8.6-5.4-12.5-8.1l-9.8-7.4a42.1,42.1,0,0,1-5-4.3c-.9-.8-1.5-1.5-2-2-2.4-2.5-3.3-3.3-8.4-8.3l-6.1-5.9c-2.3-2.2-3-2.7-6.3-5.7l-4.5-4.3-6-5.8-7-6.8-2.5-2.6c-3-3-3.8-4-5.6-5.6l-2.7-2.1c-3.5-2.9-4.5-4.1-8-7a38.2,38.2,0,0,0-3.6-2.9c-4.4-3.7-7.7-6.8-12-11s-7.5-7.3-11.3-11.7c-2-2.4-4.2-5-5-6.1-3-3.7-3.7-4.8-5.8-7.4s-4.1-4.8-9.1-10.5c-2.8-3.3-5.6-6.7-8.5-9.9-.3-.4-1.6-1.8-3.1-3.8a39.8,39.8,0,0,1-2.4-3.5,25.7,25.7,0,0,1-2.2-4.4,17.2,17.2,0,0,1-1.2-4.3,33.9,33.9,0,0,1-.4-5.4,43,43,0,0,1,1.7-10.9,41.3,41.3,0,0,0,1-4.1c.3-1.6.3-2,.7-4s.7-3.6.8-4.1c.5-2.1.7-2.5,1-4s.2-1.3.3-2.6.3-2.6.4-4.1.1-2.9.3-4.7.4-2.6.5-3.2c.8-3.6.6-5.3,1.3-10.1,0-.7,0-.3,1.9-11,.6-3,.8-4.1,1.2-5.8a42,42,0,0,1,2.1-7.2,12,12,0,0,0,.8-2.2,18.4,18.4,0,0,0,.7-3c.5-1.7.8-1.8,1.5-4a22.9,22.9,0,0,0,.8-2.8c.8-2.4,1.3-3.2,2.1-5.5s.8-2.6,1.2-3.9c1-3.8,2.2-6.9,4.5-13.3.9-2.5,1.1-2.8,3.1-8,4.3-11.2,4.1-11,5.9-15.4.3-.8,2.2-5.4,6.1-14.4,2-4.8,3.4-8,5.3-12.3,2.7-6,3.8-8.1,4.7-9.9l3.1-5.6,2.8-5.2c2.1-4.1,2.3-5,4-8.3s2.2-4,3.8-6.7c3.3-5.5,4.9-8.3,6.5-10.3,3.3-4.1,6.6-6.6,11.3-10.3a65.2,65.2,0,0,1,7.5-5.2c1.8-1.2,3.4-2,12.7-6.4s10.6-4.9,12.7-5.6l7.9-2.5c3.5-1,7.2-2,11.8-2.9s2.6-.4,8.7-1.3c8-1.3,8.5-1.7,12.9-2.1s5.9-.5,9.5-.6,6.2-.2,11.2-.1c1.8,0,9.8.2,14.6.8,9.4,1.1,12.5,4.5,22.4,8.5,15.5,6.1,15.9.9,33.1,7.2a226.8,226.8,0,0,1,23.2,10.2,63.6,63.6,0,0,0,6.8,3.4,65.6,65.6,0,0,0,6.1,2.6,64.2,64.2,0,0,0,8.7,2.5l5.2.9c2.5.3,3.4.2,5.7.6,0,0,2.3.3,5.2,1a74.8,74.8,0,0,1,17.2,6.9c5.8,3.3,10.5,7.4,19.8,15.5,3.7,3.3,5.5,4.9,8.1,7.5a143.7,143.7,0,0,1,13.7,16,116.8,116.8,0,0,1,9,13.2,123.6,123.6,0,0,1,8.5,17.5c1.4,3.1,2.2,5.4,3.6,9,2.7,7.2,3.6,10.4,6.8,18.4l1.8,4.6c2.1,5.5,4,10.5,5.7,16.5A164.8,164.8,0,0,1,852.8,504.8Z" transform="translate(-3.7 -16.7)" fill="none" stroke="#000" stroke-linecap="round" stroke-linejoin="round" stroke-width="0.71"/><path d="M808.3,416a40,40,0,0,0-3.2-4.6c-2-2.3-1.9-1.9-5.4-5.6a65.9,65.9,0,0,0-5.1-4.9c-1.7-1.4-2.1-1.6-5-3.7-1.1-.7-2.8-2-6.2-4.7-5.9-4.6-6.5-5.1-8.1-6.1l-6.1-3-11.7-5.7-8.5-4.3-9.8-4.1-.7-.2c-2.4-1-8.3-3.2-19.3-6.9-7-2.3-5.6-1.7-9.8-3.2-6.4-2.2-9.4-3.5-19.9-7.4l-10.2-3.8c-8.4-3.1-17-6.1-25.4-9.5a170.2,170.2,0,0,0-18.5-6,25.6,25.6,0,0,0-3.6-.7c-2.7-.4-3.5-.1-7.6-.2l-8.7-.3a22.4,22.4,0,0,0-2.6,0,41,41,0,0,0-4.8,1l-4.4.4c-3.1.3-3.6.2-5.6.5l-3.6.5c-1.2.3-2.8.6-6.3,1.6l-7.3,2.3c-.8.2-1.4.5-7.1,2.7l-7.5,3c-3.6,1.2-3.4.8-7.8,2.2a64.9,64.9,0,0,0-9.6,3.6l-5,2.6-6.5,3.4a57.2,57.2,0,0,0-7.1,4.3l-3.3,2.9c-2.5,2.1-4.1,3.5-5.5,4.9a51.7,51.7,0,0,0-5.6,7.7c-2.4,3.6-4.2,6.7-5.1,8.2s-.9,1.8-2.3,4.2c-2.3,4-2.7,4.5-3.9,6.6s-.9,1.9-2.6,5.7l-3.5,7.4c-2.4,5.3-4.1,9.5-5.1,12.2s-1.7,4.1-2.9,7.4l-2.7,7.2c-.9,2.9-.8,2.8-1.7,5.5s-1.7,4.4-3.9,10.5c-1.7,4.5-1.4,3.9-2.3,6.2-1.7,4.5-2.1,5-4,9.8s-2.5,6.4-3.4,9.2-.9,3.4-1.9,6.3c-.4,1.4-1,3-1.8,5.1s-1.1,3-1.4,3.9c-.9,3-.7,3.2-1.7,6.1s-.7,2.1-1.3,4.1a22.5,22.5,0,0,0-1.1,3.7c-.1.6-.3,1.4-1.1,5.8-.4,2-.6,3.3-1.1,6,0,.2-.3,1.4-.5,2.9a35.1,35.1,0,0,0-.5,3.7c-.1,1.1,0,1.4-.1,3s-.1,1.4-.1,1.8l-.9,8.9c-.5,5.5-.3,4.6-.6,7.2s-.8,4.9-1.3,7.6-.8,3.3-1.3,6.1-.8,4.5-.9,5.9-.4,5.8.8,8.9l.9,2c1.2,2.9,1.3,3.2,1.7,4a20.9,20.9,0,0,0,1.9,3.3,44.4,44.4,0,0,0,4.1,5.4l2.4,2.6,2.6,3c3.4,3.7,9.2,8.7,9.2,8.7,5.1,4.3,8.2,7,12.8,10l14.4,8a53.7,53.7,0,0,1,8.4,5.4c1.7,1.5,3.2,2.9,5.1,4.8a42.9,42.9,0,0,1,4.3,4.6,59.8,59.8,0,0,1,3.7,5.3c1.6,2.6,2.4,3.3,7.7,9.4s2.6,3.2,7.9,9.3,9.6,11.3,11.1,12.7a106.8,106.8,0,0,0,16,13.9,34,34,0,0,1,5.4,4.3c1.7,1.7,2,2.3,5.1,5.7s2.2,2.2,3.5,3.8,3,3.7,4.1,5.1c2.9,3.9,5.3,6.9,7.2,9.1a112.3,112.3,0,0,0,7.5,8.6,78.1,78.1,0,0,0,9.1,8.2,82.1,82.1,0,0,0,12.4,8.2l5.2,2.8c2.8,1.4,6.8,3.3,11.6,5.4a100.5,100.5,0,0,0,13,5.1l7.8,2.2c4.9,1.5,6,1.9,9.9,2.9l7.5,2a83.7,83.7,0,0,0,10.9,1.3,21.8,21.8,0,0,0,6.8,0l2.5-.6c2-.4,3.4-.5,4.2-.6,8.4-1,9.7-1.1,12.9-1.6s2.7-.6,4.9-.9,4-.4,6.6-.9l3.7-.8c11.3-2.9,16.9-4.4,20.4-5.1a39.5,39.5,0,0,0,7-1.8,38.5,38.5,0,0,0,4-1.7,75.3,75.3,0,0,0,7.5-4.4c6.8-4.1,7.6-4.3,9.7-6.2s1.5-1.7,3.2-3.2,3.5-2.6,5.1-4.6a18.2,18.2,0,0,0,1.4-1.9c2.8-4.2,2.4-3.4,5.5-8,4.1-6.3,3.7-6.3,6.8-10.6,1.3-1.8,1.9-2.6,3.2-4.7s3.3-5.2,3.9-6.4c2.8-5,2.8-6,6.1-12.3,1.5-3,1.4-2.5,2.8-5.1,2.2-4.3,3.7-7.9,4.7-10.4s1.6-4,2.2-5.9,1.4-3.7,2.6-7.8,2.7-9.2,3.5-12.2a70.4,70.4,0,0,0,2-8.7c.1-.7.3-2,.6-4.7.7-6.3,1-9.4,1.1-10.7s.3-3.4.7-6.4a13.3,13.3,0,0,1,.3-2.1c.3-1.5.6-2.2,1.1-4s.5-2.1.7-2.8a28.6,28.6,0,0,0,.3-5.3c0-.9.2-2.6.6-6a49,49,0,0,0,.6-5.1c.3-2.6.1-2.8.3-6s.3-3.8.5-5.7c.4-3.6.6-3.9.8-6.5s0-3,.3-5.2.3-1.4.6-3.7l.4-3.4a26.1,26.1,0,0,1,.4-3.1,18.3,18.3,0,0,1,.2-2.1,24.4,24.4,0,0,0-.2-4.4" transform="translate(-3.7 -16.7)" fill="none" stroke="#000" stroke-linecap="round" stroke-linejoin="round" stroke-width="0.71"/><path d="M841.9,539.8c0-1.1-.1-2.6-.2-4.3" transform="translate(-3.7 -16.7)" fill="none" stroke="#000" stroke-linecap="round" stroke-linejoin="round" stroke-width="0.71"/><path d="M841,530c-.1-1.1-.3-2.4-.6-4.1l-1.2-6.8c-.4-1.8-1-4.4-2-7.7s-1.6-4.7-2.7-8.7-.8-3.2-1.8-7.1-1.6-6-2.6-9.6-1.1-5.1-3.1-14.4c-.8-3.6-1.5-6.7-2.9-12.7-1.9-7.8-2.8-11.7-3.1-12.9-1.4-5.1-1.4-3.8-7.3-20.3v-.2" transform="translate(-3.7 -16.7)" fill="none" stroke="#000" stroke-linecap="round" stroke-linejoin="round" stroke-width="0.71" stroke-dasharray="8.32 5.55"/><path d="M812.7,422.9a13.8,13.8,0,0,0-1-2.2l-.9-1.6" transform="translate(-3.7 -16.7)" fill="none" stroke="#000" stroke-linecap="round" stroke-linejoin="round" stroke-width="0.71"/><path d="M809.1,496.5c-.2-2.2-.2-4-.4-7-.1-.6-.4-3.4-1.2-9s-.8-6.7-1.2-9.8c-.9-5.9-.8-5-1-6.5s-.2-2.4-.3-12.4a50.3,50.3,0,0,1,0-5.8c.2-2.9.5-6.2.5-6.2a12.8,12.8,0,0,0,.1-3.9,17.6,17.6,0,0,0-.7-2.9c-.6-1.9-.9-1.8-1.4-3.2s-.1-2.1-.7-4a14.4,14.4,0,0,0-.9-2.4c-2.2-5.3-1.8-5.1-2.7-6.7a19.7,19.7,0,0,0-3.5-4.3,19.2,19.2,0,0,0-1.8-1.4c-2.4-1.8-2.8-2.4-4.7-3.9l-2.9-2.1a39.7,39.7,0,0,1-4.3-3.6,80.7,80.7,0,0,0-9.2-6.5l-5.7-3.5a69.8,69.8,0,0,0-6.5-3.1c-2.4-1.2-5.7-2.8-9.7-4.5s-9.8-4.1-13.7-5.5-8.4-3.2-13.2-4.6l-8.2-2.2c-6.2-1.5-7.3-1.4-12.9-2.8-2.1-.6-5-1.3-8.8-2.6s-2.5-1-8.9-3.5-7.2-2.6-8.4-3.2c-3.1-1.6-4.8-2.8-8.7-4.2l-3.1-1.1c-4.4-1.5-6-2.4-9-3.5a82.4,82.4,0,0,0-10.8-3.2,60.5,60.5,0,0,0-8.3-1.6,23.2,23.2,0,0,0-6.3-.2,18.6,18.6,0,0,0-4.1.8,61.9,61.9,0,0,0-6.4,2.1l-2.4.9c-2,.8-2.6,1.3-4.2,2s-1.3.3-3.6,1-2.3.9-6.4,2.3l-3.2,1.1-3.9.5-3.7.4H582a44.1,44.1,0,0,0-10.5,1.4l-10.7,3.7-5.3,1.7A28.1,28.1,0,0,1,551,365l-4.3.6-3,.7a36.3,36.3,0,0,0-8.9,3.1l-5.2,3.3-5.9,4c-2.3,1.8-3.1,2.5-3.8,3.5l-1.7,2.9c-1.1,1.9-1.4,2.4-1.9,3.4s-2,3.3-2.4,4-2.6,4.5-6.2,11.6-4.6,8.8-5.8,11.3c-.3.7-4.2,8.7-7,16.4a42.2,42.2,0,0,0-1.9,7c-.1.5-.2,1.9-.6,4.1s-.2,1.9-.3,2.6c-.4,2.4-.8,3.8-1.1,5.1a52.8,52.8,0,0,0-.9,6.6,71.6,71.6,0,0,0-.2,15.3c.1.7.6,4,1.7,10.6a98.3,98.3,0,0,1,1.4,9.8,51.5,51.5,0,0,1-.1,7.8c-.3,2.2-.5,2.4-.9,5.8s-.3,3.5-.7,5.3a35.1,35.1,0,0,1-1.5,5c-.7,2-1.3,3.5-2,5.3-3.2,7.8-3.1,7.2-3.3,8-1.6,4.2-2.4,6.4-2.3,9.3a17.7,17.7,0,0,0,.8,4.9c.8,3.1,1.7,4,3.3,7.5a53.7,53.7,0,0,1,2.7,8,72.6,72.6,0,0,1,1.9,8l.9,5.8c.6,5,.3,5.3.9,8.3a36.7,36.7,0,0,0,2,7.1,34.3,34.3,0,0,0,2.3,5.8c1.2,2,1.8,2,5.6,6.4l3.3,3.9c2.2,2.5,3.8,4,4.6,4.9s2.9,3.2,8.2,10.6l7.5,10.4c4,5.3,7.3,9.3,8.8,11.2,3.6,4.4,4,4.6,12.2,13.9s12.6,14.6,18.2,20l4.1,3.7c3.7,3.4,6.3,5.4,7.5,6.5,3.7,3,3.4,3.7,14.7,16.9,2.2,2.5,2,2.2,7.1,8.2l7.1,8.2,5.2,6c2.2,2.4,3.3,3.7,4.2,4.5a44.7,44.7,0,0,0,7.3,5.1l4.9,2.3,13.3,5.9,5.8,2.7a124.9,124.9,0,0,0,18.8,7,70.4,70.4,0,0,0,8,1.8l5.9.8a62.1,62.1,0,0,0,6.9.2c10.2-.2,9.4.4,14.8,0a87.2,87.2,0,0,0,14.8-2.3,48.6,48.6,0,0,0,6-1.8,39.6,39.6,0,0,0,5-2.1c10.7-4.9,10.9-4.8,12.7-6.1s1.9-2,5.7-4.9,3.3-2.3,6.3-4.5c4.5-3.1,4.2-3.4,8.5-6.5a102.3,102.3,0,0,1,8.7-5.7c3.2-1.8,3.5-1.6,8.4-4.3a46.3,46.3,0,0,0,6.9-4.4,37.7,37.7,0,0,0,4.9-4.9,97.6,97.6,0,0,0,6.1-7.9c1.7-2.4,1.8-2.7,6.6-10l5.2-7.9c.7-1.1,2.6-4.3,4.8-8.6a150.9,150.9,0,0,0,6.5-14.5c.8-1.9,2.7-7.6,6.5-18.8a72.6,72.6,0,0,0,3-10.2c.2-1.1.4-2.4.9-4.4a28.3,28.3,0,0,0,.9-3.7c.3-1.4.2-1.4.5-3.3s.5-2.4.7-4.2a22.1,22.1,0,0,0,.4-3.6c.4-3.6.5-5.4.8-7.1s.4-1.9.8-3.9a62.4,62.4,0,0,0,.5-9.6,39.4,39.4,0,0,0-.2-5.1,19.9,19.9,0,0,0-1.1-5,10.9,10.9,0,0,0-.9-2.1" transform="translate(-3.7 -16.7)" fill="none" stroke="#000" stroke-linecap="round" stroke-linejoin="round" stroke-width="0.71"/><path d="M829.6,572.7c-.4-1.6-.4-2.5-.7-4.2" transform="translate(-3.7 -16.7)" fill="none" stroke="#000" stroke-linecap="round" stroke-linejoin="round" stroke-width="0.71"/><path d="M827.3,562.6c-.2-.8-.6-1.8-1-3.1l-2.2-6.7c-1.9-5.3-3.2-9.4-4.6-14s-1.2-5.8-3.1-12.2-1.8-5.3-3.2-10.5-1.7-6.9-2.3-9.6" transform="translate(-3.7 -16.7)" fill="none" stroke="#000" stroke-linecap="round" stroke-linejoin="round" stroke-width="0.71" stroke-dasharray="9.24 6.16"/><path d="M810.2,503.5c-.1-.6-.3-1.4-.5-2.3a15.2,15.2,0,0,0-.3-1.9" transform="translate(-3.7 -16.7)" fill="none" stroke="#000" stroke-linecap="round" stroke-linejoin="round" stroke-width="0.71"/><path d="M806.4,537.4c.4,1.5.8,2.9,1.2,4.1" transform="translate(-3.7 -16.7)" fill="none" stroke="#000" stroke-linecap="round" stroke-linejoin="round" stroke-width="0.71"/><path d="M809.5,547.4c2.5,7.4,4.1,10.3,8.4,22l1.8,4.6c2.4,6.4,3.6,9.6,4.6,11.3l1.3,2.2" transform="translate(-3.7 -16.7)" fill="none" stroke="#000" stroke-linecap="round" stroke-linejoin="round" stroke-width="0.71" stroke-dasharray="9.27 6.18"/><path d="M827,590.3a26.9,26.9,0,0,1,1.3,4" transform="translate(-3.7 -16.7)" fill="none" stroke="#000" stroke-linecap="round" stroke-linejoin="round" stroke-width="0.71"/><path d="M828.3,597.2c0,.2-.1.6-.1,1a8.7,8.7,0,0,1-.3,1.3,34.3,34.3,0,0,1-1,3.3c-.7,2.8-.3,3.3-1,6.7a53,53,0,0,1-1.3,5.4c-1.9,7.1-2.1,7.6-2.3,9.4s-.3,2.6-.7,4.4a45.5,45.5,0,0,1-1.9,5.5c-1,2.7-.5,1.5-2.5,7.2s-2.2,6.2-2.8,7.7a63.4,63.4,0,0,1-3.7,7.7,28.7,28.7,0,0,1-4,6.3,27.1,27.1,0,0,1-2.5,2.4c-3.8,3.3-5.3,3.5-8.9,6.3s-1.8,1.9-5.1,4.6-3.7,2.5-6.3,4.7a62.8,62.8,0,0,0-5.8,5.9c-.6.7-2.4,2.8-5,6.3-4.2,5.8-4.7,7.4-8.3,12.3s-2.3,2.5-5.2,6.3c-4.8,6.4-5.1,8.3-9.3,13.1a52,52,0,0,1-5.8,5.9,53.2,53.2,0,0,1-9.4,6.3c-2.7,1.5-3.6,1.7-7.1,3.7s-3.1,1.9-4.7,2.8a44.4,44.4,0,0,1-8.5,3.3,90,90,0,0,1-15.9,3.7,102.6,102.6,0,0,1-10.5.7,80.4,80.4,0,0,1-9.9-.1,70.8,70.8,0,0,1-10.8-2.1,116.2,116.2,0,0,1-12-4.5c-5.1-2.1-9.4-3.8-14.9-6.6l-6-3.2a84.4,84.4,0,0,1-10.5-6.4,54.4,54.4,0,0,1-9.3-7.9c-1.5-1.5-1.4-1.7-5.7-6.7l-5.3-6.2c-5.5-6.5-6.1-7.7-10-12.2-.8-.9-1.9-2.2-7.6-8.1-9.3-9.8-11.2-11.5-19.2-19.8l-9.2-9.7-4.8-5.1c-4.7-4.9-5.5-5.4-7.7-7.9s-3.3-3.9-7.1-8.7-4.8-5.6-9.2-11.1c-3.2-4-12.2-15.4-15.3-20.2a28.1,28.1,0,0,0-3.1-3.9c-1.1-1.2-1.4-1.3-2.4-2.4a23.8,23.8,0,0,1-2.7-4c-2.6-4.1-2.2-3.4-3-4.8a54.6,54.6,0,0,1-2.8-5.5,52.7,52.7,0,0,1-1.9-6.1c-1.3-4.3-1.9-6.5-2.3-8.2-1.8-6.9-1.4-6.5-2.8-11.7-.8-2.8-1.4-4.6-2.6-9.2a28.9,28.9,0,0,1-1.1-5.5,29.6,29.6,0,0,1,.2-7.3,67.5,67.5,0,0,1,2.8-12.1c1-3.2.9-2.3,1.9-5.5a118.7,118.7,0,0,0,3.2-13.7c.2-1.1.3-1.5.6-3.5a37.6,37.6,0,0,0,.6-3.8,14.7,14.7,0,0,0,0-3v-2.9c-.2-4.9,0-5.6-.2-8.4-.1-.8-.1-.5-.5-3.6s-.8-5.5-1-7.5a88.9,88.9,0,0,1-.3-14.5c.1-2.1.2-3.6.4-5.4s.2-.9.9-4.5.7-4.1,1.1-6c.1-.2.4-1.5.8-2.8a61.7,61.7,0,0,1,3-8.2c1.6-3.6,2.8-6.1,4.3-9.4s2.3-4.9,3.1-6.5l2.7-4.7,5.8-9.8c3.6-5.4,3.7-4.2,11.2-13.8a53.5,53.5,0,0,1,6-6.9,32.9,32.9,0,0,1,4.3-3.7c2.6-1.9,4.8-2.8,8.3-4.4a9.3,9.3,0,0,1,2.4-.9l2.6-.6,2.5-.3a30.8,30.8,0,0,0,5-1.3c6-1.9,5.4-1.5,7.2-2.2l4.8-1.9a6.1,6.1,0,0,1,2.1-.8h3.9a65.4,65.4,0,0,0,7-.4h3.7l7.8-.3,6.7-.3c1.9-.2,1.9-.4,7-1.3l6-1,5.7-.7,3.4-.3c1.8-.3,2.3-.7,3.7-1a15.3,15.3,0,0,1,4.4-.2l8.1.7c3.6.5,6.3.9,10,1.7s9.2,2.2,18.6,4.8l6.3,1.8a104.3,104.3,0,0,1,16.4,7.1l9.1,5.2c4.2,2.5,4.3,2.8,7.6,4.7,4.9,2.7,5.2,2.6,9.8,5.3s3.8,2.4,6.4,3.8,5.5,2.5,6.6,3c3.5,1.4,12.8,5.2,20.6,9,5.6,2.7,9.8,5.1,14.3,7.7.2.1,5,2.8,7.1,4.3l2.1,1.5a7.1,7.1,0,0,0,1.5.9c1,.5,1.3.4,1.9.7a7.3,7.3,0,0,1,1.8,1.9,64.3,64.3,0,0,1,3.6,7.2c1.3,3.1,1.9,4.7,2.4,6.2,1.2,3.6,1.8,6.4,2.1,7.6s.6,3.6,1.2,8,.6,4,.9,5.6a38.3,38.3,0,0,1,.8,4.2,41.9,41.9,0,0,1,.2,4.2,44.4,44.4,0,0,0,.4,4.7,64.4,64.4,0,0,0,1.5,8c1.2,5.3.9,4.3,1.3,5.9.8,3.4,1.5,6,2.5,10s1.1,4,1.6,6,.7,3.3,1.2,5.7.7,5,1.6,11.1c.4,2.1.4,2.6.6,3.7h0c.2,1,.4,1.6.4,1.8a14.4,14.4,0,0,1,.4,2.9c.1,1.9.1,2.8.2,3.5a43.9,43.9,0,0,0,.6,6" transform="translate(-3.7 -16.7)" fill="none" stroke="#000" stroke-linecap="round" stroke-linejoin="round" stroke-width="0.71"/><path d="M508.2,502.6a32.5,32.5,0,0,1,1.1-3.7,14.8,14.8,0,0,1,.9-2.3,26.8,26.8,0,0,1,1.7-2.3,21.8,21.8,0,0,0,1.2-2.2c.8-1.5,1.2-2,2.4-3.9,0,0,1.1-1.6,2.7-4.4a108.3,108.3,0,0,0,5.3-11.8c2.3-5.3,2.6-6.5,2.9-7.3a37.8,37.8,0,0,0,1.3-7.8c1.1-11,3.6-21.9,6.1-32.5l.9-3.5c.3-1,1.2-4.3,3.1-9.2s2.3-5.8,3.7-8a32.6,32.6,0,0,1,3.3-4.5c1.4-1.5,2.4-2.2,7-5.7l4.1-3.2c6.4-4.7,12.8-7.5,19-10.2a63.4,63.4,0,0,1,8.3-3.1,83.9,83.9,0,0,1,8.9-2l8.7-2a82.6,82.6,0,0,1,11.5-.5c3.6,0,7.3.2,11.8.6,2.8.2,19.4,1.6,30.3,4.6l8.2,2.1,5.9,1.2c12.1,2.4,27.5,8.8,29.4,9.6s5.2,2.2,7.7,3.5c5.3,2.7,7.3,4.4,13.8,8,4.1,2.3,3.2,1.6,7.4,4,7.2,4,8.7,5.5,16.5,10l7.2,3.9c6.2,3.2,9.3,4.8,11.1,5.5a14.5,14.5,0,0,1,4.1,2.1,19.2,19.2,0,0,1,3.9,4.9,62.9,62.9,0,0,1,2.9,5.9c.8,1.9,1.5,4,2.8,8.2s1.4,4.9,1.6,5.7a40.3,40.3,0,0,1,.6,5.8c.1,2.3.2,1.8,2.3,13.9,1.1,6.2,1.6,9.2,1.7,9.8a24.2,24.2,0,0,0,.4,2.6c.3,1.6.5,2.1.7,3.2a29.4,29.4,0,0,1,.4,3.7c0,1.2.2,3.3.6,7.6s.4,3.9.8,7.3.5,6.6.6,9.3c.6,9.8.8,14.7,1.5,19.3.3,1.9,1.3,6.7,3.4,16.1l2.2,9.7c2.2,8.6,3,9.8,5,18.2.5,2.2.8,3.8,1.6,6.4s.9,3,2.6,7.9c1.1,3.3,1.6,4.9,1.8,5.4,2.4,7.7,2,8.5,3.8,13.3a25.4,25.4,0,0,1,1.4,4.4,40.2,40.2,0,0,1,.8,4.1c.2,2,0,2.3.2,4.3s.5,2.5.9,5.5a45.7,45.7,0,0,1,.4,5.8c.1,2.8.2,4.2-.2,5.7a15.8,15.8,0,0,1-1.1,3.7,31.1,31.1,0,0,1-1.2,3,17,17,0,0,1-3.4,4.6c-4.9,5.1-7.5,7.5-7.5,7.5s-4.6,4.2-8.9,7.9l-4.4,3.5c-3,2.2-4.1,2.6-6.1,4.4a24.2,24.2,0,0,1-2.5,2.2l-1.9,1.5a33.9,33.9,0,0,0-3.3,3.1c-2.5,2.6-2.4,2.2-5.2,5l-4.7,5.1c-2.2,2.5-2,2.5-4.6,5.5s-2.7,2.9-4.2,4.8l-3.1,4.2c-2.5,3.5-2.4,3.6-3.7,5.4a55.2,55.2,0,0,1-6.4,7.4c-2,2-4.5,4.1-4.5,4.1s-2.2,1.9-3.4,3.2-1.6,2.2-2.2,3a27.8,27.8,0,0,1-5.6,5.3,32.7,32.7,0,0,1-4.1,2.9c-3.1,1.9-4.6,2.2-11.1,5l-1.9.6a9.8,9.8,0,0,1-2.9.5,28.2,28.2,0,0,1-4.3.2H688.1l-3.3-.6-5.6-1.1c-3.8-.9-5.8-1.2-7.7-1.5s-3.2-.7-14.5-4.3-13.1-4.4-14.8-5.4l-6.6-3.8-4.6-2.7a38.6,38.6,0,0,1-9.8-9.4c-.3-.3-.1-.1-4.5-6.4s-5.1-7.3-5.8-8.1-2.8-3.4-6.2-7.2-3.7-4.2-5.3-6.2-2-3-3.6-4.8-3.3-3.1-5.7-5.6a60.7,60.7,0,0,1-4.6-5.6c-1.2-1.6-2.2-2.7-10.7-11.9l-12.2-13L553,637.1c-2-2.2-4.5-5-7.6-8.8l-7.2-8.9-5.5-7a107,107,0,0,1-11.1-17.5c-6.6-13.8-6.9-26.7-10.8-35.5-.1-.4-1-2.4-2.1-5.2a61.6,61.6,0,0,1-2.2-7.3,51.8,51.8,0,0,1-1.9-10.2,56.2,56.2,0,0,1-.2-6A93.8,93.8,0,0,1,505,519c.4-3.3.8-5.8,1.4-8.9Z" transform="translate(-3.7 -16.7)" fill="none" stroke="#000" stroke-linecap="round" stroke-linejoin="round" stroke-width="0.71"/><path d="M513.3,431c3.7-10.9,9-18.4,14.9-26.6a162.5,162.5,0,0,1,12-14.7c.2-.1,2.8-3,6.6-6.5a44.9,44.9,0,0,1,5.5-4.3,21.1,21.1,0,0,1,4.4-2.4,46.5,46.5,0,0,1,6.3-1.9c2.8-.7,2.5-.8,4.8-1.4a92,92,0,0,1,10-2.2l6.2-1.2,8.4-1.6,10.2-1.4,4.7-.5,4.4-.4c2-.1,3.1,0,6.6.1l6.4.2,9.4-.2c1,0,3.1,0,5.4.2a104.5,104.5,0,0,1,13,2c3,.6,5.9,1.2,9.7,2.2a71.1,71.1,0,0,1,10.3,3c3.5,1.3,4.2,1.9,10,4.2l4.8,1.9c3.8,1.5,6.1,2.6,9.4,4.2,7,3.3,6.5,2.8,9.8,4.5a132.3,132.3,0,0,1,17.9,10.7,75,75,0,0,0,7.3,5.1c2.6,1.5,4.1,2.1,7.8,4.4l4.1,2.6,6.7,4.2c2.2,1.3,2.1,1.1,10.3,5.2,3.4,1.8,6.6,4.2,10.1,5.7a8.4,8.4,0,0,1,3.4,2.2,10.7,10.7,0,0,1,1.7,3.1,70.1,70.1,0,0,1,2.4,6.9,70.8,70.8,0,0,1,2.1,9.8c.4,2,.6,3.7,1,7.1.9,7.8.8,8.4,1.4,12.5s1,5.2,1.5,7.5,1.4,6.2,1.6,6.8c1.6,6.8,2.4,8.2,2.9,12.3a40.6,40.6,0,0,1,.3,4.2c.5,7.5.8,13.1.8,13.1.2,4.5.5,10.5.7,17.7a59.5,59.5,0,0,0,1.4,13.2c.2,1.1.3,1.6,2.8,10.2s2.5,8.9,2.9,10,1.9,5.9,4.1,12.3,2.5,7.2,3.5,10.4,2,6.1,2.7,9.2a64.3,64.3,0,0,1,1.9,9c0,.2.3,2.2.7,4.9a12.5,12.5,0,0,0,.4,2.5c.4,2.3.7,2.9,1,4.6a20.4,20.4,0,0,1,.4,3.9s.3,3.8.7,8.6.8,4.8.9,7.8a25,25,0,0,1-.3,7.7,21.5,21.5,0,0,1-2.8,7.5,19.3,19.3,0,0,1-2.9,3.9,51.2,51.2,0,0,1-4.7,4.6c-1.9,1.7-1.5,1.5-2.5,2.4l-7,6.1-3.9,3.5c-2.7,2.4-4.8,4-7.2,5.9-4.6,3.6-4.9,3.7-7.2,5.7a50.3,50.3,0,0,0-4.8,4.7c-1.3,1.4-2.4,2.9-4.7,5.9s-3.3,4.3-4.9,6.7-2.1,3.4-4.6,7.1a66.6,66.6,0,0,1-6.1,8.3,80.3,80.3,0,0,1-5.8,5.7L742,724c-1.7,1.6-2.3,2.3-3.4,3.4a41.4,41.4,0,0,1-4.4,3.7c-3.2,2.5-3.6,2.6-6.9,5.1a48.3,48.3,0,0,1-4,3.2,36.6,36.6,0,0,1-6,3.4c-1.2.5-1.9.7-8.6,2.8l-4.2,1.3c-4.7,1.2-8.5,1.3-14.1,1.4a76.9,76.9,0,0,1-8.2-.1c-2.6-.2-4.7-.6-6.2-.8a65,65,0,0,1-7.6-1.6c-2.3-.7-2-.8-5.7-2s-3.6-1-6.5-2l-5.6-2.1-6.5-2.5c-2.2-1-3.9-1.9-5.5-2.8l-3.7-2.1a25,25,0,0,0-2.6-1.8c-1.6-1-2-.9-3.2-1.6a20,20,0,0,1-3-2.5l-3.8-3.3a59.9,59.9,0,0,1-4.4-4.4c-1.4-1.6-1.3-1.7-5.1-6.9l-3.1-4.3c-2-2.9-1.8-3.1-3.4-5.2s-1-1.3-4.1-5.1l-3-3.7c-1.6-2-3.6-4.3-6.1-7s-1.2-1-5.2-5l-4.6-4.5a65.6,65.6,0,0,1-5.2-4.9l-2.4-2.8-3.3-3.7L563,655.3l-9.6-10.5c-4-4.4-6.1-6.7-8.7-9.8l-6.5-8c-2-2.5-4.2-5.1-7-8.7l-6.4-8.3c-1.7-2.4-2.5-3.6-4.3-5.8l-3.7-4.4c-2.7-3.1-3.1-3.5-4.1-4.8s-1.6-2.4-2.8-3.8a4.8,4.8,0,0,1-.8-1.2c-.2-.2-.3-.5-.8-2.2l-.6-1.8c-.2-1-.1-1.1-.3-1.9a14.4,14.4,0,0,0-.9-2.1c-.4-.8-.7-1.6-1.1-2.5s-1.9-4.6-2.8-7.2c-1.4-4.2-1.7-6-2.9-9.1l-.7-1.8a18.3,18.3,0,0,1-1.3-4c-.2-1-.3-1.8-.4-2.4a12.6,12.6,0,0,1-.1-1.6c-.1-1.8-.4-3.2-.6-4.8s-.4-4.9-.4-5.7a53.2,53.2,0,0,1,.6-7.8c.7-5.1,1.3-6.6,3.2-15.9.6-2.7,1-5,1.9-9.5s1.3-7.3,1.7-9.7.7-4.9,1-7.5.1-3.4.3-7.7.2-5.8.3-7.8.3-3.2.5-6c.3-4.7,0-5.5.3-8.5a44.2,44.2,0,0,1,1.3-6.3C510.6,443.2,510.5,439.1,513.3,431Z" transform="translate(-3.7 -16.7)" fill="none" stroke="#000" stroke-linecap="round" stroke-linejoin="round" stroke-width="0.71"/><path d="M525,495l2-2a31.2,31.2,0,0,0,2.4-2.7A97.2,97.2,0,0,1,540.3,480c4.2-3.4,7-5,10.4-8.2,1.6-1.6,2.8-3,3.4-3.7a25.7,25.7,0,0,0,2.7-3.6,34.7,34.7,0,0,0,3.1-7.1,32.9,32.9,0,0,0,1.4-5.4c.3-1.5.3-2.1.6-4.8s.4-3.5.6-5.4,1-8.3,1.4-14.2a31.2,31.2,0,0,1,.8-6.9,29.3,29.3,0,0,1,2.3-5.5c2.8-5.3,6.3-9.3,10.3-13.8.4-.6,1.5-1.7,2.8-3.4l3.1-4.3c1.1-1.6,3.1-4.1,7.2-9.2a17.2,17.2,0,0,1,2.9-3.1,17.4,17.4,0,0,1,4.5-2.6,22.7,22.7,0,0,1,5.8-1.4,27.9,27.9,0,0,1,6.6.1l12.3.9c7.4.6,6.8.3,11.2.8s8.9,1.2,11.3,1.6c4,.7,7.1,1.4,13.3,2.8,3.3.7,6.2,1.3,9.9,2.3,8.5,2.1,12.8,3.1,17.3,4.7l15.7,6.7,8.4,3.7a124.1,124.1,0,0,1,13.9,7.8l6,3.9c4.2,2.4,8.1,4.2,9.6,4.9,4.1,1.9,5.2,2.1,7.5,3.7a32.4,32.4,0,0,0,3.5,2.2,39.3,39.3,0,0,0,4.3,2.2,39.6,39.6,0,0,1,5.6,2.9,21.6,21.6,0,0,1,3.7,3.7,44.5,44.5,0,0,1,3.6,5.3,37.7,37.7,0,0,1,3.3,7.3c1.5,4.2,1.2,5.5,3.1,15.6.1.3.5,2.3,1,4.9s.5,2.5,1,4.8c1,5.1,1,5.1,1.5,7.5s1,4.7,1.2,5.7c.8,4,.9,3.8,1.1,5s.2,1.8.7,6.9c.3,2.6.6,4.8.8,6.6s.3,2.4.4,3c.6,4.7.1,6,.3,11.8.2,3.3.3,3,.6,7.6a40.9,40.9,0,0,0,.3,4.7,43.4,43.4,0,0,0,.8,4.6c.6,3.3.8,5.3,1.1,7.4s1.4,7.3,3.3,15,1.4,5.2,3.2,12.3,2.1,8.7,3.4,13.1c.8,2.7.6,1.8,2.5,7.8,3.5,11.1,3.3,11.2,4.9,15.9a52.7,52.7,0,0,1,1.9,6.3c.3,1.1.6,2.8.7,3s.5,2.6.8,4c.5,3.1.2,3.3.9,8.9.4,3.8.5,4.4.5,4.4s.2,2.2.3,3.7.1,1.5.1,2.4a20.3,20.3,0,0,1-.4,3.1,14.3,14.3,0,0,1-1.4,3.9,19.9,19.9,0,0,1-1.4,2.9c-.7,1.3-1.5,2-5.2,5.8-1.3,1.2-1.9,1.9-2,2s-5.8,5.6-15.3,13.4c-2.4,1.9-3.3,2.6-5,4.1a57.6,57.6,0,0,1-4.6,4.3c-2,1.7-2.6,1.9-4.5,3.4a61.6,61.6,0,0,0-4.9,4.7c-6.5,6.7-6,6-6.5,6.6a182.1,182.1,0,0,0-13.9,17.6c-2.1,3-3.1,4.5-3.6,5.4a36.4,36.4,0,0,1-3.2,4.8,30.3,30.3,0,0,1-3,2.8l-4.9,4.8c-5.4,5.5-5.1,5.3-5.9,6s-1.3.7-6.1,4.1a18.2,18.2,0,0,1-3.1,1.9,19.4,19.4,0,0,1-4.2,1c-1.4.2-2.7.2-5.1.3H699a153.3,153.3,0,0,1-18.3-2.2,78.5,78.5,0,0,1-9.1-1.9c-2.5-.7-3.2-1.1-5.7-1.7s-3.2-.4-7.1-1.2-5.6-1.2-7.3-2.1a15.1,15.1,0,0,0-2.6-1.3,29.8,29.8,0,0,0-3.2-.8,19.9,19.9,0,0,1-4-1.9,79.4,79.4,0,0,1-7.6-4.7A22.9,22.9,0,0,1,631,720c-1.5-1.5-1.7-1.8-3.4-3.7l-4.3-4.3c-1.5-1.6-2.4-2.8-3.4-4-2.9-3.6-5.5-6.5-8.4-9.8-5-5.7-5-5.2-7.5-8.3-1.1-1.4-2.4-3.2-5.2-6.7l-2.6-3.1-8.1-10.4c-1.6-2.1-2.5-3.2-4-5s-1.5-2-3.3-4.1a45.3,45.3,0,0,0-3.8-4.1l-1.9-1.8c-2.5-2.2-3.1-3.1-6.3-6.3s-3.4-3.1-5.7-5.5l-4-4.6c-3.8-4.4-7.2-7.9-9-9.8l-2.9-3L543,621c-1.1-1.2-1.6-1.8-3.7-4.5-5.5-6.9-5.4-6.7-6.5-8.2a30.3,30.3,0,0,1-4-6.8,41.2,41.2,0,0,1-2.1-7.4c-.1-.8-.2-1.4-.6-3.6s-.6-3.5-.7-4c-.5-2.7-.5-5.8-.6-11.8v-6.1c.1-2.6.1-3.6.2-7.6a46.6,46.6,0,0,0,0-5.9,48.7,48.7,0,0,0-.9-5.7c-1-5.4-1.5-8-2.1-10.4s-.6-2.1-1.5-5.7a42.3,42.3,0,0,1-1.3-6.3,27.6,27.6,0,0,1-.4-5.2,60.6,60.6,0,0,1,2.2-17.5c.1-.5.8-2.2,2.1-5.7A11.1,11.1,0,0,1,525,495Z" transform="translate(-3.7 -16.7)" fill="none" stroke="#000" stroke-linecap="round" stroke-linejoin="round" stroke-width="0.71"/><path d="M842.7,545.9c.4-1.6.9-3.7,1.3-6.3s.5-3.5.7-5c.6-5.7.7-10.9.8-13.4.2-10.5-.2-9.6.1-14s.9-6,1.9-12.6a169.1,169.1,0,0,0,2-17.2l-12.4-.6c-14.9-.8-19-1.2-21.7-1.6s-6.9-.9-12.2-2a190,190,0,0,1-22.5-6.5l-8.6-2.7-6.2-1.8c-8-2.1-8.8-1.7-12.4-3.1s-3.5-1.9-8.6-4.6a96.3,96.3,0,0,0-12.3-5.3c-6.8-2.6-13.1-3.9-25.6-6.5a183.8,183.8,0,0,0-18.7-3.1l-7.2-.6c-4.2-.4-7.9-.8-23.7-2.9-10.8-1.5-12.8-1.8-18.2-2.4L629,432.6c-8.9-.9-20.9-2.2-35.9-3.6a81.9,81.9,0,0,0-10.5-.5c-4.7,0-7.1.4-13.4.7h-8.7c-3.2,25-6.5,45.3-8.8,59.4-2.8,16.4-4.8,26.3-8.7,50.4-2.2,13.5-2.2,14.4-5.3,33.8-2.4,15.4-4.9,30.7-9.9,61.4s-7.2,43.1-9,57.3c-.3,2.1-1.3,9.7-2.7,20.3L513,734.1c15.6,2.5,38.8,6.2,66.9,11,34.7,5.8,55.7,9.6,76.9,13.3,28.2,5,68.5,11.8,118.8,19.4.7-1.1,1.8-2.9,2.9-5a105.1,105.1,0,0,0,4.5-12.1c2.4-7.2,2.3-7.9,3.7-11s1.3-2.3,2.9-5.6,2.1-4.5,3.1-6.9c1.8-4,2.2-5.3,2.6-6.3s.4-1.7.9-3.8,1-5.3,1.5-9.1" transform="translate(-3.7 -16.7)" fill="none" stroke="#000" stroke-linecap="round" stroke-linejoin="round" stroke-width="0.71" stroke-dasharray="8.5 5.67"/><line x1="859.3" y1="1273.3" x2="935.2" y2="1273.3" fill="none" stroke="#000" stroke-linecap="round" stroke-linejoin="round" stroke-width="1.13"/><text transform="translate(963.9 1281.4)" font-size="22.68" font-family="SimSun"></text><line x1="859.3" y1="1315.2" x2="935.2" y2="1315.2" fill="none" stroke="#000" stroke-linecap="round" stroke-linejoin="round" stroke-width="0.71"/><text transform="translate(963.9 1323.4)" font-size="22.68" font-family="SimSun"></text><line x1="859.3" y1="1357.2" x2="860.7" y2="1357.2" fill="none" stroke="#000" stroke-linecap="round" stroke-linejoin="round" stroke-width="0.85"/><line x1="863.9" y1="1357.2" x2="875" y2="1357.2" fill="none" stroke-dasharray="9.53 3.18" stroke-linecap="round" stroke-linejoin="round" stroke-width="0.85" stroke="#000"/><line x1="876.6" y1="1357.2" x2="932.2" y2="1357.2" fill="none" stroke-dasharray="3.18 3.18 9.53 3.18" stroke-linecap="round" stroke-linejoin="round" stroke-width="0.85" stroke="#000"/><line x1="933.7" y1="1357.2" x2="935.2" y2="1357.2" fill="none" stroke="#000" stroke-linecap="round" stroke-linejoin="round" stroke-width="0.85"/><text transform="translate(963.9 1365.3)" font-size="22.68" font-family="SimSun"></text><rect x="795.8" y="541.3" width="28.7" height="16.65" transform="translate(1068.4 -410.4) rotate(71.4)" fill="#fff"/><text transform="translate(797.1 521.1) rotate(71.4)" font-size="14.17" font-family="SimSun">5.00</text><rect x="799.7" y="504.6" width="28.7" height="16.65" transform="translate(1103.8 -420.1) rotate(75.5)" fill="#fff"/><text transform="translate(801.9 483.8) rotate(75.5)" font-size="14.17" font-family="SimSun">4.00</text><rect x="851.3" y="591.8" width="28.7" height="16.65" transform="translate(1484.6 -266.2) rotate(91.5)" fill="#fff"/><text transform="translate(857.2 569.1) rotate(91.5)" font-size="14.17" font-family="SimSun">1.00</text><rect x="796.6" y="395.4" width="28.7" height="16.65" transform="translate(597.5 -494.3) rotate(50.1)" fill="#fff"/><text transform="matrix(0.64, 0.77, -0.77, 0.64, 794.26, 379.3)" font-size="14.17" font-family="SimSun">2.00</text><rect x="802.3" y="426.6" width="28.7" height="16.65" transform="matrix(0.33, 0.94, -0.94, 0.33, 952.48, -496.55)" fill="#fff"/><text transform="matrix(0.33, 0.94, -0.94, 0.33, 803.43, 406.46)" font-size="14.17" font-family="SimSun">3.00</text><rect x="627.4" y="411" width="36.6" height="16.65" transform="translate(41.4 -79.1) rotate(5.7)" fill="#fff"/><text transform="translate(623.8 405.9) rotate(5.7)" font-size="14.17" font-family="SimSun">10.00</text><rect x="633.4" y="392.4" width="28.7" height="16.65" transform="translate(26.2 -61.5) rotate(4.1)" fill="#fff"/><text transform="translate(629.6 388) rotate(4.1)" font-size="14.17" font-family="SimSun">9.00</text><rect x="554.1" y="403.2" width="28.7" height="14.74" transform="translate(1219.4 142.8) rotate(123.2)" fill="#fff"/><text transform="translate(568.2 379.1) rotate(123.2)" font-size="14.17" font-family="SimSun">8.00</text><rect x="516.2" y="434.1" width="28.7" height="16.65" transform="translate(1057.8 -16.3) rotate(100.4)" fill="#fff"/><text transform="translate(524.4 410.8) rotate(100.4)" font-size="14.17" font-family="SimSun">7.00</text><rect x="495" y="440.3" width="28.7" height="16.65" transform="translate(1043.7 18.2) rotate(101.1)" fill="#fff"/><text transform="translate(503.4 417) rotate(101.1)" font-size="14.17" font-family="SimSun">6.00</text></g><g id="compass"><line x1="1051.6" y1="188.2" x2="1157.5" y2="187.7" fill="#fff" stroke="#000" stroke-linecap="round" stroke-linejoin="round" stroke-width="0.85"/><line x1="1104.1" y1="99.9" x2="1105.2" y2="327.5" fill="#fff"/><line x1="1104.1" y1="111.2" x2="1105.2" y2="327.5" fill="none" stroke="#000" stroke-linecap="round" stroke-linejoin="round" stroke-width="0.85"/><polygon points="1100.5 113.7 1104.1 99.9 1107.9 113.7 1100.5 113.7"/><text transform="translate(1095.8 95) rotate(-0.3)" font-size="34.02" font-family="SimSun">N</text></g></svg>