<svg xmlns="http://www.w3.org/2000/svg" xmlns:xlink="http://www.w3.org/1999/xlink" viewBox="0 0 321.5 372.1"><defs><pattern id="_10_lpi_10_" data-name="10 lpi 10%" width="72" height="72" patternTransform="translate(-9.8 87.6) rotate(-45)" patternUnits="userSpaceOnUse" viewBox="0 0 72 72"><rect width="72" height="72" fill="none"/><line x1="71.8" y1="66.6" x2="144.3" y2="66.6" fill="none" stroke="#000" stroke-width="0.28"/><line x1="71.8" y1="52.2" x2="144.3" y2="52.2" fill="none" stroke="#000" stroke-width="0.28"/><line x1="71.8" y1="37.8" x2="144.3" y2="37.8" fill="none" stroke="#000" stroke-width="0.28"/><line x1="71.8" y1="23.4" x2="144.3" y2="23.4" fill="none" stroke="#000" stroke-width="0.28"/><line x1="71.8" y1="9" x2="144.3" y2="9" fill="none" stroke="#000" stroke-width="0.28"/><line x1="71.8" y1="59.4" x2="144.3" y2="59.4" fill="none" stroke="#000" stroke-width="0.28"/><line x1="71.8" y1="45" x2="144.3" y2="45" fill="none" stroke="#000" stroke-width="0.28"/><line x1="71.8" y1="30.6" x2="144.3" y2="30.6" fill="none" stroke="#000" stroke-width="0.28"/><line x1="71.8" y1="16.2" x2="144.3" y2="16.2" fill="none" stroke="#000" stroke-width="0.28"/><line x1="71.8" y1="1.8" x2="144.3" y2="1.8" fill="none" stroke="#000" stroke-width="0.28"/><line x1="71.8" y1="70.2" x2="144.3" y2="70.2" fill="none" stroke="#000" stroke-width="0.28"/><line x1="71.8" y1="55.8" x2="144.3" y2="55.8" fill="none" stroke="#000" stroke-width="0.28"/><line x1="71.8" y1="41.4" x2="144.3" y2="41.4" fill="none" stroke="#000" stroke-width="0.28"/><line x1="71.8" y1="27" x2="144.3" y2="27" fill="none" stroke="#000" stroke-width="0.28"/><line x1="71.8" y1="12.6" x2="144.3" y2="12.6" fill="none" stroke="#000" stroke-width="0.28"/><line x1="71.8" y1="63" x2="144.3" y2="63" fill="none" stroke="#000" stroke-width="0.28"/><line x1="71.8" y1="48.6" x2="144.3" y2="48.6" fill="none" stroke="#000" stroke-width="0.28"/><line x1="71.8" y1="34.2" x2="144.3" y2="34.2" fill="none" stroke="#000" stroke-width="0.28"/><line x1="71.8" y1="19.8" x2="144.3" y2="19.8" fill="none" stroke="#000" stroke-width="0.28"/><line x1="71.8" y1="5.4" x2="144.3" y2="5.4" fill="none" stroke="#000" stroke-width="0.28"/><line x1="-0.3" y1="66.6" x2="72.3" y2="66.6" fill="none" stroke="#000" stroke-width="0.28"/><line x1="-0.3" y1="52.2" x2="72.3" y2="52.2" fill="none" stroke="#000" stroke-width="0.28"/><line x1="-0.3" y1="37.8" x2="72.3" y2="37.8" fill="none" stroke="#000" stroke-width="0.28"/><line x1="-0.3" y1="23.4" x2="72.3" y2="23.4" fill="none" stroke="#000" stroke-width="0.28"/><line x1="-0.3" y1="9" x2="72.3" y2="9" fill="none" stroke="#000" stroke-width="0.28"/><line x1="-0.3" y1="59.4" x2="72.3" y2="59.4" fill="none" stroke="#000" stroke-width="0.28"/><line x1="-0.3" y1="45" x2="72.3" y2="45" fill="none" stroke="#000" stroke-width="0.28"/><line x1="-0.3" y1="30.6" x2="72.3" y2="30.6" fill="none" stroke="#000" stroke-width="0.28"/><line x1="-0.3" y1="16.2" x2="72.3" y2="16.2" fill="none" stroke="#000" stroke-width="0.28"/><line x1="-0.3" y1="1.8" x2="72.3" y2="1.8" fill="none" stroke="#000" stroke-width="0.28"/><line x1="-0.3" y1="70.2" x2="72.3" y2="70.2" fill="none" stroke="#000" stroke-width="0.28"/><line x1="-0.3" y1="55.8" x2="72.3" y2="55.8" fill="none" stroke="#000" stroke-width="0.28"/><line x1="-0.3" y1="41.4" x2="72.3" y2="41.4" fill="none" stroke="#000" stroke-width="0.28"/><line x1="-0.3" y1="27" x2="72.3" y2="27" fill="none" stroke="#000" stroke-width="0.28"/><line x1="-0.3" y1="12.6" x2="72.3" y2="12.6" fill="none" stroke="#000" stroke-width="0.28"/><line x1="-0.3" y1="63" x2="72.3" y2="63" fill="none" stroke="#000" stroke-width="0.28"/><line x1="-0.3" y1="48.6" x2="72.3" y2="48.6" fill="none" stroke="#000" stroke-width="0.28"/><line x1="-0.3" y1="34.2" x2="72.3" y2="34.2" fill="none" stroke="#000" stroke-width="0.28"/><line x1="-0.3" y1="19.8" x2="72.3" y2="19.8" fill="none" stroke="#000" stroke-width="0.28"/><line x1="-0.3" y1="5.4" x2="72.3" y2="5.4" fill="none" stroke="#000" stroke-width="0.28"/><line x1="-72.3" y1="66.6" x2="0.3" y2="66.6" fill="none" stroke="#000" stroke-width="0.28"/><line x1="-72.3" y1="52.2" x2="0.3" y2="52.2" fill="none" stroke="#000" stroke-width="0.28"/><line x1="-72.3" y1="37.8" x2="0.3" y2="37.8" fill="none" stroke="#000" stroke-width="0.28"/><line x1="-72.3" y1="23.4" x2="0.3" y2="23.4" fill="none" stroke="#000" stroke-width="0.28"/><line x1="-72.3" y1="9" x2="0.3" y2="9" fill="none" stroke="#000" stroke-width="0.28"/><line x1="-72.3" y1="59.4" x2="0.3" y2="59.4" fill="none" stroke="#000" stroke-width="0.28"/><line x1="-72.3" y1="45" x2="0.3" y2="45" fill="none" stroke="#000" stroke-width="0.28"/><line x1="-72.3" y1="30.6" x2="0.3" y2="30.6" fill="none" stroke="#000" stroke-width="0.28"/><line x1="-72.3" y1="16.2" x2="0.3" y2="16.2" fill="none" stroke="#000" stroke-width="0.28"/><line x1="-72.3" y1="1.8" x2="0.3" y2="1.8" fill="none" stroke="#000" stroke-width="0.28"/><line x1="-72.3" y1="70.2" x2="0.3" y2="70.2" fill="none" stroke="#000" stroke-width="0.28"/><line x1="-72.3" y1="55.8" x2="0.3" y2="55.8" fill="none" stroke="#000" stroke-width="0.28"/><line x1="-72.3" y1="41.4" x2="0.3" y2="41.4" fill="none" stroke="#000" stroke-width="0.28"/><line x1="-72.3" y1="27" x2="0.3" y2="27" fill="none" stroke="#000" stroke-width="0.28"/><line x1="-72.3" y1="12.6" x2="0.3" y2="12.6" fill="none" stroke="#000" stroke-width="0.28"/><line x1="-72.3" y1="63" x2="0.3" y2="63" fill="none" stroke="#000" stroke-width="0.28"/><line x1="-72.3" y1="48.6" x2="0.3" y2="48.6" fill="none" stroke="#000" stroke-width="0.28"/><line x1="-72.3" y1="34.2" x2="0.3" y2="34.2" fill="none" stroke="#000" stroke-width="0.28"/><line x1="-72.3" y1="19.8" x2="0.3" y2="19.8" fill="none" stroke="#000" stroke-width="0.28"/><line x1="-72.3" y1="5.4" x2="0.3" y2="5.4" fill="none" stroke="#000" stroke-width="0.28"/></pattern></defs><g id="scale-1:1"><path d="M241.5,376.7v9.9H99.8v-10" transform="translate(-12.6 -14.9)" fill="none" stroke="#000" stroke-miterlimit="10" stroke-width="0.57"/><line x1="115.6" y1="361.8" x2="115.6" y2="371.8" fill="none" stroke="#000" stroke-miterlimit="10" stroke-width="0.57"/><line x1="143.9" y1="361.8" x2="143.9" y2="371.8" fill="none" stroke="#000" stroke-miterlimit="10" stroke-width="0.57"/><line x1="172.3" y1="361.8" x2="172.3" y2="371.8" fill="none" stroke="#000" stroke-miterlimit="10" stroke-width="0.57"/><line x1="200.6" y1="361.8" x2="200.6" y2="371.8" fill="none" stroke="#000" stroke-miterlimit="10" stroke-width="0.57"/><text transform="translate(83.6 357.4)" font-size="14.17" font-family="SimSun">0</text><text transform="translate(225.6 357.4)" font-size="14.17" font-family="SimSun">5cm</text></g><g id="outline"><path d="M67.9,296.1l-.8.3-.5.2a4.1,4.1,0,0,0-1.9,1.1,5.5,5.5,0,0,0-1.5,2,10,10,0,0,0-1.1,3.6,19.2,19.2,0,0,0-.5,3.4,12.8,12.8,0,0,0,.1,1.9v1l-.5.4-.7.2-1.3.4-1.7.4-1.5.3-1.2.4-.5.3h-.6c-.1-.1-.1-.2-.1-1a1.5,1.5,0,0,1-.1-.6v-.6c.1-.5,0-.6.1-1.7s.1-2.3.1-3.7v-3.7c-.1-1-.2-1-.3-2.5a53.6,53.6,0,0,1-.3-5.5v-2.4a11.8,11.8,0,0,0-.1-1.6c-.1-.1-.1-.3-.2-.6v-.7c0-.1.1-.1.4-.1h1.7l1.9-.2,2.5-.2c2.3-.1,2.4,0,4.4-.2h4.6c.1.1.1.1.1.2v1.6c0,1.5-.1,2.1-.1,3.1s.1,2.1.1,2.6a8.7,8.7,0,0,1-.1,1.1C68.2,295.8,68,296,67.9,296.1Z" transform="translate(-12.6 -14.9)" stroke="#000" stroke-miterlimit="10" stroke-width="0.43" fill="url(#_10_lpi_10_)"/><path d="M168.6,289.3c0,1.3.1,1.6.2,4.2s.1,1.8.2,5.5.2,5.8.4,6.8a19.1,19.1,0,0,0,.6,3.3,18.4,18.4,0,0,0,.5,2.5,3.1,3.1,0,0,1,.3,1.8,1.9,1.9,0,0,1-.8,1.4c-.4.2-1,0-2-.5l-1.2-.6a10.1,10.1,0,0,1-2.4-1.8,8.1,8.1,0,0,1-1.6-2,14.7,14.7,0,0,1-1.5-3.4c-.5-1.3-.7-1.9-1-2.9a22.7,22.7,0,0,1-1.1-5.3c0-.1-.1-1.1-.3-3.1a4.2,4.2,0,0,0-.3-1.2c-.2-.4-.4-.5-.5-.9a3.9,3.9,0,0,1,.1-.9v-1.1c0-.6.1-1.5.2-2.8s.3-2.3.3-3.4a12.4,12.4,0,0,0,.1-1.5c0-1-.1-1.3-.1-2.2a13.8,13.8,0,0,1,.1-1.4,14,14,0,0,1,.2-2.2c.1-1.2.1-1,.1-1.3s.1-2,.3-3.7a9.9,9.9,0,0,0,.1-1.5,3.9,3.9,0,0,1,.1-.9c0-.5.1-.7.2-.8H168c1.5.1,2,.2,2.1.5a2.1,2.1,0,0,1-.1.6,5.1,5.1,0,0,0-.3,1.5,37.7,37.7,0,0,0-.3,4.5c0,.3-.1,1.3-.2,3.4s-.1,2.9-.3,4.6C168.7,288,168.6,288,168.6,289.3Z" transform="translate(-12.6 -14.9)" stroke="#000" stroke-miterlimit="10" stroke-width="0.43" fill="url(#_10_lpi_10_)"/><path d="M311.9,277.8c0,.2-.3.4-.8,1a18.2,18.2,0,0,0-1,1.9c-.2.7-.1.7-.5,2.2s-.3.8-.6,1.9a9,9,0,0,1-.5,1.6c-.3.8-.4,1-.7,1.1s-.3.2-1,.2h-1.3l-2,.2a23.8,23.8,0,0,1-3.5.3c-1.9.2-4.2.4-6.7.8l-3.6.6-6.1.9a80.4,80.4,0,0,1-10.1.1l-7-.3c-8.6-.4-5.6-.4-7.9-.5a41.4,41.4,0,0,1-5.7-.6l-1.2-.3-1-.2c-.5-.2-.8-.2-.9-.4s-.2-.5-.1-1.2v-5.7a1.2,1.2,0,0,1,.4-.8h3.5a50.8,50.8,0,0,0,5.1.3h10l6.7-.2c3.5-.2,3.2-.3,5-.3a18.8,18.8,0,0,0,3.3-.2c1.1-.1,1.4-.3,2.7-.5l3.2-.3,6.7-.8,3.6-.3,4-.5,3.4-.4h2.8C311.2,277.5,311.8,277.5,311.9,277.8Z" transform="translate(-12.6 -14.9)" stroke="#000" stroke-miterlimit="10" stroke-width="0.43" fill="url(#_10_lpi_10_)"/><path d="M234.9,163.4a7.9,7.9,0,0,1,2.3,1.6,7.1,7.1,0,0,1,1.5,1.8,5.8,5.8,0,0,1,1,2.5,46.5,46.5,0,0,1,.6,9.5c0,1,0,2.2-.1,4.5s-.2,4.1-.3,5.1c-.5,3.6-1.5,4.7-1.8,5a7.7,7.7,0,0,1-1.9,1.5c-1.4.7-2.5.9-5.6,1.2l-4.8.5-5.2.6-2,.2h-2.2c-1.2,0-1.4-.1-1.5-.3s-.2-.5-.2-1.4a14.4,14.4,0,0,0,0-2.1,19.9,19.9,0,0,0,.2-2.2c0-.6.1-1.3.1-1.9s.1-.9.3-1.1.5-.2,1.4-.2H218l2.2-.2,3.3-.5,3.7-.7,1.8-.3c.9-.2,1.3-.3,1.5-.6a7.7,7.7,0,0,0,.1-1v-1.1a7.5,7.5,0,0,0,.1-1.2c-.1-2.1,0-4.3-.1-6.8s-.2-2.2-.3-5.4v-4.2c0-1.3.1-1.1.1-1.7s-.2-1.5.1-1.7.3-.1,1,0h1.4A12,12,0,0,1,234.9,163.4Z" transform="translate(-12.6 -14.9)" stroke="#000" stroke-miterlimit="10" stroke-width="0.43" fill="url(#_10_lpi_10_)"/><path d="M229.7,114l-.7.2h-2.2l-5,.3a30.2,30.2,0,0,1-4.3-.2,16.9,16.9,0,0,1-3.3-.8c-1.4-.4-3-.6-13.6-.8-4.7-.1-9.8-.2-11.3-.1h-1.8c-1,0-1.2.1-1.3-.1s.1-.4.6-1.4l.6-1.2a2.8,2.8,0,0,0,.2-1.1c.2-1,.6-2.4,1.3-5.3a52.9,52.9,0,0,1,1.5-5.2h0c.9-2.7,1-3.1,1.5-3.3s.6-.2,1.3-.2h4.1a28.7,28.7,0,0,1,4.2.1h16.9l5.5-.2h1.9a4.8,4.8,0,0,1,2.1.2c.2.1,1.2.6,1.2,1.3h0c0,1.8.1,3.6.1,3.6v5c0,.4.1,3.9.3,5.3a5.5,5.5,0,0,1,.1.9c0,.3.1.7.1,1.3v.6C229.7,113.8,229.8,113.9,229.7,114Z" transform="translate(-12.6 -14.9)" stroke="#000" stroke-miterlimit="10" stroke-width="0.43" fill="url(#_10_lpi_10_)"/><path d="M250.4,76.9c.2,2.2.2,1.5.5,5.4s.2,4.6.3,5.9a6.1,6.1,0,0,1,.1,1.4c.1.7.2.9,0,1.1s-.8.2-1.6.2l-3.5-.4-2.6-.2h-5c-1,0-1-.1-1.3,0h-.9c-.3-.2-.2-.7-.2-1.3a17.6,17.6,0,0,1,0-2.3s.3-3.6.5-5.4,0-1.5.1-3.4.2-3.7.2-6.7a14.9,14.9,0,0,0,.1-1.9c0-.8.1-2.2.2-3.9s.4-3.9.7-5.3,1.4-6.6,4.1-7.9a13.7,13.7,0,0,1,2.6-.8h2.6l2.9.2,3,.5,2.4.5,1.3.4c1.1.3,1.3.4,1.5.6s.2.7.1,1.5-.1,2-.2,3a17.7,17.7,0,0,1-.1,2.4c-.2,1.8-.3,2-.5,2.2s-.6.1-2.3.1h-1.7c-1.4.1-1.8.4-2,.6a3.8,3.8,0,0,0-.7.8,2,2,0,0,0-.2.9,22.9,22.9,0,0,0-.2,2.5c0,1.5-.2,1.4-.2,3.3A40,40,0,0,0,250.4,76.9Z" transform="translate(-12.6 -14.9)" stroke="#000" stroke-miterlimit="10" stroke-width="0.43" fill="url(#_10_lpi_10_)"/><path d="M320.7,111.2a1.8,1.8,0,0,1-1.1.2h-2.7l-4.5.2-8.5.8-4.9.3h-3.4c-.3.1-.2.4-.4.7h-.7l-1.6.2H271.4l-3-.3h-.8l-1-.2c-.7-.2-.7-.6-1.1-.5l-.7.2-.3.2h-9.6c-1,0-1.5,0-1.8-.3a2.2,2.2,0,0,1-.5-1.2v-1.7a4.7,4.7,0,0,0-.2-1.6c0-.3,0-1-.1-2.3s-.1-2.3-.1-3.2a17.9,17.9,0,0,1,0-3.5,11.1,11.1,0,0,1,0-2.1c0-.9,0-1.2.3-1.4s.6-.2,1.6-.1h4.8c2.6.2,5.2.1,7.9.2l6.3.2c5.6.2,9.8.1,12.8.2h10.3a8.6,8.6,0,0,1,2.4.2l3.9.3c2.2.2,2.1,0,4.7.1s2.3.3,4.8.4h6.3c1.2,0,1.7-.1,2,.3s.4.9.4,1.9a17.6,17.6,0,0,1-.2,1.9v1.9a22.6,22.6,0,0,0,.1,2.5c.1,1.2,0,2.5.2,3.7S321,110.9,320.7,111.2Z" transform="translate(-12.6 -14.9)" stroke="#000" stroke-miterlimit="10" stroke-width="0.43" fill="url(#_10_lpi_10_)"/><path d="M278.2,15.4l.5,1.2c.4,1.1.7,1.6.8,2a6.4,6.4,0,0,1,0,2.8,11.6,11.6,0,0,0-.4,1.8,5.9,5.9,0,0,0,0,2.3,16,16,0,0,0,1.1,1.9,11.5,11.5,0,0,0,.7,1.1l.6.7.7.8c.2.3.2.4.3,1.2l.3,1.1a5.4,5.4,0,0,0,.9,2c.8,1.4,1,1.2,1.8,2.5a9.8,9.8,0,0,0,1.2,2.1l1.1,1.1a6.8,6.8,0,0,1,.8,2.2,16.4,16.4,0,0,0,.8,2.4c.6,1.2.8,1.2,1.4,2.6s.4,1.3.9,2.4a10.5,10.5,0,0,0,1.5,2.4,11.1,11.1,0,0,0,2.5,2,32.5,32.5,0,0,0,2.8,1.9,9.3,9.3,0,0,0,1.7.8,5.6,5.6,0,0,0,1.7.7h1.2l1.5.4,1.4.3a28.1,28.1,0,0,0,3,.1l2.3.3a18.7,18.7,0,0,0,3.4,0,14.7,14.7,0,0,1,2.1,0,4.2,4.2,0,0,1,1.7.2,7,7,0,0,1,2.1,1.1,4.4,4.4,0,0,0,1.5.8h1.2a9.5,9.5,0,0,0,1.7,0,16.9,16.9,0,0,1,2.3.1,13.7,13.7,0,0,0,3-.4" transform="translate(-12.6 -14.9)" fill="none" stroke="#000" stroke-miterlimit="10" stroke-width="0.57"/><path d="M286.4,279.8a73.1,73.1,0,0,0-2.5,7.5c-.3,1.1-.5,2.3-.7,3.3" transform="translate(-12.6 -14.9)" fill="none" stroke="#000" stroke-miterlimit="10" stroke-width="0.43"/><path d="M242.1,259.7c-.3-.8-1.2-1.1-2.2-1.4a14.3,14.3,0,0,0-2.8-.5h-5c-3,0-3.1-.2-4.1,0a10.1,10.1,0,0,1-1.8.4l-1.2.2c-.9.1-1.1.1-1.4.3a1.8,1.8,0,0,0-.9.7,1.2,1.2,0,0,0-.2.6l-.2.5c0,.2-.1.2-.2.4a3.5,3.5,0,0,0-.1.6,16.2,16.2,0,0,0-.1,1.8,5.8,5.8,0,0,0,.1,1.9c.1.4.1.5.3,1.2a2.9,2.9,0,0,0,.2.8c.1.2.3.5,1.2.8a7.2,7.2,0,0,0,2.7.3h5.7l1.1-.2c.7-.2.9-.4,1-.6v-.4c.1-.6.2-1-.1-1.2s-.3-.2-.7-.2h-1.5a18.3,18.3,0,0,1-3.6-.2h-2.2c-.4-.1-.6-.1-.8-.3s-.2-.3-.2-.8a4.5,4.5,0,0,1-.1-1.1c0-1-.2-1.1,0-1.5s.5-.5.8-.7a8.5,8.5,0,0,1,2.8-.3h5.7l.8.2h.6a1.9,1.9,0,0,1,1,.3c1.1.3,1.3.1,1.7.4a2,2,0,0,1,.6.9,7.5,7.5,0,0,1,.3,2.4V266a3.3,3.3,0,0,0,0,1c0,.4.1.4.2.7a4.7,4.7,0,0,1-.2,1.5,9.3,9.3,0,0,1-.3,1,3.7,3.7,0,0,1-.4,1,2.2,2.2,0,0,1-1.3.6,4,4,0,0,0-1.1,0h-.7a4.5,4.5,0,0,1-1.2,0,22.1,22.1,0,0,0-3.2.2H218.5c-.1,0-.3.1-.4-.1s-.2-.2-.2-.4a3.2,3.2,0,0,1-.2-.9c0-.6.1-.9.1-1.3v-1.4c0-.9-.1-1-.1-1.6s.1-.7.1-1.4-.1-1.3-.1-2.2.1-.6.2-1.9a29.3,29.3,0,0,0,0-3,3.4,3.4,0,0,1,.1-.9,2.9,2.9,0,0,1,.2-.9,4.8,4.8,0,0,1,0-1.2l.2-.8c.1-.7.2-.8.3-.8s.7-.2.9-.2a7.4,7.4,0,0,0,2.6-.2l3.6-.3h7.4c.5.1.6.2,1,.1H241l.8-.2h2.6l.5-.2a2.4,2.4,0,0,1,1.3-.2h1l6.5-.3h7.2l3.1-.2h3.2l2.6.2h7.6l3-.2h2.5l.8.2h2.1c.7-.1.6.1,1.6.1h1.7a3.4,3.4,0,0,1,1.4.1l.4.3c.4.3.2.8.3,1.3a19.5,19.5,0,0,1,.3,2.2,6.9,6.9,0,0,1,.2,1.6c.1.6,0,.9.1,1.5s.2.5.2.9a3.5,3.5,0,0,1,.1,1.3v2.4c0,.7-.1,1.2-.1,1.8s-.1,1.7-.3,3.1a6.7,6.7,0,0,1-.1,1c-.1.7-.1.8-.2.9s-.3.2-1.3.2a12,12,0,0,0-1.9,0h-.7a21.7,21.7,0,0,1-2.6-.1h-8.6l-1.2.2-1.9.3-2.1.2h-2.4c-.2,0-.2.1-.4.2H252.4c-.2.1-.3.2-.4.1s-.1-.1-.2-.4l-.2-.4a4.9,4.9,0,0,1-.4-1.3,10.9,10.9,0,0,1-.1-1.3,2.1,2.1,0,0,1-.1-.6,7.7,7.7,0,0,0-.2-1.5,7.5,7.5,0,0,0-.1-1.1v-4.1c0-.1.1-.1.2-.1h.2c.2.1.5,0,.9,0h1.6l1.8-.2h5.8c.2,0,.4-.1.6,0h22.7c.7-.2,1.1-.2,1.5-.6s.6-.6.4-1.2a1.4,1.4,0,0,0-.5-.7l-1-.5-.6-.3-.7-.2a3.4,3.4,0,0,0-1.3-.2h-6.8l-1.1.2h-2.5l-1.1.2H265a17,17,0,0,1-3.9,0c-.5,0-3.6-.2-5.9-.1h-5.7l-.6-.2c-.2.1-.2.2-.4.4s-.3.3-.5.5a2.5,2.5,0,0,0-.4.7,3,3,0,0,0-.3.9c0,.6-.1.8-.1,1.3a22.6,22.6,0,0,0,0,2.6,10.7,10.7,0,0,1,0,1.8,19.3,19.3,0,0,0,.1,2.6,5.2,5.2,0,0,1,.2,1.1c.1.6.1.9.2,1.5a3.5,3.5,0,0,0,.1.7c0,.3.1.4.1.7a4.1,4.1,0,0,0,.2.9,2.8,2.8,0,0,0,.4.8c.2.5.1.5.3.8a1.8,1.8,0,0,0,.7.9,1.9,1.9,0,0,0,1,.5l1.2.2h.7a24.3,24.3,0,0,1,2.8,0h3.5c.3,0,.5-.1.5-.2l1.9-.3h14.3a7.3,7.3,0,0,0,2.2-.1h6.8l2.8-.3h.9l1.5-.2h1.5l1.4-.3h1.1a3.7,3.7,0,0,0,1-.7l.4-.6c.1-.3.1-.6.2-.9v-1.2c0-.5.1-.5.1-1a7.6,7.6,0,0,0,0-1.6,8.8,8.8,0,0,1-.1-1.4l-.2-1.1c-.1-1.1.1-1.4,0-2.7a1.3,1.3,0,0,1-.1-.7,41.3,41.3,0,0,1-.3-4.4v-1.4a6.8,6.8,0,0,0-.1-2.5l-.3-1.2a6.6,6.6,0,0,0-.4-1.1,3.7,3.7,0,0,0-.7-1.3,2.8,2.8,0,0,0-1.8-.4H277.1l-2.1.2H263.4l-6.9.3h-5.9l-2.4.2H217.5a1.8,1.8,0,0,0-1.1.2,2.2,2.2,0,0,0-1.1,1.1,3.5,3.5,0,0,0-.4,2v3.9a5.8,5.8,0,0,1-.1,1.6,4.6,4.6,0,0,1-.2,1.4c0,.3-.1.9-.1,2.6s.1,2.1,0,4.5V269a11.6,11.6,0,0,0,.1,1.7,10.5,10.5,0,0,0,.1,1.2c.2.7.2.6.2.9v1.7l.2.3c.2.2.5.3,1.2.4l1.1.2h1.2a23.8,23.8,0,0,1,3.8,0h2.6l.9.2c.2.1.3,0,1.3,0h3.6l2-.2h3l1.4-.2h2.8l.6-.2a.8.8,0,0,0,.5-.5,4.3,4.3,0,0,0,.8-1.9c.2-.8.1-1,.4-1.5l.2-.6a2.2,2.2,0,0,0,0-.8,3.8,3.8,0,0,1,.1-1c0-.5.1-.9.1-1.7s0-1.7-.1-3.6a17.4,17.4,0,0,0-.1-1.8A7.5,7.5,0,0,0,242.1,259.7Z" transform="translate(-12.6 -14.9)"/><path d="M265.3,96.5c.1,5.5.2,11.1.2,16.6" transform="translate(-12.6 -14.9)" fill="none" stroke="#000" stroke-miterlimit="10" stroke-width="0.43"/><path d="M297,96.6c-.1,2.8-.2,5.8-.5,9s-.6,5.1-.9,7.4" transform="translate(-12.6 -14.9)" fill="none" stroke="#000" stroke-miterlimit="10" stroke-width="0.43"/><path d="M158.7,282.3h8.1l2.3.3" transform="translate(-12.6 -14.9)" fill="none" stroke="#000" stroke-miterlimit="10" stroke-width="0.57"/><path d="M158.7,294.4h10.2" transform="translate(-12.6 -14.9)" fill="none" stroke="#000" stroke-miterlimit="10" stroke-width="0.57"/><path d="M158.8,284.1l-4.6.3-6.9.5c-3.4.2-6.2.2-8.7.2H127l-7.5.2a23.9,23.9,0,0,1-2.7,0l-1.9-.2h-2.4l-3.4.2h-3.9l-4.9.3c-4.2.2-5.2.1-5.7.1l-2.9-.2H88l-7.1.2s-4.4.2-5.7.1H72.7c-.1.1-.1.1,0,.4v.5c.1.6.4,2.9.4,3s.1,1.8.2,3.8a3.4,3.4,0,0,1,.1,1c0,.5,0,.8.2.9h9.1l6-.2,10.5-.5,7.1-.3,5.9-.2,6.5-.2,18.8-.4,8.5-.2,12.1-.5" transform="translate(-12.6 -14.9)" stroke="#000" stroke-miterlimit="10" stroke-width="0.43" fill="url(#_10_lpi_10_)"/><path d="M95.1,286c.1,1.4.2,2.7.2,4.1l.3,5" transform="translate(-12.6 -14.9)" fill="none" stroke="#000" stroke-miterlimit="10" stroke-width="0.43"/><path d="M116.6,285.5c-.1,1.7-.2,3.4-.2,5.3s0,2.3.1,3.5" transform="translate(-12.6 -14.9)" fill="none" stroke="#000" stroke-miterlimit="10" stroke-width="0.43"/><path d="M138.1,285.1c.1,2.9.1,5.8.2,8.7" transform="translate(-12.6 -14.9)" fill="none" stroke="#000" stroke-miterlimit="10" stroke-width="0.43"/><path d="M207.2,162.2a3.8,3.8,0,0,1,.1,1.8,2.4,2.4,0,0,1-.5,1.8,1.9,1.9,0,0,1-.9.4,7.9,7.9,0,0,1-1.7.2h-3.7l-3.8.3a29,29,0,0,0-3.4.4h-4.5l-4.7.3h-3.2c0-.8.1-1.6.1-2.1a25,25,0,0,0,.2-2.5,9.2,9.2,0,0,0,.1-1.5v-.7c0-.3.1-.6.1-.8s.1-1.1.2-1.1h1.3l7.4-.5,3.9-.2,1.7-.2a14.6,14.6,0,0,1,2.2.3h2.7a9,9,0,0,1,3.9.8,4,4,0,0,1,2.1,1.9A2.7,2.7,0,0,1,207.2,162.2Z" transform="translate(-12.6 -14.9)" fill="url(#_10_lpi_10_)"/><path d="M190.3,189c.1.1.3.3.2,2v.9c-.2,1.6,0,2.1-.2,4.2s-.1,1.6-.4,1.9a2.2,2.2,0,0,1-1.2.7,4.2,4.2,0,0,1-1.8.3h-3.5a18.9,18.9,0,0,0-2.9.3l-5.5.4-7.6.4-2.8.3h-8.3a2,2,0,0,1-.1-.9c.1-.3,0-.7.1-1v-1.7a15.3,15.3,0,0,1,.1-1.8,9.6,9.6,0,0,1,.2-1.7,9.1,9.1,0,0,1,.2-1.2c.1-.4.1-.6.3-.7H163l2-.3h1.8l1.9-.2,5-.8,6.5-.4h6.4l2.5-.4h1.2Z" transform="translate(-12.6 -14.9)" fill="url(#_10_lpi_10_)"/><path d="M190.2,167.3c-.1,2-.2,3.6-.2,4.7v2.2c-.1.8-.1,1.1-.2,2.6V178c-.1,1.1-.1,2-.1,3.2V189h-.6l-2.5.4h-6.4a20.3,20.3,0,0,0,.2-2.8c.1-.4.1-1.2.2-2.5s0-2,.1-3.6.2-2.8.3-5.3v-2l-.2-2.8a24.4,24.4,0,0,1,.1-2.9v-.2h3.2l4.7-.3Z" transform="translate(-12.6 -14.9)" fill="url(#_10_lpi_10_)"/><path d="M189.7,189h.6c.1.1.3.3.2,2v.9c-.2,1.6,0,2.1-.2,4.2s-.1,1.6-.4,1.9a2.2,2.2,0,0,1-1.2.7,4.2,4.2,0,0,1-1.8.3h-3.5a18.9,18.9,0,0,0-2.9.3l-5.5.4-7.6.4-2.8.3h-8.3a2,2,0,0,1-.1-.9c.1-.3,0-.7.1-1v-1.7a15.3,15.3,0,0,1,.1-1.8,9.6,9.6,0,0,1,.2-1.7,9.1,9.1,0,0,1,.2-1.2c.1-.4.1-.6.3-.7H163l2-.3h1.8l1.9-.2,5-.8,6.5-.4h6.4l2.5-.4Z" transform="translate(-12.6 -14.9)" fill="none" stroke="#000" stroke-miterlimit="10" stroke-width="0.43"/><path d="M180.2,189.7a20.3,20.3,0,0,0,.2-2.8c.1-.4.1-1.2.2-2.5s0-2,.1-3.6.2-2.8.3-5.3v-2l-.2-2.8a24.4,24.4,0,0,1,.1-2.9v-.2c0-.8.1-1.6.1-2.1a25,25,0,0,0,.2-2.5,9.2,9.2,0,0,0,.1-1.5v-.7c0-.3.1-.6.1-.8s.1-1.1.2-1.1h1.3l7.4-.5,3.9-.2,1.7-.2a14.6,14.6,0,0,1,2.2.3h2.7a9,9,0,0,1,3.9.8,4,4,0,0,1,2.1,1.9,2.7,2.7,0,0,1,.4,1.3,3.8,3.8,0,0,1,.1,1.8,2.4,2.4,0,0,1-.5,1.8,1.9,1.9,0,0,1-.9.4,7.9,7.9,0,0,1-1.7.2h-3.7l-3.8.3a29,29,0,0,0-3.4.4h-4.5l-4.7.3h-3.2" transform="translate(-12.6 -14.9)" fill="none" stroke="#000" stroke-miterlimit="10" stroke-width="0.43"/><path d="M190.2,167.3c-.1,2-.2,3.6-.2,4.7v2.2c-.1.8-.1,1.1-.2,2.6V178c-.1,1.1-.1,2-.1,3.2V189" transform="translate(-12.6 -14.9)" fill="none" stroke="#000" stroke-miterlimit="10" stroke-width="0.43"/><path d="M219.6,167.4l-1.5.7-1,.8a4.3,4.3,0,0,0-1,1,3.8,3.8,0,0,0-.5,1.4,2.8,2.8,0,0,0-.2,1.5,2.1,2.1,0,0,1,0,.8v.7l-.2.7a1.6,1.6,0,0,1-.6.5,1.7,1.7,0,0,1-1.3-.5,5.8,5.8,0,0,1-1-1.2l-.2-.8-.2-.8c0-.5-.1-.5-.1-.8a3.4,3.4,0,0,1,.1-.9c0-.2.1-.3.2-.6a9.7,9.7,0,0,0,.5-1.1,9,9,0,0,1,.6-1.4,5.8,5.8,0,0,1,1.7-2l1.4-.7,1.9-.8a8.6,8.6,0,0,1,2.8-.3,4.4,4.4,0,0,1,3.5,1l.8.8c.2.2.3.3.3.4a4.1,4.1,0,0,0,.3.8l.3.5a8.7,8.7,0,0,1,.6,2.1c0,.5,0,.3.1,2s.1,1.4.1,1.7a10.9,10.9,0,0,0,.1,1.3,31.5,31.5,0,0,1,0,3.2,10.4,10.4,0,0,1-.4,2,2.6,2.6,0,0,1-.1.7c-.2.6-.2.8-.3,1.1a4.4,4.4,0,0,1-.6,1,3.3,3.3,0,0,1-1,1.1,3.2,3.2,0,0,1-1.3.7,15.6,15.6,0,0,1-3.7.7h-4.3l-1.4.2-2.9.2h-2.2a1.9,1.9,0,0,1-1-.2l-.4-.3-.4-.5c0-.1-.1-.4,0-.5a.8.8,0,0,1,.5-.2h.7V183h.3l.4-.2.2-.4a.8.8,0,0,1,.4-.4l.6-.3c.3-.1.3,0,.9.1h1.8a6.5,6.5,0,0,0,1.4,0h.9a3,3,0,0,1,1.4-.2h2.9a3.4,3.4,0,0,0,1.7-.3,13.1,13.1,0,0,0,1.3-.7l.4-.4a3.9,3.9,0,0,0,.6-1.1,10.2,10.2,0,0,0,.5-2.4v-1.2c0-.4-.1-.5-.1-.9v-1.1c0-.8-.2-.8-.2-1.8a4.9,4.9,0,0,1-.1-1.1,4.1,4.1,0,0,1-.3-1c-.2-.6-.2-.8-.4-.9l-.3-.3c-.2-.2-.1-.3-.2-.5s-.8-.3-1.1-.3Z" transform="translate(-12.6 -14.9)"/><path d="M105.1,311.4a4.2,4.2,0,0,1,.7,1.2,3,3,0,0,1,.4.8,4.3,4.3,0,0,1,0,1.6,12.3,12.3,0,0,1,.1,1.8,17.2,17.2,0,0,1,.1,2,9.1,9.1,0,0,1-.2,2.7,4.6,4.6,0,0,1-2,2.9,3.1,3.1,0,0,1-1,.5,13.6,13.6,0,0,1-2.7.3H96.3l-1.9-.2-2.1-.2H91.2a.8.8,0,0,1-.5-.5c-.1-.3.1-.3,0-.8a.8.8,0,0,1-.1-.4l.2-.3c.2-.2.6-.1.8-.1l.5.2h8.1a4.6,4.6,0,0,0,1.7-.3,3.4,3.4,0,0,0,.9-.8,5,5,0,0,0,1.1-2.8s0-.4-.1-1.3a12.6,12.6,0,0,0-.1-1.6c0-1.2.2-1.2,0-1.7a2.9,2.9,0,0,0-.8-1.3,3.4,3.4,0,0,0-1.4-.8l-1.3-.2h-5l-1.6.2-1.1.2-.7.2a3.6,3.6,0,0,1-1.5.2c-.8,0-1.2,0-1.4-.3a.7.7,0,0,1,0-.9c.1-.2.3-.5,1.7-.8l2.2-.5h1.1l3.2-.2h4.5l1.5.4,1,.5Z" transform="translate(-12.6 -14.9)"/><path d="M318.8,216.6c.1.2-.1.2-.1.4s.1.2.1.3l.3.2h.3c0,.1.3.3.2.5v.3l-.2.2a1.4,1.4,0,0,1-.7.2c-.4,0-.6.2-1.1.4a12.4,12.4,0,0,1-3.2.2H310c-.7-.1-1.9.1-3.9.1h-9.3a2.3,2.3,0,0,0-1.2,0h-1.5l-.9-.2-.8-.2-.4-.3c-.2-.2-.3-.3-.3-.5v-.3l.2-.2v-.5c-.1-.1,0-.2,0-.3s.8-.9.8-.9l1-.5a4.7,4.7,0,0,1,1.8-.2h19.9a3.1,3.1,0,0,0,1.3.1h.7c.3.1.3.4.7.5h.4c.1,0,.1.1.2.3Z" transform="translate(-12.6 -14.9)"/><path d="M163.6,156.7a5.1,5.1,0,0,1,.9,2.2,5.7,5.7,0,0,1,.3,2.4,4.2,4.2,0,0,1-.2,1.6,3.8,3.8,0,0,1-1.1,2.3,4.6,4.6,0,0,1-1.3.8,2.7,2.7,0,0,1-1,.4l-1.3.3-.7.2h-2.8l-1.7-.3-1.4-.4-1.9-.4a12,12,0,0,0-2.9-.5H124.3l-1.4.2h-3l-.9.2h-.8c-.6.1-.8,0-1.2.2h-.3l-1.1.3h-1c-.6-.1-.8-.2-.8-.3V166c-.1-.4,0-.4-.1-.6l-.3-.4a.5.5,0,0,1,.1-.3l.3-.2c.1-.1.2-.2.1-.3l-.5-.3-.3-.2v-.3s-.1-.4.1-.6h4.5c1,0,1.2.1,1.7-.1l.7-.2h.9l1-.2,1.7-.3h6a27.5,27.5,0,0,0,3.4.1h2.9l.8.2,1.4.2a5.6,5.6,0,0,0,1.3,0h10l2.6.3h2.8l1.5.3H159l.5-.2.5-.3.3-.8a4.6,4.6,0,0,1,.3-.9,3.7,3.7,0,0,0,.1-.8c0-.2-.1-.4-.5-.8a3.8,3.8,0,0,0-2-1.1l-1.1-.3-.7-.2a8.5,8.5,0,0,0-2.6-.1h-2.4a5.3,5.3,0,0,1-1.8.1H134.2l-.5.2h-6.2c-1.4.1-1.6-.1-4-.1h-6.3a13.2,13.2,0,0,1-2.1,0,5.4,5.4,0,0,1-1.8-.4.6.6,0,0,1-.5-.4.6.6,0,0,1-.2-.5.4.4,0,0,0,.1-.3l.4-.2v-.2c.1-.2,0-.3,0-.4s-.4-.1-.5-.3-.1-.2,0-.2.1-.3.5-.5a2.3,2.3,0,0,1,1.1-.1c.1,0-.9-.1,2.2-.1h21.3l1.1-.2,1.5-.2,1.4-.2,2.6.2h11.1l1.4.2,1.5.2a6.3,6.3,0,0,1,2.1.4l1,.6.7.5a.9.9,0,0,1,.6.4l.3.4A1.1,1.1,0,0,0,163.6,156.7Z" transform="translate(-12.6 -14.9)"/><path d="M76.3,313.9a2.5,2.5,0,0,0-.1.8,3.4,3.4,0,0,1-.1,1.4,6.4,6.4,0,0,0,.1,1.9,9.7,9.7,0,0,1-.4,2.8l-.2.7c-.1.3-.2.4-.2.5a1.6,1.6,0,0,1-.6.5c-.4,0-.7-.6-.8-1s0-.5-.2-1.8-.1-.8-.1-1-.2-.3-.2-.5.1-.3.2-.5,0-.4,0-.5v-1.9a9.3,9.3,0,0,1,0-2.9c.1-.6.3-1.2.6-2.5a5.2,5.2,0,0,1,.5-1.2,4.1,4.1,0,0,1,1.8-1.9c0-.1.2-.2.5-.4l.5-.4c.1-.1.3-.2,1-.3l.6-.2a3.9,3.9,0,0,0,1.3-.5c.4-.2.4-.1,1.6-.3l1.1-.2,2-.3a35.2,35.2,0,0,1,4.5-.3h3.8c1.5-.1,2.6-.4,4.5-.6a23.1,23.1,0,0,1,4.1-.2h2.6l1.2-.2,3.1-.2,4.4-.3,4.6-.2,3.4-.2h2.5l2.2-.3a32.1,32.1,0,0,1,5.3-.4,29.9,29.9,0,0,0,3,0l1.5-.2h1l1.4.2h1.1l1.3.4,1.4.5.5.3c.2.2.4.3.4.5l.3.4.4.5.6.7a12.8,12.8,0,0,1,1.5,4.4,19.4,19.4,0,0,1,.3,3.3c0,.5-.1,1.3-.1,1.6l-.2,1.8c-.1,1.3,0,1.4-.1,1.8l-.4,1.2a2.3,2.3,0,0,0-.2.9c-.1.3-.1.5-.2.9v.9c-.1.4-.4.5-1,1l-1.8,1.2-2,.5-1.8.4h-2.9a11.5,11.5,0,0,0-2.1.2H131l-2.1-.2h-7.4l-2.1-.2a7,7,0,0,1-1.7-.4l-.6-.2-1.1-.4a11.1,11.1,0,0,1-1.2-.8l-.5-.6-.8-1.2a6.9,6.9,0,0,1-.4-3.7v-1.5c.2-1.7.3-1.6.3-2.3a3.4,3.4,0,0,1,.1-.9c.1-.2.2-.2.3-.5s0-.4.1-.7l.4-.5.9-.9,1.8-.9a8.5,8.5,0,0,1,1.9-.6l3.1-.5,3.2-.5,3.3-.2a12.3,12.3,0,0,1,2.8,0h2.9l1.5.2.9.4c.9.3,1,.3,1.2.5l.6.7a3.4,3.4,0,0,1,.2,1.3v3.1s0,.9-.1,2.1a3.2,3.2,0,0,1-.1.8c-.1.2-.1.4-.2.5a2.1,2.1,0,0,1-.3.7,1.8,1.8,0,0,1-1.2.8,9.6,9.6,0,0,1-1.5.3l-1.3.3h-7.5l-.9-.3a3.1,3.1,0,0,1-1-1,5,5,0,0,1-.3-1.6v-.9a2,2,0,0,1,.1-.9l.3-.5.5-.8a4,4,0,0,1,2.1-.8h4.7c.5,0,.8,0,1,.2a.8.8,0,0,1,.5.5c0,.1.2.5,0,.8s-.4.3-.8.3h-5l-.7.2-.6.4a1.7,1.7,0,0,0-.3.7c-.1.3-.2.5,0,.8a1.1,1.1,0,0,0,.4.5h1.3l2.2.3h1.4l1-.2h.7l1-.2,1.8-.4.6-.4a.8.8,0,0,0,.2-.5,5.6,5.6,0,0,0,.2-1.2,5.8,5.8,0,0,0,0-2,11.6,11.6,0,0,0-.2-1.5,4.1,4.1,0,0,0-1.2-.9l-1.2-.4-1.2-.2-1.3-.3h-5.6l-1.9.3-2.5.5-2.1.7-.6.2-.5.2-.8.5-1.3,1a.5.5,0,0,0-.4.3v.4c0,.4-.1.4-.2.9a5.4,5.4,0,0,0-.1,1.1c0,.6.1.6,0,.9s-.1.3-.2.8a2.2,2.2,0,0,0-.1.6,2.8,2.8,0,0,0,0,1.6,1.9,1.9,0,0,0,.5,1.1l.4.4c.6.4,1,.4,2.7.8l.8.2a7.2,7.2,0,0,0,1.9.2l3.1.2h4.4a7.5,7.5,0,0,1,1.5,0h1.8l2.7-.2,4.6-.5,1.4-.4c.5-.3.9-.4,1.2-.8a3.6,3.6,0,0,0,.5-1.3c.1-.5.2-.8.3-1.2a31.6,31.6,0,0,0,.3-3.2c0-1.1,0-1.8-.1-3a6.2,6.2,0,0,0-.1-1.2,5.2,5.2,0,0,0-.3-1.8l-.2-.5c-.1-.2-.1-.4-.3-1a5.3,5.3,0,0,0-.4-1.1l-.3-.5a3.5,3.5,0,0,0-1-.8,13,13,0,0,0-2.9-.8,7.9,7.9,0,0,0-2.3-.4h-2.3l-3.8.2h-1.8l-2.6.2-4.1.4-3.8.4-3.7.2c-3.8.1-7.8.4-9.2.5h-3.2l-1.5.2H98l-1.7.2a19.4,19.4,0,0,1-3.7.1,20.7,20.7,0,0,0-5.1.4l-1.3.2-1.6.2-1.8.3a4.1,4.1,0,0,0-1.6.6l-1,.7-.8.3a3,3,0,0,0-.9.7l-.9,1c0,.1,0,.1-.5,1.3s-.2.5-.3.6a2.8,2.8,0,0,1-.1.9c0,.1-.1.2-.1.4Z" transform="translate(-12.6 -14.9)"/><path d="M155.8,321.3h.3l.8-.3a3.9,3.9,0,0,0,.4-1.3,6.3,6.3,0,0,0,.4-.9,3.9,3.9,0,0,0,.2-1.4c.1-1.2.3-1.1.4-2.3s0-.9.1-2.3a7.8,7.8,0,0,0,.2-2.5,6.6,6.6,0,0,0-.1-1.3c0-.8-.1-.7-.1-1.2v-2.5a3.3,3.3,0,0,0-.4-1.4l-.4-1.2-.7-1.8a7,7,0,0,0-1.4-1.7,8.5,8.5,0,0,0-2.8-2.2l-1.4-.4-1.5-.4-1.5-.2h-1.8c-.3-.1-.4,0-.9.1h-.7a3.6,3.6,0,0,1-1.1,0H132l-2.1.2c-1.6,0-2.1-.2-3.8-.1h-2.9a4.8,4.8,0,0,0-1.2,0h-2.2c-1.3.2-1.7.1-2.9.2h-1.2l-2.1.3-5.1.3-4.9.2h-.9l-.9.3a4,4,0,0,1-1.1,0l-2.8.2h-10l-1.3.2-.8.2H82.7a16.7,16.7,0,0,1-3.2.2l-4.7.3a29.3,29.3,0,0,0-4,.5h-.9c-.3.1-.3.2-.7.2l-.7.2h-.8l-.5.6-.5.4h-.5l-.5.2a1.2,1.2,0,0,0-.6.5c-.2.3-.1.4-.2.9s-.2.4-.3.8a3,3,0,0,0-.3,1.2c-.2,1-.2,1.4-.3,1.8a24.2,24.2,0,0,0-.3,2.5c0,.5.1.7.1,1.6v1.1a1.7,1.7,0,0,0,0,1v.7a1.8,1.8,0,0,1,.1.5,17,17,0,0,1,.2,3c0,.6.1,1.3.1,2a3.9,3.9,0,0,0,.1.9,2.4,2.4,0,0,0,.5,1,.9.9,0,0,0,.6.3.8.8,0,0,0,.6-.2c.2-.2.1-.3.1-.9s0-.3.1-1.2v-1a12.2,12.2,0,0,0,.1-2.1c.1-1.8.1-2.2.1-4.1s.1-1.7.1-2c.2-1.9.5-2.4.6-3.6a2.8,2.8,0,0,1,.2-1.1l.3-.5.6-.9.5-.6.8-.4.7-.3.6-.4h.6l2.2-.2h3l3.2-.4,3.1-.3a13.3,13.3,0,0,0,2,0l1.2-.2H87l1.5-.2,5.4-.3a57.8,57.8,0,0,0,6.4-.3l1.5-.2a31.1,31.1,0,0,1,4-.2l6.4-.3,3.3-.2,3.2-.2h4.9a17.2,17.2,0,0,1,3.1-.1h8c1,0,2.5-.1,3.7,0h7.9a20.1,20.1,0,0,1,3.2.4,8.3,8.3,0,0,1,2.6,1,8.8,8.8,0,0,1,1.4,1.4,4.5,4.5,0,0,0,.7,1,18.5,18.5,0,0,1,1.4,2.6,5.4,5.4,0,0,1,.4,2,6.7,6.7,0,0,1,.1,1.6,13.4,13.4,0,0,1,.1,2,8.5,8.5,0,0,0-.1,2.2c0,.4.1.4.1.8a14.2,14.2,0,0,1-.1,1.9c-.1,1-.2,1.9-.4,3a5.4,5.4,0,0,1-.2,1.1,5.1,5.1,0,0,1-.2.9,1.5,1.5,0,0,0,.1.7A.4.4,0,0,0,155.8,321.3Z" transform="translate(-12.6 -14.9)"/><path d="M247.1,212.4a1.6,1.6,0,0,1-.1,1c-.1.3-.1.4-.2.5s-.3.2-1.3.2H235.3l-2.2.4h-4.3l-1.4.4h-1.2l-2.6.3h-2.4l-1.2.3c-.7.2-.8.2-1,.4a2.2,2.2,0,0,0-.2,1,7.5,7.5,0,0,1-.1,1.1,1.1,1.1,0,0,0,.1.6,1,1,0,0,0,.4.7.6.6,0,0,0,.5.2h11a37.4,37.4,0,0,0,4.9-.4l2.6-.3h3.9a22.8,22.8,0,0,0,3.4-.5l2.7-.8a2.8,2.8,0,0,0,.9-.5,2.9,2.9,0,0,0,.8-1.1,4.1,4.1,0,0,0,.1-1.1c0-1,.1-1.9.1-2.9s0-1.5-.1-1.7-.2-2.2-1-2.7a3,3,0,0,0-1.5-.2H244c-1.2.2-2.4.2-4.8.4h-6.3l-2,.3h-1l-1.4.2h-5.8l-1.1.2-.9.2-1.4.3-2.2.4a29.1,29.1,0,0,1-3.8.3h0l-2,.2-4.7.4-2.1.2-2.6.2-1.8.3h-3.7a.4.4,0,0,0-.4.2v.2c.1.3-.1-.2,0,.8a13,13,0,0,0,.4,2.1l.6.9.4.5c.7.7,1.1,1.1,1.6,1.2l.5.2c.2.1.3.1.3.2l.3.3.5.2a13.7,13.7,0,0,0,2.9.2h3c.1,0,.4,0,.5-.2s.1-.2.1-.4a3.6,3.6,0,0,1-.1-1.2v-1.7c0-.3.1-.5.1-.7l.2-.6c.2-.3.2-.5.4-.6a1.1,1.1,0,0,1,1,.1,1,1,0,0,1,.5.4c.3.3.4.7.6,2.1l.3,1.4c.1.9,0,.5.1.9a3.2,3.2,0,0,1,.1.8c.1.1.1.4.1.9a1.5,1.5,0,0,1-.1.7,1.4,1.4,0,0,1-.7.9,1.9,1.9,0,0,1-1,.4h-5.4l-2.4-.5a16.7,16.7,0,0,1-3.1-1.1l-1-.6a6.6,6.6,0,0,1-1.9-1.4c-.2-.3-.1-.3-.5-.9l-.6-1a6.3,6.3,0,0,1-.9-2l-.2-1c0-.3-.1-.5-.1-.7v-1.7a2.3,2.3,0,0,1,.1-.7.6.6,0,0,1,.1-.4,1.7,1.7,0,0,1,.5-.9l.6-.4h1.9l2.9-.2,2.2-.2,2.2-.4h2.8l2-.2c1.9-.2,3-.1,4.4-.2l.8-.2h5l.6-.2,1.5-.2h2l1.8-.3,1.4-.2,2.2-.2h2.1l1.3-.2h2.2l.9-.2a8.2,8.2,0,0,1,2.4-.2h13.7l.8.2c.2,0,.2.1.8.6l.5.5a3.9,3.9,0,0,1,.4.9c.2.6.3.6.4.9s.1.8.2,1.6.1.8.2,1.7a27.1,27.1,0,0,1,.1,2.9,7.6,7.6,0,0,1-.3,1.8l-.2.4a4.9,4.9,0,0,0-.1,1.2,3.2,3.2,0,0,1-.2.9,5,5,0,0,1-1.5,2.1,7.1,7.1,0,0,1-3,1.2l-2.5.4-1.7.4h-3.7l-1.4.2h-1.7l-1.7.2H222.2a12.3,12.3,0,0,1-3.8-.5l-1.2-.3-1-.5a1.9,1.9,0,0,1-.5-1.1,10.6,10.6,0,0,1-.2-2.3c0-2.3,0-2.7.3-3.4a2.3,2.3,0,0,1,.6-1.2,3.2,3.2,0,0,1,2.2-.7l2.2-.2,1.1-.2,2.1-.2,1.8-.2,3-.2,1.4-.3c1.7-.3,2-.1,4.1-.3l2.6-.3,1.4-.2a27.6,27.6,0,0,1,4.1,0h2a2.6,2.6,0,0,1,.9,0,2.3,2.3,0,0,1,1.3.3A2,2,0,0,1,247.1,212.4Z" transform="translate(-12.6 -14.9)"/><path d="M173.2,253.3a.9.9,0,0,1-.3.6c-.2.2-.5.2-1,.2h-3.7c-1.5,0-1.2.2-3.5.3l-3.2.3-1.2.4a5,5,0,0,0-1.5.5l-1.2.4a3.6,3.6,0,0,0-1.1,1.1,6,6,0,0,0-.5,1.6c-.2.8-.3,1.4-.3,1.4-.2,1.5-.3,2.7-.3,2.9-.2,1.8-.4,1.8-.7,4s-.2,3.7-.6,6a20.7,20.7,0,0,0-.4,2.3c-.1.2-.2.9-.4,1.8a3.9,3.9,0,0,1-.4,1.4,2,2,0,0,1-.7,1l-.8.5-.9.5a4.6,4.6,0,0,1-1.9.8l-2.4.4-1.3.2a18.4,18.4,0,0,0-3.6.2l-1.1.2-1.8.2h-3.1a7.5,7.5,0,0,0-2.3.2l-.7.2a6.1,6.1,0,0,1-1.4,0,16,16,0,0,0-3,.1,52.6,52.6,0,0,1-6.1.2c-2.6.1-4.8,0-7.2,0H94a14.7,14.7,0,0,0-3.1-.1H89.3c-1.3.1-1.8,0-3.8,0H75.2l-2.7.2c-2.7.2-3.3,0-5.1.3h-14a11.7,11.7,0,0,0-3.2.7.7.7,0,0,0-.5.3,1.6,1.6,0,0,0-.3.6,2.7,2.7,0,0,0-.2.9c-.1,1-.2,1.5-.2,1.6s-.1,1.6-.2,4.2-.2,4.1-.2,4.6a3.3,3.3,0,0,1,0,1c-.1.1-.1.2-.1.4v.6c.1.5.1.5.2.6a3.5,3.5,0,0,1-.1.6,2.3,2.3,0,0,1-.3.9c-.2.3-.6.9-1.1.9l-.7-.3-.8-.8a3.6,3.6,0,0,1-.3-1.5c-.1-.8,0-1.1-.1-1.9s-.1-.8-.1-1.3a20.9,20.9,0,0,1-.1-2.6c0-4.5.1-5.2.1-5.9s0,0,.3-1.7a6.8,6.8,0,0,1,.2-1.5,5.8,5.8,0,0,1,.2-1,8.5,8.5,0,0,1,1-1.8c.6-.6,1.5-.6,3.2-.8h4.7l1.2-.2h5.2a44.1,44.1,0,0,0,6.3,0l4.7-.3,3.1-.2h15l2.8-.2,2.2.2h16.3l4.4-.2h6.1l6.5-.2,3.2-.2c1.3,0,1.9.1,3.3,0l1.6-.2h2.2l2.1-.3,1.4-.2,1.1-.2h1.4l1.3-.2,1-.4a8.6,8.6,0,0,0,1.5-.5c.3-.2.5-.3.6-.5s.2-.5.4-1.2a2.6,2.6,0,0,1,.3-.8,10.5,10.5,0,0,0,.2-1.3c.2-1.2,0-1.3.2-2l.3-.9v-1c0-.4.1-.6.1-1.1s.1-1.5.2-2.2a14.2,14.2,0,0,1,.3-2.1c.3-1.7.2-1.8.6-3.8s.2-1.1.4-2a6.2,6.2,0,0,1,.3-1.6,4.3,4.3,0,0,1,.8-1.8,7.5,7.5,0,0,1,.9-.9,1.1,1.1,0,0,1,.5-.4.6.6,0,0,1,.5-.2l1.2-.3a33.4,33.4,0,0,1,3.5-.8l2.2-.3H167c4.7,0,3.2.1,3.2.1h1.3l1.2.3C172.9,252.6,173.3,252.9,173.2,253.3Z" transform="translate(-12.6 -14.9)"/><path d="M300.7,255.3c0-.2,0-2.1-.1-3.6v-1.6a3.8,3.8,0,0,0,.1-.8c.1-.5.1-.6.2-.7s.2-.3.8-.4h18.5l4.6-.2h6.4a7.2,7.2,0,0,0,1.9-.2v.8a13.4,13.4,0,0,1-.1,2.1H322.1l-4.3.2H304.3c-.4.1-.6.1-.7.3s-.1.2-.2.6v1.4c.1.5,0,.5.1,3.2a11,11,0,0,1,.1,1.6c0,.6-.1.8-.1,1.3v2.5a23.5,23.5,0,0,1,.1,2.6c.1.7,0,1,.1,1.6s0,.2.1,1.6.1,1.4.1,1.5v.7c0,.3,0,.5.1.5h11.3a14.5,14.5,0,0,0,2.9.1h5.7a24.2,24.2,0,0,0,2.7,0h6v2.3l-2.6.4H307l-3,.3h-1.3l-.8-.2-.9-.3c-.1-.1-.1-.4-.2-.8v-.5a3.4,3.4,0,0,1-.1-1,23.2,23.2,0,0,1-.2-2.4,7.4,7.4,0,0,1,0-1.5c0-.4.1-.6.1-1.1v-1.1a8.2,8.2,0,0,1-.1-1.4,17.4,17.4,0,0,1,0-2.3v-1.6C300.5,257.2,300.6,257.1,300.7,255.3Z" transform="translate(-12.6 -14.9)"/><path d="M310.9,259.7a4.5,4.5,0,0,0-.1-1.4,4.6,4.6,0,0,0-.1-1v-.5a2,2,0,0,1,.6-1.1l.5-.4.9-.2h1.8l1-.2h.8a42,42,0,0,1,4.3-.2H325l3.7-.3,4.2-.4h0c-.1.8-.1,1.7-.2,2.8h-2l-1.9.2h-4a23.9,23.9,0,0,1-2.7,0h-2.9l-1,.2h-1.3l-.9.2h-2.2c-.1.2-.1.3,0,1.1s.2,1.4.3,1.5.4.2.9.1a15.9,15.9,0,0,0,2.2-.2H319l2.2-.3,1.7-.3h2.2l1.3-.3h4.8a6.4,6.4,0,0,0,1.4,0v4a8.8,8.8,0,0,0-2.4-.1l-1.9.2-3.1.2-1.6.3-1.4.2h-7.6c-1.6-.1-2.4-.1-2.8-.4s-.6-1.4-.8-2.8A5.3,5.3,0,0,0,310.9,259.7Z" transform="translate(-12.6 -14.9)"/><path d="M79.8,247l-1.6.4-.8.2H68.7l-5.9-.5-3-.4-2.1-.2H52.1l-.5-.2c-.3,0-.3.3-.7.3h-.5c-.1,0-.2,0-.2-.1a1.8,1.8,0,0,0-1,.1H32.9l-1.5.2c.1-.8.1-1.2.2-1.7a6.2,6.2,0,0,1,.7-1.6,15.8,15.8,0,0,1,2.8-.2h1.5l1.7-.2H53.6l1.7.2h1.6a13.3,13.3,0,0,0,2.6.2h1.7l.9.2H70l3.5.2h4.9l1.6-.6.9-.3a5,5,0,0,1,1.2-.2l1.1-.3,1.8-.4h1.3l5-.5c3-.2,5.4-.2,7.5-.2h9.9v2.8h-1.3a46.9,46.9,0,0,1-5.3.3c-2.7-.1-3.2-.4-5.2-.2H93.1l-6.7.5-1.6.3-2.5.6Z" transform="translate(-12.6 -14.9)"/><path d="M111.2,244.7h-2.4V242l3.7-.4,4.1-.2h9.9l3.3-.2,3.9-.2a11.5,11.5,0,0,0,2.5-.1h1c1.7-.2,1.9,0,3.3-.2h5.5l3.5-.2h8.5c2.1,0,2.5.2,5.5.4l5.1.3h9.8a14.9,14.9,0,0,0,3.6-.2l1-.2h.2l1.1.2h1.1a29.7,29.7,0,0,1,3,0l4.8-.3,4.1-.3a52.5,52.5,0,0,1,8,0l2.8.2,4.2-.2c1.2-.1,1.7-.1,9,.2l8.1.2,9.4.3h15.5l5.9.2h18.3c3.5-.1,3.8-.3,6.2-.2h2.7l2.5-.2a14.9,14.9,0,0,1,2.8-.1h2.8l.9-.2h9.4l4.2-.3H322l2.9-.3,5.4-.2,2.5-.2v1.6a23.6,23.6,0,0,1,.1,2.5h-1.6l-2.6-.2H325l-4.3.2-5.4-.2h-6.6l-3.2.2H299l-2.3.3-2.2.2h-7.3l-3.2.2c-2.2.1-2.4-.1-4.1.1l-2.4.2h-6a8.8,8.8,0,0,0-1.6-.2H253.6c-2.1.1-2.4,0-6.7-.1H233.1a26.9,26.9,0,0,0-3.1-.2H207.5c-.5,0-.5-.2-.9-.2h-6.9l-3.5.2H185.7l-4.7.2h-9.6c-1.3.1-1.3,0-6-.3s-3.8-.1-5.3-.3l-2.2-.2h-2l-2-.2h-5.6l-4.4.2h-3.8l-3.6.3h-7.4l-4.7.4h-5.8l-2.4.3h-5Z" transform="translate(-12.6 -14.9)"/><path d="M35.2,238.4a6.3,6.3,0,0,1,.7-1.2H55.4a20.8,20.8,0,0,1,4.2.2l1.8.3a25.6,25.6,0,0,0,4.3.2h9.1l2.6-.2,3-.4,3.1-.5c2-.5,1.9-.8,3.2-1h.7a8.8,8.8,0,0,0,2.3,0,7,7,0,0,1,2-.3h14.4l2.5-.3h7.8l3.4-.2,3.5-.3,2.2-.3c2.1-.2,3.9-.2,7.6-.3h9.5l4-.2h2.6l5.6.3h3c1.4-.1,1.4.1,2.9.1h1.8l2.3.2a84.5,84.5,0,0,0,9.2.2h3.4a31.1,31.1,0,0,1,3.3-.3h2.1c2.6.1,3.7-.2,7.3-.2h11l2.9-.2h.2c2.7-.1,2.9.3,4.9.1l2.6-.2h24.2l3.5-.2a36.8,36.8,0,0,0,3.9-.2h3.1a13.1,13.1,0,0,1,3.1.3,45.8,45.8,0,0,0,6.2.2l7.8-.2H267l4.6.2H276l6.8-.3,4.3-.2H299l3.2-.3h5.9c2.5.2,3.6-.1,5.6,0h.9l1.5-.2c1.1-.2,1.2,0,3.9-.2h3.3a10.9,10.9,0,0,0,2.5-.1l4.1-.2h2.7c0,1,0,1.8.1,3.1a37.5,37.5,0,0,0-5.4.3l-3.6.3H317l-7.2.6H309l-3.8.3h-8.5l-4.6-.4h-4.8c-3.1,0-3.1.1-6.2.2h-6.2l-4.1.3-5.3.2c-2.8.1-5,0-6.8-.1l-6.5-.3h-4.6c-3.4.1-5.9,0-9.5,0H199.9l-2.3.2H186.8l-2,.2h-1.2l-.8.2h-6.9l-4.4-.2h-2.9l-3.5-.2-3.3-.2H132.1l-1.8.2h-2.8c-.3-.1-.4-.1-.5,0l-.4.2h-.3a4.3,4.3,0,0,1-1.5.3l-1-.2h-2.2c-2.3.1-28.4,1.1-32.7,1H86.6l-2.4.3h-.6l-.8.2-.5.2-1.1.2-1.5.2-.8.2h-.2l-1.2.3H75.4l-.8.2H72a17.4,17.4,0,0,1-3-.3,18.7,18.7,0,0,0-4.4-.2l-7.1-.2H52.8l-19.2.2Z" transform="translate(-12.6 -14.9)"/><path d="M222.5,230.5h-4.6l-1.4.3H215v-2.5h.1l4.8-.4,3.5-.2,3.3-.3h4.7a52.4,52.4,0,0,0,6.7-.2h7.1c1.9-.1,6.5-.2,8.8-.1h2.1l1.7.2h26.3a51.7,51.7,0,0,0,5.2-.1h4.6l1.5-.2a9.6,9.6,0,0,1,1.7,0h2.1l3.2-.2h3.8a41.8,41.8,0,0,1,4.9-.2h1.6a37.8,37.8,0,0,0,4.5-.2h1.6l2-.3h1.9l2.8-.2a19.9,19.9,0,0,0,2.2-.2,28.8,28.8,0,0,0,3.2-.2l1.4-.2h0c0,1.1.1,2.4.2,4h-.1a17.7,17.7,0,0,1-3.6.3h-2.3l-1.7.2a23.4,23.4,0,0,1-4,.1h-3.2l-3.2.3h-3.7c-4.2,0-5.5.3-7.2.2h-1.4l-1.2.2a9.3,9.3,0,0,1-2.9,0H281.7l-4.2.2h-3.3l-1.6-.2h-5.7l-.9-.2-1.5-.2h-3.7l-1.2.2a12.8,12.8,0,0,1-3.1-.2H235.8l-2.6.2a13.4,13.4,0,0,0-2,0h-1.5a5.6,5.6,0,0,1-1.8-.1c-1.6,0-1.8.3-3.1.2h-2.3Z" transform="translate(-12.6 -14.9)"/><path d="M104,228.7l1-.3h1.4l2.5-.2H111l3.2-.2c2.8-.2,2.8-.1,5.6-.2s3.4-.4,5.7-.4,1.1,0,4.3,0H136l4.2.2,5,.2h5.5l3,.2h30.1l3-.2h14.5l4.5.2H215v2.5h-6.6a8.3,8.3,0,0,1-2.1.1h-4a8.9,8.9,0,0,1-2.2.1H188.9l-1.1.2H182c-4,0-3.9.2-7.5.1h-8l-5.1-.2h-2.9a7.4,7.4,0,0,1-1.8-.3H142l-3-.2H123.9l-3.1-.2h-4.9l-2.5.2a48.7,48.7,0,0,1-5.3.3H104l-.3-2.9Z" transform="translate(-12.6 -14.9)"/><path d="M94.8,232.3c-1.3,0-2.4-.1-3.8,0l-3.4.5h-.3l-2.1.2-2.1.3H80.8l-1.5.5-.9.2H77.1l-5.4.3-2.1.2H67.2a15.5,15.5,0,0,0-1.5-.4H62l-.8-.2a15,15,0,0,0-3.7,0H52a19,19,0,0,1-3.1.2H44.1l-2.4-.2-1.5.2-2.4.2.3-.5a8.6,8.6,0,0,1,1-1.9c.3-.7.6-1.1.8-1.5H53.6c2.9.1,4.4.1,6.1.3l3.2.2c1.3.1,3.7.3,6.2.3l5.7-.5c3.5-.3,3.7-.2,7.6-.4l7.3-.6,8.1-.7h5.9l.3,2.9h-.6a7.5,7.5,0,0,0-1.6.5l-2,.2h-5Z" transform="translate(-12.6 -14.9)"/><path d="M238.5,44.7l.6-.2h.9a4.7,4.7,0,0,0,1.2,0l1.5.2H251l1.2.2H254l2.8.3,3.1,1.1,1.7.5.8.3,1.2.6.8.3h.8l.6.6a3,3,0,0,0,.8.8c.4.3.5.2.9.6l.7.7.8.9.3.3a1,1,0,0,1,.5.6c.1.3,0,.4.2.7l.4.5a3,3,0,0,1,.4,1,6.8,6.8,0,0,1,.4,1.3c0,.3.1.6.1,2.3s-.1,1.6-.1,1.8-.1.8-.3,1.4a8.8,8.8,0,0,1-1,2.1c0,.2-.2.4-.5,1l-.4.6h-.1c-.2.4-.4.6-.4.8l.2.4c.1.2.3.2.8.3l.6.2,2.1.3h3.7l1.2-.2h.5a1.6,1.6,0,0,1,.6-.5l.5-.3c.1-.2.1-.5.2-.8s.1-.4.3-1.2a6.9,6.9,0,0,1,.2-1.3,1.9,1.9,0,0,1,.1-.8v-.5c-.1-.3-.2-.4-.2-.5s-.5-.8-1.1-1.6-.4-.8-.7-1.4l-.5-1-.7-1.5-.8-1.7c-.4-.9-.7-1.7-1.3-3.3a13.8,13.8,0,0,1-.6-1.6c-.5-1.5-.7-1.9-.9-2.4a56.5,56.5,0,0,1-1.4-6,15.1,15.1,0,0,1-.4-2.2,13.5,13.5,0,0,0-.3-1.8l-.3-1.5c-.1-.7-.1-.8-.3-1.8a7,7,0,0,0-.2-1.3,13.4,13.4,0,0,1-.1-1.9c-.1-1.7-.1-1.5-.2-3s-.1-2.7-.1-3.6,0-3.1.1-5.2h.4s1.6-.8,3.9-1.7a8.2,8.2,0,0,1-.1,1.4c0,1-.1,1.7-.1,2a23,23,0,0,0,0,3.8c.1,4,0,3.4.1,4.7s.6,4.7.6,4.9.2,1,.5,3.5v2a2.8,2.8,0,0,0,.1.8,12.1,12.1,0,0,0,.4,2.1,3.6,3.6,0,0,1,.5.9,2.3,2.3,0,0,1,.1.7,17.7,17.7,0,0,0,.6,1.7c.3,1,.2,1,.6,2.3s.3.8.5,1.4l.5,1.3.5.8c.2.2.2.3.5,1l.2.6,1,1.7,1,1.6c.2.4.4.5.5.8a1.1,1.1,0,0,0,.3.6c.2.3.2.2.5.5l.4.6.3.4c.1.3,0,.3.2.5s.3.3.7.6l.3.4.7.6,1.2,1.3,1.1,1,.4.4.7.6.4.4.8.6,1.4.9.6.2.6.3.5.3h.7l.4.2.6.3h1.2l1.2.4,2.3.7,2,.4,1.8.2,2.3.4,2.3.2h2.5l2.5.3h14.5a11.9,11.9,0,0,0,1.9,0h1.3a18.6,18.6,0,0,0,.1,2.2v1.9h-3.4c-2,0-2,.1-3.2,0s-2.5-.2-4.4-.2h-2.1l-2.3-.2-3.5-.5h-2.9a36.9,36.9,0,0,1-5.4-.5l-2.5-.4h-1.1l-1.4-.3-1.3-.2a9.2,9.2,0,0,1-2-.5l-1.5-.3-2-.6-.7-.4-.9-.5-.5-.2a2,2,0,0,1-.8-.4l-1.3-.8a2.5,2.5,0,0,1-.8-.5l-1.1-.7-.8-.6c-.4.1-.5.6-.6.9a2.5,2.5,0,0,0-.1,1.5,2.4,2.4,0,0,0,.3,1.4c0,.1.2.3.4.6l.8.6.5.4a1.6,1.6,0,0,1,.1.9.9.9,0,0,1-.4.7c-.1.2-.3.2-.8.3h-1.7l-1.3-.3h-1l-1.5-.2-2.2-.2c-1.3-.1-1.2-.2-3.1-.5l-2.2-.3-1.9-.3h-1.4l-1.4-.2c-.7-.1-.8-.1-.8-.2s-.8-.4-1-.3a.7.7,0,0,0-.4.6,1.8,1.8,0,0,1-.1.5c0,.2,0,.4-.1.4a4.2,4.2,0,0,1-.2.6c-.1.1-.1.2-.1.7v1.1a2.4,2.4,0,0,1,.3.8c.1.3.1.5.3.7l.3.4.7.6,1,.7,1.1.6.8.2,1,.4,1.2.3,1.1.2h2.2c0,.1,0,.1.7.3l1,.2.9.3h4.2l1.7.2h1l.7.2h8l2,.2,1.8.2,1.9.2h1.4l.3-.2h.5c.2,0,.2.1.3.2s.3-.1.7-.2h2.4l.5.3h1.2a5.2,5.2,0,0,1,1.3,0c.2,0,.5,0,.6.2v.2h10.5c1.4,0,3.1-.1,3.9,0h.6l1-.2h2.2a17.7,17.7,0,0,1,2.4,0h2.2c0,2,.2,3.5.2,4.4v.4H327l-4.8-.2c-1.2,0-7.6-.1-11.8,0a19.8,19.8,0,0,1-3.3-.1l-2.1-.2-2.6-.2h-11l-4.7-.2H283a17.5,17.5,0,0,1-2.3,0l-1.8-.2h-2.6L273,86a28.9,28.9,0,0,1-3.5-.3l-2-.3h-2.9l-1.9-.6-1.2-.4-1.4-.4-.9-.3-1.4-.7-1-.7-.8-.5-.7-.7-.7-.8-.2-.5a1.7,1.7,0,0,0-.3-.6c-.2-.6-.3-.6-.3-.9s-.1-.2-.1-.6V76.2a10.5,10.5,0,0,1,.2-1.3l.5-.9a3.6,3.6,0,0,1,.9-.8c.7-.5.9-.5,1.5-1l.5-.4,2.3-2.1.8-.8.7-.9,1.2-1.6a6,6,0,0,1,1.2-1.4l.5-.6a4.5,4.5,0,0,0,.2-.8l.3-.6a7.3,7.3,0,0,1,.5-1.2c.2-.6.4-.6.6-1.2a2.1,2.1,0,0,1,.4-.6l.2-.3a3.5,3.5,0,0,0,.1-.7V56c0-.2-.1-.2-.2-.7s-.1-.6-.2-.7a2.2,2.2,0,0,0-.5-1,3.2,3.2,0,0,0-1.2-1.1l-1.1-.6-.8-.2-.9-.2L260,51l-2.4-.7-1.6-.5-1.5-.3-1.8-.2-2.6-.3-3.3-.3H235l-1.4-.2c-.9-.2-1.3-.3-1.5-.6s0-.3-.1-.8-.2-.4-.2-.6.7-.8,1-1l.4-.2,1.7-.4h3.6Z" transform="translate(-12.6 -14.9)"/><path d="M111.5,149h-2.4l-1.2-.2h-1.6l1.2-1.9c.3-.5.6-1.1,1.1-1.8l2.2.2h6.4l1.6-.2a10,10,0,0,1,2.5,0h3.9a5.5,5.5,0,0,0,1.3,0l.9-.4h.8a6.3,6.3,0,0,1,1.4,0l5.1-.3h4.9l1.3-.2H142a24.6,24.6,0,0,0,2.8,0h42.9a5.9,5.9,0,0,0,1.3-.2h1.8l.9-.2h2.5a2.4,2.4,0,0,1,.9.2h3.2l2.9-.3,1.9-.2h2l1.2.2h.9l3.9-.2h4.7l2.3-.2h7.1s2.8,0,5.3-.2h15.8l.8-.2H255l1.8-.3c1.7-.2,2.3,0,4.5-.2h.7a41.6,41.6,0,0,1,6.3-.3H270l2.6-.3h3.8a48.4,48.4,0,0,1,6.4.2l3.3.2,1.4.2h3.2l1.4.2h1.5l.8.2a10.8,10.8,0,0,0,1.9.4,6.3,6.3,0,0,1,1.3.3l1,.5,1.3.4,1.4.7,1.3.4,1.6.9a13.9,13.9,0,0,1,2.2,1.5,12.4,12.4,0,0,1,1.9,2.1l1.3,1.7,1,1.4.6,1.1.2.6a1.9,1.9,0,0,0,.1.8l.3.4a4.9,4.9,0,0,1,.4,1.1l.6,1.9a15.8,15.8,0,0,0,1,2,1.1,1.1,0,0,0,.2.4l.2.5h.1v.6a1.5,1.5,0,0,0,.2.8,17.5,17.5,0,0,1,.1,3.5,17.3,17.3,0,0,1-1.2,5.5l-.4.8a1.7,1.7,0,0,0-.1.7l-.5,1a23.9,23.9,0,0,1-1.8,2.9,8.1,8.1,0,0,1-1.3,1.5l-.7.6c-.6.5-.6.7-1,1l-.9.5-.8.3-1.2.4a15.6,15.6,0,0,0-2,.6l-1.1.2-2.1.4h-6.3a7.4,7.4,0,0,1-2.2-.4l-1-.5-.9-.4-1.7-1.2a2.8,2.8,0,0,1-.7-1.8,2,2,0,0,1,.1-.5c.2-.4.7-.4.9-.4h.9l.8.2h1.1a21.7,21.7,0,0,0,3.8-.1l1.6-.3h3l1.2-.3,1.9-.5a11.6,11.6,0,0,0,2.1-.9,10.8,10.8,0,0,0,1.9-1.4,9.1,9.1,0,0,0,1.3-1.6,3.6,3.6,0,0,0,.4-.9c.1-.1,0-.1.1-.5s.1-.6.2-.7l.3-.7c0-.2.1-.3.1-.4s.3-1.1.4-1.3a6.2,6.2,0,0,0,.2-2.2,8.2,8.2,0,0,0-.1-2.8,5.7,5.7,0,0,0-.4-1.6,17.3,17.3,0,0,0-1-3,8.5,8.5,0,0,0-.9-1.9l-1.2-1.9a17.9,17.9,0,0,0-1.8-2.4,11.3,11.3,0,0,0-2.7-2.7l-1.3-.7-.8-.4-.7-.2-.6-.3c-.4-.2-.6,0-1.3-.2h-.6l-1.9-.6-2.1-.4L290,145l-1.7-.3h-1.7l-1.1-.2h-1.8l-3.5-.2h-7.7c-1.8.2-2.3,0-4.2.1h-2.5l-6,.3-1.6.3-4.2.3-1.2.2a20,20,0,0,1-3.6.2l-2.4.2h-3.3c-1.8.1-1.7.3-3.8.4H228.5l-1.4-.2h-2.6l-5.8.2h-7.9l-2.3.2-2.5.2h-2.1l-1.4.2h-8.3l-3.9.2h-8.8l-4.7-.2h-6.4l-1.6.2a16.8,16.8,0,0,1-3-.1h-3.9l-1.9-.2H143.7l-1.8.2h-5l-7.3.5h-6.5l-2.5-.2-1.4.2h-7.7Z" transform="translate(-12.6 -14.9)"/><path d="M112.2,140.8l1.7-1.8,2.6-2.7h1.6a23.2,23.2,0,0,0,3.1-.3l4.2-.3,3.9-.2H142l4.7-.2a90.2,90.2,0,0,1,9.1-.3,12.3,12.3,0,0,0,2.7.2H163l1.6-.3,2-.2h12.6l2.6.2a38.1,38.1,0,0,0,5.9.1h24.1c3.8-.1,5.6,0,8.9-.2l5.5-.3,5.3-.3h1.6l4.8-.4h2l4.1-.2,1.9-.2,5.5-.5,8.6-.5h30.1l2,.3,1.9.2h3.7l1.4.3,2.3.3,1.8.2,1.5.4c1.6.3,2,.3,2.4.6a1.5,1.5,0,0,0,.6.4l.9.2,1.5.7.9.5c.3.2.2.3.5.5s.5.3,1,.6l.6.6.9.9.5.5a2.4,2.4,0,0,1,.5,1,13.4,13.4,0,0,0,1.2,2.4,1.5,1.5,0,0,1,.4.6c.1.2,0,.3.2.5l.3.4.4.4v.4l.2.7a2.7,2.7,0,0,0,.3.8c.3.5.4.5.5.8a2.9,2.9,0,0,1,.2.8l.2.3c.5,1.6,1.2,4.6,1.2,4.6,1.1,5.3,1.3,5.2,1.4,6.4a11.1,11.1,0,0,0,.4,2.9,4.1,4.1,0,0,1,.2,1,3.6,3.6,0,0,1,.1,1.4v2.8c0,1.5.2,1.4.2,2.9s-.1,1.6-.2,3.2-.3,2.4-.4,3.6a5.6,5.6,0,0,1,0,1.3,10.8,10.8,0,0,1-.5,2.1,10.4,10.4,0,0,1-.6,1.6,6.2,6.2,0,0,1-.4,1.6,7.8,7.8,0,0,1-.7,1.7,1.5,1.5,0,0,0-.3.7,2.6,2.6,0,0,0-.3.7c-.3.4-.5.4-.9.9l-.7.8a4.3,4.3,0,0,1-1.6,1.3,7.1,7.1,0,0,1-2.1,1.1l-2.5.9a16.9,16.9,0,0,1-3.6.7l-2.1.5-1.8.2h-2.1c-2.4,0-3.3.2-6.2.3h-2.7l-3.3-.3-1.5-.2-2.3-.6c-1-.2-1.1,0-1.8-.3l-1.2-.7-1.3-.8a13,13,0,0,1-1.7-1.7l-1.2-2-1-2.2a15.4,15.4,0,0,1-.6-3.1c-.4-3.1-.5-2.6-.6-4.2a35.3,35.3,0,0,1-.1-4.3c0-.5.1-1.3.2-2.3a9.7,9.7,0,0,1,.9-2.8,3.3,3.3,0,0,1,.7-1.1,4.9,4.9,0,0,1,1.3-1.1l1.8-.7,2.4-.5,3.9-.4c.3,0,1,0,1.2-.4s0-.2.1-.9v-1a1.7,1.7,0,0,0-.3-.7,5.4,5.4,0,0,0-1.5-1.2,9.2,9.2,0,0,0-2-1,3.3,3.3,0,0,0-1.4-.4,11.6,11.6,0,0,0-3.2-.3l-2.2.2-.8.2a4.6,4.6,0,0,0-1.4.5l-1.1.7c-.1,0-.3.2-.5.5a3,3,0,0,0-.4,1c-.4.7-.5.7-.8,1.3a13,13,0,0,0-.3,1.3,11,11,0,0,0-.4,2.1,9.8,9.8,0,0,1-.4,2c-.1.6-.1,1-.2,1.6a4.1,4.1,0,0,0-.1,1c-.1,2-.2,2.3-.2,4.1s0,2-.1,3.3-.1,1.4-.1,2.4.1.5.2,1.7,0,1.3.1,2.6a24.1,24.1,0,0,1,.3,2.4,4.6,4.6,0,0,0,.4,2l.4.8.3,1.3c.1.4.2,1,.4,1.6s.1.1.9,2a2.3,2.3,0,0,0,.7,1l.7.4,1.8,1a5.4,5.4,0,0,0,1.6.9,7.1,7.1,0,0,0,2,.5l2.9.4,2.2.4a22.5,22.5,0,0,0,4.8.4h6.8l2.2-.2h7.4l3.6-.6,2.3-.5a2.5,2.5,0,0,0,1.5-.3l.6-.3a1.5,1.5,0,0,1,.9-.1,4.3,4.3,0,0,0,2.2-.6l1-.6,1.2-.9c.9-.6,1-.7,1.1-.9s.1-.4.4-1,.5-.5.8-1.1l.5-1.1a3.9,3.9,0,0,1,.6-1.1c.2-.4.2-.7.5-1.4l.7-1.8c.1-.4.2-.6.6-2.5a18.2,18.2,0,0,0,.4-2.4c.1-1,.1-1.4.2-2.5a13,13,0,0,1,.3-1.3,10.2,10.2,0,0,0,.1-3c0-2.3-.2-4.3-.3-6.2s-.2-2.9-.2-3.1a22.6,22.6,0,0,0-.3-4.2,17.7,17.7,0,0,0-.4-2.1c-.1-.3-.3-1.4-.5-2.2-.6-2.8-1-4.2-1.2-5.1s-.8-2.3-1.2-3.9-.2-.8-.5-1.8l-.4-1.3a18.3,18.3,0,0,0-1.4-2.8,18.7,18.7,0,0,1-1.1-2.6c-.5-1.5-.8-2.2-.9-2.5a20.3,20.3,0,0,0-2.5-4l-1.2-1.1a11.5,11.5,0,0,0-2.1-1.3l-2.4-.7a7,7,0,0,1-1.8-.5,3.2,3.2,0,0,1-1.1-.4,26.7,26.7,0,0,0-5.3-1,33.1,33.1,0,0,0-4.3-.4l-4.2-.2H282c-3.2-.1-5.8,0-8,.1l-3.8.2-2.4.2h-3.2l-2.9.3h-5.5l-3.9.2H239.8c-2.9-.1-4.4.2-8,.2a20.4,20.4,0,0,0-2.5,0l-2.1.2-1.9.2h-1.9l-4.7.2-2.6.2c-1.6,0-2.1-.2-3.6-.1l-1.9.3h-3.3l-4.8.2-4.9.2-6.2.2H162.1l-7.6.2H143.1l-5.2.2-6.9.3h-5.5l-1.7.2-1.3-.2h-1.3l1.9-1.8c1.1-.8,1.9-1.6,2.6-2.2l4.5-.4h10.3l2.6-.2h5.8c2.3-.1,2.6,0,5.1,0h16.9a32.7,32.7,0,0,1,4-.2h3.5c1.8.1,3.1-.1,5.5-.2h9.9l1.3.2,4.7.2h5.6l1.8-.2h3.4a30.4,30.4,0,0,0,4.8-.2l3.5-.2h12.9l2.4-.2,8.3-.3h1.1l3.5-.3h14.4l4.3-.2,6.2-.2,4.7-.2h15.1l1.2.2c.5.2.8.1,2.2.1h2.5a35.2,35.2,0,0,1,5.2.3,15.4,15.4,0,0,1,3.1.5l3.1.9,2.7.9,1.3.5,1.4.3.8.4,1.3.6,1.4.8,1.1.9.5.7a6.2,6.2,0,0,1,.9,1.1l.7,1,.6,1.3.5,1.1.7,1.2,1.9,3.6a5.6,5.6,0,0,1,.8,1.5,5.8,5.8,0,0,1,.6,1.6l.6,1.3.8,2.5c.2,1,.5,1.9.7,3l.5,2.2a12.3,12.3,0,0,1,.4,1.6,3.7,3.7,0,0,1,.1.8c.1.6,0,.7.1,1a4.9,4.9,0,0,0,.3.7c.2.6,0,.7.1,1.2l.3.7.2.7a44.4,44.4,0,0,1,1.1,8c.1,3.4,0,5.7-.1,7.7a25,25,0,0,1-.5,4,13.5,13.5,0,0,1-.3,1.8,31.3,31.3,0,0,0-.5,3.6c0,.4-.1.6-.1,1.1a4.2,4.2,0,0,1-.2,1.1c-.1.4-.2.4-.3.8a3,3,0,0,0-.3,1.1,8.5,8.5,0,0,1-1,3,2.3,2.3,0,0,0-.6.9l-.3,1c-.1.5-.2.6-1.2,2.4l-.7,1.2-1,1.2-.9,1c-.4.5-.4.6-.7.8l-.9.5-1.2.8h-.8l-.8.3-3.1.8-2.3.3-1.3.2h-.8a7.7,7.7,0,0,0-2,.3l-3.3.4a59.1,59.1,0,0,1-7.6.6H286.9l-5.4-.4-1.8-.2-1.1-.2h-.9c-.4-.2-.4-.3-.8-.4s-.5-.1-.8-.2a4.5,4.5,0,0,1-1.2-.6,8.5,8.5,0,0,0-1.4-.9l-1.1-.8-.9-1.2a8.2,8.2,0,0,1-1.1-1.7c-.5-.9-.8-1.6-.9-1.8s-.3-1.5-.8-2.8a4.9,4.9,0,0,1-.6-1.7,2.8,2.8,0,0,1-.1-1c-.1-.6-.1-.9-.3-1.9s-.4-1.9-.5-2.4a20.4,20.4,0,0,1-.3-3.4,42.9,42.9,0,0,1,0-5.1c.2-8,.3-6.6.3-8.7a18.4,18.4,0,0,1,.2-3.9,26.1,26.1,0,0,0,.6-2.7,14.1,14.1,0,0,1,.7-2.7,7.3,7.3,0,0,1,1.7-2.2,11.5,11.5,0,0,1,2.8-1.7,13.1,13.1,0,0,1,3.6-.8l2.6-.2h2.8l2.4.5a5.7,5.7,0,0,1,1.6.3l1.4.9,1,.7,1.3,1,.9.9.8.8a8.3,8.3,0,0,1,1.2,1.5c.4.7.5,1.2.8,1.8l.2.4c0,.3,0,.3.1.4l.6.3h.3l2.2.4a13.7,13.7,0,0,1,1.9.2h.4c.3-.1.4-.6.4-.6a3.4,3.4,0,0,0-.2-1.1,4.2,4.2,0,0,0-.4-1,3.2,3.2,0,0,0-.6-1.1c-1-1.5-1-2-1.8-3.1a10.9,10.9,0,0,0-1.9-1.8,14.1,14.1,0,0,0-3.1-1.8l-.7-.4-1.2-.6-1.4-.4-2.3-.7a14.8,14.8,0,0,0-3.2-.5h-3.7l-2.3.2-.9.2a16.6,16.6,0,0,0-3.3.9l-1.9.6-1.2.4-.8.2a6.8,6.8,0,0,0-1.9,1.1,2.9,2.9,0,0,0-1.1.8,6.4,6.4,0,0,0-1.3,1,5.6,5.6,0,0,0-1,1.5l-.5,1.5a9.8,9.8,0,0,0-.7,1.6c-.1.2-.2.7-.5,1.6l-.3,1.1a10.1,10.1,0,0,0-.3,2.4c-.1,1.3-.2,2-.2,2.2a72.3,72.3,0,0,0-.1,7.4,54,54,0,0,0,.2,6.5c0,.4.1.5.3,2.2s.3,2.7.4,4.1a20.7,20.7,0,0,0,.4,2.3c.1.5.2.7.4,1.7s.2,1,.4,1.5.5,1.3.8,2.4a6,6,0,0,0,.5,1.6c.1.4.2.4.6,1.1l.5,1.3a11.3,11.3,0,0,0,.6,1.6,4.6,4.6,0,0,0,1.4,1.9,4.4,4.4,0,0,0,1.9,1.2,6.8,6.8,0,0,0,1.9.5h.7l.6.2,1.2.2.6.2H290a40.3,40.3,0,0,0,4.2-.1h7l3.9-.2h3.8c3.8,0,4.6-.2,6.4,0h3.5a4.8,4.8,0,0,1,1.8.4,3.3,3.3,0,0,1,1.3.9c.3.3.5.5.5.7s-.7,1.1-.8,1.2l-.7.3-1.6.5h-5.2l-6.3.3H293l-2.2.2h-2.3c-3.1-.1-3.4.1-5.9-.1l-2.6-.3-3.5-.4c-1.8-.2-1.4,0-2.3-.1s-1-.2-1.4.1-.4.4-.6.9a2.6,2.6,0,0,0-.5,1.3,9.1,9.1,0,0,0-.1,1.7,2.4,2.4,0,0,0,.2,1.7c.2.3.5.4,1.2.6l2.3.3h1.3c1.2.1,1.8,0,4,0h2.8c.9.2,1.4.3,1.7.7a3.2,3.2,0,0,1,.2,1.3,1.3,1.3,0,0,1-.2.8,1.6,1.6,0,0,1-.6.6h-2.9c-1.8.1-3.3-.1-5.9-.1h-4.9c-.8-.1-.9,0-1.3-.2l-.5-.3-.6-.5c-.2-.2-.2-.4-.3-.6a9.7,9.7,0,0,1-.2-1.2v-3.5c0-.5.1-.6.1-1.2v-.5a1.3,1.3,0,0,0-.1-.6c0-.5,0-.7.1-.8l.2-.3a1.4,1.4,0,0,0,0-1.1l-.6-.2h-1.2a4.4,4.4,0,0,1-1-.6,8.1,8.1,0,0,1-1.7-1.6,7.6,7.6,0,0,1-1-1.6l-.5-1.1a5.8,5.8,0,0,1-.5-1.4,12,12,0,0,1-.9-2.1l-.4-1.2-.4-1.3a5.1,5.1,0,0,1-.4-1.4v-1.2c-.1-.3-.2-.3-.4-.6a3.1,3.1,0,0,1-.2-.7,9.4,9.4,0,0,0-.3-.9,10.9,10.9,0,0,1-.3-1.7,6.5,6.5,0,0,0-.3-1.7l-.2-.6a6.8,6.8,0,0,1-.2-1.5c-.1-1.6-.2-1.6-.2-2.2s0-1.9-.2-4-.1-.9-.2-2.4-.2-2-.2-2.3.1-1.2.1-2.3,0-.5-.1-2.1a6.5,6.5,0,0,1,0-2.1,4.1,4.1,0,0,1,.1-1v-1.2a24.2,24.2,0,0,1,.3-2.8c.1-.5.1-1.1.3-2.3a19.5,19.5,0,0,1,.3-2.2c.2-1.3.3-1.9.4-2.7s.3-1.2.6-2a7.2,7.2,0,0,1,1.8-2.9,4.8,4.8,0,0,1,1.3-.9l.8-.4.9-.6.8-.4,1.2-.6,3.4-1.3c.8-.2,1.8-.6,3.3-.9l1.9-.5a27.5,27.5,0,0,1,7.6-.5h4.6l2.4.4,1.7.4,1.7.5a22.8,22.8,0,0,1,2.8,1.4l2.1,1.5,1.3,1,.8,1.1.9.9.9,1.1.6,1a7.6,7.6,0,0,1,.9,1.8l.4.9a18.2,18.2,0,0,1,1,3.1v1.2a2.2,2.2,0,0,1-.1,1,3.2,3.2,0,0,1-.3.9l-.5.8a1.9,1.9,0,0,1-.4.6l-.5.4-.6.2-1,.2h-1.6l-1.4-.3-.9-.3c-.9-.3-.9-.1-1.5-.4s-.4-.2-.5-.1a1.2,1.2,0,0,0-.5.5l-.4.6a2,2,0,0,1-1.4.4,15,15,0,0,1-3,0h-3.1l-1,.4-1.1.6a6.4,6.4,0,0,0-1.7,1.3,2.4,2.4,0,0,0-.6,1l-.3.8a2.4,2.4,0,0,1-.3.7v1.2a13.6,13.6,0,0,0-.1,1.5l.2,1c.1.9.1,1.2.2,1.9s.3,1.3.6,3.3a8.9,8.9,0,0,0,.6,2,.9.9,0,0,1,.3.5c.4.7.4,1,.7,1.6a3,3,0,0,0,.5,1,3.6,3.6,0,0,0,1.4,1,5.6,5.6,0,0,0,2.1.6l1.5.2,1,.3,1.9.2h6.8l1.7-.2,1.8-.3H304l1.4-.2,2.1-.2,1.1-.3,2.6-.8a8.5,8.5,0,0,0,2-1.3,9.6,9.6,0,0,0,1.4-1.5,7.1,7.1,0,0,0,1.2-1.8,12.6,12.6,0,0,0,.7-1.6c.1-.5.4-1.4.6-2.6a17.2,17.2,0,0,0,.3-2.9,17.7,17.7,0,0,0,.2-2.4,16.7,16.7,0,0,0-.1-1.9c-.1-3-.1-3.1-.2-4.1a9.9,9.9,0,0,1-.2-1.8c-.1-.9-.1-1-.2-1.7s-.2-1.4-.4-2.6a2.2,2.2,0,0,1-.1-.8c0-.3-.1-.7-.2-1.5s-.3-2.9-.4-3.4-.2-1.5-.3-2-.6-2-.7-2.4a9.1,9.1,0,0,0-.6-1.6l-.5-1.3c-.3-.6-.4-.7-.4-.9a2.5,2.5,0,0,1-.4-.7,2.5,2.5,0,0,1-.2-.7,5.7,5.7,0,0,0-.8-1.6c-.8-1.2-.9-1.2-1.3-1.9l-.5-.8-.6-.6-.5-.6-1.3-.9-1.4-.6a4.1,4.1,0,0,0-1.6-.4l-3.1-.7-3.3-.4-6.1-.7L290,136a32.8,32.8,0,0,0-4.8-.4,37.1,37.1,0,0,0-4.4-.2h-2.2l-3.3-.3h-5.6l-3.4.3h-.7l-3.6.3h-8.3l-2.1.2-6,.4-5,.4H236l-.9.2h-2.2l-5.9.2h-5.8l-3.6.2h-3.9a6,6,0,0,0-1.9,0c-2.1.1-2.7-.1-5.2.1l-1.8.2h-8.5l-4.9.3H171.7c-3.1,0-3.6-.2-6.5-.1H153.4l-3,.2-1.9.2h-14l-1.2.2h-9.5l-1.8.3h-2.4l-1.7.4-2.7.2Z" transform="translate(-12.6 -14.9)"/><path d="M30.6,251.8l.7-2.6A6.5,6.5,0,0,1,31,251Z" transform="translate(-12.6 -14.9)"/><path d="M75.1,251.9l-2.7.2H67.9a10.6,10.6,0,0,1-2-.3l-2.8-.3H58.2l-1.6-.2-2.5-.2H43.5a10,10,0,0,0-2.4.4,24.2,24.2,0,0,0-2.7,0l-2.2.3H34.8l-2.4.3H30.6l.4-.8a6.5,6.5,0,0,0,.3-1.8h2.1l2.5-.2h2.2l1.3-.2h3a30.1,30.1,0,0,0,4-.1h5.9l4.7.3,3.2.2,2.5.2,1.8.2h6.3a6.6,6.6,0,0,0,2,0l1.1-.2h2.9l3.2-.5a21.9,21.9,0,0,0,3-.4c1.7-.2,1.7-.4,2.9-.5a34.1,34.1,0,0,1,3.7-.2l4-.2h18.2a16.2,16.2,0,0,1,3.4.2l1.8.2h15.1a9.9,9.9,0,0,0,2.3-.2l1.2-.2h12.3l1.4-.2h26.2a21.5,21.5,0,0,1,3.4-.1h1.8l.5-.2h.7a1.6,1.6,0,0,0,1,0h8.9l1.1-.2h11.4c.4,0,.5-.2.8-.1s.2.1.5.3h.7c.8,0,.9-.1,1,.1s.1.2.3.7a1.3,1.3,0,0,1,.1.5c0,.3-.2.5-.3.5l-.6.3h-1.4l-.3.2-.6.2h-.8a13.3,13.3,0,0,1-3,.1h-2.4l-1.8-.2H183.1a23.9,23.9,0,0,1-2.7,0h-8a8.3,8.3,0,0,0-1.6,0h-9.2a35.8,35.8,0,0,1-5.4,0h-8a1.6,1.6,0,0,0-1,.2h-.9l-.9-.3H134.7l-1.5.2H115.5l-1-.2H97.6c-2.9,0-4.4-.1-6.6.1H89.8l-4.7.3-1.2.2-1.8.3-2.8.6-1.1.2H75.1Z" transform="translate(-12.6 -14.9)"/><path d="M332.9,243.3c.1,2.4.1,3.4.2,3.9v.8a13.4,13.4,0,0,1-.1,2.1c0,1.3-.1,2.3-.1,3.5s-.1,1.7-.2,2.8V258c0,.4-.1.7-.1,1.2v12.9c-.1,3.9-.1,6.2,0,7.4.1,7.1.4,8.7.9,21.1.1,2.1.1,3.7.2,4.8" transform="translate(-12.6 -14.9)" fill="none" stroke="#000" stroke-miterlimit="10" stroke-width="0.85"/><path d="M35.9,237.2l1.9-3.1.3-.5a8.6,8.6,0,0,1,1-1.9c.3-.7.6-1.1.8-1.5a4.3,4.3,0,0,1,.4-.7l1.8-2.2c.7-.9.7-1,1.5-2.2l1.9-2.5c1.4-1.7,2-1.9,3.5-3.5s.6-.7,2.8-3.4l5.2-6.5,3.1-4,3.7-5.1c3.1-4.1,3-3.8,4.8-6.3s2-3.1,4-5.9a52,52,0,0,1,3.5-4.4c.9-1.1,1.4-1.6,2.8-3.1l2.3-2.9c1.8-2.2,2.9-3.3,7.1-7.8l4.8-5.3,8.1-8.3,1.3-1.5a17.9,17.9,0,0,0,1.6-1.9,11.7,11.7,0,0,0,1.4-2.4l.8-1.6,1.2-1.9c.3-.5.6-1.1,1.1-1.8l1-1.4a29.7,29.7,0,0,1,2.6-2.8l1.7-1.8,2.6-2.7c.7-.7,1.8-1.9,4.7-4.4l1.9-1.8c1.1-.8,1.9-1.6,2.6-2.2l4-3.4,6.3-5.1,2.3-2.1c.6-.6.6-.8,1.9-2.2l2.9-3.5,1.4-1.9,2.2-3.3a45.8,45.8,0,0,1,3.4-4.3c1.9-2.3,2.4-2.6,3.2-4a10.8,10.8,0,0,1,1.1-1.8l1.8-2,2.4-2.6,1.1-1.1a28,28,0,0,1,2.1-2.6,10.5,10.5,0,0,1,2.1-1.8,14.6,14.6,0,0,1,1.6-1.2c5.3-3.8,11.3-7.3,11.3-7.3,3.3-2,2-1.6,12.3-8.8,6.9-4.9,7.4-5,13-9.1s7.9-5.6,10.4-7.7,9.5-7.9,13.9-11.4a23.7,23.7,0,0,1,3-2.1c2-1.1,2.9-1.1,5-2.4s1-.9,2.2-1.6a28.4,28.4,0,0,1,3.9-1.8l3.4-1.8,5.2-2.8c4.1-2.1,4.5-1.7,9.5-4.2l5.5-2.7,5.4-2.7h.4s1.6-.8,3.9-1.7l1.7-.7,2.3-.6a5.8,5.8,0,0,1,3.2,0l1.6.5,1.9.4a17.8,17.8,0,0,0,4,0h3.8a47.9,47.9,0,0,0,5.1-.7,31.6,31.6,0,0,1,5.2-.1,72.2,72.2,0,0,1,7.4.6l4.3.3,10.8.9,3.1.3c.3,2.1.6,3.9.7,5.2s.4,3.7.5,5.4,0,1.2.2,4.8.1,4.4.2,5.6.1,2.9.3,6.8c.3,6.1.3,6.5.3,7.6s0,3-.1,6.2c-.1,5-.1,4.8-.1,6.5s0,.3.2,4.9a18.6,18.6,0,0,0,.1,2.2v1.9c.1,1,.1,2,.1,3.3s-.1,1.7-.1,2.7a14.1,14.1,0,0,0-.1,2c0,2,.2,3.5.2,4.4v.4c.2,3.1,0,5.4-.1,11.7-.1,3.4,0,2.8-.1,15-.1,20.9-.2,20.1-.1,24.5,0,1.1.3,6.6,1,17.6.2,4.1.4,7.2.5,10.1s.1,4.8.1,7.5v6.8c0,5.2.2,7.8,0,11.4s-.2,3.9-.2,3.9c-.1,1.9-.1,2.3-.1,3.1s0,3.3,0,4c.3,5.9.4,11.8.6,17.6,0,.6,0,1.8.1,3.8s.1,2.4.2,4v.8c0,1.4.1,2.3.1,3s0,1.8.1,3.1,0,2,.1,3.6v1.6a23.6,23.6,0,0,1,.1,2.5" transform="translate(-12.6 -14.9)" fill="none" stroke="#000" stroke-miterlimit="10" stroke-width="0.85"/><path d="M31.3,249.2a13.6,13.6,0,0,1,.1-1.8v-.6c.1-.8.1-1.2.2-1.7a6.2,6.2,0,0,1,.7-1.6c0-.1,0-.2.1-.2s.9-1.6,1.2-2.3l1.6-2.6a6.3,6.3,0,0,1,.7-1.2" transform="translate(-12.6 -14.9)" fill="none" stroke="#000" stroke-miterlimit="10" stroke-width="0.85"/><path d="M12.9,285.5c2.8-4.7,4-6.9,4.5-8s1-2,1.4-3a5.7,5.7,0,0,1,.7-1.3,6,6,0,0,1,.8-1.3,18.7,18.7,0,0,0,1.2-1.9l.7-1.4c.2-.6.2-.8.4-1.5a13.2,13.2,0,0,1,.7-1.8c1.1-2.3,2.3-4.4,2.3-4.4s1-1.6,2-3.4l.9-1.6,1.5-3,.6-1.1" transform="translate(-12.6 -14.9)" fill="none" stroke="#000" stroke-miterlimit="10" stroke-width="0.85"/><line x1="23.3" y1="222.3" x2="23.3" y2="222.3" fill="none" stroke="#000" stroke-miterlimit="10" stroke-width="0.85"/><line x1="320.4" y1="228.5" x2="320.4" y2="228.5" fill="none" stroke="#000" stroke-miterlimit="10" stroke-width="0.85"/><path d="M125.7,127.9l4.5-.4h10.3l2.6-.2h5.8c2.3-.1,2.6,0,5.1,0h16.9a32.7,32.7,0,0,1,4-.2h3.5c1.8.1,3.1-.1,5.5-.2h9.9l1.3.2,4.7.2h5.6l1.8-.2h3.4a30.4,30.4,0,0,0,4.8-.2l3.5-.2h12.9l2.4-.2,8.3-.3h1.1l3.5-.3h14.4l4.3-.2,6.2-.2,4.7-.2h15.1l1.2.2c.5.2.8.1,2.2.1h2.5a35.2,35.2,0,0,1,5.2.3,15.4,15.4,0,0,1,3.1.5l3.1.9,2.7.9,1.3.5,1.4.3.8.4,1.3.6,1.4.8,1.1.9.5.7a6.2,6.2,0,0,1,.9,1.1l.7,1,.6,1.3.5,1.1.7,1.2,1.9,3.6a5.6,5.6,0,0,1,.8,1.5,5.8,5.8,0,0,1,.6,1.6l.6,1.3.8,2.5c.2,1,.5,1.9.7,3l.5,2.2a12.3,12.3,0,0,1,.4,1.6,3.7,3.7,0,0,1,.1.8c.1.6,0,.7.1,1a4.9,4.9,0,0,0,.3.7c.2.6,0,.7.1,1.2l.3.7.2.7a44.4,44.4,0,0,1,1.1,8c.1,3.4,0,5.7-.1,7.7a25,25,0,0,1-.5,4,13.5,13.5,0,0,1-.3,1.8,31.3,31.3,0,0,0-.5,3.6c0,.4-.1.6-.1,1.1a4.2,4.2,0,0,1-.2,1.1c-.1.4-.2.4-.3.8a3,3,0,0,0-.3,1.1,8.5,8.5,0,0,1-1,3,2.3,2.3,0,0,0-.6.9l-.3,1c-.1.5-.2.6-1.2,2.4l-.7,1.2-1,1.2-.9,1c-.4.5-.4.6-.7.8l-.9.5-1.2.8h-.8l-.8.3-3.1.8-2.3.3-1.3.2h-.8a7.7,7.7,0,0,0-2,.3l-3.3.4a59.1,59.1,0,0,1-7.6.6H286.9l-5.4-.4-1.8-.2-1.1-.2h-.9c-.4-.2-.4-.3-.8-.4s-.5-.1-.8-.2a4.5,4.5,0,0,1-1.2-.6,8.5,8.5,0,0,0-1.4-.9l-1.1-.8-.9-1.2a8.2,8.2,0,0,1-1.1-1.7c-.5-.9-.8-1.6-.9-1.8s-.3-1.5-.8-2.8a4.9,4.9,0,0,1-.6-1.7,2.8,2.8,0,0,1-.1-1c-.1-.6-.1-.9-.3-1.9s-.4-1.9-.5-2.4a20.4,20.4,0,0,1-.3-3.4,42.9,42.9,0,0,1,0-5.1c.2-8,.3-6.6.3-8.7a18.4,18.4,0,0,1,.2-3.9,26.1,26.1,0,0,0,.6-2.7,14.1,14.1,0,0,1,.7-2.7,7.3,7.3,0,0,1,1.7-2.2,11.5,11.5,0,0,1,2.8-1.7,13.1,13.1,0,0,1,3.6-.8l2.6-.2h2.8l2.4.5a5.7,5.7,0,0,1,1.6.3l1.4.9,1,.7,1.3,1,.9.9.8.8a8.3,8.3,0,0,1,1.2,1.5c.4.7.5,1.2.8,1.8l.2.4c0,.3,0,.3.1.4l.6.3h.3l2.2.4a13.7,13.7,0,0,1,1.9.2h.4c.3-.1.4-.6.4-.6a3.4,3.4,0,0,0-.2-1.1,4.2,4.2,0,0,0-.4-1,3.2,3.2,0,0,0-.6-1.1c-1-1.5-1-2-1.8-3.1a10.9,10.9,0,0,0-1.9-1.8,14.1,14.1,0,0,0-3.1-1.8l-.7-.4-1.2-.6-1.4-.4-2.3-.7a14.8,14.8,0,0,0-3.2-.5h-3.7l-2.3.2-.9.2a16.6,16.6,0,0,0-3.3.9l-1.9.6-1.2.4-.8.2a6.8,6.8,0,0,0-1.9,1.1,2.9,2.9,0,0,0-1.1.8,6.4,6.4,0,0,0-1.3,1,5.6,5.6,0,0,0-1,1.5l-.5,1.5a9.8,9.8,0,0,0-.7,1.6c-.1.2-.2.7-.5,1.6l-.3,1.1a10.1,10.1,0,0,0-.3,2.4c-.1,1.3-.2,2-.2,2.2a72.3,72.3,0,0,0-.1,7.4,54,54,0,0,0,.2,6.5c0,.4.1.5.3,2.2s.3,2.7.4,4.1a20.7,20.7,0,0,0,.4,2.3c.1.5.2.7.4,1.7s.2,1,.4,1.5.5,1.3.8,2.4a6,6,0,0,0,.5,1.6c.1.4.2.4.6,1.1l.5,1.3a11.3,11.3,0,0,0,.6,1.6,4.6,4.6,0,0,0,1.4,1.9,4.4,4.4,0,0,0,1.9,1.2,6.8,6.8,0,0,0,1.9.5h.7l.6.2,1.2.2.6.2H290a40.3,40.3,0,0,0,4.2-.1h7l3.9-.2h3.8c3.8,0,4.6-.2,6.4,0h3.5a4.8,4.8,0,0,1,1.8.4,3.3,3.3,0,0,1,1.3.9c.3.3.5.5.5.7s-.7,1.1-.8,1.2l-.7.3-1.6.5h-5.2l-6.3.3H293l-2.2.2h-2.3c-3.1-.1-3.4.1-5.9-.1l-2.6-.3-3.5-.4c-1.8-.2-1.4,0-2.3-.1s-1-.2-1.4.1-.4.4-.6.9a2.6,2.6,0,0,0-.5,1.3,9.1,9.1,0,0,0-.1,1.7,2.4,2.4,0,0,0,.2,1.7c.2.3.5.4,1.2.6l2.3.3h1.3c1.2.1,1.8,0,4,0h2.8c.9.2,1.4.3,1.7.7a3.2,3.2,0,0,1,.2,1.3,1.3,1.3,0,0,1-.2.8,1.6,1.6,0,0,1-.6.6h-2.9c-1.8.1-3.3-.1-5.9-.1h-4.9c-.8-.1-.9,0-1.3-.2l-.5-.3-.6-.5c-.2-.2-.2-.4-.3-.6a9.7,9.7,0,0,1-.2-1.2v-3.5c0-.5.1-.6.1-1.2v-.5a1.3,1.3,0,0,0-.1-.6c0-.5,0-.7.1-.8l.2-.3a1.4,1.4,0,0,0,0-1.1l-.6-.2h-1.2a4.4,4.4,0,0,1-1-.6,8.1,8.1,0,0,1-1.7-1.6,7.6,7.6,0,0,1-1-1.6l-.5-1.1a5.8,5.8,0,0,1-.5-1.4,12,12,0,0,1-.9-2.1l-.4-1.2-.4-1.3a5.1,5.1,0,0,1-.4-1.4v-1.2c-.1-.3-.2-.3-.4-.6a3.1,3.1,0,0,1-.2-.7,9.4,9.4,0,0,0-.3-.9,10.9,10.9,0,0,1-.3-1.7,6.5,6.5,0,0,0-.3-1.7l-.2-.6a6.8,6.8,0,0,1-.2-1.5c-.1-1.6-.2-1.6-.2-2.2s0-1.9-.2-4-.1-.9-.2-2.4-.2-2-.2-2.3.1-1.2.1-2.3,0-.5-.1-2.1a6.5,6.5,0,0,1,0-2.1,4.1,4.1,0,0,1,.1-1v-1.2a24.2,24.2,0,0,1,.3-2.8c.1-.5.1-1.1.3-2.3a19.5,19.5,0,0,1,.3-2.2c.2-1.3.3-1.9.4-2.7s.3-1.2.6-2a7.2,7.2,0,0,1,1.8-2.9,4.8,4.8,0,0,1,1.3-.9l.8-.4.9-.6.8-.4,1.2-.6,3.4-1.3c.8-.2,1.8-.6,3.3-.9l1.9-.5a27.5,27.5,0,0,1,7.6-.5h4.6l2.4.4,1.7.4,1.7.5a22.8,22.8,0,0,1,2.8,1.4l2.1,1.5,1.3,1,.8,1.1.9.9.9,1.1.6,1a7.6,7.6,0,0,1,.9,1.8l.4.9a18.2,18.2,0,0,1,1,3.1v1.2a2.2,2.2,0,0,1-.1,1,3.2,3.2,0,0,1-.3.9l-.5.8a1.9,1.9,0,0,1-.4.6l-.5.4-.6.2-1,.2h-1.6l-1.4-.3-.9-.3c-.9-.3-.9-.1-1.5-.4s-.4-.2-.5-.1a1.2,1.2,0,0,0-.5.5l-.4.6a2,2,0,0,1-1.4.4,15,15,0,0,1-3,0h-3.1l-1,.4-1.1.6a6.4,6.4,0,0,0-1.7,1.3,2.4,2.4,0,0,0-.6,1l-.3.8a2.4,2.4,0,0,1-.3.7v1.2a13.6,13.6,0,0,0-.1,1.5l.2,1c.1.9.1,1.2.2,1.9s.3,1.3.6,3.3a8.9,8.9,0,0,0,.6,2,.9.9,0,0,1,.3.5c.4.7.4,1,.7,1.6a3,3,0,0,0,.5,1,3.6,3.6,0,0,0,1.4,1,5.6,5.6,0,0,0,2.1.6l1.5.2,1,.3,1.9.2h6.8l1.7-.2,1.8-.3H304l1.4-.2,2.1-.2,1.1-.3,2.6-.8a8.5,8.5,0,0,0,2-1.3,9.6,9.6,0,0,0,1.4-1.5,7.1,7.1,0,0,0,1.2-1.8,12.6,12.6,0,0,0,.7-1.6c.1-.5.4-1.4.6-2.6a17.2,17.2,0,0,0,.3-2.9,17.7,17.7,0,0,0,.2-2.4,16.7,16.7,0,0,0-.1-1.9c-.1-3-.1-3.1-.2-4.1a9.9,9.9,0,0,1-.2-1.8c-.1-.9-.1-1-.2-1.7s-.2-1.4-.4-2.6a2.2,2.2,0,0,1-.1-.8c0-.3-.1-.7-.2-1.5s-.3-2.9-.4-3.4-.2-1.5-.3-2-.6-2-.7-2.4a9.1,9.1,0,0,0-.6-1.6l-.5-1.3c-.3-.6-.4-.7-.4-.9a2.5,2.5,0,0,1-.4-.7,2.5,2.5,0,0,1-.2-.7,5.7,5.7,0,0,0-.8-1.6c-.8-1.2-.9-1.2-1.3-1.9l-.5-.8-.6-.6-.5-.6-1.3-.9-1.4-.6a4.1,4.1,0,0,0-1.6-.4l-3.1-.7-3.3-.4-6.1-.7L290,136a32.8,32.8,0,0,0-4.8-.4,37.1,37.1,0,0,0-4.4-.2h-2.2l-3.3-.3h-5.6l-3.4.3h-.7l-3.6.3h-8.3l-2.1.2-6,.4-5,.4H236l-.9.2h-2.2l-5.9.2h-5.8l-3.6.2h-3.9a6,6,0,0,0-1.9,0c-2.1.1-2.7-.1-5.2.1l-1.8.2h-8.5l-4.9.3H171.7c-3.1,0-3.6-.2-6.5-.1H153.4l-3,.2-1.9.2h-14l-1.2.2h-9.5l-1.8.3h-2.4l-1.7.4-2.7.2h-3" transform="translate(-12.6 -14.9)" fill="none" stroke="#000" stroke-miterlimit="10" stroke-width="0.57"/><path d="M121.2,131.9h1.3l1.3.2,1.7-.2H131l6.9-.3,5.2-.2h11.4l7.6-.2h29.3l6.2-.2,4.9-.2,4.8-.2h3.3l1.9-.3c1.5-.1,2,.1,3.6.1l2.6-.2,4.7-.2h1.9l1.9-.2,2.1-.2a20.4,20.4,0,0,1,2.5,0c3.6,0,5.1-.3,8-.2h12.5l3.9-.2h5.5l2.9-.3h3.2l2.4-.2,3.8-.2c2.2-.1,4.8-.2,8-.1h11.5l4.2.2a33.1,33.1,0,0,1,4.3.4,26.7,26.7,0,0,1,5.3,1,3.2,3.2,0,0,0,1.1.4,7,7,0,0,0,1.8.5l2.4.7a11.5,11.5,0,0,1,2.1,1.3l1.2,1.1a20.3,20.3,0,0,1,2.5,4c.1.3.4,1,.9,2.5a18.7,18.7,0,0,0,1.1,2.6,18.3,18.3,0,0,1,1.4,2.8l.4,1.3c.3,1,.4,1.6.5,1.8s.7,2.1,1.2,3.9.6,2.3,1.2,5.1c.2.8.4,1.9.5,2.2a17.7,17.7,0,0,1,.4,2.1,22.6,22.6,0,0,1,.3,4.2c0,.2,0,0,.2,3.1s.3,3.9.3,6.2a10.2,10.2,0,0,1-.1,3,13,13,0,0,0-.3,1.3c-.1,1.1-.1,1.5-.2,2.5a18.2,18.2,0,0,1-.4,2.4c-.4,1.9-.5,2.1-.6,2.5l-.7,1.8c-.3.7-.3,1-.5,1.4a3.9,3.9,0,0,0-.6,1.1l-.5,1.1c-.3.6-.5.5-.8,1.1s-.2.7-.4,1-.2.3-1.1.9l-1.2.9-1,.6a4.3,4.3,0,0,1-2.2.6,1.5,1.5,0,0,0-.9.1l-.6.3a2.5,2.5,0,0,1-1.5.3l-2.3.5-3.6.6h-7.4l-2.2.2h-6.8a22.5,22.5,0,0,1-4.8-.4l-2.2-.4-2.9-.4a7.1,7.1,0,0,1-2-.5,5.4,5.4,0,0,1-1.6-.9l-1.8-1-.7-.4a2.3,2.3,0,0,1-.7-1c-.8-1.9-.8-1.7-.9-2s-.3-1.2-.4-1.6l-.3-1.3-.4-.8a4.6,4.6,0,0,1-.4-2,24.1,24.1,0,0,0-.3-2.4c-.1-1.3,0-1.4-.1-2.6s-.2-1.2-.2-1.7.1-1.6.1-2.4,0-1.1.1-3.3.1-2.1.2-4.1a4.1,4.1,0,0,1,.1-1c.1-.6.1-1,.2-1.6a9.8,9.8,0,0,0,.4-2,11,11,0,0,1,.4-2.1,13,13,0,0,1,.3-1.3c.3-.6.4-.6.8-1.3a3,3,0,0,1,.4-1c.2-.3.4-.5.5-.5l1.1-.7a4.6,4.6,0,0,1,1.4-.5l.8-.2,2.2-.2a11.6,11.6,0,0,1,3.2.3,3.3,3.3,0,0,1,1.4.4,9.2,9.2,0,0,1,2,1,5.4,5.4,0,0,1,1.5,1.2,1.7,1.7,0,0,1,.3.7v1c-.1.7,0,.8-.1.9s-.9.4-1.2.4l-3.9.4-2.4.5-1.8.7a4.9,4.9,0,0,0-1.3,1.1,3.3,3.3,0,0,0-.7,1.1,9.7,9.7,0,0,0-.9,2.8c-.1,1-.2,1.8-.2,2.3a35.3,35.3,0,0,0,.1,4.3c.1,1.6.2,1.1.6,4.2a15.4,15.4,0,0,0,.6,3.1l1,2.2,1.2,2a13,13,0,0,0,1.7,1.7l1.3.8,1.2.7c.7.3.8.1,1.8.3l2.3.6,1.5.2,3.3.3h2.7c2.9-.1,3.8-.3,6.2-.3h2.1l1.8-.2,2.1-.5a16.9,16.9,0,0,0,3.6-.7l2.5-.9a7.1,7.1,0,0,0,2.1-1.1,4.3,4.3,0,0,0,1.6-1.3l.7-.8c.4-.5.6-.5.9-.9a2.6,2.6,0,0,1,.3-.7,1.5,1.5,0,0,1,.3-.7,7.8,7.8,0,0,0,.7-1.7,6.2,6.2,0,0,0,.4-1.6,10.4,10.4,0,0,0,.6-1.6,10.8,10.8,0,0,0,.5-2.1,5.6,5.6,0,0,0,0-1.3c.1-1.2.2-1.4.4-3.6s.2-2.5.2-3.2-.2-1.4-.2-2.9v-2.8a3.6,3.6,0,0,0-.1-1.4,4.1,4.1,0,0,0-.2-1,11.1,11.1,0,0,1-.4-2.9c-.1-1.2-.3-1.1-1.4-6.4,0,0-.7-3-1.2-4.6l-.2-.3a2.9,2.9,0,0,0-.2-.8c-.1-.3-.2-.3-.5-.8a2.7,2.7,0,0,1-.3-.8l-.2-.7v-.4l-.4-.4-.3-.4c-.2-.2-.1-.3-.2-.5a1.5,1.5,0,0,0-.4-.6,13.4,13.4,0,0,1-1.2-2.4,2.4,2.4,0,0,0-.5-1l-.5-.5-.9-.9-.6-.6c-.5-.3-.6-.2-1-.6s-.2-.3-.5-.5l-.9-.5-1.5-.7-.9-.2a1.5,1.5,0,0,1-.6-.4c-.4-.3-.8-.3-2.4-.6l-1.5-.4-1.8-.2-2.3-.3-1.4-.3H294l-1.9-.2-2-.3H260l-8.6.5-5.5.5-1.9.2-4.1.2h-2l-4.8.4h-1.6l-5.3.3-5.5.3c-3.3.2-5.1.1-8.9.2H187.7a38.1,38.1,0,0,1-5.9-.1l-2.6-.2H166.6l-2,.2-1.6.3h-4.5a12.3,12.3,0,0,1-2.7-.2,90.2,90.2,0,0,0-9.1.3l-4.7.2H129.3l-3.9.2-4.2.3a23.2,23.2,0,0,1-3.1.3h-1.6" transform="translate(-12.6 -14.9)" fill="none" stroke="#000" stroke-miterlimit="10" stroke-width="0.57"/><path d="M108.6,145l2.2.2h6.4l1.6-.2a10,10,0,0,1,2.5,0h3.9a5.5,5.5,0,0,0,1.3,0l.9-.4h.8a6.3,6.3,0,0,1,1.4,0l5.1-.3h4.9l1.3-.2H142a24.6,24.6,0,0,0,2.8,0h42.9a5.9,5.9,0,0,0,1.3-.2h1.8l.9-.2h2.5a2.4,2.4,0,0,1,.9.2h3.2l2.9-.3,1.9-.2h2l1.2.2h.9l3.9-.2h4.7l2.3-.2h7.1s2.8,0,5.3-.2h15.8l.8-.2H255l1.8-.3c1.7-.2,2.3,0,4.5-.2h.7a41.6,41.6,0,0,1,6.3-.3H270l2.6-.3h3.8a48.4,48.4,0,0,1,6.4.2l3.3.2,1.4.2h3.2l1.4.2h1.5l.8.2a10.8,10.8,0,0,0,1.9.4,6.3,6.3,0,0,1,1.3.3l1,.5,1.3.4,1.4.7,1.3.4,1.6.9a13.9,13.9,0,0,1,2.2,1.5,12.4,12.4,0,0,1,1.9,2.1l1.3,1.7,1,1.4.6,1.1.2.6a1.9,1.9,0,0,0,.1.8l.3.4a4.9,4.9,0,0,1,.4,1.1l.6,1.9a15.8,15.8,0,0,0,1,2,1.1,1.1,0,0,0,.2.4l.2.5h.1v.6a1.5,1.5,0,0,0,.2.8,17.5,17.5,0,0,1,.1,3.5,17.3,17.3,0,0,1-1.2,5.5l-.4.8a1.7,1.7,0,0,0-.1.7l-.5,1a23.9,23.9,0,0,1-1.8,2.9,8.1,8.1,0,0,1-1.3,1.5l-.7.6c-.6.5-.6.7-1,1l-.9.5-.8.3-1.2.4a15.6,15.6,0,0,0-2,.6l-1.1.2-2.1.4h-6.3a7.4,7.4,0,0,1-2.2-.4l-1-.5-.9-.4-1.7-1.2a2.8,2.8,0,0,1-.7-1.8,2,2,0,0,1,.1-.5c.2-.4.7-.4.9-.4h.9l.8.2h1.1a21.7,21.7,0,0,0,3.8-.1l1.6-.3h3l1.2-.3,1.9-.5a11.6,11.6,0,0,0,2.1-.9,10.8,10.8,0,0,0,1.9-1.4,9.1,9.1,0,0,0,1.3-1.6,3.6,3.6,0,0,0,.4-.9c.1-.1,0-.1.1-.5s.1-.6.2-.7l.3-.7c0-.2.1-.3.1-.4s.3-1.1.4-1.3a6.2,6.2,0,0,0,.2-2.2,8.2,8.2,0,0,0-.1-2.8,5.7,5.7,0,0,0-.4-1.6,17.3,17.3,0,0,0-1-3,8.5,8.5,0,0,0-.9-1.9l-1.2-1.9a17.9,17.9,0,0,0-1.8-2.4,11.3,11.3,0,0,0-2.7-2.7l-1.3-.7-.8-.4-.7-.2-.6-.3c-.4-.2-.6,0-1.3-.2h-.6l-1.9-.6-2.1-.4L290,145l-1.7-.3h-1.7l-1.1-.2h-1.8l-3.5-.2h-7.7c-1.8.2-2.3,0-4.2.1h-2.5l-6,.3-1.6.3-4.2.3-1.2.2a20,20,0,0,1-3.6.2l-2.4.2h-3.3c-1.8.1-1.7.3-3.8.4H228.5l-1.4-.2h-2.6l-5.8.2h-7.9l-2.3.2-2.5.2h-2.1l-1.4.2h-8.3l-3.9.2h-8.8l-4.7-.2h-6.4l-1.6.2a16.8,16.8,0,0,1-3-.1h-3.9l-1.9-.2H143.7l-1.8.2h-5l-7.3.5h-6.5l-2.5-.2-1.4.2H109.1l-1.2-.2h-1.6" transform="translate(-12.6 -14.9)" fill="none" stroke="#000" stroke-miterlimit="10" stroke-width="0.57"/><path d="M151.5,203.6h4.3l.9-.2h1l.8.2,1,.2h3.8a14.8,14.8,0,0,1,1.9-.3h10.2c2.3-.1,2.7-.3,5.4-.6l7.7-.5h4.3l.8-.2h3l16.4-.9h2.3l3.2-.4,2.5-.2,4.2-.3,4.8-.3,4.9-.7,2.5-.4c2.4-.4,2.9-.7,4.5-1l1-.3a1.9,1.9,0,0,0,1-.4,2.8,2.8,0,0,0,.8-1.2,4.5,4.5,0,0,0,.3-1.1,16.9,16.9,0,0,0,.7-3.7,7.5,7.5,0,0,0,.2-1.1c.1-.7.2-.8.2-1.1a9.9,9.9,0,0,0,.1-2.1v-1.7c0-1.2.1-2,.1-2.5a39.1,39.1,0,0,0-.2-5.7,22,22,0,0,0-.3-3.3l-.2-1.5c-.2-1.3-.1-1.8-.2-3.2a24.1,24.1,0,0,0-.4-3.9c-.1-.2-.2-1-.5-2.1s-.2-.9-.4-1.6a11.2,11.2,0,0,0-.9-2.2c-.5-.9-.8-1.5-1.5-1.8l-.9-.3c-.8-.3-.8-.4-1.1-.4a5.2,5.2,0,0,0-1.4-.2l-1.2-.2h-1a19.6,19.6,0,0,1-3.4-.1c-1.4-.1-1.7,0-8.1.1l-4,.2-3.2.2a18.9,18.9,0,0,1-2.4,0l-4.9.2-2.6.2a26.6,26.6,0,0,0-4,0l-1.8.3a20.6,20.6,0,0,1-3.3-.2l-3.1.2-1.9.3c-1.4.1-2.3,0-3.4,0s-4.7-.1-5.7-.1l-3.9.2-2.1.2-3,.3c-1.4.1,0-.1-2.9,0-.8.1-1.4.1-1.7-.3s-.3-.7-.3-1,.1-.5.4-.7a3.8,3.8,0,0,1,1.2-1.2c.4-.3.8-.4,3.1-.9l1.5-.3a8.8,8.8,0,0,1,2.6-.3h30.2a17.2,17.2,0,0,1,3-.1,25.5,25.5,0,0,0,2.8,0l1.7-.4h2.7l3.2-.2,5.2-.3h1.7c2.8,0,3.3.4,6.4.6a36.9,36.9,0,0,1,4.9.5l1.6.4c.8.2,1,.3,1.2.5l.8.6a2,2,0,0,0,.8.4c.3.1.8.5,1.7,2.3a20.3,20.3,0,0,1,1.2,3.5c.2.8.3,1.4.5,2.3s.4,2.7.5,3.6.1,1,.2,2.9.2,3.2.4,5.4.2,2.3.3,3.4v5.8c-.1,1-.2,1.7-.2,2.1s-.1,1.5-.3,4.3a14.2,14.2,0,0,1-.3,2.5,9.4,9.4,0,0,1-.3,1.6c-.4,1.3-.5,2-.8,2.8a12.3,12.3,0,0,1-.6,1.7,13.3,13.3,0,0,1-.6,1.2l-.4.7-1.1.6-1.1.3a46.9,46.9,0,0,1-6.1.7l-2.4.2-2.4.3-4.6.6-6.1.5-3,.4-4.3.2-4.8.2-3.1.3h-2.1l-7.8.4-3,.2a23.2,23.2,0,0,0-3.7.3,8.8,8.8,0,0,1-1.5.2h-1.3l-3.4.2c-4.6.1-5,.2-5.3.3l-1.8.3h-2.9l-2.6.2-3.1.2-1.4.2H156.3l-2.6-.2" transform="translate(-12.6 -14.9)"/><path d="M134.4,170.3h8.9l2.7.3,1.8.2,3,.9,2,.6,1.8.8.8.3a5.2,5.2,0,0,1,1.5.9l1,.8,1,.5.6.4a2.7,2.7,0,0,1,1,.6l.9,1,.9.9.9.7.9.6c.2.2.2.1,1,.5l1.5.7.5.4a4.1,4.1,0,0,0,1.6.5,2.2,2.2,0,0,0,1.2-.2c.2,0,.1-.1.5-.3l.8-.6c.1-.1.1-.3.3-1.1a13.4,13.4,0,0,1,.4-1.8,2.5,2.5,0,0,0,.1-.8c.1-.3,0-.4,0-.9a1.5,1.5,0,0,1,.1-.6,2,2,0,0,1,.1-.9,20.6,20.6,0,0,1,.2-2.1,6.3,6.3,0,0,0,.2-1.6c.1-.6,0-.5.1-2v-2.6l.3-.7a1.7,1.7,0,0,0,.1-.7,8.6,8.6,0,0,1,.5-1.5c.2-.4.4-.9,1-1s1.1.2,1.2.2a.8.8,0,0,1,.4.4c.2.2.1.4.2.8a3.2,3.2,0,0,0,.2.8c.1.6.2.8.2.9s0,.8.1,1.6a4.1,4.1,0,0,0,.1,1.1,29.3,29.3,0,0,1,.1,3.3,25.5,25.5,0,0,1-.1,3.1c-.1.7-.1.9-.3,2s-.1,1.4-.2,2a16.8,16.8,0,0,1-1.2,4.7,18.6,18.6,0,0,0-1,2,4.1,4.1,0,0,1-.6,1.1l-.8.6a5.3,5.3,0,0,1-2.8.5l-2.2-.7a6.7,6.7,0,0,1-1.5-.6,11.2,11.2,0,0,1-2.3-1.7l-1.8-1.7-1.3-1.1-1.8-1.7-2.2-1.8a11.2,11.2,0,0,0-3.5-1.9l-1.2-.4-1.8-.7-1.1-.3-3-.6-1.2-.3h-5l-6.1.2h-3.4a35.8,35.8,0,0,0-5,.7l-1.6.2h-1.7l-1.4.2h-2.3l-1.7.2h-5.7c-.4,0-.7.1-.9-.1l-.3-.3a1.1,1.1,0,0,1,0-1l.4-.4.4-.4.6-.6.3-.3v-.3c0-.2-.1-.3-.1-.4l.2-.4h.4l.9-.2h11.3l2-.2h5.4Z" transform="translate(-12.6 -14.9)"/><path d="M132.9,263.5l.4.4.6.6.4.6v.8a1.7,1.7,0,0,1-.1.7c0,.2,0,.3-.1.4s-.6.1-1,.1h-4.3l-1.3.2H121c-.5.1-.4,0-1.2-.1H119l-.5-.2c-.3-.2-.5-.1-.9-.3l-.5-.2-.6-.5a4.8,4.8,0,0,1-.6-1.1l-.3-1.2a3.8,3.8,0,0,1-.1-1.2V259a4.9,4.9,0,0,1,.3-1.5l.4-.6a2.4,2.4,0,0,1,1-.3l1.6-.2h.9c1.3-.3,1.8-.1,4-.2l1.5-.2h2.3l5.9-.2h1.8l1.1.2,2.8.3,1.1.2,1.6.4h.9c.4.2.7.6,1,1.7a20,20,0,0,1,.6,2.3,17.6,17.6,0,0,1,.4,2.5,11,11,0,0,1,.1,2.1v1.3c0,.4-.1.9-.1,1s-.1.5-.1.7,0,1.1-.1,1.8a6.8,6.8,0,0,0-.4,1.3,1.7,1.7,0,0,1-.2.5l-.5.4-.5.5-1.6.5-.8.2-1.4.3a22.4,22.4,0,0,1-3.3.3l-5.4.4h-5.8a20.9,20.9,0,0,0-2.4-.1h-1l-1,.2c-.3,0-.5-.2-.8-.3a5.6,5.6,0,0,0-2.2-.2h-1.4l-1.3-.2-1.5-.3c-1-.1-1.1.1-2.2,0l-1.4-.2a12.3,12.3,0,0,0-2.6-.2h-3.1l-2.6.3a26,26,0,0,0-2.8,0H96.2c-1.8.1-2.2-.2-4.2-.2H89.6l-3.9.3H75.5l-1.4.2H55.8l-2.1-.2H52.4l-2.5-.4-1.2-.3-.7-.2c-.1,0-.3-.3-.4-1.6v-.9c0-1.1-.1-1.1-.1-2.1s.1-1.3.1-2.8v-1.1a17,17,0,0,1,.3-2.6c0-.4.1-.8.1-1.2a2.9,2.9,0,0,1,.2-.8,1.9,1.9,0,0,1,.3-1c.3-.6.4-.9.6-1l.7-.4.4-.3.8-.3,1.8-.4h8l2.2.2,2.5.2h.7l.9-.2c.4-.1.5.1,1,.2H69l2.7-.2h4.6c.8.1,1.1.4,1.6.3l.7-.2,1.3-.3c1.4,0,2.8-.2,4.2-.3h1.7l3.9-.2h1.9l2.6.2,3.1.2H98c.5.1.6.3,1.1.3h2a4.2,4.2,0,0,1,.2,1.1,8.3,8.3,0,0,1,.1,1.2,10.7,10.7,0,0,1,0,1.8,2.6,2.6,0,0,1-.1.7,17.8,17.8,0,0,1-.3,2,7.5,7.5,0,0,1-.2,1.1c-.1.7-.1,1.1-.4,1.3H97l-2.8.2a59.3,59.3,0,0,1-6.4.2H60.4c-.3,0-.4.1-.5,0l-.3-.4-.2-.4-.2-.4v-1.9a.8.8,0,0,1,.4-.6h3a1.1,1.1,0,0,1,.6,0H74.6a32.7,32.7,0,0,1,4.2-.1H89.6l2,.2h1.1l.9.2,1.2.2c.4.1.6,0,.7-.1s.2-.3.3-.5a1.9,1.9,0,0,0,0-1.3c-.3-.9-1.4-1.1-1.8-1.2a4.1,4.1,0,0,0-1.9-.1h-1l-1.1-.2-2-.2H78.7c-4-.1-4.5-.3-6.7-.2H69.4c-1.2.1-1.7.3-2.7.3H60.4l-1.4.2-.8.2-.7.2-.3.4-.5.6a2,2,0,0,0-.1.7c-.1,2.6-.1,3.7-.1,3.7a9.4,9.4,0,0,0,.1,1.2,3.2,3.2,0,0,0,.3,1.4c.1.3.2.6.6.7l.6.2c.4.2.4.3.8.4h7a3.6,3.6,0,0,1,1.1.2h4.8l2.3-.2H76l2.2-.2,2.5-.2h9l3.5-.2h3.1c1,0,2-.1,3.1,0h1.1l1.1-.3.6-.3a2.3,2.3,0,0,0,.8-.9l.3-.9a7.2,7.2,0,0,0,.5-2.1v-2.1a44,44,0,0,0,.1-4.6,4.3,4.3,0,0,0-.9-2.9l-.8-.7-1-.2-.8-.3-1.9-.3a25.8,25.8,0,0,0-3.7-.6H85.7l-3.5.2h-.9l-3.2.3H67.3l-2.2-.2H51.8a4.1,4.1,0,0,0-1.5.2h-.6l-1,.2a.8.8,0,0,0-.6.2,1.9,1.9,0,0,0-1.2.9.8.8,0,0,1-.1.4,1.3,1.3,0,0,1-.4.6l-.3.8-.3,1.1c-.2.9-.2.9-.3,1.5a14.4,14.4,0,0,0-.5,3.7,15.8,15.8,0,0,1-.1,1.9,1.3,1.3,0,0,0-.1.7,11.5,11.5,0,0,0-.2,1.6,2.8,2.8,0,0,0,0,1.3c0,1.6-.1,1.5,0,3.8s.2,2.3.7,2.8a1.7,1.7,0,0,0,.7.4,2.4,2.4,0,0,0,1.1.3l.7.2,1.8.4,2.5.2a21.8,21.8,0,0,0,3.4.2h2.4l.8-.2h2a8.6,8.6,0,0,1,1.6.1h1.5c2.3,0,2.5.2,4,.1H79c2.6,0,2.7-.1,3.9,0H102l2-.2h1.5a22.4,22.4,0,0,0,2.6,0h1.4c1.9,0,2.3-.1,3.4,0l1.8.2a26.2,26.2,0,0,0,3.2.2h3.8l1.2.2a36.2,36.2,0,0,0,4.4-.1h12a14.5,14.5,0,0,0,3.2-.3,4.6,4.6,0,0,0,2.7-1.2,2.9,2.9,0,0,0,.7-.8,3.4,3.4,0,0,0,.8-1.4,6.5,6.5,0,0,0,.2-1.6c.1-1.3.2-1.4.2-2.3a8.6,8.6,0,0,0,.1-1.5,6.2,6.2,0,0,0-.1-1.3,12.1,12.1,0,0,0-.1-1.8c0-1.9-.1-1.9-.2-4.1a6.2,6.2,0,0,0-.1-1.5,10.9,10.9,0,0,0-.4-2.2,6,6,0,0,0-1.7-2.3,4.3,4.3,0,0,0-1.4-.8l-1.6-.4-1.2-.2-2-.3H123.7l-.6.3h-5.2a9.8,9.8,0,0,0-1.9.5l-1.1.4-.6.4-.4.5-.5.8v.6c-.1.2-.2.3-.2.5a1.5,1.5,0,0,0-.1.7,7.5,7.5,0,0,0-.1,1.2,4.6,4.6,0,0,0-.2,1.3,19.2,19.2,0,0,0-.1,2,8.4,8.4,0,0,0,0,2.5,4.7,4.7,0,0,1,.3.9,5.3,5.3,0,0,0,.6,1.3l.4.8,1,.7,1.1.7a4.5,4.5,0,0,0,1.5.6,6.8,6.8,0,0,0,1.8.2h14.8a13,13,0,0,0,1.5-.3l.5-.2a4.6,4.6,0,0,0,1-1,2.6,2.6,0,0,0,.3-.7.9.9,0,0,0,.1-.5,7,7,0,0,1,.3-1.4,1.4,1.4,0,0,0,0-.9,4.1,4.1,0,0,0-.2-1.6c-.1-.1-.1,0-.8-1l-.5-.7a2.8,2.8,0,0,0-1-.6H133a4.1,4.1,0,0,0-1.6.2c-.2.2-.7.4-.7.8s.5.8.5.9l1.1.3Z" transform="translate(-12.6 -14.9)"/><path d="M112.7,228a17,17,0,0,0-2.1-1.5l-3-1.4-3.8-1.9-2.6-1.4-2.1-1-1.1-.5a8.3,8.3,0,0,0-2-.2h-.9a1.7,1.7,0,0,1-1-.3c-1.8-.7.8.6-3.6-1.3l-3.7-1.7-2.9-1.1a14.8,14.8,0,0,1-2.2-1.1,19.5,19.5,0,0,1-3.8-2.9l-3-2.8a15.8,15.8,0,0,1-3.1-4.7,21.6,21.6,0,0,1-1-5.2,6.6,6.6,0,0,1-.1-2.4c.1-.5.2-.6.4-1.5s.1-1.1.2-1.7a9.2,9.2,0,0,1,.8-1.7c.4-.6.5-.5,1-1.1s.5-1,1.2-2l.9-1.1,1.2-.8,1.7-.3h1.7a17.5,17.5,0,0,0,3.6-.6l1.7-.5,2.8-.3h2.3a16,16,0,0,1,2.1-.5h3.1c1.2-.2,2.5-.1,5.1-.2h6l2.7.2,3.8.2a25.6,25.6,0,0,0,2.7.5h1.8l2.8.2,2.2.3,4.5.6h1.4l2.5.4,3.1.4,3.6.5,2.8.6a26.1,26.1,0,0,1,4.7,1.6l1.9,1.1,1.3,1.1a7.8,7.8,0,0,1,1.2,1.9c.4.9.3.8.8,1.8a9.1,9.1,0,0,1,.7,1.4l.4,1.1a10.8,10.8,0,0,1,.5,1.7c0,.3-.1.8-.2,1.8a3.2,3.2,0,0,0-.2,1.2,3.8,3.8,0,0,0,.1,1.4c.1.5.3,1.4,2,3.2a11.4,11.4,0,0,0,3.9,3.1l2.4.7a21.3,21.3,0,0,0,3.1.7l3.8.4a9.9,9.9,0,0,1,2.3.2,8,8,0,0,1,2.5,1.1,36,36,0,0,1,3,2.1l.9.6c.3.3.2.4.6.7s.6.4.9.8.2.4.4.7l.9.5,1,.6a3,3,0,0,1,.5,1c.2.7.3,1.2.4,1.4a2.5,2.5,0,0,0,.1.8,5.1,5.1,0,0,1,.2.9,9.5,9.5,0,0,1,.2,2.1c0,.2-.1.7-.2,1.5s-.1.7-.1.9" transform="translate(-12.6 -14.9)" fill="none" stroke="#000" stroke-miterlimit="10" stroke-width="0.57"/><path d="M173.6,157.3a9.5,9.5,0,0,1,0,1.7,4.7,4.7,0,0,1-.2,1.8,4.1,4.1,0,0,1-1.1,1.2l-1,1-.6.6-1,.6a6.6,6.6,0,0,1-3.1.3,12.4,12.4,0,0,1-2.3-.4" transform="translate(-12.6 -14.9)" fill="none" stroke="#000" stroke-miterlimit="10" stroke-width="0.57"/><path d="M160.8,148c-.9,1.5-1.2,2.3-1.4,2.6l-.2.6c-.3.6-.4.6-.4.8a1.7,1.7,0,0,0,0,1,1.4,1.4,0,0,0,.2.7" transform="translate(-12.6 -14.9)" fill="none" stroke="#000" stroke-miterlimit="10" stroke-width="0.57"/><path d="M174.2,148a13.6,13.6,0,0,1-.1,2.8l-.3,2.7" transform="translate(-12.6 -14.9)" fill="none" stroke="#000" stroke-miterlimit="10" stroke-width="0.57"/><path d="M133.2,230.8l2.4.7c2.9.9,5.4,1.4,7.2,1.8l3.3.5" transform="translate(-12.6 -14.9)" fill="none" stroke="#000" stroke-miterlimit="10" stroke-width="0.57"/><path d="M177.5,231.6a4.4,4.4,0,0,1-1.2,1.1,5.6,5.6,0,0,1-2.5.8c-1.4.2-1.7-.1-2.6.2a3.7,3.7,0,0,0-1.5,1.1" transform="translate(-12.6 -14.9)" fill="none" stroke="#000" stroke-miterlimit="10" stroke-width="0.57"/></g></svg>