<svg xmlns="http://www.w3.org/2000/svg" viewBox="0 0 827.4 928.4"><g id="scale-1:100"><path d="M696.9,897.5v9.9H555.2v-9.9" transform="translate(-16.5 -17.9)" fill="none" stroke="#13130a" stroke-miterlimit="10" stroke-width="0.5"/><line x1="567" y1="879.6" x2="567" y2="889.6" fill="none" stroke="#13130a" stroke-miterlimit="10" stroke-width="0.5"/><line x1="595.3" y1="879.6" x2="595.3" y2="889.6" fill="none" stroke="#13130a" stroke-miterlimit="10" stroke-width="0.5"/><line x1="623.7" y1="879.6" x2="623.7" y2="889.5" fill="none" stroke="#13130a" stroke-miterlimit="10" stroke-width="0.5"/><line x1="652" y1="879.6" x2="652" y2="889.5" fill="none" stroke="#13130a" stroke-miterlimit="10" stroke-width="0.5"/><text transform="translate(535 875.1)" font-size="14.17" fill="#13130a" font-family="AdobeMingStd-Light-B5pc-H, Adobe Ming Std">0</text><text transform="translate(677 875.1)" font-size="14.17" fill="#13130a" font-family="AdobeMingStd-Light-B5pc-H, Adobe Ming Std">5m</text></g><g id="outline"><path d="M370.5,26.3q-7.2,93-14.2,185.9l-196.7,5.7L148.5,419.6,17,428.1" transform="translate(-16.5 -17.9)" fill="none" stroke="#000" stroke-linecap="round" stroke-linejoin="round" stroke-width="0.85"/><path d="M516.4,24.3q-1.6,93-3.2,186.1l192-4.1q-2.4,100.1-5,200l143.3,4.4" transform="translate(-16.5 -17.9)" fill="none" stroke="#000" stroke-linecap="round" stroke-linejoin="round" stroke-width="0.85"/><path d="M831.3,557,688,560.2q-7.1,97.2-13.9,194.3l-200.6-1.4Q469.2,847,465,940.8" transform="translate(-16.5 -17.9)" fill="none" stroke="#000" stroke-linecap="round" stroke-linejoin="round" stroke-width="0.85"/><path d="M316,945.9q3.5-90.9,7.1-181.8l-185.6-6.5q2.4-92.6,4.9-185.2l-115.3.7" transform="translate(-16.5 -17.9)" fill="none" stroke="#000" stroke-linecap="round" stroke-linejoin="round" stroke-width="0.85"/><path d="M534.9,433.1a89.9,89.9,0,0,1,2.6,13.8c.3,3.6-.1,7-.8,13.8-.3,2.6-.9,7.8-2.1,14-.4,2-1.1,5.1-1.8,9.6-.1.7-.4,2.2-.7,4s-.5,3.9-1,6.7-.2,1.3-.6,4.1-.6,3.8-.8,4.7c-.6,3-.8,2.9-1.1,4.8a31.4,31.4,0,0,1-.3,3.8c-.1,1.1-.2,2-.4,3.1-.8,4.8-.9,5-1.2,6.7s-.5,5-.6,6.7-.2,3.8-.2,6.1a45.4,45.4,0,0,1,.2,4.9,25.7,25.7,0,0,1-.7,4,19.8,19.8,0,0,1-.8,3.3,15.8,15.8,0,0,1-2.3,5.6,15.5,15.5,0,0,1-1.9,2.1,16.2,16.2,0,0,1-1.9,1.3,11.7,11.7,0,0,0-2.3,2.7,96.8,96.8,0,0,1-6.4,7.7,104.9,104.9,0,0,1-7.2,8.3c-2.1,2.1-3.3,3.2-6.3,6.3l-3.3,3.5A164.9,164.9,0,0,1,480.5,597a71.7,71.7,0,0,1-6.1,5.1,48.6,48.6,0,0,1-7.7,5.1,70.4,70.4,0,0,1-9.7,4.2c-3.4,1.3-6.2,2.2-8.6,3l-7.3,2.3c-5,1.5-6.4,1.8-9.2,3s-1.8,1.1-4.2,2.1a57.7,57.7,0,0,1-9.1,3.1,58,58,0,0,1-6.8,1.9,38,38,0,0,1-6.2,1.1,37.5,37.5,0,0,1-7.5,0,65.6,65.6,0,0,1-8.1-.8l-9-1.4-5.1-.6c-3.4-.5-5.5-.9-8.4-1.5-6.7-1.2-7.3-1.1-10.4-1.7s-3.4-1-13.9-4.2c-4.9-1.5-17.8-5.4-20.6-6.1l-1.7-.6-2.5-.9c-1.7-.6-2.2-.3-4.7-.9l-1.4-.4-1.7-.5a6.2,6.2,0,0,1-2.2-1.6l-1-1.3-.8-1.5c-1.5-3.1-2.4-5.2-2.4-5.2s-1.5-3.9-2.5-6.1-1.5-3.1-2.8-5.7c-2.7-5.1-2.9-5.1-4.6-8.5s-1.5-3.4-3.2-6.7c0-.1-.9-1.7-2.6-4.9l-2.8-5.4-1.5-3c-3.4-6.6-5-9.9-6.4-12a14.3,14.3,0,0,1-1-1.9,17.7,17.7,0,0,1-.8-3.1c-.1-.3-.2-.6-1.4-3.5s-1.3-3.2-1.6-4c-1.2-3-1.2-2.5-2-4.5s-1.4-3.6-1.9-4.5l-.4-.9-.3-.5c0-.2-.1-.5-.1-1a2.5,2.5,0,0,1-.1-.9c0-.7-.1-1.2-.2-2.2s-.1-1.1-.4-5.3c-.1-.8-.1-1.3-.2-2a11.8,11.8,0,0,0-.2-1.9,16,16,0,0,1-.2-2.2c0-.4.1-.8.2-1.6a14.2,14.2,0,0,1,.1-1.5l.7-5.1c.3-2.3.2-2.1.6-5.8.2-1.6.4-3.4.8-5.8a61.7,61.7,0,0,1,1.1-6.6c.2-1.2.2-1.1.4-2s.6-3.7.9-6.7a38.4,38.4,0,0,0,.3-5.2,10.6,10.6,0,0,0-.1-3.1,13.6,13.6,0,0,0-.4-1.7c-.1-.8,0-1.2-.1-2.5s-.1-.8-.1-1.9c-.5-7.3-.6-7.7-.7-9.9-.1-5.5.3-8.5.1-10.7a7.9,7.9,0,0,1,0-1.6,10.8,10.8,0,0,1,.5-2.1c.5-1.3.8-1.8,1.7-3.8a23,23,0,0,0,1.2-2.5,19.9,19.9,0,0,1,.9-2.6,7.2,7.2,0,0,1,1-1.5l1.4-1.5a13,13,0,0,0,1.5-1.9c.4-.8.4-1.1.9-2.3A7.1,7.1,0,0,1,281,416a36.6,36.6,0,0,1,2.6-4.4c2-3.3,1.9-4.1,5.1-10,.8-1.5.5-.9,3.5-6s2.9-5.3,3.9-6.9c2.6-4.4,4.9-7.6,7.3-11.1s3.2-4.4,4.6-6.1l5.6-5.9,4-4.3a52.1,52.1,0,0,1,6.5-5.3,104,104,0,0,1,13.8-8.7c1.7-.9,3.4-1.6,3.4-1.6l2.1-.7c2.8-.9,4.5-2.5,6.7-3.8l7-2.8c6.8-2.7,8.2-3,9.6-3.3a38.9,38.9,0,0,1,5.1-.6c1.8,0,1.9.1,3.7,0a37.6,37.6,0,0,0,5.7-.7c2.3-.4,2.5-.7,4.5-1l3.7-.3c7.2-.3,5.9-.5,16-.7a112,112,0,0,1,12.4.1,61.6,61.6,0,0,1,7.3.8c4.3.8,7.6,2,14,4.4a88.4,88.4,0,0,1,11.1,4.5,44.8,44.8,0,0,1,7.8,4.5l5.1,4.4,6.6,5.7a105.1,105.1,0,0,1,8,7.3l3.1,3c1.8,1.7,2.7,2.3,5,4.2a51.7,51.7,0,0,1,5.6,4.9c2,1.9,1.6,1.9,4.9,5.4s2.7,2.7,6,6.3c2,2.1,2.4,2.6,3.7,3.8s2.1,1.9,3.2,3.2,1.3,1.7,2.8,3.5,1.4,1.3,3.7,3.9a35.6,35.6,0,0,1,2.8,3.2l1.6,2.2c2.8,4.1,3.5,4.7,6.5,9.2a21.4,21.4,0,0,1,2,3,32.7,32.7,0,0,0,2.3,3.6,16.7,16.7,0,0,1,1.2,1.6,11,11,0,0,1,1.3,2.5,22.1,22.1,0,0,1,.9,3.7A13.6,13.6,0,0,0,534.9,433.1Z" transform="translate(-16.5 -17.9)" fill="none" stroke="#000" stroke-miterlimit="10" stroke-width="0.57"/><path d="M560.4,316.9l5.6-.7c-.1,1.8-.3,3.7-.4,5.6" transform="translate(-16.5 -17.9)" fill="none" stroke="#000" stroke-linecap="round" stroke-linejoin="round" stroke-width="0.57"/><path d="M564.9,330.1c-.8,10.8-1.7,23.9-2.8,38.5-2.6,37.2-3.9,55.7-5,80.6-1.6,35.7-.7,34.6-2.3,58.2-1.4,20.5-2.7,29.8-5.8,62.2-1.7,18.1-3,33.7-4,45.5" transform="translate(-16.5 -17.9)" fill="none" stroke="#000" stroke-linecap="round" stroke-linejoin="round" stroke-width="0.57" stroke-dasharray="11.04 8.28"/><path d="M544.7,619.2c-.2,2-.4,3.9-.5,5.6l-5.7.5" transform="translate(-16.5 -17.9)" fill="none" stroke="#000" stroke-linecap="round" stroke-linejoin="round" stroke-width="0.57"/><path d="M530.1,626c-38.6,3-66,5.3-78.9,6.5-2.2.1-8.3.7-16.6,1.1-12.1.6-21.2.6-24.5.5-24.6-.1-31.8,1.5-57.9,1.6-6.4,0-10.5-.1-49.2-1.7l-44.7-1.9" transform="translate(-16.5 -17.9)" fill="none" stroke="#000" stroke-linecap="round" stroke-linejoin="round" stroke-width="0.57" stroke-dasharray="11.28 8.46"/><path d="M254.1,631.9l-5.7-.3c-.1-1.9-.1-3.7-.2-5.6" transform="translate(-16.5 -17.9)" fill="none" stroke="#000" stroke-linecap="round" stroke-linejoin="round" stroke-width="0.57"/><path d="M247.9,617.2l-.6-17.4q-1.7-38.5-4.4-75.6c2.9-35.3,5.7-70.5,8.5-105.8l6.6-83.1" transform="translate(-16.5 -17.9)" fill="none" stroke="#000" stroke-linecap="round" stroke-linejoin="round" stroke-width="0.57" stroke-dasharray="11.72 8.79"/><path d="M258.3,330.9c.2-1.9.3-3.8.5-5.7l5.6-.9" transform="translate(-16.5 -17.9)" fill="none" stroke="#000" stroke-linecap="round" stroke-linejoin="round" stroke-width="0.57"/><path d="M272.6,323l106.8-16.8,44,10.3L470,327.4l86.2-10.1" transform="translate(-16.5 -17.9)" fill="none" stroke="#000" stroke-linecap="round" stroke-linejoin="round" stroke-width="0.57" stroke-dasharray="11.13 8.35"/><path d="M604.8,516.3l-28.1-.2q-7.2,64.4-14.5,128.8l-126,9.5q-3,105.3-6.2,210.6H341.9q4.7-102.7,9.1-205.4l-121.3-1.4,2.4-134-56.9-1.1c-12.7-24-25.3-48-38-71.9l93.1-9.6q6.8-68.1,13.4-136.3l134.2-12.5,7.5-73,86.4,53.7c.3,10.2.6,20.4,1,30.6l109.5-2.7-.5,84c0,13.2-.1,26.3-.2,39.4l11.9,1.2C597.3,456.1,601,486.2,604.8,516.3Z" transform="translate(-16.5 -17.9)" fill="none" stroke="#000" stroke-linecap="round" stroke-linejoin="round" stroke-width="0.57"/><path d="M547.5,464.4a3,3,0,0,1,.5,1c.3,1,.4,1.7.5,1.9a24.3,24.3,0,0,0,1.3,3.6,8.2,8.2,0,0,0,.9,1.7l1.2,2,.6,1.2a2.6,2.6,0,0,1,.3,1.1,2.8,2.8,0,0,1-.6,2.1c-.3.3-.5.6-.7.6a1.1,1.1,0,0,1-.9-.7,9.2,9.2,0,0,1-1.3-2.1c-.2-.3-.9-1.5-2.2-4l-1.4-2.4a5.4,5.4,0,0,1-.6-1.3c-.1-.1-.1-.3-.3-1.1l-.5-1.7a4.8,4.8,0,0,0-.6-1.4,21.9,21.9,0,0,0-1.1-2.4c-.9-1.8-.7-1.7-2.1-4.6l-1.1-2.3c-.1-.3-.4-.8-.7-1.6a4.6,4.6,0,0,1-.4-1.8c.1-.4.5-1.1.9-1.1s.6.7,1.6,2.5.6,1,1.4,2.7a12.6,12.6,0,0,1,1,1.8,9.1,9.1,0,0,0,.7,1.4c.1.3.2.3,1,1.3l1.1,1.4a10.5,10.5,0,0,1,.7,1.1A3.8,3.8,0,0,1,547.5,464.4Z" transform="translate(-16.5 -17.9)" fill="none" stroke="#000" stroke-linecap="round" stroke-linejoin="round" stroke-width="0.57"/><path d="M403.3,458.3a1.2,1.2,0,0,1-.8.2,1.9,1.9,0,0,1-.9-.3l-1.4-.9-2.9-2.8-1.3-1.3c-1.2-1.2-1.9-1.5-3.3-2.7l-2.2-1.9c-6.2-5.5-9.1-7.6-13.1-11.8l-1.9-2-5.2-4.7-3.6-3.1-2.1-1.8c-1-1-1-1.2-2-2.1a13.6,13.6,0,0,0-1.2-1.2c-.2-.3-.5-.5-.6-.9a2,2,0,0,1,.1-.7,2.6,2.6,0,0,1,.7-1,.8.8,0,0,1,.8-.3l.6.4.7.7,1.4,1.5a13.8,13.8,0,0,0,1.7,1.5s1.9,1.4,3.9,3.2l2.3,2.2c1.1,1,3.6,3.4,6.7,6l3.4,2.7s1.5,1.2,3,2.7l1.2,1.3.7,1.2a14.5,14.5,0,0,0,1.3,1.8,15.6,15.6,0,0,0,1.3,1.3,55.9,55.9,0,0,0,5,4.2l3.8,2.9a23.7,23.7,0,0,1,1.9,1.8,7.8,7.8,0,0,1,1.8,2.1,2.2,2.2,0,0,1,.3.9C403.4,457.7,403.5,458.1,403.3,458.3Z" transform="translate(-16.5 -17.9)" fill="none" stroke="#000" stroke-linecap="round" stroke-linejoin="round" stroke-width="0.57"/><path d="M358,426.7c.2.8.7,2.1,1.7,4.7s1.3,3.5,1.7,4.6.9,1.8,1.7,3.7,1.6,4,2,5.1a38.1,38.1,0,0,1,1.3,4.2c.4,1.5.2,1.2.8,4.5a4,4,0,0,1,.2,1.5c-.1.5-.1,1-.2,1.4a5.8,5.8,0,0,1-.5,1.1,1.4,1.4,0,0,1-1.1.5c-.4.1-.8.2-1,0s-.1-.1-.1-.7v-.6a15.8,15.8,0,0,0-.1-3,33.9,33.9,0,0,0-1-4.8,24.1,24.1,0,0,0-1.1-3.3c-.5-1.4-.7-1.8-1.7-4.1s-1.8-4.2-2.4-5.9-.5-1.5-1-3.4-1.1-3.8-1.7-5.4l-1.2-2.7-1.2-2.2c-.5-1-.7-1.4-.6-1.6s.7-.1,1.7.1l1.3.3a2.9,2.9,0,0,1,.9,1.1,6.7,6.7,0,0,1,.6,1.6C357.2,424.5,357.7,425.6,358,426.7Z" transform="translate(-16.5 -17.9)" fill="none" stroke="#000" stroke-linecap="round" stroke-linejoin="round" stroke-width="0.57"/><path d="M287.1,446.1a2,2,0,0,0,.2.7,3.2,3.2,0,0,1,0,1,5,5,0,0,1-.9,2,2.7,2.7,0,0,1-.7.8,1,1,0,0,1-.6.5c-.1,0-.7.2-1-.1s-.2-.5-.2-1.1.1-.6.2-.9a16.7,16.7,0,0,1,.1-1.9c.1-.4.1-.7.2-1.1a6.1,6.1,0,0,1,.3-1.1l.4-1.5a14.9,14.9,0,0,0,.4-1.8,9.5,9.5,0,0,0,0-1.7c0-.4-.2-.7,0-.9s.2-.2,1.1-.3,1.1-.3,1.2-.1.1.2,0,.7-.1,1-.2,1.6-.1,1.2-.2,1.4-.2.5-.4,1.3-.1.4-.1.7a1.6,1.6,0,0,0,0,.7A4.3,4.3,0,0,0,287.1,446.1Z" transform="translate(-16.5 -17.9)" fill="none" stroke="#000" stroke-linecap="round" stroke-linejoin="round" stroke-width="0.57"/><path d="M434.3,280.4l1,1.4.9,1.3h0c1.2,1.6,2.4,2.3,2.2,2.8s-1.1.4-1.2.4L436,286l-1.1-.7-1.3-.9c-.3-.5-.2-.8-.5-2s-.3-.9-.4-1.2" transform="translate(-16.5 -17.9)" fill="none" stroke="#000" stroke-linecap="round" stroke-linejoin="round" stroke-width="0.57"/><path d="M432.6,281.2a3.5,3.5,0,0,1-1.2-.3l-.7-.5a1.7,1.7,0,0,1-.3-1c-.1-.4,0-.6.1-.7a1.6,1.6,0,0,1,.6-.8c.3-.3.5-.1,1.8-.2s1-.1,1.2.1a1.5,1.5,0,0,1,.3.7c0,.2.1.5.1.8a2.7,2.7,0,0,1-.2,1.2A2.2,2.2,0,0,1,432.6,281.2Z" transform="translate(-16.5 -17.9)" fill="none" stroke="#000" stroke-linecap="round" stroke-linejoin="round" stroke-width="0.57"/><path d="M431.4,277.8a12.8,12.8,0,0,1-.2-1.7V274c0-.8.1-.7.1-1.5a10.3,10.3,0,0,1,.1-1.9,14.1,14.1,0,0,0,.2-1.8c.1-1.2,0-1.6.3-1.8s1,.1,1.4.5a3.2,3.2,0,0,1,.6,1.7,7.1,7.1,0,0,1-.1,1.5c-.2,1.9-.2,2.8-.2,2.9a13.5,13.5,0,0,0-.2,2,6.5,6.5,0,0,0,0,2" transform="translate(-16.5 -17.9)" fill="none" stroke="#000" stroke-linecap="round" stroke-linejoin="round" stroke-width="0.57"/><path d="M422.2,273.9a10.3,10.3,0,0,1,2.7,4.7,6.3,6.3,0,0,1,.3,3.1,7.1,7.1,0,0,1-2.1,3.2c-.8.9-2.5,2.6-3.1,2.2s-.1-.4-.1-.7a4,4,0,0,1,1-2.3,11.5,11.5,0,0,0,1.5-2.3,4.2,4.2,0,0,0,.2-1.4,7.8,7.8,0,0,0-1.5-4.4,20.5,20.5,0,0,0-3-3.1l-2.7-2.6-1.2-1.2c-.6-.7-.8-1-.8-1.4a2.3,2.3,0,0,1,.1-1.1c.3-1.2.4-1.8.7-1.9s1.1,1.2,1.4,1.9.2.9.4,1.5.6.8,2.4,2.3l2.4,2A10,10,0,0,1,422.2,273.9Z" transform="translate(-16.5 -17.9)" fill="none" stroke="#000" stroke-linecap="round" stroke-linejoin="round" stroke-width="0.57"/><path d="M410.5,272.6a2,2,0,0,1,.1.9c0,.4.1.8.1,1.2a33.4,33.4,0,0,1,.7,3.4,7.7,7.7,0,0,0,.2,1.5c0,.4.1.7,0,.9H411a1.5,1.5,0,0,1-.9-.3c-.2-.2-.3-.4-.6-1.5s-.4-1.3-.5-1.5v-1.6c-.1-.8-.1-1.2-.2-1.7s-.1-.6-.1-.9.1-.9.5-1.1l.5.2A1.5,1.5,0,0,1,410.5,272.6Z" transform="translate(-16.5 -17.9)" fill="none" stroke="#000" stroke-linecap="round" stroke-linejoin="round" stroke-width="0.57"/><path d="M399.9,286.1a4.6,4.6,0,0,1-1.6,2.2,2.5,2.5,0,0,1-1.7.5,2.9,2.9,0,0,1-2.1-1.6,4.8,4.8,0,0,1-.4-3.1,3.8,3.8,0,0,1,.4-1.3,3.6,3.6,0,0,1,1.3-1.7,3.2,3.2,0,0,1,2-.7,2.9,2.9,0,0,1,1.1.6,3.6,3.6,0,0,1,1.1,1.8A5.3,5.3,0,0,1,399.9,286.1Z" transform="translate(-16.5 -17.9)" fill="none" stroke="#000" stroke-linecap="round" stroke-linejoin="round" stroke-width="0.57"/><path d="M409.2,288.9a2.1,2.1,0,0,1-1.1-1.6,2.3,2.3,0,0,1,.4-2.1,2.6,2.6,0,0,1,1.6-.9,3.3,3.3,0,0,1,1.9.4,2.3,2.3,0,0,1,1.2,1.2,2.2,2.2,0,0,1-.2,1.9,2.7,2.7,0,0,1-.7.8,3.4,3.4,0,0,1-2,.6A2,2,0,0,1,409.2,288.9Z" transform="translate(-16.5 -17.9)" fill="none" stroke="#000" stroke-linecap="round" stroke-linejoin="round" stroke-width="0.57"/><path d="M401.3,287.1a3.2,3.2,0,0,1,.6-1.6,3.6,3.6,0,0,1,1.4-1.8,2.2,2.2,0,0,1,1.3-.5,2.2,2.2,0,0,1,1.4.7,1.9,1.9,0,0,1,.3.9c.1.8-.1.9,0,1.5s.5.8.4,1.3a1.9,1.9,0,0,1-1.1,1.5,3.2,3.2,0,0,1-2,.3A3,3,0,0,1,401.3,287.1Z" transform="translate(-16.5 -17.9)" fill="none" stroke="#000" stroke-linecap="round" stroke-linejoin="round" stroke-width="0.57"/><line x1="352.2" y1="442.1" x2="365.6" y2="456.6" fill="none" stroke="#1d1d1b" stroke-linecap="round" stroke-linejoin="round" stroke-width="0.28"/><line x1="373.1" y1="435.3" x2="369.3" y2="455.9" fill="none" stroke="#1d1d1b" stroke-linecap="round" stroke-linejoin="round" stroke-width="0.28"/><text transform="translate(359.6 468.8)" font-size="14.17" fill="#1d1d1b" font-family="AdobeSongStd-Light-GBpc-EUC-H, Adobe Song Std">9.5</text><text transform="translate(262.4 452)" font-size="14.17" fill="#1d1d1b" font-family="AdobeSongStd-Light-GBpc-EUC-H, Adobe Song Std">9.8</text><text transform="translate(519.7 476)" font-size="14.17" fill="#1d1d1b" font-family="AdobeSongStd-Light-GBpc-EUC-H, Adobe Song Std">9.4</text><text transform="translate(565.3 560.6)" font-size="14.17" fill="#1d1d1b" font-family="AdobeSongStd-Light-GBpc-EUC-H, Adobe Song Std">9.6</text><text transform="translate(399 216.2)" font-size="14.17" fill="#1d1d1b" font-family="AdobeSongStd-Light-GBpc-EUC-H, Adobe Song Std">9.3</text><text transform="translate(440 241.3)" font-size="14.17" fill="#1d1d1b" font-family="AdobeSongStd-Light-GBpc-EUC-H, Adobe Song Std">9.35</text><text transform="translate(410.1 296.5)" font-size="14.17" fill="#1d1d1b" font-family="AdobeSongStd-Light-GBpc-EUC-H, Adobe Song Std">9.15</text><text transform="translate(383.5 309.1)" font-size="14.17" fill="#1d1d1b" font-family="AdobeSongStd-Light-GBpc-EUC-H, Adobe Song Std">9.1</text><text transform="translate(331.9 268.9)" font-size="14.17" fill="#1d1d1b" font-family="AdobeSongStd-Light-GBpc-EUC-H, Adobe Song Std">9.15</text><path d="M580.1,539a2.5,2.5,0,0,1-1.3,1.1,5.9,5.9,0,0,1-1.7.7,2,2,0,0,1-1.1,0,1.6,1.6,0,0,1-.9-1.1,1.7,1.7,0,0,1,.1-1.5c.2-.4.8-.7,1.8-1.2s1-.4,1.1-.4a2.3,2.3,0,0,1,1.6.9A1.9,1.9,0,0,1,580.1,539Z" transform="translate(-16.5 -17.9)" fill="none" stroke="#000" stroke-linecap="round" stroke-linejoin="round" stroke-width="0.57"/><line x1="562.6" y1="525.7" x2="573.7" y2="546.6" fill="none" stroke="#000" stroke-linecap="round" stroke-linejoin="round" stroke-width="0.28"/><text transform="matrix(1, -0.08, 0.08, 1, 492.49, 629.18)" font-size="17.01" fill="#1d1d1b" font-family="AdobeSongStd-Light-GBpc-EUC-H, Adobe Song Std">9M</text><text transform="translate(471.7 609.4) rotate(-4.6)" font-size="17.01" fill="#1d1d1b" font-family="AdobeSongStd-Light-GBpc-EUC-H, Adobe Song Std">12.5M</text><path d="M391.6,284.3l-17.1-.2" transform="translate(-16.5 -17.9)" fill="none" stroke="#000" stroke-miterlimit="10" stroke-width="0.28"/><path d="M403.8,292.2c.8,8.3,1.7,16.6,2.5,24.9" transform="translate(-16.5 -17.9)" fill="none" stroke="#000" stroke-miterlimit="10" stroke-width="0.28"/><path d="M414.1,289.9l19.1,11" transform="translate(-16.5 -17.9)" fill="none" stroke="#000" stroke-miterlimit="10" stroke-width="0.28"/><path d="M437.9,279l29.7-15.6" transform="translate(-16.5 -17.9)" fill="none" stroke="#000" stroke-miterlimit="10" stroke-width="0.28"/><path d="M418.3,265.7l3.9-26.9" transform="translate(-16.5 -17.9)" fill="none" stroke="#000" stroke-miterlimit="10" stroke-width="0.28"/><path d="M422.5,281.2a1.9,1.9,0,0,1,.7-.8l1.1-.2.9-.2" transform="translate(-16.5 -17.9)" fill="none" stroke="#000" stroke-linecap="round" stroke-linejoin="round" stroke-width="0.57"/><path d="M406.3,285.9a.6.6,0,0,0-.7.1c-.1,0-.5.2-.5.4s.4.4.5.4.7-.1.8-.1" transform="translate(-16.5 -17.9)" fill="none" stroke="#000" stroke-linecap="round" stroke-linejoin="round" stroke-width="0.57"/><path d="M394.2,283.5c.2.1.4.1.6.3s.4.3.4.6-.4.7-1.2.8" transform="translate(-16.5 -17.9)" fill="none" stroke="#000" stroke-linecap="round" stroke-linejoin="round" stroke-width="0.57"/></g><g id="compass"><path d="M705.1,58.3q35.7,85.5,71.2,171.2" transform="translate(-16.5 -17.9)" fill="none" stroke="#1d1d1b" stroke-linecap="round" stroke-linejoin="round" stroke-width="0.57"/><polygon points="685.9 44.6 683.8 28.8 693.5 41.4 685.9 44.6" fill="#1d1d1b"/><path d="M687.1,145.8l89-39.6" transform="translate(-16.5 -17.9)" fill="none" stroke="#1d1d1b" stroke-linecap="round" stroke-linejoin="round" stroke-width="0.57"/><circle cx="716.4" cy="107.5" r="26.2" fill="none" stroke="#1d1d1b" stroke-linecap="round" stroke-linejoin="round" stroke-width="0.57"/><text transform="translate(673.8 21.5) rotate(-24.9)" font-size="19.84" fill="#1d1d1b" font-family="ArialMT, Arial">N</text></g></svg>