<svg xmlns="http://www.w3.org/2000/svg" viewBox="0 0 1000.1 1387.3"><g id="scale-1:100"><path d="M860.9,1350.6v10H719.1v-10" transform="translate(-24.8 -47.7)" fill="none" stroke="#040000" stroke-miterlimit="10" stroke-width="0.5"/><line x1="722.7" y1="1303" x2="722.7" y2="1312.9" fill="none" stroke="#040000" stroke-miterlimit="10" stroke-width="0.5"/><line x1="751" y1="1303" x2="751" y2="1312.9" fill="none" stroke="#040000" stroke-miterlimit="10" stroke-width="0.5"/><line x1="779.4" y1="1303" x2="779.4" y2="1312.9" fill="none" stroke="#040000" stroke-miterlimit="10" stroke-width="0.5"/><line x1="807.7" y1="1303" x2="807.7" y2="1312.9" fill="none" stroke="#040000" stroke-miterlimit="10" stroke-width="0.5"/><text transform="translate(690.7 1298.5)" font-size="14.17" fill="#040000" font-family="AdobeMingStd-Light-B5pc-H, Adobe Ming Std">0</text><text transform="translate(832.7 1298.5)" font-size="14.17" fill="#040000" font-family="AdobeMingStd-Light-B5pc-H, Adobe Ming Std">5m</text></g><g id="outline"><path d="M845.5,663.8c-4.8,10.6-9.7,21.1-14.6,31.6l193.7,87.1Q997,845.8,969.5,909.3L757.1,827.7l-91,168.8L488.3,916.2q-130.5,259.2-260.8,518.4l-120.9-51.3" transform="translate(-24.8 -47.7)" fill="none" stroke="#231815" stroke-linecap="round" stroke-linejoin="round" stroke-width="0.71"/><path d="M425.9,314.8l173.7,69.5L777.2,57.4l118,53.6L741,443.8l173,72.9q-28.8,61.9-57.7,123.7" transform="translate(-24.8 -47.7)" fill="none" stroke="#231815" stroke-linecap="round" stroke-linejoin="round" stroke-width="0.71"/><path d="M104.5,1367.4q120.6-249.5,241.1-498.7L187.4,787.6l72.7-165L25.2,521.1l45.7-126,260.4,91.2,84-160.6" transform="translate(-24.8 -47.7)" fill="none" stroke="#231815" stroke-linecap="round" stroke-linejoin="round" stroke-width="0.71"/><path d="M78.4,402.5l265.3,91.9,84.5-162.1L601,394.1,760.6,96.2l116.6,46.7q-71,150.9-141.8,301.6L895,526.7l-91.1,157L996,780.9,955.5,899.8,734.3,812,656.9,983.4l-170.6-73q-110.2,213.8-220.6,427.5L142,1299.7q106.4-220.8,212.8-441.5L198.7,784l77.5-164.7L39.4,519.2Z" transform="translate(-24.8 -47.7)" fill="none" stroke="#231815" stroke-linecap="round" stroke-linejoin="round" stroke-width="0.57"/><path d="M299.4,513.9l96.2,26.8,64.8-121.3,125.5,46.3q17-28.9,34.1-57.7l59.5,68.7-12,33.7,100.4,45.5L720.5,660.1l6.7,9.5c-9.3,28.2-18.7,56.5-28.1,84.7l-22.6-7.5L611.7,854.4,494.5,814.6q-44.1,94.2-88.4,188.4l-84.8-38.2,92.3-181.5L306.7,736.8,361,616.6l-60.3-28.7C300.3,563.2,299.8,538.6,299.4,513.9Z" transform="translate(-24.8 -47.7)" fill="none" stroke="#231815" stroke-linecap="round" stroke-linejoin="round" stroke-width="0.57"/><path d="M707.6,898.5a2.9,2.9,0,0,1-1.7,1.3c-.4.1-.5,0-1.8-.4l-1.7-.4a43.8,43.8,0,0,1-5.4-2.3c-3.4-1.7-3.3-1.3-6.3-2.8a17.5,17.5,0,0,0-3.3-1.5l-2.4-1-2.9-1.3-5.4-2.4c-3.5-1.5-3.2-1.1-6.2-2.4l-5.2-2.4-1.6-.6-3.7-1.8-3.8-1.6a3.9,3.9,0,0,1-1.7-1.3,3,3,0,0,1-.4-1.3,5,5,0,0,1,0-1.3,12,12,0,0,1,.6-1.7c.5-1.3.7-1.9,1-2.5s.5-1,.7-1.6.3-1,.6-1.7l.6-1.1a5.8,5.8,0,0,1,.7-1.2,2.7,2.7,0,0,1,1.2-1.2l.9-.5a5.7,5.7,0,0,1,3.2-.2l2.3.6a22.8,22.8,0,0,1,3,1.2c2,.8,2.1.7,3.3,1.3l2.2,1.1,2.1,1.1,3.7,1.9,2.4.9,3.4,1.3a46.8,46.8,0,0,1,5,2.2l1.6.8a28.1,28.1,0,0,0,3.8,1.7l1.6.5,2.1.6a13,13,0,0,1,2.9,1.2c1.5.8,1.5,1.1,2.5,1.5l1.7.5.8.3a7.9,7.9,0,0,1,1.6,1l1,.7.9,1a3,3,0,0,1,.9,1.5c.1.3,0,.5,0,1.1s-.1,1.3-.1,1.5a12,12,0,0,1-1.2,3.5l-.6.9c-.4.7-1.3,2.1-2.2,4A5,5,0,0,1,707.6,898.5Z" transform="translate(-24.8 -47.7)" fill="none" stroke="#231815" stroke-linecap="round" stroke-linejoin="round" stroke-width="0.57" stroke-dasharray="2.8 2.8"/><text transform="translate(467.7 629.1)" font-size="45.35" fill="#231815" font-family="AdobeMingStd-Light-B5pc-H, Adobe Ming Std">1002</text><text transform="translate(624.9 860.2)" font-size="17.01" fill="#231815" font-family="AdobeMingStd-Light-B5pc-H, Adobe Ming Std">2244</text><path d="M756.6,952.9h-4.3l-3-.5c-2.7-.4-2.9-.1-5-.5s-1.2-.5-3-.8-2.4-.3-5.8-.8l-2.5-.4-3.1-.4c-1.3-.3-1.2-.5-3-.9l-2.4-.4-1.7-.2h-1.1a30,30,0,0,1-3.5-.7l-3.4-.8-1.6-.5c-.5-.2-.7-.3-.8-.5s-.2-.4-.2-1.1,0,.8-.1-1-.1-2.5-.1-3a8.6,8.6,0,0,0,.1-1.7,15.7,15.7,0,0,1,.8-3.9l.5-1.3a8.1,8.1,0,0,0,.6-.8c.4-.5.3-.6.9-1.5s.8-1.2,1.1-1.4a1.7,1.7,0,0,1,.8-.6c.3-.2.5-.2,1.5-.3H720l1.9.2,3.6.5,2.2.2,4.4.9,4,.5a45.2,45.2,0,0,1,5,.9l2.1.5,3.8.5c1.7.3,1.6.5,4,1l3.2.5a21.8,21.8,0,0,0,3.3.8l2.3.5,1,.3,1.1.5c.4.3.5.3.6.5a1.7,1.7,0,0,1,.1.8,1.8,1.8,0,0,0-.1.5,11.2,11.2,0,0,1-.8,2.4l-.3,1.2c-.8,3.1-1.2,4.6-1.7,6s-.7,1.4-1.4,3-.3.6-.7,1.1A3.5,3.5,0,0,1,756.6,952.9Z" transform="translate(-24.8 -47.7)" fill="none" stroke="#231815" stroke-linecap="round" stroke-linejoin="round" stroke-width="0.57" stroke-dasharray="2.89 2.89"/><text transform="translate(699.1 923.8)" font-size="17.01" fill="#231815" font-family="AdobeMingStd-Light-B5pc-H, Adobe Ming Std">2245</text><text transform="translate(708.4 760.2)" font-size="17.01" fill="#231815" font-family="AdobeMingStd-Light-B5pc-H, Adobe Ming Std">2249</text><path d="M737.8,781.9c.3.6-.1,1.3-.4,1.8s-.6.8-1.4,1.9l-.5.8c-1.3,2.1-1.5,3.1-2.6,4.7s-.6.7-1.4,1.7-.9,1.9-1.9,3.5l-2.3,3.2-1.8,2.4a2.9,2.9,0,0,1-1.3,1.2,2.4,2.4,0,0,1-2-.3c-1.4-.5,1.3.7-3.9-1.2a42.4,42.4,0,0,1-5.4-2,12.9,12.9,0,0,0-2-.9l-2.3-.6-1.3-.3a15.3,15.3,0,0,1-2.7-1.1c-1.4-.6-1.3-.4-2.8-1l-2.9-1.3a21,21,0,0,1-3-1.5c-1-.6-1.3-.9-1.4-1.3a3.2,3.2,0,0,1,.1-1.9,8,8,0,0,1,.3-1.5,26.4,26.4,0,0,1,1.4-4c1-2.3,1.5-2.3,2.5-4.7s.3-1.1.8-2.1a21,21,0,0,1,2.7-4.3l1-1.1a6.8,6.8,0,0,1,3-2.1,9.9,9.9,0,0,1,2.3.1c1.6.1,2.7.4,3,.4a11.3,11.3,0,0,1,2.2.8l5.7,2.2,3.7,1.6,5.6,2.5,2.6,1.1c8.8,3.6,3.5,1.7,4.8,2.2S737.6,781.3,737.8,781.9Z" transform="translate(-24.8 -47.7)" fill="none" stroke="#231815" stroke-linecap="round" stroke-linejoin="round" stroke-width="0.57" stroke-dasharray="2.83 2.83"/><text transform="translate(878.5 523.8)" font-size="17.01" fill="#231815" font-family="AdobeMingStd-Light-B5pc-H, Adobe Ming Std">2250</text><path d="M881.2,524.7c-1.2,2.9-2.3,5.2-3.1,6.9s-1.3,2.8-1.6,3.5c-1.2,2.3-1.9,3.4-2.9,5.3s-1.9,3.5-3.1,6.1a18.7,18.7,0,0,0,2.7,1.2,19.6,19.6,0,0,0,3.5,1.1,22.9,22.9,0,0,1,6.5,3" transform="translate(-24.8 -47.7)" fill="none" stroke="#231815" stroke-linecap="round" stroke-linejoin="round" stroke-width="0.57" stroke-dasharray="2.83 2.83"/><path d="M914.1,525.3a28.2,28.2,0,0,1,5,1.6,34.9,34.9,0,0,1,4.4,2.4c-.3,1-.8,2.5-1.4,4.1s-1,2.5-2.5,5.9c-.8,1.7-1.8,3.8-2.9,6.3" transform="translate(-24.8 -47.7)" fill="none" stroke="#231815" stroke-linecap="round" stroke-linejoin="round" stroke-width="0.57" stroke-dasharray="2.83 2.83"/><text transform="translate(626.1 338.4)" font-size="17.01" fill="#231815" font-family="AdobeMingStd-Light-B5pc-H, Adobe Ming Std">2251</text><path d="M690.8,350.2a2.7,2.7,0,0,1-.4,1.2,12,12,0,0,1-1,1.5,5.1,5.1,0,0,1-1.5,1.4,15.5,15.5,0,0,1-2.4,1.6l-1.2.8-1.2.9a32.8,32.8,0,0,1-3.1,2.1l-3.1,2.4-2.9,2.1-1.4.9c-.6.4-.7.5-.9.5s-.7-.2-1.5-1.6-.6-1.1-1-1.7a8.7,8.7,0,0,0-1.7-2.1c-1.1-1.1-1.3-1.1-2-1.9a21.4,21.4,0,0,1-1.3-2.2c-1.1-1.5-1.6-1.6-3-3.3s-.7-1.3-1.4-2.2a7.2,7.2,0,0,1-1.1-1.2l-1.5-1.7a5.6,5.6,0,0,1-1.2-1.5c-.7-1.1-.7-1.3-1.2-2l-1.3-1.4-1.2-1.4a41.7,41.7,0,0,1-2.7-3.8c-1.1-1.5-1.2-1.4-3.2-3.9a17.3,17.3,0,0,1-1.5-1.9l-5.1-6.5c-.8-1.1-1.4-2.3-2.2-3.4a1.4,1.4,0,0,1-.3-.6,1.4,1.4,0,0,1-.2-.7c.1-.3.4-.4.8-.6l1.3-1,1.6-1.3,1.3-1.2,1.8-1.4a16.2,16.2,0,0,1,2.3-1.9l1.2-.7,1-.7A29.2,29.2,0,0,0,652,309a9.3,9.3,0,0,1,1-1c.3-.2.8-.7,1.6-1.2s.8-.4.9-.4a1.7,1.7,0,0,1,1.1.5,8.5,8.5,0,0,1,1.3,1.2l2.1,2.2,2,1.9a36.5,36.5,0,0,1,3.5,4.1c3.3,4,3.6,3.9,4.9,5.9l2.1,3,1.5,2.1,1.4,1.7c1.1,1.3,1.2,1.6,3.3,4.4s2.2,2.8,3.3,4.5l1.4,2.1a29,29,0,0,0,1.8,2.7c.9,1,.9.7,1.9,1.8s.6.9,2.3,3.1h0l.8,1.1A2.9,2.9,0,0,1,690.8,350.2Z" transform="translate(-24.8 -47.7)" fill="none" stroke="#231815" stroke-linecap="round" stroke-linejoin="round" stroke-width="0.57" stroke-dasharray="2.79 2.79"/><text transform="translate(98.4 490.9)" font-size="17.01" fill="#231815" font-family="AdobeMingStd-Light-B5pc-H, Adobe Ming Std">1041</text><path d="M132.9,549.2a2.1,2.1,0,0,1-.5,1.2c-.6,1-.9,1.2-1.4,2.1l-.4.9-.7,1.8a25.8,25.8,0,0,1-1.7,3,5.9,5.9,0,0,1-.7,1l-.5.4h-1.8a4.8,4.8,0,0,1-1.3-.2,12.2,12.2,0,0,1-3.8-1.8,28.7,28.7,0,0,0-4-2.5c-1.6-.9-2.1-1-3.4-1.8a9.5,9.5,0,0,0-2-1.5l-2.9-1.7-1.3-1c-1.3-1-1.7-1-3.4-2.1a15.8,15.8,0,0,0-2-1.6c-.8-.6-1.2-.9-1.2-1.3s.2-.4.8-1.1a6.8,6.8,0,0,0,.8-1.1c.7-1,.7-1.3,1.3-2.3l1-1.3c2.2-2.9,2.8-4.7,3.8-4.6l1.2.4.9.4a35.5,35.5,0,0,1,3.8,2.5c1,.8.6.3,4.2,2.6s2.6,1.8,4,2.5,2.2,1,4.3,2.2,1.9,1.4,3.5,2.2a8.7,8.7,0,0,1,1.8,1.1C132.6,548.5,132.9,548.8,132.9,549.2Z" transform="translate(-24.8 -47.7)" fill="none" stroke="#231815" stroke-linecap="round" stroke-linejoin="round" stroke-width="0.57" stroke-dasharray="2.9 2.9"/><path d="M887.4,676.6h-1.5l-1.1-.2c-2-.4-2.8-.3-4.8-.8l-2.3-.7-3.8-1c-3-.8-2.9-1.7-7.7-3.7a30.8,30.8,0,0,1-3.8-1.6l-3.2-1.6a18.2,18.2,0,0,0-3.2-1.4,35.9,35.9,0,0,0-3.6-.6,31,31,0,0,0-3.4-.6c-1.9-.3-2.5-.1-3.6-.6a14.6,14.6,0,0,1-1.5-1.2l-2.3-1.3-2.8-1.8c-3.9-2.9-4.2-4-4.3-4.4a7.4,7.4,0,0,1,0-1.5c.1-1.3.4-1.4.9-3.7a6.6,6.6,0,0,1,.4-1.5,8.1,8.1,0,0,1,.8-1.2c1-1.1.7-1.6,1.9-3.5a4.3,4.3,0,0,1,1.4-1.9,7.1,7.1,0,0,1,1.8-.8l2-.5a54.4,54.4,0,0,1,5.9-.1h3.9l3.5.2c1.5.4,2.6,1.2,4.8,3s2.2,1.9,5,4.4a16.8,16.8,0,0,0,3,2.5,21.8,21.8,0,0,0,3.5,1.9,25,25,0,0,0,3.2,1.2c1.6.4,1.6.2,2.8.5a20.2,20.2,0,0,1,4.3,1.9l2.7,1.6c.4.3.6.6,2.7,3.2a37.4,37.4,0,0,1,2.2,3.1c.4.9.3.9.9,2.2a3.7,3.7,0,0,1,.8,2,2.9,2.9,0,0,1-.8,1.7c-.8,1.3-.1.4-1.7,3.2S887.9,676.5,887.4,676.6Z" transform="translate(-24.8 -47.7)" fill="none" stroke="#231815" stroke-linecap="round" stroke-linejoin="round" stroke-width="0.57" stroke-dasharray="2.84 2.84"/><text transform="translate(856 602.3)" font-size="17.01" font-family="AdobeMingStd-Light-B5pc-H, Adobe Ming Std">2248</text><text transform="translate(844.2 657)" font-size="17.01" font-family="AdobeMingStd-Light-B5pc-H, Adobe Ming Std">2247</text><path d="M876.2,676.4c.4.9.2,1.8-.2,3.3a14.6,14.6,0,0,1-1.5,3.3c-1.2,1.8-1.9,2.2-2.1,2.3a3.4,3.4,0,0,1-1.6.2c-1.8,0-4.1-1.4-4.5-3.2a8,8,0,0,1,.4-2.9,15.6,15.6,0,0,1,.7-1.7c.4-.7,1.8-3,3.8-3.2a3.3,3.3,0,0,1,1,0,5.4,5.4,0,0,1,2,.4A3.4,3.4,0,0,1,876.2,676.4Z" transform="translate(-24.8 -47.7)" fill="none" stroke="#231815" stroke-linecap="round" stroke-linejoin="round" stroke-width="0.57" stroke-dasharray="1.38 1.38"/><text transform="translate(749 116.8)" font-size="17.01" font-family="AdobeMingStd-Light-B5pc-H, Adobe Ming Std">2252</text><text transform="translate(863.2 50.3)" font-size="17.01" font-family="AdobeMingStd-Light-B5pc-H, Adobe Ming Std">1042</text><path d="M905.6,56.7q-.9,6.9-2.7,14.7c-.7,2.9-1.5,5.6-2.3,8.2l-3.2-.4-3-.4a11.7,11.7,0,0,1-2.9-.3l-1.8-.7-2.7-1-7.7-2.2c-2.7-.8-3.4-.8-7.5-1.8-2-.4-5-1.1-8.6-2.1a9.8,9.8,0,0,1,.2-2.2,29.1,29.1,0,0,1,1.2-3.9,35.1,35.1,0,0,0,.8-3.9c.4-2,.8-3.1,1.2-4.6s1.1-4.6,1.8-8.1a20.8,20.8,0,0,1,3.4.1c3.7.3,6.1,1,11.1,2.4l6.9,1.9c5.1,1.3,7.1,1.7,10.8,2.8Z" transform="translate(-24.8 -47.7)" fill="none" stroke="#231815" stroke-linecap="round" stroke-linejoin="round" stroke-width="0.57" stroke-dasharray="2.83 2.83"/><path d="M785.3,117.8a16.5,16.5,0,0,1-.4,1.7l-.6,1.5c-1,2.6-1,2.8-1.5,3.9a38.4,38.4,0,0,1-2.4,3.9c-.7,1.2-1.2,2.1-2.1,3.9l-3.6,7.2c-2.1,4.2-2.5,4.4-7.4,13.2a32.5,32.5,0,0,1-2.5,3.8,22.4,22.4,0,0,1-2.3,2.9,30.2,30.2,0,0,0-3.7-1.4l-4.2-1.5a17.1,17.1,0,0,1-3.7-2.3c1.9-3.7,3.5-6.7,4.6-8.7,3-5.5,3.5-6.3,5-9.4s1.7-4,3.4-7.3,2.1-3.5,3.4-6.3,1.5-3.7,2.9-6.7,2.4-4.6,3.1-5.9c.8.3,4.8,1.9,8,3.5a8,8,0,0,1,2.6,1.8C785.2,116.8,785.3,117.5,785.3,117.8Z" transform="translate(-24.8 -47.7)" fill="none" stroke="#231815" stroke-linecap="round" stroke-linejoin="round" stroke-width="0.57" stroke-dasharray="2.83 2.83"/><path d="M440.4,287c.3.8,0,1.6-.7,2.9a48.3,48.3,0,0,1-2.4,4.6,76.2,76.2,0,0,0-6.2,11.7c-.3.7-.7,1.6-1.4,2.9a42.7,42.7,0,0,1-2.9,4.1,42.8,42.8,0,0,0-2.4,4.7c-1.7,3.3-2.6,5-2.7,5.3s-.7,2.5-1.6,3.1a4,4,0,0,1-3.4,0c-1.2-.3-1.5-.7-3.3-1.7s-2.5-1.2-4.5-2.5-2.8-1.8-3.2-2.9a5.2,5.2,0,0,1,.3-3.2c2.1-5.1,5.6-11.3,7-14s1.5-3.7,3.7-7.9c1.2-2.1,2.8-5,4.4-7.6l1.6-2.5c2-3.5,1.9-4.5,3-5s3.7.5,4.9,1.2,1.1,1.1,3.1,2.5a42.1,42.1,0,0,0,4.3,2.5C439.6,286.1,440.2,286.3,440.4,287Z" transform="translate(-24.8 -47.7)" fill="none" stroke="#231815" stroke-linecap="round" stroke-linejoin="round" stroke-width="0.57" stroke-dasharray="2.83 2.83"/><path d="M108.4,1382.7l-1.1.4a22.1,22.1,0,0,0-2.7,1.2l-2.1.7c-2.5.9-4.6,2-6.4,2.1a3,3,0,0,1-1.2-.2,3.3,3.3,0,0,1-1-1.2l-.9-1.5c-1-2.4-1.5-3.6-2-5.2s-.2-.4-2.9-6.6l-1.7-3.9c-2.2-5.1-3.4-7.8-4.7-11.3s-1.3-4.3-2.2-6.2l-2.6-6.7a2.5,2.5,0,0,1-.1-1.8c.3-.9,1.2-1.4,2.2-1.9a50.3,50.3,0,0,1,5.4-2c2.5-.6,3.5-.6,5.2-1.1l1.5-.3a4.3,4.3,0,0,1,1.5-.1c.5.3.6.9,1.1,2.4l1,2.9a28.4,28.4,0,0,1,.8,3,35.7,35.7,0,0,0,2,4.6c1.1,2.6,1,3,2,5.7s1.5,3,3.1,6.6c.6,1.5,1.5,4,3.3,8.9s-.2-.5,2.1,6.7C108.6,1379.8,109.3,1381.9,108.4,1382.7Z" transform="translate(-24.8 -47.7)" fill="none" stroke="#231815" stroke-linecap="round" stroke-linejoin="round" stroke-width="0.57" stroke-dasharray="2.83 2.83"/><text transform="translate(26 1336.9)" font-size="17.01" font-family="AdobeMingStd-Light-B5pc-H, Adobe Ming Std">1062</text><text transform="translate(413.2 266.5)" font-size="17.01" font-family="AdobeMingStd-Light-B5pc-H, Adobe Ming Std">2246</text></g><g id="compass"><line x1="216.4" y1="132" x2="322.3" y2="133.9" fill="#fff" stroke="#040000" stroke-linecap="round" stroke-linejoin="round" stroke-width="0.57"/><line x1="270.9" y1="44.9" x2="266.8" y2="272.5" fill="#fff"/><line x1="270.8" y1="52.4" x2="266.8" y2="272.5" fill="none" stroke="#040000" stroke-linecap="round" stroke-linejoin="round" stroke-width="0.57"/><polygon points="268.3 54 270.9 44.9 273.2 54.1 268.3 54" fill="#040000"/><circle cx="269.3" cy="132.7" r="30.8" fill="none" stroke="#040000" stroke-linecap="round" stroke-linejoin="round" stroke-width="0.57"/><circle cx="269.3" cy="132.8" r="21" fill="none" stroke="#040000" stroke-linecap="round" stroke-linejoin="round" stroke-width="0.57"/><text transform="matrix(1, 0.02, -0.02, 1, 260.43, 38.6)" font-size="28.33" fill="#040000" font-family="AdobeSongStd-Light-GBpc-EUC-H, Adobe Song Std">N</text></g></svg>