<svg xmlns="http://www.w3.org/2000/svg" viewBox="0 0 582.1 616.5"><g id="scale-1:200"><path d="M392.2,634.6v10H250.5v-10" transform="translate(-44.3 -28.4)" fill="none" stroke="#000" stroke-miterlimit="10" stroke-width="0.5"/><line x1="234.5" y1="606.2" x2="234.5" y2="616.2" fill="none" stroke="#000" stroke-miterlimit="10" stroke-width="0.5"/><line x1="262.8" y1="606.2" x2="262.8" y2="616.2" fill="none" stroke="#000" stroke-miterlimit="10" stroke-width="0.5"/><line x1="291.2" y1="606.2" x2="291.2" y2="616.2" fill="none" stroke="#000" stroke-miterlimit="10" stroke-width="0.5"/><line x1="319.5" y1="606.2" x2="319.5" y2="616.2" fill="none" stroke="#000" stroke-miterlimit="10" stroke-width="0.5"/><text transform="translate(202.5 601.8)" font-size="14.17" font-family="AdobeSongStd-Light-GBpc-EUC-H, Adobe Song Std">0</text><text transform="translate(344.5 601.8)" font-size="14.17" font-family="AdobeSongStd-Light-GBpc-EUC-H, Adobe Song Std">5m</text></g><g id="outline-1"><path d="M83.1,92.6c.2,11.8.8,21.2,1.4,27.8.1,1.3.1.8,1.6,17s1.6,15.9,2.2,21.7c1.3,12.9,1.2,11.6,2,19.8.5,5.4.7,7.7,2.3,25.8,1.1,11.8,1.6,17.7,1.7,18.6,2.3,24.7,2.3,20.7,3.5,34.1,0,0,1,12.6,2.4,21.4a45.5,45.5,0,0,1,1,5.9c.1.7.3,1.3.4,2s.2,1.4.6,1.7h2.5c3.8-.4,37.9.1,37.9.1,34,.4,34.8.1,38.4.3s5.9-.2,8.8-.1H191a1.3,1.3,0,0,0,.8-.2c.2-.1.3-.4.4-.8l.3-.6a2.9,2.9,0,0,1,.3-1c.8-2.7,1.8-6.8,1.8-6.8.7-3,1.3-4.4,2-7,1.6-5,2.1-8.3,3.9-16.7,2.3-10.6,4.5-19.2,5.8-24.2l2.2-8.1c2.3-9.3,3.5-16.2,5-24.9,3.8-21.7,3-16.2,4.6-26,3.4-20.3,5.6-35.5,5.6-35.5s-1.1,8.7-1.1,8.7,1.4-9.8,3-23.1c.8-6.6,1.1-9.6,2-16.8.7-4.8,1.3-8.7,1.6-11.4" transform="translate(-44.3 -28.4)" fill="none" stroke="#000" stroke-linecap="round" stroke-linejoin="round" stroke-width="0.57"/><line x1="13.7" y1="19.7" x2="212.7" y2="19.7" fill="none" stroke="#000" stroke-linecap="round" stroke-linejoin="round" stroke-width="0.57"/><text transform="translate(1.8 24.7)" font-size="14.17" font-family="AdobeSongStd-Light-GBpc-EUC-H, Adobe Song Std">e</text><text transform="translate(218.5 24.7)" font-size="14.17" font-family="AdobeSongStd-Light-GBpc-EUC-H, Adobe Song Std">e’</text><text transform="translate(31.7 13.2)" font-size="14.17" font-family="AdobeSongStd-Light-GBpc-EUC-H, Adobe Song Std">西</text><text transform="translate(180.6 13.2)" font-size="14.17" font-family="AdobeSongStd-Light-GBpc-EUC-H, Adobe Song Std">東</text><text transform="translate(105.8 91.5)" writing-mode="tb" glyph-orientation-vertical="0deg" font-size="14.17" font-family="AdobeSongStd-Light-GBpc-EUC-H, Adobe Song Std" style="text-orientation:upright">南　墓　道</text><text transform="translate(17.4 255.1)" font-size="14.17" font-family="AdobeSongStd-Light-GBpc-EUC-H, Adobe Song Std">1</text></g><g id="outline-2"><path d="M422.6,93c.3,4.1.6,9.6,1.2,16,.8,10.1,1.6,17.7,2.2,23.4.9,8.3,1.6,14.2,3.1,26.1.7,5.8,1.3,10.8,2.2,17.8s.9,6.5,1.4,10.5c.9,7.6.9,8.3,1.9,17.1s1.3,10.2,2.4,19.8c.1.5.4,3.5.9,7.6.9,8.5,1.1,10.3,1.5,12.4.8,4.6.9,3.4,2,9.3,2,10.7,3,16.1,3,16.9a10.8,10.8,0,0,0,.6,2c.3,1.3.6,1.5.8,1.7s.5.1,1.9.2l1.4.2c2,.1,4.8-.2,7.9-.2h68.3s16.3-.3,17.7,0h1.6c.2-.2.1-.4.1-.9s.1-.7.1-1a19.2,19.2,0,0,0,.2-2.1c.5-3.5,1.3-8,1.3-8,.8-4.2.6-3.7,1.6-9.4,1.6-9.1,3.7-21.4,7.1-34.8,1.1-4.2,1.9-7.4,3.3-11.7l2.6-8.2c1.1-3.3,1.6-4.9,1.8-5.4s.7-2.9,2.3-11.2c1.1-6.1,1.5-8.5,1.7-9.7.6-3,.9-5,1-5.7s.4-2.9.8-5.5c1-7.1.8-11.9,1.9-22.5.4-3.5.7-5.4,1.1-10.1s.2-3.9.5-7.3.5-5.5,1.8-17.6c0-.6.8-8.1.9-8.8" transform="translate(-44.3 -28.4)" fill="none" stroke="#000" stroke-linecap="round" stroke-linejoin="round" stroke-width="0.57"/><line x1="354.1" y1="19" x2="553.1" y2="19" fill="none" stroke="#000" stroke-linecap="round" stroke-linejoin="round" stroke-width="0.57"/><text transform="translate(342.2 24.1)" font-size="14.17" font-family="AdobeSongStd-Light-GBpc-EUC-H, Adobe Song Std">f</text><text transform="translate(558.9 24.1)" font-size="14.17" font-family="AdobeSongStd-Light-GBpc-EUC-H, Adobe Song Std">f’</text><text transform="translate(372 12.5)" font-size="14.17" font-family="AdobeSongStd-Light-GBpc-EUC-H, Adobe Song Std">西</text><text transform="translate(521 12.5)" font-size="14.17" font-family="AdobeSongStd-Light-GBpc-EUC-H, Adobe Song Std">東</text><text transform="translate(457.2 91.5)" writing-mode="tb" glyph-orientation-vertical="0deg" font-size="14.17" font-family="AdobeSongStd-Light-GBpc-EUC-H, Adobe Song Std" style="text-orientation:upright">北　墓　道</text><text transform="translate(362.4 240.1)" font-size="14.17" font-family="AdobeSongStd-Light-GBpc-EUC-H, Adobe Song Std">2</text></g><g id="outline-3"><path d="M425.3,388.6c1,11.1,2.1,21.5,3.2,30.9.8,6.5,1.9,15.4,3.7,27.1,1.2,8.5,2.8,19.1,5.2,30.6.6,2.8,1.4,6.6,2.5,12.5s1.2,6.8,2.3,12.1,1,4.7,1.4,7.2.8,4.6,1.1,7l.3,1.8c.2.9.2,1.1.5,1.4s.5.3,1.5.3h1.9a23.9,23.9,0,0,1,3.6.1l22.6.2c28.9-.2,26.2-.3,33.9-.2,15.3.1,30.7-.1,46,0h1.5c1.8-.1,2.3-.1,2.6-.4s.3-.6.4-1.5.4-2,.5-3,.6-4.8.8-7.3c.3-4.8,1.8-14.2,4.6-30.6,2.5-14.9,2.1-12,2.8-16.6,1.5-8.9,2.8-17.5,4.2-28.7.8-6.9,1.3-12.3,1.6-16.3.7-8,1.2-14.9,1.6-20.2" transform="translate(-44.3 -28.4)" fill="none" stroke="#000" stroke-linecap="round" stroke-linejoin="round" stroke-width="0.57"/><line x1="356.8" y1="322" x2="555.8" y2="322" fill="none" stroke="#000" stroke-linecap="round" stroke-linejoin="round" stroke-width="0.57"/><text transform="translate(344.9 327.1)" font-size="14.17" font-family="AdobeSongStd-Light-GBpc-EUC-H, Adobe Song Std">g</text><text transform="translate(561.6 327.1)" font-size="14.17" font-family="AdobeSongStd-Light-GBpc-EUC-H, Adobe Song Std">g’</text><text transform="translate(374.7 315.5)" font-size="14.17" font-family="AdobeSongStd-Light-GBpc-EUC-H, Adobe Song Std">南</text><text transform="translate(523.7 315.5)" font-size="14.17" font-family="AdobeSongStd-Light-GBpc-EUC-H, Adobe Song Std">北</text><text transform="translate(456.1 385.4)" writing-mode="tb" glyph-orientation-vertical="0deg" font-size="14.17" font-family="AdobeSongStd-Light-GBpc-EUC-H, Adobe Song Std" style="text-orientation:upright">東　墓　道</text><text transform="translate(362.4 487.7)" font-size="14.17" font-family="AdobeSongStd-Light-GBpc-EUC-H, Adobe Song Std">3</text></g><g id="outline-4"><path d="M81.3,394.1c1.1,5.9,2.1,10.9,2.8,14.4l5.2,25.9c1.2,5.3,1.8,8,2.8,13.4s1,5.2,1.9,9.6,1.4,6.3,2.1,10.1.6,4.2,1.4,8.7,1.9,9.2,3.1,14.6,1.7,7.1,2.2,9.3,2,7.8,3.7,14.1,3.3,11.5,4.3,14.7c2.6,8.8,3.3,10.4,5,16.7.6,2.1,1.4,5.3,2.4,9.5,1.3,6,2.5,12.3,2.7,13.3s.3,1.6.6,3.6.2,1,.4,1.6a7.4,7.4,0,0,0,.3,1.5c.2.8.3,1,.5,1.1h7.4c4,.1,8,0,12,0h30.4c3.3,0,10.2-.1,14.4,0h6.6a13.5,13.5,0,0,1,2.2,0h3.2l.8-.4a1.3,1.3,0,0,0,.3-.8l.5-1.5c.3-2,.5-3,.5-3.3s.2-1.5.5-3.4.4-2.3.8-4.1,1-5.1,1.4-7.1.8-3.1,1.2-5.1.6-3,1.6-8.6,1.4-9.1,1.9-12,.6-4.4,1-7,.7-3.9,1.2-6.8.9-4.9,1.9-9.6l2.5-12.6c1.3-6.6,1.4-6.4,2-9.7s.8-5.1,1.9-11.8,1.1-6.3,2.4-13.9l1.6-9.8c1.4-8.1,1.3-7.3,1.8-10.5s.8-5.9,1.7-13.6c.4-3.5.6-5.3.7-6.4.6-5.8.5-6.4,1.1-11.4.3-2.5.4-3.6.7-6.1s.3-4.1.4-5.3" transform="translate(-44.3 -28.4)" fill="none" stroke="#000" stroke-linecap="round" stroke-linejoin="round" stroke-width="0.57"/><line x1="11.9" y1="320.6" x2="210.9" y2="320.6" fill="none" stroke="#000" stroke-linecap="round" stroke-linejoin="round" stroke-width="0.57"/><text transform="translate(17.4 542.7)" font-size="14.17" font-family="AdobeSongStd-Light-GBpc-EUC-H, Adobe Song Std">4</text><text transform="translate(0 325.7)" font-size="14.17" font-family="AdobeSongStd-Light-GBpc-EUC-H, Adobe Song Std">h</text><text transform="translate(216.7 325.7)" font-size="14.17" font-family="AdobeSongStd-Light-GBpc-EUC-H, Adobe Song Std">h’</text><text transform="translate(29.9 314.1)" font-size="14.17" font-family="AdobeSongStd-Light-GBpc-EUC-H, Adobe Song Std">南</text><text transform="translate(178.8 314.1)" font-size="14.17" font-family="AdobeSongStd-Light-GBpc-EUC-H, Adobe Song Std">北</text><text transform="translate(114.4 385.4)" writing-mode="tb" glyph-orientation-vertical="0deg" font-size="14.17" font-family="AdobeSongStd-Light-GBpc-EUC-H, Adobe Song Std" style="text-orientation:upright">西　墓　道</text></g></svg>