<svg xmlns="http://www.w3.org/2000/svg" viewBox="0 0 1121.3 1498.3"><g id="scale-1:1"><path d="M1027.8,1564.7v9.9H744.3v-9.9" transform="translate(-318 -76.7)" fill="none" stroke="#000" stroke-miterlimit="10" stroke-width="0.85"/><line x1="483" y1="1487.9" x2="483" y2="1497.9" fill="none" stroke="#000" stroke-miterlimit="10" stroke-width="0.85"/><line x1="539.7" y1="1487.9" x2="539.7" y2="1497.9" fill="none" stroke="#000" stroke-miterlimit="10" stroke-width="0.85"/><line x1="568" y1="1487.9" x2="568" y2="1497.9" fill="none" stroke="#000" stroke-miterlimit="10" stroke-width="0.85"/><line x1="511.3" y1="1487.9" x2="511.3" y2="1497.9" fill="none" stroke="#000" stroke-miterlimit="10" stroke-width="0.85"/><line x1="454.6" y1="1487.9" x2="454.6" y2="1497.9" fill="none" stroke="#000" stroke-miterlimit="10" stroke-width="0.85"/><text transform="translate(421 1483.5)" font-size="19.84" font-family="SimSun">0</text><text transform="translate(563 1483.5)" font-size="19.84" font-family="SimSun">5</text><text transform="translate(700.9 1483.5)" font-size="19.84" font-family="SimSun">10cm</text></g><g id="outline"><path d="M837.8,1361.2c-.5,1.2-1.9,3.2-7.8,5a42.9,42.9,0,0,1-21.5.7c-8.8-1.8-16-4.3-26.1-8.5a302.1,302.1,0,0,1-27.5-12.7c-15.6-8.4-26.3-16.1-37.2-24s-17.8-13.7-30.4-24c-10.5-8.8-15.9-13.2-23.4-20,0,0-16-14.6-30.9-31.2a137,137,0,0,1-10.3-12.3c-1.9-2.5-3-4.2-5.6-7.5a45.2,45.2,0,0,1-4.3-5.4c-2.2-3.4-3.4-5.2-3.5-7.8s1.3-5,4.2-9.8c1.6-2.6,1.8-2.5,3.6-5.2a78.3,78.3,0,0,0,5.5-10.4,47.3,47.3,0,0,0,3.2-11.2c1.2-8.6-1.2-15.5-2.9-20.1a61.4,61.4,0,0,0-8.7-16.1c-2.4-3.2-3.2-3.8-10.3-11.9-4.4-5.1-6-7.2-9.1-10.9-13.7-16.2-27.4-30.1-29.7-32.5-4.1-4.1-7.9-8.4-12.1-12.3s-6.3-6.7-9.5-10-4.3-4.4-4.1-6.5.8-1.8,5.3-6.3,4.6-4.8,5.6-4.8,2.9,1.8,6.8,6.1c1.8,2.1,4,3.9,5.9,5.9,4.4,4.6,8.9,9.1,13.2,13.7,10.5,11.1,22.5,23.3,43,45,15.2,16.1,16.3,17.6,71.3,77.1,24,26.1,22.6,24.4,28.5,30.9,31.1,34,32.8,36.7,50.6,55.5l31.3,32.7,14.4,15.2c4.4,4.6,8.4,9.6,13,14.1a34.3,34.3,0,0,1,5.9,6.9C836.1,1351.5,839.6,1357,837.8,1361.2Z" transform="translate(-318 -76.7)" fill="none" stroke="#000" stroke-linecap="round" stroke-linejoin="round" stroke-width="0.85"/><path d="M1436.1,619.1c-.4.3-1,0-2.1-.2l-2.6-.5c-3.4-.6-5.1-1-7.5-1.6s-9.1-1.8-20.5-4c-14.9-2.9-20.5-3.4-37.1-6.4-14.9-2.7-15-3.1-37.6-7.4l-27.5-5-58.5-10.4-23.5-4.2-15.1-2.6-25.3-4.3-7.2-1.3a72.5,72.5,0,0,1-8.2-1.3l-1.2-.4-1.1-.5c-.4-.4-.3-1-.3-2.4v-2c.1-1.6.1-3.2.1-4.8.2-6,0-7.1.9-7.7s.6-.3,2.4-.2a24.2,24.2,0,0,1,5.4.7c2.8.8,3.8.6,8.8,1.2,7,.9,17.1,2.9,29.4,5.3l18.4,3.7c5.4,1,12.8,2.3,30.6,5.1l26.8,4.2c17,2.7,23.3,4.2,41.7,7.6,19.9,3.7,56.3,10.1,75.8,12.9,0,0,4.5.6,29,5.3l3.6.9c2.8.7,4.3,1.1,4.8,1.7s.6,1.1-.2,8.5a62.6,62.6,0,0,1-1,6.8s-.1.5-.6,2.1S1436.4,618.9,1436.1,619.1Z" transform="translate(-318 -76.7)" fill="none" stroke="#000" stroke-linecap="round" stroke-linejoin="round" stroke-width="0.85"/><path d="M1282.6,872.8c-1.1,0-1.3.5-4.7,3.2s-1.1.7-6.5,4.8l-4.6,3.6-9.2,7.2c-4.4,3.6-5.2,3.9-13.6,10.2s-10.3,8-17.9,13.6c-5.1,3.8-8.9,6.5-11.8,8.5l-39.8,28.3c-28.6,20.4-57.2,42.4-70,51.7l-10.8,7.7-5.2,3.6-6.3,4.6-5.7,4c-5.1,3.7-6.2,4.1-6.3,5.3s.3,1,4,5.6l4.1,4.8c1.9,2.3,2.3,2.9,3.3,3s1.6-.6,3.9-2.5l4-3.1c2.4-2.1,3.4-2.3,10.3-7.2l6.9-4.7c6.7-4.7,9.1-6.5,17-12.2l9.8-6.8,17.8-12.6c11.5-8.1,30.6-21.8,50.4-36.4,16.4-12,24.6-18,32.4-24s16.1-12.5,25.4-19.2l6.1-4.4c7.9-5.9,7.3-6.1,12.9-10.2,0,0,9.9-7.3,13.4-10.7l1-.9a7.6,7.6,0,0,0,1.5-1.7c.1-.4-.1-1-2.3-3.6l-1.3-1.7-2.1-2.7C1285.8,874.5,1284.3,872.8,1282.6,872.8Z" transform="translate(-318 -76.7)" fill="none" stroke="#000" stroke-linecap="round" stroke-linejoin="round" stroke-width="0.85"/><path d="M593.3,1116.1c-2.4.4-5.8.8-10,1.2s-10,.6-11.8.7c-8.2.3-16.3,1-24.5,1.4-13.6.8-31.5,1.8-49.8,3.1-22.9,1.6-18.7,1.7-39.2,3.1-22.5,1.6-29.3,1.5-45.9,3.5-9.4,1.1-18.1,2.4-27.8,4.4-11.3,2.3-18.9,4.6-21.6,5.4-18,5.4-25.2,10-28.1,11.9a71.4,71.4,0,0,0-10.2,9.3c-4.2,4.9-5.2,7.4-5.6,9.5a13.8,13.8,0,0,0,.4,7.4c.8,2.1,2.3,3.6,5.2,6.7l3.5,3.4c7.4,6.4,20.3,10.9,20.3,10.9,2.1.8,8.3,2.9,27.1,7.3,9.4,2.2,14.1,3.3,19.8,4.3,10.6,1.9,18.9,2.6,26.9,3.4,10.8,1,19,1.4,22,1.5,51.1,2.3,117.8,2.1,117.8,2.1l48-.4" transform="translate(-318 -76.7)" fill="none" stroke="#000" stroke-linecap="round" stroke-linejoin="round" stroke-width="0.85"/><path d="M752.8,1093.8c5.4-.2,14.1-.5,24.8-1.3s22.1-1.8,40.5-3.7c0,0,20.8-2.1,33.4-2.6,3.4-.2,6.3-.2,11.6-.3,12-.4-5.8,0,2.5,0,3.3,0,3.8,0,4.4.4s.8,1.4,1.1,3.4.7,4,.9,6.1c.3,7.3,4,24,5.5,49.9.3,4.5.7,13.3,1.1,21.5s.4,7.3.5,8.9.1,1.8.2,3.1.2,2.2.2,2.2,0,.5.1,1.5a1.5,1.5,0,0,1-.1.7l-.6.3H878l-1.6.2-12.2,1.5c-12.1,1.7-19.6,3.2-31.6,4.5l-13.6,1.2-28.3,2.8-4.7.4-6.8.6a44.4,44.4,0,0,0-4.7.4l-1.4.2-1.3.2c-.4.3-.3.8-.2,2.6v1.5c.1,2,0,3.3,0,5.1s.1,2.1.4,6.3c.5,7.7.8,10.4.9,13.2,0,1.1-.1,4.4-.1,4.9v1.1c0,.8-.1,1.4-.1,1.6-.1,1.7-.3,1.9-.4,2s-.5.2-1.1.3a4.5,4.5,0,0,1-1.2,0h-7.9l-3-.2c-1.3,0-1.8.2-2.3-.2s-.6-.5-1-2.3a14.8,14.8,0,0,1-.4-2.9c0-3.4-.8-4.1-1.5-19.8-.1-1.6-.1-2.4-.2-4-.8-26.4-3.9-77.2-3.9-77.2-1.5-25.8-4.6-76.5-9.1-143.3,0-1.5-.1-2.8-.1-3.9,0-2.8.1-3.3.3-3.9a8.3,8.3,0,0,1,2.2-2.8,7.2,7.2,0,0,1,2-1.7,6.4,6.4,0,0,1,3.2-.5h7.2a29.4,29.4,0,0,0,3.1,0h1c.8,0,1-.1,1.2.1s.1.2.1.9.1.6.1.9c.2,3.1.3,4.6.3,4.8l.3,6.4c.2,5.5,1.7,37.5,4.6,88.5.3,4,.7,10.9,1.2,19.6" transform="translate(-318 -76.7)" fill="none" stroke="#000" stroke-linecap="round" stroke-linejoin="round" stroke-width="0.85"/><path d="M741.3,993.5a52.7,52.7,0,0,0-7,1.7c-3.7,1.3-7.5,2.5-11.2,5.5s-4.4,5.1-8.6,11.5l-3.7,5.9a86.5,86.5,0,0,0-5,10.7c-3.6,8.9-11.1,22.5-14.6,28.7-7.9,14.2-14.4,25.7-24.5,33.8a83.2,83.2,0,0,1-11.4,7.6,90.5,90.5,0,0,1-12.6,5.2c-2.3.8-5.8,2-10.2,3.2a152.6,152.6,0,0,1-18.2,3.8" transform="translate(-318 -76.7)" fill="none" stroke="#000" stroke-linecap="round" stroke-linejoin="round" stroke-width="0.85"/><path d="M709.4,1213.8l7.8-.5c4.4-.2,4.3-.1,8.9-.2s8.3-.6,12.3-.5h3.4l5,.2c1.7.1,4.3.8,7.5,3.6" transform="translate(-318 -76.7)" fill="none" stroke="#000" stroke-linecap="round" stroke-linejoin="round" stroke-width="0.85"/><path d="M819.4,1088.7c.6,7.1,1.6,17.9,3.1,31.2,1,9.6,1.4,10.5,2.2,18.2,1.1,10.7,1.2,15.3,2.4,30.9.4,4.9,1,12.4,1.8,21.5" transform="translate(-318 -76.7)" fill="none" stroke="#000" stroke-linecap="round" stroke-linejoin="round" stroke-width="0.85"/><path d="M1115.4,995.8c-10.9-14.4-26.8-35.4-45.8-60.9-41.4-55.4-62.5-83.8-86.6-119.3-20.3-29.9-34.8-53-43.7-67.3-15.2-24.3-9.8-16.7-20.3-33.5,0,0-13-20.6-30.5-56.1a35.8,35.8,0,0,1-3.7-12.6,33.8,33.8,0,0,1,.1-7.6,32,32,0,0,1,3.5-10.8c1.8-3.4,3.4-6.5,6.6-8.7,6.3-4.4,14.7-2.2,20.7-.7a48,48,0,0,1,13,5.4,89.6,89.6,0,0,1,12.9,8.7c10.7,8.3,16,12.5,21.7,17.6,11.1,10,18.3,18,30,31,9.3,10.3,14.6,16.2,21.7,25.3s11.7,16,17.6,24.6,6.3,9.4,11.8,17.6c12.5,18.7,19.3,28.8,28.6,40.9,7.7,9.8,13.7,16.6,20,23.8,10,11.4,17.7,20,29.2,30.3,5.3,4.8,9.2,7.9,17.2,14.2,11.2,8.8,16.2,12,22.5,14.5a61.2,61.2,0,0,0,10.5,3.1,70.9,70.9,0,0,0,8.9.4,49.4,49.4,0,0,0,6.2-.4,31.5,31.5,0,0,0,8-2.7c5.6-2.5,8.5-3.7,10.4-4.4,3.8-1.4,7.5-1.7,14.9-2.4s11.4-1,17.5-.1a43,43,0,0,1,8.2,1.9,39.4,39.4,0,0,1,9.4,5,52.8,52.8,0,0,1,12,10.9" transform="translate(-318 -76.7)" fill="none" stroke="#000" stroke-linecap="round" stroke-linejoin="round" stroke-width="0.85"/><path d="M1151.3,993.4l19.8,25.4c8.4,10.6,13.2,16.6,19.6,24.4s13.7,16.3,23.9,27.4l20.4-14.8c19.5-14.3,28.7-21.4,49.3-36.4l12.2-8.9c-13.5-16.4-24.5-28.4-32.2-36.4-4.1-4.2-10.7-10.9-20.2-21.1l-14.8-16.4" transform="translate(-318 -76.7)" fill="none" stroke="#000" stroke-linecap="round" stroke-linejoin="round" stroke-width="0.85"/><path d="M1237.8,582.7c-2.3,7.9-3.9,14.8-5.1,20.1s-2.8,12.7-4,21.3c-.3,2.2-1.3,9.2-1.9,18.7-.1,2.3-.3,7.8-.6,18.7-.4,13.7-.4,17.5-.4,22.4,0,.9,0,0,.3,10.6,0,0,0,1.2.4,8.5.2,5.7.3,6.4,1,7.3s1.8,1.4,8.1,3.3l5.2,1.6c10.6,2.9,24,4.3,38.7,7.4a84.1,84.1,0,0,0,12.5,1.9c3.5.2,3.3-.1,7.9.1,6.2.2,12.1.4,17.9,1.8,2,.5,4.1.7,6.1,1s3.9.7,4.8.1,1.3-1.6,1.9-5a47.2,47.2,0,0,0,1-6.5c.3-4.9.9-4,3.9-29.6.9-7.6,1.3-11.5,1.8-17.2s.7-8.1,1.4-18.2c1.1-14.8,1.7-22.2,2.1-26.2s1.6-13.2,3.4-22.8" transform="translate(-318 -76.7)" fill="none" stroke="#000" stroke-linecap="round" stroke-linejoin="round" stroke-width="0.85"/><path d="M1234.8,564.3c.7-9.9,1.8-23.4,3.5-39.5,2.6-25.2,5.6-44.4,8.2-61.5,3.2-21,6.1-36.7,8.6-50.4,1.4-7.9,6.2-34.6,10.9-56.9a1262.6,1262.6,0,0,1,37.4-137.2s13.2-40.2,31-76.2c5.1-10.4,9.5-17.3,18.3-31.2a140.6,140.6,0,0,1,19.6-24,33.9,33.9,0,0,1,13.3-8.8c2.9-.9,7.8-2.5,13.2-.5a18.9,18.9,0,0,1,6.2,4c5.4,5.2,7.2,11.8,8.3,16.7a154.3,154.3,0,0,1,3.7,33.1c0,6.4,0,12.8-.8,23s-2.9,28.8-13,66.4c-.7,2.5-4,13.8-10.6,36.2-13.8,46.5-13.9,47-14.8,50.3-5.4,21.4-3.3,19-12.4,61.7-2.9,13.6-5.6,27.3-8.5,40.9-.2.9-1,4.7-1.9,9.8-1.7,9.4-2.9,15.5-3.2,23.6a73.8,73.8,0,0,0,.6,16,124.3,124.3,0,0,0,2.8,12.6c.5,1.9,1.3,5,2.5,9a136.3,136.3,0,0,0,6.4,17.9,108.3,108.3,0,0,0,6.2,11.4,194.5,194.5,0,0,0,16.9,23.8l9.5,11.2c4,4.5,5.1,5.4,6.4,7.9,2.3,4.5,2.8,8.7,3.2,12.7a66.7,66.7,0,0,1,0,10c-.1,4.1-.2,10,.1,17.2" transform="translate(-318 -76.7)" fill="none" stroke="#000" stroke-linecap="round" stroke-linejoin="round" stroke-width="0.85"/><path d="M1209.4,1064.9h-5l-8.3.2-12.7.4-26.7.7c-35.7,1-34.4.7-51.5,1.4l-33,1.5-13.7.8c-9.4.6-8.3.8-11.1.9a28.3,28.3,0,0,0-4.2.4c-2.2.3-3.3.4-3.9.9s-1.3,3.1-1.4,7.2a54,54,0,0,0,.4,6.2c.4,4.7.7,5.4,1.4,6s1.3.7,4.4.9l6.1.5,10.2.4c5.6.1,7.3.3,15.5.7s12.7.5,23.5.8c16.6.4,31.5.8,50.9.6l24.9-.5c21.2-.5,26.2-.6,33.1-1l19.7-1.2,23-1.1c10.9-.6,21.5-1.2,30.6-2,5.5-.6,7.9-1,11.9-1.1a63,63,0,0,0,6.8-.5l3.5-.5c2.7-.4,2.9-.4,3.1-.6s1.1-1.5,1-7.6c0-1.3-.1-4.8-.5-8.4s-.2-.9-.5-3.4-.3-2.2-.7-2.6-.7-.2-2.9-.2H1298c-4.8.1-12.8,0-12.8,0l-17.9-.3c-3.4-.1-17.8-.2-36.2.2l-8.3.2" transform="translate(-318 -76.7)" fill="none" stroke="#000" stroke-linecap="round" stroke-linejoin="round" stroke-width="0.85"/><path d="M1153.7,996.5c-.2,10.8-.3,21.7-.3,32.9s0,24.7.2,36.8" transform="translate(-318 -76.7)" fill="none" stroke="#000" stroke-linecap="round" stroke-linejoin="round" stroke-width="0.85"/><path d="M1257.9,1038.8c.3,4.6.6,9.4.7,14.3s.1,7.5.1,11.1" transform="translate(-318 -76.7)" fill="none" stroke="#000" stroke-linecap="round" stroke-linejoin="round" stroke-width="0.85"/><path d="M1258.2,1043.9c3.5,2.5,6.9,5.1,10.5,7.9,5.4,4.3,10.5,8.6,15.3,12.8" transform="translate(-318 -76.7)" fill="none" stroke="#000" stroke-linecap="round" stroke-linejoin="round" stroke-width="0.85"/><path d="M1109.2,1094.9c0,1.5.1,3.4.2,5.7a55.5,55.5,0,0,0,.9,8.3,35.2,35.2,0,0,0,1.4,5.6,23.6,23.6,0,0,0,2.9,5.7c1.8,2.3,4.4,3.6,9.5,6.2s4,1.6,7.4,3.4,4.6,2.6,8.5,5l7.3,4.7a117.1,117.1,0,0,1,17.2,14.5,51.5,51.5,0,0,1,6.3,7.2,49.3,49.3,0,0,1,5.7,10.5c6.7,15.5,5.9,12.1,9.4,21,4.5,11.6,7.6,21.5,9.4,27.9,1.3,4.6,4.1,15,8.3,38.4,3.5,19.3,5.5,33.9,7.6,50.1s3.8,28.2,5.5,44.4c.7,7.5,2.4,24.2,4.7,40.9.1.8,1.7,11.7,4.5,23.6.4,1.5,1.2,4.8,2.4,8.9a82.1,82.1,0,0,0,4.2,12.5,46.8,46.8,0,0,0,6.6,11,44.3,44.3,0,0,0,5.4,5.3,26.2,26.2,0,0,0,6.6,4.4,23.3,23.3,0,0,0,10.2,1.5,16.6,16.6,0,0,0,6.4-1.1c2.7-1.3,4.5-3.4,6.5-6.5a54,54,0,0,0,6.3-14.5,138.1,138.1,0,0,0,3.8-20.6c1.5-12.9,2.4-22.7,2.5-23.9,1.6-16.4,2.4-24.6,2.8-30.7.6-10.5.8-18.1,1.1-29.1.4-16.4.4-28.6.4-41.7s0-27.9-.5-47.9c-.3-10.7-.7-26.8-1.7-46.4-.3-5.6-1.6-32.2-4.1-63.1-1.3-15.3-2.4-26.9-2.8-30.1-.6-6.6-1.3-12.2-1.7-16.4" transform="translate(-318 -76.7)" fill="none" stroke="#000" stroke-linecap="round" stroke-linejoin="round" stroke-width="0.85"/><path d="M1307.9,1080.5c10.1,7,17.9,13.1,23.2,17.4s9.1,7.6,18.7,15.2c6.1,4.8,9.2,7.3,12.7,9.9l9.2,7.3c1.6,1.2,3.1,2.6,4.7,3.7s2.7,1.7,3,2.6-.6,2.1-3.3,5.5l-4.2,5.7-4,5.3s-.7,1-2.3,2.9-2.3,2.7-3.1,2.7-1-.3-2-.8l-1.7-1.2c-14.1-12.1-29.7-22.4-44.2-34.2-7.7-6.2-19-15.1-33.5-25.3" transform="translate(-318 -76.7)" fill="none" stroke="#000" stroke-linecap="round" stroke-linejoin="round" stroke-width="0.85"/><path d="M1332.2,1136l-14.9,21.1q-14.2,20-28.5,39.3" transform="translate(-318 -76.7)" fill="none" stroke="#000" stroke-linecap="round" stroke-linejoin="round" stroke-width="0.85"/><path d="M1280,1061.1c13.7-21.2,23.7-38.4,30.5-50.5,5.2-9.4,15.1-27.4,30.1-52.4l2.6-4.3a12.8,12.8,0,0,1,2.5,1.5,29.7,29.7,0,0,1,5,3.8l4.1-4,10.9,8.5q21.1,16,41.8,30c-3.3,6.1-8.3,15.5-14.5,26.9l-12.8,23.7c-6.4,11.8-17.6,31.3-37.7,62.9" transform="translate(-318 -76.7)" fill="none" stroke="#000" stroke-linecap="round" stroke-linejoin="round" stroke-width="0.85"/><path d="M1174,1166.3c-.8,2.5-1.9,5.2-3,8.2l-3.3,7.8c-1.7,3.7-3.9,8.3-8,15.8-3.1,5.8-6.6,12.3-11.6,20.4-2.8,4.5-3.5,5.3-12.7,18.8s-12.6,18.6-16.9,25.1c-3.2,4.9-8,12.4-13.5,21.7a325.5,325.5,0,0,0-18.2,34,305.1,305.1,0,0,0-14.7,39.9c-3,9.5-5,17.3-8.4,30.6l-3.2,14.1c-2,8.6-3.5,16-2.9,24.4a18.7,18.7,0,0,0,2.5,9.1,16.1,16.1,0,0,0,5,5.4c3.4,2.2,6.6,2.4,9.9,2.5a33,33,0,0,0,11.6-1.5c5.6-1.9,9.4-4.9,13.5-8.5a166.2,166.2,0,0,0,17.3-18.2c6.3-7.8,12.9-15.2,19.3-22.9,20.5-24.5,20.4-24,26.1-31.3,8.1-10.3,8.5-11.6,16.5-21.5,6.6-8.2,9.5-11.2,15.7-19s12-15.6,15.1-20.1" transform="translate(-318 -76.7)" fill="none" stroke="#000" stroke-linecap="round" stroke-linejoin="round" stroke-width="0.85"/></g></svg>