<svg xmlns="http://www.w3.org/2000/svg" viewBox="0 0 570.6 654.5"><g id="scale-1:100"><path d="M375.5,644.2v9.9H233.8v-10" transform="translate(-9.2)" fill="none" stroke="#000" stroke-miterlimit="10" stroke-width="0.57"/><line x1="253" y1="644.2" x2="253" y2="654.2" fill="none" stroke="#000" stroke-miterlimit="10" stroke-width="0.57"/><line x1="281.3" y1="644.2" x2="281.3" y2="654.2" fill="none" stroke="#000" stroke-miterlimit="10" stroke-width="0.57"/><line x1="309.7" y1="644.2" x2="309.7" y2="654.2" fill="none" stroke="#000" stroke-miterlimit="10" stroke-width="0.57"/><line x1="338" y1="644.2" x2="338" y2="654.2" fill="none" stroke="#000" stroke-miterlimit="10" stroke-width="0.57"/><text transform="translate(221 639.7)" font-size="14.17" font-family="SimSun">0</text><text transform="translate(363 639.7)" font-size="14.17" font-family="SimSun">5m</text></g><g id="outline"><path d="M383.9,586.9l4.9-30.6c1.9-12.5,3.9-25,5.9-37.6l78.9-3.5q3.1-74.9,6.1-149.7l97.6-19.6-1.8-69.7c.7-3,1.5-6,2.4-9.1l1.5-5.3c0-1.5-.1-3.7-.2-6.4-.2-5.1-.5-8.8-.6-10.2-.4-5.6-.4-6.8-1.2-22.2-.3-4.8-.6-11.8-1.2-20.5L455.6,185.4,451.1,45.9,409.3,44l-69.1-2.7-15-.8-17.8,1.2q-40.3,2.8-80,6.3L119.9,40.4a2,2,0,0,0-.8.4,2.2,2.2,0,0,0-.5.6,2,2,0,0,0-.2,1.2c.6,21.9,1,39.6,1.3,51.5.7,29.5,1.2,49.4,2.3,77.9.3,7.9.6,14.4.8,18.5L9.4,231.3q3.3,47.1,6.4,94.1c1.1,15,2.1,29.9,3.1,44.8l12.1.5,22.1.8,59.6,2.1q7.3,51.3,14.8,102.7c2.4,17.3,4.9,34.6,7.4,51.9l84.1-.9,24.9,53.1" transform="translate(-9.2)" fill="none" stroke="#000" stroke-linecap="round" stroke-linejoin="round" stroke-width="0.57"/><path d="M147.9,506.1l120.7-3.8q93.4-2.9,187-5.4,5.8-68.1,11.9-136.3l100.4-19.4c-2-30.4-4.1-60.8-6.1-91.2l1.3-25.6c-.4-4.1-.7-8.1-1-12.2L515,204.3c-23-3.7-45.8-7.4-68.4-10.9L433.4,59.8,324.6,42.9q-33.3,2.4-67.4,5.5L235,50.5,124.5,55.7l3,107.2,1.2,35.5-45.5,5.1-58.7,7.2L18.2,337.8,42,342.9c27.9,6,55.7,12.2,83.2,18.4,4.1,26,8.3,52,12.4,78.1l7.9,52.7Z" transform="translate(-9.2)" fill="none" stroke="#000" stroke-linecap="round" stroke-linejoin="round" stroke-width="0.57"/><path d="M300.5,296.6l-24.9.5c-.5-7.6-.9-15.2-1.3-22.8l-1-14,10.3-1.1,14-1.6Z" transform="translate(-9.2)" fill="none" stroke="#000" stroke-linecap="round" stroke-linejoin="round" stroke-width="0.43"/><path d="M269.6,142.6,217,143.8l-35.2,1c-.1.1-.4.1-.7-.1l-.2-.3a7.5,7.5,0,0,1-.5-1.6,41.5,41.5,0,0,1-1.4-6.2l53.4-1.6,19.3-.4H271a5.3,5.3,0,0,0-.3,1.1,3,3,0,0,0-.2,1,26.4,26.4,0,0,0-.2,2.8v2.1a1.5,1.5,0,0,1-.2.8Z" transform="translate(-9.2)" fill="none" stroke="#000" stroke-linecap="round" stroke-linejoin="round" stroke-width="0.43"/><path d="M361.5,142.8H341.6l-44-.3H273.5a.5.5,0,0,1-.5-.1v-.5a11.7,11.7,0,0,1-.3-2.2,7.2,7.2,0,0,1-.1-1.8,11.5,11.5,0,0,1,.1-1.9,1.1,1.1,0,0,1,.4-.5h2.8l6.6-.3,7.4-.3c7.7-.2,20.7-.4,33-.8l30.9-.8H362l.4.2v.3c0,.8-.1,1.6-.1,2.5l-.3,6.2a.4.4,0,0,1-.1.3A.5.5,0,0,1,361.5,142.8Z" transform="translate(-9.2)" fill="none" stroke="#000" stroke-linecap="round" stroke-linejoin="round" stroke-width="0.43"/><path d="M271.8,151.5h-4l-18.3.4-12.6.4-16.9.5-18.6.4-13,.2h-4.1v-2.3c-.1-1.3-.1-2.4-.1-3.6a1.1,1.1,0,0,1,.1-.5.5.5,0,0,1,.4-.3l7.9-.4,12.6-.4,14.6-.6c12.1-.5,15.7-.4,18.2-.6h3.6a2.3,2.3,0,0,1,1.2,0l1.4.2h27.4v2a6.8,6.8,0,0,0,.2,1.4v3.1Z" transform="translate(-9.2)" fill="none" stroke="#000" stroke-linecap="round" stroke-linejoin="round" stroke-width="0.43"/><path d="M360.7,149.8l-11.4.4c-16.6.4-20.6.2-34.6.6l-15.8.5-15.4.5h-8.2a6.5,6.5,0,0,0-.5-1.5l-.4-1.3a20.1,20.1,0,0,1-.7-3.7.4.4,0,0,1,.1-.4h88.5l-.4,1.8a5.8,5.8,0,0,1-.3,1.7A3.6,3.6,0,0,1,360.7,149.8Z" transform="translate(-9.2)" fill="none" stroke="#000" stroke-linecap="round" stroke-linejoin="round" stroke-width="0.43"/><path d="M274.6,159.3H189.8c-.1-1.4-.1-2.9-.1-4.3l26.2-.4,23.9-.6c8.1-.2,20-.4,34.9-.4h.1c.1.2.1.3.2.4v.6a7.1,7.1,0,0,0,.1,1.5,6.2,6.2,0,0,0,.1.9,1.5,1.5,0,0,1,.1.6v.8l-.3.3Z" transform="translate(-9.2)" fill="none" stroke="#000" stroke-linecap="round" stroke-linejoin="round" stroke-width="0.43"/><path d="M362.5,159.1h-3.3c-4.7.1-7.6,0-12-.1H277.7c0-1-.2-1.8-.2-2.4a20.9,20.9,0,0,1-.1-2.5.5.5,0,0,1,.1-.3h.3l14.7-.2,8-.3h7.7c15.5-.2,27.7-.5,50.9-.6h3.3l.3,4,.3,1.9-.2.4Z" transform="translate(-9.2)" fill="none" stroke="#000" stroke-linecap="round" stroke-linejoin="round" stroke-width="0.43"/><path d="M362.1,168l-8.1.2H297l-16,.3a.9.9,0,0,1-.5-.5v-.6a36.8,36.8,0,0,1,0-4.7.8.8,0,0,1,.2-.6l.2-.3H300l54.7-.2h8a20.6,20.6,0,0,1-.2,3.4A23.6,23.6,0,0,1,362.1,168Z" transform="translate(-9.2)" fill="none" stroke="#000" stroke-linecap="round" stroke-linejoin="round" stroke-width="0.43"/><path d="M278.9,168.3H192.1a.5.5,0,0,1-.5-.1c-.2-.1-.2-.3-.3-.3V167c-.1-1.3-.1-2.5-.1-3.7a.8.8,0,0,1,.2-.5.6.6,0,0,1,.5-.2h15.6c22.4,0,29.7-.2,44.6,0,3.3.1,10.8.2,21.1,0h4.2a.9.9,0,0,1,.8.2.9.9,0,0,1,.3.5q.2.8.3,1.8A17.6,17.6,0,0,1,278.9,168.3Z" transform="translate(-9.2)" fill="none" stroke="#000" stroke-linecap="round" stroke-linejoin="round" stroke-width="0.43"/><path d="M271.7,177.8h-4.3l-34.8.3-26.3.4H194.6a.8.8,0,0,1-.2-.4,10.4,10.4,0,0,0-.2-1.5c-.2-.9-.2-1.7-.3-2.3v-1.6a.5.5,0,0,1,.1-.3l.3-.2h2.2c29.4-.1,41.6-.7,67-.5h5.6a2.1,2.1,0,0,1,1.3,1.3l.9,3.2Z" transform="translate(-9.2)" fill="none" stroke="#000" stroke-linecap="round" stroke-linejoin="round" stroke-width="0.43"/><path d="M362.8,172.6h-5.5c-15.6.5-27.4,1-45.2,1.8l-38.7,1.8c-.3-.8-.6-1.6-.9-2.6a20.7,20.7,0,0,1-.4-2.2l35.4-1.4,54.3-2.1.4,1.3A10.5,10.5,0,0,1,362.8,172.6Z" transform="translate(-9.2)" fill="none" stroke="#000" stroke-linecap="round" stroke-linejoin="round" stroke-width="0.43"/><path d="M269.7,183.7H250.9c-22.8.2-26.6.4-36.5.4-2.4,0-6.5-.1-12.2,0H181.8c-.1,0-.3-.1-.4-.4v-.7l.4-1.3.5-1.1c0-.1.2-.2.4-.4h33.8l35.1.2h18.1v1a4.2,4.2,0,0,1,0,1.6Z" transform="translate(-9.2)" fill="none" stroke="#000" stroke-linecap="round" stroke-linejoin="round" stroke-width="0.43"/><path d="M362.3,181.4c-.1,0-.1.1-.2.2l-.3.2H345.4l-20.5.3-23.4.4-10.3.3H273.4a4.1,4.1,0,0,1-.2-.7,6.2,6.2,0,0,1-.1-1.9,1.7,1.7,0,0,0,.1-.7,3.4,3.4,0,0,1,.1-.9,1.7,1.7,0,0,1,.1-.8c0-.2.1-.3.1-.4l.6-.3H281l7.1-.2,12.9-.4,22.6-.7c7.4-.2,14.9-.2,22.3-.6,0,0,3.1-.2,14.3-.3h2.2v1.3a9.5,9.5,0,0,0,.1,1.4V179a5,5,0,0,1-.1,1.6C362.4,180.9,362.3,181.2,362.3,181.4Z" transform="translate(-9.2)" fill="none" stroke="#000" stroke-linecap="round" stroke-linejoin="round" stroke-width="0.43"/><path d="M283.1,194.6c-53.4-.3-73.1-.4-78.3-.3H186l-.5-.2a.9.9,0,0,1-.3-.5,21.7,21.7,0,0,1-.1-2.6,26.7,26.7,0,0,1,0-4l77.3-.7c2.1-.1,9.1-.2,18.4,0h2.5v1.9c0,1.1,0,1.8-.1,3.3S283.1,193.2,283.1,194.6Z" transform="translate(-9.2)" fill="none" stroke="#000" stroke-linecap="round" stroke-linejoin="round" stroke-width="0.43"/><path d="M363.7,194.2h-78a10.9,10.9,0,0,1,.2-2.2,5.4,5.4,0,0,1,.1-1.1,5.8,5.8,0,0,0,.2-1.5c.1-.6.2-1,.3-1.4a12.4,12.4,0,0,1,.4-1.6h7.3l13.4-.2h56.3c0,1.6.1,3.3,0,5.1S363.8,193.1,363.7,194.2Z" transform="translate(-9.2)" fill="none" stroke="#000" stroke-linecap="round" stroke-linejoin="round" stroke-width="0.43"/><path d="M366.4,206.3l-22.6.9-81.3,3.5-23.3,1c-22,1-39.9,1.6-51.8,2a13.1,13.1,0,0,1-.3-2.3,22.3,22.3,0,0,1-.3-2.7,9.1,9.1,0,0,0-.3-1.6c-.1-1-.3-2.5-.4-4.8l32.6-1.1,76.1-2.6,14.7-.5c15.4-.6,20.9-.9,31.3-1.1h7.5l17.3-.4c0,.7.1,1.7.2,2.9s.3,2.1.4,3.5S366.3,204.8,366.4,206.3Z" transform="translate(-9.2)" fill="none" stroke="#000" stroke-linecap="round" stroke-linejoin="round" stroke-width="0.43"/><path d="M162.9,222.6H150.1c-4.4.1-4.4,0-5.6.2l-2.2.2h-1.8a22.2,22.2,0,0,0-3.7.1l-13,.4-11.6.4H99.9a.4.4,0,0,1-.3-.2V224c-.1-.1-.1-.4-.1-.7a3.9,3.9,0,0,1-.1-.9l-.2-.8v-.7a6.1,6.1,0,0,1-.1-1.4l.2-.3.2-.2h5.3l4.3-.2,3.3-.2,7.6-.5,14.5-.8,13.1-.8H153l2.5-.3H158l2.2-.2h5.3c0,.4-.2.7-.2,1a4.7,4.7,0,0,0-.5,1c-.1.4-.1.5-.2,1s-.3.9-.7,2l-.4.9a1.1,1.1,0,0,1-.1.6Z" transform="translate(-9.2)" fill="none" stroke="#000" stroke-linecap="round" stroke-linejoin="round" stroke-width="0.43"/><path d="M280.1,407l-.8.2h-4a9.9,9.9,0,0,1-1.8,0h-8.1l-5,.2h-7.8l-3.6.2H213.8l-9,.2H193.9a1.6,1.6,0,0,1-.3-.6c-.1-.1-.2-.4-.3-1.2l-.3-1.6v-.6a4.1,4.1,0,0,1-.1-1.2,4.4,4.4,0,0,1,0-1.2.4.4,0,0,1,.1-.3l.3-.3h7.2c6.9,0,10.9.1,16.4.3l28.8.4h33.5a.7.7,0,0,1,.6.3s.1.1.1.5a2.8,2.8,0,0,1,.1.6,2.1,2.1,0,0,0,.2.8,3.4,3.4,0,0,0,.2,1.1,2.8,2.8,0,0,1,.1,1,.6.6,0,0,1-.2.5C280.3,407,280.1,407,280.1,407Z" transform="translate(-9.2)" fill="none" stroke="#000" stroke-linecap="round" stroke-linejoin="round" stroke-width="0.43"/><path d="M381.3,404h-2.7l-17,.5-21,.7-16,.6c-7.5.3-14,.8-14,.8-6.2.4-9.9.7-16,.8h-5.5a1.2,1.2,0,0,1-.5-.5,2.9,2.9,0,0,1-.3-1,5.5,5.5,0,0,1-.2-1.2c0-.3-.1-.7-.1-1.1v-1c0-.4-.1-.6,0-.9l.4-.3,14.9-.2L326,401l17.5-.4,20.7-.5,16.1-.2h.5l.4.5c.1.1.1.3.3,1a2.6,2.6,0,0,0,.1.7,2,2,0,0,0,.1.9c0,.5-.1.7-.2.8Z" transform="translate(-9.2)" fill="none" stroke="#000" stroke-linecap="round" stroke-linejoin="round" stroke-width="0.43"/><path d="M380.7,398.2H365.4l-14.2.2h-9.1l-27,.5H287.7c-.1-.1-.2-.2-.3-.8a5.4,5.4,0,0,1-.2-1.1c-.1-1,0-.4,0-.8v-.4a.4.4,0,0,1,.1-.3c0-.1.1-.1.5-.2h2.5c3.6.1,6.3.1,7,0h15.9c19.9,0,24.8-.1,27.8-.2h4.4l11.3-.2,9.7-.2h13.8c.2,0,.3.1.6.8a12.4,12.4,0,0,1,.5,1.5.8.8,0,0,0,.1.3,6.9,6.9,0,0,1,.1.7l-.4.2C381,398.2,380.8,398.3,380.7,398.2Z" transform="translate(-9.2)" fill="none" stroke="#000" stroke-linecap="round" stroke-linejoin="round" stroke-width="0.43"/><path d="M278.3,399.4h-8.8c-3.1-.1-12.2-.3-23.6-.3H233.1l-22-.5-12.4-.3-4.5-.2-.5-.4a3.9,3.9,0,0,1-.4-1.4,7.1,7.1,0,0,0-.1-1.4,15.3,15.3,0,0,1-.1-1.8,5.3,5.3,0,0,0-.1-1.2,11.8,11.8,0,0,0,0-1.9,14.9,14.9,0,0,1,.1-1.7,1,1,0,0,1,.2-.6l.5-.3,7.7.2h17.6l10,.3,7.8.3,10.6.2h13.4l16.3.5a1.3,1.3,0,0,1,.8.2,2.5,2.5,0,0,1,.4,1,5.7,5.7,0,0,1,.1,1.2l.2,1.4a7.6,7.6,0,0,0,.2,1.9s.1,1.4.1,2.6,0,.3.1.7a1.5,1.5,0,0,1-.1.7c0,.2,0,.4-.2.5S278.4,399.5,278.3,399.4Z" transform="translate(-9.2)" fill="none" stroke="#000" stroke-linecap="round" stroke-linejoin="round" stroke-width="0.43"/><path d="M277.8,386.9h-2l-6.3-.2h-5.9l-11.6-.4-19.9-.5h-6.5s-19.9-.5-27.6-.9h-2.3c-.2,0-.4-.2-.6-.4s-.2-.4-.3-.6l-.2-1.1a4.2,4.2,0,0,1-.2-.6l-.2-.7-.3-.7a8.2,8.2,0,0,0-.4-1.1c-.2-.5-.1-.5-.2-.6a6,6,0,0,1-.1-1.3v-.9a3.2,3.2,0,0,1,.1-.8c0-.3.1-.5.2-.5h2.3c7.1.3,29.5,1.8,29.5,1.8l27.3,1.8,5.9.4c2.9.2,11.7.6,13.5.9l1.3.2h2.8l.6.2a2,2,0,0,1,.6.7l.4.7c.3.6.2.7.5,1.4s.4,1.1.5,1.4a.8.8,0,0,1,.2.6.4.4,0,0,1,0,.5l-.3.4-.3.3Z" transform="translate(-9.2)" fill="none" stroke="#000" stroke-linecap="round" stroke-linejoin="round" stroke-width="0.43"/><path d="M376.1,378H364.4c-16.9.1-30.7.2-47.5.7-9.2.2-16.7.5-28.9.5H278v-.8c0-.3-.1-.8-.1-1v-1c-.1-.1-.1-.2-.1-.4s0-.4.1-.4h.8c15.3,0,27.8-.2,36.5-.3,15.4-.3,30.6-.6,40.7-.6h10.6l8.7-.2h1.5l.5.4a1.3,1.3,0,0,1,.3.5v.6a.8.8,0,0,1,.1.4c0,.1.1.2.1.4s.2.2.2.3.2.4.2.6a.8.8,0,0,1-.2.5h-1.9Z" transform="translate(-9.2)" fill="none" stroke="#000" stroke-linecap="round" stroke-linejoin="round" stroke-width="0.43"/><path d="M380,385.7h-4.3l-9.8.2h-7.5l-17.4.2H313.1c-3.2.1-3.7,0-8.8,0H286.5c-.2,0-.3-.3-.4-.7a6.1,6.1,0,0,1-.3-1.3c-.1-.7,0-.8.1-.9h.8c4,0,10.4,0,18.3-.2l17.1-.2,21.3-.3H366l12.3-.3h.7l.2.3c0,.1.1.1.1.2a2,2,0,0,1,.4.8l.5,1.1c.1.2.2.3.2.5S380.1,385.6,380,385.7Z" transform="translate(-9.2)" fill="none" stroke="#000" stroke-linecap="round" stroke-linejoin="round" stroke-width="0.43"/><path d="M274.3,374.6l-73.5-2.2h-3.9l-1.7-.2a.8.8,0,0,1-.2-.6,9.7,9.7,0,0,1-.2-1.2c0-.4-.1-.6-.1-.8s-.1-3.5.1-7.3h7.1l8.4.5c6.2.4,11.8.4,29.5,1.4l12.6.6,7.9.4,8.4.3,4.2.2h1.6c.1,0,.3-.1.5,0a.5.5,0,0,1,.2.4,4.1,4.1,0,0,1,.3.8c0,.1,0,.1.4.8l.4.6a3.8,3.8,0,0,1,.1,1.2v3.3c-.1.8-.2,1.1-.4,1.3s-.4.2-.7.3Z" transform="translate(-9.2)" fill="none" stroke="#000" stroke-linecap="round" stroke-linejoin="round" stroke-width="0.43"/><path d="M277.3,367.5c3.8.1,9.3,0,9.3,0L331,367h0l20.9-.3,22.4-.6h1.4a1.1,1.1,0,0,1,.6.6,1.5,1.5,0,0,1,.3.7l.2.5a4.5,4.5,0,0,1,.3,1.3,1.1,1.1,0,0,1,0,.8l-.2.2-.8.3h-1.3l-48,.5c-6.6.1-15.6.3-27.9.3l-20.2-.2h-.8l-.7-.2a1.6,1.6,0,0,1-.4-.7,4.1,4.1,0,0,1-.3-.8c-.2-1.5-.3-2-.1-2.1h.9Z" transform="translate(-9.2)" fill="none" stroke="#000" stroke-linecap="round" stroke-linejoin="round" stroke-width="0.43"/><path d="M273.3,361.1l15.1-.2,37.3-.4c11.6-.1,28.5-.3,50.4-.8h1.8c.1.1.1.3.2.7v.7a2.1,2.1,0,0,1-.1.6,5.5,5.5,0,0,1-.1.9c-.1.4-.2.5-.2.6h-2.2l-12.9.4-36.1.7c-21.8.4-26.3.5-37.3.5H274.8a6.8,6.8,0,0,1-1.1-2.1C273.5,362.3,273.4,361.6,273.3,361.1Z" transform="translate(-9.2)" fill="none" stroke="#000" stroke-linecap="round" stroke-linejoin="round" stroke-width="0.43"/><path d="M268.7,362.1l-15-.3-32.4-1-15-.5H201l-4.6-.3h-2.1a1.5,1.5,0,0,1-.7-.7c-.2-.3-.2-.6-.3-.7v-3.3c0-.5.1-.6.2-.7h.5c.1,0,.3-.1.3,0h7.3l37,.5,28.5.4h1c.2,0,.3.2.6,1a4.8,4.8,0,0,1,.5,1.1c.1.4,0,.4.2,1.2s.2,1,.2,1.4v.6a1.8,1.8,0,0,1,.1.5v.4c0,.2,0,.3-.1.4h-.9Z" transform="translate(-9.2)" fill="none" stroke="#000" stroke-linecap="round" stroke-linejoin="round" stroke-width="0.43"/><path d="M269,350.9c-15.6.2-27.7.2-35.9.2H193.3a1.9,1.9,0,0,1-.7-.6,1.6,1.6,0,0,1-.3-.8c-.1-.2,0-.2-.1-.5a2.9,2.9,0,0,0-.2-.9,3.2,3.2,0,0,0-.1-.8,9.5,9.5,0,0,1-.2-1.9v-1c0-.5,0-.7.2-.9a.7.7,0,0,1,.5-.4h42.4c7.4.1,18.1,0,31.7-.2h.4a1.1,1.1,0,0,1,.8.2c.1,0,.2.2.4.4l.3.4a1.5,1.5,0,0,1,.3.7,2.5,2.5,0,0,1,.1.8c.1.3.2.7.4,1.6s.3,1,.4,1.5a7.5,7.5,0,0,0,.1,1.1v.7c0,.2,0,.3-.1.4H269Z" transform="translate(-9.2)" fill="none" stroke="#000" stroke-linecap="round" stroke-linejoin="round" stroke-width="0.43"/><path d="M378.7,354.9l-22,.5-26.9,1-18.5.5c-9.5.3-22.5.7-38.1,1h-.4c-.2-.1-.2-.3-.1-1v-1.1a1.3,1.3,0,0,0,.1-.5.9.9,0,0,1,.1-.5c0-.3,0-.4.1-.5h.8c17-.1,30.9-.4,40.7-.7l43.4-1.4,19.2-.5h1.8c.2.1.2.3.3.5a4.2,4.2,0,0,1,.2.6,9.4,9.4,0,0,1,.3.9c.2.5.2.6.1.7l-.5.2Z" transform="translate(-9.2)" fill="none" stroke="#000" stroke-linecap="round" stroke-linejoin="round" stroke-width="0.43"/><path d="M274.2,346.3c17.1-.1,31.1-.4,40.8-.5l32.8-.7,27.7-.6h1.9c.2.1.3.4.4.9l.3.9a11.3,11.3,0,0,1,.4,1.5c.2.6.2.9.1,1.1l-.4.3-20.8.3-44.3.8-38.3.5h-2.1c-.1-.1-.2-.2-.2-.9V349a3.9,3.9,0,0,0-.1-.9v-.9c0-.4,0-.7.3-.8h1.5Z" transform="translate(-9.2)" fill="none" stroke="#000" stroke-linecap="round" stroke-linejoin="round" stroke-width="0.43"/><path d="M375.8,341.9c-4,0-8,.2-11.9.1H311.4c-16.7-.1-15.8-.2-17.5-.1,0,0-4,.3-17.6,0-.3,0-.6,0-.6-.1h-.6c-.2-.1-.1-.4-.2-1.3v-.6a2.1,2.1,0,0,1,0-.9h12.4l21-.2,67.8-1.1h.8c.2,0,.3.4.4.7a4.9,4.9,0,0,1,.1,1.3,3.4,3.4,0,0,1-.1.9c0,.7-.1.9-.2,1l-.6.4Z" transform="translate(-9.2)" fill="none" stroke="#000" stroke-linecap="round" stroke-linejoin="round" stroke-width="0.43"/><path d="M376.3,335.2c-17.7.3-35.5.5-53.5.6H276.2c-.6,0-.9,0-1.1-.2a2.8,2.8,0,0,0-.1-.6,1.3,1.3,0,0,1,.1-.7l.2-.3h1.4l45.8-.4,55.1-.7h.4c.1.1.1.2,0,.5a1.1,1.1,0,0,1-.1.6,1.5,1.5,0,0,1-.1.6l-.2.3-.7.3Z" transform="translate(-9.2)" fill="none" stroke="#000" stroke-linecap="round" stroke-linejoin="round" stroke-width="0.43"/><path d="M377.6,328.7l-11.9.5-18.1.5-34.6.9-19.3.4-18,.2h-.9c-.1,0-.1-.1-.3-.6s-.1-.4-.2-.8a4.5,4.5,0,0,0-.2-.8c-.1-.4-.1-.6,0-.7h.9l38-.8c28.6-.5,36.2-.7,42.2-1L367,326h11a.8.8,0,0,1,.6.2l.3.4a2.2,2.2,0,0,1,.1.8v.7a.8.8,0,0,1-.1.4c0,.1,0,.2-.1.2h-1.2Z" transform="translate(-9.2)" fill="none" stroke="#000" stroke-linecap="round" stroke-linejoin="round" stroke-width="0.43"/><path d="M375.5,325.8l-17.2-.5c-11.5-.2-15.4,0-31.3-.2l-10.7-.2-41.2-.7h-.7l-.8-.2c-.1-.1-.1-.3-.2-.8a2.7,2.7,0,0,1,0-1,.4.4,0,0,1,.1-.3c.1-.2.3-.1.5-.1h1.1l25.4.2h9.3l41.4.2h16.2c2.7-.2,5.4,0,8.1-.1h.5l.4.2c.1.1.1.2.1.9v1.1c0,.4-.1.3-.1.6v.4c0,.1-.1.3-.2.3s-.1.1-.3.1Z" transform="translate(-9.2)" fill="none" stroke="#000" stroke-linecap="round" stroke-linejoin="round" stroke-width="0.43"/><path d="M377.2,319.6H275.5c-.1-.1-.1-.2-.1-.6a.7.7,0,0,1,0-.5c0-.5-.1-.6-.1-1.3v-.7c0-.4,0-.5.1-.6h.6a2.7,2.7,0,0,1,.9,0l58.7-.4,16.7-.2,26.3-.6h.4c.4,0,.6,0,.7.2s.3.4.4.6a4.3,4.3,0,0,0,.1.5,5.2,5.2,0,0,1-.2,1.1v1.8c-.1.5-.1.7-.2.8a.7.7,0,0,1-.6.2Z" transform="translate(-9.2)" fill="none" stroke="#000" stroke-linecap="round" stroke-linejoin="round" stroke-width="0.43"/><path d="M374,307.8l-18.5.8c-27.3,1.1-31.8,1.4-44.2,1.8l-18.8.6-17.7.5a3.2,3.2,0,0,0,.7,2l.8.3h17.1l16.3-.3,23.4-.5,21.2-.6,12.3-.3,7.4-.2h.7c.1,0,.1-.1.1-.3v-.9a8.2,8.2,0,0,0-.1-1.4,2,2,0,0,0-.1-.7l-.2-.4Z" transform="translate(-9.2)" fill="none" stroke="#000" stroke-linecap="round" stroke-linejoin="round" stroke-width="0.43"/><path d="M374.9,304.1l-15.1.7-37.5,1.8-35.6,1.7-17,.7a18,18,0,0,0-.8-2.1,51.4,51.4,0,0,1-1.5-5.5l19.3-.8c14.4-.6,25.6-1.2,36-1.8l34.7-1.8,12.9-.6,2.6-.2h2a2.5,2.5,0,0,0,.1.8v4.1C375,301.9,375,302.9,374.9,304.1Z" transform="translate(-9.2)" fill="none" stroke="#000" stroke-linecap="round" stroke-linejoin="round" stroke-width="0.43"/><path d="M267.7,339.4H192.6c-.1.1-.4,0-.6-.2a.4.4,0,0,1-.1-.3,1.7,1.7,0,0,1-.2-.7c-.1-1.1-.1-1.7-.2-2.2V335a1.1,1.1,0,0,1,.1-.6c0-.1,0-.2.1-.2l.4-.2h6.2l19.7.4,10.5.2c11.8.2,15,.1,24.5.2l12.9.3h.3a1.5,1.5,0,0,1,.8.2l.3.2.3.5.5.9a3.2,3.2,0,0,1,.2,1.3.4.4,0,0,1,0,.5v.3c-.1.2-.1.2-.1.3h-.5Z" transform="translate(-9.2)" fill="none" stroke="#000" stroke-linecap="round" stroke-linejoin="round" stroke-width="0.43"/><path d="M265.7,331.1H252.2c-6.7-.2-9.2,0-23.1-.2l-14.6-.2-12.7-.3-9.1-.3h-.5l-.5-.2c-.3-.2-.3-.4-.4-.7s-.1-.3-.2-1.2a1.5,1.5,0,0,1-.1-.6,5.4,5.4,0,0,1-.2-1.1,5.1,5.1,0,0,1-.1-1,2,2,0,0,1,0-.8c.1-.3.2-.4.3-.4h8.3c1-.1,1.6-.1,8.7,0h8.7l12.3.3,14.6.2,20.9.4.9.2c.4.1.5.1.7.3a1.9,1.9,0,0,1,.6.7,3.5,3.5,0,0,1,.1,1.2c0,.3.1.6.1,1.3s.2,1,0,1.4a1.5,1.5,0,0,1-.3.5A1.6,1.6,0,0,1,265.7,331.1Z" transform="translate(-9.2)" fill="none" stroke="#000" stroke-linecap="round" stroke-linejoin="round" stroke-width="0.43"/><path d="M265.1,322.2l-20.2-.4H202.2l-9.3-.2h-3.3l-.5-.2a.8.8,0,0,1-.2-.5c-.1-.2,0-.3,0-.5v-2.2a10.6,10.6,0,0,1,.2-2.3,1,1,0,0,0,.1-.4c.1-.1,0-.2.1-.4s.1-.4.1-.4h4c5.1.3,10.9.4,10.9.4l28.4,1,10.5.3c5.6.3,9.2.5,14.8.6h5.7l.2.3c.2.2.2.4.3.4s.3.8.5,1.6a13,13,0,0,1,.3,1.5C265,321.5,265.1,321.9,265.1,322.2Z" transform="translate(-9.2)" fill="none" stroke="#000" stroke-linecap="round" stroke-linejoin="round" stroke-width="0.43"/><path d="M263.9,313.5l-8.2-.3c-10.6-.3-17.6-.7-39.3-1.7l-10.9-.5-6.3-.3h-3.1l-7-.3c-.5-2.7-.8-3.9-1-4.6a8.8,8.8,0,0,1-.2-1.4,8.2,8.2,0,0,1-.1-1.4l6.1.2,14.6.3,56.5,1.5q-.2.8-.3,2.1c-.2,1.1-.2,1.1-.3,1.9a22.8,22.8,0,0,0-.2,2.6C264.1,312,264,312.7,263.9,313.5Z" transform="translate(-9.2)" fill="none" stroke="#000" stroke-linecap="round" stroke-linejoin="round" stroke-width="0.43"/><path d="M183.4,324.2l-.3.3-.6.2-4.7.4-2.9.2-5,.4-15.8,1.1L133,328.4l-3.6.3-4.3.3a1.2,1.2,0,0,1-.7-.2.5.5,0,0,1-.4-.3v-1.9c0-.8.1-.8.1-1.4v-2.5c-.1-.7-.1-1.1-.2-1.9s-.1-1.2-.1-2.2-.1-.2,0-.4a.9.9,0,0,1,.6-.3h13.2l40.5-.2h4l.2.2.2.2c.1.3.1.7.2,1.2a8.5,8.5,0,0,1,.4,1.7c.3,1.3.3,1.7.4,2.1S183.4,323.9,183.4,324.2Z" transform="translate(-9.2)" fill="none" stroke="#000" stroke-linecap="round" stroke-linejoin="round" stroke-width="0.43"/><path d="M179.2,312.3l-8.8.4h-4.5l-15.2.6-15.5.5h-2.6c-1.5,0-2.4.1-3.9,0h-1.1l-.3-.3a1.6,1.6,0,0,1-.2-1,5.4,5.4,0,0,0-.1-1.1v-2.2c0-.5-.1-1.7-.1-1.7a1.7,1.7,0,0,1,.1-.7h10.5l5.6-.3,6.6-.2,8.4-.2,9.9-.3,12.2-.3c-.1,1.5-.1,2.5-.1,3.3a4,4,0,0,1,0,1.6,3.7,3.7,0,0,1-.5,1.5Z" transform="translate(-9.2)" fill="none" stroke="#000" stroke-linecap="round" stroke-linejoin="round" stroke-width="0.43"/><path d="M177.4,304.7h-9.9c-5.4,0-6.8-.2-15.5-.3h-9.5l-7.8-.2h-7.8a13.5,13.5,0,0,1-.8-2.4,14.7,14.7,0,0,1-.7-4.3H129l5.4.2h6.7l12,.3,13.8.2,10.7.2.3.2c.2.1.2.4.2.5s.1.5.1.9a8.6,8.6,0,0,1,.1,2.2,8.9,8.9,0,0,1-.1,1.3c0,.4-.1.6-.1.9H178C177.8,304.6,177.5,304.6,177.4,304.7Z" transform="translate(-9.2)" fill="none" stroke="#000" stroke-linecap="round" stroke-linejoin="round" stroke-width="0.43"/><path d="M173.3,294.7h-1.4a27.4,27.4,0,0,1-2.9,0h-4.2l-4.2-.2h-5.9l-3.8-.2-7.8-.3-7.2-.2-6-.3h-2.5l-4.4-.2h-.9l-.5-.2-.3-.4a1,1,0,0,1-.1-.4,1.8,1.8,0,0,1-.1-.6,13.7,13.7,0,0,0-.2-1.9c-.1-1-.2-1.1-.2-1.3s-.1-.6-.2-1a10.4,10.4,0,0,0-.3-1.2l10.8.2h42.3v.2c0,1,.1,1.8.1,2.3v2.5a13.1,13.1,0,0,1,.1,1.7v1.1s.1.1,0,.3Z" transform="translate(-9.2)" fill="none" stroke="#000" stroke-linecap="round" stroke-linejoin="round" stroke-width="0.43"/><path d="M173.4,282.3H151.6l-19.7-.3c-1.1,0-4,0-8-.2h-3.5a.4.4,0,0,1-.3-.2.3.3,0,0,1-.1-.2c0-.4-.1-.9-.1-1.6s-.1-2.1-.1-3,0-1.6.1-2.7a.4.4,0,0,1,.1-.3.6.6,0,0,1,.4-.2h13.1l8.9.3,9.8.4,9.7.2,9.2.4h2.7l.3.3a.6.6,0,0,1,.1.4v1.6c0,1.1-.1,1.1-.1,1.9v1.1a2.8,2.8,0,0,0-.1.8c-.1.3-.1.6-.2.7l-.2.3Z" transform="translate(-9.2)" fill="none" stroke="#000" stroke-linecap="round" stroke-linejoin="round" stroke-width="0.43"/><path d="M173,272.6h-3.8l-47.7-1.3h-1.8c0-.1-.2-.1-.3-.3v-.3a3.5,3.5,0,0,1,.1-1.3,4.5,4.5,0,0,0,.1-1.1,8.2,8.2,0,0,0,.2-1.6,1.5,1.5,0,0,1,.2-.8c.1-.3.2-.4.3-.4h.3l5,.2,10.1.5,10.5.6,17.7.9,4.3.2,4.7.2h.3c.2.1.4.1.4.2a.4.4,0,0,1,.1.3c0,.6-.1,1.5-.1,1.9v.8a1.5,1.5,0,0,0-.1.6c0,.1-.1.2-.1.3s-.2.2-.2.3Z" transform="translate(-9.2)" fill="none" stroke="#000" stroke-linecap="round" stroke-linejoin="round" stroke-width="0.43"/><path d="M182.9,264.4l-10.8-.2h-7.2l-8.4-.2-8.3-.2h-9.9l-9.8-.2c-3.2,0-5.1,0-8.6-.2h-1.6l-.3-.2v-.2a6.6,6.6,0,0,1-.1-1.3,3.4,3.4,0,0,1-.1-.9,6.2,6.2,0,0,0-.1-1.2v-1.4a.8.8,0,0,1,.1-.4.9.9,0,0,1,.3-.5h.4l48.6-2.2L182,254h.4l.2.3q.5,2.4.6,3.6a4.5,4.5,0,0,0,.1,1.3v2.1a20.9,20.9,0,0,1-.1,2.4.8.8,0,0,1-.1.4C183.1,264.3,183,264.3,182.9,264.4Z" transform="translate(-9.2)" fill="none" stroke="#000" stroke-linecap="round" stroke-linejoin="round" stroke-width="0.43"/><path d="M189.2,250.5v.2h-.4l-15.8.7-19.4,1c-16,.7-31,1.1-31,1.1h-.6l-.3-.2v-5.7a.8.8,0,0,1,.2-.6.6.6,0,0,1,.5-.2l13.2-.4c1.6-.1,5.3-.3,10.6-.4h2.8l27.9-1.3,12-.4s.3,0,.4.2.1.1.1.2v2.7a6,6,0,0,0,.2,1.2v.5A4.2,4.2,0,0,1,189.2,250.5Z" transform="translate(-9.2)" fill="none" stroke="#000" stroke-linecap="round" stroke-linejoin="round" stroke-width="0.43"/><path d="M188.3,240.5h-1.2l-3.6.3c-2.2,0-4.3.2-6.4.3l-5.3.3-8.1.4-14,.7-9.8.6-8.9.5h-9.8l-.2-.2-.2-.4c-.1-.1-.1-.3-.2-.5a7.6,7.6,0,0,1-.1-1.4v-3.7a.3.3,0,0,1,.1-.2v-.2l2.2-.2h7l11.8-.5,20.6-.8,10.1-.3c4.1-.2,8.3-.2,12.4-.6h2.3l.4.2.4.2.3.4c0,.1.2.3.3.6s.1.3.1.6a5.9,5.9,0,0,1,.1,1.1,16.4,16.4,0,0,1,.1,2,.6.6,0,0,1-.2.4Z" transform="translate(-9.2)" fill="none" stroke="#000" stroke-linecap="round" stroke-linejoin="round" stroke-width="0.43"/><path d="M187.8,230.1c0,.1,0,.2-.2.4h-.2l-2.9.3h-4l-4.7.3-5.7.2-7.5.4-10.9.5-13.4.6-16.2.8-10.3.5-1.6-1.2-1.4-1.4,10.8-.5,16.7-.9c8.1-.4,8.7-.3,14.7-.7l8.9-.4,3.8-.2,6.1-.3h2.9l7.1-.4,7.3-.2.4.2a.4.4,0,0,1,.2.4c0,.3.1.6.1,1Z" transform="translate(-9.2)" fill="none" stroke="#000" stroke-linecap="round" stroke-linejoin="round" stroke-width="0.43"/><path d="M186.5,225.8h-2.6l-4.6.2c-2.1.2-3.3.2-6.9.3l-11.2.5-13.4.6-12.6.6-13.3.6-12.7.6-4.2.2-1.6-1.5-1.3-1.5h4.8l5.5-.2c4.5-.3,8.4-.3,13.6-.5,2.7,0,2.3,0,20.8-.8l12.4-.6,17.3-.6,8.6-.3a6,6,0,0,1,.8.8A4.6,4.6,0,0,1,186.5,225.8Z" transform="translate(-9.2)" fill="none" stroke="#000" stroke-linecap="round" stroke-linejoin="round" stroke-width="0.43"/><path d="M379.7,209.3a6.4,6.4,0,0,0-1.4,0h-9.8l-5.9.2-12.2.4-12.8.3-12.6.3-9.7.4-7.3.2-8.5.3-9.2.3-7.6.2-7.1.2-26.3.9L220,214.4l-16,.5c-3.1.2-6.9.4-12.3.5h-15l-8.7.4c-.2.1-.4.1-.5.3s-.1.2-.2.6a4.1,4.1,0,0,1-.1,1.1v.7c-.1.5-.1.7-.2,1.5a2,2,0,0,1-.1.7v.5a1.7,1.7,0,0,0,.1.7v.4h5l7.2-.3,13-.5,13.4-.5,12-.4,7.2-.4,15.5-.6,16.3-.5,14.1-.7,4.9-.3h3.7l4-.2,7.8-.3,23.8-.9,8.9-.4,5.2-.3,8.1-.2,8.7-.3h2.4l2.6-.2,10.7-.3,4.3-.2h12.9l.3-.7a9.1,9.1,0,0,0,.3-1.2V212A16.8,16.8,0,0,0,379.7,209.3Z" transform="translate(-9.2)" fill="none" stroke="#000" stroke-linecap="round" stroke-linejoin="round" stroke-width="0.43"/><path d="M190.4,221.9a2.2,2.2,0,0,0,.1.8V224a.6.6,0,0,1,.1.4c.1.2.1.3.2.3l.4.2h6.7l10.4-.3,15.5-.4c12.1-.2,15.8-.4,31-.8,21.7-.5,19.6-.2,37-.7l27.4-.8,16.7-.3,27.8-.4,10.8-.2.2-.2c.1,0,.1-.1.2-.3a1.1,1.1,0,0,1,.1-.5v-.4a1.5,1.5,0,0,0,.1-.6,1.3,1.3,0,0,1,.1-.5c.1-.6.1-.8.2-1.2s.1-.5.1-.8h-6c-10.8.2-29.1.9-29.1.9l-32.5.9-11.8.4-55.8,1.2" transform="translate(-9.2)" fill="none" stroke="#000" stroke-linecap="round" stroke-linejoin="round" stroke-width="0.43"/><path d="M365.5,227.3c-14.5.3-26.3.7-34.6,1L292,229.7l-9.4.2h-6.2c-3.1,0-4.9.1-13.7.5l-10,.4-11.2.3-8.3.3-8.4.3-9,.3H202l-8.6.2a1,1,0,0,1-.7-.5c-.1-.1-.1-.4-.2-.9v-1.6a2.5,2.5,0,0,0,.1-.8c.1-.4.1-.5.2-.6s.3-.3.5-.3h3.1l4.6-.2,3.9-.2h8.3l6.4-.3,6.9-.2h6l9.5-.3h4.7l11.4-.4,13.3-.3,5.1-.2,6.4-.2,12.4-.2c10.4,0,20.3-.7,45.5-1.5l16.1-.4h10.3q.2.1,0,.6v.3l-.3.4c0,.1-.1.2-.1.4a.9.9,0,0,0-.1.5c-.1.1-.1.2-.3.6a2.7,2.7,0,0,1-.4.8Z" transform="translate(-9.2)" fill="none" stroke="#000" stroke-linecap="round" stroke-linejoin="round" stroke-width="0.43"/><path d="M265.3,235.7H250.6l-23.8.3-28.3.2h-5.7l-.5-.2a1.1,1.1,0,0,1-.1-1,1.7,1.7,0,0,1,.1-.8,1.4,1.4,0,0,1,1-.5h5.2l13.9-.4,14.9-.5,12-.4,11.2-.3,6.8-.2,5.4-.3h3.2a.7.7,0,0,1,.6.2q.2,0,.3.6a5.2,5.2,0,0,1,.2,1.4,8.1,8.1,0,0,1,.1.9c.1.5.1.7,0,.8s-.2.2-.7.2Z" transform="translate(-9.2)" fill="none" stroke="#000" stroke-linecap="round" stroke-linejoin="round" stroke-width="0.43"/><path d="M268.4,241.7l-11.8.4-21.5.8-14.6.5-14.9.6-11.9.2c-.2-.8-.5-1.7-.7-2.7s-.4-1.8-.5-2.6h12.7l14.4-.2,15.6-.2h33.9c.1,0,.1.1.2.3v.6a2.8,2.8,0,0,1,.1.9c0,.5-.1.4-.1.8v.4l-.2.4h-.7Z" transform="translate(-9.2)" fill="none" stroke="#000" stroke-linecap="round" stroke-linejoin="round" stroke-width="0.43"/><path d="M269.6,249.6l-25.9.2-20.5.3-17.3.2c-1,0-4.2.2-8.5.1h-3.1a.8.8,0,0,1-.6-.2,6.6,6.6,0,0,1-.2-.9,2.1,2.1,0,0,1-.1-.6c0-.6,0-.9.1-1a.7.7,0,0,1,.6-.6l9.8-.3,17.9-.6c13.2-.4,18.4-.4,25.5-.7l5.1-.2c3.5-.2,5.4-.2,8.4-.2l8.7-.2h.5l.7.2c.1.1.1.3.1.6v1.6a10.6,10.6,0,0,1-.1,1.5,2,2,0,0,0-.1.5c-.1.2-.1.3-.2.3h-.8Z" transform="translate(-9.2)" fill="none" stroke="#000" stroke-linecap="round" stroke-linejoin="round" stroke-width="0.43"/><path d="M264.2,253l-16.8,1.3-10.8,1-11.5,1-11,.9-9.8.7-3.9.4-2.8.2h-.8l-.2-.3a1.8,1.8,0,0,1-.1-.5c0-.1,0-.1-.1-.4v-.8c-.1-.3-.1-.3-.1-.4v-.6a.8.8,0,0,1,.1-.4v-.4l.4-.2h.4l6.7-.3,9.8-.5,11.3-.6c6.2-.3,6.2-.4,11.9-.8l13.8-.7,13.6-.7h.5c.1,0,.1.1.1.9v.7c-.1,0-.1.1-.1.2s-.1.1-.2.2Z" transform="translate(-9.2)" fill="none" stroke="#000" stroke-linecap="round" stroke-linejoin="round" stroke-width="0.43"/><path d="M266,261.4l-5.6.3c-19.6,1.1-36.2,1.9-48.3,2.4l-14.9.7-.6-.2c-.2-.2-.2-.4-.3-1l-.2-1.5c-.1-.7-.1-.9,0-1.1l.5-.4h3.2l10.9-.5,8.1-.2,45.6-2h1.5c.1.1.1.2.2.6s.1.3.1.5l.2.9a2.3,2.3,0,0,1,.2.9,1.1,1.1,0,0,1-.2.7Z" transform="translate(-9.2)" fill="none" stroke="#000" stroke-linecap="round" stroke-linejoin="round" stroke-width="0.43"/><path d="M262.8,268.2l-31.2.2H184.5l-.5-.2-.6-.2-.2-.4a1.8,1.8,0,0,1-.1-1,1.7,1.7,0,0,1,.2-.9,1.2,1.2,0,0,1,.7-.2h6.3c9.9-.1,14.1-.3,21.7-.5s6.1.1,19.4-.1l18.4-.4,13.4-.3h1c.4,0,.4.1.4.1s.1.1.1.5a1.2,1.2,0,0,1-.1.5,9.6,9.6,0,0,0-.2,1.2c-.1.2-.1.4-.3.8l-.2.4c-.1.2-.1.3-.2.4h-.9Z" transform="translate(-9.2)" fill="none" stroke="#000" stroke-linecap="round" stroke-linejoin="round" stroke-width="0.43"/><path d="M260.7,275.7l-26.3-1.1-22.3-1.2-21-.8-9.9-.5h-.4l-.5-.2c-.1-.1-.1-.3-.2-.6v-.4a1.1,1.1,0,0,1,.4-.5h51.6c7,0,17.1-.1,29.4,0h.8c.2,0,.2.2.3.3s0,.1.1.4a1.1,1.1,0,0,1,.1.5,2,2,0,0,1,.1.7c0,.5.1.9.1,2.3a.7.7,0,0,1,0,.5,1.7,1.7,0,0,1-.1.7h-2.2Z" transform="translate(-9.2)" fill="none" stroke="#000" stroke-linecap="round" stroke-linejoin="round" stroke-width="0.43"/><path d="M263.4,282.3l-24.1-.7-22.6-.9-14.9-.4-18.6-.5h-.7l-.4-.2a1.3,1.3,0,0,1-.3-1,.8.8,0,0,1-.1-.4V277l.3-.3h.6l55.6,1.4,23.5.5h1.6a.8.8,0,0,1,.4.4,4,4,0,0,1,.7,1.9v.6c0,.4,0,.6-.1.7h-.9Z" transform="translate(-9.2)" fill="none" stroke="#000" stroke-linecap="round" stroke-linejoin="round" stroke-width="0.43"/><path d="M262.8,290.1l-16.2-.3-7.4-.3-7.8-.2-17.1-.3-14.1-.4-12.3-.4c-5.2-.2-9.3-.2-12-.2h-.7a.7.7,0,0,1-.4-.2c-.1-.1-.2-.3-.3-1.2v-.9c.1-.3.1-.5.3-.6h3.6c3.9.2,9.4.2,9.4.2H201l6.5.2h7.4c1.6,0,7.8-.1,14.5.1l11.5.2h4.8l16.3.3h1.3c.1.1.1.2.2.7a3.7,3.7,0,0,1,.2.9c0,.4.1.6.1.9v.6a1.5,1.5,0,0,1-.1.6h-.9Z" transform="translate(-9.2)" fill="none" stroke="#000" stroke-linecap="round" stroke-linejoin="round" stroke-width="0.43"/><path d="M183.2,288.6l6.2.4,12.1.6,19.8,1,32.5,1.6,9.2.4.5.2c.3.1.5.1.6.3s.2.2.2,1a6.9,6.9,0,0,0-.2,1.3c-.1.5-.2.5-.2.9l-.2.6c-.1.2-.1.3-.2.3h-.7l-7.2-.4c-24.1-1.2-34.9-1.1-57.2-2.1l-15.5-.8-.6-.2a.5.5,0,0,1-.4-.2c0-.1-.1-.1-.1-.5a1.8,1.8,0,0,1-.1-.5,9.6,9.6,0,0,1,0-1.7c0-.2,0,0,.1-1.2s.1-.9.4-1h1Z" transform="translate(-9.2)" fill="none" stroke="#000" stroke-linecap="round" stroke-linejoin="round" stroke-width="0.43"/><path d="M262.7,301.8l-9.4-.2-12-.2h-4.8a39.9,39.9,0,0,0-4.7-.1c-1.9.1-2.3,0-11.7,0H208.3l-17-.4h-8.1l-.6-.2a3.3,3.3,0,0,1-.3-1.3,1,1,0,0,0-.1-.4v-.9h13.5l12.8.3h10.6l8.4.2h35.6c.2,0,.4,0,.5.2s.1.1.2.4a.4.4,0,0,0,.1.3,2.8,2.8,0,0,0,.1.9v.4c0,.3,0,.4-.1.4l-.2.2h-1Z" transform="translate(-9.2)" fill="none" stroke="#000" stroke-linecap="round" stroke-linejoin="round" stroke-width="0.43"/><path d="M442.6,215H431.1l-5.7-.2H381.8l-.2-.3v-2.1c.1-1.3.1-2.5.3-3.7h2.9c16.9.4,25.4.6,32.8.6l11.1.2h13.5a.6.6,0,0,1,.2.4c0,.8.1,1.7.1,2.5A22.6,22.6,0,0,1,442.6,215Z" transform="translate(-9.2)" fill="none" stroke="#000" stroke-linecap="round" stroke-linejoin="round" stroke-width="0.43"/><path d="M442.3,222.9h-3.7l-6.4-.2-9.3-.2-7.8-.2h-14l-5.2-.2h-5.4l-5.7-.2-4.9-.2h-2.4l-.3-.2c-.2-.2-.2-.4-.2-1.2v-1c.1-.5.2-.7.3-.7a.6.6,0,0,1,.5-.2h7c5.2.1,12,.4,28.3.5l10.5.2,8.2.3c1.5,0,3.2-.1,5.9,0h3.9l.5.3q.1,0,.3.6a8.7,8.7,0,0,1,.2,1v.9c.1,0,.1.1.1.2v.3a.1.1,0,0,1-.1.1h-.3Z" transform="translate(-9.2)" fill="none" stroke="#000" stroke-linecap="round" stroke-linejoin="round" stroke-width="0.43"/><path d="M440.9,229.3H414.7c-14.8-.1-17,.2-33.6.1h-8.8l-.2-.3a1.2,1.2,0,0,1-.2-.6v-2.2c0-.6,0-.8.2-1h11.7c10.7-.1,14.7-.3,24.7-.2h7.4l17.6.2h9.6a6.4,6.4,0,0,1-.6,1.6l-.5.9A11,11,0,0,1,440.9,229.3Z" transform="translate(-9.2)" fill="none" stroke="#000" stroke-linecap="round" stroke-linejoin="round" stroke-width="0.43"/><path d="M368.1,229.6l-28.4.7-17.1.4-19.4.6-12.5.3-12,.3h-3.4a1,1,0,0,0-.7.2l-.3.7c-.2.6-.3.5-.4,1a3.6,3.6,0,0,0-.3,1.8l20.1-.5c17.4-.5,22-.9,37.4-1.3l14-.4,12.6-.4h9.1l.6-.7.3-.7a6.4,6.4,0,0,0,.2-.7A3.9,3.9,0,0,0,368.1,229.6Z" transform="translate(-9.2)" fill="none" stroke="#000" stroke-linecap="round" stroke-linejoin="round" stroke-width="0.43"/><path d="M358.3,240.4H301.7l-12.8-.2h-15a1.1,1.1,0,0,1-.4-.9c-.1-.1-.1-.3-.1-.6s.1-.3.1-.6v-.7c0-.3,0-.4.1-.5s0-.2.2-.3h31.6l40.4-.3h14.6c.1.2.1.3,0,.4v.4c-.1.1-.1.2-.1.4s-.1.2-.2.5-.2.4-.2.6a1.3,1.3,0,0,0-.1.5v.6a.9.9,0,0,1-.3.7h-1.2Z" transform="translate(-9.2)" fill="none" stroke="#000" stroke-linecap="round" stroke-linejoin="round" stroke-width="0.43"/><path d="M367.9,243.4a3.1,3.1,0,0,1-.1,1v1.5a.8.8,0,0,0-.1.4h-2.1l-17.5.2-47.4.4h-27c-.1-.1-.1-.2,0-.4v-1.1c.1-.5,0-.6.1-.9v-.4c0-.1,0-.1.1-.2s0-.4.1-.4h1.3c5.2.2,9.4.2,12.3.2h22.8l9.6-.3h41.8" transform="translate(-9.2)" fill="none" stroke="#000" stroke-linecap="round" stroke-linejoin="round" stroke-width="0.43"/><path d="M441,243.6H428.8c-10.4,0-18-.2-20.2-.2-7.9-.2-21.6-.4-46.5,0l-.3-.2c-.2-.2-.3-.5-.3-1.4s-.1-1.5.1-1.7.3-.3.4-.4l16.2-.2c13-.2,21-.5,28.7-.8s20.7-.5,35.7-.5C442.1,240.1,441.5,241.9,441,243.6Z" transform="translate(-9.2)" fill="none" stroke="#000" stroke-linecap="round" stroke-linejoin="round" stroke-width="0.43"/><path d="M441.5,234.5l-10.4.5-31.9,1.6-24.4,1.2-5.5.2-6.8.2h-.7a.4.4,0,0,1-.2-.4,6.3,6.3,0,0,1,.1-1.1,8.4,8.4,0,0,1,.5-1.8l.4-.8,7.7-.2,31.1-1.3c9.4-.4,18.7-.7,28-1.2l10.1-.3h2.7c.2.1.2.3.2.5a10.3,10.3,0,0,1,.1,1.3,3.7,3.7,0,0,1-.1.8c0,.4,0,.4-.1.5S442.1,234.5,441.5,234.5Z" transform="translate(-9.2)" fill="none" stroke="#000" stroke-linecap="round" stroke-linejoin="round" stroke-width="0.43"/><path d="M366.8,253.4l-10,.5c-35,1.6-48.2,2.3-72.7,3.3l-10.8.4a6.9,6.9,0,0,0-.2-1.3,16,16,0,0,1,0-3.1l35.5-1.8,57.9-2.5h1.8c.1,0,.1.1.1.3v.3c.1.3,0,.4,0,.7v1.8c0,.5,0,.8-.3,1a.5.5,0,0,1-.4.2Z" transform="translate(-9.2)" fill="none" stroke="#000" stroke-linecap="round" stroke-linejoin="round" stroke-width="0.43"/><path d="M435.8,249.4l-23.9.6-7.5.2h-3.9l-19.6.5-8.3.2h-1.5c-.1-.1-.1-.3-.2-.7v-.5c0-.4-.1-.4-.1-.9s0-.2-.1-1-.1-.6,0-.7H372l16.2-.3c7.7-.1,6.7-.3,23.5-.8l11.4-.3h13.4c.2.1.1.3.2.4v2.4c0,.5,0,.7-.1.8l-.6.2Z" transform="translate(-9.2)" fill="none" stroke="#000" stroke-linecap="round" stroke-linejoin="round" stroke-width="0.43"/><path d="M442,315.5h-.9l-6.2.2-11,.5-24,1-12.5.4h-3.9a.8.8,0,0,1-.8-.1l-.2-.5c-.1-.2-.1-.4,0-.9v-.9a3.9,3.9,0,0,1,.1-.9v-1.8a.4.4,0,0,1,.2-.4l.3-.2H387l5.7-.3,5.1-.3,16.2-.6,12-.7,13.6-.8h3.5a.7.7,0,0,1,.1.5,4.5,4.5,0,0,1-.2.8,2.8,2.8,0,0,0-.1.6,2.2,2.2,0,0,0-.1.8,5.1,5.1,0,0,0-.1,1c0,.8.1,1-.1,1.5a.8.8,0,0,1-.2.5C442.3,315.2,442.1,315.3,442,315.5Z" transform="translate(-9.2)" fill="none" stroke="#000" stroke-linecap="round" stroke-linejoin="round" stroke-width="0.43"/><path d="M442.7,307.8l-6.7.2-13.4.4-8,.4-8.5.5c-5.5.3-4.9.1-14.9.5l-9.2.3h-5.6c0-.3-.1-.7-.1-1.1a5.8,5.8,0,0,1,.1-1,3.7,3.7,0,0,1,.4-2,.5.5,0,0,1,.3-.4l.4-.2h10l11-.2,13-.4,10.5-.3,20-.6h.5l.5.2c.1.1.1.1.1.3v1c.1.1.1.2.1.4l.2.3a1,1,0,0,1,.1.3,3.2,3.2,0,0,1-.1.8c-.1.1-.2.3-.4.4Z" transform="translate(-9.2)" fill="none" stroke="#000" stroke-linecap="round" stroke-linejoin="round" stroke-width="0.43"/><path d="M442.2,302.3h-2.8l-9.8.2-18.4.2-10,.3-23.2.2h-.8c-.1-.1-.1-.2-.1-.5a2,2,0,0,1-.1-.7v-2.2a2.2,2.2,0,0,1,.1-.6H413l10.6-.4h9.9c.8,0,2.8,0,5.4-.2l2.2-.2h.6l.6.2c0,.1.1.2.1.4s0,.5.1.8a1.3,1.3,0,0,0,.1.5,3.2,3.2,0,0,0,.3.9,1.1,1.1,0,0,0,.1.6c0,.2,0,.3-.1.4a1.1,1.1,0,0,1-.4.5Z" transform="translate(-9.2)" fill="none" stroke="#000" stroke-linecap="round" stroke-linejoin="round" stroke-width="0.43"/><path d="M441.3,296.3l-15.8.2-19.2.2H378a.9.9,0,0,1-.6-.4,1.1,1.1,0,0,1-.2-.8.7.7,0,0,1,.1-.5l.5-.2h6.6c5.5.1,13.2.2,23.2,0l16.9-.4,5.5-.3c4.4-.2,8-.2,10.3-.2h1.3l.2.2a1.9,1.9,0,0,1,.3.9.4.4,0,0,1,0,.5C442,296.2,441.3,296.3,441.3,296.3Z" transform="translate(-9.2)" fill="none" stroke="#000" stroke-linecap="round" stroke-linejoin="round" stroke-width="0.43"/><path d="M440.1,292.6H377.5a.6.6,0,0,1-.6-.1c-.2-.1-.3-.3-.4-1.3v-.9a13.6,13.6,0,0,1,.1-1.8,1,1,0,0,1,.2-.5c0-.1.1-.1.2-.2h.4a59.1,59.1,0,0,1,6,0h8.5l13.9.3,33.8.8h.7l.7.2c.1,0,.2.1.2.8a3.9,3.9,0,0,1,.1.9c-.1.8-.1,1.3-.3,1.5A1.1,1.1,0,0,1,440.1,292.6Z" transform="translate(-9.2)" fill="none" stroke="#000" stroke-linecap="round" stroke-linejoin="round" stroke-width="0.43"/><path d="M439.8,285.9h-9.2l-38.7-.4H374.7c-.1-.1-.3-.2-.4-.4s-.2-.3-.1-1.2a4.4,4.4,0,0,1,.1-.9,3.1,3.1,0,0,1,.2-1.1,3.4,3.4,0,0,1,.5-1.1h3.1c17.8.1,29.4.3,37.8.2H428s3.1-.1,11.2.2a.8.8,0,0,1,.6.2c.4.3.4.8.4,1.8s-.1.4-.1,1.3a2.5,2.5,0,0,1-.1.8A6.4,6.4,0,0,1,439.8,285.9Z" transform="translate(-9.2)" fill="none" stroke="#000" stroke-linecap="round" stroke-linejoin="round" stroke-width="0.43"/><path d="M440.3,278.9c-10.5-.4-19-.5-24.9-.6l-13.6-.2c-9.7-.1-17.6-.3-22.7-.5v-1.9c.1-.5.2-.8.3-1.4s.1-1.3.2-1.7c12,.2,21.5.2,28.1.2l18.1-.2h13.7l.4,3.2Z" transform="translate(-9.2)" fill="none" stroke="#000" stroke-linecap="round" stroke-linejoin="round" stroke-width="0.43"/><path d="M439.5,271.2h-4.8c-18.5-.4-34-1-45.2-1.5l-9.5-.4v-1.1c0-.4.1-.8.1-1.1h21.2c12.1.2,16.4.6,33.3.9H438c.1.1.3.1.4.3a1.1,1.1,0,0,1,.6.9A5.8,5.8,0,0,1,439.5,271.2Z" transform="translate(-9.2)" fill="none" stroke="#000" stroke-linecap="round" stroke-linejoin="round" stroke-width="0.43"/><path d="M439.4,266h-4.2l-6.9-.2-8.8-.4-17.7-.4-8-.2-13.3-.5-.5-.3c-.1-.1-.1-.2-.2-1a1.7,1.7,0,0,1,0-.8c.2-.2.3-.3.5-.3h.6l11.7.5,8.6.2h15.3c3.6,0,3.3.1,8.6.3s7.2,0,12.3.2h2.3c.3.2.2.6.2,2s0,.6-.2.7Z" transform="translate(-9.2)" fill="none" stroke="#000" stroke-linecap="round" stroke-linejoin="round" stroke-width="0.43"/><path d="M437.9,260.1h-1.6c-3.4.2-6,.1-6.6.1s-8.1,0-21.8.1c-9.2.1-10.8.2-15.1.1H382.4a2.2,2.2,0,0,1-.2-1,1.6,1.6,0,0,1,0-.7v-.3c.1-.5.1-.6.2-.7h45l10.4-.2Z" transform="translate(-9.2)" fill="none" stroke="#000" stroke-linecap="round" stroke-linejoin="round" stroke-width="0.43"/><path d="M437.8,254.2l-9.5.2-11.8.4-10.9.3-14.4.4-5,.2h-4.3a2.3,2.3,0,0,1-.7-.8,2,2,0,0,1-.4-.9s-.2-.7,0-.9h3.9l27.4-.7,24.5-.8a1.3,1.3,0,0,1,.8.1q.2,0,.3.3c.2.3.1.4.4.9l.3.6.2.4C438.5,254.1,437.9,254.2,437.8,254.2Z" transform="translate(-9.2)" fill="none" stroke="#000" stroke-linecap="round" stroke-linejoin="round" stroke-width="0.43"/><path d="M375.5,261.3l-29.9.6-38.7.6H306c-.3,0-.4.1-.5,0s-.3-.2-.4-.6a5.6,5.6,0,0,0-.2-1c-.1-1-.2-1-.2-1.6v-.8l17.5-.4,22.7-.7,30-.8a1.1,1.1,0,0,1,.8,0h.6c.2.1.2.3.4,1.3a12.1,12.1,0,0,0,.3,1.4v.8c.1.6.1.7,0,.8s-.4.2-.9.3Z" transform="translate(-9.2)" fill="none" stroke="#000" stroke-linecap="round" stroke-linejoin="round" stroke-width="0.43"/><path d="M377.2,270.6h-3.6c-15.1.2-20.7-.1-37.4-.2-7.1,0-8.5.1-15.7,0l-13.6-.2h-2c-.2-.1-.4-.3-.8-.9a12.9,12.9,0,0,1-.6-1.2,5.9,5.9,0,0,1-.8-2,5.1,5.1,0,0,1-.2-.9l14-.3,53.2-1.6,7.7-.3c.1,1.5.1,2.8.1,3.7a20.9,20.9,0,0,1-.1,2.5A4.4,4.4,0,0,1,377.2,270.6Z" transform="translate(-9.2)" fill="none" stroke="#000" stroke-linecap="round" stroke-linejoin="round" stroke-width="0.43"/><path d="M374.3,275.7l-35.4-.2H306.1l-2.4-2.8,71-.3h1.5c.1.1.3.1.4.3a.8.8,0,0,1,.2.5v1.5a1.8,1.8,0,0,1-.7.9h-1.8Z" transform="translate(-9.2)" fill="none" stroke="#000" stroke-linecap="round" stroke-linejoin="round" stroke-width="0.43"/><path d="M372.2,281.4H341.5l-36-.3-.8-1.3-.6-1.4h68.2a4.3,4.3,0,0,1,0,1.6A5.3,5.3,0,0,1,372.2,281.4Z" transform="translate(-9.2)" fill="none" stroke="#000" stroke-linecap="round" stroke-linejoin="round" stroke-width="0.43"/><path d="M371,289.5H313.8l-5.8.2h-1.3c-.1-.1-.1-.2-.1-.7v-.7a4.5,4.5,0,0,0,.1-1.2,3.4,3.4,0,0,1,.1-1c0-.4.1-1.1.1-1.9h63.7c.7,0,1,0,1.2.2s.1.3.2.7v.9c0,.5.1.4.1,1.3a4.5,4.5,0,0,1,.1,1.2c-.1.5-.1.7-.3.8H371Z" transform="translate(-9.2)" fill="none" stroke="#000" stroke-linecap="round" stroke-linejoin="round" stroke-width="0.43"/><path d="M373.3,294.5l-6.9.2h-3.6l-9.3.3-14.1.4-14,.3-20.7.5h-.5s-.1.1-.3,0h-.1c-.1-.1-.1-.2,0-.5v-.2a1.1,1.1,0,0,1,.1-.6c.1-.7.1-1,.2-1.6s.4-1,.5-1a1.1,1.1,0,0,1,.7-.2h6.2l9.5-.2h7.3l19.2-.3h26.6c.2.2.1.5.1,1.2s-.1.3-.1.6v.5a.7.7,0,0,1-.1.5.4.4,0,0,1-.1.3h-.4C373.5,294.5,373.4,294.5,373.3,294.5Z" transform="translate(-9.2)" fill="none" stroke="#000" stroke-linecap="round" stroke-linejoin="round" stroke-width="0.43"/><path d="M381.3,390.9l-3.8.2-4.8.2-8.1.4-3.7.2c-5.1.3-8.1.3-27.1.8l-16.8.4h-9.4c-4.8.1-7,.4-12,.5h-7.8a1.2,1.2,0,0,1-.7-.2l-.2-.3c-.2-.2-.2-.4-.2-1.3a2.8,2.8,0,0,0,.1-.8,4.4,4.4,0,0,0-.1-.9,2,2,0,0,1,.1-.9c.1-.1.1-.2.3-.3s.6-.3.7-.2l17.8-.2,7.5-.2,15.4-.2,7.9-.2,18.5-.2H366l14.8-.2h.3v.2a2.8,2.8,0,0,1,.1.6,1.1,1.1,0,0,1,.1.5l.2.3.2.2c.1.1.1.1.1.2s.1.1.1.3.1.2,0,.3-.1.2-.2.3h-.5Z" transform="translate(-9.2)" fill="none" stroke="#000" stroke-linecap="round" stroke-linejoin="round" stroke-width="0.43"/></g><g id="compass"><line x1="486.1" y1="75" x2="538.8" y2="57.9" fill="#fff" stroke="#000" stroke-linecap="round" stroke-linejoin="round" stroke-width="0.57"/><line x1="498.7" y1="24.8" x2="535.6" y2="138.1" fill="#fff"/><line x1="500.6" y1="30.5" x2="535.6" y2="138.1" fill="none" stroke="#000" stroke-linecap="round" stroke-linejoin="round" stroke-width="0.57"/><polygon points="499.2 32.4 498.7 24.8 502.9 31.2 499.2 32.4"/><circle cx="512.5" cy="66.5" r="16.1" fill="none" stroke="#000" stroke-linecap="round" stroke-linejoin="round" stroke-width="0.57"/><text transform="translate(491.6 24.8) rotate(-18)" font-size="25.51" font-family="SimSun">N</text></g></svg>