<svg xmlns="http://www.w3.org/2000/svg" xmlns:xlink="http://www.w3.org/1999/xlink" viewBox="0 0 3432.7 653.4"><defs><pattern id="_10_lpi_10_" data-name="10 lpi 10%" width="72" height="72" patternTransform="translate(0.6 67.4) rotate(-45)" patternUnits="userSpaceOnUse" viewBox="0 0 72 72"><rect width="72" height="72" fill="none"/><line x1="71.8" y1="66.6" x2="144.3" y2="66.6" fill="none" stroke="#000" stroke-width="0.28"/><line x1="71.8" y1="52.2" x2="144.3" y2="52.2" fill="none" stroke="#000" stroke-width="0.28"/><line x1="71.8" y1="37.8" x2="144.3" y2="37.8" fill="none" stroke="#000" stroke-width="0.28"/><line x1="71.8" y1="23.4" x2="144.3" y2="23.4" fill="none" stroke="#000" stroke-width="0.28"/><line x1="71.8" y1="9" x2="144.3" y2="9" fill="none" stroke="#000" stroke-width="0.28"/><line x1="71.8" y1="59.4" x2="144.3" y2="59.4" fill="none" stroke="#000" stroke-width="0.28"/><line x1="71.8" y1="45" x2="144.3" y2="45" fill="none" stroke="#000" stroke-width="0.28"/><line x1="71.8" y1="30.6" x2="144.3" y2="30.6" fill="none" stroke="#000" stroke-width="0.28"/><line x1="71.8" y1="16.2" x2="144.3" y2="16.2" fill="none" stroke="#000" stroke-width="0.28"/><line x1="71.8" y1="1.8" x2="144.3" y2="1.8" fill="none" stroke="#000" stroke-width="0.28"/><line x1="71.8" y1="70.2" x2="144.3" y2="70.2" fill="none" stroke="#000" stroke-width="0.28"/><line x1="71.8" y1="55.8" x2="144.3" y2="55.8" fill="none" stroke="#000" stroke-width="0.28"/><line x1="71.8" y1="41.4" x2="144.3" y2="41.4" fill="none" stroke="#000" stroke-width="0.28"/><line x1="71.8" y1="27" x2="144.3" y2="27" fill="none" stroke="#000" stroke-width="0.28"/><line x1="71.8" y1="12.6" x2="144.3" y2="12.6" fill="none" stroke="#000" stroke-width="0.28"/><line x1="71.8" y1="63" x2="144.3" y2="63" fill="none" stroke="#000" stroke-width="0.28"/><line x1="71.8" y1="48.6" x2="144.3" y2="48.6" fill="none" stroke="#000" stroke-width="0.28"/><line x1="71.8" y1="34.2" x2="144.3" y2="34.2" fill="none" stroke="#000" stroke-width="0.28"/><line x1="71.8" y1="19.8" x2="144.3" y2="19.8" fill="none" stroke="#000" stroke-width="0.28"/><line x1="71.8" y1="5.4" x2="144.3" y2="5.4" fill="none" stroke="#000" stroke-width="0.28"/><line x1="-0.3" y1="66.6" x2="72.3" y2="66.6" fill="none" stroke="#000" stroke-width="0.28"/><line x1="-0.3" y1="52.2" x2="72.3" y2="52.2" fill="none" stroke="#000" stroke-width="0.28"/><line x1="-0.3" y1="37.8" x2="72.3" y2="37.8" fill="none" stroke="#000" stroke-width="0.28"/><line x1="-0.3" y1="23.4" x2="72.3" y2="23.4" fill="none" stroke="#000" stroke-width="0.28"/><line x1="-0.3" y1="9" x2="72.3" y2="9" fill="none" stroke="#000" stroke-width="0.28"/><line x1="-0.3" y1="59.4" x2="72.3" y2="59.4" fill="none" stroke="#000" stroke-width="0.28"/><line x1="-0.3" y1="45" x2="72.3" y2="45" fill="none" stroke="#000" stroke-width="0.28"/><line x1="-0.3" y1="30.6" x2="72.3" y2="30.6" fill="none" stroke="#000" stroke-width="0.28"/><line x1="-0.3" y1="16.2" x2="72.3" y2="16.2" fill="none" stroke="#000" stroke-width="0.28"/><line x1="-0.3" y1="1.8" x2="72.3" y2="1.8" fill="none" stroke="#000" stroke-width="0.28"/><line x1="-0.3" y1="70.2" x2="72.3" y2="70.2" fill="none" stroke="#000" stroke-width="0.28"/><line x1="-0.3" y1="55.8" x2="72.3" y2="55.8" fill="none" stroke="#000" stroke-width="0.28"/><line x1="-0.3" y1="41.4" x2="72.3" y2="41.4" fill="none" stroke="#000" stroke-width="0.28"/><line x1="-0.3" y1="27" x2="72.3" y2="27" fill="none" stroke="#000" stroke-width="0.28"/><line x1="-0.3" y1="12.6" x2="72.3" y2="12.6" fill="none" stroke="#000" stroke-width="0.28"/><line x1="-0.3" y1="63" x2="72.3" y2="63" fill="none" stroke="#000" stroke-width="0.28"/><line x1="-0.3" y1="48.6" x2="72.3" y2="48.6" fill="none" stroke="#000" stroke-width="0.28"/><line x1="-0.3" y1="34.2" x2="72.3" y2="34.2" fill="none" stroke="#000" stroke-width="0.28"/><line x1="-0.3" y1="19.8" x2="72.3" y2="19.8" fill="none" stroke="#000" stroke-width="0.28"/><line x1="-0.3" y1="5.4" x2="72.3" y2="5.4" fill="none" stroke="#000" stroke-width="0.28"/><line x1="-72.3" y1="66.6" x2="0.3" y2="66.6" fill="none" stroke="#000" stroke-width="0.28"/><line x1="-72.3" y1="52.2" x2="0.3" y2="52.2" fill="none" stroke="#000" stroke-width="0.28"/><line x1="-72.3" y1="37.8" x2="0.3" y2="37.8" fill="none" stroke="#000" stroke-width="0.28"/><line x1="-72.3" y1="23.4" x2="0.3" y2="23.4" fill="none" stroke="#000" stroke-width="0.28"/><line x1="-72.3" y1="9" x2="0.3" y2="9" fill="none" stroke="#000" stroke-width="0.28"/><line x1="-72.3" y1="59.4" x2="0.3" y2="59.4" fill="none" stroke="#000" stroke-width="0.28"/><line x1="-72.3" y1="45" x2="0.3" y2="45" fill="none" stroke="#000" stroke-width="0.28"/><line x1="-72.3" y1="30.6" x2="0.3" y2="30.6" fill="none" stroke="#000" stroke-width="0.28"/><line x1="-72.3" y1="16.2" x2="0.3" y2="16.2" fill="none" stroke="#000" stroke-width="0.28"/><line x1="-72.3" y1="1.8" x2="0.3" y2="1.8" fill="none" stroke="#000" stroke-width="0.28"/><line x1="-72.3" y1="70.2" x2="0.3" y2="70.2" fill="none" stroke="#000" stroke-width="0.28"/><line x1="-72.3" y1="55.8" x2="0.3" y2="55.8" fill="none" stroke="#000" stroke-width="0.28"/><line x1="-72.3" y1="41.4" x2="0.3" y2="41.4" fill="none" stroke="#000" stroke-width="0.28"/><line x1="-72.3" y1="27" x2="0.3" y2="27" fill="none" stroke="#000" stroke-width="0.28"/><line x1="-72.3" y1="12.6" x2="0.3" y2="12.6" fill="none" stroke="#000" stroke-width="0.28"/><line x1="-72.3" y1="63" x2="0.3" y2="63" fill="none" stroke="#000" stroke-width="0.28"/><line x1="-72.3" y1="48.6" x2="0.3" y2="48.6" fill="none" stroke="#000" stroke-width="0.28"/><line x1="-72.3" y1="34.2" x2="0.3" y2="34.2" fill="none" stroke="#000" stroke-width="0.28"/><line x1="-72.3" y1="19.8" x2="0.3" y2="19.8" fill="none" stroke="#000" stroke-width="0.28"/><line x1="-72.3" y1="5.4" x2="0.3" y2="5.4" fill="none" stroke="#000" stroke-width="0.28"/></pattern><pattern id="_10_lpi_10_3" data-name="10 lpi 10%" width="72" height="72" patternTransform="translate(-13.9 37.2) rotate(-45)" patternUnits="userSpaceOnUse" viewBox="0 0 72 72"><rect width="72" height="72" fill="none"/><line x1="71.8" y1="66.6" x2="144.3" y2="66.6" fill="none" stroke="#000" stroke-width="0.28"/><line x1="71.8" y1="52.2" x2="144.3" y2="52.2" fill="none" stroke="#000" stroke-width="0.28"/><line x1="71.8" y1="37.8" x2="144.3" y2="37.8" fill="none" stroke="#000" stroke-width="0.28"/><line x1="71.8" y1="23.4" x2="144.3" y2="23.4" fill="none" stroke="#000" stroke-width="0.28"/><line x1="71.8" y1="9" x2="144.3" y2="9" fill="none" stroke="#000" stroke-width="0.28"/><line x1="71.8" y1="59.4" x2="144.3" y2="59.4" fill="none" stroke="#000" stroke-width="0.28"/><line x1="71.8" y1="45" x2="144.3" y2="45" fill="none" stroke="#000" stroke-width="0.28"/><line x1="71.8" y1="30.6" x2="144.3" y2="30.6" fill="none" stroke="#000" stroke-width="0.28"/><line x1="71.8" y1="16.2" x2="144.3" y2="16.2" fill="none" stroke="#000" stroke-width="0.28"/><line x1="71.8" y1="1.8" x2="144.3" y2="1.8" fill="none" stroke="#000" stroke-width="0.28"/><line x1="71.8" y1="70.2" x2="144.3" y2="70.2" fill="none" stroke="#000" stroke-width="0.28"/><line x1="71.8" y1="55.8" x2="144.3" y2="55.8" fill="none" stroke="#000" stroke-width="0.28"/><line x1="71.8" y1="41.4" x2="144.3" y2="41.4" fill="none" stroke="#000" stroke-width="0.28"/><line x1="71.8" y1="27" x2="144.3" y2="27" fill="none" stroke="#000" stroke-width="0.28"/><line x1="71.8" y1="12.6" x2="144.3" y2="12.6" fill="none" stroke="#000" stroke-width="0.28"/><line x1="71.8" y1="63" x2="144.3" y2="63" fill="none" stroke="#000" stroke-width="0.28"/><line x1="71.8" y1="48.6" x2="144.3" y2="48.6" fill="none" stroke="#000" stroke-width="0.28"/><line x1="71.8" y1="34.2" x2="144.3" y2="34.2" fill="none" stroke="#000" stroke-width="0.28"/><line x1="71.8" y1="19.8" x2="144.3" y2="19.8" fill="none" stroke="#000" stroke-width="0.28"/><line x1="71.8" y1="5.4" x2="144.3" y2="5.4" fill="none" stroke="#000" stroke-width="0.28"/><line x1="-0.3" y1="66.6" x2="72.3" y2="66.6" fill="none" stroke="#000" stroke-width="0.28"/><line x1="-0.3" y1="52.2" x2="72.3" y2="52.2" fill="none" stroke="#000" stroke-width="0.28"/><line x1="-0.3" y1="37.8" x2="72.3" y2="37.8" fill="none" stroke="#000" stroke-width="0.28"/><line x1="-0.3" y1="23.4" x2="72.3" y2="23.4" fill="none" stroke="#000" stroke-width="0.28"/><line x1="-0.3" y1="9" x2="72.3" y2="9" fill="none" stroke="#000" stroke-width="0.28"/><line x1="-0.3" y1="59.4" x2="72.3" y2="59.4" fill="none" stroke="#000" stroke-width="0.28"/><line x1="-0.3" y1="45" x2="72.3" y2="45" fill="none" stroke="#000" stroke-width="0.28"/><line x1="-0.3" y1="30.6" x2="72.3" y2="30.6" fill="none" stroke="#000" stroke-width="0.28"/><line x1="-0.3" y1="16.2" x2="72.3" y2="16.2" fill="none" stroke="#000" stroke-width="0.28"/><line x1="-0.3" y1="1.8" x2="72.3" y2="1.8" fill="none" stroke="#000" stroke-width="0.28"/><line x1="-0.3" y1="70.2" x2="72.3" y2="70.2" fill="none" stroke="#000" stroke-width="0.28"/><line x1="-0.3" y1="55.8" x2="72.3" y2="55.8" fill="none" stroke="#000" stroke-width="0.28"/><line x1="-0.3" y1="41.4" x2="72.3" y2="41.4" fill="none" stroke="#000" stroke-width="0.28"/><line x1="-0.3" y1="27" x2="72.3" y2="27" fill="none" stroke="#000" stroke-width="0.28"/><line x1="-0.3" y1="12.6" x2="72.3" y2="12.6" fill="none" stroke="#000" stroke-width="0.28"/><line x1="-0.3" y1="63" x2="72.3" y2="63" fill="none" stroke="#000" stroke-width="0.28"/><line x1="-0.3" y1="48.6" x2="72.3" y2="48.6" fill="none" stroke="#000" stroke-width="0.28"/><line x1="-0.3" y1="34.2" x2="72.3" y2="34.2" fill="none" stroke="#000" stroke-width="0.28"/><line x1="-0.3" y1="19.8" x2="72.3" y2="19.8" fill="none" stroke="#000" stroke-width="0.28"/><line x1="-0.3" y1="5.4" x2="72.3" y2="5.4" fill="none" stroke="#000" stroke-width="0.28"/><line x1="-72.3" y1="66.6" x2="0.3" y2="66.6" fill="none" stroke="#000" stroke-width="0.28"/><line x1="-72.3" y1="52.2" x2="0.3" y2="52.2" fill="none" stroke="#000" stroke-width="0.28"/><line x1="-72.3" y1="37.8" x2="0.3" y2="37.8" fill="none" stroke="#000" stroke-width="0.28"/><line x1="-72.3" y1="23.4" x2="0.3" y2="23.4" fill="none" stroke="#000" stroke-width="0.28"/><line x1="-72.3" y1="9" x2="0.3" y2="9" fill="none" stroke="#000" stroke-width="0.28"/><line x1="-72.3" y1="59.4" x2="0.3" y2="59.4" fill="none" stroke="#000" stroke-width="0.28"/><line x1="-72.3" y1="45" x2="0.3" y2="45" fill="none" stroke="#000" stroke-width="0.28"/><line x1="-72.3" y1="30.6" x2="0.3" y2="30.6" fill="none" stroke="#000" stroke-width="0.28"/><line x1="-72.3" y1="16.2" x2="0.3" y2="16.2" fill="none" stroke="#000" stroke-width="0.28"/><line x1="-72.3" y1="1.8" x2="0.3" y2="1.8" fill="none" stroke="#000" stroke-width="0.28"/><line x1="-72.3" y1="70.2" x2="0.3" y2="70.2" fill="none" stroke="#000" stroke-width="0.28"/><line x1="-72.3" y1="55.8" x2="0.3" y2="55.8" fill="none" stroke="#000" stroke-width="0.28"/><line x1="-72.3" y1="41.4" x2="0.3" y2="41.4" fill="none" stroke="#000" stroke-width="0.28"/><line x1="-72.3" y1="27" x2="0.3" y2="27" fill="none" stroke="#000" stroke-width="0.28"/><line x1="-72.3" y1="12.6" x2="0.3" y2="12.6" fill="none" stroke="#000" stroke-width="0.28"/><line x1="-72.3" y1="63" x2="0.3" y2="63" fill="none" stroke="#000" stroke-width="0.28"/><line x1="-72.3" y1="48.6" x2="0.3" y2="48.6" fill="none" stroke="#000" stroke-width="0.28"/><line x1="-72.3" y1="34.2" x2="0.3" y2="34.2" fill="none" stroke="#000" stroke-width="0.28"/><line x1="-72.3" y1="19.8" x2="0.3" y2="19.8" fill="none" stroke="#000" stroke-width="0.28"/><line x1="-72.3" y1="5.4" x2="0.3" y2="5.4" fill="none" stroke="#000" stroke-width="0.28"/></pattern></defs><g id="scale-1:20"><path d="M3257.6,366.8v9.9H3115.8v-10" transform="translate(-38.3 -36.1)" fill="none" stroke="#000" stroke-miterlimit="10" stroke-width="0.85"/><line x1="3105.9" y1="330.7" x2="3105.9" y2="340.6" fill="none" stroke="#000" stroke-miterlimit="10" stroke-width="0.85"/><line x1="3134.2" y1="330.7" x2="3134.2" y2="340.6" fill="none" stroke="#000" stroke-miterlimit="10" stroke-width="0.85"/><line x1="3162.6" y1="330.7" x2="3162.6" y2="340.6" fill="none" stroke="#000" stroke-miterlimit="10" stroke-width="0.85"/><line x1="3190.9" y1="330.7" x2="3190.9" y2="340.6" fill="none" stroke="#000" stroke-miterlimit="10" stroke-width="0.85"/><text transform="translate(3071.6 326.2)" font-size="22.68" font-family="SimSun">0</text><text transform="translate(3202.1 326.2)" font-size="22.68" font-family="SimSun">100cm</text></g><g id="title"><text transform="translate(506.3 647)" font-size="45.35" font-family="SimSun">1.表土層　2.黃灰土　5.城垣夯土　6.黃灰土　8.黃土　9A.黃褐土　9B.褐紅斑土　9C.淺黃斑土　9D.黃斑土</text></g><g id="outline"><path d="M3439.4,42.1q-1.3,76.8-2.8,153.7" transform="translate(-38.3 -36.1)" fill="none" stroke="#000" stroke-linecap="round" stroke-linejoin="round" stroke-width="1.98"/><path d="M86.9,339.1c8.2-2.8,15-4.9,20-6.4,7.3-2.3,8.8-2.6,10.7-2.9,5.9-.8,7.7-.1,15.9-1,.9-.1,4.5-.5,9.2-1.4s8.5-2,11.5-2.8c6-1.7,12.1-3.2,18.1-4.8,13.4-3.7,24.6-6,37.4-8.6,9.4-1.9,16.1-3,25.7-4.7,7-1.2,33.9-5.9,41.1-7.7l4.9-1.1,5.8-1c3.1-.4,4.6-.7,12.2-2.2l20-3.8c13.2-2.5,20.3-3.9,29.7-6,14-3.1,13.9-3.5,23.8-5.4s19.1-3.3,23.5-3.9c12.4-1.8,14.7-1.7,23.4-3.5,6-1.2,7.3-1.7,12.3-2.4,2.5-.3,5.7-.7,17.1-1.3,6-.4,9.2-.5,14.1-.7l19.9-1.1c24.9-1.4,31.6-2.4,51.8-3.3,22.4-1.1,33.6-1.6,42.6-.8,6.9.6,14.2,1.6,25.2,1.1,3.9-.1,7.6-.5,14.3-.5a104.3,104.3,0,0,1,16,.8c3.3.5,3.8.8,7.3,1.3s5.5.3,11.5.7,7.6,1,12.8,1a78.1,78.1,0,0,0,8.5-.4c6.5-.5,7.5-1,12.5-1.4s7.8-.3,15-.1,11.4.4,12.5.5c18.8,1.1,22.9,1.9,37,2.6,9.4.5,8.9.2,18.4.8s12.2,1,19.5,1,7.3-.2,12.5.1,7.2.7,13.7,1.3,8.9.6,13.3.8c23.9,1,29.7,1.9,50.7,2.4,15.1.4,12-.1,28.9.3,13.5.3,18,.7,26.7-.1,3.2-.3,8-1,17.5-2.2l15.1-2.1c12.8-1.8,21.3-2.5,31.3-3.6,25.2-2.7,41.4-5.3,68.7-8.4,11.3-1.3,15-1.6,19.7-1.5a132.3,132.3,0,0,0,13.6-.3,108.1,108.1,0,0,0,11-1.5,152.1,152.1,0,0,0,19-4.8c43.2-14.2,66-25.2,66-25.2a264.4,264.4,0,0,1,27.2-12c2.8-1.1,7.7-2.8,13.2-4.7,7.1-2.5,10.5-3.5,17.3-5.7,13-4.2,11.9-4.2,19.4-6.6,9.8-3.1,20.7-6.4,34.9-7.8,4.9-.5,8.5-.6,12.3-.7,11-.3,17.6.2,27.8.7,7.3.4,13.5.5,25.8.7s20.8.2,40.9-.2c22.6-.5,36.5-1,58.4-1.7l52-1.5c42.5-1,75.4-1.3,92.9-1.2h16.6c14.5-.1,19.4-.4,28.3.1,6.6.3,11.4.9,15.1,1.3,1.2.1-5.2-.6,77.2,6.9l32.7,3c24.6,2.3,28.2,3,38.6,3.5,13.4.7,23,.3,37.7-.1,20-.7,17.4-1.3,46.6-2.7,26-1.3,45.2-1.6,49.9-1.6,1.4,0,5,.1,10.1-.1h4.5c1.5,0,4,0,9.4.4s3.9.3,7.4.5c5.3.3,8.8.2,9.6.2,3.2,0,5.6-.2,6.2-.2,10.9-.7,32.2.3,32.2.3,21.3,1,43.2,1.7,49.6,1.9,14,.5,9.4.1,44.7,1l34,.8c14.2.2,16.3,0,24.8.4,15.8.6,27.3,1.8,30,2.1,11.5,1.2,10.5,1.6,19.8,2.5,6.6.6,8.5.6,30.6,1.4l22.8,1,21.3,1.3s10.6.6,23,1c14.1.4,21.8.2,39.1.1,26.9-.1,40.4-.1,53.8.4,11,.4,16.4.9,36.2,1.6l22.1.7c28.4.8,36.9-.1,67.7.6,41.1.9,43.3,2.1,59,1.2,8.9-.5,19.3-1.5,33.5,0,4.2.5,8.9,1.2,17.3,1.8s16.9.9,19.1.9c11,.2,12-.4,24.2-.4,10.4.1,9,.5,18.5.5a231.8,231.8,0,0,0,24.9-1.1c3.3-.4,5-.7,10.3-1.2s8.6-.7,13.9-1.2c10.6-.9,9.8-1.5,22.3-2.7,6-.6,8.5-.7,13.7-1.5,2.9-.5,4.5-.8,7.8-1.2,5-.7,8.8-.8,10.2-.9,11.8-.5,32.3-3,35.2-3.3,16.1-2,16.8-2.9,28.6-3.8,4.6-.3,9.5-.5,19.1-.7,5.4-.2,15.5-.4,39.1-.6,20.2-.1,18.8,0,24.9-.2,17.2-.4,16.9-1.1,22.2-.4.8.1,10.8,1.4,16.5.6,2.9-.3,5.8-.9,5.8-.9l4.1-.8c7.1-1.5,20.2-1.4,20.2-1.4,1.7,0,9.4-.7,24.8-2.2,20.9-1.9,19.2-2.1,27.7-2.7,13.1-.9,13.8-.4,27.9-1.4,10.5-.8,16-1.2,23.5-2.4s8-1.9,25.6-6.4,16.1-3.8,29.3-7.2c6.1-1.6,14.4-3.8,25.1-7.1,4.8-1.5,13.8-4.2,21.8-7.1,11.5-4.2,20.3-8.7,37.5-17.7,22.3-11.5,40.1-22.1,46.8-26.2l14.7-9,8.1-4.9c23.4-14,22.9-13,31.3-18.7,0,0,16.9-11.4,30.2-24l6.5-6.4c2.4-2.5,4.9-6,8.7-9.7" transform="translate(-38.3 -36.1)" fill="none" stroke="#000" stroke-linecap="round" stroke-linejoin="round" stroke-width="1.98"/><path d="M86.9,362.3c3.5-.4,8.5-1.1,14.3-2.3,7.9-1.6,13.9-3.2,21.4-5.3,11.9-3.4,11.8-3.8,18.8-5.5s9.1-1.7,20.4-3.9a297.7,297.7,0,0,0,30.7-7.4c7.8-2.3,9.2-3.1,19.3-6,6.6-1.9,11.6-3.2,16.8-4.5,15.3-3.9,28.7-7.4,50.5-12.4,15.3-3.6,23.1-5.4,28.6-6.2s8.2-1,27.1-3.3l15.2-1.9c18.1-2.4,24.5-4.2,45-7.3l16.2-2.3c11.5-1.4,18.5-2,52.2-5.1,6.7-.6,10.3-.9,15.5-1.7,9.5-1.4,20.1-3.6,20.9-3.7,3.9-.8,5.9-1.3,9.7-1.9s8.8-1,11.7-1.2l20.3-1.5c19.9-1.1,18.7-2.1,33.4-2.8a303.3,303.3,0,0,1,31.1.3c9.7.6,18,1.4,18,1.4,6.3.6,8.8,1,14.3,1.3s7.1.1,12.4.4c2.7.2,5.5.4,15.7,1.8s16.6,2.3,20.6,3,9.6,2.1,20.6,4.6l9.5,2.2,19.8,4.6c9,1.9,13.5,2.9,19.3,3.9a81.3,81.3,0,0,1,8.6,1.7c5.3,1.3,6.9,2.3,11.2,3.5s6.5,1.3,12.3,1.9c8.4.9,14.9,1.1,17.5,1.1a232.1,232.1,0,0,0,24.7-1.2,336,336,0,0,0,38.3-6.4l18.4-4.1c10.9-2.3,16.3-3.4,21.4-4.2,1.6-.3,6.2-1.1,12.2-1.9,18.5-2.5,23.7-1.8,46-4.2l15.4-1.7,16.2-1.8c12.6-1.2,15.6-.8,31.8-1.7,6.4-.4,4-.4,28.2-2.3s23.4-1.7,28.6-2.2c12.4-1.4,21.8-3.2,33.5-5.3,7.4-1.4,13.5-2.7,25.8-5.3,15.4-3.2,18.9-4.2,22.5-5.3a193.7,193.7,0,0,0,19.2-7c5-2,5-2.2,17.4-7.8l18.7-8.2c8.9-4.2,10.2-5.3,19.3-9.9a335.5,335.5,0,0,1,40.4-17.1,118,118,0,0,1,15.4-4.5c1.2-.3,5.4-1.2,15.5-2.6s14.3-1.9,19.4-2.1,11.9.4,25,1.7,14.1,1.6,27.4,3l15.1,1.4,26.1,2.3c20.1,1.9,18.8,2.1,25.8,2.5,2.5.2,7.2.4,26,.2,22.8-.2,22.9-.6,36.2-.5l30.7.6,23.7.5c7.3.2,14.5.4,24.4-.1l7-.5c13.1-.7,17.9.1,33.9.2,10.7.1,9.5-.3,21.7-.2,10.2.1,11.6.4,18,.1s12.3-.7,18.3-1.2,7.2-.7,11.7-.8h10.3c9.8.2,17.6,1,22.9,1.6l9.3.9,7.5.8c8.4.9,15.9.5,29.3.6,4.4,0,9.4,0,16.1.2,11,.3,14.9.7,24.9.9h13.7c20.7,0,25.4.1,30.8.3l11.3.7c4.7.2,12.1.5,21.2.5l17.5-.2h8.7c8.7,0,10.1.3,18.9.5a164.5,164.5,0,0,0,18.6-.4c5.4-.4,5.9-.7,10.8-1.2,8.7-.9,12.7-.4,27.3-.3h20.1c20.1,0,22.1,0,26.7.4s7.9,1.1,15.7,1.7c5.4.4,9.7.5,13.7.6,13.3.3,18.4,0,28.1.1,7.6,0,5.1.2,33.8,1.5,12.5.6,18.9.8,23.8.9,8.5,0,11.3-.2,24-.1,9.2,0,8.9.2,14.6.1,8,0,11.5-.3,21.8-.7,0,0,10.4-.4,19.1-.5,11.5-.2,13.2.4,40.5,1.5,22.6,1,26.5.8,34.7,1.4,3,.2,7.8.7,14.5.7h6.9c6,.3,7.4,1,12.7,1.5,3.2.3,2.5.1,14.7.2,5.6,0,8.5,0,11.1.2s6.7.4,13.3,1.2l6.3.9a199.8,199.8,0,0,0,21.1,1.8c21.4,1,19.5.5,29.6,1.2,5.5.4,17.8,1.3,26.6,2.1a130.8,130.8,0,0,0,13.2.5l8.6-.4,9.9-.7a48.5,48.5,0,0,1,5.4-.5l6.1.7,3.6.4,5,.4c4.4.4,4.9.2,6.9.6a27.4,27.4,0,0,1,3.9,1c2.5.7,4.3,1,10.3,1.8,10.1,1.3,9.6,1.1,12.6,1.6,5.8.9,6.8,1.4,11.9,2.3a137,137,0,0,0,16,1.7c17.3,1,42.7,0,49.2-.3,13.4-.6,28.2-1.3,45.2-2.3,13-.8,19.5-1.2,26.7-1.8,14.6-1.3,27.4-2.8,45.5-4.9l13.6-1.7c20-2.5,24.4-3.7,37.2-4.9,9.1-.9,7.2-.3,17.9-1.3,6.7-.6,6.6-.8,28.8-3.3l12.9-1.7c3.7-.6,4.6-.9,7.3-1.2,5.4-.7,7.9-.6,12.9-1s10.1-.9,19.6-2.2c6.5-.9,8.1-1.2,11.6-1.2s4.7.2,10.5.5l9.9.2c10.2.1,18.6-.1,20.4-.1,22.7-.5,42.9-1.5,42.9-1.5,18.6-.9,15.6-1,42.5-2.5l49-3c6.4-.5,14.1-1,24.1-2.4,6.4-.9,7.3-1.3,13.1-2,12.2-1.5,13-.5,22.9-1.7,5.7-.7,4.3-.9,23.6-4.3l11.1-2c7.4-1.5,12.8-3.2,21.7-5.9,6-1.9,10.3-3.2,16-5.2,8.4-3,17.1-6.5,34.5-13.7l6.4-2.6,9.4-3.6a145.9,145.9,0,0,0,16.1-7.6c1-.6,5.5-2.9,11.3-6.5s6.7-4.6,12.3-8c1.4-.8,7.5-4.5,15.7-8.4l12.7-5.7c5.3-2.4,6.9-3.1,9.5-4.5,4.3-2.3,7.3-4.3,9.8-5.9,18-12,18.6-11.7,27.8-18.5,3.8-2.7,4.9-3.7,10.8-8l11.6-8.3c8.3-5.7,10.4-6.8,16.7-11.4l7.3-5.5" transform="translate(-38.3 -36.1)" fill="none" stroke="#000" stroke-linecap="round" stroke-linejoin="round" stroke-width="1.42"/><path d="M2547.5,235.1c-2.2.5-5.4,1.4-9.1,2.6s-5.3,1.8-9.8,3.6c-7.6,2.9-8.7,3.6-14.4,5.7l-5.8,2c-4.2,1.6-4.9,1.9-6.6,2.4s-2.8.5-6.6,1l-8.7,1.2c-7.5.8-11.7,1.5-21.4,2.7-15.4,1.9-24.6,3-36.7,3.8-5.3.4-14.9,1.1-27.4,1.2-15.9.2-18.6-.7-33.8-.4-8.5.2-14.8.7-24,1.3-13.9,1-10.7,1.2-31.2,3a167.8,167.8,0,0,0-21,2.7l-8,1.8c-21.4,4.9-23.5,5.4-27.2,5.9-6.8,1-12.2,1.2-15.8,1.4s-5.6.1-18.3.1-11.4.2-15.1.1c-6.9-.3-9.1-.7-15.6-.7-3.9,0-5.7.2-10.6.4-10.3.5-18.2.5-25.3.6s-12.8,0-19.7-.4c-3.6-.3-7.4-.5-12.6-1.2s-6-1-9.9-1.4a118.6,118.6,0,0,0-12-.6h-28.6c-4.2,0-11.5,0-21.1-.4s-16.1-1-26.8-.7l-7.4.3c-4.8.1-13.4.2-24.6-.4l-18.9-1.5c-18.9-1.5-16.1-1-23.5-1.8-5.5-.5-8.6-.9-13.8-1s-7.8.3-12.1.6c-6.2.4-11.6.5-22.3.8-12.3.2-14.2-.1-24.4.4l-10.4.6c-4.5.2-12,.5-27.6.6h-20.3c-10.9-.1-18.6-.4-32.3-.9s-21.2-.8-26.7-1.2-11.1-.9-20-1.3l-14.4-.5-24.5-.7-26.3-.3c-18.3,0-19.3.2-28.2-.1-4-.1-7.5-.3-13.3-.3-7.9,0-13.9.3-15.6.4-12.3.7-13.3,1.6-25.2,2.1-4.6.1-6.1.1-11.1.4s-7.6.8-11.8.7c-2,0-4.9-.2-10.8-.8l-12.5-1c-3.9-.3-9.8-.7-16.7-.8-2.9-.1-5.7,0-11.3,0-10.7.1-16.1.1-19.5.4-5.6.4-9.6,1-17.7,2.3-5.2.8-6.1,1.1-15.3,2.7-17,3-18.2,3-25.6,4.6-5.3,1.1-9.2,2.2-17.1,4.2s-17.4,4.6-26.4,7.6-7.4,3.1-29.4,11.5c-11.1,4.3-22.2,9-33.4,13.1a49.2,49.2,0,0,0-9.6,4.1c-2.5,1.4-3.2,2.1-5.9,3.4a57.5,57.5,0,0,1-7.4,2.7c-2.5.8-4.4,1.3-7,1.9s-6.6,1.5-7.1,1.6c-5.8,1.2-12,3.3-19.5,5.7-14.8,4.8-22.2,7.2-26.8,8.1s-10.7,2-17.9,4.3l-7.8,2.4s-4.9,1.5-9.4,2.6c-7.5,1.9-14.1,3.1-23.7,4.8-15,2.6-19.2,2.9-21.4,3h-10.7c-3.9-.1-12.2-.2-21.8-1.1-7.7-.7-10.3-1.3-18.7-2.5-6.5-.9-6.8-.8-31-3.1s-25.8-2.5-34.2-2.9c-5.5-.2-9.9-.2-18.9-.3H982.9a159.8,159.8,0,0,0-16.6,1.5c-5.2.5-5.8.5-23.9,1.6l-39.9,2.7c-8,.5-16,1.2-24,1.6s-12.4.6-18.3,1.5-7.2,1.6-15.8,3.1l-14.1,2.2c-9.5,1.2-16.6,2.1-25.8,2.1l-9.8-.5c-9.7-.6-12.3-1.3-25.7-2.5-8.1-.8-11.5-.9-14.3-1-5.1-.1-5.7.1-10.9.1a179.8,179.8,0,0,1-22-1.4c-6.2-.7-9.5-1.4-14.8-2.2-14.6-2.4-26.1-3.3-48.7-5.1l-18.4-1.2c-29-2.3-27.6-3.6-42.1-4.2s-26.8.3-42.4-1l-9.8-1c-3.1-.4-9.7-1.3-18.5-3.3-12.3-2.7-15.5-4.4-25.4-6a89.2,89.2,0,0,0-10.3-1,72.4,72.4,0,0,0-9.2.1c-8.4.3-14.7,1-14.8,1-7,.7-15.8.6-33.4.6-8,0-16.3,0-27.2-.4l-9.3-.2c-5.5,0-10.9.2-21,1-2.4.2-9.1.7-23.2,2.2s-22.1,2.4-27,3.6-7.9,2.1-16.7,4.6l-12.9,3.9c-9,2.9-13.7,4.9-21.3,7.7-3.5,1.3-11,3.8-26.1,8.8l-31.4,10.4L198.7,384c-15.4,5-23.1,7.6-28.5,9-8.7,2.4-11.2,2.6-19.6,5.2-6.9,2.2-6.9,2.6-13.8,4.7A174.5,174.5,0,0,1,116,408a111.3,111.3,0,0,1-13,1.5l-5.8.2a76.1,76.1,0,0,1-10.3-1" transform="translate(-38.3 -36.1)" fill="none" stroke="#000" stroke-linecap="round" stroke-linejoin="round" stroke-width="1.42"/><path d="M3259.6,170.5c15.7,1.9,28.8,2.8,38.4,3.4,14.8.8,29.2,1,31.8,1.1,11.6.2,13.6,0,22,.3s9.3.8,25.8,2c14,1,13,.7,24.3,1.6,8.4.7,12.2,1.1,21.1,1.7l13.9.9" transform="translate(-38.3 -36.1)" fill="none" stroke="#000" stroke-linecap="round" stroke-linejoin="round" stroke-width="1.42"/><path d="M3286.1,159.7c3.4.6,8.6,1.4,15,2.1l4.4.4c10.4,1,19.8,2.3,21.1,2.4,6.7.9,32.9,2.2,110.5,4" transform="translate(-38.3 -36.1)" fill="none" stroke="#000" stroke-linecap="round" stroke-linejoin="round" stroke-width="1.42"/><path d="M3305.8,148.8l5,1c3.2.4,4.7.3,9.1.7l3.8.5c3.8.5,33.4,2.2,113.6,6.6" transform="translate(-38.3 -36.1)" fill="none" stroke="#000" stroke-linecap="round" stroke-linejoin="round" stroke-width="1.42"/><path d="M3324.3,137.3a31.1,31.1,0,0,0,6,2.1,34.3,34.3,0,0,0,4.9.8h1.8c4.3.1,40,2.4,57.8,3.1,10.1.4,24.7.8,42.7.3" transform="translate(-38.3 -36.1)" fill="none" stroke="#000" stroke-linecap="round" stroke-linejoin="round" stroke-width="1.42"/><path d="M3350.7,124.9c1.6.5,3.9,1.2,6.8,1.9,6.3,1.6,13.2,2.8,30,4.5,14.1,1.4,24,2.3,37.7,2.4l12.5-.2" transform="translate(-38.3 -36.1)" fill="none" stroke="#000" stroke-linecap="round" stroke-linejoin="round" stroke-width="1.42"/><path d="M3369.4,113.8c2.8,1,5.3,1.7,7.2,2.2s5.4,1.6,9.6,2.4,4.6.8,6.6,1c10.8,1.5,10.6,1.9,16.1,2.5s5.2.3,17.5.8l11.5.7" transform="translate(-38.3 -36.1)" fill="none" stroke="#000" stroke-linecap="round" stroke-linejoin="round" stroke-width="1.42"/><path d="M3382.3,105.5l6.3,1.3,5.5,1.5c6.1,1.8,16.5,2.5,25.7,3l18.3,1.1" transform="translate(-38.3 -36.1)" fill="none" stroke="#000" stroke-linecap="round" stroke-linejoin="round" stroke-width="1.42"/><path d="M3396.8,95.3a119.7,119.7,0,0,0,13.2,3.3c6.3,1.3,11.3,1.9,16.4,2.5s8.9.9,11.9,1.1" transform="translate(-38.3 -36.1)" fill="none" stroke="#000" stroke-linecap="round" stroke-linejoin="round" stroke-width="1.42"/><path d="M3419.5,79l5.6,1.1,3.8.7a61.6,61.6,0,0,0,9.8.9" transform="translate(-38.3 -36.1)" fill="none" stroke="#000" stroke-linecap="round" stroke-linejoin="round" stroke-width="1.42"/><path d="M3436.6,195.8l-13.7-1.1c-22.8-1.9-23.5-2.2-33.9-3s-26.3-1.9-39.8-1.5c-3.2.1-9.4.3-17.8-.1l-9.9-.5c-5.9-.4-7.7-.7-11.5-.6l-6.4.3-5.1.3c-4.6.4-7.7.8-19,2.3l-7.8,1-11.5,1.1a165.4,165.4,0,0,0-18.9,2.9l-15.2,3.8-22.7,6c-2.5.8-5.9,1.7-10.3,3.2-12.7,4.1-14.5,5.6-24.9,8.8-7.5,2.4-13.4,3.7-15.3,4.1-7.4,1.7-6.7,1-14.3,2.7s-11.6,3.3-18.9,4.1l-6.5.5c-5.1.4-9.5.7-14.3.9s-7.6.3-12.7.1a121.2,121.2,0,0,1-18.2-1.6c-1-.2-3.5-.7-7-1.1l-5.8-.5c-2.3-.1-6.3-.3-11.2-.2-3.3.1-3.1.2-11.9.9l-9.8.7-12.7.5-18,.8c-7,.6-12.2,1.3-14.7,1.7l-8.4,1.5c-7.6,1.5-8.6,2-16.1,3.6s-12.4,2.3-17.6,3.2-6.9,1.1-9.5,1.4c-4.8.6-6.9.5-14.3.9l-13.4.9c-10.8.7-13,.8-16.9,1.4l-7.9,1.3-11,1.8-18.5,2.8c-5.3.6-8.9.8-10.1.9l-9.4.4c-6,.1-6.9.3-14.4.6s-13.2.6-18.7.6-7-.3-16.7-.3c-2.9-.1-6.5-.1-11.3,0-7.4.1-13.2.4-16.5.6l-12.4,1c-5.7.5-8.5.8-12,1.4l-5,.9a75.3,75.3,0,0,1-9.2.3c-2.8,0-1.9.1-11.6.7-5.3.4-5.7.3-12.6.7l-12,.7c-6.7.4-7.4.3-19.8.7-7.6.3-7.6.4-13.6.5s-10.6.4-15,.4c-9.3.1-8.7-.4-21.9-.6-9.2-.1-10.9.1-19.7-.1l-8.7-.2c-5-.1-8.2,0-11,0-7.9,0-8.2-.3-17-.4-17-.1-22.4.8-25.1,1.4s-6.8,1.7-8.2,2.1c-5.1,1.4-8,2.7-13.9,5-9.4,3.6-14,5.4-19.9,7.3s-6.6,1.8-12,3.7-7.9,3-12.2,4.8-9.8,4.1-17.2,7.8l-4.9,2.3c-3.8,1.7-5.9,2.4-9.2,3.8s-6.1,2.6-9.1,3.9a178.4,178.4,0,0,1-19.3,7.1,163.1,163.1,0,0,1-21.2,5l-7.1,1-13.5,2.1c-11.7,1.6-10.9,1.1-20.2,2.5-2.3.3-5.2.8-9.3,1.1l-7.3.3-10.2.5-8,.3h-3.5l-5.6.4-5.7.4-3,.2-11.3,1.2-7.8.7-2.7.3h-2.6a9.4,9.4,0,0,0-3,1.1l-5.3,2c-3.8,1.5-13,3.9-22.4,5.7a146.5,146.5,0,0,1-18.8,2.5h-8.6l-18.8.2h-11" transform="translate(-38.3 -36.1)" fill="none" stroke="#000" stroke-linecap="round" stroke-linejoin="round" stroke-width="1.42"/><path d="M1037.2,497.1a102.2,102.2,0,0,1,5.2-17.6c1.2-3.2,2.4-5.6,3.4-7.7,2.6-5.5,3.8-7.3,4.3-7.9a18.2,18.2,0,0,1,5.1-5.3,16.6,16.6,0,0,1,6.8-2.5c4-.7,6.3.3,13.1,1.6l9.5,1.5c8.8,1.3,11.6,1.2,21.3,2.4l13.6,2,33.3,5" transform="translate(-38.3 -36.1)" fill="none" stroke="#000" stroke-linecap="round" stroke-linejoin="round" stroke-width="1.42"/><path d="M748.6,465.7c1.4-.3,3.5-.8,6.1-1.2s5.7-.7,8.2-1c5.7-.6,5.7-.3,8.5-.8A73.9,73.9,0,0,0,779,461c5.2-1.4,5.4-2,9.3-2.9,2.2-.5,2.1-.3,7.4-1.2l8.2-1.6c8.2-1.6,7.7-1.8,12.4-2.7,3-.5,6.3-.9,13.1-1.7l8.1-.9c5.3-.7,8.1-1.4,11.3-1.9a166.7,166.7,0,0,1,16.7-1.8l20.1-1.1,15.2-.7c9.3-.5,11.8-.5,14.3-.6,7.8,0,12.2.4,13.5.5,4.1.3,3.7.5,8.9,1.1,9.1,1.1,11.7.7,17.9,2.1s6.3,2.1,7.4,3.1,3.6,4.4,4.9,6.9l2.5,5.2a37.3,37.3,0,0,0,2,4c.8,1.3,1.4,2.1,1.4,2.1a23.1,23.1,0,0,1,1.4,2.3,8.6,8.6,0,0,1,.3,2.6c.2,3.3.3,3.7.3,4s.3,1.1.8,3.1.6,3,1.1,5.2a32,32,0,0,0,1.3,4.7" transform="translate(-38.3 -36.1)" fill="none" stroke="#000" stroke-linecap="round" stroke-linejoin="round" stroke-width="1.42"/><path d="M807.2,364.5a76.2,76.2,0,0,0-6.8,7.3c-3.3,4.1-4.5,6.5-9.8,14.6-3.5,5.4-5.2,8.1-7.3,10.9a151.1,151.1,0,0,1-10.7,12.8c-5.5,6.1-4.5,4.5-16.4,16.9-4.7,4.9-7.4,7.8-12.2,11.1a55.2,55.2,0,0,1-7.1,4.3,74.7,74.7,0,0,1-18.5,6.7" transform="translate(-38.3 -36.1)" fill="none" stroke="#000" stroke-linecap="round" stroke-linejoin="round" stroke-width="1.42"/><path d="M768.9,414c9.6,1.3,17.4,2,23.1,2.4l6.2.3c8.8.4,15.5.3,17.7.3,5.8-.1,9.5-.4,14.9-.7s19.1-1.2,32.6-1.6c7-.1,4.7.1,26.2.1,18.2,0,18.1-.2,28-.1,13.8.1,13.6.4,27.8.5,9.3.1,17,.2,27.2-.2s10-.7,19.9-1,17.4-.3,33.5-.1c18.1.2,17,.5,22,.3,6.9-.3,12.1-.9,21.2-.7,4.7.1,7.8.3,10.2.5a285.3,285.3,0,0,0,33.3.1c14.5-.6,25-1.1,39.1-3.6,7.2-1.3,9.1-2.1,28.1-5.9,12-2.4,10.7-2,16.7-3.3,17.8-3.7,18.9-5.1,38-9.3,9.8-2.2,14.5-3,24.3-5.4,6.3-1.6,7.5-2,12.2-3s6.6-1.1,9.6-2.2,3.6-1.7,7-2.8c1.4-.4,2.8-.9,4.6-1.3a45.6,45.6,0,0,1,6.4-.7c3.3-.2,3.6,0,5.5-.3a16.9,16.9,0,0,0,5-1.6,70.9,70.9,0,0,1,13.7-4" transform="translate(-38.3 -36.1)" fill="none" stroke="#000" stroke-linecap="round" stroke-linejoin="round" stroke-width="1.42"/><path d="M86.9,449.5c5.5-.5,13.7-1.1,23.7-1.5l11.2-.4c14.9-.7,26.4-2.4,33.1-3.3l11.1-1.8c7.6-1.3,12.5-2.4,15.7-3,8.6-1.8,15-2.5,27.9-3.9,18.2-2.1,16.6-1,27.3-2.7s19.2-3.6,24.8-4.8l12.8-3.1,26-6.2c10-2.4,15.1-3.6,21.4-4.7s10-1.6,18.7-2.7c12.8-1.6,23.8-2.7,33.1-3.5,6.2-.6,9.6-.9,14.5-1.1,12.8-.7,21.9-.5,23.9-.5l15.4.9c2,.1,4.5.3,7.9.8a42.2,42.2,0,0,1,6.9,1.4,37.5,37.5,0,0,1,9.5,4" transform="translate(-38.3 -36.1)" fill="none" stroke="#000" stroke-linecap="round" stroke-linejoin="round" stroke-width="1.42"/><path d="M251.6,430.3c-5.9-2.7-10.6-4.5-13.8-5.6a34.6,34.6,0,0,0-5.4-1.6,37.6,37.6,0,0,0-8.6-1.1c-15.6-.5-18.1-1.6-38.7-1.5-8.1.1-15.4.1-25.5.7s-11,1-24.6,2c-10.6.7-12.1.6-20.2,1.2-11.7.9-21.3,1.9-27.9,2.7" transform="translate(-38.3 -36.1)" fill="none" stroke="#000" stroke-linecap="round" stroke-linejoin="round" stroke-width="1.42"/><path d="M151.8,397.9c2.4.6,5.9,1.5,10.2,2.4s9.7,1.6,22.4,2.2c9.5.4,7.5,0,18.8.4,8.2.3,12.6.7,21.2.7,4.6,0,7-.1,9.9-.3s7.5-1,15.2-2.4l4.3-.7,11.8-2c2.2-.3,10-1.6,17.7-3.3,2.5-.5,7.3-1.8,17-4.5,14.9-4.1,16.4-4.6,21.2-5.6l9.7-2.2c5-1.2,4.8-1.3,7.1-1.7s4.5-.4,11.2-1.1l5.7-.6,9.6-1.6c3.9-.7,7.3-1.1,13.9-1.7,14.8-1.5,30.6-2.4,34.8-2.6,13.2-.7,19.8-1.1,28.8-1.2s10,.2,18.8,0,18-.7,21.5-.9c6.3-.3,5.9-.4,8.4-.4a182.8,182.8,0,0,1,21.1.4c12.7.9,22.6,2.6,29.3,3.7a315.5,315.5,0,0,1,34.3,7.9c9.3,2.8,14,4.3,20.1,7.5,2.8,1.5,2.6,1.6,16.5,10a79.6,79.6,0,0,1,7,4.4c.3.2,2.5,1.7,4.3,3.1a73.8,73.8,0,0,1,10.5,9.8" transform="translate(-38.3 -36.1)" fill="none" stroke="#000" stroke-linecap="round" stroke-linejoin="round" stroke-width="1.42"/><line x1="452" y1="331.6" x2="411" y2="303" fill="none" opacity="0" stroke-linecap="round" stroke-linejoin="round" stroke-width="1.42" stroke="#000"/><path d="M2634.1,261a49.9,49.9,0,0,1-6.1,4.6,48,48,0,0,1-9.7,4.5c-6,2.2-10.4,3.1-17.7,4.7l-14.6,3.4c-19.5,4.4-19.2,4.8-31.7,7.5s-16.8,3.6-24.4,4.5c-6.1.7-8.3.6-14.3,1.7s-9.5,2-18.3,4.3l-18.8,5.1-14.7,4.1-11.7,3.8c-4.7,1.5-5.3,1.6-16.6,4.8l-20.9,6.1-11.9,3.4c-9.8,2.7-14.8,4.1-19.1,5.1-10,2.2-9.5,1.3-21.3,3.9a119.5,119.5,0,0,1-12.8,2.5c-1.8.3-2.8.3-12.2,1-11.2.7-12,.7-13.9,1a106.3,106.3,0,0,0-13.9,2.8c-7.2,1.7-14.2,2.6-28.2,4.4-7,.9-14.3,1.8-24.1,2.6-6.5.5-11,.6-19.1,1-6.4.2-16.7.6-30.4.7-11.4.1-25.2,0-40.9-.5" transform="translate(-38.3 -36.1)" fill="none" stroke="#000" stroke-linecap="round" stroke-linejoin="round" stroke-width="1.42"/><path d="M2241.1,277a50.6,50.6,0,0,0,.3,6.1,42,42,0,0,0,1.5,6.9c1.8,6.2.7,3.7,3.7,14.5a150.8,150.8,0,0,0,4.6,14.5c1.2,2.7,2.3,4.9,3.1,6.4" transform="translate(-38.3 -36.1)" fill="none" stroke="#000" stroke-linecap="round" stroke-linejoin="round" stroke-width="1.42"/><path d="M428.8,336c3.4,1.1,8.2,2.7,13.8,4.9,10.3,4,16,6.1,22.8,10.4,5.2,3.2,9.1,6.5,14.4,10.8s7.5,6.5,9.9,8.7" transform="translate(-38.3 -36.1)" fill="none" stroke="#000" stroke-linecap="round" stroke-linejoin="round" stroke-width="1.42"/><path d="M86.9,383c4.7-.4,8.4-1,10.8-1.4,4.7-.9,6.5-1.5,13.6-3l9.2-1.8c8.8-2,9.7-3.2,17.4-4.8,4-.9,3.7-.5,10.6-1.7s10.9-2.2,13.4-2.8c10.6-2.5,12.4-2.4,27.2-5.5s14-3.3,30.7-6.8c10.6-2.2,16.3-3.4,24.6-4.9s11-1.8,18-3.5,8-2.1,14.5-3.8c11.2-2.9,12-2.5,23.5-5.3s18.5-5,28-7.8,6.1-2,17-5.3c22.4-6.8,29-8.2,34-9.1l11-1.7,15-2.2a234.9,234.9,0,0,1,27.5-2.1c7.5-.2,15.4,0,19.7.1l9.9.2h10.2c8.6-.1,10.8-.6,22.3-1l9.9-.3c9.7-.5,14-1.6,23.2-2.9s16.4-1.6,26.3-2.1c6.8-.4,10.5-.4,20.7-1l12-.8c8.7-.9,12-1.6,19.1-2.4s11.4-1.1,19.3-1.4c13-.6,20.5-1,30.7-.2,6.1.5,11.9,1.3,17.8,2.1l14.3,2.2,17.1,2.8a193.3,193.3,0,0,1,35.8,10.8c6,2.3,4.9,2.1,20.5,8.4,10.6,4.3,14.3,5.7,17.6,6.9s11.2,3.9,18.5,5.6c12.2,3,21.9,2.9,32.8,2.7,21.3-.4,37-3.6,57.8-7.9,10-2.1,15.2-3.2,21.3-5.5l13.5-4.6a37.6,37.6,0,0,1,7.3-2.1l5.3-.8,4-.4a43.5,43.5,0,0,0,11.4-2.8c4.6-1.7,4.1-2.2,8.2-3.6a49.6,49.6,0,0,1,9.2-2.1c12.8-2.1,10.7-2.2,15.7-2.8,3.2-.4,8.3-.6,18.2-1.1l11.4-.6c11.7-.4,14.3-.1,25.5-.3,9.4-.2,16.9-.7,31.9-1.5l12.3-.7c13.3-.7,16.3-.4,24.1-1.3,5.2-.5,4.3-.7,11.9-1.6s9.6-.8,15.9-1.7c3-.4,7.4-1,12.9-2.2s10.2-2.7,12.3-3.3c25.1-7.9,27.2-7.5,39.9-12.3a308.5,308.5,0,0,0,30.6-13.9c9.5-4.8,14.2-7.7,25.6-12.8,4.9-2.3,9.1-4,16.5-7.1,10.7-4.5,13-5.3,14.7-5.8,4.4-1.3,5.1-1.2,13.6-3.8,3.8-1.1,5-1.5,7.6-2.1a67.7,67.7,0,0,1,10.6-1.8c3-.2,4.1,0,12.5.2l11.4.4a157.7,157.7,0,0,1,16.8,1.3c4.9.7,4.6,1,13,2.7a192,192,0,0,0,19.3,3.3,143.8,143.8,0,0,0,18.6.9l11.7-.4,12.8-.7c10-.6,9.3-.8,14.7-1,7.4-.2,8.3.2,13.2-.4s4.2-.9,9.5-1.6c3.5-.5,6.3-.6,11.8-1,8.3-.5,7.8-.2,11.3-.6,5.8-.5,6.2-1,14.8-2.3,6-.9,10.7-1.3,15-1.7,6-.6,10.5-.9,13.8-1.1,6.3-.3,12.6-.7,20.4-.8,4,0,3.6.1,22.4.7l17.5.5c8.3.1,13.3-.1,17.7-.1,11.7-.2,16.3.4,36.6,1.3,10.4.5,21,1,33.2,1.3,13.9.3,17.3,0,48-.1,19.7-.1,29.5-.2,35.8,0,9,.1,22.6.7,49.8,1.9l17.8.9c12.1,1,17.1,2.3,28.1,2.3l11.1-.3c4.4-.1,11.9-.4,21.4-1l15.8-1c8.7-.4,13.7-.2,24.1-.1h27.6c20-.4,35.1-1.7,40.2-2.1l18.3-1.9c12.2-1.4,13.4-1.8,18.9-2.3a151.9,151.9,0,0,1,27.6-.3c8.8.8,8.6,1.8,29.5,6.3,7.6,1.7,2.9.5,34.5,6.6,9.3,1.8,14.1,2.7,21.3,3.2a159.5,159.5,0,0,0,18.4,0c13.6-.4,26.1-1.5,33.9-2.5l12.5-1.7,5.6-.8a89.7,89.7,0,0,1,10.7-.3c14.3.6,28.7.7,43.1,1.2,16.5.5,15.4.2,26.5.7s15.2,1,26,1.5,18.5.5,27.8.6c20.5.1,30.7.2,41.1-.8l14.4-1.2c6.1-.4,9.6-.4,16-.6,12.2-.5,12.2-.7,23.4-1.1s18-.7,25.6-.6c13.3.3,22.5,1.4,25.1,1.7,5.7.7,10.5,1.5,14,2.1" transform="translate(-38.3 -36.1)" fill="none" stroke="#000" stroke-linecap="round" stroke-linejoin="round" stroke-width="1.42"/><line x1="48.6" y1="289.4" x2="48.6" y2="262.8" fill="none" stroke="#000" stroke-linecap="round" stroke-linejoin="round" stroke-width="1.42"/><line x1="740.3" y1="215.2" x2="740.3" y2="188.6" fill="none" stroke="#000" stroke-linecap="round" stroke-linejoin="round" stroke-width="1.42"/><line x1="1428.8" y1="127.5" x2="1428.8" y2="100.9" fill="none" stroke="#000" stroke-linecap="round" stroke-linejoin="round" stroke-width="1.42"/><line x1="2131.5" y1="144.4" x2="2131.5" y2="117.8" fill="none" stroke="#000" stroke-linecap="round" stroke-linejoin="round" stroke-width="1.42"/><line x1="2829.5" y1="148.2" x2="2829.5" y2="121.7" fill="none" stroke="#000" stroke-linecap="round" stroke-linejoin="round" stroke-width="1.42"/><text transform="translate(2842.5 141.4)" font-size="22.68" font-family="SimSun">79HP3TZ29</text><text transform="translate(2159.5 134.6)" font-size="22.68" font-family="SimSun">79HP3TZ30</text><text transform="translate(1442.1 119.3)" font-size="22.68" font-family="SimSun">79HP3TZ31</text><text transform="translate(758.7 209)" font-size="22.68" font-family="SimSun">79HP3TZ32</text><text transform="translate(58.7 262.8)" font-size="22.68" font-family="SimSun">79HP3TZ33</text><text transform="translate(0 294.5)" font-size="22.68" font-family="SimSun">南</text><text transform="translate(3410 19.5)" font-size="22.68" font-family="SimSun">北</text><text transform="translate(82.5 406.7)" font-size="22.68" font-family="SimSun">9C</text><text transform="translate(282.2 397.9)" font-size="22.68" font-family="SimSun">9D</text><text transform="translate(318.5 326.2)" font-size="22.68" font-family="SimSun">9A</text><text transform="translate(423.8 358)" font-size="22.68" font-family="SimSun">9B</text><text transform="translate(637.1 358)" font-size="22.68" font-family="SimSun">H3</text><text transform="translate(762 262.8)" font-size="22.68" font-family="SimSun">1</text><text transform="translate(810.7 292.1)" font-size="22.68" font-family="SimSun">2</text><text transform="translate(1144.8 292.1)" font-size="22.68" font-family="SimSun">5</text><text transform="translate(1047.5 353.2)" font-size="22.68" font-family="SimSun">8</text><text transform="translate(956.2 419.7)" font-size="22.68" font-family="SimSun">9B</text><text transform="translate(828 435.2)" font-size="22.68" font-family="SimSun">9C</text><text transform="translate(1023.4 445.4)" font-size="22.68" font-family="SimSun">9C</text><text transform="translate(2123.9 204)" font-size="22.68" font-family="SimSun">2</text><text transform="translate(2181.7 231.8)" font-size="22.68" font-family="SimSun">5</text><text transform="translate(2160.6 276.3)" font-size="22.68" font-family="SimSun">8</text><text transform="translate(2571.4 199)" font-size="22.68" font-family="SimSun">1</text><text transform="translate(2484.6 246.3)" font-size="22.68" font-family="SimSun">9A</text><text transform="translate(2598.2 262.8)" font-size="22.68" font-family="SimSun">9B</text><text transform="translate(2818.8 206.7)" font-size="22.68" font-family="SimSun">6</text><rect x="3352.6" y="78.1" width="15.2" height="21.16" rx="7.6" fill="#fff"/><text transform="translate(3354.6 96.8)" font-size="22.68" font-family="SimSun">5</text><rect x="3291.2" y="110.2" width="96.1" height="22.51" rx="7.6" fill="#fff"/><text transform="translate(3293.9 129.6)" font-size="22.68" font-family="SimSun">南垣東段</text><path d="M2715.6,310.9c.6,6.4.7,17.7-5.9,27.6-8.1,12.2-22.1,15.8-29.9,17.6-53.1,12.3-114.9,12.9-114.9,12.9-53.2.6-66.8.2-94.1,2.7a486.3,486.3,0,0,0-49.9,6.6c-21.8,4.2-25.1,6.7-60.9,15.5s-27.6,5.3-59,13.2c-23.7,6-32.3,9-48,8.9-7.7,0-6.1-.8-30.2-2.1-11.2-.6-22.3-2.3-33.5-2.5s-13.6.3-16.7-2.5-3.8-10.4-4.4-24.7c-.1-2-.7-16.1-.8-19.8.4.6.9.7,4,1.6l3,.9a119.6,119.6,0,0,0,17.6,3c23.4,1.8,24.9,2.9,45.2,3.6,23.1.7,39.7-.2,46.7-.6,19.1-1.2,28-2.9,36.6-6s15.6-6.5,15.6-6.5c8.1-3.8,10.6-5.7,17.7-8.9a133.1,133.1,0,0,1,16.6-6.1,274,274,0,0,1,57.2-11.3c6.3-.6,12-1,19.8-1.4s11.9-.6,27-1.2l29.4-1.4c9.2-.5,17.2-1,27.5-2,15.3-1.6,18.8-2.7,39.5-5.2,6.9-.8,13.6-1.6,22.1-2.4,25.6-2.3,31.1-.9,58.5-3.1,16.1-1.3,14.7-1.8,24.6-2.2,0,0,17.1-.7,31.2-2.2,2.9-.3,2.4-.5,4.4-.6a8.2,8.2,0,0,0,3.1-.8A2.8,2.8,0,0,0,2715.6,310.9Z" transform="translate(-38.3 -36.1)" fill="url(#_10_lpi_10_)"/><path d="M2167.2,277.4c-.1,7.5-.3,26.5-.4,45.1s0,15.7,0,21.4.1,8.8,0,13.2c0,.4,0,1.4.1,3.5s.1,3.2.5,3.7.9.7,4,1.6l3,.9a119.6,119.6,0,0,0,17.6,3c23.4,1.8,24.9,2.9,45.2,3.6,23.1.7,39.7-.2,46.7-.6,19.1-1.2,28-2.9,36.6-6s15.6-6.5,15.6-6.5c8.1-3.8,10.6-5.7,17.7-8.9a133.1,133.1,0,0,1,16.6-6.1,274,274,0,0,1,57.2-11.3c6.3-.6,12-1,19.8-1.4s11.9-.6,27-1.2l29.4-1.4c9.2-.5,17.2-1,27.5-2,15.3-1.6,18.8-2.7,39.5-5.2,6.9-.8,13.6-1.6,22.1-2.4,25.6-2.3,31.1-.9,58.5-3.1,16.1-1.3,14.7-1.8,24.6-2.2,0,0,17.1-.7,31.2-2.2,2.9-.3,2.4-.5,4.4-.6a8.2,8.2,0,0,0,3.1-.8,2.8,2.8,0,0,0,.9-.6c.7-.7.7-1.8.8-3.7s.1-2,.1-2.9c-.1-3.2.3-8.3.5-12.5s.4-13,.6-34.7" transform="translate(-38.3 -36.1)" fill="none" stroke="#000" stroke-linecap="round" stroke-linejoin="round" stroke-width="1.98"/><path d="M1322.7,399.9c-.7,4.5-1.9,11.4-3.3,19.7-3.2,20.1-3.1,20.4-4.1,22.2-2.1,3.7-6.5,9-39.2,19.1-13.7,4.3-20.9,6-20.9,6-16.5,3.9-59.4,14-98.9,31.7-21.6,9.7-22.1,13.2-41.6,20.5-13.3,5-28.3,10.6-48.7,12.5s-25.4-1.8-44.2,2.7c-9.4,2.3-13.7,4.6-24,5.4a86.1,86.1,0,0,1-28.5-2.4c-19.4-4.8-20.9-12.2-38.5-14.4-3-.4-8.5-.5-19.6-.6s-21.6.1-24.3.2L793.5,525c-13.9,1-23.3,2-36.1-1.7-9.1-2.7-13.9-6-27.3-14.5-30.2-19.1-45.7-28.8-62-35-9.5-3.5-6.8-1.2-32.5-8.2-21.2-5.9-27.2-8.4-39.3-11.7-20-5.3-35.3-6.8-52.1-8.5-30.2-2.9-57-5.6-89.8,1.1-15.3,3.1-14.7,4.7-41.9,11-16,3.7-22.9,4.7-51.7,9.9-54.3,9.7-58.3,11.5-82.1,14.6s-18.2,1.2-46.2,4.7c-30.7,3.9-90.3,12.9-112.2,13.8-6.4.3-7.5-.2-16.3.3-10.6.6-13.9,1.6-16-.7s-.7-6-.6-17a83.2,83.2,0,0,0-.5-11.3c6.9.2,16.5.5,27.9.3,15-.3,27.7-1.3,39-2.4,34.9-3.5,69.2-9.6,91.6-13.9,5-1,12.2-2.7,23.8-5,14-2.8,24.3-4.9,37.6-7,18-2.8,17.8-2,28.4-4.3s13.7-3.9,25.9-6.3a206.8,206.8,0,0,1,24.7-3.9c4.8-.5,7.6-.6,12.5-1.5s8-2.2,15.3-4.4l18.4-4.8,19.8-5.2c7.6-1.8,12.9-2.5,39.5-5.1l29.2-2.9a374.4,374.4,0,0,1,43.9.7c7,.4,12.8.8,20.8,1.8,3.5.4,11.1,1.4,26.8,4.8,12.4,2.6,25.3,5.3,42.4,10.4,7.8,2.3,16.8,5.1,28.7,9.7,2.5,1,12,4.8,24.1,10.6,7.1,3.5,12.3,6.3,21.1,11.1,10.4,5.6,15.6,8.4,20.3,11.2,3,1.8,7,4.2,13,7.3,1.6.8,5,2.5,8.3,3.9,5.4,2.3,10.9,3.9,20.4,5.7s17.7,3.5,30.1,4.2,21.7,0,33.7-1c13.6-1,13.4-1.7,27.4-2.9s26-1.3,36.4-1.4c16.9-.1,25.5-.2,35.2,1.8a166.1,166.1,0,0,1,18.2,5c12.9,4.1,16.4,6.4,27.5,9.1,6.8,1.7,10.8,2.7,16.7,2.7s10.9-.8,20.2-2.7c6.4-1.2,9.2-2.1,14.6-3.3,17.1-3.6,30.6-5.7,33.5-6.1,10.9-1.6,12.2-1.5,23.4-3.3a178,178,0,0,0,19.5-4,106.4,106.4,0,0,0,19.9-8.3c5-2.8,4.4-3,10.3-6.3s10.6-5.4,19.9-9.5,6.7-3.2,18.6-8.6c19.8-9,29.7-13.5,36.8-16.6a69.5,69.5,0,0,0,7.8-3.8c3.6-1.9,5.4-3.3,7.4-4.5,3.5-2.1,7-3.3,14-5.6,3.2-1.1,10-3.3,20.3-5.9,6.1-1.6,9.1-2.3,13-3.1s14.2-2.7,18.9-4.4l5.3-2.3,2.3-1.1,1-.5Z" transform="translate(-38.3 -36.1)" fill="url(#_10_lpi_10_3)"/><line x1="48.6" y1="303" x2="48.6" y2="435.6" fill="none" stroke="#000" stroke-linecap="round" stroke-linejoin="round" stroke-width="1.98"/><path d="M86.9,471.8c6.9.2,16.5.5,27.9.3,15-.3,27.7-1.3,39-2.4,34.9-3.5,69.2-9.6,91.6-13.9,5-1,12.2-2.7,23.8-5,14-2.8,24.3-4.9,37.6-7,18-2.8,17.8-2,28.4-4.3s13.7-3.9,25.9-6.3a206.8,206.8,0,0,1,24.7-3.9c4.8-.5,7.6-.6,12.5-1.5s8-2.2,15.3-4.4l18.4-4.8,19.8-5.2c7.6-1.8,12.9-2.5,39.5-5.1l29.2-2.9a374.4,374.4,0,0,1,43.9.7c7,.4,12.8.8,20.8,1.8,3.5.4,11.1,1.4,26.8,4.8,12.4,2.6,25.3,5.3,42.4,10.4,7.8,2.3,16.8,5.1,28.7,9.7,2.5,1,12,4.8,24.1,10.6,7.1,3.5,12.3,6.3,21.1,11.1,10.4,5.6,15.6,8.4,20.3,11.2,3,1.8,7,4.2,13,7.3,1.6.8,5,2.5,8.3,3.9,5.4,2.3,10.9,3.9,20.4,5.7s17.7,3.5,30.1,4.2,21.7,0,33.7-1c13.6-1,13.4-1.7,27.4-2.9s26-1.3,36.4-1.4c16.9-.1,25.5-.2,35.2,1.8a166.1,166.1,0,0,1,18.2,5c12.9,4.1,16.4,6.4,27.5,9.1,6.8,1.7,10.8,2.7,16.7,2.7s10.9-.8,20.2-2.7c6.4-1.2,9.2-2.1,14.6-3.3,17.1-3.6,30.6-5.7,33.5-6.1,10.9-1.6,12.2-1.5,23.4-3.3a178,178,0,0,0,19.5-4,106.4,106.4,0,0,0,19.9-8.3c5-2.8,4.4-3,10.3-6.3s10.6-5.4,19.9-9.5,6.7-3.2,18.6-8.6c19.8-9,29.7-13.5,36.8-16.6a69.5,69.5,0,0,0,7.8-3.8c3.6-1.9,5.4-3.3,7.4-4.5,3.5-2.1,7-3.3,14-5.6,3.2-1.1,10-3.3,20.3-5.9,6.1-1.6,9.1-2.3,13-3.1s14.2-2.7,18.9-4.4l5.3-2.3,2.3-1.1,1-.5.5-.3a1.3,1.3,0,0,0,.2-.9,4.8,4.8,0,0,1,0-1.2,10.8,10.8,0,0,1,0-1.8c.1-1.2.1-2.6.1-4.2,0-3.3.1-6.6.1-9.1.1-5.2-.1-9-.2-12.6,0-2-.2-9.6-.4-25-.1-6.2-.2-15.2-.3-26.3" transform="translate(-38.3 -36.1)" fill="none" stroke="#000" stroke-linecap="round" stroke-linejoin="round" stroke-width="1.98"/></g></svg>