<svg xmlns="http://www.w3.org/2000/svg" viewBox="0 0 545.7 865.2"><g id="scale-1:20"><path d="M470.7,797.4v9.9H329v-10" transform="translate(-39.5 -22.8)" fill="none" stroke="#000" stroke-miterlimit="10" stroke-width="0.57"/><line x1="317.9" y1="774.6" x2="317.9" y2="784.6" fill="none" stroke="#000" stroke-miterlimit="10" stroke-width="0.57"/><line x1="346.2" y1="774.6" x2="346.2" y2="784.6" fill="none" stroke="#000" stroke-miterlimit="10" stroke-width="0.57"/><line x1="374.5" y1="774.6" x2="374.5" y2="784.6" fill="none" stroke="#000" stroke-miterlimit="10" stroke-width="0.57"/><line x1="402.9" y1="774.6" x2="402.9" y2="784.6" fill="none" stroke="#000" stroke-miterlimit="10" stroke-width="0.57"/><text transform="translate(285.8 770.1)" font-size="14.17" font-family="SimSun">0</text><text transform="translate(420.9 770.1)" font-size="14.17" font-family="SimSun">100cm</text></g><g id="title"><text transform="translate(94.7 842.4)" font-size="17.01" font-family="SimSun">1.表土層　4A.褐灰土　4B.紅土（夾碎石）<tspan x="68" y="20.4">5A.黑灰土　5B.黃灰斑土</tspan></text></g><g id="outline"><rect x="0.4" y="164.9" width="490.5" height="559.55" stroke-width="0.85" stroke="#000" stroke-linecap="round" stroke-linejoin="round" fill="none"/><path d="M430.7,187.7a18.6,18.6,0,0,1,1.3,5.9c0,.4,0,.7-.2,3.4s-.1,3.5-.3,5.1c-.3,5.1-.2,5.5-.5,9.7s-.5,6.1-.7,7.9c-.6,5.9-.8,6-1.1,10.1s-.1,3.4-.4,7.8-.5,5.4-.6,6.7c-.8,8.1-1.2,16-1.2,17.2-.4,8,0,6.9-.4,18.1-.2,5-.4,7-.4,11.5v9.5c0,3.6.1,4.5,0,6.4s-.5,4.4-.9,7.6-.5,5.8-.8,10.6-.4,8.5-.2,10.9a34.7,34.7,0,0,1-.3,12.2,92,92,0,0,0-.9,11.2c0,2.2,0,3.5-.1,6.2s-.4,3.8-.5,4.8c-.5,5.2.1,5.8-.1,13.6-.2,4.2-.4,5.9-.3,10.1,0,.9,0,2.4.1,4s.2,4.2.3,6.4c.3,4.2.4,6.3.5,7.9s0,5.2-.2,10.2c-.7,16.4-.7,15.6-.7,16,0,5.7.1,8.1-.5,11.1-.1.6-.6,3-1,6.2q-.2.9-.3,2.4c-.4,3.4-.6,6.1-.6,7.1-.2,3.8-.6,7-1.1,12.1s-.7,7-1.2,9.7c-.1,1-.4,2.1-.6,3.8s-.3,3.7-.5,6.1-.1,1-1,7.5l-.9,7.2c-.7,4.6-.7,4.3-1,6.8a46.9,46.9,0,0,0-.7,8.9c0,2.8.3,2.9.4,6.9.1,1.2.1,1.9.1,6.1s0,7.8-.1,9a72.6,72.6,0,0,1-.4,8.7c-.3,2.4-.7,3.4-.9,6.3a43.2,43.2,0,0,0-.2,5.1,74.7,74.7,0,0,0,.3,10.6c.6,6.1,1.4,6,1.3,9.9-.1.8-.3,2.9-.7,7s-.3,3.6-.4,4.9c-.3,3.4-.2,4.6-.3,7.6s-.1,2.4-.8,9.7c-.2,3.1-.4,5.4-.7,9.5s-.6,7.2-.8,10.4c-.4,6-.7,9-.7,10.6-.4,7-.1,7.2-.5,11.1s-.4,2.2-1.5,9.9c-.5,3.2-.8,5.8-1.3,9.3s-.9,7.1-1,9.8-.1,2.8-.4,4.6a51.9,51.9,0,0,1-1.3,6.4c-.7,3.1-.9,3.4-1.2,5.2a26.4,26.4,0,0,0-.6,5.5" transform="translate(-39.5 -22.8)" fill="none" stroke="#000" stroke-linecap="round" stroke-linejoin="round" stroke-width="0.71"/><path d="M479,187.7a24.1,24.1,0,0,1,1.4,7.1c0,.8-.1,2.2-.2,5s-.3,3.8-.5,5.3-.4,2.1-.6,3.9a33.5,33.5,0,0,0-.3,4.1c-.1,1.5-.1,2.9,0,8.5,0,2.5.1,3.7.1,4.2.2,2.5.4,3.1,1,6.9s.9,6.8,1,7.8.2,2.8.2,4.7a39.9,39.9,0,0,1-.4,7.2c-.2,1.8-.3,1.7-.6,3.8a39,39,0,0,0-.5,5.8c-.2,3.8,0,4.9,0,10.4,0,3.5-.1,3,0,5.4,0,4.8.3,6.2.6,12.1a87.9,87.9,0,0,1,.3,10.9c-.2,2.4-.4,4.4-1,8.6s-1,6.7-1.2,8.3c-.8,4.4-1.4,7.4-2.3,11.7s-1.3,5.4-1.6,6.6-.8,2.2-1.6,4.7a28.6,28.6,0,0,0-1.1,4.6c-.3,1.7-.1,2-.3,4.1s-.3,2-.9,5.7-.3,2.9-.8,6.2a42.9,42.9,0,0,0-.7,4.5,27.4,27.4,0,0,0,0,6.4c.7,11,.8,11.5.8,13s-.1,4.2-.2,6.8-.2,3.4-.3,5.1c-.3,4.9-.5,7.5-.8,10.6s-.5,3.7-.8,6.8-.2,5.2-.2,14.7v7.9c-.1,3.9-.2,4.6-.5,12.1-.4,9-.2,7.7-.4,10.4s-.3,4-.3,7.4a36.2,36.2,0,0,0,.2,4.5c.2,2,.5,3.5.6,4.1.4,2.2.4,3.9.8,10.4.4,9.1.6,12,.9,18.9.1,2.6.2,3.8.2,5.3,0,3.3-.2,4.4-.1,7.8s.1,2.5.1,4.7,0,4.7-.2,8.7c-.4,8.2-.6,12.3-.8,15.6-.4,5.6-.7,8.5-.7,8.5-.2,3.1-.3,4.1-.4,5.7s0,2.8.1,7.3.5,5.7.5,8.9c0,.9-.1,3.2-.4,7.9-.4,8.4-.5,8.6-.5,11s0,2.4-.1,4.5-.3,3-.4,4.5c-.2,3.2,0,3.5,0,9.8,0,1.1,0,.3-.1,5.9v5.8c0,2.6,0,3.9.1,5.4s.4,3,.8,6a70,70,0,0,1,.6,8c-.1,2.3-.3,2.4-.7,6.7s-.2,5.1-.6,8.2a72.5,72.5,0,0,1-2.2,9.7,56.3,56.3,0,0,1-2.5,7.6,46.8,46.8,0,0,1-3.9,7.2,76.4,76.4,0,0,1-5,6c-2.2,2.4-2.9,3-3.6,3.4s-2.3,1.1-4.3,2.5-1.4,1.4-3.1,2.6a18.9,18.9,0,0,1-3.4,1.9,22.5,22.5,0,0,1-4.4,1.5c-4.6,1.1-8.9,1.8-10.6,2.1s-4.8.8-9.3,1.9a88.8,88.8,0,0,0-12,3.8c-3.3,1.4-2.7,1.5-6.2,3-6.2,2.7-7.3,2.1-12.1,4.4a55.3,55.3,0,0,0-8.1,4.8,49.6,49.6,0,0,0-7,6.2c-1.1,1.2-2,2.3-3.8,4.5s-4.3,5.3-5.3,7.5a19.9,19.9,0,0,0-1.7,5.5" transform="translate(-39.5 -22.8)" fill="none" stroke="#000" stroke-linecap="round" stroke-linejoin="round" stroke-width="0.71"/><path d="M174.3,320.2c1.3,4.4-1.7,8.4-2.8,9.9a16.7,16.7,0,0,1-8.5,5.8,20.4,20.4,0,0,1-4.2.7,12.5,12.5,0,0,1-4.6-.3,10.6,10.6,0,0,1-3.7-1.9,9.8,9.8,0,0,1-3-5.2c-.3-1.7.1-3,.9-5.7a14.4,14.4,0,0,1,1.7-4.4,11.4,11.4,0,0,1,3.7-3.6,14.5,14.5,0,0,1,5.7-2.9,13.3,13.3,0,0,1,9.1,1.6C170.2,315.1,173.3,316.8,174.3,320.2Z" transform="translate(-39.5 -22.8)" fill="none" stroke="#000" stroke-linecap="round" stroke-linejoin="round" stroke-width="0.71"/><path d="M265.9,342.2a17.4,17.4,0,0,1,.6,9.9A13.4,13.4,0,0,1,264,358a12.8,12.8,0,0,1-2.7,2.5,13.5,13.5,0,0,1-4.9,1.9c-3.9,1.1-5.8,1.6-7.7,1.6a17,17,0,0,1-5.6-1.4,18.2,18.2,0,0,1-9-6.4,11,11,0,0,1-2.6-6.1c0-1.9.9-3.7,2.6-7.2a33.4,33.4,0,0,1,2.9-4.8,19.4,19.4,0,0,1,3.2-3.2,12.7,12.7,0,0,1,4.5-2,15.6,15.6,0,0,1,4.7-.4c2.3.3,2.3.9,5.6,1.9s4.1.6,6,1.7a10.3,10.3,0,0,1,2.8,2.3A13.2,13.2,0,0,1,265.9,342.2Z" transform="translate(-39.5 -22.8)" fill="none" stroke="#000" stroke-linecap="round" stroke-linejoin="round" stroke-width="0.71"/><path d="M289.7,355.2c-.3,3.5-1,4.3-2.3,10s-.6,4.4-1.4,7.1-2,6.6-5.1,9.7l-2.2,1.9c-1.4,1.1-2,1.7-3,2a14.1,14.1,0,0,1-3.1.7,16.1,16.1,0,0,0-2.6.2,10.9,10.9,0,0,0-2.7,1.1,9.4,9.4,0,0,1-4.4.6c-6.1-.2-6.4.6-13.6.1-5.1-.3-5.2-.7-11.9-1.1s-5.1,0-6.8-.4c-3.5-.6-4.6-1.7-13.4-5.6a14.3,14.3,0,0,1-3.1-1.6,11.3,11.3,0,0,1-3.5-2.8,8.4,8.4,0,0,1-1.4-3.8c-.9-5.4-1.3-8.1-1.1-10.5s.9-3.1,2.8-11.8a83.9,83.9,0,0,0,1.6-8.5,58.4,58.4,0,0,0,.7-7.8c.2-4.6-.2-4.7.1-7.9.2-1.2.2-1.3,1.4-7.1l1.2-6.2c1-4,1.7-6.6,3.8-8.9a13.6,13.6,0,0,1,3-2.5,21.6,21.6,0,0,1,4-1.8c3.2-1.3,3.3-1.6,5.6-2.6a30.8,30.8,0,0,1,6.4-1.7c5.1-1,9.2-.8,14.4-.3,2.1.1.7.1,10.8,1.3l9.5,1.3a39.6,39.6,0,0,1,8.2,2.1c3.4,1.3,4.5,2.3,5,3s1.1,1.5,1.9,4.8a55.4,55.4,0,0,1,1.3,6.8,113.2,113.2,0,0,1,.7,12.2c.1,2.7.1,6.6-.2,11.6s-.5,5.6-.6,9.7S289.9,352.8,289.7,355.2Z" transform="translate(-39.5 -22.8)" fill="none" stroke="#000" stroke-linecap="round" stroke-linejoin="round" stroke-width="0.71"/><line x1="2.2" y1="78.7" x2="2.2" y2="87.3" fill="none" stroke="#000" stroke-linecap="round" stroke-linejoin="round" stroke-width="0.85"/><line x1="2.2" y1="50.8" x2="2.2" y2="74.6" fill="none" stroke="#000" stroke-linecap="round" stroke-linejoin="round" stroke-width="0.85"/><line x1="492" y1="89.3" x2="492" y2="97.1" fill="none" stroke="#000" stroke-linecap="round" stroke-linejoin="round" stroke-width="0.85"/><line x1="492" y1="24.9" x2="492" y2="85.8" fill="none" stroke="#000" stroke-linecap="round" stroke-linejoin="round" stroke-width="0.85"/><path d="M41.7,73.6c4.2.5,10.5,1.3,18.2,1.5,5.7.2,8.6,0,15-.2,9.6-.2,27.5-.1,33.4-.1a77.9,77.9,0,0,0,9.4-.4l6.2-.9,5.8-.5c5.6-.3,11-.4,18.5-.4s8.3.2,12.2-.2c6.1-.7,6.6-1.6,12.7-2.1,3.6-.3,4.9,0,10.5-.4a67.8,67.8,0,0,0,7-.7c11.9-1.3,29.6-1.3,30.4-1.3a207.5,207.5,0,0,1,24.4.8l18.1,2.1c10,1.2,11,1.5,14.8,1.6l13.6.3h7.8a64.3,64.3,0,0,0,10.9-.1l4-.6,9.1-1.4c4.8-.7,5-.5,10-1.2l8.5-1.4c14-2.3,23.4-4,30.9-10.7a29.4,29.4,0,0,0,5.5-6.3c2.9-4.4,2.3-6,5.3-11.1a26.8,26.8,0,0,1,6.7-8.3,45,45,0,0,1,7-3.9h.1a33.1,33.1,0,0,1,8.9-3.7c5.1-1.5,10.8-.7,14.4-.2a105.9,105.9,0,0,1,11.7,2.9l15.4,4.3,9.9,3,10.2,2.8c21.5,5.9,22.5,7.1,28.8,7.5l10.9.6c5.6.3,5.3.5,7.4.5,4.8,0,6.8-.4,10.3.2a26.6,26.6,0,0,1,5.9,2" transform="translate(-39.5 -22.8)" fill="none" stroke="#000" stroke-linecap="round" stroke-linejoin="round" stroke-width="0.85"/><path d="M41.6,91.9l5.8-1.8L53,88.9a76,76,0,0,1,11.7-1.2c6-.1,6.1.4,11.7.1l6.9-.5c3.4-.1,4.3,0,6.8-.2s3.5-.6,6.9-.9,3.6-.1,11.8-.2h5.1c10.7.1,11.2,1.2,16.9.6a46.7,46.7,0,0,1,7.8-.6c2.4.1,2.6.4,5.2.6s2.7.1,8.9-.4,6.3-.6,8.1-.6,3.6.3,7.4.3l5.4-.2,6.1-.4c6.7-.4,8.3.4,15.2-.1l3.2-.3c6.9-.6,10-.3,16.3-.4s3.6-.4,11.2-.7c5.9-.2,8.9-.3,12.8-.2,6.9.2,7.1.9,12.2.6,2.5-.1,4.5-.4,8.3-.4s4.2.2,6.8.4l13.9.5,12.5.5c3.7.2,7.6.4,12.7,1l13.4,1a14.3,14.3,0,0,0,3,0,20.4,20.4,0,0,0,4.6-.7,30.6,30.6,0,0,0,3.5-1.1A80.9,80.9,0,0,1,340,82.4c2.5-.5,1.8-.2,6.8-.9a71.9,71.9,0,0,0,10.3-1.9c4.1-1.3,3.3-1.7,8.3-3.4s5.5-1.3,10-3l5.5-2.4c5.3-2.2,6.1-2.4,8.7-3.6a67.6,67.6,0,0,0,6.6-3.5c4.6-3,4.9-4.1,8.8-6.3a39.6,39.6,0,0,1,6.7-3,56.8,56.8,0,0,1,10.9-3.3,50,50,0,0,1,10.2-.7,122.4,122.4,0,0,1,31.8,5.2l5.4,1.9c3.3,1.2,5.6,2.3,10.2,4.3s5.9,2.7,9,4.2l7.6,4,14.7,7.5c7.7,3.9,9.1,4.6,11.6,5.6s6.4,2.3,8.4,2.9" transform="translate(-39.5 -22.8)" fill="none" stroke="#000" stroke-linecap="round" stroke-linejoin="round" stroke-width="0.71"/><path d="M482.1,62.7a56,56,0,0,1,9.1-3.9,49.2,49.2,0,0,1,6.1-1.7c2.8-.5,3.9-.5,8-1.1l4.9-.9c3.2-.6,9.1-1.2,21.3-.9" transform="translate(-39.5 -22.8)" fill="none" stroke="#000" stroke-linecap="round" stroke-linejoin="round" stroke-width="0.71"/><path d="M486.9,95.7c1.4,1.2,2.8,2.4,4.2,3.8" transform="translate(-39.5 -22.8)" fill="none" stroke="#000" stroke-linecap="round" stroke-linejoin="round" stroke-width="0.71"/><path d="M402.8,58.8l5,2.8a57.6,57.6,0,0,0,9.2,4.2,39.6,39.6,0,0,0,7.5,2c3.8.5,4,0,7.9.5a65.1,65.1,0,0,1,8.5,2.1,73.8,73.8,0,0,1,7.1,2.5,75.7,75.7,0,0,1,9,4.1c10.4,5,9.4,4.2,12.3,5.8a89.3,89.3,0,0,1,11.2,7.7l1.8,1.4" transform="translate(-39.5 -22.8)" fill="none" stroke="#000" stroke-linecap="round" stroke-linejoin="round" stroke-width="0.71"/><path d="M441.9,103.1c1.1.9,2.4,2,3.8,3" transform="translate(-39.5 -22.8)" fill="none" stroke="#000" stroke-linecap="round" stroke-linejoin="round" stroke-width="0.71"/><path d="M420.8,67c1.7,3,3.1,5.6,4.1,7.5,2.2,4.2,2.7,5.5,3,6.2,1.1,2.9.9,3.4,2,6a36.9,36.9,0,0,0,3.1,6.2,41.2,41.2,0,0,0,5.1,6.6" transform="translate(-39.5 -22.8)" fill="none" stroke="#000" stroke-linecap="round" stroke-linejoin="round" stroke-width="0.71"/><text transform="translate(113 335.4)" font-size="17.01" font-family="SimSun">D1</text><text transform="translate(251.4 372.2)" font-size="17.01" font-family="SimSun">D2</text><text transform="translate(245.6 458.9)" font-size="17.01" font-family="SimSun">5B</text><text transform="translate(398.5 396.6)" font-size="17.01" font-family="SimSun">5A</text><text transform="translate(455.6 396.6)" font-size="17.01" font-family="SimSun">4B</text><text transform="translate(368.6 20.3)" font-size="14.17" font-family="SimSun">1</text><text transform="translate(406.8 72.9)" font-size="14.17" font-family="SimSun">5A</text><text transform="translate(363.5 72.9)" font-size="14.17" font-family="SimSun">5B</text><text transform="translate(459.4 72.9)" font-size="14.17" font-family="SimSun">4B</text><text transform="translate(470.8 48.4)" font-size="14.17" font-family="SimSun">4A</text><line x1="535.8" y1="238.5" x2="535.8" y2="370.4" fill="none" stroke="#000" stroke-linecap="round" stroke-linejoin="round" stroke-width="0.57"/><path d="M571.2,267.1a.5.5,0,0,0,.6-.2l3.5-5.4,3.5,5.4a.5.5,0,0,0,.6.2c.2-.1.2-.4.1-.6l-3.9-6.1-.3-.2-.4.2-3.8,6.1v.2A.5.5,0,0,0,571.2,267.1Z" transform="translate(-39.5 -22.8)"/><line x1="527.5" y1="290.2" x2="543.9" y2="290.2" fill="none" stroke="#000" stroke-linecap="round" stroke-linejoin="round" stroke-width="0.57"/><text transform="translate(525.9 224.3)" font-size="19.84" font-family="SimSun">北</text></g></svg>