<svg xmlns="http://www.w3.org/2000/svg" xmlns:xlink="http://www.w3.org/1999/xlink" viewBox="0 0 3761.8 679.5"><defs><pattern id="_10_lpi_10_" data-name="10 lpi 10%" width="72" height="72" patternTransform="translate(-33.2 38.4) rotate(-45)" patternUnits="userSpaceOnUse" viewBox="0 0 72 72"><rect width="72" height="72" fill="none"/><line x1="71.8" y1="68.4" x2="144.3" y2="68.4" fill="none" stroke="#231815" stroke-width="0.28"/><line x1="71.8" y1="54" x2="144.3" y2="54" fill="none" stroke="#231815" stroke-width="0.28"/><line x1="71.8" y1="39.6" x2="144.3" y2="39.6" fill="none" stroke="#231815" stroke-width="0.28"/><line x1="71.8" y1="25.2" x2="144.3" y2="25.2" fill="none" stroke="#231815" stroke-width="0.28"/><line x1="71.8" y1="10.8" x2="144.3" y2="10.8" fill="none" stroke="#231815" stroke-width="0.28"/><line x1="71.8" y1="61.2" x2="144.3" y2="61.2" fill="none" stroke="#231815" stroke-width="0.28"/><line x1="71.8" y1="46.8" x2="144.3" y2="46.8" fill="none" stroke="#231815" stroke-width="0.28"/><line x1="71.8" y1="32.4" x2="144.3" y2="32.4" fill="none" stroke="#231815" stroke-width="0.28"/><line x1="71.8" y1="18" x2="144.3" y2="18" fill="none" stroke="#231815" stroke-width="0.28"/><line x1="71.8" y1="3.6" x2="144.3" y2="3.6" fill="none" stroke="#231815" stroke-width="0.28"/><line x1="71.8" y1="72" x2="144.3" y2="72" fill="none" stroke="#231815" stroke-width="0.28"/><line x1="71.8" y1="57.6" x2="144.3" y2="57.6" fill="none" stroke="#231815" stroke-width="0.28"/><line x1="71.8" y1="43.2" x2="144.3" y2="43.2" fill="none" stroke="#231815" stroke-width="0.28"/><line x1="71.8" y1="28.8" x2="144.3" y2="28.8" fill="none" stroke="#231815" stroke-width="0.28"/><line x1="71.8" y1="14.4" x2="144.3" y2="14.4" fill="none" stroke="#231815" stroke-width="0.28"/><line x1="71.8" y1="64.8" x2="144.3" y2="64.8" fill="none" stroke="#231815" stroke-width="0.28"/><line x1="71.8" y1="50.4" x2="144.3" y2="50.4" fill="none" stroke="#231815" stroke-width="0.28"/><line x1="71.8" y1="36" x2="144.3" y2="36" fill="none" stroke="#231815" stroke-width="0.28"/><line x1="71.8" y1="21.6" x2="144.3" y2="21.6" fill="none" stroke="#231815" stroke-width="0.28"/><line x1="71.8" y1="7.2" x2="144.3" y2="7.2" fill="none" stroke="#231815" stroke-width="0.28"/><line x1="-0.3" y1="68.4" x2="72.3" y2="68.4" fill="none" stroke="#231815" stroke-width="0.28"/><line x1="-0.3" y1="54" x2="72.3" y2="54" fill="none" stroke="#231815" stroke-width="0.28"/><line x1="-0.3" y1="39.6" x2="72.3" y2="39.6" fill="none" stroke="#231815" stroke-width="0.28"/><line x1="-0.3" y1="25.2" x2="72.3" y2="25.2" fill="none" stroke="#231815" stroke-width="0.28"/><line x1="-0.3" y1="10.8" x2="72.3" y2="10.8" fill="none" stroke="#231815" stroke-width="0.28"/><line x1="-0.3" y1="61.2" x2="72.3" y2="61.2" fill="none" stroke="#231815" stroke-width="0.28"/><line x1="-0.3" y1="46.8" x2="72.3" y2="46.8" fill="none" stroke="#231815" stroke-width="0.28"/><line x1="-0.3" y1="32.4" x2="72.3" y2="32.4" fill="none" stroke="#231815" stroke-width="0.28"/><line x1="-0.3" y1="18" x2="72.3" y2="18" fill="none" stroke="#231815" stroke-width="0.28"/><line x1="-0.3" y1="3.6" x2="72.3" y2="3.6" fill="none" stroke="#231815" stroke-width="0.28"/><line x1="-0.3" y1="72" x2="72.3" y2="72" fill="none" stroke="#231815" stroke-width="0.28"/><line x1="-0.3" y1="57.6" x2="72.3" y2="57.6" fill="none" stroke="#231815" stroke-width="0.28"/><line x1="-0.3" y1="43.2" x2="72.3" y2="43.2" fill="none" stroke="#231815" stroke-width="0.28"/><line x1="-0.3" y1="28.8" x2="72.3" y2="28.8" fill="none" stroke="#231815" stroke-width="0.28"/><line x1="-0.3" y1="14.4" x2="72.3" y2="14.4" fill="none" stroke="#231815" stroke-width="0.28"/><line x1="-0.3" y1="64.8" x2="72.3" y2="64.8" fill="none" stroke="#231815" stroke-width="0.28"/><line x1="-0.3" y1="50.4" x2="72.3" y2="50.4" fill="none" stroke="#231815" stroke-width="0.28"/><line x1="-0.3" y1="36" x2="72.3" y2="36" fill="none" stroke="#231815" stroke-width="0.28"/><line x1="-0.3" y1="21.6" x2="72.3" y2="21.6" fill="none" stroke="#231815" stroke-width="0.28"/><line x1="-0.3" y1="7.2" x2="72.3" y2="7.2" fill="none" stroke="#231815" stroke-width="0.28"/><line x1="-72.3" y1="68.4" x2="0.3" y2="68.4" fill="none" stroke="#231815" stroke-width="0.28"/><line x1="-72.3" y1="54" x2="0.3" y2="54" fill="none" stroke="#231815" stroke-width="0.28"/><line x1="-72.3" y1="39.6" x2="0.3" y2="39.6" fill="none" stroke="#231815" stroke-width="0.28"/><line x1="-72.3" y1="25.2" x2="0.3" y2="25.2" fill="none" stroke="#231815" stroke-width="0.28"/><line x1="-72.3" y1="10.8" x2="0.3" y2="10.8" fill="none" stroke="#231815" stroke-width="0.28"/><line x1="-72.3" y1="61.2" x2="0.3" y2="61.2" fill="none" stroke="#231815" stroke-width="0.28"/><line x1="-72.3" y1="46.8" x2="0.3" y2="46.8" fill="none" stroke="#231815" stroke-width="0.28"/><line x1="-72.3" y1="32.4" x2="0.3" y2="32.4" fill="none" stroke="#231815" stroke-width="0.28"/><line x1="-72.3" y1="18" x2="0.3" y2="18" fill="none" stroke="#231815" stroke-width="0.28"/><line x1="-72.3" y1="3.6" x2="0.3" y2="3.6" fill="none" stroke="#231815" stroke-width="0.28"/><line x1="-72.3" y1="72" x2="0.3" y2="72" fill="none" stroke="#231815" stroke-width="0.28"/><line x1="-72.3" y1="57.6" x2="0.3" y2="57.6" fill="none" stroke="#231815" stroke-width="0.28"/><line x1="-72.3" y1="43.2" x2="0.3" y2="43.2" fill="none" stroke="#231815" stroke-width="0.28"/><line x1="-72.3" y1="28.8" x2="0.3" y2="28.8" fill="none" stroke="#231815" stroke-width="0.28"/><line x1="-72.3" y1="14.4" x2="0.3" y2="14.4" fill="none" stroke="#231815" stroke-width="0.28"/><line x1="-72.3" y1="64.8" x2="0.3" y2="64.8" fill="none" stroke="#231815" stroke-width="0.28"/><line x1="-72.3" y1="50.4" x2="0.3" y2="50.4" fill="none" stroke="#231815" stroke-width="0.28"/><line x1="-72.3" y1="36" x2="0.3" y2="36" fill="none" stroke="#231815" stroke-width="0.28"/><line x1="-72.3" y1="21.6" x2="0.3" y2="21.6" fill="none" stroke="#231815" stroke-width="0.28"/><line x1="-72.3" y1="7.2" x2="0.3" y2="7.2" fill="none" stroke="#231815" stroke-width="0.28"/><line x1="71.8" x2="144.3" fill="none" stroke="#231815" stroke-width="0.28"/><line x1="-0.3" x2="72.3" fill="none" stroke="#231815" stroke-width="0.28"/><line x1="-72.3" x2="0.3" fill="none" stroke="#231815" stroke-width="0.28"/></pattern></defs><g id="scale-1:20"><path d="M3356.4,650.8v9.9H3214.6v-9.9" transform="translate(-14.1 -43.4)" fill="none" stroke="#000" stroke-miterlimit="10" stroke-width="0.85"/><line x1="3228.9" y1="607.3" x2="3228.9" y2="617.3" fill="none" stroke="#000" stroke-miterlimit="10" stroke-width="0.85"/><line x1="3257.2" y1="607.3" x2="3257.2" y2="617.3" fill="none" stroke="#000" stroke-miterlimit="10" stroke-width="0.85"/><line x1="3285.5" y1="607.3" x2="3285.5" y2="617.3" fill="none" stroke="#000" stroke-miterlimit="10" stroke-width="0.85"/><line x1="3313.9" y1="607.3" x2="3313.9" y2="617.3" fill="none" stroke="#000" stroke-miterlimit="10" stroke-width="0.85"/><text transform="translate(3194.6 602.9)" font-size="22.68" font-family="SimSun">0</text><text transform="translate(3325.1 602.9)" font-size="22.68" font-family="SimSun">100cm</text></g><g id="outline"><path d="M51.4,169a221.5,221.5,0,0,1,22.5-5,161.6,161.6,0,0,1,19.5-2.3c9-.6,14,0,31.5,1.1,14.1.9,21.2,1.4,23.9,1.4,10.7.2,26.2.3,44.4-4,8.3-2,17.4-4.9,24.5-7.2s13-4.4,21.5-6.2a132.4,132.4,0,0,1,13.9-2.2c11.3-1.5,20.7-3.3,39.3-6.7,16.4-3.1,24.6-4.6,33.7-7s9-2.7,13.8-3.5c9.4-1.4,10.7,0,28.7-.5,7.1-.2,9.5-.5,18.2-.6,6.6-.1,6.8.1,9.5-.2,6.5-.5,10.5-1.8,18.6-4.1l16.4-4.3,35-9.4,9.3-2.4c20.2-5.1,21.4-5.6,25-6.1,8.5-1.1,15.2-.3,22,.4,10.2,1.2,11.9,2.7,21.4,3.2a123.6,123.6,0,0,0,16.9-.5c7.6-.5,13.4-1.3,20.2-2.3,23.5-3.4,23.4-4.1,33-5.1S631,94.3,643,94.1c9.7-.1,11.9.1,33.6.6s34.6.8,43.6.2c14.4-.8,13.2-1.8,28.4-2.5,10.4-.5,14.8-.3,35.6-.3,15.6-.1,23.4-.1,28.6-.3,21.9-.8,41.8-3.1,50.9-4.2s11.5-1.6,17.8-2c13.3-.8,19.1.2,29.9,0,13-.2,16.6-1.8,30-3.2s24-.8,47,0c37.1,1.4,35.7,3.1,57.5,3,20.2-.1,30.9-.2,45.9-2.9,12.8-2.3,18.4-4.6,32.8-5.6,7.2-.5,4,.2,27.9-.1,16.9-.2,21.1-.6,28.5,1.5,3.8,1,6.4,2.1,13.8,4s12.8,2.9,14.7,3.3c5.2,1,11.8,2.6,45.1,12.9,28.6,8.9,27.7,8.9,37.3,11.5,1.7.4,15.1,4,32.9,7.4,12.1,2.2,19.1,3.1,26.9,3.2,4.3.1,6.2,0,13.4-.3,12.2-.4,18.2-.3,30.2-.4,18-.1,37.5-.3,60.8-1.4,14.1-.6,23.5-1.3,38.1-.4,9.1.6,9,1.1,16.8,1.5,12.4.4,18-.6,37.6-1.7,8.8-.5,5.2-.2,21.9-.9,3.8-.2,18.4-.9,36.3-.8,9.6.1,14.7.4,19.9,3.6a28.9,28.9,0,0,1,9.8,10.7c23.2,40.7,29,52.7,29,52.7,5.9,12.4,9.3,19.5,14.6,29.6,6.6,12.8,11.7,21.3,21.8,38.3a127.1,127.1,0,0,0,10.4,15.7c4,4.9,8.2,9,16.8,16.1,11,9.1,20.9,17.3,36.1,26.1a246.5,246.5,0,0,0,27.4,13.4c16.3,6.9,28.7,10.6,45.3,15.5,13.2,3.9,10.5,2.6,40.9,10.6a110.8,110.8,0,0,0,12.7,2.9c9.1,1.5,11.2.8,18.2,1.9,9.1,1.4,9.1,2.9,22.5,6.2a189.1,189.1,0,0,0,19.4,3.7c10,1.4,10.3.8,25.1,2.4,10.3,1.1,11.8,1.6,23.7,2.9,7.1.7,10.7,1.1,15.3,1.2,10.9.5,14.3-.5,20.2-.3,9.9.3,14.4,3.5,26.8,8.3,15.3,6,27.5,8.6,41,11.4a279.9,279.9,0,0,0,38.7,5.4c13.1.9,13.1-.1,35.4.8,15.1.6,11.7.9,32,1.8,13.4.6,20.2.8,30.9,2.5,6.8,1,11,2.1,14.9,3,22.9,5,28.1,1.7,58.3,5.7,11.5,1.5,22.4,3.5,38.8,6.5l16.3,3.1c17.1,3.6,18.4,4.8,26.4,5.5s10.3-.6,17.8.9,10.2,3.2,15.4,5.3c6.7,2.7,23,10.5,40.5,8.3,6.8-.9,10.6-2.7,21-3.9a124.7,124.7,0,0,1,29.1.3c6,.6,49.1,4.9,88.7,3.1,19.5-.9,19.1-2.4,32.1-2,20.8.6,27,4.6,50,5.1,10,.1,17.8-.4,28.1-1.2,14.2-1.1,19.8-2.2,36.7-3.5,10.4-.9,18.3-1.3,24-1.5,0,0,30.8-1.5,76.9.2,6.3.2,9.9.5,13.6.9,7,.8,7.3,1.3,11.2,1.4,5.5.2,7.2-.9,16-2.2.5,0,7.5-1.1,14.7-1.4a111.7,111.7,0,0,1,18.5.8c16.7,1.9,40.8,1.8,62.2,1.7,15.2,0,35.1-.1,54.7-1.9,7.1-.7,14.2-1,21.2-1.6,11.7-.9,16-1.4,22.7-.7s6.4,1.3,12.7,1.7,10.2.2,17.7-.1c16.3-.8,24.5-1.4,33.8-.7s9.3,1.6,19.2,2a198.8,198.8,0,0,0,21.2-.4c10-.5,12.7-.9,25.2-1.7,7.1-.5,11.9-.7,18.7-1,29.9-1.4,36.1-1.9,51.5-2.5,39.9-1.6,76.7-2.2,76.7-2.2,14.3-.2,31.1-.3,46.2-2.2,7.1-.9,11.3-1.3,19.5-2.1s12-1.1,15.7-1.3c7.7-.2,9.2.3,14.4,0,8.2-.3,11.8-1.9,19.9-3.5,10-2,7.9-.3,32.3-2.7,1.7-.1,12.9-1.2,25-1.8a94.5,94.5,0,0,1,12.2.3c7.2.6,9.3,1.4,10.4,1.9,3.3,1.5,4.5,3.3,8.4,7.2s4.1,3.5,11.8,10.8c6.1,5.7,10,10,13,13.2,4.9,5.1,11.6,11.4,24.9,24.1,21.6,20.5,20,18.2,27.6,26,13.2,13.5,12.7,15,21.1,21.9a164.2,164.2,0,0,0,24.9,16.3c2,1.1,3.1,1.6,15,7.3l25,11.9A238.3,238.3,0,0,0,3773,567" transform="translate(-14.1 -43.4)" fill="none" stroke="#000" stroke-linecap="round" stroke-linejoin="round" stroke-width="1.98"/><path d="M51.4,189.9c8.4-.3,15.3-.3,20.5-.2,7.9.2,11.4.5,13,.6l8.4.9c5,.4,8.7.4,11.9.4a230.6,230.6,0,0,0,30.2-2.4,147.1,147.1,0,0,0,22.9-5,81.1,81.1,0,0,1,9.5-2.6,85.8,85.8,0,0,1,11.6-1.5c3.6-.3,6.8-.5,16.1-.6l23-.3,7.3-.2c5.8-.1,17.9-.4,32.5-1.9,7.3-.7,8-1,18.4-2l11.1-1.1a161,161,0,0,0,19.3-3.9c12.5-3.1,18.8-4.6,26.6-7.5a67.6,67.6,0,0,1,11.4-3.6l9.1-1.5,7-1.2h.2a95.1,95.1,0,0,0,11.8-3.2,192.9,192.9,0,0,1,26.4-6.7,49.2,49.2,0,0,0,8.6-1.8,38.6,38.6,0,0,1,5.4-1.7,50.4,50.4,0,0,1,5.4-.9l9.2-.8,6.4-.4c7.6-.4,14.7-1.3,17.7-1.7,9.3-1,17.9-1,29.7-1,15.3,0,13.6.8,33.2,1,16.1.2,18.3-.3,27.5.4l18.2,1.2c2.8.2,5,.3,8.1.3a111.9,111.9,0,0,0,12.6-.8c4.8-.5,10.8-.9,22.9-1.7,8.6-.6,9.2-.5,17.4-1l14.1-1.2c12-1.1,16.2-1.8,35.6-4.2l25.4-3c11.1-1.5,9.7-1.5,24.5-3.5,18.8-2.6,28.3-3.9,33.7-4.4,2.1-.2,5.8-.6,10.9-1.5s8.8-1.9,12.7-2.6c5.4-1.1,9.8-1.2,18.6-1.3s16,.1,26.3.6,11.3.7,16.4.4a66.9,66.9,0,0,0,15.7-2.5c3.1-.9,3.4-1.3,7.4-2.4,6.3-1.7,6.7-1.2,11.7-2.7s4.7-1.9,9.5-3.2l5.3-1.3c4-.8,6.4-.9,12.3-1.2l14.7-1.1,8.7-1c11-1.2,11.1-1.6,16.1-2s4.1,0,19.3-.7a95.3,95.3,0,0,0,12.8-.9c3.6-.6,4.3-.9,9.2-1.6a103.1,103.1,0,0,1,11.1-1.3c4.2-.2,7.3,0,12,.2s7.1.6,12.2,1c1.6.2,5.8.5,15.2.7s14.6.2,30.9.2c18,.1,23.8.3,31,.8l9.4.9c9.5.7,13.3.4,26.4.6,4.3.1,17.5.3,29.4.9l11.5.7,10,.6c8,.5,8.5.3,14.9.8s5.7.5,8.7.5h14.3l4.3.3a32.6,32.6,0,0,1,7.1,1.8,67.4,67.4,0,0,1,7.2,2.5c7.5,3,21.7,7.2,31.3,9.7,6.3,1.6,16.5,4,23.5,5.3,1.2.2,4.1.7,8,1.6s3.9,1.1,7.9,2,6.1,1.2,9.6,2.3l4.1,1.4,7,2.4c4,1.2,4,.7,8.9,2s7.1,2.6,10.2,2.3a24.8,24.8,0,0,0,5.3-1.2,29.5,29.5,0,0,0,3.9-1.6c3.3-1.5,6.1-1.9,10-2.5a47.9,47.9,0,0,1,10.1-.5c2.7.3,3,.6,13.9,3.1l7,1.6c1.2.2,4.3.7,10,1.1s8.7.4,11.4.4c6.5.1,11.6-.1,17.4-.2,16.4-.5,19.4-.8,29.6-1l10-.3c6.1-.2,6.9-.3,8-.4,4.7-.5,5.1-1.1,9.5-1.3a37.4,37.4,0,0,1,6.8,0c2.8.2,3.1.5,5.8.6a57,57,0,0,0,7-.1h8c11.9-.3,18.5-.8,30.4-.9,6-.1,9-.2,13.1-.1,7.3.2,9,.6,14.4.4,1.8,0,1.9-.1,11.7-.8l12.6-1c5-.3,7-.1,17.1,0h15.2" transform="translate(-14.1 -43.4)" fill="none" stroke="#000" stroke-linecap="round" stroke-linejoin="round" stroke-width="1.42"/><path d="M51.4,216.2c2.7,0,6.9.1,12.1.6l7.3.9,16.4,1.8c9.1.6,16,1.3,20.6,1.7a89.5,89.5,0,0,0,13.4.6,59.9,59.9,0,0,0,8.8-.8,50.3,50.3,0,0,1,5.8-.9,49.7,49.7,0,0,1,5.8-.1l5.8-.2c5-.2,11.9-.2,19.9-.3,13.5-.2,20.3-.2,25.1-.6s6.4-.8,13-1.3,11.1-.8,15.1-.8a61.5,61.5,0,0,0,11.4-.7l4.4-.8c2.9-.6,6.4-1.4,10.6-2.6s5.3-1.7,9.6-2.9,7.8-2.2,13.1-3.5c11-2.7,11.1-2.3,17.7-4.2s5.3-1.8,12.4-3.8,7.9-1.8,14.3-3.8,6.3-2.2,9.6-2.6,3.7-.1,7.9-.6c1.5-.2,3.4-.4,5.9-.9s4.9-1.3,7.1-1.9a80.2,80.2,0,0,1,10.5-2.4,140.5,140.5,0,0,1,18.7-1.9c20.6-.9,29.2-1,41.8-1.6l17.9-1.1a33.7,33.7,0,0,1,6.9-.5c3,0,4.3.4,7.1.6a52.7,52.7,0,0,0,8.8-.2c9-.8,13.5-1.2,18.2-1.8,0,0,8.5-1,19.1-1.9s12.5-.5,50.6-.1h18.4c18.7-.3,23-1,26.1-1.6a78.3,78.3,0,0,0,18.9-6.4,110.9,110.9,0,0,0,11.8-6.8c4.9-3.3,4.7-3.7,7-4.8,4-1.8,7.9-1.7,15.7-1.5a58.9,58.9,0,0,1,12.7,1.2c4.4.9,5.3,1.7,10.7,2.6,2.4.5,2.9.4,8.5,1.2l8.7,1.3c10.9,1.6,21.3.3,28.1-.6,4.4-.6,8.4-1.3,9.2-1.5l7.1-1.5c6.9-1.7,10.3-2.5,14.1-4.2,2.2-.9,5.1-2.6,11.1-6.1a67.7,67.7,0,0,1,7.3-4,37.6,37.6,0,0,1,9.6-3.7c5.2-1,9.4-.1,14.8,1.1s6.6,2.1,13.2,4.3c4.7,1.6,3.6,1,16.4,4.6.2.1,16.3,4.7,23.3,4.5a31.5,31.5,0,0,0,4.2-.5,31.9,31.9,0,0,0,4.9-1.8,71.5,71.5,0,0,1,15.3-5.2c2.5-.5,4.2-.8,6.9-1.1,6.9-.8,8.9-.3,14-1.4a54.4,54.4,0,0,0,7.4-2c3.7-1.3,6.5-2.8,12-5.4a39,39,0,0,0,5.3-2.9c2.6-1.8,3.8-2.6,4.7-4.1a24.6,24.6,0,0,1,2.4-3.5l1.4-1.3a34.8,34.8,0,0,1,3.2-2.9c3-2.8,4.5-4.1,7.4-6.5s7.3-7.1,15.6-17.8" transform="translate(-14.1 -43.4)" fill="none" stroke="#000" stroke-linecap="round" stroke-linejoin="round" stroke-width="1.42"/><path d="M3654.3,502.6l-6.8-.7c-4.2-.3-5.5-.2-6.9.1l-3,.8-3.9,1.1c-1,.3-2,.4-5.4.5h-6.9l-8.6-.2a183.2,183.2,0,0,1-20.6-2.4c-9.3-1.3-13.9-2-18.8-3.3s-5.1-1.2-8.4-1.9c-5.2-1-6.8-1.1-8-1.1a26.9,26.9,0,0,0-8.2,1.3c-5.5,1.7-9.1,4.1-13.9,7.4a70.9,70.9,0,0,0-9.3,7.6,50.5,50.5,0,0,0-7.1,8.9" transform="translate(-14.1 -43.4)" fill="none" stroke="#000" stroke-linecap="round" stroke-linejoin="round" stroke-width="1.42"/><path d="M3372.3,485.4l-9.6-.3h-7.9l-7.5-.4a57.4,57.4,0,0,0-13.7,1.5,36.7,36.7,0,0,0-11.2,4.4,37.1,37.1,0,0,0-7.1,5.9,176.7,176.7,0,0,0-13.6,15.7" transform="translate(-14.1 -43.4)" fill="none" stroke="#000" stroke-linecap="round" stroke-linejoin="round" stroke-width="1.42"/><path d="M2966.4,514.1a117.9,117.9,0,0,1,17.3-2.2c1-.1,5.5-.4,12-.3,10.9.2,13.6,1.2,30.2,2.4,8.1.6,8.9.5,12.4,1.1a74.9,74.9,0,0,1,17.1,5.2" transform="translate(-14.1 -43.4)" fill="none" stroke="#000" stroke-linecap="round" stroke-linejoin="round" stroke-width="1.42"/><path d="M2909,487.9a17.9,17.9,0,0,1,3.1-3.3,23.2,23.2,0,0,1,4.7-2.9,34,34,0,0,1,5.1-1.3c1.3-.2,3.3-.6,6-.8,9.4-.9,22.1.4,26.3.9l6.2.8c5.9.9,7.4,1.7,12,2.6,2.5.5,1.6.2,16.6,1.8,4.8.6,6.2.7,8.8.9h10.3c2.2-.1,6.8-.2,16.7-.9l12.3-.8c1.9-.2,7.9-.8,16.3-2s7.7-1.2,14.5-2.3,7.4-.8,22.1-2.6,15.3-2,20.1-2,4.9.4,13.6.7h18.1c14.8,0,16.4.1,18.6.5l10.8,1.7,4.7.6,5.3.4c3.2.1,5.6,0,8.5-.1,11.5-.3,11.2-.1,13.5-.4a84.6,84.6,0,0,0,9.6-1.5c13.3-2.8,22.8-5.6,35.1-8.5l8.6-1.8c2.4-.5,5.7-1.1,8.2-1.4s4.6-.5,15.3,1,12.3,2.2,17.5,1.8c2.7-.2,2-.5,8.8-1.8s9.8-1.4,25.5-3.5a45.1,45.1,0,0,1,6-.6,74.9,74.9,0,0,1,8.2-.2l10.2.8,9.4.8,5.7.4c7.6.6,15.6,1.6,19,1.9,9,.9,9,0,35.2.3l14.9.2c13.7.2,20.5.4,26.5.7,3.6.2,7.1.4,12.5.5h10.1l17.4-.5,26.8-.9a55.9,55.9,0,0,0,7.7-.2,52.1,52.1,0,0,0,6.4-.8c4.5-.6,8.7-.7,17.1-.8,6.6-.1,5.7.1,10.7,0s8.6-.3,14.9-.9,12.6-1.9,13.8-2.1l6.3-1.6" transform="translate(-14.1 -43.4)" fill="none" stroke="#000" stroke-linecap="round" stroke-linejoin="round" stroke-width="1.42"/><path d="M3582.6,432.8c-2.4,1-5.2,2.1-8.5,3.2a101.5,101.5,0,0,1-11.9,3.3c-5.1,1.1-6.7,1-21.1,2.5l-14.7,1.6c-8.2,1.1-9.7,1.5-15.4,2.2-7.8,1-13.6,1.3-20.1,1.6-2.8.1-7.5.3-24.9.3-30.8.1-24.9-.5-37-.2a133.4,133.4,0,0,1-18.1-.5c-5.3-.5-7.3-1-12.5-1.7s-11.9-1.1-25.9-1.8l-25.6-1.2c-3.3-.1-7.8-.3-13.8-.1l-9.4.6-5.4.5-6.5.5c-6.1.5-6.5.5-8.3.8a44.3,44.3,0,0,0-5.5,1.1c-4.7,1.1-4.7,1.4-7.2,1.8s-3.1.2-6.9.2h-23.1c-7.9.2-6.9.6-18.9,1.1-7.7.3-7.1.1-15.7.5l-20.7,1.1c-11.3.5-10.8.3-14,.6-6,.7-7,1.4-17.4,3-3.1.4-6.7,1-11.5,1.5-2.5.2-7.4.8-12.6.9s-8-.1-17.2-.7c-14.6-1-13-.6-24.3-1.5s-10.6-1-18.6-1.5c-12.5-.7-21.8-.8-21.8-.8l-9.8-.3a72.9,72.9,0,0,1-10.6-.8l-3.3-.5-6.4-.9c-1.7-.2-3.2-.1-9.3.7s-7.4,1-10.4,1.6-3.7.8-16.9,4.1a100.7,100.7,0,0,1-10.5,2.2,61.3,61.3,0,0,1-9,.5c-14.1.3-13.6,1.1-23.5.9-6.8-.1-5.6-.4-14.8-.6a59.9,59.9,0,0,1-9.5-.7c-3.2-.5-3.6-1-8.8-2.3a123.8,123.8,0,0,0-14.5-3c-1.6-.3-4.1-.6-8.8-1s-12.8-1.1-23.4-1.1a225.8,225.8,0,0,0-24.5,1.4l-14.9,1.9-14.4,1.9-8.9,1.1c-2.1.2-3.7.3-13.2.4s-9.7.1-12.4.3-3.7.2-9.8.6l-9,.4c-2.9,0-5.2-.1-11.1-.6-9.6-.8-12.3-1.2-19.1-1.7-2.5-.2-6.6-.6-11.7-.8s-11.8-.6-21.1-.4c-6.1.1-11.7.6-23,1.6s-10.6,1.1-18.5,1.6l-17.8,1.2c-12,.8-10.8,1-16.4,1.2-9.2.4-10.2-.2-22,.1l-14.2.6c-13.3.5-17.1.6-21.8.3l-10.5-1-18.9-1.9c-9.4-1.2-13.8-2.1-20.2-2.3h-14.7c-3.8-.2-4.3-.7-8.6-1.4s-3.8-.2-15.4-.7l-8.8-.4-9.2-.8-13.4-.6-3.5-.4c-1.8-.2-2.5-.5-4.2-.8l-3.9-.4a59.1,59.1,0,0,0-7.1-.1c-5.3.3-10.6.2-15.9.4-10,.2-9.4-.1-14.2.1a133.8,133.8,0,0,0-18.1,2.1" transform="translate(-14.1 -43.4)" fill="none" stroke="#000" stroke-linecap="round" stroke-linejoin="round" stroke-width="1.42"/><path d="M2660.5,493.2a52.4,52.4,0,0,1,10.8-4.3l5.4-1.5c3.7-1.1,4.3-1.6,6.1-1.6l5.1.7,3.6.6a27.6,27.6,0,0,0,7,.1c7.9-.5,5.6-.2,11.9-.6l9.5-.9c3.3-.5,3.8-.7,6.7-1a40.8,40.8,0,0,1,8.5-.3,28.1,28.1,0,0,1,6.2,1.2,40.7,40.7,0,0,1,11.2,4.9" transform="translate(-14.1 -43.4)" fill="none" stroke="#000" stroke-linecap="round" stroke-linejoin="round" stroke-width="1.42"/><path d="M249,227.6l17.6-3.1c11.3-2,12.1-2.2,14.9-2.8,7.4-1.5,8.9-2.2,13.9-2.9a96.4,96.4,0,0,1,12.5-.9c13.9-.5,18.2.3,34.2.1l10.5-.3,17.4-.3,17.7-1.5,15.5-1.3c11.2-.7,15.8-.8,21.9-2.1l6.1-1.3c1.1-.3,5.1-1.1,8.9-1.7s9-1.3,12.2-1.7l30.6-3.3c5.5-.8,7.8-1.2,13.8-1.9,4.1-.5,7.5-.8,13.2-1.2,11.8-1,17.7-1.5,22.7-1.7a195.4,195.4,0,0,1,25.4-.2,168.4,168.4,0,0,1,20.7,2.6,180.2,180.2,0,0,1,18.5,4.5c10.1,3.1,18.7,5.7,28.5,11.2,3.5,2,6.5,4,11.7,5.5a56.8,56.8,0,0,0,13,2.1c4,.2,7.1-.1,13.2-.6s7.9-.9,13.8-1.4c2.4-.2,7.4-.6,13.1-.6,10.3-.1,20.4-.1,30.9,3.9a67.8,67.8,0,0,0,7.7,2.9,84.3,84.3,0,0,0,14.1,2.9c6.1.8,8.4.9,17.3,1.9l12.5,1.5c10.5,1.3,12.3,1.2,26.1,2.6l28.3,2.8a108.6,108.6,0,0,0,14.9,1c6.2,0,10.1-.4,13.9-1.4a37.5,37.5,0,0,0,7.5-2.6,33.5,33.5,0,0,0,10.2-8.6c10.9-13,17.7-21.5,24.7-27.4a41.5,41.5,0,0,1,9.3-6,56.6,56.6,0,0,1,7.3-2.4c4.9-1.3,6.6-1.3,12.5-2.3,9.8-1.8,9.9-2.8,16.6-3.4l8.6-.6,8.3-.7c9.4-.7,2.9-.2,9.4-.6,3.5-.3,4.8-.4,6.8,0a18.8,18.8,0,0,1,5,1.8c2.6,1.3,3.5,2.5,6.8,5.3,5.1,4.5,4.9,3.4,6.3,5.2,3,3.9,3.6,8.7,3.9,10.7s0,4.4,1.2,6.6a36.3,36.3,0,0,0,2.9,4.2c1.4,2,2.1,3,2.8,3.8a31.3,31.3,0,0,0,3.8,4h0a21.3,21.3,0,0,0,6.5,4.2c4.2,1.6,13.8,2.3,18,2.6,8.1.7,8.1,1.1,19.3,2.1,6.4.5,8.7.5,10.3.6l11.9-.5,9.1-.4c6.9-.3,7.2-.2,9.5-.4a85.2,85.2,0,0,0,11.4-1.5,77.2,77.2,0,0,0,14.2-4.9c4.4-1.9,4.4-2.3,10.4-4.8l8.3-3.5,7.3-3.1c3.6-1.1,7.7-.9,16-.5,5.8.3,7.8.7,8.9,1,3,.7,3.5,1.2,6.4,1.8a42.5,42.5,0,0,0,8.9.6,50.4,50.4,0,0,0,10.7-.9c3.9-.8,3.2-1.3,10-3.6a110.2,110.2,0,0,1,16.5-3.6,8.9,8.9,0,0,1,3.3-.1c3,.3,4.3,1.8,7.3,3.2a47.1,47.1,0,0,0,6,1.8c14.3,3.7,30.7,4.4,30.7,4.4,5.8.2,9.7.1,17.2-.2s9.7-.6,13.2-1.4a42.1,42.1,0,0,0,9.5-3.1c2.8-1.3,4.7-2.7,8.6-5.5s4.4-3.3,9.4-7.1l8-6c6.6-4.5,6.8-3.7,15.4-9.2,4.1-2.6,6.9-4.6,11.8-6.8a35.6,35.6,0,0,1,5.3-2c3.7-1.1,5.9-1.1,9.5-1.6l11.3-2.3c9.8-2.1,10.6-2.4,11.9-3.3,3.3-2.1,5.4-5.1,7.1-7.5a20.4,20.4,0,0,0,2.9-5.5c.3-.8.7-2.1.9-7.7.1-2.2.2-5.5,0-10.7,0-2.5-.1-4.5-.2-5.9" transform="translate(-14.1 -43.4)" fill="none" stroke="#000" stroke-linecap="round" stroke-linejoin="round" stroke-width="1.42"/><path d="M236.3,215.3c4.1,3.5,7.2,6.6,9.3,8.7s3,3.3,7.2,7.5l4.8,5c3.8,4,5.8,5.9,6.7,7.1a50.1,50.1,0,0,1,6.2,10.6,51,51,0,0,1,3,8.8" transform="translate(-14.1 -43.4)" fill="none" stroke="#000" stroke-linecap="round" stroke-linejoin="round" stroke-width="1.42"/><path d="M51.4,281.7l10.6-.3c1.9-.1,8.1-.4,16.3-1.2l7.5-.8c7.4-.8,9.2-1,11.5-2.3a31.9,31.9,0,0,0,4.5-2.8,10,10,0,0,1,3.1-2.4,9.7,9.7,0,0,1,3.3-.7c4.1-.5,4.4-.3,5.5-.6s2.4-1,5.9-2.7a64.1,64.1,0,0,1,7.3-3,40.6,40.6,0,0,1,8.9-1.8,39.3,39.3,0,0,1,11.2.6c2.7.5,3.3.9,6.3,1.3l6.6.6a39.6,39.6,0,0,1,6.6,1.1,38.3,38.3,0,0,1,4.3,1.7c3.3,1.2,6,1.3,10.1,1.5s6.5-.3,7.2-.5l2.8-1.4a22.6,22.6,0,0,0,3-1.8c1.4-.8,3.5-1,7.6-1.2a34.1,34.1,0,0,1,8.5,0c2,.3,1.8.5,4.1,1s5.5.6,10.4.6a33.5,33.5,0,0,0,6.1-.1c2.7-.4,3.3-1,8.2-2.3a46.6,46.6,0,0,1,5-1.2c.7-.1,3.8-.7,7.5-1s5.2.3,16.1.7l8.5.3,5.2.2c4-.1,4.4-.4,6.6-.3s3.8,1.1,7,1.8a31.2,31.2,0,0,0,8.9.5s7.9-.3,22,.5c4.2.3,10.7,1.5,23.7,3.9l20.8,3.9c5.2,1,6.9,1.3,9.6,1.6,5.4.7,7.2.5,14.4,1.4,4.8.5,4.4.7,7,.9,4.5.3,6-.1,10.8.5,2.3.2,4,.6,4.9.7,2.9.6,4.9,1.2,5.3,1.3,4.2,1.2,10.3,1.3,19.9,1.8l21.9,1a49.3,49.3,0,0,0,8.6.1c5.3-.5,5.6-1.5,11.4-2.1,2.8-.3,2.9-.1,10.1-.5l5.4-.4c6.5-.6,8.5-1.8,17.7-3.7a98.4,98.4,0,0,1,12.5-2.1c1-.1,3.8-.3,10.2-.4,8.3-.1,9.6.2,17.8.3,5.8,0,10,0,15.6-.4s7.7-1.1,13.3-1.3,7.4.2,13.8.4,5.9-.3,19.6-.9c10.5-.5,15.8-.8,20.2-.5s7.3.7,15.8,1l9.2.4c6,.3,9,.4,12.2.8.9.1,2.9.4,10.7,2.1,12.1,2.6,18.2,3.9,22.1,5a39.5,39.5,0,0,0,7.4,1.5c2.7.3,3.7.2,7.5.4l7,.8c4.3.6,6.5,1.2,10.9,2.1,7.3,1.6,6.7,1.1,14.3,2.6s9,2.4,12.9,2.7,6.4-.1,12.6-.6,6.4-.8,10.8-1.2a148.4,148.4,0,0,1,16.6-.4c8.2,0,8.3.3,17.2.4,5.1.1,8.6,0,15.4-.1s11.5-.2,18.9-.5c10.6-.5,16-.7,20.9-1.8a109,109,0,0,0,13-4c5.9-2.1,8.9-3.2,12.6-5.4s3.4-2.6,7.1-4.8a72.9,72.9,0,0,1,8.6-4.4c7.2-3.1,14.4-4.5,27.9-7.6,17.6-4.2,14.2-3.9,22.8-5.7a80.5,80.5,0,0,0,10.2-2.6,82.2,82.2,0,0,0,13-6.2c5.3-3.1,12.3-7.4,20.7-13.1" transform="translate(-14.1 -43.4)" fill="none" stroke="#000" stroke-linecap="round" stroke-linejoin="round" stroke-width="1.42"/><path d="M1258.3,221.3c-.2,2.1-.5,5.4-.8,9.3-.6,7.1-.6,6.9-.7,8.1-.5,7.7.8,8.5.7,16.6a97.6,97.6,0,0,1-1.2,13.5c-1,7.9-1.7,9.8-2.3,11.1a24.3,24.3,0,0,1-6.6,8.4,38.5,38.5,0,0,1-22.6,10.1,51.4,51.4,0,0,1-19.5-2.5c-2-.6-5.6-2.1-9.5-1.9-.5,0-2.5.2-5.2.2h-3.2c-1.8-.2-2.5-.7-5.8-1.9a38.6,38.6,0,0,0-4.8-1.6c-2.5-.6-3.8-.9-5-.5s-2.2,2.3-3.7,4.5-1.2,1.4-6.1,6.1l-10.8,11-4.3,4.7c-10,11-11.2,13.5-16.8,18.2-2.4,2.1-1.5,1.1-6.9,5.3-8.8,6.9-9.4,8.3-13.2,10s-7.3,2.2-11.9,2.7-7.2.8-11.5-.3a26.5,26.5,0,0,1-6.5-2.7c-6-2.9-10.3-5-13.5-9.4a21.7,21.7,0,0,1-3-6.7c-4.2-11.9-2.5-24.1-2.2-25.8a55.4,55.4,0,0,0,.5-9.4,20.8,20.8,0,0,0-.8-5.8,14.5,14.5,0,0,0-4.9-7.5c-3.3-2.7-8.5-4.5-12.9-2.9-.8.3-1,.5-5.1,3.6l-7.9,5.9a57.1,57.1,0,0,1-11.9,5.6,44,44,0,0,1-7.1,2.2c-6,1.2-7.5,0-13.4,1.2-3.8.7-3.5,1.3-8,2.3a67,67,0,0,1-11.8,1.3c-8.2.6-10.6.2-17.6,1a49.1,49.1,0,0,0-5.7.8c-4.3.8-5.3,1.4-8.5,2a57.2,57.2,0,0,1-9.7.9c-5.2.2-5.8-.2-10.3-.2s-6.3.7-13.4,1.2c-4.3.3-4.9.2-13.4.3l-15.3.5c-8.8.7-10.4,1.6-22.5,2.7l-8,.6c-14.8,1.1-19,.6-28.7,1.4-3.9.3-2.1.2-19.5,2.4-20.2,2.6-19.3,2.1-25.4,3.2a256.5,256.5,0,0,0-27.7,6.3c-7,2-13,4-17.8,5.8" transform="translate(-14.1 -43.4)" fill="none" stroke="#000" stroke-linecap="round" stroke-linejoin="round" stroke-width="1.42"/><path d="M1413.1,148.9h6.8l11.5-.3c8.5-.3,7.6-.4,10.7-.4,5.4,0,7.5.4,13.1.8s8,.2,15.8.2,17.3,0,29.1-.8c6.8-.5,8.8-.8,16.4-1.2l13-.5c7.5-.4,10.3-.8,15.2-1.1a201.4,201.4,0,0,1,24.4-.2c12.2.4,10.5,1.5,25.4,2.5,6.4.4,6.3.2,32.5.6a80.6,80.6,0,0,0,12.2-.4l6.7-.9" transform="translate(-14.1 -43.4)" fill="none" stroke="#000" stroke-linecap="round" stroke-linejoin="round" stroke-width="1.42"/><path d="M1653.5,160.7l-14-.2H1623c-13,0-9.7-.3-13.9-.2a41.8,41.8,0,0,1-7.7-.2c-3-.3-3.1-.6-6.4-1.1a68.7,68.7,0,0,0-9.6-.6l-7-.2c-11.7-.2-30.8.3-47.6.3-13.6.1-18.1-.3-26.3.6s-15.4,2.1-15.4,2.1c-4.5.7-8.9,1.6-8.9,1.6-6.1,1.2-7.5,1.6-10.6,2a78.4,78.4,0,0,1-9.1.4c-5.1-.1-5.9-.7-14-1.6-3.1-.3-7.1-.7-12.1-.9l-11.1.3-12.3.4" transform="translate(-14.1 -43.4)" fill="none" stroke="#000" stroke-linecap="round" stroke-linejoin="round" stroke-width="1.42"/><path d="M1404.1,172.4c18.4.8,32.3,1.8,38.6,2.5,4.6.4,6.9.7,9.3,1.1a73.2,73.2,0,0,0,8.4,1.3l7.4-.2,6.7-.2c5.5-.3,9.6-.8,11.3-1,5.4-.7,7.2-.5,24.8-1.2l18.8-.7c14.8-.9,15.9-1.6,24.7-1.6s15,.6,17,.8c7.1.5,7.1.8,12,1.1s8.6-.1,18.5-.3c5.6-.2,8.3-.1,13.3-.1,7.9,0,21.4-.2,45.3-.9" transform="translate(-14.1 -43.4)" fill="none" stroke="#000" stroke-linecap="round" stroke-linejoin="round" stroke-width="1.42"/><path d="M1307.9,218.9a48.3,48.3,0,0,0,8.5,2.4c3.1.6,3.5.4,9,1.1,7,.8,8.6,1.4,14.1,1.6a49.5,49.5,0,0,0,5.2.1l6.6-.6,6.7-.7,10.8-1.3c16.9-2.1,17.8-2.2,20.4-2.2s2.6.2,9.6.4c5.2.2,8.8.2,10.6.2,8.8.2,13.5.8,21.1,1.3s11.2.2,25.6.3,23.2.5,31.6.8c45.9,1.4,92.1-2.8,119.1-2,3.9.1,9.5.4,17.7.2,6.5-.2,9.1-.5,16.7-.6,5.4,0,5.5.2,10.7.1,7.3,0,8-.4,13.7-.3,4,0,7.4.3,10.9.5l7.8.6" transform="translate(-14.1 -43.4)" fill="none" stroke="#000" stroke-linecap="round" stroke-linejoin="round" stroke-width="1.42"/><path d="M1678.5,209.8c-9.2.1-16.1.6-20.9,1.1-2.9.3-9.8,1.1-15.7,1.4l-5.7.3c-3.3.2-4.2.4-6.1.4a41.3,41.3,0,0,1-5.8-.7l-10.7-1.2-6-.2c-4.5,0-104.5-.3-119.5-1.1l-5.7-.3c-7-.3-8,0-11.7-.5s-3.5-.7-6.7-.9a56.1,56.1,0,0,0-7.5-.1c-5.2.2-9.2.5-11.7.7-6.5.5-9.7.7-10.9.9a176.3,176.3,0,0,0-26.9,4.7,168,168,0,0,0-16.9,5" transform="translate(-14.1 -43.4)" fill="none" stroke="#000" stroke-linecap="round" stroke-linejoin="round" stroke-width="1.42"/><path d="M1359.8,222.6a80.7,80.7,0,0,1,9.2-6.9,74.1,74.1,0,0,1,9.2-5.1,100.4,100.4,0,0,1,12.5-5.4,88,88,0,0,1,11.5-2.9c16.5-3.3,24.8-5,31.1-5.9a165.3,165.3,0,0,1,17.3-1.7l17.4.2,13.7.2c7.7-.1,8-.4,13.8-.4s8,.1,21.9.8l15.5.8c30.5,1.5,42.5,1.4,73.5,3.1,13,.7,26,1.1,39.1,2,1.8.2,6.7.5,13.3.5a151,151,0,0,0,15.5-.6" transform="translate(-14.1 -43.4)" fill="none" stroke="#000" stroke-linecap="round" stroke-linejoin="round" stroke-width="1.42"/><path d="M1667.5,187.5c-11.4-.6-20.9-.9-27.4-1.2-28.5-1-46.9-1.7-63.4-1.5-2.1,0-9.6.2-20,.2h-13.1c-16-.1-18.6-.8-33-1.1-7-.1-28.1-.4-38.9,1.6a61.8,61.8,0,0,1-6.9,1c-3.5.3-4.9.2-11.1.5l-6.1.4-11.9,1c-8.8.8-8.3.3-15.1,1-4.9.4-4.7.7-11.7,1.4s-7.5.6-11.4,1.1a121.8,121.8,0,0,0-16,3.6,131,131,0,0,0-14.1,4.3,122.8,122.8,0,0,0-14.8,6.6c-5.3,2.7-8.4,4.2-12.1,6.9a66.9,66.9,0,0,0-10.6,9.7" transform="translate(-14.1 -43.4)" fill="none" stroke="#000" stroke-linecap="round" stroke-linejoin="round" stroke-width="1.42"/><path d="M1253.1,281.7a74.9,74.9,0,0,0,9.8,2.8c3.2.7,5.1.9,8.7,1.4,11.4,1.6,11,2.2,18.4,3.1s7.8,0,13.2,1.1,6.4,2,12.5,3c3.1.5,3.5.4,9.9,1.1,2.1.3,6.6.8,11.4,1.6,7.7,1.2,8.3,1.7,17.9,3.4a106,106,0,0,0,10.7,1.4c5,.3,6.7-.1,10.7-.1a73.9,73.9,0,0,1,22.2,3.7c4.8,1.6,7.1,2.9,12.8,4l7.9,1c12.8,1.5,14.8,1.8,17.3,2.4,4.1.9,3.9,1.2,7.2,1.8a60.6,60.6,0,0,0,12.1.7c7.6-.1,12.5-.4,17.4-.6,14.2-.6,13.9-.1,21.7-.8,4.8-.4,7.1-.8,12.1-.9,9.9-.3,12.8.9,14.3,1.6s2,1.3,7.8,7.3c8.6,8.8,9.9,10,11.1,11.1,5.8,5,8.7,7.5,12.6,7.8s9.7-2.4,10.4-2.8c2.6-1.5,3.1-2.4,5.7-3.4.8-.4,2.2-.8,7.9-1.2s8.5-.6,10.7,0,2.9,1.6,6.5,2.7a33.4,33.4,0,0,0,7.2,1.2c10.9.6,16.3,1,21.4.9a119.4,119.4,0,0,0,12.2-.3c6.1-.8,7.6-1.9,14.6-2.8a100.5,100.5,0,0,1,10.3-.5,138.3,138.3,0,0,1,14.3.5c14.5,1.5,16.5,4.6,30,5.5,3.5.2,6,.2,11,.1,1.5,0,9.4-.1,23-1.1,7.5-.5,10.7-.8,15.1.7,2.4.8,4,1.7,7.5,3.9,7.8,5,11.3,7.6,15.6,10.5,6.9,4.5,12.2,7.3,22.8,12.7a59.4,59.4,0,0,0,8.2,3.5c2,.7,3,.9,11.7,2.8l8.4,1.7c3,.4,4.7.4,10.3.7l11.4.4c10.9.4,22.3.2,26.5.1,20.8-.4,25.7-.9,47-1.3,8.7-.2,13.1-.3,16.2-.2,9.6.4,18.7,1.8,36.8,4.7,5.8.9,14.3,2.4,25,4.6h0c2.1.4,4.8,1,8.6,1.6,8.1,1.5,13.1,2,16.7,2.5a152.6,152.6,0,0,1,22.4,5.4" transform="translate(-14.1 -43.4)" fill="none" stroke="#000" stroke-linecap="round" stroke-linejoin="round" stroke-width="1.42"/><path d="M1243.3,291.6c8.3.3,15,.8,19.5,1.1,14.8,1.3,22.2,1.9,24.9,2.4a35.3,35.3,0,0,0,10.2.9l5.1-.5a45.5,45.5,0,0,0,6.3-.9,54.9,54.9,0,0,0,6.4-1.5" transform="translate(-14.1 -43.4)" fill="none" stroke="#000" stroke-linecap="round" stroke-linejoin="round" stroke-width="1.42"/><path d="M1257.5,230.6l21.8-.2c25.1-.2,37.7-.3,49.3.1,5.3.2,10.1.5,17.8.5s8.6-.1,18.4-.2,8.6.2,15.9.1c13.7-.1,14.5-.6,23.2-.4l15.9.9c9.2.5,12.7.6,17.3.6s5.4-.2,11.5-.3c10.4-.2,12.3.5,25.5.6,3.1,0,7.1.1,12.5-.1s8.4-.5,14-.5,9.4.2,12.1.3c7.4.4,11.4,1,16.4,1.5,8,.8,7.6.3,33.5,1.1,11,.4,11.7.5,16.2.5,10.8,0,10.8-.6,20.5-.6,3.2,0,13.7,0,23.7.9a71.3,71.3,0,0,0,9.7.4c3.5,0,3.8-.3,7.9-.4a115.5,115.5,0,0,1,13.3.1c4.8.3,5,.6,9.5.8h9.6c4.6-.1,11.2-.4,19.6-.9" transform="translate(-14.1 -43.4)" fill="none" stroke="#000" stroke-linecap="round" stroke-linejoin="round" stroke-width="1.42"/><path d="M1375.5,252.8a49.9,49.9,0,0,0-11.8-5.7,52.4,52.4,0,0,0-7.7-2,186,186,0,0,0-19-3.2c-8.7-1-16-1.1-18.6-1.2a117.9,117.9,0,0,1-12.1-.2c-3.3-.4-5.2-.7-9.8-1-2.1-.1-4.2-.3-7.1-.2s-4.8.4-8.8.6-5.2.1-8.5.2-8.8.2-15.4.7" transform="translate(-14.1 -43.4)" fill="none" stroke="#000" stroke-linecap="round" stroke-linejoin="round" stroke-width="1.42"/><path d="M1701,249.7l-20.3.9a104.6,104.6,0,0,1-14.9,0c-4.2-.5-5.3-.9-10-1.4-2.1-.3-5-.5-14.1-.6h-24s-4,0-9.4-.3l-5.5-.4c-3.5-.4-5.1-1-7.4-1.3s-6-.5-10-.3c-8.5.3-15.4,0-22.6-.3l-12.8-.9c-8.3-.9-11.2-1.7-18.4-1.9h-46.3c-7-.2-12.1-.5-22.3-1s-13.4-.9-23.6-1.3c-4-.2-9.5-.4-16.3-.2l-9.4.6-7.6.9c-8.3.9-8.4.6-12.2,1.3s-7.1,1.2-10.3,2.8a26.1,26.1,0,0,0-8.1,6.4" transform="translate(-14.1 -43.4)" fill="none" stroke="#000" stroke-linecap="round" stroke-linejoin="round" stroke-width="1.42"/><path d="M1257.5,254.8l8.9-2s4.9-.9,9.9-1.5c8.4-.9,18-.5,34.6,0,22.4.6,21.9.4,26.2.8a110.2,110.2,0,0,0,13.3.8c4.4,0,4.7-.3,10.2-.3s6.9.2,13.6.2l10-.2c6.1,0,10.9,0,16.9.4,3.8.3,7.1.7,9.8,1.1" transform="translate(-14.1 -43.4)" fill="none" stroke="#000" stroke-linecap="round" stroke-linejoin="round" stroke-width="1.42"/><path d="M1382,266.6c1.8-1.3,4.1-3,7.1-4.8a68.2,68.2,0,0,1,13.3-6c3-.9,6.9-1.9,18.3-2.6,9.5-.5,16.8-.5,19.7-.4,19.9.2,29.8.3,33.3.2,18.6-.1,20.5-.9,32.3-.2,5.5.4,10,.9,18.9,1.9,10.9,1.2,14.5,1.9,17.9,2.8l7.3,2,7,1.8c4.4.7,5.7,0,10.7.3s4.2.7,10.9,1.5,9.6.7,13.4.8,7.8.1,12.5-.3c6.3-.5,7.3-1.2,12.5-1.2l9,.6c6.1.5,9.2.7,11,1.2s4,1.5,7.5,2a52.4,52.4,0,0,0,5.3.5c3.6.2,6.2.1,6.8.1,7.6-.2,26.1.7,29.7.9,7.6.4,17.3,1.1,28.6,2.2" transform="translate(-14.1 -43.4)" fill="none" stroke="#000" stroke-linecap="round" stroke-linejoin="round" stroke-width="1.42"/><path d="M1256.5,267.6a255.4,255.4,0,0,0,25.6,1.4c4.7,0,7.2-.2,12.5,0,7.8.3,12.8.9,19.4,1.6,13.1,1.4,11.1.7,24,2.1,0,0,24,2.5,32.8,7.3,5,2.8,5.8,3.4,5.8,3.4,2.7,1.9,3.5,3.1,5.3,3.2s1.5-.1,5-1.5l5-2.2c4-1.8,7.5-2.2,15.2-3.8,6.1-1.3,4.3-1.2,12.7-3.1s11.9-2.3,17.4-4.1c3.5-1.2,3.8-1.5,6.1-2a48.5,48.5,0,0,1,12.8-.8l5.5.5a231.2,231.2,0,0,1,29.4,5.5c9.2,2.5,16.2,5.2,29.3,10.3,5.9,2.2,9,3.5,14.6,5.2a135.2,135.2,0,0,0,19.5,4.6c20.4,3.6,47.8,4.5,50,4.6,51.1,1.7,71.4-.6,94.8-1a88.3,88.3,0,0,0,12.5-1c3.7-.5,6.4-1.1,7.7-1.4a164.9,164.9,0,0,1,22.6-3.1" transform="translate(-14.1 -43.4)" fill="none" stroke="#000" stroke-linecap="round" stroke-linejoin="round" stroke-width="1.42"/><path d="M1316.1,261.2a47.8,47.8,0,0,1,11.3-2.2,66.4,66.4,0,0,1,7.5.2c6.9.4,8.4,1.1,15,1.3l4.8.2a72.1,72.1,0,0,1,7.7.6c3.4.5,4.6,1.3,8.8,2.6s6.5,1.7,14.2,3.4c9.3,2,8.7,1.7,10.9,2.3a49.3,49.3,0,0,1,16.6,8.1" transform="translate(-14.1 -43.4)" fill="none" stroke="#000" stroke-linecap="round" stroke-linejoin="round" stroke-width="1.42"/><path d="M1292.6,269a10.2,10.2,0,0,1,2.9-5.4,12.3,12.3,0,0,1,3.8-2.1,16.6,16.6,0,0,1,7.3-.9c9.7.6,14.6,1,17,1.4,6.7,1.3,11.8,2.2,18.1,5.2a57.6,57.6,0,0,1,12.7,7.9" transform="translate(-14.1 -43.4)" fill="none" stroke="#000" stroke-linecap="round" stroke-linejoin="round" stroke-width="1.42"/><path d="M1255.5,274.5c6.6,1.2,12.1,2,15.9,2.5l11.3,1.4c8.3,1.2,8.9,1.5,13.8,1.9s5,.3,10,.8l8.8,1.2,14.1,1.5c9.7,1,11.3.7,20.5,1.6,4.5.5,4,.6,8.9,1.1a275.4,275.4,0,0,0,29.5,2c6.3.1,11.1-.1,14.2-.2s6.8-.2,10.9-.5,5.2-.7,8.5-.9,7.9,0,15.1.6,11,1.1,13.1,1.4c4.5.6,7.7,1.2,10.7,1.7,15,2.8,13.8,2.3,24.6,4.3,15,2.8,13.8,3,22.2,4.4,11.7,1.8,11.4.9,20.5,2.6a207.8,207.8,0,0,1,25.2,6.3l15.9,4.9,11.4,3.3c4.6,1.2,9.6,2.2,21.1,3.5s19.4,2.3,26,2.4c12.5.2,14.1-1.4,29.9-2.1,6.9-.3,6.2,0,28.4.2,18.8.2,28.3.2,39.1-.2s20.6-1.4,25.8-1.9c9.6-1,18.1-2.2,25.4-3.4" transform="translate(-14.1 -43.4)" fill="none" stroke="#000" stroke-linecap="round" stroke-linejoin="round" stroke-width="1.42"/><path d="M1354.4,275.1a79.8,79.8,0,0,1,13.9-1.4,87.8,87.8,0,0,1,11.9.8,126.6,126.6,0,0,1,23.5,5.3" transform="translate(-14.1 -43.4)" fill="none" stroke="#000" stroke-linecap="round" stroke-linejoin="round" stroke-width="1.42"/><path d="M1865.9,345.2c8.1,5.2,15.4,9.4,21.6,12.7s11.9,6.1,17,8.5,12.5,5.5,18,7.7" transform="translate(-14.1 -43.4)" fill="none" stroke="#000" stroke-linecap="round" stroke-linejoin="round" stroke-width="1.42"/><path d="M3774.9,585a417.7,417.7,0,0,1-29.2,31.7c-19,18.8-27.8,23.8-36.9,23.1a24.5,24.5,0,0,1-10.7-3.7c-22.2-12.9-89-40.6-137.4-50.4-23.2-4.6-50-6.8-85.3-9.6-10.7-.9-22.3-1.7-38.2-5.2-12.9-2.9-29-6.5-47.9-15.6-21.4-10.4-27.1-18.5-38.4-16-2.7.6-4.4,1.5-20.4,13.5-22,16.4-20.8,16.1-23.5,17.6-20.4,11.3-45.1,3.8-50.5,2.2-23.4-7.1-24.6-19.8-44.2-26.8-17.9-6.3-31.8-1.1-58,5.4-90.8,22.4-110.9,5.9-137.8,26s-37.2,23.7-55.8,29.4a12.4,12.4,0,0,1-3.7.6c-13.2,0-20.6-22.8-47.4-36.2-7.2-3.6-7.6-2.4-18.4-7.6-14.7-7.1-18-11.2-26.5-14.8s-14.3-3.7-34.1-3c-27.3,1-36.9,2.7-55.7,3.8-40.3,2.3-38-3-55,1.5-15.1,4-18.4,8.6-48,17.8-17.6,5.5-23.2,6-29.3,4.7-13.8-2.9-14.4-11.7-29.6-15.3-5.7-1.4-14.2-.6-31.2,1-13.3,1.2-15.7,2-22.9,2.6s-28.6,2.5-52.1-3.6c-15.1-3.9-13.4-6.5-37.2-14.9-6-2.1-15.4-5.2-38.4-10.9-7.2-1.7-39.3-9.6-61.5-13.4-44-7.5-51,.8-103.4-2.8-33.4-2.3-77.9-5.4-125.5-26.4-12.2-5.4-21.9-10.7-41.8-17.8a364.5,364.5,0,0,0-68.1-17s-59.6-8.9-117.1,1.8c-12.2,2.3-18.9,3.5-28.4,6.7-16.8,5.7-18.8,9.6-28.7,10.1-6.7.3-7.3-1.3-31-7.6-14-3.8-21.1-5.6-25.5-5.6-14,.2-17.2,6.5-32.5,9.7s-26.4.4-36.3-1.7c-23.5-5.1-25.5-13.7-44.2-14.2-9.5-.2-18.9,1.7-25.6,3.1-13.1,2.8-17.4,5.5-27.8,5.7-6,.1-9.2-.7-20.3-2.8-21.4-4-32.2-6-35.7-5.9-14.5.3-15.3,5.7-46.7,13.3-8,1.9-12.1,2.8-18.1,3.7-19.5,2.6-30.8-.3-47.9-1.3s-19.7,1.3-42.7,2c-28.6.9-50-2-73.3-5.1-37.7-5-37.8-8.5-74.6-12.7-24.1-2.7-16.8-.3-53.1-3.6-30.4-2.7-39.9-4.8-53.7.5-6.8,2.6-11.1,5.6-22,8.6s-19.5,5.2-28.6,2.9c-15.4-3.8-16-15.9-28.1-16.4-6.9-.2-7.3,3.7-24.8,10.3-10.6,4.1-15.9,6.1-22,5.9-12.7-.4-14.1-8.2-28.1-11s-14.1,3.4-31.9,2.6c-5.7-.2-13.9-2.2-30.4-6.1s-22.4-6.1-29.9-3.2-7,5.8-12.5,6.2-8.3-3.6-19.7-8.2c-6.2-2.6-10.6-4.3-16-4.2s-9.8,2.2-20.9,10c-19.8,14-19.2,16.5-28.1,20.4-3.9,1.8-14,6.2-26.3,4.7-7.3-.9-8.7-3.1-24.9-7.5-8.9-2.5-13.3-3.7-16.9-3.9-15-.7-20.5,7.5-30.4,7.5-7.4.1-17.8-4.5-30.5-25.5a35.3,35.3,0,0,0-7.8-6.6c-4.9-3-6.7-2.5-9.5-4.5s-3.8-6.8-7-18.8c-4.8-17.6-8.3-19.8-9.5-20.4-2.8-1.6-4.6-.8-12.7-.3s-6.8-.4-25.3-.5c-10.1-.1-17.8.1-23.7.3-16.9.5-29.7,1.5-33,1.7-22.7,1.7-37.4.9-82.6,1.6-38.5.6-61.1.9-91.8,2.5,0,0-16.8.8-55.4.8-54.8.1-23.4-2.9-35.5-2.3-6.2.3-11.5.9-15-2.6s-1.7-7.3-4-19.5c-1.6-8.6-2.4-13-5.8-15.6s-4.8-1.9-14.9-2.2-16.4-.4-17.1-.3c-14.3.4-19.1-.4-35.1-.5-21.5-.2-22.6,1.4-54.7,2.5,0,0-32.7,1.1-65.6-1.5l-16.5-2.4c-9.6-1.5-12.6-2-15.5-4.3-4.5-3.7-5.8-9.2-6.3-12.6V301.8c8.8.7,16.1,1,21.2,1.2,9.5.2,14.4,0,27.1.5l9.9.4,17,1.1c11,.7,20.4-.2,29.4-.9,31.7-2.3,61.8-1.9,72.2-1.7,5.7,0,12.4.2,23.2.1s17.5-.2,26.7-.4l22.7-.5c5.5-.4,11-.1,16.4-.2a18.8,18.8,0,0,1,10,1.8,18.3,18.3,0,0,1,4.4,3.3,24.5,24.5,0,0,1,5.1,8c4.2,9.3,3,10,5.7,14.5a30.2,30.2,0,0,0,8.5,9,30.8,30.8,0,0,0,10.9,4.3,53.3,53.3,0,0,0,11.9,1.3c6.3.1,10.1-.7,17.7-1.7l5.4-.7,12.2-1.5c20.6-2.2,59.6-.1,59.6-.1,31.4,1.6,30.6,2.9,44.1,2.3,10.8-.5,15.6-1.6,32.3-2.3,7.6-.4,15.1-.5,29.6-.6,33.9-.2,39,.3,54.5-.7,10.7-.8,8.7-1.1,22.5-2.1,22.8-1.7,24.1-.6,41.5-2.3l23.2-1.7c11.8-.8,16.1-1.1,19.9,1.9s4.9,7.1,6.9,14a66.7,66.7,0,0,1,2.5,13.3c.6,5.3.2,7,1.1,12.5s2.1,8.3,2.6,9.3,2.8,5.1,6,6.9,3.5,1,7.5,3a16.5,16.5,0,0,1,3.6,2.2c2.6,2.3,2.1,4.6,3.9,8.1s4.8,7.6,8.2,7.4c.9-.1.8-.5,5.3-3.8l6-4,3.5-2.1,4.8-2.8c4.2-1.9,5.5-.2,9.2-1.8s4-4.3,6.6-4.5c.8,0,2.9.1,8,6.7s6.7,12.6,9.7,12.8c.6,0,2.6-1.4,6.7-4.3s4.6-3.5,6-3.3,1.8,1.2,5.1,3.1,3.7,2.1,5,1.8,2.1-2,3.8-7.4c2.5-7.7,2.5-9.1,3.5-9.4s3.7,3.3,10.3,9.5,6.6,4.9,7.2,4.8c3.7-.6,5.5-8.2,6.5-12.1s.5-5.4,1.8-9.2,2.8-8.3,5.6-8.6c1.1-.1,1.7.6,7.1,5.1s4.9,3.9,5.8,3.7c2.6-.6,2.3-5.4,5-6.1s2.8.7,5.8,2.7,4.3,3.6,5.8,3.4.9-.6,3.1-2.6,3.6-3.2,4.8-3.2,1.8.6,3.7,1.9,2.6,2.1,4.3,3a31.6,31.6,0,0,0,3.1,1.1c3.2.8,3.7-.2,5.4.5s1.8,2.5,4.8,4.4c1.3.8,2.5,1.6,4,1.5s1.3-.4,4.4-2.8,3.1-2.6,4-2.7,2.1.5,4.4,1.7,2.7,1.8,3.5,1.6,1.1-1.8,2.2-4,2.4-5,4.6-5.3,2.4,1.3,7.7,4.8c2.3,1.5,3.5,2.3,4.4,2.3,3.2.1,3.9-3.5,7.6-4.3,1-.2,1,0,7.3,1.6s6.2,1.3,8.1,2.3a28.4,28.4,0,0,1,4.4,3.2c4,3.4,4.6,4.8,7.1,5.5a12.2,12.2,0,0,0,4.3,0,27.1,27.1,0,0,0,8.8-2.3c5.9-2.3,6.3-3.7,7.9-3.2s2,3.3,5.8,8.3c2.1,2.7,3.9,5.2,6.2,5.1s2.3-1.3,5.5-5a70,70,0,0,1,7.4-7.8c3.5-3.2,6.5-5.8,9.7-5.2.7.1,2,.4,7,6.1s5.9,7.7,8.1,7.7,2.7-1.2,5.1-3.6,4.2-6,6-6,.8.2,4.2,3.1,3.9,3.3,4.7,3.2,1.4-.9,4.6-3.4,3-2.5,3.8-2.5,2.5,2.1,6.5,3.8c1.4.6,3,1.3,4.2.6s.9-1,1.7-2.8,2.1-4.8,2.8-5.1,2,1,5.5,3.7a32.9,32.9,0,0,0,6.2,3.8c.9.4,1.3.5,7.1,2s6.1,1.7,7.2,2.4,1.4,2.3,3.6,4.8,4.8,5.7,8.1,5.1,3.7-3.1,4.9-5.3,1.7-6.3,3.6-7.1,1.5,0,3.4.4,3.6,1.4,5.4,1.6,1.8-.4,6.2-1.9l5.9-1.8,7.1-1.9c2.4-.1,2.8.6,10.4,2.7,4.6,1.3,5.5,1.3,6.5.9s1.8-2.4,4.7-5.2,4.1-3.9,6.9-3.5c.9.1,1.9.7,3.8,2,4.2,2.8,4.6,4,6.2,4s1.2-.7,4.8-2.6c2-1,3.1-1.5,3.7-1.5a7.2,7.2,0,0,1,2.6,1l4.7,3.1c5.1,3.4,7.7,5.1,9.4,4.9s.4-.1,4.5-2.5l5.4-3c3.3-1.9,5.1-2.8,6.1-2.9s3.1.5,6.3,1.8,2.5,1.1,6.4,2.9,6,2.6,7.3,2.1.7-.5,2.2-2.2c2.9-3.3,4.4-4.9,5.5-5.1s2.8.8,6,2.7,3,2.2,4.2,2,1.1-.9,3.5-2.8,2.3-1.8,3.2-1.9,2,.6,3.4,1.5.8.3,5.5,2.1c7.3,2.8,7.6,3.3,9.7,3.4h3.9a17.7,17.7,0,0,1,3.4.6c2.2.6,2.4,1.4,5.2,2.5s2.5,1,3.6.8,1.6-1,2.9-1.9a9.3,9.3,0,0,1,5.6-1.8c1.6.1,2.2.7,5.9,3a48.9,48.9,0,0,0,6.6,3.9c3.8,1.9,5.9,2.9,8.4,2.3s1.4-.7,5.2-2.3a18.9,18.9,0,0,1,4-1.3c1.8,0,2.5.7,6.1,2.2,1.9.8,1.3.4,4.7,1.7,5.3,2,5.9,2.5,7.2,2.2s1.5-1.5,4.3-3.9,3.9-3.4,6.3-3.5,2.3.8,6.8,3.5c6.7,4.1,8.3,3.9,9.1,3.8s1.4-1.1,4.7-3.4,4.9-3.4,6.6-3.6,2.2.2,11.2,5.4c2.8,1.5,4,2.2,5.6,2s2.2-1.5,5.1-3a14,14,0,0,1,4.7-1.7c.6-.1,2.1-.1,8.6,3.1a52.3,52.3,0,0,1,5.7,3c4,2.4,5,3.7,6.5,3.3s.9-.3,3.2-4.2,2.2-4.4,3.2-4.9,1.7,0,6.5.9l5.5.9c4.6.8,4.7,1.2,5.7.9s2-2.6,5.2-4.9c1.4-1.1,3-2.2,4.9-2.1s3,2.3,6.2,4.8a22.1,22.1,0,0,0,8.4,4c3.4.8,6,.6,10.3.2s5.5-1.1,6.1-1.6a15.8,15.8,0,0,0,3.4-4.3c1.5-2.3,1.4-2.9,2.1-3.1s2.8,2.7,7.1,4.5a9.2,9.2,0,0,0,5.8.9,9.6,9.6,0,0,0,4.3-1.9,14.8,14.8,0,0,0,3.3-3.5c1.6-2,3.6-3.4,7.6-6.2a50.4,50.4,0,0,1,8.9-5c3.4-1.4,5.8-2.5,9.2-2.5a22.1,22.1,0,0,1,8.4,2c4.7,1.8,4.6,3.1,8,3.9s2.9.1,8.8,0h7.8c9.8.2,15.3.9,22.9,1.2s5.7-.6,22.5-.9c0,0,7.1-.1,20.5.6a38.1,38.1,0,0,1,7.9.9c4.1.9,6.7,2.2,12.5,4.9s4.1,1.7,11.3,5c11.9,5.5,13.1,6.5,16.4,6.4s4.9-2,9.9-1.9c2.5,0,5.2.9,10.6,2.9,7.1,2.5,7,3,11,4.1s9.1,2.4,12.6.7a48.6,48.6,0,0,0,5.4-4.3c3.7-3.2,4.1-3.8,5.5-4.8a23.6,23.6,0,0,1,10.3-4c5.5-1,9.2-.3,16.2.7,21,3,21.8,1.4,25.8,4.2s6.3,5.5,11.5,10.8c3.7,3.8,5,5.4,7.2,5.5,3.8.3,7-4.1,10.7-9.2,5.5-7.4,4.9-10,8.7-12.3.9-.5,2.5-1.3,12.9-1.1,7.8.1,11.3.6,17.1.8s8.7-.1,15.8-.4c13.5-.7,23.9-2.1,36.7-3.8,4.4-.5,7.6-1,12.1-1.7,13.2-2.1,14.2-3,19.8-3.6,8.3-.9,14.8.4,27.7,3.1,5.9,1.2,13.4,2.8,20.4,5.8l8.1,3.2a70.4,70.4,0,0,0,8.6,3c2.4.5,5.6.4,11.7.3s6.2-.3,8.6-.1a45.3,45.3,0,0,1,11.2,2c9,2.7,8.2,1.4,26.2,5.9,14.2,3.6,21.3,5.4,30.7,8.9,11.3,4.2,12.6,5.8,25.4,10.4,3.9,1.4,11.4,4.1,20.5,6.4,11.4,3,18.2,3.5,42.5,6.2,28.5,3.2,24.2,3,29.1,3.3,19.7,1.3,22.1-.7,50,.2a241.9,241.9,0,0,1,28.4,2c12.1,1.6,22.7,4,22.7,4,11.6,2.6,13.2,3.8,20.7,4.5,3.4.3,7.3.4,13.7,1.4,2.1.4,5.2.9,8.9,1.9,7.2,1.8,9.4,3.4,15.5,5.4a77,77,0,0,0,13.7,2.9c9.6,1.2,11.2-.2,22.7.9a86.2,86.2,0,0,1,13,2.2c2.4.6,5.7,1.7,13.3,5.1,10,4.5,11,5.8,17.7,8.8a99.7,99.7,0,0,0,18.8,6.5c4.6.9,11.1,1.1,24.1,1.5,9.7.2,14.7.3,21.3-.1s10.2-1,14.8-1.7c7.3-1,10.5-1.7,18.8-2.8,10.1-1.2,12.2-1.1,14.6-.3s3,1.3,10.1,7.5c10.1,8.9,11.9,11.1,16.5,12.6s5.4,1.1,9.8,1.2,12.7.2,21.1-3.7,16.8-11.8,21.1-15.8a17.3,17.3,0,0,1,7.7-4.5c1.6-.4,2.7-.4,6-.4l9.7-.2h41.2c16.5-.1,17.5-.8,37.5-1.3,16.6-.4,16.4,0,29.6-.5,10.2-.5,12.7-.8,20.8-.9,12.8,0,19.4,0,26.7,2.4a65.5,65.5,0,0,1,16,8.1c7.4,4.8,7.3,6.5,13.4,9.5s6.8,2,15.2,5.6c4.8,2.1,7.5,2.8,9.6,4.7,6.1,5.3,12.3,14.3,14.3,17.2,3.5,5.1,5.9,9.4,11.5,12.5a18.6,18.6,0,0,0,9.1,2.4c5.2-.1,8.9-2.7,11.1-4.3s3.8-3.4,7-7.1c6.1-6.8,6.3-8.4,10.2-11.6a29.8,29.8,0,0,1,7.5-4.6,33.3,33.3,0,0,1,12.8-2.1c3.5.1,4.3.6,8.4.4.9,0,3.5-.3,6.9-.8,5.4-.8,7.8-2.4,14.5-4.9a137.6,137.6,0,0,1,14.7-4.4c4.6-1,8.1-1.3,15.1-1.9,11.3-1.1,12.9-.6,23.2-1.6,8.5-.8,12.8-1.2,17.1-2.4,7.4-2.1,8.1-3.8,15.4-5.7,4.1-1,8.1-1.3,16-1.8s10-.4,18.3-.9c10.7-.5,11.9-1.1,22.5-1.7,8.7-.5,14-.9,20.9-.7,14.1.3,23.2.5,32.8,5.5,1.5.8,5,3.2,11.8,8,10.8,7.5,11.7,8.7,15.4,11,5.8,3.6,16.6,10.1,26.5,7.5,7.2-1.9,14.1-11.7,27.8-31.3.6-.7,2.6-3.6,5.7-7a37.9,37.9,0,0,1,5.3-5.3c3.7-2.8,7.4-3.2,14.8-4s12.3-1.4,17.7.4c3.2,1,5.3,2.4,9.1,4.9,7.3,4.7,7.5,6.7,13.7,11a47.8,47.8,0,0,0,16,7.5c1.9.5,1.3.2,13.3,1.8,9.4,1.2,10.8,1.5,12.5,2.1,5.2,1.7,5.5,3,11.5,5.8,4.1,1.9,8,2.9,15.8,4.8s12.1,2.8,16.1,3.6c11.7,2.2,17.1,2.9,24.1,4.1,19.1,3.4,18.5,5.1,31.2,7,9.2,1.4,18.1,1.3,35.9,1,9.8-.1,22.6-.6,35.4.5a90.4,90.4,0,0,1,15.5,2.8c1.1.3,4.2,1.2,9.9,3.4,7.5,3,13.8,6,22.1,10.2,10.3,5.4,11.4,6.3,16.9,9.1,10.7,5.4,17.6,7.5,29.8,11.9C3746,573.4,3758.9,578.3,3774.9,585Z" transform="translate(-14.1 -43.4)" fill="url(#_10_lpi_10_)"/><polyline points="37.3 79.3 37.3 258.4 37.3 295.2" fill="none" stroke="#000" stroke-linecap="round" stroke-linejoin="round" stroke-width="1.98"/><path d="M3774.9,585c-16-6.7-28.9-11.6-37.9-14.8-12.2-4.4-19.1-6.5-29.8-11.9-5.5-2.8-6.6-3.7-16.9-9.1-8.3-4.2-14.6-7.2-22.1-10.2-5.7-2.2-8.8-3.1-9.9-3.4a90.4,90.4,0,0,0-15.5-2.8c-12.8-1.1-25.6-.6-35.4-.5-17.8.3-26.7.4-35.9-1-12.7-1.9-12.1-3.6-31.2-7-7-1.2-12.4-1.9-24.1-4.1-4-.8-9.4-1.8-16.1-3.6s-11.7-2.9-15.8-4.8c-6-2.8-6.3-4.1-11.5-5.8-1.7-.6-3.1-.9-12.5-2.1-12-1.6-11.4-1.3-13.3-1.8a47.8,47.8,0,0,1-16-7.5c-6.2-4.3-6.4-6.3-13.7-11-3.8-2.5-5.9-3.9-9.1-4.9-5.4-1.8-9.8-1.3-17.7-.4s-11.1,1.2-14.8,4a37.9,37.9,0,0,0-5.3,5.3c-3.1,3.4-5.1,6.3-5.7,7-13.7,19.6-20.6,29.4-27.8,31.3-9.9,2.6-20.7-3.9-26.5-7.5-3.7-2.3-4.6-3.5-15.4-11-6.8-4.8-10.3-7.2-11.8-8-9.6-5-18.7-5.2-32.8-5.5-6.9-.2-12.2.2-20.9.7-10.6.6-11.8,1.2-22.5,1.7-8.3.5-10,.3-18.3.9s-11.9.8-16,1.8c-7.3,1.9-8,3.6-15.4,5.7-4.3,1.2-8.6,1.6-17.1,2.4-10.3,1-11.9.5-23.2,1.6-7,.6-10.5.9-15.1,1.9a137.6,137.6,0,0,0-14.7,4.4c-6.7,2.5-9.1,4.1-14.5,4.9-3.4.5-6,.8-6.9.8-4.1.2-4.9-.3-8.4-.4a33.3,33.3,0,0,0-12.8,2.1,29.8,29.8,0,0,0-7.5,4.6c-3.9,3.2-4.1,4.8-10.2,11.6-3.2,3.7-4.8,5.5-7,7.1s-5.9,4.2-11.1,4.3a18.6,18.6,0,0,1-9.1-2.4c-5.6-3.1-8-7.4-11.5-12.5-2-2.9-8.2-11.9-14.3-17.2-2.1-1.9-4.8-2.6-9.6-4.7-8.4-3.6-10-3.1-15.2-5.6s-6-4.7-13.4-9.5a65.5,65.5,0,0,0-16-8.1c-7.3-2.4-13.9-2.4-26.7-2.4-8.1.1-10.6.4-20.8.9-13.2.5-13,.1-29.6.5-20,.5-21,1.2-37.5,1.3h-41.2l-9.7.2c-3.3,0-4.4,0-6,.4a17.3,17.3,0,0,0-7.7,4.5c-4.3,4-12.8,11.9-21.1,15.8s-16.7,3.8-21.1,3.7-6.7-.1-9.8-1.2-6.4-3.7-16.5-12.6c-7.1-6.2-8.4-6.9-10.1-7.5s-4.5-.9-14.6.3c-8.3,1.1-11.5,1.8-18.8,2.8-4.6.7-9.2,1.3-14.8,1.7s-11.6.3-21.3.1c-13-.4-19.5-.6-24.1-1.5a99.7,99.7,0,0,1-18.8-6.5c-6.7-3-7.7-4.3-17.7-8.8-7.6-3.4-10.9-4.5-13.3-5.1a86.2,86.2,0,0,0-13-2.2c-11.5-1.1-13.1.3-22.7-.9a77,77,0,0,1-13.7-2.9c-6.1-2-8.3-3.6-15.5-5.4-3.7-1-6.8-1.5-8.9-1.9-6.4-1-10.3-1.1-13.7-1.4-7.5-.7-9.1-1.9-20.7-4.5,0,0-10.6-2.4-22.7-4a241.9,241.9,0,0,0-28.4-2c-27.9-.9-30.3,1.1-50-.2-4.9-.3-.6-.1-29.1-3.3-24.3-2.7-31.1-3.2-42.5-6.2-9.1-2.3-16.6-5-20.5-6.4-12.8-4.6-14.1-6.2-25.4-10.4-9.4-3.5-16.5-5.3-30.7-8.9-18-4.5-17.2-3.2-26.2-5.9a45.3,45.3,0,0,0-11.2-2c-2.4-.2-2.6,0-8.6.1s-9.3.2-11.7-.3a70.4,70.4,0,0,1-8.6-3l-8.1-3.2c-7-3-14.5-4.6-20.4-5.8-12.9-2.7-19.4-4-27.7-3.1-5.6.6-6.6,1.5-19.8,3.6-4.5.7-7.7,1.2-12.1,1.7-12.8,1.7-23.2,3.1-36.7,3.8-7.1.3-10.7.5-15.8.4s-9.3-.7-17.1-.8c-10.4-.2-12,.6-12.9,1.1-3.8,2.3-3.2,4.9-8.7,12.3-3.7,5.1-6.9,9.5-10.7,9.2-2.2-.1-3.5-1.7-7.2-5.5-5.2-5.3-8.6-8.8-11.5-10.8s-4.8-1.2-25.8-4.2c-7-1-10.7-1.7-16.2-.7a23.6,23.6,0,0,0-10.3,4c-1.4,1-1.8,1.6-5.5,4.8a48.6,48.6,0,0,1-5.4,4.3c-3.5,1.7-7.3.8-12.6-.7s-3.9-1.6-11-4.1c-5.4-2-8.1-2.9-10.6-2.9-5-.1-5.4,1.8-9.9,1.9s-4.5-.9-16.4-6.4c-7.2-3.3-4.6-2-11.3-5s-8.4-4-12.5-4.9a38.1,38.1,0,0,0-7.9-.9c-13.4-.7-20.5-.6-20.5-.6-16.8.3-14,1.1-22.5.9s-13.1-1-22.9-1.2h-7.8c-5.9.1-6.5.5-8.8,0s-3.3-2.1-8-3.9a22.1,22.1,0,0,0-8.4-2c-3.4,0-5.8,1.1-9.2,2.5a50.4,50.4,0,0,0-8.9,5c-4,2.8-6,4.2-7.6,6.2a14.8,14.8,0,0,1-3.3,3.5,9.6,9.6,0,0,1-4.3,1.9,9.2,9.2,0,0,1-5.8-.9c-4.3-1.8-5.4-5-7.1-4.5s-.6.8-2.1,3.1a15.8,15.8,0,0,1-3.4,4.3c-.6.5-1.7,1.2-6.1,1.6s-6.9.6-10.3-.2a22.1,22.1,0,0,1-8.4-4c-3.2-2.5-3.9-4.6-6.2-4.8s-3.5,1-4.9,2.1c-3.2,2.3-3,4.2-5.2,4.9s-1.1-.1-5.7-.9l-5.5-.9c-4.8-.9-5.3-1.5-6.5-.9s-1,1.1-3.2,4.9-2.9,4.1-3.2,4.2-2.5-.9-6.5-3.3a52.3,52.3,0,0,0-5.7-3c-6.5-3.2-8-3.2-8.6-3.1a14,14,0,0,0-4.7,1.7c-2.9,1.5-3.4,2.7-5.1,3s-2.8-.5-5.6-2c-9-5.2-9.9-5.5-11.2-5.4s-3.3,1.3-6.6,3.6-3.2,3-4.7,3.4-2.4.3-9.1-3.8c-4.5-2.7-5.1-3.5-6.8-3.5s-4.4,1.8-6.3,3.5-2.6,3.5-4.3,3.9-1.9-.2-7.2-2.2c-3.4-1.3-2.8-.9-4.7-1.7-3.6-1.5-4.3-2.2-6.1-2.2a18.9,18.9,0,0,0-4,1.3c-3.8,1.6-3.8,2-5.2,2.3s-4.6-.4-8.4-2.3a48.9,48.9,0,0,1-6.6-3.9c-3.7-2.3-4.3-2.9-5.9-3a9.3,9.3,0,0,0-5.6,1.8c-1.3.9-1.7,1.6-2.9,1.9s-1.9-.1-3.6-.8-3-1.9-5.2-2.5a17.7,17.7,0,0,0-3.4-.6h-3.9c-2.1-.1-2.4-.6-9.7-3.4-4.7-1.8-4.4-1.5-5.5-2.1s-2.2-1.6-3.4-1.5-1.7.7-3.2,1.9-2.5,2.6-3.5,2.8-1.8-.5-4.2-2-4.8-2.9-6-2.7-2.6,1.8-5.5,5.1c-1.5,1.7-1.6,1.9-2.2,2.2s-2.7,0-7.3-2.1-4.6-2.2-6.4-2.9-4.8-1.9-6.3-1.8-2.8,1-6.1,2.9l-5.4,3c-4.1,2.4-3.9,2.5-4.5,2.5s-4.3-1.5-9.4-4.9l-4.7-3.1a7.2,7.2,0,0,0-2.6-1c-.6,0-1.7.5-3.7,1.5-3.6,1.9-3.6,2.6-4.8,2.6s-2-1.2-6.2-4c-1.9-1.3-2.9-1.9-3.8-2-2.8-.4-5.4,2.1-6.9,3.5s-2.6,4.4-4.7,5.2-1.9.4-6.5-.9c-7.6-2.1-8-2.8-10.4-2.7l-7.1,1.9L1201,396c-4.4,1.5-4.7,2-6.2,1.9s-2.1-.9-5.4-1.6-2.8-.6-3.4-.4-1.6,3.4-3.6,7.1-2.6,4.8-4.9,5.3-6.7-3.5-8.1-5.1-1.8-3.4-3.6-4.8-1.8-1-7.2-2.4-6.2-1.6-7.1-2a32.9,32.9,0,0,1-6.2-3.8c-3.5-2.7-4.4-4.1-5.5-3.7s-1.4,1.9-2.8,5.1-1,2.4-1.7,2.8-2.8,0-4.2-.6c-4-1.7-4.4-3.9-6.5-3.8s-1.8.9-3.8,2.5-3.4,3.4-4.6,3.4-1.2-.3-4.7-3.2-3.6-3.1-4.2-3.1-2.3,2.4-6,6-3.6,3.5-5.1,3.6-3.1-2.2-8.1-7.7-6.3-6-7-6.1c-3.2-.6-6.2,2-9.7,5.2a70,70,0,0,0-7.4,7.8c-3.2,3.7-3.9,5-5.5,5s-4.1-2.4-6.2-5.1c-3.8-5-3.5-7.6-5.8-8.3s-2,.9-7.9,3.2a27.1,27.1,0,0,1-8.8,2.3,12.2,12.2,0,0,1-4.3,0c-2.5-.7-3.1-2.1-7.1-5.5a28.4,28.4,0,0,0-4.4-3.2c-1.9-1-2.9-1.1-8.1-2.3s-6.3-1.8-7.3-1.6c-3.7.8-4.4,4.4-7.6,4.3-.9,0-2.1-.8-4.4-2.3-5.3-3.5-6-5.1-7.7-4.8s-3.7,3.6-4.6,5.3-1.1,3.7-2.2,4-1.2-.4-3.5-1.6-3.4-1.8-4.4-1.7-1.1.5-4,2.7-3.7,2.7-4.4,2.8-2.7-.7-4-1.5c-3-1.9-2.6-3.5-4.8-4.4s-2.2.3-5.4-.5a31.6,31.6,0,0,1-3.1-1.1c-1.7-.9-2-1.5-4.3-3s-2.8-2-3.7-1.9-2.4,1.1-4.8,3.2-2.2,2.4-3.1,2.6-2.4-1.1-5.8-3.4-4.5-3-5.8-2.7-2.4,5.5-5,6.1c-.9.2-1.7-.3-5.8-3.7s-6-5.2-7.1-5.1c-2.8.3-4.4,5.4-5.6,8.6s-.7,4.7-1.8,9.2-2.8,11.5-6.5,12.1c-.6.1-1.9.2-7.2-4.8s-8.4-10-10.3-9.5-1,1.7-3.5,9.4c-1.7,5.4-2.4,7-3.8,7.4s-2.5-.4-5-1.8-3.5-3-5.1-3.1-2.3.6-6,3.3-6.1,4.3-6.7,4.3c-3-.2-3.7-4.9-9.7-12.8s-7.2-6.7-8-6.7c-2.6.2-2.5,2.8-6.6,4.5s-5-.1-9.2,1.8l-4.8,2.8-3.5,2.1-6,4c-4.5,3.3-4.4,3.7-5.3,3.8-3.4.2-6.8-4.5-8.2-7.4s-1.3-5.8-3.9-8.1a16.5,16.5,0,0,0-3.6-2.2c-4-2-5.2-1.7-7.5-3s-4.8-4.8-6-6.9-1.6-3.2-2.6-9.3-.5-7.2-1.1-12.5a66.7,66.7,0,0,0-2.5-13.3c-2-6.9-3.3-11.1-6.9-14s-8.1-2.7-19.9-1.9l-23.2,1.7c-17.4,1.7-18.7.6-41.5,2.3-13.8,1-11.8,1.3-22.5,2.1-15.5,1-20.6.5-54.5.7-14.5.1-22,.2-29.6.6-16.7.7-21.5,1.8-32.3,2.3-13.5.6-12.7-.7-44.1-2.3,0,0-39-2.1-59.6.1l-12.2,1.5-5.4.7c-7.6,1-11.4,1.8-17.7,1.7a53.3,53.3,0,0,1-11.9-1.3,30.8,30.8,0,0,1-10.9-4.3,30.2,30.2,0,0,1-8.5-9c-2.7-4.5-1.5-5.2-5.7-14.5a24.5,24.5,0,0,0-5.1-8,18.3,18.3,0,0,0-4.4-3.3,18.8,18.8,0,0,0-10-1.8c-5.4.1-10.9-.2-16.4.2l-22.7.5c-9.2.2-17.2.4-26.7.4s-17.5-.1-23.2-.1c-10.4-.2-40.5-.6-72.2,1.7-9,.7-18.4,1.6-29.4.9l-17-1.1-9.9-.4c-12.7-.5-17.6-.3-27.1-.5-5.1-.2-12.4-.5-21.2-1.2" transform="translate(-14.1 -43.4)" fill="none" stroke="#000" stroke-linecap="round" stroke-linejoin="round" stroke-width="1.98"/><line x1="729.1" y1="27.9" x2="729.1" y2="49.3" fill="none" stroke="#000" stroke-linecap="round" stroke-linejoin="round" stroke-width="1.42"/><line x1="1422.6" y1="53.8" x2="1422.6" y2="75.8" fill="none" stroke="#000" stroke-linecap="round" stroke-linejoin="round" stroke-width="1.42"/><line x1="2110" y1="325.4" x2="2110" y2="349.3" fill="none" stroke="#000" stroke-linecap="round" stroke-linejoin="round" stroke-width="1.42"/><line x1="2806" y1="366.6" x2="2806" y2="390.3" fill="none" stroke="#000" stroke-linecap="round" stroke-linejoin="round" stroke-width="1.42"/><line x1="3500.1" y1="353.2" x2="3500.1" y2="371.4" fill="none" stroke="#000" stroke-linecap="round" stroke-linejoin="round" stroke-width="1.42"/></g><g id="texts"><text transform="translate(596.9 673.1)" font-size="45.35" font-family="SimSun">1.表土層　4.黃土　4A.黃褐土　4B.褐紅土　4C.紅灰土　4D.淺黃土　5.城垣夯土　6.灰褐土　6A.黃土　6B.紅斑土　7.黑灰土</text><text transform="translate(161.3 208.7)" font-size="28.35" font-family="SimSun">H2</text><text transform="translate(621.7 82.7)" font-size="28.35" font-family="SimSun">1</text><text transform="translate(697 109.6)" font-size="28.35" font-family="SimSun">4</text><text transform="translate(697 156)" font-size="28.35" font-family="SimSun">4A</text><text transform="translate(735.7 230.3)" font-size="28.35" font-family="SimSun">4C</text><text transform="translate(927.4 169.9)" font-size="28.35" font-family="SimSun">4B</text><text transform="translate(975.1 239.6)" font-size="28.35" font-family="SimSun">4D</text><text transform="translate(1247.2 173.8)" font-size="28.35" font-family="SimSun">4B</text><text transform="translate(1437.7 330.8)" font-size="28.35" font-family="SimSun">7</text><text transform="translate(2673.5 467.2)" font-size="28.35" font-family="SimSun">6B</text><text transform="translate(2979.7 495.3)" font-size="28.35" font-family="SimSun">6B</text><text transform="translate(3303 473)" font-size="28.35" font-family="SimSun">6B</text><text transform="translate(3535.5 479.2)" font-size="28.35" font-family="SimSun">6B</text><text transform="translate(3533.8 419.6)" font-size="28.35" font-family="SimSun">6</text><text transform="translate(3563.9 450.7)" font-size="28.35" font-family="SimSun">6A</text><text transform="translate(2283.4 397)" font-size="28.35" font-family="SimSun">1</text><text transform="translate(0 116)" font-size="28.35" font-family="SimSun">北</text><text transform="translate(73.5 74.7)" font-size="28.35" font-family="SimSun">76HP3TB<tspan x="99.2" y="0" font-family="MicrosoftJhengHeiUIRegular, Microsoft JhengHei UI" letter-spacing="0em">’</tspan><tspan x="105.7" y="0">26</tspan></text><text transform="translate(752 25.2)" font-size="28.35" font-family="SimSun">76HP3TB<tspan x="99.2" y="0" font-family="MicrosoftJhengHeiUIRegular, Microsoft JhengHei UI" letter-spacing="0em">’</tspan><tspan x="105.7" y="0">27</tspan></text><text transform="translate(1442.9 53.8)" font-size="28.35" font-family="SimSun">76HP3TB<tspan x="99.2" y="0" font-family="MicrosoftJhengHeiUIRegular, Microsoft JhengHei UI" letter-spacing="0em">’</tspan><tspan x="105.7" y="0">28</tspan></text><text transform="translate(2121.4 319.6)" font-size="28.35" font-family="SimSun">76HP3TB<tspan x="99.2" y="0" font-family="MicrosoftJhengHeiUIRegular, Microsoft JhengHei UI" letter-spacing="0em">’</tspan><tspan x="105.7" y="0">29</tspan></text><text transform="translate(2838.1 362.9)" font-size="28.35" font-family="SimSun">76HP3TB<tspan x="99.2" y="0" font-family="MicrosoftJhengHeiUIRegular, Microsoft JhengHei UI" letter-spacing="0em">’</tspan><tspan x="105.7" y="0">30</tspan></text><text transform="translate(3522.7 355.9)" font-size="28.35" font-family="SimSun">76HP3TB<tspan x="99.2" y="0" font-family="MicrosoftJhengHeiUIRegular, Microsoft JhengHei UI" letter-spacing="0em">’</tspan><tspan x="105.7" y="0">31</tspan></text><text transform="translate(3586.5 394.3)" font-size="28.35" font-family="SimSun">南</text><rect x="1409.6" y="144.9" width="16.8" height="30.84" rx="8.4" fill="#fff"/><text transform="translate(1410.9 170.5)" font-size="28.35" font-family="SimSun">5</text><rect x="1457.6" y="144.9" width="120" height="30.84" rx="12.1" fill="#fff"/><text transform="translate(1460.9 170.5)" font-size="28.35" font-family="SimSun">南垣中段</text></g></svg>