<svg xmlns="http://www.w3.org/2000/svg" viewBox="0 0 1058.9 1369.2"><g id="outline"><path d="M1109,35q-1.9,416.1-4,832.2l-1.5,313.3c-61,11.7-105.9,19.6-136.3,24.9-11.3,1.9-29.8,5.1-56.3,9.9-37.8,6.8-40.6,7.6-74.5,13.8-53.1,9.6-58.6,9.8-89.4,16-28.3,5.7-48.7,10.6-61.8,13.8l-34.3,7.7c.5-3.7,1.2-6.8,1.7-9a125.6,125.6,0,0,1,6.1-19.4c.8-2,1.7-4.2,2.7-6.5,1.8-4.2,2.7-6.3,3.6-8.1,2.2-4.5,2.7-4.2,5.4-9.1s2.5-6.2,5.1-10.4c1.1-1.8,2.8-3.9,6.1-8.2,1.9-2.4,3.5-4.4,5.8-7a99.8,99.8,0,0,1,7.3-7.9c1.7-1.5,2.5-2.1,10.8-8l9.8-6.9c6.2-4.5,7.6-5.6,11.2-7.9l6.4-3.9c7.2-4.2,6.9-4,8.4-5,4.5-2.8,4.9-3.6,9.8-6.9,3.1-2.2,5.3-3.4,8.6-5.4l19.8-12c9.1-5.6,13.6-8.4,19.9-12.7,3.6-2.4,4.7-3.2,7.8-5.1,6.6-4.2,8.3-4.6,14-8.3,3.2-2,2.9-2,9.6-6.7s8.1-5.4,11.9-8.1a226.6,226.6,0,0,0,22.9-18.2c6.8-6.1,5.1-5.4,10.7-10.3,10.5-9.2,13.3-9.1,21-16.7a117,117,0,0,0,11.7-13.8c3.8-4.9,6.6-9.1,8.8-12.5a124,124,0,0,0,7.2-11.4,97.3,97.3,0,0,0,7.3-18.7c1.8-6.2.8-4.5,3.3-13.7,1.5-5.5,3.6-12.8,3.9-18.9.1-2.1.1-4.4.1-4.4,0-3.1-.2-5.2-.3-6.9,0,0-.2-4.4-.2-9.8a143.2,143.2,0,0,1,1.4-14.9c1.3-10.6,1.2-9.4,1.8-14a214.6,214.6,0,0,0,1.6-21.9c.1-6.3.1-7.6.1-7.6a49.7,49.7,0,0,1,0-6.9c.3-3.1.7-3.2,1.2-6.9.2-1.9.2-3.4.4-6s0-3.7.1-5.6c.1-3.8.5-6.2.7-8.5s.4-3.7.2-19.5v-9.2c0-7.7.2-11.5.5-21,.1-5.5.2-9.4.3-14.5.2-14.1.3-35.7.5-46.6,0-2.6,0-4.5.2-7s.4-4.4.5-7.6.1-4.3.1-6.1c.2-5,1.4-6.4,2.4-11.7s0-6.7,1.2-14.9c.7-4.2.9-3.3,2.2-9.7a104.1,104.1,0,0,0,2-15.2c.2-4.1-.1-4.2.1-8.9a103.4,103.4,0,0,1,1.1-11.1c1.7-10.8,4.3-13.3,8.7-30.1.8-2.8,1.3-5.2,2.6-9.9s2.3-8.1,3.8-12.6,1.5-3.6,3.5-9.3,2.4-7.1,4.2-11.7,3-6.6,4.1-7.6,2.8-2,4.7-4.3c.8-.8,1.4-1.8,3.3-5.4s3.9-8,3.9-8c3-6.9,2.3-6.5,3.8-9.5s3.8-5.7,7.3-9.8c1.9-2.2,1.4-1.5,7.1-7.7,3.2-3.4,4.8-5.1,6.6-7.3s3.2-4,5-5.9,2.8-2.6,7.4-6.4c11.5-9.2,7.4-6.3,13.2-10.9a38,38,0,0,0,4.8-4.5c.8-.8.9-1,2.2-2.5s2.8-3.3,5.7-6.3,2.8-2.6,4.8-4.7,3.3-4.3,6.1-7.4,4.3-3.5,7.4-6.8a39.5,39.5,0,0,0,5.8-8.1c5-8.7,6.3-17.1,7.4-24.7.3-2,.7-6.2,1.5-14.6.7-6.5.7-7.5.8-8.2a70.9,70.9,0,0,0-1.1-15.9,105.6,105.6,0,0,0-3.8-12.7,134.4,134.4,0,0,0-4.6-12.8,101.8,101.8,0,0,0-8.1-15.6,57,57,0,0,0-5.8-7.5,33.2,33.2,0,0,0-3.7-3.5c-1.7-1.4-2.4-1.7-4.1-3s-2.6-2.5-4.6-4.3-2.1-1.5-7.4-4.8l-7.2-4.3c-2.2-1.3-4.8-2.9-8.3-4.8s-6.8-3.7-8.8-4.4a52.3,52.3,0,0,1-6-2l-4.6-2.1c-1.7-.9-.3-.1-7.7-3.6-12.7-6-12.6-6.1-15.7-7.3a92.7,92.7,0,0,0-9.4-3.5c-5-1.6-6.7-1.6-12.2-3.5-2.5-.8-4.7-1.7-6.5-2.4l-7.3-3c-4.8-1.9-7.2-2.9-9.6-3.6s-3.1-.7-9.1-2.2l-7.8-2-21.9-6.4c-7.4-2.2-11.2-3.3-14-4.3-5.2-1.7-7.1-2.6-13.9-4.9-4.4-1.5-6.7-2.2-9.8-3.1-6.6-1.9-8.5-1.9-16.1-3.6l-14.1-3.9-16.8-4.9-8.7-2.8c-1.3-.4-6.7-2.2-14.8-5.2s-7.8-3.2-11.7-4.4-4.6-1.2-11-3.2-9.4-3.1-11.2-3.8l-1.8-.7-3.8-1.5-3.1-1.4c-3.1-1.4-3.7-1.9-5.2-2.6a34.3,34.3,0,0,0-6.9-1.7l-7.2-1c-5.1-.6-9-2.1-17-5-4.3-1.6-4.2-1.8-11.1-4.5a55.1,55.1,0,0,1-7.8-3.2c-1.9-1-2.9-1.7-8.1-5.5-9-6.6-10.1-7.4-11.4-8.6-3.2-3-4.8-4.4-6.3-7s-1.5-2.8-3.4-10.6c-1.2-5-1.6-7.3-2.6-11.9-1.3-6.2-2.1-8.7-2.7-11.5-2.1-9.2-1.6-16.8-.5-31.8.1-1.2.7-8.6,2.3-17.5a93.5,93.5,0,0,1,2.2-9.5,40.9,40.9,0,0,1,3.1-7.8c.5-.9,2-3.1,5-7.5a28.1,28.1,0,0,1,2.6-3.4,25.1,25.1,0,0,1,2.5-2.6c1.9-1.7,2.9-1.9,5.8-3.5s4.5-3,7.4-5.1a40.7,40.7,0,0,1,3.9-2.8,18.1,18.1,0,0,1,3-1.8c1.4-.6,1.7-.3,3.5-.9a18.7,18.7,0,0,0,3-1.4,12.4,12.4,0,0,0,2-2Z" transform="translate(-50.9 -34.2)" fill="#c1e0ea"/><path d="M1103.4,1195.7q-.5,103.5-1,206.8H641.6c-.3-13.3-.1-24,.2-31.5.2-4.4.5-11.8,1.3-26.6s.7-13.6,1-19.4c.4-8.8.5-13,1-19.8.2-2.4.4-4.5.7-8.6s.3-5.7.6-8.9.6-5.4.8-7.1l35-7.6c43.5-9.6,47.1-10.7,63.2-13.9,30.2-6,45.5-7.9,88.6-15.3l96.6-16.8c41-7.3,50.1-9.2,108.8-19.7Z" transform="translate(-50.9 -34.2)" fill="#c1e0ea"/><path d="M291.1,1358.1l.6-.2c-.4,6.7-.7,12-.8,15.7s-.1,4.8-.3,8.9c-.3,7.3-.5,10-.6,10.9s-.5,5.5-1,9H194.3Z" transform="translate(-50.9 -34.2)" fill="#c1e0ea"/><path d="M353.6,1048.1c.2,1.7-.2,4-1.2,8.4a93.4,93.4,0,0,1-3.1,11c-1.6,5.1-1.6,4.3-2.3,6.6s-1,5.1-1.6,13.2c-.4,6.1-.6,9.1-.6,10.5s.2,3.2,1.6,15.9a102,102,0,0,1,.6,12.2,27.3,27.3,0,0,1-.9,6.4c-.3,1.1-.8,2.4-1.7,4.9s-1.5,3.8-1.6,4c-1.4,3.7-2.3,7-5.9,18.9-1.4,4.4-1.5,4.9-1.9,6.3-1.3,5-1.6,7.3-2.3,10.4s-1.6,4.9-4.4,12.6a138.3,138.3,0,0,0-5.3,16.2c-2.2,8.2-1.8,10.4-4.1,15.9-.9,2.4-1.5,3.9-2.5,6.9a34.9,34.9,0,0,0-1.7,6.2,16,16,0,0,0-.4,3.2c-.3,3.1-.1,4-.3,6.2a37,37,0,0,1-.9,4,71.9,71.9,0,0,1-3,8.5,61.8,61.8,0,0,0-2.9,8.8c-.4,2.6,0,2.2-.7,8.3a31.5,31.5,0,0,1-1.1,7.1,58.9,58.9,0,0,1-2,5.8c-.7,2.1-1.9,5.3-2.7,8.5s-.6,4.2-1.4,9.4c-.2,1.3-.4,2.5-1.9,10.1-3,15-3.3,15.8-3.7,19.3a94.2,94.2,0,0,0-.6,12.2h-.7l-129.2,56.2H51.8L55.5,336.9l11.9-.5h6.8c3.3,0,4.2.1,5.4.6a12.1,12.1,0,0,1,4.3,3.5,19.6,19.6,0,0,1,2.5,4.2,17.5,17.5,0,0,1,1.5,8.3,24,24,0,0,1-3.1,11.3c-1.1,2.2-1.5,2.8-3.1,5.8a60.6,60.6,0,0,0-3.4,6.7,36.6,36.6,0,0,0-2.1,5.8c-1.2,4.4-2.3,8.2-1.1,12.3.6,1.8,1.4,3,3.2,5.5s2.5,3.4,8.5,9.1c4.4,4.1,7,6.6,10.8,9.7a22,22,0,0,1,4.4,3.9,20.1,20.1,0,0,1,4.3,8.9c1.4,5.8.4,11-.6,16a71.2,71.2,0,0,0-1.3,8.2,45,45,0,0,0-.2,5.8c.2,9-.5,20.2-.9,25.3-.5,8.9-.9,8.4-1.1,14.3a68.7,68.7,0,0,1-.6,10.2c-.5,3.4-.7,3.2-1,6-.6,4.3-.2,5.7-.4,12.3,0,2.2-.1,5.3-.4,9s-.8,5.9-1.6,11-1.6,10-2.2,17.1-.1,7.5-.9,12.5-1.2,6.2-2.5,11.8c0,0-1.8,8.2-3.1,16.8-1,6.3-1.3,11-2,20.3s-1.1,15.3-1.1,20.1a92.9,92.9,0,0,1-1,13.8c-.4,2.7-.6,3.3-1.2,6.9-.3,1.8-.8,5.4-1.3,11.7-.4,4.5-.5,7.9-.7,14.7-.2,4-.3,7.6-.7,13.2,0,1.2-.1,2.3-.2,3.9-.5,5.7-1,9.9-1.2,11.6-.5,4-.8,8.1-1.3,16.1s-.8,13.8-.9,22.7c0,1.3.3,8.7.9,23.4.3,8.2.5,12.4,1.4,17.1,1.4,6.6,2.5,10.4,2.5,10.4a81.4,81.4,0,0,1,2.3,9.2c.3,1.9.5,3.5.5,3.5.3,2.2.2,2.7.4,3.9a39,39,0,0,0,1.3,4.8c1.6,4.6,2.2,6,3,8.2,1.4,4.1,1.1,4.3,2.2,7.6a77.1,77.1,0,0,0,3.8,8.7c3.8,7.7,7.5,13.5,11.6,20.2,2,3.1,3.1,4.8,4.2,6.3a76.7,76.7,0,0,0,7.1,8.9c2.4,2.5,2.7,2.4,6.3,6.1s4.5,4.7,5.5,5.8a146.8,146.8,0,0,0,16.9,15.9l14.4,9.6c4.7,3.2,9.3,6.2,15.1,9.9l7.7,4.6,7.7,4.4c5.3,3.2,5.4,4.1,9.2,6.3s5.1,2.1,10.9,4.5,5.8,2.8,13.2,6.7c9.3,5,10,4.9,16,8.2,8.8,4.7,9.2,5.9,26.2,16.7,8.4,5.4,12.7,8.1,17.1,10.5a181.6,181.6,0,0,0,24,11c3.8,1.4,5.1,1.7,11.2,4,11.6,4.3,14.1,5.8,15.9,7,4,2.7,6.4,5.4,9.5,8.9C350.6,1040.9,353.1,1043.8,353.6,1048.1Z" transform="translate(-50.9 -34.2)" fill="#c1e0ea"/><path d="M163.2,1402.3H51.8L55.5,336.9q.6-150,1.1-300.1l656.8-1.1L1109,35q-1.9,416.1-4,832.2l-1.5,313.3c0,5.1-.1,10.2-.1,15.2q-.5,103.5-1,206.8H163.2" transform="translate(-50.9 -34.2)" fill="none" stroke="#000" stroke-linecap="round" stroke-linejoin="round" stroke-width="1.7"/><path d="M163.2,1402.3h0l129.2-56.2h.7c90-19.6,161.3-35.5,210.9-46.5l146.9-32.9,34.3-7.7c13.1-3.2,33.5-8.1,61.8-13.8,30.8-6.2,36.3-6.4,89.4-16,33.9-6.2,36.7-7,74.5-13.8,26.5-4.8,45-8,56.3-9.9,30.4-5.3,75.3-13.2,136.3-24.9" transform="translate(-50.9 -34.2)" fill="none" stroke="#000" stroke-miterlimit="10" stroke-width="1.13"/><path d="M1103.4,1195.7l-64,11.5c-58.7,10.5-67.8,12.4-108.8,19.7L834,1243.7c-43.1,7.4-58.4,9.3-88.6,15.3-16.1,3.2-19.7,4.3-63.2,13.9l-35,7.6-41.7,9.1c-79.3,17.2-107.2,23.6-188.6,41.4-29.5,6.4-72.5,15.7-125.2,26.9l-.6.2-96.8,44.2" transform="translate(-50.9 -34.2)" fill="none" stroke="#000" stroke-miterlimit="10" stroke-width="1.13"/><path d="M55.5,336.9l11.9-.5h6.8c3.3,0,4.2.1,5.4.6a12.1,12.1,0,0,1,4.3,3.5,19.6,19.6,0,0,1,2.5,4.2,17.5,17.5,0,0,1,1.5,8.3,24,24,0,0,1-3.1,11.3c-1.1,2.2-1.5,2.8-3.1,5.8a60.6,60.6,0,0,0-3.4,6.7,36.6,36.6,0,0,0-2.1,5.8c-1.2,4.4-2.3,8.2-1.1,12.3.6,1.8,1.4,3,3.2,5.5s2.5,3.4,8.5,9.1c4.4,4.1,7,6.6,10.8,9.7a22,22,0,0,1,4.4,3.9,20.1,20.1,0,0,1,4.3,8.9c1.4,5.8.4,11-.6,16a71.2,71.2,0,0,0-1.3,8.2,45,45,0,0,0-.2,5.8c.2,9-.5,20.2-.9,25.3-.5,8.9-.9,8.4-1.1,14.3a68.7,68.7,0,0,1-.6,10.2c-.5,3.4-.7,3.2-1,6-.6,4.3-.2,5.7-.4,12.3,0,2.2-.1,5.3-.4,9s-.8,5.9-1.6,11-1.6,10-2.2,17.1-.1,7.5-.9,12.5-1.2,6.2-2.5,11.8c0,0-1.8,8.2-3.1,16.8-1,6.3-1.3,11-2,20.3s-1.1,15.3-1.1,20.1a92.9,92.9,0,0,1-1,13.8c-.4,2.7-.6,3.3-1.2,6.9-.3,1.8-.8,5.4-1.3,11.7-.4,4.5-.5,7.9-.7,14.7-.2,4-.3,7.6-.7,13.2,0,1.2-.1,2.3-.2,3.9-.5,5.7-1,9.9-1.2,11.6-.5,4-.8,8.1-1.3,16.1s-.8,13.8-.9,22.7c0,1.3.3,8.7.9,23.4.3,8.2.5,12.4,1.4,17.1,1.4,6.6,2.5,10.4,2.5,10.4a81.4,81.4,0,0,1,2.3,9.2c.3,1.9.5,3.5.5,3.5.3,2.2.2,2.7.4,3.9a39,39,0,0,0,1.3,4.8c1.6,4.6,2.2,6,3,8.2,1.4,4.1,1.1,4.3,2.2,7.6a77.1,77.1,0,0,0,3.8,8.7c3.8,7.7,7.5,13.5,11.6,20.2,2,3.1,3.1,4.8,4.2,6.3a76.7,76.7,0,0,0,7.1,8.9c2.4,2.5,2.7,2.4,6.3,6.1s4.5,4.7,5.5,5.8a146.8,146.8,0,0,0,16.9,15.9l14.4,9.6c4.7,3.2,9.3,6.2,15.1,9.9l7.7,4.6,7.7,4.4c5.3,3.2,5.4,4.1,9.2,6.3s5.1,2.1,10.9,4.5,5.8,2.8,13.2,6.7c9.3,5,10,4.9,16,8.2,8.8,4.7,9.2,5.9,26.2,16.7,8.4,5.4,12.7,8.1,17.1,10.5a181.6,181.6,0,0,0,24,11c3.8,1.4,5.1,1.7,11.2,4,11.6,4.3,14.1,5.8,15.9,7,4,2.7,6.4,5.4,9.5,8.9,4.7,5.3,7.2,8.2,7.7,12.5.2,1.7-.2,4-1.2,8.4a93.4,93.4,0,0,1-3.1,11c-1.6,5.1-1.6,4.3-2.3,6.6s-1,5.1-1.6,13.2c-.4,6.1-.6,9.1-.6,10.5s.2,3.2,1.6,15.9a102,102,0,0,1,.6,12.2,27.3,27.3,0,0,1-.9,6.4c-.3,1.1-.8,2.4-1.7,4.9s-1.5,3.8-1.6,4c-1.4,3.7-2.3,7-5.9,18.9-1.4,4.4-1.5,4.9-1.9,6.3-1.3,5-1.6,7.3-2.3,10.4s-1.6,4.9-4.4,12.6a138.3,138.3,0,0,0-5.3,16.2c-2.2,8.2-1.8,10.4-4.1,15.9-.9,2.4-1.5,3.9-2.5,6.9a34.9,34.9,0,0,0-1.7,6.2,16,16,0,0,0-.4,3.2c-.3,3.1-.1,4-.3,6.2a37,37,0,0,1-.9,4,71.9,71.9,0,0,1-3,8.5,61.8,61.8,0,0,0-2.9,8.8c-.4,2.6,0,2.2-.7,8.3a31.5,31.5,0,0,1-1.1,7.1,58.9,58.9,0,0,1-2,5.8c-.7,2.1-1.9,5.3-2.7,8.5s-.6,4.2-1.4,9.4c-.2,1.3-.4,2.5-1.9,10.1-3,15-3.3,15.8-3.7,19.3a94.2,94.2,0,0,0-.6,12.2" transform="translate(-50.9 -34.2)" fill="none" stroke="#000" stroke-miterlimit="10" stroke-width="1.42"/><path d="M713.4,35.7a12.4,12.4,0,0,1-2,2,18.7,18.7,0,0,1-3,1.4c-1.8.6-2.1.3-3.5.9a18.1,18.1,0,0,0-3,1.8,40.7,40.7,0,0,0-3.9,2.8c-2.9,2.1-4.9,3.6-7.4,5.1s-3.9,1.8-5.8,3.5a25.1,25.1,0,0,0-2.5,2.6,28.1,28.1,0,0,0-2.6,3.4c-3,4.4-4.5,6.6-5,7.5a40.9,40.9,0,0,0-3.1,7.8,93.5,93.5,0,0,0-2.2,9.5c-1.6,8.9-2.2,16.3-2.3,17.5-1.1,15-1.6,22.6.5,31.8.6,2.8,1.4,5.3,2.7,11.5,1,4.6,1.4,6.9,2.6,11.9,1.9,7.8,2.7,9.5,3.4,10.6s3.1,4,6.3,7c1.3,1.2,2.4,2,11.4,8.6,5.2,3.8,6.2,4.5,8.1,5.5a55.1,55.1,0,0,0,7.8,3.2c6.9,2.7,6.8,2.9,11.1,4.5,8,2.9,11.9,4.4,17,5l7.2,1a34.3,34.3,0,0,1,6.9,1.7c1.5.7,2.1,1.2,5.2,2.6l3.1,1.4,3.8,1.5,1.8.7c1.8.7,6.1,2.2,11.2,3.8s6.3,1.6,11,3.2,3.8,1.4,11.7,4.4,13.5,4.8,14.8,5.2l8.7,2.8,16.8,4.9,14.1,3.9c7.6,1.7,9.5,1.7,16.1,3.6,3.1.9,5.4,1.6,9.8,3.1,6.8,2.3,8.7,3.2,13.9,4.9,2.8,1,6.6,2.1,14,4.3l21.9,6.4,7.8,2c6,1.5,6.3,1.3,9.1,2.2s4.8,1.7,9.6,3.6l7.3,3c1.8.7,4,1.6,6.5,2.4,5.5,1.9,7.2,1.9,12.2,3.5a92.7,92.7,0,0,1,9.4,3.5c3.1,1.2,3,1.3,15.7,7.3,7.4,3.5,6,2.7,7.7,3.6l4.6,2.1a52.3,52.3,0,0,0,6,2c2,.7,4.2,2,8.8,4.4s6.1,3.5,8.3,4.8l7.2,4.3c5.3,3.3,6.1,3.7,7.4,4.8s2.2,2.4,4.6,4.3,2.4,1.6,4.1,3a33.2,33.2,0,0,1,3.7,3.5,57,57,0,0,1,5.8,7.5,101.8,101.8,0,0,1,8.1,15.6,134.4,134.4,0,0,1,4.6,12.8,105.6,105.6,0,0,1,3.8,12.7,70.9,70.9,0,0,1,1.1,15.9c-.1.7-.1,1.7-.8,8.2-.8,8.4-1.2,12.6-1.5,14.6-1.1,7.6-2.4,16-7.4,24.7a39.5,39.5,0,0,1-5.8,8.1c-3.1,3.3-4,3.1-7.4,6.8s-2.8,3.9-6.1,7.4-1.9,1.7-4.8,4.7-5.5,6-5.7,6.3-1.4,1.7-2.2,2.5a38,38,0,0,1-4.8,4.5c-5.8,4.6-1.7,1.7-13.2,10.9-4.6,3.8-5.6,4.5-7.4,6.4s-1.9,2.3-5,5.9-3.4,3.9-6.6,7.3c-5.7,6.2-5.2,5.5-7.1,7.7-3.5,4.1-5.4,6.3-7.3,9.8s-.8,2.6-3.8,9.5c0,0-1.5,3.5-3.9,8s-2.5,4.6-3.3,5.4c-1.9,2.3-3,2.4-4.7,4.3s-1.9,2.3-4.1,7.6-2.4,6.8-4.2,11.7-2,5-3.5,9.3-2.5,8-3.8,12.6-1.8,7.1-2.6,9.9c-4.4,16.8-7,19.3-8.7,30.1a103.4,103.4,0,0,0-1.1,11.1c-.2,4.7.1,4.8-.1,8.9a104.1,104.1,0,0,1-2,15.2c-1.3,6.4-1.5,5.5-2.2,9.7-1.2,8.2.1,8.3-1.2,14.9s-2.2,6.7-2.4,11.7c0,1.8.1,2.7-.1,6.1s-.3,4.4-.5,7.6-.2,4.4-.2,7c-.2,10.9-.3,32.5-.5,46.6-.1,5.1-.2,9-.3,14.5-.3,9.5-.5,13.3-.5,21V817c.2,15.8.1,17.3-.2,19.5s-.6,4.7-.7,8.5c-.1,1.9,0,2.7-.1,5.6s-.2,4.1-.4,6c-.5,3.7-.9,3.8-1.2,6.9a49.7,49.7,0,0,0,0,6.9s0,1.3-.1,7.6a214.6,214.6,0,0,1-1.6,21.9c-.6,4.6-.5,3.4-1.8,14a143.2,143.2,0,0,0-1.4,14.9c0,5.4.2,9.8.2,9.8.1,1.7.3,3.8.3,6.9,0,0,0,2.3-.1,4.4-.3,6.1-2.4,13.4-3.9,18.9-2.5,9.2-1.5,7.5-3.3,13.7a97.3,97.3,0,0,1-7.3,18.7,124,124,0,0,1-7.2,11.4c-2.2,3.4-5,7.6-8.8,12.5a117,117,0,0,1-11.7,13.8c-7.7,7.6-10.5,7.5-21,16.7-5.6,4.9-3.9,4.2-10.7,10.3a226.6,226.6,0,0,1-22.9,18.2c-3.8,2.7-5.4,3.6-11.9,8.1s-6.4,4.7-9.6,6.7c-5.7,3.7-7.4,4.1-14,8.3-3.1,1.9-4.2,2.7-7.8,5.1-6.3,4.3-10.8,7.1-19.9,12.7l-19.8,12c-3.3,2-5.5,3.2-8.6,5.4-4.9,3.3-5.3,4.1-9.8,6.9-1.5,1-1.2.8-8.4,5l-6.4,3.9c-3.6,2.3-5,3.4-11.2,7.9l-9.8,6.9c-8.3,5.9-9.1,6.5-10.8,8a99.8,99.8,0,0,0-7.3,7.9c-2.3,2.6-3.9,4.6-5.8,7-3.3,4.3-5,6.4-6.1,8.2-2.6,4.2-2,4.6-5.1,10.4s-3.2,4.6-5.4,9.1c-.9,1.8-1.8,3.9-3.6,8.1-1,2.3-1.9,4.5-2.7,6.5a125.6,125.6,0,0,0-6.1,19.4c-.5,2.2-1.2,5.3-1.7,9" transform="translate(-50.9 -34.2)" fill="none" stroke="#000" stroke-miterlimit="10" stroke-width="1.42"/><path d="M291.7,1357.9c-.4,6.7-.7,12-.8,15.7s-.1,4.8-.3,8.9c-.3,7.3-.5,10-.6,10.9s-.5,5.5-1,9" transform="translate(-50.9 -34.2)" fill="none" stroke="#000" stroke-miterlimit="10" stroke-width="1.42"/><path d="M647.2,1280.5c-.2,1.7-.5,4.1-.8,7.1s-.3,4.9-.6,8.9-.5,6.2-.7,8.6c-.5,6.8-.6,11-1,19.8-.3,5.8-.2,3.5-1,19.4s-1.1,22.2-1.3,26.6c-.3,7.5-.5,18.2-.2,31.5" transform="translate(-50.9 -34.2)" fill="none" stroke="#000" stroke-miterlimit="10" stroke-width="1.42"/><path d="M349,1345.7l-2,9c-1.3,6.3-1.4,8.1-3.3,20.5s-2.6,15.1-2.6,21.6c0,2.3.1,4.3.2,5.6" transform="translate(-50.9 -34.2)" fill="none" stroke="#000" stroke-miterlimit="10" stroke-width="0.99"/><path d="M395.3,1335.7a100.4,100.4,0,0,1-2.6,11c-1.2,3.9-2.3,6.6-3,8.5-2.7,6.9-4.1,12.5-6.2,21.2s-3.2,14.8-4.1,20.2c-.4,2.3-.8,4.3-1,5.8" transform="translate(-50.9 -34.2)" fill="none" stroke="#000" stroke-miterlimit="10" stroke-width="0.99"/><path d="M430.4,1328c-.1,2.7-.2,4.5-.3,5.6s-.1,1.6-.1,2.6.1,1.3.1,2.3a14.2,14.2,0,0,0-.1,1.9,11.4,11.4,0,0,1-.6,2.5,14.4,14.4,0,0,1-.7,2.3,5.7,5.7,0,0,1-.9,1.6l-2,3.8a56.6,56.6,0,0,0-3.3,7.5c-1.4,3.3-4,9.7-6.8,18.1-.8,2.6-.9,3.1-2.1,6.6-1.8,5.5-2.3,6.6-3,9.2a66.7,66.7,0,0,0-2.2,10.4" transform="translate(-50.9 -34.2)" fill="none" stroke="#000" stroke-miterlimit="10" stroke-width="0.99"/><path d="M527.4,1306.7a31.9,31.9,0,0,1,4.1,4.8,29.9,29.9,0,0,1,3.8,7.3c.8,2.5,1.5,4.5,1.2,7.3a11.6,11.6,0,0,1-1.4,4.2,36.7,36.7,0,0,1-6.8,10c-8.3,8.3-13.3,11.1-20.1,18.1a74.5,74.5,0,0,0-12.3,16.2,103.8,103.8,0,0,0-5.9,12.6c-2.6,6.2-4.5,11.4-5.7,15.2" transform="translate(-50.9 -34.2)" fill="none" stroke="#000" stroke-miterlimit="10" stroke-width="0.99"/><path d="M574.1,1296.4a77,77,0,0,1-2.9,11.1c-1.2,3.3-1.8,4.3-3.4,8.5s-3.4,9.9-4.2,12.3c-1.7,5.9-1.6,6.9-3.9,15-1.2,4.5-1.4,4.7-2,7.1s-2,8-3.9,28.2c-.6,6.1-.8,8.4-1.5,12.6s-1.5,8.6-2.1,11.2" transform="translate(-50.9 -34.2)" fill="none" stroke="#000" stroke-miterlimit="10" stroke-width="0.99"/><path d="M606.4,1289.4a29.9,29.9,0,0,0-2.8,6.1c-.6,1.9-.5,2.4-1.5,7s-1,4.1-1.7,7.8c0,0-.7,3.2-1.2,6.2-1.1,6.1-1.1,9.8-1.8,19.6-.4,6.4-.4,5-.8,10.5s-.8,11.8-.9,20.4.2,13.4.4,17.3c.3,7.1.8,13.2,1.3,18.1" transform="translate(-50.9 -34.2)" fill="none" stroke="#000" stroke-miterlimit="10" stroke-width="0.99"/><path d="M56.3,119.3a49.4,49.4,0,0,1,5.2,2.6c2.3,1.3,3.1,2,4.6,2.9s1.8,1.1,8.6,3.8,7.9,3.1,9.5,3.6c3.7.9,4.2.5,6.2,1.5s1.2.8,6.2,5.2a34.9,34.9,0,0,1,6.1,5.7l1.7,2.1,2.7,3.5c2.2,3,4,5,4.9,6.2,2.2,2.8,2.4,4.4,5.5,13.3,1.2,3.1,2.3,6.1,4.6,12,2.9,7.4,5,12.5,5.5,13.6,2.7,6.5,2.8,6.2,4.5,10.5a92,92,0,0,1,4.1,12c.5,1.8.6,2.5,1.2,4.5,1.1,3.8,1.7,4.8,2.3,7.3s.3,2.6.5,5.3c.6,6.7.3,7.6.9,12,.3,2.4.5,3.8.9,5.8a24.2,24.2,0,0,1,1,5.1,33.6,33.6,0,0,1,.1,3.8c0,2.1,0,4.2.1,5.5s.2,2.4.8,7.6a74.8,74.8,0,0,1,.7,7.5,38.4,38.4,0,0,1-.1,4.7,42.3,42.3,0,0,1-1,6.7c-3.8,15.5-5.8,23.7-7,29.6-.9,4-1.1,5.7-2.1,8.9a63.6,63.6,0,0,0-1.8,6.6c-.1.7-.2,1.5-.4,5.8a92,92,0,0,0-.3,9.4,43.4,43.4,0,0,0,1,7c.7,4.3,1.3,6.2,2.2,10.2s1.5,6.6,2.1,10.6c.7,5.7.9,11.5,1.1,16.3a30.1,30.1,0,0,0,.3,4.6c.3,2.5.5,2.9.9,5.8s.4,4.5.5,5.6.1,3.7.1,4.4a144.7,144.7,0,0,0,.9,17.3c.4,3.7.5,3.1.9,6.6.1,1.3.2,2.3.8,11.6.1,2.4.2,3.4.3,5.1s.3,3.5.7,6c.5,4.3.9,4.6,1.6,9.5.4,3.2.5,4.8.6,5.5.2,2.6.1,4.6.1,5.4-.3,12.4.2,17.4-.7,29.1-.4,6-.7,7.2-1,11.5,0,0-.3,3.7-.7,6.4l-.4,1.7c-.2,1.1-.3,1.9-.3,2a71,71,0,0,0-.6,8.6c0,.5-.1,2-.4,5s-.2,2.6-.4,4.1-.3,2-.4,2.8l-1.4,7.3c-.1.6-.1.8-.4,6.6s-.4,6.7-.4,7.8c-.4,4.6-.6,4.6-.7,7.6s-.1,3.9,0,8.6.1,8.9.1,9.4c.3,10.7.7,12.5,1,23.1.2,7.9.1,7.8.3,12.2.4,6.8.8,7.2,1.2,14.4.3,5.7.4,10.6.4,13.9s.1,5.3,0,6.9a90.6,90.6,0,0,1-1.6,14.2c-.7,4-1.2,6.3-1.2,6.3a49.7,49.7,0,0,0-1.1,7.3c0,.3,0,1.3.1,3.2,0,3.7.1,5.5.2,7.3s.4,2.5.5,4.4a32.8,32.8,0,0,1-.2,5.2c-.8,7.2-.2,6.2-1.8,20.9-1,8.8-1,8-1.4,12.1-.1,1.9-.3,4.3-.8,7.7s-.7,4-1,5.7-.6,3.1-1.6,12.2-1.3,14.3-1.3,14.3c-.4,4.1-.5,5.6-.9,8.4-.6,4.8-.8,4.7-1.1,8s-.2,4.1-.6,10.2c-.2,3.8-.3,3.5-.4,5.6a68.8,68.8,0,0,0,.5,12.8c.2,1.5.4,2.7,3,12.1,2,7.2,3,10.7,3.3,11.5a79.3,79.3,0,0,0,8.8,17,47.7,47.7,0,0,0,4.3,5.8c1.9,2.1,3.3,3.1,5.8,5.4s2.6,2.4,7.7,7.1,7.5,6.8,10.4,9.1,5.5,4.1,9.5,6.9,6.8,4.4,11.1,7.6L197,927a105.7,105.7,0,0,0,9.9,7.4c3.4,2.2,6.2,3.7,8.2,4.8,5.3,2.8,9.5,4.5,12.8,5.9a127.1,127.1,0,0,0,14.4,5.1c8.1,2.4,8.2,1.5,14.5,3.7a86.8,86.8,0,0,1,13.7,6.1l8.5,5,5.7,3.4,6.6,3.6,12.3,6.7,18.2,9.8c12.3,6.7,13.8,7.5,16.4,8.7a64.9,64.9,0,0,1,6.7,3.3c2.7,1.4,3.7,2.2,6.4,3.6l5.9,2.7c7,2.9,9.6,3.7,15.9,6.3s4,1.9,7.3,3.1,4.1,1.6,14.8,4.8c5.4,1.6,5.8,1.7,7.7,2.4,7,2.3,9.9,3.9,10.9,4.5l5.9,4c5.6,3.9,7.7,5.6,9.5,7.9a12.8,12.8,0,0,1,2.6,4.9,13.4,13.4,0,0,1,.4,3,54.3,54.3,0,0,1,.2,5.6,20.2,20.2,0,0,1-.3,2.9,5.4,5.4,0,0,1-.4,1.5,9.7,9.7,0,0,1-1.2,2.1,10.2,10.2,0,0,0-.8,1.4,21,21,0,0,0-1.6,3.6c-.9,2.4-2.1,4.6-3.1,7-1.9,4.3-3.8,8-5.8,11.7-.6,1.3-3.2,6.2-6.7,12.4-2.3,4.1-3.3,5.6-5,9.1s-1.6,3.6-3.4,7.1-3.1,5.4-6.1,11.1c-1.1,2-1.9,3.5-2.6,5-4.2,8.2-8.8,17.3-12.2,27.8-1.3,4.1-2.2,7.6-2.2,7.6-.9,3.3-1,4.2-2,8.5l-2.1,7.9-2.8,9.9c-2.8,9.5-4.1,14.3-4.4,15.4-1.8,6-2.4,7.7-3.3,11.4s-.6,3.4-1.4,6.5c-.3,1.3-.9,3.7-2.5,9.3s-1.9,6.2-3,10.3-1.9,6.7-2.6,10.1c-1.1,5.6-.8,6-2,13s-1.5,6.3-2.3,11.5-.9,6.7-1.4,11.6-.7,8.8-1,15.4c-.2,5.1-.1,9.8,0,19,.1,4.2.2,7.7.2,10.1" transform="translate(-50.9 -34.2)" fill="none" stroke="#000" stroke-miterlimit="10" stroke-width="0.99"/><path d="M56,201.7c2.6.4,5.8.8,9.3,1.5a24.4,24.4,0,0,1,6,1.7l1.8,1c1.7.9,1.7,1.1,2.6,1.5a13.1,13.1,0,0,0,2.9.6l2.2.4c2.2.2,6.8,2.2,11.1,5.5a40.6,40.6,0,0,1,6.8,6.7,37.6,37.6,0,0,1,5.7,11.2,40.2,40.2,0,0,1,1.1,4,38.3,38.3,0,0,1,.9,8.6c.2,3.4.1,6,.1,6.4-.1,11-.2,16.5,1,22.1s1.4,4.4,2.3,9.3a89.5,89.5,0,0,1,1.3,10.4c.1,1.2.3,3.3.4,5.2s.2,3.1.3,4.3c.3,4.9.1,5.9.4,10.4.1,1.4.2,2.5.4,4.5a25.1,25.1,0,0,0,.4,2.7c.2,1,.4,1.8.5,2.2a12.3,12.3,0,0,0,.6,1.7,26.2,26.2,0,0,1,.6,5.7c.1,2,.6,4.5,1.4,9.5.1.5.2,1.3.4,2.4s.4,2.9.6,4.6a25.8,25.8,0,0,1,.2,3.5c.2,4.8.7,9,.8,10.2s.5,3.4,1,7.5.6,4.1.9,5.9.7,4.2,1.3,6.9l1.4,6.3c.2,1.4.4,2.2.6,4,.9,5.8,1,5.8,1.8,10.9s1,6.2,1.2,7.7c.4,4.2.2,4.4.7,9.7s.6,4.5.7,7.5a27.2,27.2,0,0,1,0,6.4c-.2,2.2-.5,2.4-1.4,6.4-.2,1.1-.7,3.5-1.1,6.4s-.3,3.9-.8,8c-.1,1.7-.5,3.7-1.1,7.7l-1.3,7.5c-.5,3.5-1.1,7.3-1.4,11.9s.1,4.6-.1,10.1c-.2,2.8-.5,5.5-1.1,10.8-.9,7.9-1,7.8-1.1,10.2a73.3,73.3,0,0,0,.6,10.2c0,.4.3,3,.6,6.2.1,1.1.1,2.2.2,3.4V535a59.8,59.8,0,0,1-1.4,8.1c-.2,1.1-.1.7-1,8-.6,5.5-1,8.3-1.2,9.9-.7,3.9-.9,4.2-2,9.6-.4,2-1,5.6-1.7,10-.9,6.6-.7,7.7-1.6,13.9a54.1,54.1,0,0,0-.7,5.8c-.1,1.2-.1,2.2-.3,3.8s-.4,1.9-.6,3.5a25.7,25.7,0,0,0-.2,6c0,.4.2,1.4.4,3.6s.3,2.6.5,4.3.4,3.1.6,4.5.4,2.3.6,3,.6,2,1.1,3.8a24.2,24.2,0,0,1,.5,2.4c.6,2.7.7,3.1,1,4.7a21.9,21.9,0,0,1,.6,3.3l.8,5c.4,3,.9,3.8,2.9,10.9,1.5,4.9,1.2,4.4,2,7s1.4,4,3.2,8.8c3,7.6,2.4,6.7,3.5,9.2s1.4,3,5.7,10.4l5,8.7" transform="translate(-50.9 -34.2)" fill="none" stroke="#000" stroke-miterlimit="10" stroke-width="0.99"/><path d="M396.8,1323.3a48.6,48.6,0,0,0,1.2-6,66.8,66.8,0,0,0,.7-6.9c.1-1,.2-2.9.2-7.3,0-8.8-.3-10,.2-13.7l.9-5.2a26.6,26.6,0,0,1,.8-4.4c.2-.8.4-1.5.8-2.8s1.2-3.5,1.7-5.2.8-2.5,1.3-4.7.6-4.3.9-8.8c.1-1.5.4-5.3.6-7.7.5-6.2,1-6.1,2.4-15.8.6-4.7.7-6.4,1.7-9.4.2-.8.2-.9,2.4-6.2,2.8-6.9,3-7.6,3.9-9.5s1.4-2.7,3.1-5.8,2.9-5.2,4-6.4a17.5,17.5,0,0,1,3.7-2.8,16.1,16.1,0,0,1,4.5-2,14,14,0,0,0,2.4-.6c1.3-.4,1.6-.7,2.6-1a12.7,12.7,0,0,1,3.1-.4c2.9-.1,4.8,0,4.8,0,5,.2,7.5.3,9.2.8s1.7.7,3.6,1.3a30.8,30.8,0,0,0,6.4.7,61.6,61.6,0,0,1,7.2.9l5.7,1.2,8,1.9a65.1,65.1,0,0,0,14.5,1.4,10.6,10.6,0,0,1,2.9-.1,26.9,26.9,0,0,1,3.4.2,39.7,39.7,0,0,1,5.1,1.1c1.4.5,3.8.9,8.7,1.9a160.7,160.7,0,0,0,16.1,2c7.2.6,6.7.3,11,.9a96.4,96.4,0,0,1,13.1,2.8,20.8,20.8,0,0,1,6.2,2.4l3.8,2.7c3.6,2.5,4,2.3,6.4,4a26.2,26.2,0,0,1,6,5.8,24,24,0,0,1,3.1,6.3c.3,1.2.3,1.4,1.2,8.8.4,3.2.6,4.2.7,6a42.1,42.1,0,0,1,.1,6,25.1,25.1,0,0,1-.4,3c-.7,4.9-1.3,5.7-2,9.9l-1,6.7c-.2.9-.4,2.1-.8,3.7l-1,2.7c-.9,2.5-1,2.8-1.3,3.9a22.6,22.6,0,0,0-.7,2.8" transform="translate(-50.9 -34.2)" fill="none" stroke="#000" stroke-miterlimit="10" stroke-width="0.99"/><path d="M431.2,1315.7c.6-2.3,1.4-5.1,2.4-8.2,1.8-6,2.2-7.4,3.1-9.4s.2-.4,3-6.3,3-6.2,4.3-8a26.5,26.5,0,0,1,3.7-4.3,34.9,34.9,0,0,1,4.7-4,36.1,36.1,0,0,1,10.5-5l8.7-1.9c3.5-.7,4.6-.8,6-.7a15,15,0,0,1,6.6,2,17.7,17.7,0,0,1,5.4,4.9,60.8,60.8,0,0,1,4.2,7,25.1,25.1,0,0,0,2.4,3.8,41.9,41.9,0,0,0,3,3.5c2.3,2.5,2.6,3,3.3,3.6a20.5,20.5,0,0,0,8,5.3" transform="translate(-50.9 -34.2)" fill="none" stroke="#000" stroke-miterlimit="10" stroke-width="0.99"/><path d="M665.2,35.8,662,40.4l-3.1,4.3-2.8,3.7c-5.6,7.3-8.4,10.9-10.3,13.7a117.2,117.2,0,0,0-6.5,11,76.1,76.1,0,0,0-3.1,7.4c-1.7,4.6-2.3,8.1-3.7,14.9a97.5,97.5,0,0,0-1.6,10.8,65.7,65.7,0,0,0,.3,9.1c.3,2.3.6,4,.9,5.9a111.2,111.2,0,0,0,3,12.3c1.5,4.7,3,8.1,3.5,9.4a128.6,128.6,0,0,0,7.3,13.6,79.4,79.4,0,0,0,4.7,7.6c1.8,2.4,2.7,3.1,8.2,9.1l3.6,4.1,7.7,8.1c4.8,5,5.4,5.5,6.6,6.6l4.9,3.7,5.2,4.2a73.6,73.6,0,0,0,8.3,5.4c1.5,1,4.1,2.6,7.5,4.4,5.6,3,7.5,3.5,14.1,6.8s5,2.8,8.8,4.6c7.2,3.2,8.9,2.7,18.5,6.4,5.2,2,5.3,2.4,8.9,3.5a72.4,72.4,0,0,0,12,2.7l7.1.7a102.6,102.6,0,0,1,10.8,2.1c2.1.4,9.2,2.2,26.9,8.2,11.6,3.9,11.8,4.3,17.1,5.8a57.7,57.7,0,0,1,8,2.7c3.5,1.5,4.7,2.6,8.1,3.5s2.2.3,5.4.9l7,1.9,11.7,3.9c7.5,2.6,6.2,1.9,9.4,3.1,5.2,2,6.8,3,15.6,6.5,1.8.7,3.2,1.3,5.1,1.9a74.8,74.8,0,0,0,8.1,2.1c2.2.5,4.6,1.3,9.4,2.8l11.6,3.9a204.3,204.3,0,0,1,21.1,9.5,72.3,72.3,0,0,0,7.8,3.8c3.2,1.2,3.7,1.1,6.5,2.3a90.2,90.2,0,0,1,8.1,4.3c5.3,3,5.4,3.3,8.2,4.7s3.4,1.5,6.5,3.1,4.2,2.4,7.3,4.4c1.1.7,1.4.8,5.9,3.8,6.4,4.1,6.8,4.4,7.7,5.1h0a78.8,78.8,0,0,1,6.5,6.5c3,3.2,2.8,2.4,4.3,4.2s1.7,2.7,4.1,8c1,2.2.2.3,4.4,9.2,2.4,5.1,2.6,5.6,2.8,6.5s.3,1.6,1,8c.3,2.4.4,3.6.5,4a121.8,121.8,0,0,1,.4,12.4c-.2,14.7.6,13.5,0,19.8a110.8,110.8,0,0,1-2.4,13.8,103.1,103.1,0,0,1-2.9,10.8c-.4,1.2-1.3,3.8-3.1,8.1a152.3,152.3,0,0,1-7.3,15.9c-4.5,8.6-5.7,9-11.7,19.8-3,5.2-2.5,4.8-6.4,12-8.3,15.4-9.1,14.9-13.3,23.5a208.2,208.2,0,0,0-9.5,23l-4,11.3c-2.5,6.9-3.9,10.5-5.7,15.4s-2.6,6.2-5.3,13-3.8,9.8-5.2,14.1-.9,3.3-4.4,15.6c-1.3,4.5-2,6.8-2.3,7.7-2.8,9.2-3.4,9.6-3.8,13.1a42.6,42.6,0,0,1-1,7.2c-.3,1.2-.6,1.8-1.3,4.3s-.7,2.6-1.1,4.4-.5,2.4-.8,4.4-.2,2.4-.5,5.5a40.7,40.7,0,0,1-.4,4.1c-.2,2.2-.6,4.7-1.4,10.4s-.9,5.4-1.2,7.2a104.7,104.7,0,0,0-.8,12.8c-.5,13-.7,11.2-.8,17.8s.1,7.7-.2,14c-.1,4.5-.3,5.9-.2,9.3,0,1.4,0,3-.1,5.2s-.5,4.5-.6,5.2c-.5,3.6-.4,6.3-.5,12.6,0,11.4-.4,9.9-.3,18,0,4.8.1,8.7.5,14,.3,2.9.4,2.6,1.1,9.6,1,9.3.8,9.1,1.4,12.6.8,5.8,1.2,6.1,1.8,11.2.3,2.5.4,4.1.7,9.2.5,9.6.8,14.4.8,15.9.1,3.4-.2,8.3-.8,17.9s-.8,13.3-1.2,17-1,6.5-2.4,15.3-1.6,10.7-2.4,16.5c-2.4,15.9-4.6,22.8-8.9,44-.3,1.6-1.3,6.1-2.7,11.9-.4,1.7-.7,2.9-1.2,4.7-1.3,4.7-1.9,6.1-2.8,9.6s-.6,3.4-1.2,5.8a55,55,0,0,1-4.5,12.7,77.3,77.3,0,0,1-7.3,11.8c-1.3,2-2.4,3.5-3.6,5.1s-4.8,6.4-8.5,10.9-7.2,7.5-14.3,14.2c-5.1,4.8-5.1,4.6-14.2,13l-6.7,6-5.3,4.6c-1.8,1.4-4.5,3.5-8.6,6.3-6.6,4.5-9.3,5.7-19.3,11.9l-8.4,5.2c-5.8,3.5-8.6,5-24.7,13.8-10.9,5.9-13.4,7.3-17.3,9.9s-4.7,3.3-8.1,5.3-3.5,1.9-16.5,8.2l-4.8,2.3c-6.3,3.1-6.3,3.4-9.6,5s-5,1.7-9.9,4.1c-3.1,1.4-2.8,1.5-5.9,3a106.6,106.6,0,0,1-11.2,4.7l-9.2,3.1-7.3,2.9c-3.2,1.3-3.9,1.8-7.3,3.4s-3.9,1.6-9.4,3.9-6.6,3.3-10.8,4.8-3.6,1.2-6.6,2.4a39,39,0,0,0-7.4,3.6,44.7,44.7,0,0,0-7.5,6c-1.4,1.3-2.6,2.6-5,5.2s-2.3,2.4-3.7,4.1-2.6,3-4,4.9a46.5,46.5,0,0,0-6.2,11.2,52.2,52.2,0,0,0-2.6,10.2,125.9,125.9,0,0,0-2,13.8c-1.3,12.7-2.7,26.8-3.8,34.4-.6,4-1.4,7.9-1.4,7.9-.5,2.7-.8,4.2-1.1,5.4a59.7,59.7,0,0,0-1,12.9" transform="translate(-50.9 -34.2)" fill="none" stroke="#000" stroke-miterlimit="10" stroke-width="0.99"/><path d="M528.4,774.7a14,14,0,0,1-3.9,2.5,15.3,15.3,0,0,1-5.8,1c-1.9.1-2.1-.2-5.2-.4h-4.3c-9.6,0-22.3.8-22.3.8-13,.7-10.5.4-16.4.8-14.9,1-13.8,1.7-25.6,2.3-7.6.5-11.4.4-18.1,1.6l-7.7,1.4c-5.9.9-10.4,1.3-12.6,1.5l-5.9.3h-5l-5.1.3a75.4,75.4,0,0,1-8.3,0c-3.9-.1-5.8-.2-8-1a13.4,13.4,0,0,1-6.2-3.8c-1.3-1.6-1.8-3.1-2.9-6.1a42.7,42.7,0,0,1-2-7.8,54.8,54.8,0,0,1-1.1-8.1c-.2-3.5.1-6.3.7-12,.2-1.6.3-3,.7-5.7.6-4.9,1.1-9,1.7-13.1,1-7.2,1.5-10.8,1.7-11.7a105,105,0,0,1,5.6-19c1.4-3.5,2.9-6.9,4.6-10.6s1.9-4.1,2.3-4.8c1.5-2.9,2-3.5,3.2-5.9s1.3-3.1,2.1-5.1,1.4-4.1,2.3-6.9c2-6.7,1.7-7,2.9-10.4a64.9,64.9,0,0,1,3.7-8.1c2.2-4.5,4.1-7.9,6-11.1s3.3-5.8,3.9-6.8c2-3.3,4.7-7.8,8.5-13.3a122.5,122.5,0,0,1,10.7-14.2c2.3-2.8,2.7-2.8,7.1-7.8s3.5-3.8,6.6-7.2a35.4,35.4,0,0,1,5.1-4.7,23.3,23.3,0,0,1,3.5-2.2,20.2,20.2,0,0,1,5.8-1.4,9,9,0,0,1,3.9.1,5.4,5.4,0,0,1,2.5,1.6,28.1,28.1,0,0,1,4.6,4.7c5.6,7.7,9.8,15.1,9.8,15.1,3.6,6.4,5.4,9.6,6.8,12.6.6,1.2,1.5,3.1,2.9,5.6l3.7,5.5a54.1,54.1,0,0,1,3.5,5.6,24.2,24.2,0,0,1,1.8,4.7l2.5,7.4c2.3,7.3,3.2,6.9,5.1,13.1.2.6,0,0,2.7,10l1.8,6.5c1,2.9,1.4,4.4,2.1,5.9s1.8,3.4,2.6,6l.8,3c.6,2.4,1,4,1.3,4.9a67,67,0,0,1,1.7,8.2c.7,3.6,2.3,8.3,5.6,17.6,1.1,3.1,3.5,9.8,3.9,12.9.1.3.3,1.8.7,3.7.1.3.3,1.2.7,2.4s1.1,2.8,2.5,6l1.6,3.3a76.5,76.5,0,0,1,3.8,9.4,59.9,59.9,0,0,1,1.8,9.8c.4,3.2.4,4.4,0,5.8A11.4,11.4,0,0,1,528.4,774.7Z" transform="translate(-50.9 -34.2)" fill="none" stroke="#000" stroke-miterlimit="10" stroke-width="0.99"/><path d="M555.3,655.3c1.8,4.9,2.1,5.1,4.6,11.4,1.4,3.3,2.7,6.7,3.8,10s2.4,8.8,4,17c2.3,12.2,3.5,18.3,4,24.9.3,2.9.4,6.4,1.2,11.1.2.8.5,2.9,1,5.8a55.2,55.2,0,0,1,.6,5.6c.1,2.4-.1,2.5.1,4.1a24.6,24.6,0,0,0,1.3,5c1.2,3.3,1.7,4.2,2.4,6.3a80.7,80.7,0,0,1,2.4,8.2c1,3.8,1,4.2,1.9,7.6a67.6,67.6,0,0,0,2.5,8.6c1.2,3.4,1.4,2.9,5.3,11.2l2.6,5.8c2,4.3,2.2,4.9,2.8,6a36.4,36.4,0,0,0,4.7,6.7c6.3,8.4,7.7,13.4,12.2,18.8.2.3,1.1,1.4,2.1,2.9a14.6,14.6,0,0,1,3.2,10.3,16.6,16.6,0,0,1-.9,5.7c-1.1,2.7-3,4.2-4.9,5.7a25.7,25.7,0,0,1-8.1,4.3c-.7.3-2.5.7-6.1,1.6a63.1,63.1,0,0,1-7.1,1.7c-1.1.2-2.9.3-6.6.5s-5.3.2-6.9.4a51.5,51.5,0,0,0-6.2,1.5c-1.7.5-3.4,1.1-6.5,2.3l-5,1.8a39.7,39.7,0,0,1-13.1,1.8l-4.2-.4a140.9,140.9,0,0,0-16.5.1c-5.8.2-5,.4-10.4.6l-10.9.3c-4.7.2-5.4.4-8.1.3l-7.4-.5-6.1-.6a54.7,54.7,0,0,1-5.6-1.1c-3.2-.8-3.2-1-5.3-1.4s-2.6-.1-5.7-.5a34.7,34.7,0,0,1-5.8-1.2,30.5,30.5,0,0,0-4.8-1.4l-3.7-.3a49.6,49.6,0,0,1-6.5-1,135.2,135.2,0,0,1-16.4-4.5l-5.4-1.9-5.2-1.6-5.7-1.8c-2.5-.9-2.2-1.2-5.2-2.4s-3.3-1.1-5.5-2.2-1.2-.7-3.7-2a47.6,47.6,0,0,0-7.3-3.5l-3.3-.9-4.8-1c-3.4-.6-4.3-1.8-12.4-5.4a53.7,53.7,0,0,0-6.8-2.6c-2.8-.9-3-.7-6.3-1.6a90.8,90.8,0,0,1-11.1-4,36.3,36.3,0,0,0-5-2.2c-3.4-1.3-3.6-.7-5.4-1.7s-4.6-3.5-6.3-5.1-.9-1.1-2.1-2.3c-2.6-2.7-2.6-2.4-3.5-3.4a17.8,17.8,0,0,1-3.5-7.4c-.2-.7-.3-1.3-.8-2.8a30.7,30.7,0,0,0-1.1-3.6,29.3,29.3,0,0,0-1.6-3.8s-.9-2-1.8-4.4-1.7-4.6-2.3-6.7a107.5,107.5,0,0,1-3.4-12.2,102.8,102.8,0,0,1-1.4-11.9c-.1-1.7,0-1.3-.1-4.5-.2-6.7-.6-11.6-.7-12.9-.4-4.9-.6-4.2-1.1-9.4-.8-8.3-.8-14.1-.8-15.5s0-5.5.3-9.3a70.4,70.4,0,0,1,2.8-15.1c.5-1.7,1-2.8,1.9-5.2s2.2-5.6,6.4-14.1c3.1-6.5,3.9-7.8,5.6-11.9s.8-2.5,2.1-5.7,2.9-6.3,7.3-15.7c2-4.1,1.7-3.7,2.3-4.8a120.1,120.1,0,0,1,6.8-11.2l4.9-7.4c4.8-7.4,5.6-8.7,6.9-10.8l2.4-3.8a45,45,0,0,1,3.6-5.5c1.5-1.8,1.9-1.7,3.6-3.8a25.3,25.3,0,0,0,2.8-3.7c.8-1.2,3.1-4.5,5.6-7.7s2.6-2.9,4.4-5.3,1.4-2.3,2.8-4.4,3.1-4.2,6.3-8.4l4.9-6.5c1.4-1.9,3.2-4.3,4.9-6.9a132.1,132.1,0,0,0,7.5-12.7,119,119,0,0,0,5.4-11.3c1.5-3.5,1.4-3.9,3.7-10.1s2.6-6.4,4-10.1h0c1.8-5.6,2.4-7.9,4-12.9s1.7-5.6,3-9.9l1.1-3.7c1.2-5,.8-7.3,1.4-13.5a14.1,14.1,0,0,0,.2-1.8c.3-2.1.6-3.6.7-4.1.4-2.3.5-4.6.7-6.7s.3-5.9.4-10v-5.3c-.1-2.1-.1-2.8-.1-4.8a32.7,32.7,0,0,1,0-4.5c.1-2.1.2-3.6.3-4.9s.4-6.1.5-9.5a87.4,87.4,0,0,0-.6-9.1c-.2-2.4-.7-8.9-.8-16.1-.1-4.9-.6-9.8-.5-14.7a16.9,16.9,0,0,0-.5-4.2,15.9,15.9,0,0,0-.7-2c-.7-1.9-1-2.5-1.5-3.6a44.2,44.2,0,0,1-1-4.9,20.3,20.3,0,0,1-.7-4.6,13.1,13.1,0,0,0-.1-1.7,9.7,9.7,0,0,0-.3-2.3,9.1,9.1,0,0,0-1.1-2.5,14,14,0,0,1-1-3.1c-.2-1-.1-2.5,1.9-5.8s4.2-6.7,9-9.1c2.1-1.1,3.8-1.4,7.4-2a51.2,51.2,0,0,1,12-.7,52.7,52.7,0,0,1,6.8,1.1,101.9,101.9,0,0,1,12.5,3.4c4.8,1.6,7.3,2.5,9.1,4a37.2,37.2,0,0,1,8.3,10.6,44,44,0,0,1,3.2,7.6c.5,1.6,1,4.2,2,9.6a60,60,0,0,0,1.5,6.4,25.8,25.8,0,0,0,1.6,4.4c2.3,6,3.6,13,4.6,19.1a80.3,80.3,0,0,1,1.3,9.4c.4,4.7-.1,5.6.4,9.7s.7,3,1.9,9.4.9,5.5,1.9,10.4c.6,2.8.5,1.9,2.1,9.2,1.2,5.2,1.3,6.1,2.1,9.1s.7,2.8,1.6,6.5a71.5,71.5,0,0,1,1.9,8.8,45.4,45.4,0,0,1,.2,5.7c.2,5.6.3,5.3.7,14.6.2,3.3.2,5.6.4,10.2.1,6.6.2,9.9.2,11.6-.3,5.7-1,6-.8,10.5a57.3,57.3,0,0,0,.6,8.1,17.3,17.3,0,0,1,.6,4.4,37.2,37.2,0,0,1-.1,4.5c-.2,3.3-.3,4.9-.3,5.7-.1,2.7.1,3.1.1,7.2.1,2.4,0,3.8,0,4.8a93.5,93.5,0,0,0,1.3,14.3,125.2,125.2,0,0,0,3.2,14c.4,1.4,3.4,12.7,6.3,17.4l2,3.3,2.2,3.8c1.8,3.2,2,4.6,3.6,8.1s2.5,4.7,5.5,9.5a45.4,45.4,0,0,0,3.7,5.4c1.2,1.5,1.2,1.3,2.3,2.7s2,3.2,3.9,5.6l1.6,2,1.8,2.5a14.9,14.9,0,0,1,1.8,4.2C552.9,649.8,554.2,652.5,555.3,655.3Z" transform="translate(-50.9 -34.2)" fill="none" stroke="#000" stroke-miterlimit="10" stroke-width="0.99"/><path d="M621.7,790a61.6,61.6,0,0,0,8.7,5c2.3,1,5.5,1.9,11.7,3.5a34.3,34.3,0,0,0,6.3,1.4c2.9.1,3.4-.5,8.4-1s4-.1,7.1-.5l5.9-1.3,6.2-1.3c2.9-.9,2.8-1.4,8.4-3.7l5.9-2.6c3.2-1.5,4.8-2.5,5.2-2.7s1.5-1.2,4-3,3.4-2.1,5-3.3a29.8,29.8,0,0,0,3.9-4c4.9-5.4,5.1-5,8.2-8.7s2.9-4.5,5.5-7.2,4.2-3.1,8.7-7c.1,0,1.4-1.2,3.3-2.5a12.8,12.8,0,0,1,3.1-1.9c1.4-.6,1.7-.3,3.7-1a15.7,15.7,0,0,1,2.5-1,8.7,8.7,0,0,1,4.6.2,15.8,15.8,0,0,1,6.1,3.4,27,27,0,0,1,4.5,5.4,13.6,13.6,0,0,1,2.2,3.9,11.2,11.2,0,0,1,.6,2.3,38.2,38.2,0,0,1,.4,9.7,31.7,31.7,0,0,1-1,7.6,36,36,0,0,1-3.9,8.2c-1,1.6-1.1,1.6-4.1,6.1l-5,7.5-5.7,7.6-3.1,4.2a54.8,54.8,0,0,1-4,5.3,39.2,39.2,0,0,1-3,3,81.8,81.8,0,0,0-5.7,6,40.6,40.6,0,0,0-3.3,3.9c-2.7,3.1-4,4.1-8.6,8.8-8.5,8.4-8.8,9.5-12.5,12.1-1.2.8-2.3,1.4-5.3,3.5s-3.7,2.7-6.7,4.7a95,95,0,0,1-10.3,6.5l-4.3,2.1c-1.9.8-2.7.9-4.6,1.6s-3.8,1.8-4.7,2.2c-3.4,1.9-7.9,3.5-13.7,5.5-8.6,3.1-14.5,5.2-22.4,6.9s-15,2.5-26.2,3.5c-8.5.8-9.1.6-13.5,1.4-6.5,1.2-10.2,2.7-18.7,4.4l-6.9,1.4-5.2,1.1c-4.9,1-8.9,1-16.9,1.1-3.8,0-4.7-.1-7.2.1s-5.2.8-7.9,1.2-6.7.3-13.8,0l-12-.7c-5.8-.4-8.6-.6-11.4-1-5.8-.8-8.7-1.2-12.4-2.6a42.1,42.1,0,0,0-5.9-1.8c-2.5-.6-3-.4-6-1s-2.8-.8-5.7-1.4-2.7-.3-5.3-.8-4.1-1.5-7.3-1.9l-4-.4-4.1-.6c-4.4-.8-8.3-1.9-8.8-2-7.5-2.2-8.2-3-16.2-5.3-5-1.5-7.5-2.2-10.3-2.8a50.4,50.4,0,0,1-6.9-1.8,27.7,27.7,0,0,1-5.5-2.4l-3-1.6c-1.4-.5-2.6-.7-3.3-.9a14.1,14.1,0,0,0-2.7-.4,21.6,21.6,0,0,1-6.7-2.1c-2.7-1.1-2.7-1.2-8.8-4a38.9,38.9,0,0,1-5-2.4,32.7,32.7,0,0,1-4-2.3c-2.6-1.6-3.9-2.5-5.4-3.6-4.4-2.9-4.8-2.4-10-5.6-3.6-2.3-3.2-2.3-6.2-4.1L329,842a33.4,33.4,0,0,1-6-3.7l-2-1.8c-1.7-1.5-2.5-2.4-3.1-3s-3.6-2.7-7.2-4.7-3.5-1.6-4.6-2.7a22.6,22.6,0,0,0-3.2-2.7,7.6,7.6,0,0,1-1.6-1.1,8.8,8.8,0,0,1-1.5-1.6h0a29.6,29.6,0,0,1-3.6-4.5c-2.8-4.1-2.7-4.9-4.8-7.2s-1.4-1.2-3-2.9a25,25,0,0,1-6.4-10.8c-1-2.7-.8-2.7-1.7-5.3-1.6-4.5-2.5-5.4-4-9.6-.4-1.2-.9-2.8-1.8-6-1.5-5.1-2.5-8.7-3.5-13.4a42.8,42.8,0,0,0-1.1-5.3c-.8-3-1.4-4.1-2.3-7.5,0,0-.7-2.3-1.2-5a77.7,77.7,0,0,1-1.6-11.8,83,83,0,0,1,.2-13.9c.3-3,.5-3.9.9-8.2s.3-4.2.6-7.4a53.9,53.9,0,0,1,1.1-7.1c.6-2.3,1-2.6,2.1-6.4a42,42,0,0,0,1.1-4.5,47.2,47.2,0,0,0,.8-6.3,65,65,0,0,1,1.6-7.4c.9-3.8,1.7-6.8,2-8,1.4-5.1,2.8-9.1,3.6-11.7,1.9-5.6,3.9-10.6,5-13.1l1.4-3.2a19.2,19.2,0,0,0,1.3-2.8c.3-.9.2-.8.8-2.9a20.8,20.8,0,0,1,.8-2.6,17.9,17.9,0,0,1,.9-2.1,12.2,12.2,0,0,1,.6-1.2c.8-1.6,1.7-4.1,2.5-6.2,1.9-5.3,1.7-4.6,1.9-5.4,1.3-3.9,1-4.2,2-6.6a32.9,32.9,0,0,1,2.7-5.2c1-1.5,1.5-2,2.9-4,0,0,1.8-2.4,3.8-5.5a65.9,65.9,0,0,0,5.2-10.1c1.5-3.6,1-3.4,3.7-10.7.2-.6,1-3,2.3-6.1s2.3-5.7,3-7.3c3.6-8.7,6-16.8,6.7-19.1s1.3-4.6,2.4-8.1,2.3-6.3,2.9-7.8c2.5-6.3,2.3-7.9,4.8-16.2,1.4-4.4,2.6-7.6,3.5-10.3,2.6-7.2,4.2-10.8,7-18.9a57.3,57.3,0,0,0,1.8-6.2c1-4.5.5-5.5,1.3-11.4a91.7,91.7,0,0,1,1.9-10,36,36,0,0,0,1.5-6.3,54.3,54.3,0,0,0,.5-6.7c0-1.3-.1-4.1-.5-7.8s-.5-3.1-1.1-7.6a62.9,62.9,0,0,1-.7-7.2c0-.9,0-.9.3-7.1a55.3,55.3,0,0,0,.1-6.9,39,39,0,0,0-.5-5.2c-.5-2.5-.9-3.4-1.3-5.2s-.6-4.2-.6-8.5.1-5.4,0-10c0-2.3,0-1.7-.2-6.8-.3-9.6-.2-12-.1-13.4s.4-4.5.4-5.1c.4-3.6.5-4.1.6-5.8a69.9,69.9,0,0,0,0-7.2,83,83,0,0,1-.1-8.5,43.4,43.4,0,0,1,.5-5.3,32.5,32.5,0,0,1,2-6.8c.6-1.7,1.1-2.9,2.2-5.5,2.9-6.3,4.3-9.5,5.4-11s3.3-4,5.7-6.4a11.9,11.9,0,0,1,3.1-2.3,22.8,22.8,0,0,1,4.1-1.2l4.8-1.4a90.6,90.6,0,0,0,9.2-3.8,14.2,14.2,0,0,1,6.7-1.7c6.7-.3,6.3,0,10.1-.2a18,18,0,0,1,2.9.2l2.6.9c1.9.7,2.5.4,4.8.9a31.7,31.7,0,0,1,3.9,1.2c8.9,3.1,10,3.3,10.9,3.4a23.2,23.2,0,0,1,9,1.9c3.8,1.7,5.3,1.5,15.3,4.7,5.6,1.8,9.8,3.4,14,5l6.6,2.5c3,1.3,3.5,1.7,5.9,2.6s3.3.8,5.4,1.8,2.8,1.6,5.1,2.8a42.2,42.2,0,0,0,6.5,2.7,112.3,112.3,0,0,1,13.8,6c3.5,1.9,2.7,1.8,7.4,4.3a68.4,68.4,0,0,1,8.2,4.8c1.6,1.1,1.4,1.1,3.5,2.7l6.4,4.2,5.4,3.3a80.9,80.9,0,0,1,11.6,8.6c3.7,3.3,6,5.2,8.6,8.6a41.2,41.2,0,0,1,4.9,8.1,36.2,36.2,0,0,1,2.9,7.8,44,44,0,0,1,1,6.8c.2,2.7.4,5.1.5,18.6a50.6,50.6,0,0,1-.2,5.7c-.4,3.1-.9,3.5-1.4,7.2a48.3,48.3,0,0,0-.3,6c0,1.8.1,3.2.1,3.6.3,5.3-.8,10.8-1.3,17.1-.2,4,.2,2.4.2,13,0,8-.2,8.1-.2,15.1,0,.9.1,5.7.4,15.2.1,5.3.2,7.8.3,11.9s.1,6.4.1,8.3c0,5.8-.2,7.3.1,10.9a67,67,0,0,0,.7,7c.5,5.5.4,6.3,1,14.5s.9,8.3,1.1,12.6c.2,6.1-.2,5.9,0,11.1a164.2,164.2,0,0,0,2.1,18c.2,1.4.7,4.9,1.6,9.5,1.2,6.9,1.9,10.9,3.3,16.1s2.3,8.5,4.5,13.1c1.3,2.5,1.6,2.7,4.4,8s4,7.3,5.4,10.6a91.9,91.9,0,0,1,5.5,15.9,65.1,65.1,0,0,1,2.1,9.3c.6,4.1.3,5,.6,13.6.2,5.8.4,5.2.6,10.5,0,2.3.1,5.4.2,11.7,0,4.3.1,6.5.1,6.9-.1,6-.5,7.3-.1,11,.2,1.9.4,2.2.7,4.7a40.2,40.2,0,0,1,.3,6,50,50,0,0,1-.8,5.6c-.3,2.4-.3,4.2-.4,6.5s0,4.8.5,9.9a97,97,0,0,0,2,12.7c.6,2.7.7,2.6,1.6,6.2,1.2,5.1,1.5,7.3,2.1,10.2,1.9,8.6,3.4,15.6,8.7,20.3A47.5,47.5,0,0,0,621.7,790Z" transform="translate(-50.9 -34.2)" fill="none" stroke="#000" stroke-miterlimit="10" stroke-width="0.99"/><path d="M866.4,454c.5,3.3.1,6.7-.8,13.4-.5,3.7-.6,3.6-1.6,11.2-.4,2.6-.7,4.4-1,6.8q-.7,6.6-1.2,11.1a77,77,0,0,1-1.5,7.9c-.9,3.8-1.4,4.8-3.4,11.8s-1.5,6-2.5,9a75.6,75.6,0,0,1-3.4,8.7,58.9,58.9,0,0,1-5.3,9.5,32.9,32.9,0,0,1-2.7,3.7c-1.3,1.4-1.8,1.7-3.4,3.3s-2.4,3-4.4,4.8a31.2,31.2,0,0,1-4.9,3.8,55.1,55.1,0,0,1-5.7,3.9,30.6,30.6,0,0,1-5.7,2.9,21.9,21.9,0,0,1-7.3,1.1l-11.4.4c-9.5.1-11.2.1-14.6.6-1.2.1-3.1.6-7,1.4-10.7,2.2-16.1,3.3-18.5,4a23.1,23.1,0,0,1-6.6,1.2,20.7,20.7,0,0,1-7.9-1.7c-3.3-1.3-5.5-2.9-8.8-5.3a34.3,34.3,0,0,1-5.5-4.8c-2-2.2-2.2-3.1-4.6-6.5s-2.5-3.1-4.8-5.9-3-4-7.3-10.2c-7.5-10.7-7-9.7-7.6-10.8a90.4,90.4,0,0,1-10-20.8c-2.1-6.4-3.6-13.7-6.8-19.9-.2-.5-.8-1.6-1.5-3.2a60.6,60.6,0,0,1-3.3-9.6c-3.4-11.8-3.7-12.5-4.2-15.3s-.3-2.3-.9-6.3-1.4-7.7-2.3-11.5c-2.4-11.1-3.6-16.7-3.7-19.3s0-2.7-.1-10.8c-.1-3.8-.1-4.5-.1-6.6-.1-4.5.1-7.9.2-10.8s.4-8.6,1.1-15.3c.4-3.8.8-6.3,1.5-11.3a107.6,107.6,0,0,1,2.1-11.8,40.9,40.9,0,0,1,3.7-9.7,18.8,18.8,0,0,1,3.7-4.3h0a17.3,17.3,0,0,1,4.7-2.8,16.8,16.8,0,0,1,3.3-1,36.2,36.2,0,0,1,10.1-.6,33,33,0,0,1,6,1,26,26,0,0,1,7.7,3,29.4,29.4,0,0,1,3.4,2.4,28.8,28.8,0,0,1,3,2.9c2,2,2.9,2.3,6.7,5.2s3.5,3,6.9,5.6c0,0,3.5,2.6,7.4,5.1s8.7,4.6,20.4,9.4l12.3,5.1,21.9,9.4s3.7,1.6,11.5,5.3c2.4,1.2,4.1,2,6.3,3.3s4.1,2.6,6.8,4.5c5.4,3.9,8.1,5.8,11.1,8.4,1.2,1,4.3,4,10.5,9.9l6.7,6.5c3.2,3.2,5,5,6.7,7.9a31.9,31.9,0,0,1,2,3.9,56.8,56.8,0,0,1,1.7,5.5l1.5,4.4A46.8,46.8,0,0,1,866.4,454Z" transform="translate(-50.9 -34.2)" fill="none" stroke="#000" stroke-miterlimit="10" stroke-width="0.99"/><path d="M775.1,845.1c-1.9,2.8-2.7,4.1-3.6,5.5s-2.5,3.7-9.9,10.6c-5.9,5.5-9.4,8.3-15.6,13.9l-3.7,3.5c-3.5,3.3-3.6,3.7-5.2,4.9a59.7,59.7,0,0,1-5.7,3.5l-4.4,2.3c-5.9,3.3-5.8,3.9-8.6,4.9a20.7,20.7,0,0,0-4.4,1.7,35.6,35.6,0,0,0-3.2,2.1c-.8.6-1.6,1.1-11.3,5.3l-6.5,2.9-3.5,1.8a18.9,18.9,0,0,1-3.1,1.3c-2.4.8-2.9.3-5.7.9-.4,0-.3,0-5,1.5l-4.5,1.3-4,1.3a24,24,0,0,1-5.7.5c-1.3,0-2.4.2-8,1.8l-18.1,5.3-3.7.8a22.4,22.4,0,0,1-4.9.4,46.3,46.3,0,0,0-6.9,1.1c-10.5,1.9-19.4,4.2-19.4,4.2-5,1.2-3,.8-14.2,3.9-14.2,3.8-16.4,4.2-19.1,4.3a53.1,53.1,0,0,0-8.3.6c-2.8.5-2.8.7-5.9,1.2a47.2,47.2,0,0,1-10.2.8,53,53,0,0,1-5.6-.4,72.2,72.2,0,0,1-9.8-2.1c-9.5-2.7-12.2-3.8-17.7-5.4s-3.7-.7-14.1-3.2c-8.4-2.1-8-2.2-18.5-4.8-8.8-2.1-9.8-2.2-14.1-3.5s-5-1.8-10.6-3.4-5.7-1.6-9.5-2.8-5.8-2-11.1-4.1l-7.8-3c-8-3.2-9.6-3.1-19.3-6.6-3.8-1.4-6.3-2.4-8.7-3.5s-3.2-1.5-5.7-2.6c-5.2-2.1-6.2-2-10.1-3.7l-7.9-4.2c-5.1-2.9-6.3-3.7-9.6-5.3l-5.1-2.3-7.5-3.3c-8.5-3.6-22.7-12.4-25.2-13.9-5.2-3.2-10.6-6.6-17.6-11.6A157.9,157.9,0,0,1,291,836.6c-2.1-1.9-5.9-5.8-13.5-13.7a70.5,70.5,0,0,1-8.2-9.7c-.9-1.3-.7-1-4.8-8-5.3-8.8-6.1-9.9-7.3-13s-.7-2.7-2.2-6.8-2.4-6.1-3.1-7.9c-1.4-3.7-1.9-7.1-2.9-13.9a213.5,213.5,0,0,1-1.9-23.2c-.2-2.6-.3-4.3-.3-6.7-.1-3.9,0-4.7-.1-7.5s-.3-3-.7-6.8c-.3-2.2-.6-5.6-.9-9.2s-.2-8.1-.2-11.7.2-5.4.3-8.9c.2-6.3.1-11.1.1-15.7s-.3-12.9-.9-21.1c.1-1,.3-2.4.5-4.2.5-3.8,1-5.4,1.5-8a89,89,0,0,0,1.1-12.5c.1-2.9.1-3.7.3-6.9a70.2,70.2,0,0,1,.6-7.1c.4-2.3.6-2.5,1.9-8.4l1.5-6.8c.8-4.3,1.2-7.4,1.4-9.1s1.3-7.7,3.4-19.2,2.7-14.8,3.9-19.3c.5-1.8,1.1-4.1,2.1-7.1,1.6-4.9,2.3-5.9,3.4-9.3a57.8,57.8,0,0,0,2.1-11c.8-5.7.3-5.9,1.2-13,.3-2.5.4-2.9,1.2-8.2s.8-6.7,1-7.9c.8-5.9,2.3-11.8,5.5-23.5s3.5-13.1,3.5-13.1.8-2.8,1.5-5.8,1.3-5.2,1.7-7.5.2-3.2.6-5.3a31.4,31.4,0,0,1,2.1-6.7c2.4-6,1.1-3.6,4.9-13.6,3.2-8.2,2.9-6.9,4.1-10.4s2-6.5,3.8-13.3c1.4-5.2,1.4-5.4,2.2-7.9s.8-2.8,3.2-9.8c1.2-3.5,1.7-5.2,2.2-6.6,1.6-4.7,2.9-7.9,5.9-15.3,6.3-15.6,6.2-15.3,6.5-16.2,2.6-7.6,2.6-9.3,5-14.3,1.3-2.7,2.3-4.3,3.9-8s2.1-5.2,3-8a24.2,24.2,0,0,1,1.2-3.5,25.4,25.4,0,0,1,2.9-4.9c1.1-1.9,1.9-4.1,3.3-8.6.8-2.4.9-3.3,1.8-4.7a18.1,18.1,0,0,1,3.1-3.8c4.4-4.7,6.5-7.1,7.7-8.6a16.7,16.7,0,0,1,2-2.4,23.9,23.9,0,0,1,2-2.1c.5-.5,2.9-2.6,9.1-5.1a36.4,36.4,0,0,1,6.4-2.3,57.3,57.3,0,0,1,12.3-2h3.2a36.2,36.2,0,0,1,7.1,1.5l6.1,1.3,7.4,1.5a356.1,356.1,0,0,1,41,11.3l23.4,8.4a45.4,45.4,0,0,0,10.1,3l5.2.9,5,1.2c6.9,1.8,28.3,11.6,32.5,13.5,6.9,3.1,5.9,2.4,23.4,10.1,0,0,5.1,2.2,13.8,6.3a84.8,84.8,0,0,1,10.8,5.6,80.3,80.3,0,0,1,8.7,5.9,56.3,56.3,0,0,1,6.8,5.3c3.2,2.9,3.7,4,9,9.8,3.6,3.9,3.2,3.2,4.7,5a53.9,53.9,0,0,1,9.3,15.9,72.2,72.2,0,0,1,3.7,11.9c2.1,8.7,2.4,15.6,2.8,23.4a121,121,0,0,1,.1,14,140.4,140.4,0,0,1-1,14.2c-.7,5.8-1.3,8-1.1,12.5s.3,6.4.3,6.4a46.4,46.4,0,0,1,.4,6.4c-.1,2.6-.4,2.9-.7,6a54.3,54.3,0,0,0-.1,7,72.4,72.4,0,0,1-.7,9.3c-1,8.5-1.3,21.3-1.4,28.4-.1,10.3.5,10,.4,24.4v14c-.2,7.7-.3,10.1,0,14.2a91.2,91.2,0,0,0,2,12.6c2.1,10.1,4.1,20.3,7.7,31.3a103.7,103.7,0,0,0,3.8,10.4c.9,2.1,1.8,3.9,3.6,7.5,2.6,5.4,4,8.2,5.6,11.1,2.6,4.4,3.9,5.8,6.6,9.8,5,7.4,3.4,6.9,10.3,18.4,4,6.6,10.2,16.3,10.6,16.9h0a193,193,0,0,0,21.8,26.2,58.7,58.7,0,0,0,12.6,10.4c4.3,2.6,7.7,4.6,12.3,4.7s7.1-1.2,10.8-2.7a64.7,64.7,0,0,0,7-3.2c9.2-4.6,12.2-6.7,16.2-8.7a16.4,16.4,0,0,0,2.6-1.6,18.6,18.6,0,0,0,2.3-1.8,28.8,28.8,0,0,1,4.7-3,47.9,47.9,0,0,1,5.9-2.6,33.4,33.4,0,0,1,5.2-2,34,34,0,0,1,5.6-.4h5.2c4,0,6-.1,8.6-.3a34.9,34.9,0,0,1,4.1-.3,29.1,29.1,0,0,1,3,0c3.5.2,6.2,2.3,8.2,3.7a20.8,20.8,0,0,1,5.1,5.2,23.1,23.1,0,0,1,2.8,6.7,49.3,49.3,0,0,1,1.3,16,52.6,52.6,0,0,1-1,8.9,44.8,44.8,0,0,0-1.2,6.5c-.2,1.8-.2,2.7-.3,5.1a102.9,102.9,0,0,1-.5,11.4c-.2,1.5-.7,3.6-1.7,7.8-1.3,5.9-2.7,10.9-3,12.1l-1.8,6.6a68.3,68.3,0,0,0-1.4,7.3c-.3,2.2-.3,3.3-.4,4.6a39.8,39.8,0,0,1-2.8,10.7c-4.7,12.8-3.2,12-6.4,18.9a69.6,69.6,0,0,1-7.6,13.5C779.4,839.1,777.6,841.4,775.1,845.1Z" transform="translate(-50.9 -34.2)" fill="none" stroke="#000" stroke-miterlimit="10" stroke-width="0.99"/><path d="M224.2,499.7c-1.3-1.7-.8-5.4.2-12.5a98.9,98.9,0,0,1,2.1-10.5c.8-3,1.1-3.4,1.6-5.9a76.7,76.7,0,0,0,1.2-8.6c.2-2.3.2-3.6.3-5.6.3-4,.5-6.8,1-11.6.8-7.3,1.5-11.6,1.9-15.1,1.2-9.3,1-15.2,1.3-24,.7-26,3.1-29.3,3.4-52.6.1-8.7.2-15.2-.4-23.6-.2-2.6-.5-6-.7-11.4s-.2-7.4-.3-13.3c-.1-10.5-.4-11.4-.6-21.5-.1-6-.2-10-.1-15.5a183.7,183.7,0,0,1,2-25.8c.8-4.6,1.6-8.1,3.2-15,2.1-9,3.1-13.4,4.8-18.3a105.5,105.5,0,0,1,9.2-19.4A82.1,82.1,0,0,1,268,172.1a129.7,129.7,0,0,1,10.5-8.5c7.6-5.8,13-9.8,20.6-13.5a97.9,97.9,0,0,1,9.9-4,150.9,150.9,0,0,1,41.9-8c5.5-.3,3.7.1,16-.2s16.7-.8,25.8-.7c5.8,0,10.1.3,18.6.7s16.4,1,27.6,2.2c7.4.8,13.6,1.8,25.9,3.7s20.3,3.1,27.3,4.6c11.9,2.4,20.6,5,28.5,7.2,1.7.5,15.1,4.2,28.4,9.2,11.1,4.2,18.5,7.2,18.5,7.2a116.2,116.2,0,0,0,11.2,4.4c4.7,1.5,6.4,1.7,10,3.4s3.5,2.2,7.4,4.3,5.7,2.7,8.7,4c8.3,3.5,7.6,3.8,15,6.9,10.2,4.3,12.5,4.2,19.7,8.1,4.1,2.2,6.7,3.9,6.7,3.9,3.7,2.3,6.5,4.3,9.3,5.9l2.4,1.4c1.6.8,2.3,1,2.5,1.6s0,.6-.4,1.4" transform="translate(-50.9 -34.2)" fill="none" stroke="#000" stroke-linecap="round" stroke-linejoin="round" stroke-width="1.42"/><path d="M246.2,503.4a3.2,3.2,0,0,1-1.4.3" transform="translate(-50.9 -34.2)" fill="none" stroke="#000" stroke-linecap="round" stroke-linejoin="round" stroke-width="1.42"/><path d="M240.4,502.9l-5.5-.8c-3.6-.7-5.8-1-7.3-1.2" transform="translate(-50.9 -34.2)" fill="none" stroke="#000" stroke-linecap="round" stroke-linejoin="round" stroke-width="1.42" stroke-dasharray="3.04 4.56"/><path d="M225.3,500.5a1.5,1.5,0,0,1-.9-.6l-.2-.2" transform="translate(-50.9 -34.2)" fill="none" stroke="#000" stroke-linecap="round" stroke-linejoin="round" stroke-width="1.42"/><path d="M636.5,265.6l-1.1-.7-3.3-1.4a40.2,40.2,0,0,0-6.8-2.2c-2.5-.6-6.1-1.9-13.4-4.3-5-1.7-10-3.4-16.3-6.1l-8.2-3.8c-8.1-3.7-8.4-4.1-11.9-5.6-1.7-.8-6.6-2.5-16.4-5.9-7.4-2.6-9.9-3.4-13.7-4.4s-5.1-1.3-8.5-1.9c-5.2-.9-6.6-.6-10.8-1.4a72.2,72.2,0,0,1-8.8-2.6c-5.6-2-9.4-3.5-13.8-5.3-8.4-3.3-12.6-5-16.4-6.3a121.3,121.3,0,0,0-15.9-4.4l-7.8-1.3-12.3-2.1a68.7,68.7,0,0,1-10.6-3c-3.9-1.5-4.2-2.1-7.1-2.8s-3.6-.7-9.4-.8-6.8-.2-9.8-.2c-8.4.1-15,.4-17.3.6-12.4.7-18.6,1-21.8,2.2a52.8,52.8,0,0,0-14.1,7.9,72,72,0,0,0-9,8.1,111.4,111.4,0,0,0-9.9,11.6,125.8,125.8,0,0,0-7.4,10.5,137.7,137.7,0,0,0-6.4,12.3c-3.1,6.7-4,9.8-6.3,15.6-3.6,9-4,8.1-9.2,19.8a219.6,219.6,0,0,0-10.4,26.8c-1.3,4.3-1.6,5.9-3.3,10.8s-2.5,6.6-5.9,16.1c-2.8,7.7-3.3,9.5-3.6,10.9-1.2,4.5-.9,5.3-2.2,9.6s-2,5-3.6,10.3-1,6.1-2.6,10.6c-1.1,2.8-1.5,3.2-3.4,7.7s-2.1,5.7-2.7,7.4a238.2,238.2,0,0,0-6.5,23.8c-1.3,6.2-.9,5.2-2.8,14.1-1.1,4.8-2.4,10.9-4.4,18.7-1.5,6.2-2.1,7.8-3.2,13s-1,4.9-1.9,8.7c-1.5,5.9-1.6,5.3-2.8,10.2a62.8,62.8,0,0,1-2.5,9.4,32.3,32.3,0,0,1-2.1,4.4c-1.3,2.4-1.9,2.9-2.4,3.1h-.3" transform="translate(-50.9 -34.2)" fill="none" stroke="#000" stroke-linecap="round" stroke-linejoin="round" stroke-width="1.42"/><path d="M660,217.3c0,.2-.2.4-.3.7l-.7,1.9" transform="translate(-50.9 -34.2)" fill="none" stroke="#000" stroke-linecap="round" stroke-linejoin="round" stroke-width="1.42"/><path d="M656.7,224.8l-4.1,8c-2.9,5.8-2.4,6.2-6.4,14.8-1.3,2.8-2.1,4.5-3.3,6.8l-2.2,4.3-1.4,2.9" transform="translate(-50.9 -34.2)" fill="none" stroke="#000" stroke-linecap="round" stroke-linejoin="round" stroke-width="1.42" stroke-dasharray="5.43 5.43"/><path d="M638.2,264.1c-.4,1.2-.4,1.5-.7,1.6s-.6.1-1-.1" transform="translate(-50.9 -34.2)" fill="none" stroke="#000" stroke-linecap="round" stroke-linejoin="round" stroke-width="1.42"/><path d="M883.6,658.7a20,20,0,0,1-.2-3.2,26.2,26.2,0,0,1,0-4.1,50.9,50.9,0,0,1,1.1-7.2c.7-3.4,1-5.1,1-5.2,1.2-5.4,2.8-9.3,6.2-19,2.8-7.9,3.4-10.2,3.8-12.5s.6-3.9,1.2-8.4c1.1-7.5,1.8-7.3,4.9-21.4,1.1-5.2,1.4-7.1,2.8-9.9a63.6,63.6,0,0,0,3.2-6.1,38.7,38.7,0,0,0,1.9-5.8c1.3-4.3,1.9-5.2,3.9-10.9s2.9-9.3,4.5-14.2c4.1-13.2,5.5-14,11.2-30.7,3.8-11,3.2-11,5.5-16.4s7.4-15.5,8.9-18.4a79.5,79.5,0,0,0,3.5-7.5,54.8,54.8,0,0,0,3.5-14.2c.8-6.1,1.8-12.8,1-21.7s-1.8-20.7-9.9-31.2c-3.1-4.1-8-8.8-11.7-12.4a97.2,97.2,0,0,0-7.6-6.8,75.8,75.8,0,0,0-15.2-9.5c-9.7-4.8-17.6-7.6-31.9-12.5-11.6-4-15.1-4.8-20.8-7.8a61.1,61.1,0,0,0-18.5-6s-7.4-1.5-16.8-4.1-10.1-4.2-23.9-8.5l-12-3.5-12.9-4c-4.4-1.4-5.6-2.1-19.5-8.4-22.9-10.3-20-8.6-22.1-9.8a56,56,0,0,0-12.8-5.4c-2.9-.8-3.1-.5-7.1-1.4-1.6-.3-4.9-1.1-19.9-6.2-7-2.5-8.7-3.1-10.4-3.9a65.2,65.2,0,0,1-8.8-4.3c-.4-.2-2-1.2-4.2-2.3l-2.5-1.1a25.1,25.1,0,0,0-4.3-1.5c-3.4-1.2-3.7-1.4-3.8-1.7s.4-2.3,1.6-4.9a3.6,3.6,0,0,0,.4-.9" transform="translate(-50.9 -34.2)" fill="none" stroke="#000" stroke-linecap="round" stroke-linejoin="round" stroke-width="1.42"/><path d="M919.3,663.5a6.3,6.3,0,0,1-2.7-.1h-.1" transform="translate(-50.9 -34.2)" fill="none" stroke="#000" stroke-linecap="round" stroke-linejoin="round" stroke-width="1.42"/><path d="M910.3,662.8l-4.7-.3c-4.4-.4-4-.5-7.1-.7s-6.6-.8-10-.9" transform="translate(-50.9 -34.2)" fill="none" stroke="#000" stroke-linecap="round" stroke-linejoin="round" stroke-width="1.42" stroke-dasharray="6.25 6.25"/><path d="M885.4,660.7a3.5,3.5,0,0,1-1.3-.8,2.7,2.7,0,0,1-.5-1.2" transform="translate(-50.9 -34.2)" fill="none" stroke="#000" stroke-linecap="round" stroke-linejoin="round" stroke-width="1.42"/><path d="M675.3,222.1l.3-.2c1-.4,1.9,0,4.2.7,3.8,1.2.9,0,6.2,1.7s7.2,2.4,9.6,3.3c4,1.5,6,2.2,7.7,3,4.2,2,5.8,3.3,8.8,5s4.6,2.1,12.9,5.1c17.5,6.1,17.8,6.6,23.9,8.2a88.9,88.9,0,0,0,11.6,2.7c5.7.9,7.7.7,12.4,1.9s5.1,1.7,9.4,3.3c5.9,2.2,8.6,2.8,15.8,4.9,15.9,4.8,14.7,5.6,28.5,9.5,9.8,2.8,12.1,2.9,19.6,5.6,2.1.8,5.4,2,10.1,3.3s6.2,1.5,9.2,2.3c5.4,1.5,8.1,3,13.7,5.5,4.1,1.9,21,9.6,32.2,12.5a35,35,0,0,1,6.7,2.4c3.6,1.8,3.8,2.8,7.4,4.8s3.3,1.2,8.4,3.3c2.4.9,4,1.7,7.1,3.1,7.9,3.6,12.7,5.8,17.4,8.5a78.2,78.2,0,0,1,15.2,11.1A73.7,73.7,0,0,1,992.2,363a99.7,99.7,0,0,1,4.9,18.4,82.6,82.6,0,0,1,1.4,16.9,84.7,84.7,0,0,1-1.4,12.1c-1.5,9.9-2.8,17.9-6.2,27.7-1.4,4-2.7,7-4.3,10.7a124.6,124.6,0,0,1-7.3,15c-3.3,5.9-3.8,5.7-6.2,10.3a89.4,89.4,0,0,0-5.2,13.3c-1.7,4.8-3.6,10-7.6,20.4-5.1,13.3-5.7,13.7-9,23.2-1.5,4.2-1.8,5.3-4.6,13.4s-3.2,9.2-4.8,13.7c-3,8.9-5.1,16.3-6.2,20.6s-3.2,11.7-4.7,20c-1,5-.7,4.6-2.2,12.7s-2.3,12.8-3.2,16.7a89.7,89.7,0,0,0-2.6,11.8c-.3,1.7-.4,2.9-.8,6.2-.8,5.4-.9,5-1,7.1s-.5,4.7-.6,7,0,2.5-.8,3.1l-.5.2" transform="translate(-50.9 -34.2)" fill="none" stroke="#000" stroke-linecap="round" stroke-linejoin="round" stroke-width="1.42"/><path d="M657.9,260.7l.8-1.9.3-.7" transform="translate(-50.9 -34.2)" fill="none" stroke="#000" stroke-linecap="round" stroke-linejoin="round" stroke-width="1.42"/><path d="M661.1,253.5c1-2.3,2-4.8,3.5-8,3.3-7.4,4.5-10.5,6.3-14.4.2-.4.8-1.5,1.5-3" transform="translate(-50.9 -34.2)" fill="none" stroke="#000" stroke-linecap="round" stroke-linejoin="round" stroke-width="1.42" stroke-dasharray="5.05 5.05"/><path d="M673.5,225.8l1-2.6" transform="translate(-50.9 -34.2)" fill="none" stroke="#000" stroke-linecap="round" stroke-linejoin="round" stroke-width="1.42"/><path d="M495.1,991.7c.7.4,1.8.9,3,1.7a66.3,66.3,0,0,1,5.9,4.5l3.9,3.4c3.7,3.4,3.9,4.2,7.8,7.9a64.4,64.4,0,0,0,6.3,5.6c2.9,2.1,5.2,3.5,5.9,3.9,2.9,1.7,3,1.4,6.2,3.1s4.2,2.9,7.6,4.5a45.2,45.2,0,0,0,4.8,1.8,34.5,34.5,0,0,0,5.5,1c5.8.6,5.2.9,11.3,1.6s6,.3,12.6.9,6.5.7,18.4,2.1l11,1.3c6.8.5,12.8.3,24.7,0l10.5-.5s5.3-.2,10.4-.6a413.7,413.7,0,0,0,47.8-6.1l10.9-2.3c11.5-2.4,13.3-2.8,16.5-3.8s5-1.9,8.7-2.8,6-.6,10.7-1.6,3.6-1,11.5-3.6,7.6-2.2,13-4,9.6-3.3,13.6-5.4a70,70,0,0,0,13.3-9.4,104.5,104.5,0,0,1,8-7.3c3.2-2.5,3.5-2.4,5.7-4.4s2.7-2.8,7.1-8.1,4.2-4.9,4.7-5.7a65.6,65.6,0,0,0,7.7-12.5c1.2-2.6.5-1.5,3.9-10.2a99.9,99.9,0,0,1,4-9.5c2.2-4.5,2.4-4.1,4.2-7.8s1.6-3.9,5.5-14.8c.9-2.6,1.5-4,2.3-6.2,3-8.1,3.8-9.4,4.8-12.8s1.3-6.1,2.1-10.9a53,53,0,0,1,.9-5.6c.3-1.8,1-5.5,2.1-10.2" transform="translate(-50.9 -34.2)" fill="none" stroke="#000" stroke-linecap="round" stroke-linejoin="round" stroke-width="1.42"/><path d="M467.9,1048.7a4.3,4.3,0,0,0,.4-1.1,5.1,5.1,0,0,0,.5-1.2v-.3" transform="translate(-50.9 -34.2)" fill="none" stroke="#000" stroke-linecap="round" stroke-linejoin="round" stroke-width="1.42"/><path d="M471.1,1040.3l.8-1.8c.7-1.3,2.3-5.2,6.3-15.6,3.8-8.8,5.7-13.2,6.2-14.6s1.6-4.7,2.8-7.3c.4-1,1-2.1,1.5-3.3" transform="translate(-50.9 -34.2)" fill="none" stroke="#000" stroke-linecap="round" stroke-linejoin="round" stroke-width="1.42" stroke-dasharray="6.15 6.15"/><path d="M490.1,995l1.2-2.6" transform="translate(-50.9 -34.2)" fill="none" stroke="#000" stroke-linecap="round" stroke-linejoin="round" stroke-width="1.42"/><path d="M917.3,865.9c-.1,1.2-.2,2.9-.5,4.9-.7,6.4-1.6,11.1-2,13.7-2.9,17.1-4.9,27.3-4.9,27.3s-6.4,32.6-13.1,55.4a72.2,72.2,0,0,1-4.1,11.1c-.6,1.3-1.1,2.2-5.2,10l-4.5,8.1a135.4,135.4,0,0,1-8.7,13.2c-10.3,13.8-28,27.4-30.7,29.4a234.7,234.7,0,0,1-32.4,20.6c-3.6,1.9-12.4,6.1-30,14.5-14.3,6.8-17.3,8.1-22,9.7-9.9,3.2-19.9,5.3-26.6,5.6l-9.2.4-7.5.3c-5.2.5-5.8,1.1-9.8,1.3s-4.3-.4-8.7-.3-4.2.7-11.8,1.7-8,.6-11.9,1.7-3.1,1.1-7.6,2.4-4.8,1.1-6.9,2-4,2.2-6.9,3.9a65.8,65.8,0,0,1-9.7,4.5c-7.3,3-11,4.5-14.1,4.8-1.5.2-1.6.1-15.8-1.2l-7.4-.7c-7.4-.7-10.1-1.1-15.7-1.7-11.1-1.2-11.3-.8-25.3-2.1-2.2-.2-5.1-.5-9.2-.7-6.1-.2-5.7.2-8.2-.1-4.7-.7-5.2-2.1-13.5-4.9-4.6-1.6-4.7-1.2-8.1-2.6a54.5,54.5,0,0,1-9.3-4.8,69.3,69.3,0,0,1-10.3-8.2c-2-1.9-2.8-2.8-5.6-5.8-8.1-8.5-8.9-8.8-18.4-18.4-2.6-2.7-3.8-3.9-5-5l-1.2-1-4.4-3.6" transform="translate(-50.9 -34.2)" fill="none" stroke="#000" stroke-linecap="round" stroke-linejoin="round" stroke-width="1.42"/><path d="M861.2,864.3c.1-.7.2-1.7.4-2.8" transform="translate(-50.9 -34.2)" fill="none" stroke="#000" stroke-linecap="round" stroke-linejoin="round" stroke-width="1.42"/><path d="M862.5,855.9c2.9-17.1,8.4-51.1,10.4-64.5.3-2.6.7-5.2.7-5.2,1-7.5,2-15,2.8-24.8s1.1-16.9,1.3-21.3c0-2.1.3-8,.4-16,.2-12.2.3-20.4.6-37s.5-4.7.5-6.4-.2-2.6.5-3.2,2.1-.5,4.6-.1l6.1.8,8.5,1,10.6,1.2,5,.6c7.3.5-2.4-.4,3.2.5,1.2.1,1.7.2,2,.7s.1.7,0,2a14.9,14.9,0,0,1-.2,2.2c-.5,3.7-.8,5.6-.9,6.2-.5,3.1-2.1,16.6-2.7,27.9-1,18.3.5,33.2,1.8,45.4.9,9.3,1.2,8.8,1.9,17a264,264,0,0,1,1,33.6c-.3,11.9-1.3,16.2-2,24.7-.4,4.3-.5,7.7-.6,12.1-.1,1.8-.2,3.6-.2,5.3" transform="translate(-50.9 -34.2)" fill="none" stroke="#000" stroke-linecap="round" stroke-linejoin="round" stroke-width="1.42" stroke-dasharray="5.69 5.69"/><path d="M917.7,861.4v2.8" transform="translate(-50.9 -34.2)" fill="none" stroke="#000" stroke-linecap="round" stroke-linejoin="round" stroke-width="1.42"/><path d="M443.9,1032.8l-2.7-1c-.6-.2-2.5-1-6.7-4.4-2.7-2-3.3-2.7-5.3-4.4s-4.8-3.3-8.4-5.6c-7-4.6-7.1-5.6-12.1-8.8-3.4-2.2-4.2-2.3-15.3-7.3l-17.9-8.4-17.3-8.2c-11.1-5.4-11.7-6-17.1-8.3-7.5-3.2-7.4-2.6-14.9-5.8s-8.7-4.4-18.6-8.8c-6.2-2.8-11.2-4.7-14.3-6L277.4,950l-14.7-5.6c-4.1-1.6-7.3-3-14.8-6.4-25.2-11.4-30.4-14.3-35.4-18.8a78.8,78.8,0,0,1-6.8-7.2,73.8,73.8,0,0,1-7.1-10.9c-1.4-2.6-5.7-10.1-11.8-22.7a116.9,116.9,0,0,1-5.4-12.8,82.9,82.9,0,0,1-2.6-8.6c-.5-2.1-1-4.4-1.9-9.3s-1.5-9-2.3-14.9-1.4-11-1.6-17.1.1-5.4.1-11.8c0-8.8-.5-12.3-.7-18.8a196.8,196.8,0,0,1,.6-22.7,354.7,354.7,0,0,1,5.6-43.7c1.7-10.4,2.5-13,4.7-26.6,1.5-8.7,1.2-7.6,3-19.3,2.7-17.4,4.2-26.6,6.9-38.6,1.2-4.9,1.5-5.9,2.4-10.5.4-1.9,1.6-7.4,3.9-22.6,1.7-11.1,1.6-11.3,2.3-14.5s1-3.8,4.3-15.3,2.8-9.2,3.1-10.4c1.3-4.7,3.5-12.3,5.4-22a77.6,77.6,0,0,1,3.1-12.4c1.1-2.8,1.3-2.7,2.8-6.6s1.5-4.6,2.7-5.4a2.7,2.7,0,0,1,1.2-.5" transform="translate(-50.9 -34.2)" fill="none" stroke="#000" stroke-linecap="round" stroke-linejoin="round" stroke-width="1.42"/><path d="M471.3,976.7a5.3,5.3,0,0,1,1.7,2.2h0" transform="translate(-50.9 -34.2)" fill="none" stroke="#000" stroke-linecap="round" stroke-linejoin="round" stroke-width="1.42"/><path d="M472.2,984.4c-.1.1-.1.3-.2.4l-2.3,6.4c-3.7,8.2-4.6,9.2-6.6,14.2s-1.4,4-3.1,8.2c-.7,1.5-2,4.6-4.2,8.5s-4.6,8.6-6.6,10.1" transform="translate(-50.9 -34.2)" fill="none" stroke="#000" stroke-linecap="round" stroke-linejoin="round" stroke-width="1.42" stroke-dasharray="5.61 5.61"/><path d="M446.7,1033.2a5.6,5.6,0,0,1-2.8-.4" transform="translate(-50.9 -34.2)" fill="none" stroke="#000" stroke-linecap="round" stroke-linejoin="round" stroke-width="1.42"/><path d="M247.5,517.2l.3.3c.9.9.6,2.7.4,3.6-.8,3.4-1.2,6.8-2.1,10.1-.2.6-.7,3.8-1.7,10.2s-1.1,7.9-1.8,12.1h0c-1.1,5.8-1.6,9.2-1.8,10.6-.9,5.2-.3,5.2-1.1,10.3s-1.4,6.1-4.2,17c-.3,1.1-.8,3.3-1.9,7.8-1.8,7.7-4.4,18.5-5.7,24.3-3.6,15.5-3.2,17.5-9.1,46.9-1.5,7.2-2.1,10.4-3,14.1-1.3,5.4-3.3,13.5-5.4,21.4a81,81,0,0,0-2.5,10.7c-.6,3.2-.6,4.7-1.4,8.3-.4,1.8-.9,3.6-1.9,7.1-1.4,5-1.6,5.4-2.4,8.1s-1.4,6.3-1.7,7.7c-.8,4.4-.7,5.1-1.7,11s-1,4.9-1.3,7.5a58.7,58.7,0,0,0-.3,11.5,70,70,0,0,0,3.8,18.5,92.3,92.3,0,0,0,10.8,22.1,103.4,103.4,0,0,0,15.8,18.4l7,6.3,13.2,11.5c4.5,3.6,4.2,2.8,15.6,10.7,7.1,4.8,7,5,11.1,7.7s4.4,2.7,13.9,8.3l14.6,8.9c8.9,5.5,10.7,6.7,12.3,7.9,4.1,3.1,4.8,4.1,8.7,6.9a102.5,102.5,0,0,0,10.6,6.5c2.3,1.2,4.1,2.1,23.7,10.4l10.8,4.6a45.8,45.8,0,0,1,4.6,1.9c2.5,1.3,3.5,2.2,6.1,3.7a58.3,58.3,0,0,0,5.6,2.8c6.8,3.2,8.8,4.7,14.8,7.5a157.2,157.2,0,0,0,20.3,7.6c8.2,2.6,6.8,1.7,11,3.2s11.4,5.6,23.4,12.7,7.2,4.8,9.8,6.1a50.1,50.1,0,0,1,5.7,3.9l.9.8" transform="translate(-50.9 -34.2)" fill="none" stroke="#000" stroke-linecap="round" stroke-linejoin="round" stroke-width="1.42"/><path d="M224.4,514h1.4" transform="translate(-50.9 -34.2)" fill="none" stroke="#000" stroke-linecap="round" stroke-linejoin="round" stroke-width="1.42"/><path d="M230.5,514.5l8.9,1.3,4.4.8" transform="translate(-50.9 -34.2)" fill="none" stroke="#000" stroke-linecap="round" stroke-linejoin="round" stroke-width="1.42" stroke-dasharray="3.16 4.75"/><path d="M246.2,516.8a4,4,0,0,1,1.3.4" transform="translate(-50.9 -34.2)" fill="none" stroke="#000" stroke-linecap="round" stroke-linejoin="round" stroke-width="1.42"/><path d="M322.9,265.7a34.7,34.7,0,0,0,2.6-2.4l1.6-1.7,1.2-1.5,1.3-1.7.9-1.1s1.2-1.4,2.5-2.7,9.8-5.6,16-7.4a14.9,14.9,0,0,1,4.6-.9c1.6-.2,2.2.1,3.7-.2s1.7-.6,3.9-1.2a38.6,38.6,0,0,1,6.4-1.2l3.1-.4a33.7,33.7,0,0,1,9.8.6,74.4,74.4,0,0,1,8.5,1.9,62.5,62.5,0,0,0,6.2,1.6c2.7.6,2.6.4,5,.9a70.5,70.5,0,0,1,6.8,2l3.6,1.3c1.4.4,3.6,1.2,7.8,2.3l7.4,2c5.2,1.3,7.5,2.6,14.9,5.5,10.6,4.1,11.9,3.9,23.7,8.4,3.3,1.3,5.4,2.2,9.1,3.4s4.1,1.2,6.6,2.2,3.5,1.5,6.7,3l5.7,2.7a67.2,67.2,0,0,0,8.5,3.1c4,1.2,7.2,1.8,10.2,2.5,4.6.9,6.1,1,9.1,2.1l4.6,1.8,5.4,2.3c3.1,1.4,5.2,2.1,11.2,4.3,9.6,3.6,14.5,5.4,17.3,6.9s3.4,2,7.9,4.3c.8.4,3.7,1.9,9.7,4.6,7.9,3.5,7.5,3.1,10.2,4.5s5.6,3.5,11.4,7.7,9.7,7,12.3,9.8,2.5,2.8,5,5.3,3.1,3,6.2,5.8,5,4.4,6.2,6.4a27.6,27.6,0,0,1,1.8,3.9,36.5,36.5,0,0,1,2.1,6.6c1.4,5.8,1.9,5.5,3.6,12.5s1.6,9,3.4,17.2c.1.6.4,1.8.6,3.6a37.2,37.2,0,0,1,.2,6.4c0,3.1.5,2.8,2,12.3.1.5.4,2.5.9,6.6.9,6,1,6.9,1.2,8.3s.1,4.4.1,7.4c0,6.5-.5,6.3-.2,9.7.1.9.3,3.1.9,7.6l.4,3.3c.1,1,.2,3,.2,7.2-.1,2.3-.2,4.1-.2,4.3-.3,6.6-.4,14.3-.5,19.2,0,3.2.1,2,.1,12.7,0,15.1-.1,16.1.2,19.7.1,1.2.6,6.9,2,14.3s1.6,5.9,2.8,12.4,1.1,8.2,2.3,14.5c.4,1.6.8,3.6,1.3,6.7s.5,3,.8,4.3,1,3.3,2.2,6.9,1.3,5.3,2.8,9.1a32,32,0,0,0,1.9,4c.4.8,1.6,3.1,5.8,8.3a54.2,54.2,0,0,0,4.3,5,49.3,49.3,0,0,0,7.1,6.3,54.1,54.1,0,0,0,8.5,4.9l4.5,2.1c2.3.9,3.6,1.2,6.2,2,5,1.6,4.5,1.9,7.2,2.6a42.2,42.2,0,0,0,10.2,1.2,46.6,46.6,0,0,1,7.5.3l3.7.7,4,.7c.5,0,2.7.4,4.6.5s2.3.2,7.6-.2a84.2,84.2,0,0,0,8.6-.8c4.1-.6,5.1-1.1,5.9-1.7a13.8,13.8,0,0,1,2.5-1.9l2.1-1a18.6,18.6,0,0,1,8.1-1.4c1.7.1,1.9.4,5.6,1l3.5.4c4.1.3,4,.1,5.5.4s2.7.9,5.8,2.3l4.3,2c3.5,1.7,5.3,2.5,7,3.2s4.5,1.4,10.5,3a24.1,24.1,0,0,1,6.5,2.4,21.4,21.4,0,0,1,3.4,2.5,124,124,0,0,1,9.8,8.6c3.7,3.8,5.5,5.7,7,8.5.5,1.2,1,2.4,2.8,5.9s1.3,2.8,2.4,4.9c3.1,6.2,4.6,9.3,5.2,11s1,4.1,2.3,6.5a18.1,18.1,0,0,1,1.8,3.1,24.3,24.3,0,0,1,1.5,4.9c1.2,6.9.1,18-.3,21.5-.2,1.7-.5,3.9-1,6.7s-.8,3.6-1.1,5.1c-1,4.5-.7,6.6-1.2,11.5-.1,1.7-.6,4.8-1.6,10.9-.7,4.2-1.5,9.2-2.8,15.7-.9,4.8-.8,3.8-2.7,13.1s-2,10.1-3,14.7c-1.5,6.4-1.7,6.2-2.5,10.4s-.9,5.7-2.1,13.5-2,11.8-2.5,14.2c-1,5.4-1.9,9.4-2.8,13.2-2,8.8-3.1,13.4-4.8,18.8-.4,1.2-.9,2.7-1.6,5-1.3,4.5-1.2,5.2-2.2,8.5-.4,1.2-.3.7-2.4,6.5l-1.8,5.2a91.9,91.9,0,0,0-2.4,8.9,148.4,148.4,0,0,1-5.6,17.9,55.5,55.5,0,0,1-2.6,5.8c-2.5,5.2-5,10.3-9.3,15.1-1.3,1.4-2.6,2.8-4.8,5.5a56.9,56.9,0,0,0-3.5,4.5c-1.8,2.7-2.1,3.5-3.3,5.3a41.3,41.3,0,0,1-5.4,5.9,103.1,103.1,0,0,1-15,11.8c-3.9,2.4-7.7,4-15.3,7.4s-9.9,4.4-15.2,5.9l-11.7,2.7a59.1,59.1,0,0,1-6.9,1.1h-2.3a8.7,8.7,0,0,0-2.3,0l-1.9.6-1.6.8a56.2,56.2,0,0,1-6.8,2.6c-1.6.4-3.4.9-5.8,1.3s-2.4.2-5.4.4a74.7,74.7,0,0,0-8,1.2c-3.5.7-3.5,1.1-6.2,1.6a49.3,49.3,0,0,1-6.9.4l-10,.3c-10,.4-11.4.3-15,.9l-4.6.8a56.9,56.9,0,0,1-9.6.3l-10.5-.5c-5-.3-9.9-.9-16.6-1.9s-17.5-2.6-30.2-5.6c-3.8-.9-9-2.3-19.3-5.1s-12.9-3.7-17.1-5.1-7.8-2.8-11.3-4.1c-6.9-2.7-6-2.5-12.1-4.8s-9.1-3.3-13.9-5.6l-4.7-2.4c-4.6-2.6-5.7-3.6-9.9-5.8-2.3-1.1-2.2-.9-4.5-2.1s-4.7-2.7-6.9-4a66.9,66.9,0,0,0-8.4-3.8c-12.5-4.9-25.9-11.8-28.2-13-5.6-2.9-10.4-5.6-10.4-5.6-8.5-4.7-10.1-6.1-15.2-8.3s-3.1-.9-10.8-3.8-12-5-13.3-5.6c-5.3-2.5-4.3-2.4-8.2-4.2s-7-2.6-17-6.2l-7.1-2.6c-13-5.2-15.9-9.3-28.2-14.8-1.2-.6-3.4-1.6-6.2-3.3a76.5,76.5,0,0,1-7.9-5.9l-8.5-6.9c-4.4-3.6-7.8-6.1-13.3-10.1s-9.1-6.6-11.4-8.9a21.8,21.8,0,0,0-2.9-2.6c-1.2-.9-1.8-1.1-3.7-2.3l-2.4-1.8a44,44,0,0,1-6.6-6.6c-1.2-1.4-2.6-3.1-4.6-5.7s-5.9-7.5-8.5-11.5a31.9,31.9,0,0,0-2.4-3.2c-1.2-1.3-1.5-1.4-2.6-2.6a18.5,18.5,0,0,1-2.9-4.1c-1.1-2-.9-2.5-2-5s-1.5-2.8-2.6-4.9a38.2,38.2,0,0,1-2.9-9.2c-.4-1.8-.2-1.7-1.1-8.3s-.8-5.8-1-7.9a77.2,77.2,0,0,1-.2-9.8c.1-11.3.2-17,.2-19.9a95.5,95.5,0,0,1,.1-10.8c.1-2.7.3-2.7.7-8s.6-7.2.9-11.4.4-6.4.5-8,.5-5.7,3-19.4,3.5-18.5,4-20.8c1-4.1,1.9-7.5,2.6-9.9" transform="translate(-50.9 -34.2)" fill="none" stroke="#000" stroke-miterlimit="10" stroke-width="0.99"/><path d="M561.6,35.9c-.8,1.1-1.6,1.8-2.1,2.4a34.2,34.2,0,0,0-3.3,3.3l-1.6,1.9c-1.3,1.6-1.3,1.8-1.9,2.5s-1.7,1.6-3,3.1a41.9,41.9,0,0,0-2.4,3.5l-2.7,4-2.3,3.7a34.2,34.2,0,0,0-2.6,5.1c-.6,1.3-1.2,3.4-2.5,7.6a33.1,33.1,0,0,0-1.3,4.6c-.6,2.3-.4,2.8-1,5.8s-.4,1.3-1.1,4.7-.7,3.6-.9,5.1a19.9,19.9,0,0,0-.2,2.7,17.7,17.7,0,0,0,.3,3.7,73.2,73.2,0,0,0,1.6,9.6,55.4,55.4,0,0,0,1.8,5.9c1.1,3.4,1.5,3.8,2.9,7.6s1.3,4.2,2.5,7.2a55.5,55.5,0,0,0,3.5,7.3c.4.8,1.8,3.3,4.1,7s2.8,4.4,6.9,10.3l6.2,8.7a89.5,89.5,0,0,0,10.1,10.9" transform="translate(-50.9 -34.2)" fill="none" stroke="#000" stroke-miterlimit="10" stroke-width="0.99"/><path d="M532.5,159.2c-9.6-3.6-15.8-7.2-19.6-9.9a67.4,67.4,0,0,0-7.4-4.7A113.7,113.7,0,0,0,495,140c-5.1-2.1-7.7-3.2-9.7-3.9-5.3-2.1-10.1-3.6-18.2-6.1-14.8-4.4-26.1-7.4-29.7-8.4-15.9-4.1-20.8-5-22.8-5.3-4-.6-5.7-.7-11.6-1.8a112.3,112.3,0,0,0-11.6-1.7,76.4,76.4,0,0,0-8.7.1c-2.7.1-2.2,0-31.1-.4a66,66,0,0,0-13.5.7c-2.4.5-3.6.9-7.4,1.6s-8.8,1.2-9.8,1.3c-9.1,1-22,5.7-29.4,8.4a256.4,256.4,0,0,0-28.6,12.7c-6.1,3.2-10.5,6-14,9.4l-5,5.1-5.3,5a81.1,81.1,0,0,0-8.1,9.4,64.4,64.4,0,0,0-6.4,11.9,121.9,121.9,0,0,0-6.5,18.3c-.8,3-1.4,6.3-2.7,13s-1.9,9.4-2.3,12.3c-.9,5.9-.7,7.1-1.8,10.1s-1.4,3.2-3.5,8c0,0-1.3,2.9-3.2,7.9-3.9,10.2-5,17-9.8,31.6-2.6,7.9-4.5,12.3-5.2,18.4-.6,3.9-1.1,8.7-1.1,8.7-.6,4.9-.5,5.1-.8,7.4-.7,4.3-1.1,5.4-1.7,9.5-.3,1.9-.6,4.1-1,8.5-.8,8.6-1,14.9-1.5,22-.2,4.3-.6,11.6-1.6,20.5s-1.2,8.8-2.3,18.9-2,18-2.1,26.2c0,2.1.1,7-.1,14.1,0,.6-.1,3.2-.2,6.4-.8,21-2.8,38.7-2.3,49.9a86.5,86.5,0,0,1,0,9.2c-.1.6-.2,2.9-.7,6.8s-1.2,8.7-1.4,9.7c-.8,4.9-1,10.1-1.4,20.6s-.5,16.2-.4,21.3a62.7,62.7,0,0,1-.4,10.9,78.4,78.4,0,0,1-1.8,9.6c-1.6,7.1-2.2,13.2-3.5,25.5-.6,5.4-.9,8.1-1,10.7s.1,5.2-.2,9.7c-.1,1.6-.2,3.1-.3,4.1-.4,4.6-.6,5.5-.7,8.2s.1,2.5,0,5-.4,4.9-.8,7.5c-.8,5.2-1.6,8.8-2.1,11.4a195.1,195.1,0,0,0-2.7,19.5c-.4,3-.2,1.3-1.4,13.4-.8,8-1.1,10.3-1.5,13.1-.8,6.4-.9,5.6-1.5,10.4-.8,6.3-.6,7.7-1.5,13.8-.4,2.7-.5,3.1-.9,6.3s-.8,5.8-1,9.3.1,3.3-.1,7.1-.5,4.7-.8,9.5-.1,4.5-.4,8.8c-.1,1.1-.4,4.8-1.1,9.7s-1,4.5-1.6,7.8-.9,9.2-1,18.6c0,.1-.1,2.5-.1,7.3-.1,9.1-.2,9.7-.1,11.1.1,5.3.2,8,1,11.6a71.8,71.8,0,0,0,2.1,6.9,61.7,61.7,0,0,0,2.7,6.6c1.3,2.6,1.9,3.2,3.2,5.4,2.6,4.6,2,5.6,4.9,12.2a45.6,45.6,0,0,0,4.1,7.5,47.7,47.7,0,0,0,5.2,6l5.7,5.1,8,7c5.2,4.7,5.1,5.3,8.5,8a82.8,82.8,0,0,0,7.7,5.2c2.8,1.9,6.8,4.7,11.7,8.4" transform="translate(-50.9 -34.2)" fill="none" stroke="#000" stroke-miterlimit="10" stroke-width="0.99"/><path d="M83.3,36.7l8.2,3.8,5.3,2.2c1.5.6,1.9.6,10.5,2.6l7.3,1.8,2.6.8a29.6,29.6,0,0,0,3.7.8c2.7.6,2.9.3,4.6.8l3,1.2,3.5,1.7a21.1,21.1,0,0,0,4.1,1.2,9.6,9.6,0,0,1,2.8.7,8.2,8.2,0,0,1,1.9.9l2.5,1.5c1.7,1.2,2.9,1.4,4.8,2.3s3.3,2,7.2,4.8l5,3.6,4.9,3.5c4.5,2.9,4.8,2.6,8,4.7a64.7,64.7,0,0,1,7.2,6,39.7,39.7,0,0,1,5.4,5.9,61.7,61.7,0,0,1,4.4,8,44.7,44.7,0,0,1,2.2,4.7,33.3,33.3,0,0,1,1.7,9.7c.1,1.6,0,2.2.2,4.1s.3,2.1.8,4.9a57.7,57.7,0,0,1,.7,6.7c0,.3.1,1.7,0,3.3a59.8,59.8,0,0,1-.9,8.9c-1.2,7-.3,6.4-1.3,11.6s-1.8,5.2-3.5,12.5c-.8,3.3-.6,2.9-1.6,7.9-.5,2.4-1.4,6-3.2,13.1s-2.5,10.1-2.8,11a50.4,50.4,0,0,0-1.4,5.1c-.4,1.7-.3,2.1-.8,5.3-.8,5.2-.9,4.8-1.3,7.9a45.2,45.2,0,0,1-.6,5.3c-.3,1.3-.7,3-.7,3.2s-.6,2.3-.7,2.9l-.8,3c-.2,1.2-.2,2.1-.3,3.4v3.6a39.7,39.7,0,0,1-.4,5.6,49.9,49.9,0,0,1-.9,6.7" transform="translate(-50.9 -34.2)" fill="none" stroke="#000" stroke-miterlimit="10" stroke-width="0.99"/><path d="M56.6,51.1a18,18,0,0,1,4.6.6L65,53.1,69.7,55c1.5.7,1.4.9,4.6,3.1s3.8,2.5,5.7,3.5a37.8,37.8,0,0,1,3.6,1.9c1.6,1,1.9,1.5,3.6,2.6A25.7,25.7,0,0,0,90.8,68,29.2,29.2,0,0,1,97,72.5c3.3,2.6,5.3,4.9,9.3,9.4l5.9,6.9c1.4,1.6,2.7,3.2,4.1,4.7l2.7,3.2c1.2,1.6,1.2,1.9,2.3,3.2a19.1,19.1,0,0,0,3,3.3c1.7,1.5,2.2,1.5,3.8,2.8a34.8,34.8,0,0,1,3.4,3.7c1.5,1.7,1.5,1.9,5.3,6.8l2.6,3.4,1.9,2.8c1.3,1.9,1.4,2.7,2.9,6l3.6,7.2a23.9,23.9,0,0,1,1.7,3.7c.8,2.1.4,2.2,1.2,4.3s1.1,2.5,2.4,5.2c.4.9.5,1,.8,1.6a45.1,45.1,0,0,1,3,6.9c.6,1.7.1.9,1.3,6.4a50.3,50.3,0,0,0,1.1,5,35.4,35.4,0,0,1,1,4.5,22.7,22.7,0,0,1,.5,4.2,69.3,69.3,0,0,0,1.2,7.1c2.3,10.9,2.9,13.7,3.7,18.1.4,2.5.8,4.5,1.1,7.2s.2,2.6.4,4a37.7,37.7,0,0,0,1.8,6.7c1.1,3.6,1.4,3.8,2,5.9s.6,2.4,1.7,8.5c.8,4.1,1.4,8.1,2.1,12.1a38.5,38.5,0,0,1,.9,6.2,45.7,45.7,0,0,1,0,5.3c-.1,5.2-.3,5.7-.3,9.6v5.2c0,2.3,0,3.4-.1,4.6-.1,3.1-.4,4-.7,7.2-.2,1.4-.2,3.6-.4,8.1s-.1,6.2-.3,8.3-.7,2.9-.9,5.6a46.5,46.5,0,0,0,0,7.6c.1,1.8.1,1.3.7,6.9l.4,4.1c.2,2.3.2,2.5.3,4.6a76.8,76.8,0,0,0,.9,7.9c.1.8.2,2,.5,3.6s1.1,4.6,1.5,6.6c1.1,4.6.5,4.2,1.5,9.1.6,2.8.8,3.2,2,8.2.4,1.9.8,3.5,1,4.6" transform="translate(-50.9 -34.2)" fill="none" stroke="#000" stroke-miterlimit="10" stroke-width="0.99"/><path d="M591.3,35.9a58.3,58.3,0,0,0-2.5,5.5,46.5,46.5,0,0,0-1.2,4.7,36.9,36.9,0,0,0-.9,6,54.3,54.3,0,0,0-.2,7.3c0,6.6.4,11.5.5,13.3s.5,4.9.6,6.5c.5,4.3,1.1,7.6,1.2,8.5,1,5.9,2.1,10.3,2.4,11.7s1.4,5.4,2.8,9.9,3.7,10.1,5.1,13.6,2.5,5.9,4,8.9,1.3,2.3,2.7,5.1,1.9,3.8,3.1,6.1,3.1,6,5.5,10.1l4.3,6.6,3.7,5.7c2.1,2.9,2.8,3.3,8.2,9.4.2.3,2.5,3,7.2,8.3a71.9,71.9,0,0,1,4.4,5.7l1.5,2.2c1.7,2.4,3.4,4,10.3,9.9l5.8,4.9a46.8,46.8,0,0,0,5.9,4.9c1.8,1.3,2.1,1.3,4.3,2.7s4.2,3.2,5,3.8a60.5,60.5,0,0,0,11.4,7.2" transform="translate(-50.9 -34.2)" fill="none" stroke="#000" stroke-miterlimit="10" stroke-width="0.99"/><path d="M655.2,269.9a47.9,47.9,0,0,1,3.3,4.1,12,12,0,0,1,1.1,1.9l1.1,2a14.2,14.2,0,0,0,2.5,3c3,3,2.6,3,4.3,4.5s2.4,1.7,6.1,4.5c2,1.5,1.7,1.4,6.3,5.2l4.1,3.3,5.3,4.3c3.3,2.5,3.3,2.1,7.6,5.3l5,3.8,2.9,2.2,3.5,2.5a22.8,22.8,0,0,0,3,1.9,36.5,36.5,0,0,0,6.1,3.2l3.7,1.3,3.1,1.1a23.3,23.3,0,0,1,3,1.8l3,1.6c3.1,1.6,4.6,2.1,8,3.7a67,67,0,0,1,6.4,3.4,56.3,56.3,0,0,1,6.1,3.7l3.9,2.6,4.5,3.1c2.4,1.5,3.5,1.7,8.9,3.9l8.2,3.6,9,3.9c3.7,1.9,3.2,2,9.6,5.4,4.4,2.5,5.3,2.8,8.1,4.5s2.6,1.7,6.1,4.2c7.8,5.4,6.7,4.5,8.9,6.2s5.7,4.4,12,9.5l4.8,4c3.3,3,4.5,4.4,8.5,8.4.8.9,3.2,3.2,8.1,7.9l8.1,7.7a119.2,119.2,0,0,1,14.1,17.1,65.3,65.3,0,0,1,4.4,7.4c.5,1,1,2.1,2,3.8s1.7,2.5,2.4,4.1.8,2.2,2.2,5.7c.1.2.2.3.2.4,1.3,3.2,2.6,5.7,2.9,6.3A36.7,36.7,0,0,1,891,469a40.6,40.6,0,0,1,.2,6c-.1,2.8-.4,3.7-.6,8.1-.1,1.7-.2,3-.2,4.9s.1,3.9,0,6.5-.2,3.3-.3,4.4a189.6,189.6,0,0,1-3.9,21.4c-1.7,7.3-2.5,10.9-3.5,13.9s-1.1,2.5-5.4,13.8c-1.3,3.2-3.5,9.2-5.8,13-1.1,2-2.5,4.1-2.5,4.1s-1.1,1.8-2,3.2c-2.2,3.4-3.3,5.1-4.6,6.8a47.9,47.9,0,0,1-5.7,6.4,60.4,60.4,0,0,1-9.1,7.9c-3.4,2.3-7.4,3.9-15.3,6.9-4.3,1.7-10.3,3.8-14.7,4.2l-5,.3a26.4,26.4,0,0,0-4.2.1,24.6,24.6,0,0,0-4.9,1c-4.5,1.3-2.9.5-13.6,3.3l-4.4,1.1c-4,.8-6,.4-11.1.7l-10.2.5c-4,.1-7.3,0-9.7-.1a39.7,39.7,0,0,1-6.2-.7,37.1,37.1,0,0,1-8.2-2.8c-2.4-1.1-4.4-2.3-4.6-2.4h0a35.3,35.3,0,0,1-4-3l-5.2-4.2c-2.4-1.8-2.4-1.6-3.8-2.7l-3.8-4-2.3-2.5-3.3-3.7a27.5,27.5,0,0,1-3.2-4.3c-.8-1.5-.8-1.8-1.8-3.9s-1.6-3-3.2-5.7-2.1-3.5-3.7-5.9a103,103,0,0,0-7.1-9.8c-2.6-3.1-2.8-3-5.5-6.4-1.5-1.8-2.9-3.7-4.7-6.3s-3.3-5.6-3.6-6.2c-1.2-2.5-1.5-3.5-3.2-7.3l-3.2-7.2a147.8,147.8,0,0,1-5.2-14.1c-1.5-4.6-2.3-6.9-2.9-9.5s-.5-2.5-1.6-8.4-1.5-9-1.7-9.9c-1.1-7.2-1.7-10.8-2.1-14.6s-.4-7.9-.6-14.8v-8.4c-.1-9.6-.1-13.6-.1-17.7,0-10.9-.3-19.4-.4-22.4-.3-9.6-.5-14.5-1.3-20.1,0,0-1.6-11.1-4.3-17.9-.4-.9-1.1-2.5-2.4-5.8a24.7,24.7,0,0,0-1.4-3.3c-.9-1.8-1.5-2.4-2.7-4.4s-1.5-2.8-2.2-4-2.6-3.4-6.3-6.7c-5.2-4.6-7.7-7-8.2-7.3a66.5,66.5,0,0,0-10.8-7.1c-4.7-2.5-5.8-2.3-10.3-5.1-2.6-1.6-3.1-2.1-6.1-3.9s-2.5-1.3-7.8-3.9c-9.3-4.5-10.7-5.2-12.5-6.5l-3.3-2.1-4.8-2.6c-5.7-2.7-8-4.8-15.2-8.3s-6.6-2.5-12.5-5.6c-2.7-1.4-4.9-2.7-7-3.9-5.8-3.4-6-3.9-10.2-6.4s-4.8-2.3-12.1-6.3c-5.7-3.2-5.7-3.5-8.5-4.7a85.7,85.7,0,0,1-7.8-3.6l-3.9-2.5-5.3-3.3c-5.7-3.7-8.9-4.9-17.6-10.1l-8.1-5.2a37.8,37.8,0,0,1-3.5-2.4,41.1,41.1,0,0,1-3.5-2.7c-1.2-.9-1.8-1.5-2.5-2.1l-5.5-4.3c-4.8-3.6-9.9-7.4-15.1-10.6l-5-3a37.6,37.6,0,0,0-3.5-1.8l-2.1-.9-2.3-.9-1.8-.6-1.4-.7c-2-1.3-4.1-2.4-6.2-3.7l-8-5" transform="translate(-50.9 -34.2)" fill="none" stroke="#000" stroke-miterlimit="10" stroke-width="0.99"/></g><g id="texts"><rect x="877.3" y="360.8" width="35.8" height="16.9" fill="#fff"/><text transform="translate(886.8 375.4)" font-size="17.01" font-family="SimSun">43</text><text transform="translate(731.4 1239.7) rotate(-10.2)" font-size="22.68" font-family="SimSun"></text><text transform="translate(660.7 114)" font-size="34.02" font-family="SimSun"></text><text transform="translate(984.8 629.4)" writing-mode="tb" glyph-orientation-vertical="0deg" font-size="34.02" font-family="SimSun" style="text-orientation:upright"></text><text transform="translate(224.6 520.1)" font-size="28.35" font-family="SimSun"></text><text transform="translate(433.4 1117.8)" writing-mode="tb" glyph-orientation-vertical="0deg" font-size="28.35" font-family="SimSun" style="text-orientation:upright"></text><rect x="30.8" y="179.9" width="35.8" height="16.9" fill="#fff"/><text transform="translate(31.8 194.5)" font-size="17.01" font-family="SimSun">36.3</text><rect x="48.8" y="131" width="35.8" height="16.9" fill="#fff"/><text transform="translate(58.2 145.6)" font-size="17.01" font-family="SimSun">37</text><rect x="202.9" y="364.8" width="35.8" height="16.9" fill="#fff"/><text transform="translate(212.3 379.4)" font-size="17.01" font-family="SimSun">42</text><rect x="104.4" y="733.2" width="35.8" height="16.9" fill="#fff"/><text transform="translate(105.3 747.8)" font-size="17.01" font-family="SimSun">40.3</text><rect x="465.7" y="1274.8" width="35.8" height="16.9" rx="6.9" fill="#fff"/><text transform="translate(466.6 1289.4)" font-size="17.01" font-family="SimSun">39.7</text><rect x="478.2" y="1072.7" width="35.8" height="16.9" rx="6" fill="#fff"/><text transform="translate(479.1 1087.2)" font-size="17.01" font-family="SimSun">38.4</text><rect x="598.4" y="990.4" width="35.8" height="16.9" fill="#fff"/><text transform="translate(599.3 1005)" font-size="17.01" font-family="SimSun">42.9</text><rect x="440.7" y="255.8" width="35.8" height="16.9" rx="8.5" fill="#fff"/><text transform="translate(441.6 270.3)" font-size="17.01" font-family="SimSun">42.3</text><rect x="430.7" y="342.7" width="35.8" height="16.9" fill="#fff"/><text transform="translate(431.6 357.3)" font-size="17.01" font-family="SimSun">38.9</text><rect x="630.4" y="455.4" width="35.8" height="16.9" fill="#fff"/><text transform="translate(631.3 470)" font-size="17.01" font-family="SimSun">43.7</text><rect x="966.8" y="345.3" width="35.8" height="16.9" fill="#fff"/><text transform="translate(967.7 359.8)" font-size="17.01" font-family="SimSun">36.7</text><rect x="825.3" y="465.4" width="35.8" height="16.9" fill="#fff"/><text transform="translate(826.2 480)" font-size="17.01" font-family="SimSun">43.2</text><rect x="585.8" y="609.9" width="35.8" height="16.9" fill="#fff"/><text transform="translate(586.8 624.4)" font-size="17.01" font-family="SimSun">41.9</text><rect x="383" y="738.8" width="35.8" height="16.9" fill="#fff"/><text transform="translate(383.9 753.4)" font-size="17.01" font-family="SimSun">37.6</text><rect x="540.6" y="774.2" width="35.8" height="16.9" fill="#fff"/><text transform="translate(541.5 788.8)" font-size="17.01" font-family="SimSun">38.3</text><rect x="550.1" y="737.4" width="35.8" height="16.9" fill="#fff"/><text transform="translate(551.1 752)" font-size="17.01" font-family="SimSun">40.7</text><rect x="877.3" y="360.8" width="35.8" height="16.9" fill="#fff"/><text transform="translate(886.8 375.4)" font-size="17.01" font-family="SimSun">43</text><rect x="712.9" y="787.9" width="35.8" height="16.9" fill="#fff"/><text transform="translate(722.3 802.5)" font-size="17.01" font-family="SimSun">41</text><rect x="758.6" y="811.8" width="35.8" height="16.9" fill="#fff"/><text transform="translate(768 826.4)" font-size="17.01" font-family="SimSun">42</text><rect x="593.1" y="43.1" width="35.8" height="16.9" rx="8.5" fill="#fff"/><text transform="translate(594.1 57.7)" font-size="17.01" font-family="SimSun">36.8</text><rect x="693.4" y="1098.6" width="35.8" height="16.9" fill="#fff"/><text transform="translate(694.3 1113.1)" font-size="17.01" font-family="SimSun">36.2</text></g><g id="scale-1:100"><path d="M1061.2,1349.8v10l-141.7-.3v-10" transform="translate(-50.9 -34.2)" fill="none" stroke="#000" stroke-miterlimit="10" stroke-width="0.57"/><line x1="896.9" y1="1315.4" x2="896.9" y2="1325.4" fill="none" stroke="#000" stroke-miterlimit="10" stroke-width="0.57"/><line x1="925.3" y1="1315.5" x2="925.2" y2="1325.5" fill="none" stroke="#000" stroke-miterlimit="10" stroke-width="0.57"/><line x1="953.6" y1="1315.5" x2="953.6" y2="1325.5" fill="none" stroke="#000" stroke-miterlimit="10" stroke-width="0.57"/><line x1="981.9" y1="1315.6" x2="981.9" y2="1325.6" fill="none" stroke="#000" stroke-miterlimit="10" stroke-width="0.57"/><text transform="translate(864.9 1310.9) rotate(0.1)" font-size="14.17" font-family="SimSun">0</text><text transform="translate(1007 1311.2) rotate(0.1)" font-size="14.17" font-family="SimSun">50m</text></g></svg>