<svg xmlns="http://www.w3.org/2000/svg" viewBox="0 0 473.7 720.1"><g id="outline"><path d="M485.5,617.4v57.7H12.9v-103c1.8,3.5,3.4,6.7,4.7,9.4a84.3,84.3,0,0,1,3.7,7.7,56.9,56.9,0,0,1,3.1,9.6c.8,3.4.8,4.7,1.9,7.4a27.1,27.1,0,0,0,2.6,4.8c.6.9,1.6,2.2,5.9,6.7,2.4,2.5,3.6,3.8,4.2,4.3,2.8,2.4,3.3,2,8,5.3a39.2,39.2,0,0,1,5.4,4.3,34.3,34.3,0,0,1,2.8,2.8l2.2,2c2.5,2.1,3.8,3.2,5.2,2.9s3.1-3.4,3.3-5.1a14.6,14.6,0,0,0,0-2.1,22.8,22.8,0,0,0-.3-3.6,34.2,34.2,0,0,1,.5-4.9c.8-5.7,1-6.8,1.2-7.6a35.8,35.8,0,0,1,.9-3.5c2.3-8.2,2.7-11.6,4.4-16.3a45.9,45.9,0,0,1,1.7-4.4c.6-1.4.9-2,1.2-2.9,1.5-3.2,1.3-3.9,3.4-10.2a32.6,32.6,0,0,0,1.2-3.9c.3-1.5.5-2.9.7-4.3s.2-1.7.4-3.6c.5-4.5.6-4,.6-5.2a15.5,15.5,0,0,0-.7-6c-.4-1.1-.8-1.6-1.6-3.9l-.8-2.4a33.1,33.1,0,0,1-1.1-4,38.1,38.1,0,0,0-2.6-6.2c-2.3-4.8-3.5-7.2-4.8-9.6-3.9-6.9-5.3-7.4-8.3-13.5-1.2-2.5-2.1-4.7-2.6-5.8s-1.4-3.6-3.4-10a113.2,113.2,0,0,1-3.3-11.1,79.7,79.7,0,0,1-1.6-9.4,65.5,65.5,0,0,1-.7-6.8,54.5,54.5,0,0,1,1.8-14.4,81.2,81.2,0,0,1,3.3-10.3A92.2,92.2,0,0,1,66.6,428a119.6,119.6,0,0,1,8-9.9c3.9-4.5,4.3-4.5,10.7-11.5a145.9,145.9,0,0,0,12.2-14.8,49.9,49.9,0,0,0,3.4-5.8c.2-.5,1.1-2.4,2-5.1s2.1-6.2,2-9.1c0-1.2-.1-1-.4-4.2a39.2,39.2,0,0,1-.3-5.4c0-1,.1-1.4,2.1-8.8a40.5,40.5,0,0,1,2.4-6.7,18.6,18.6,0,0,1,1.6-2.7,16.5,16.5,0,0,1,3.9-3.3,19.9,19.9,0,0,1,3-1.5c1.7-.7,2.6-.8,5.9-1.4l5.5-1.2,5.4-1.2,3.7-.4H140c2.3-.1,2.8-.2,3.7.1a5.5,5.5,0,0,1,1.4.9c.7.6,1.4,1.1,1.6,1.8s-.2,2.7-.9,4a8.4,8.4,0,0,1-1.4,2.2l-1.3,1.6c-1,1.2-1.4,1.8-1.4,2.2s.6,1.3,1.8,2.2a25.9,25.9,0,0,0,2.9,1.8,20.5,20.5,0,0,1,3.2,2.4c1.6,1.8,2,4,2.4,6.3a25.5,25.5,0,0,1,.3,4.2,58.2,58.2,0,0,1-.7,8.8c-.4,3-.7,5-1.2,8.5-.8,5.4-1.3,9.4-1.9,14.1a95.6,95.6,0,0,0-1.1,10.6c0,.6,0,.3-.1,4.4,0,.6-.1,4.8-.2,10.3a66.3,66.3,0,0,1-.4,7.4c-.1.9-.3,1.9-.7,4.5s-.3,2.6-.4,3.6-.3,3.3-.5,6.2a74.9,74.9,0,0,0-.1,9.4,52,52,0,0,0,1,7.2,62.1,62.1,0,0,0,2.1,8.2c1.4,4.2,2.2,6.8,4.2,9.8a41.7,41.7,0,0,0,4.4,5.4,49.4,49.4,0,0,0,4.6,4.7c.9.8,2.4,2.2,4.6,3.9l4,2.8c2.9,1.8,4.1,2.2,7.6,4.1s4.3,2.7,8.3,4.7c2.1,1.1,2.1,1,7.4,3.4l8.9,4.2c6.5,3.3,7.9,4.5,9.1,6a20.3,20.3,0,0,1,2.4,4.6,20.1,20.1,0,0,1,.8,5.5c0,2.6-.5,4.5-1.5,8.1-.3,1.1-1.2,4.1-2.8,8.2s-1.7,3.5-2.9,6.7a63.5,63.5,0,0,0-2.6,8.4c-.8,3-.6,2.5-1.2,4.8s-.9,2.5-3.1,9c-.6,1.9-1,3-1.4,4.6s-.5,2.3-.7,4.1.1,2.2-.1,4.3-.4,2.6-.6,5,0,2-.1,4.1,0,1.5-.2,6.3c-.4,7-.5,7.2-.4,8.6a36.7,36.7,0,0,0,.8,6,29.7,29.7,0,0,0,3.2,7.9c.4.7,1.5,2.4,3.9,5.8a59.8,59.8,0,0,0,3.6,5c2.3,2.9,4.3,4.8,4.9,5.5s1.8,1.4,4,3.5,2.4,2.3,4.7,4.6l7.3,6.4,4,3.4c2.2,1.9,3.1,2.7,4.7,3.9a24,24,0,0,0,3.4,2.2,18.8,18.8,0,0,0,10.7,2,40.3,40.3,0,0,0,5-.6,37.8,37.8,0,0,0,4-1.1,28.9,28.9,0,0,0,5.6-2.9c2.6-1.7,3.9-2.5,5.2-4a19.7,19.7,0,0,0,3.1-5.2,41.2,41.2,0,0,0,2.1-4.8c1-2.6,1.6-3.9,2.1-5.4s1.2-4.9,1.5-6.4.1-1,.8-5.9.8-5.2,1.1-6.3a32.6,32.6,0,0,1,.8-3.6l1.2-6c.3-2.2.4-3.9.6-5.5.2-3.3,0-3.4.3-6a61.4,61.4,0,0,1,.9-6.5c.5-3.4.4-3.3.9-6.5s1.2-8.2,2.3-13,.9-3.6,1.5-6.4a19.6,19.6,0,0,1,2.6-7.6,43.8,43.8,0,0,1,4.3-6.6,23.2,23.2,0,0,1,3.5-4c1.2-.9,1.7-.8,5.9-2.7l4-1.9,5.5-2.6a47.9,47.9,0,0,0,9.4-5c2.4-1.7,1.8-1.7,6.3-5,2.6-2,3.9-3,5.6-4.1s3.9-1.8,6.1-3.5a23.2,23.2,0,0,0,3.5-3.2,38.3,38.3,0,0,0,5.9-8,50.3,50.3,0,0,0,5.8-13.3c.5-1.9.9-3.5,1.6-12.2.6-6.4.7-9.6,1.2-16.7.9-13,1.4-19.5,1.4-19.6a47.7,47.7,0,0,0,.5-8.4,34.6,34.6,0,0,0-.6-6.2l-.7-3.6a38.2,38.2,0,0,1-.5-5.7,48.5,48.5,0,0,1,.4-8.4c.4-3,.7-2.9,1.3-7.6.2-.7.3-2.1.7-4a23.7,23.7,0,0,1,1-4.8c.6-1.6.8-1.6,1.5-3.4a28.8,28.8,0,0,0,1.2-4,19.1,19.1,0,0,1,3.5-6.3c1.3-1.7,1.6-1.6,3.8-4a61.9,61.9,0,0,0,4.1-5c3.4-4.4,5.1-6.5,6.4-7.9a51.2,51.2,0,0,1,6.4-5.6A11.4,11.4,0,0,1,395,367c1.8-.9,2.8-.6,4-1.4a6.4,6.4,0,0,0,2.1-2.6c2-3.7,1.4-8,1-10.6a31.8,31.8,0,0,0-2.3-8,36.7,36.7,0,0,0-6.6-9.9,43.8,43.8,0,0,0-7.3-6.7,53.2,53.2,0,0,0-9.7-5.5l-7.4-3.5-4-2c-2.3-1.2-4.9-2.3-6.3-3a82.4,82.4,0,0,0-11.9-3.7c-2.6-.7-6.1-1.7-10.8-2.6-6.9-1.5-10.4-2.2-13.6-2.3a24.6,24.6,0,0,1-4.5-.4c-.4-.1-2.2-.4-4.5-1.1a27.5,27.5,0,0,1-6.6-3l-2.7-1.9c-2.2-1.5-2.6-1.6-3.9-2.6a12.4,12.4,0,0,1-3.3-3.3,17.1,17.1,0,0,1-2.2-4.7,15,15,0,0,1-.7-4.6,22.4,22.4,0,0,1,1-7.3,21.6,21.6,0,0,1,1.7-4.3c2-3.8,4.6-6.1,7.8-8.8l6.2-4.5c2.4-1.6,4.1-2.8,6.3-4a68.2,68.2,0,0,1,7.2-3.3c6.7-2.7,5.3-2.3,11.4-4.8s9.9-3.7,18.4-6.7l7.2-2.2,8-1.6,6.5-1.2c1.1-.2,1.1-.1,9.5-.7a17,17,0,0,1,5.6.1,10.8,10.8,0,0,1,3.8,1.4,13.4,13.4,0,0,1,3.3,2.3,51.7,51.7,0,0,1,5.5,5.7s2.9,3.2,6.7,6.9a78.8,78.8,0,0,0,8.2,6.5c4.6,3.1,8.3,4.6,14.9,7.2a136.6,136.6,0,0,0,17,5.7c6.7,1.9,11.6,2.8,13.1,3.1s5.3,1,9.3,1.4a108.1,108.1,0,0,0,13.1.6V375.2a16,16,0,0,1-2.6-2.9,28,28,0,0,1-2.5-4.1s-1.8-3.7-5-9c-1.6-2.9-3.1-4.9-4.3-6.7a56.4,56.4,0,0,0-4.3-5.7c-1.2-1.4-2.4-2.5-4.6-4.6s-2.7-2.4-4-2.7l-2.8-.3-3.1-.4c-1.2,0-1.8.4-4,1.5s-3.5,1.5-5.2,2.5a32.9,32.9,0,0,0-4.4,3.3c-3.6,2.8-2.9,2.1-6.4,5-5.5,4.4-6.1,5.2-8.4,6.6a22,22,0,0,0-3,1.9c-1.3,1-1.5,1.4-2.8,2.4l-2.8,1.7c-2.1,1.3-2.2,1.5-3.5,2.2a12.8,12.8,0,0,1-2.8,1.3,5.9,5.9,0,0,0-2.1.5,3.6,3.6,0,0,0-1.4,1.9,7.8,7.8,0,0,0-.7,4.9c.5,2.1,1.9,3.3,4.6,5.6s2.6,1.7,3.8,3,1.5,2,2.6,5.3a42.3,42.3,0,0,1,1.6,7.5,88.1,88.1,0,0,1,1.1,11.9c.2,4.5-.1,4.7,0,10s.3,4.2.3,6.8a74.4,74.4,0,0,1-.7,9.5c-1.1,9.5-1.2,8.5-1.4,11.9-.4,6.1.2,5.4-.3,10.9a18.4,18.4,0,0,0,.1,6.2c.2,1.2.4,1.2,2,5.4s1.3,3.9,2,5.1a22,22,0,0,0,3,4.1,9.3,9.3,0,0,0,3.3,2.6l1.8.8a16.7,16.7,0,0,1,3,1.4,5.2,5.2,0,0,1,1.3,2.8s.5,1.7,2.1,6c.3.8,2.6,6.5,7.3,8.1l5.1.8c3.7.5,4.3.5,5.3,1a8.4,8.4,0,0,1,3.4,4.5,11.2,11.2,0,0,1,.2,4.8,31.8,31.8,0,0,1-1.1,4.7c-.8,2.7-.7,2.9-1.2,4.9-1.1,3.9-1.6,4.5-3.5,10.6-.8,2.5-1.2,3.7-1.6,5.2s-.6,3.6-1.4,8.3-1.2,5.7-1.7,9.7a50.5,50.5,0,0,0-.6,5.6c-.2,3.8.2,4.4.4,10.8.1,2.7.1,2.7.2,7.7.1,3.4.2,4.8.2,5.4.2,3.5.4,6.2.5,6.8.6,5.7.8,8.6,1.9,12.3a50.9,50.9,0,0,0,2.9,7.6,48.1,48.1,0,0,0,2.6,4.9c2.7,4.6,4.1,6.8,6.7,8.4a25.4,25.4,0,0,0,5.3,1.9,18.8,18.8,0,0,0,4.4.8c3,0,5.2-1.3,7.2-2.4a38.6,38.6,0,0,0,4.6-3.2Z" transform="translate(-12.4 -8.8)" fill="#c1e0ea"/><path d="M485.5,9.4v95.8a30,30,0,0,1-3.1-2.3,29.6,29.6,0,0,1-3.9-4.2,48.1,48.1,0,0,1-4.1-5.4,40.9,40.9,0,0,1-3.3-6.8,61.4,61.4,0,0,1-2.6-7.7c-1.7-6.3-1.7-8.4-3.6-14.8a27,27,0,0,0-2.7-6.5c-.5-.7-1.2-1.8-2.2-3.1a24.3,24.3,0,0,0-4.7-3.9,26.9,26.9,0,0,0-4.2-2.9c-2.3-1.3-3.8-1.6-6.9-2.5s-2.5-1-8-2.8c-2.7-.9-6.3-2.1-13.3-4.1-10.2-2.9-15.3-4.4-19.8-5.3s-8.6-1.6-16.5-2.7a43.6,43.6,0,0,0-9.1-1.3,44.1,44.1,0,0,0-8.1.7,91.4,91.4,0,0,0-12.3,2.3,49,49,0,0,1-7.2,1.6,26.3,26.3,0,0,1-4.7.4l-12.3.6c-5.5.4-4.8.8-11.1,1.4a112.8,112.8,0,0,1-13,.4c-2.1,0-5-.2-10.7-.6l-7-.5c-8.9-.6-9.8-.2-14.2-.9a73.5,73.5,0,0,1-7.9-1.6c-2.5-.7-2.6-.9-6.4-2.2-5.6-1.8-6.1-1.6-10.3-3.1s-3.5-1.5-5.9-2.2a32.9,32.9,0,0,0-8.8-1.3,26.4,26.4,0,0,0-10.5,1.7l-4.9,2L218.4,29l-13.5,4.9c-5.7,1.9-12.9,4.2-18.8,3.5a38.6,38.6,0,0,1-5.7-.9,36,36,0,0,1-5-1.6c-1.6-.7-1.9-1-3.4-1.7a32.2,32.2,0,0,0-6.1-2c-4.8-1.3-8.4-2-8.4-2-9-1.8-14.2-2.9-19.8-2.6l-5.5.5c-2.4.2-4.3.4-5.9.7-6.9.9-10.4,1.4-13,2a68.2,68.2,0,0,0-9.8,3.1c-2.3.9-2.1,1-4.7,2.1a75.5,75.5,0,0,1-10.4,3.6,63.7,63.7,0,0,1-7.6,1.5,60.8,60.8,0,0,1-8.8.2,68.6,68.6,0,0,1-10.4-.8c-1-.1-1-.2-7.3-1.7a81,81,0,0,0-11.7-2.4s-4.4-.6-7,.6a7,7,0,0,0-1.8,1.2l-.7.6c-1.6,1.5-2.1,2.5-3.4,3.8a43.2,43.2,0,0,1-4.1,3.3l-3.1,2.4a21.6,21.6,0,0,1-3.1,1.9,15.8,15.8,0,0,1-3.3,1.1,21.1,21.1,0,0,1-3.2.8V9.4Z" transform="translate(-12.4 -8.8)" fill="#c1e0ea"/><polygon points="473.1 608.6 473.1 666.3 0.6 666.3 0.6 563.3 0.6 42.3 0.6 0.6 473.1 0.6 473.1 96.4 473.1 266.3 473.1 366.4 473.1 608.6" fill="none" stroke="#000" stroke-linecap="round" stroke-linejoin="round" stroke-width="1.13"/><path d="M485.5,275.1a108.1,108.1,0,0,1-13.1-.6c-4-.4-7.1-1-9.3-1.4s-6.4-1.2-13.1-3.1a136.6,136.6,0,0,1-17-5.7c-6.6-2.6-10.3-4.1-14.9-7.2a78.8,78.8,0,0,1-8.2-6.5c-3.8-3.7-6.7-6.9-6.7-6.9a51.7,51.7,0,0,0-5.5-5.7,13.4,13.4,0,0,0-3.3-2.3,10.8,10.8,0,0,0-3.8-1.4,17,17,0,0,0-5.6-.1c-8.4.6-8.4.5-9.5.7l-6.5,1.2-8,1.6-7.2,2.2c-8.5,3-12.7,4.4-18.4,6.7s-4.7,2.1-11.4,4.8a68.2,68.2,0,0,0-7.2,3.3c-2.2,1.2-3.9,2.4-6.3,4l-6.2,4.5c-3.2,2.7-5.8,5-7.8,8.8a21.6,21.6,0,0,0-1.7,4.3,22.4,22.4,0,0,0-1,7.3,15,15,0,0,0,.7,4.6,17.1,17.1,0,0,0,2.2,4.7,12.4,12.4,0,0,0,3.3,3.3c1.3,1,1.7,1.1,3.9,2.6l2.7,1.9a27.5,27.5,0,0,0,6.6,3c2.3.7,4.1,1,4.5,1.1a24.6,24.6,0,0,0,4.5.4c3.2.1,6.7.8,13.6,2.3,4.7.9,8.2,1.9,10.8,2.6a82.4,82.4,0,0,1,11.9,3.7c1.4.7,4,1.8,6.3,3l4,2,7.4,3.5a53.2,53.2,0,0,1,9.7,5.5,43.8,43.8,0,0,1,7.3,6.7,36.7,36.7,0,0,1,6.6,9.9,31.8,31.8,0,0,1,2.3,8c.4,2.6,1,6.9-1,10.6a6.4,6.4,0,0,1-2.1,2.6c-1.2.8-2.2.5-4,1.4a11.4,11.4,0,0,0-2.4,1.4,51.2,51.2,0,0,0-6.4,5.6c-1.3,1.4-3,3.5-6.4,7.9a61.9,61.9,0,0,1-4.1,5c-2.2,2.4-2.5,2.3-3.8,4a19.1,19.1,0,0,0-3.5,6.3,28.8,28.8,0,0,1-1.2,4c-.7,1.8-.9,1.8-1.5,3.4a23.7,23.7,0,0,0-1,4.8c-.4,1.9-.5,3.3-.7,4-.6,4.7-.9,4.6-1.3,7.6a48.5,48.5,0,0,0-.4,8.4,38.2,38.2,0,0,0,.5,5.7l.7,3.6a34.6,34.6,0,0,1,.6,6.2,47.7,47.7,0,0,1-.5,8.4c0,.1-.5,6.6-1.4,19.6-.5,7.1-.6,10.3-1.2,16.7-.7,8.7-1.1,10.3-1.6,12.2a50.3,50.3,0,0,1-5.8,13.3,38.3,38.3,0,0,1-5.9,8,23.2,23.2,0,0,1-3.5,3.2c-2.2,1.7-3.3,1.9-6.1,3.5s-3,2.1-5.6,4.1c-4.5,3.3-3.9,3.3-6.3,5a47.9,47.9,0,0,1-9.4,5l-5.5,2.6-4,1.9c-4.2,1.9-4.7,1.8-5.9,2.7a23.2,23.2,0,0,0-3.5,4,43.8,43.8,0,0,0-4.3,6.6,19.6,19.6,0,0,0-2.6,7.6c-.6,2.8-.7,2.5-1.5,6.4s-1.6,8.7-2.3,13-.4,3.1-.9,6.5a61.4,61.4,0,0,0-.9,6.5c-.3,2.6-.1,2.7-.3,6-.2,1.6-.3,3.3-.6,5.5l-1.2,6a32.6,32.6,0,0,0-.8,3.6c-.3,1.1-.5,2.4-1.1,6.3s-.5,4.4-.8,5.9-.7,3.7-1.5,6.4-1.1,2.8-2.1,5.4a41.2,41.2,0,0,1-2.1,4.8,19.7,19.7,0,0,1-3.1,5.2c-1.3,1.5-2.6,2.3-5.2,4a28.9,28.9,0,0,1-5.6,2.9,37.8,37.8,0,0,1-4,1.1,40.3,40.3,0,0,1-5,.6,18.8,18.8,0,0,1-10.7-2,24,24,0,0,1-3.4-2.2c-1.6-1.2-2.5-2-4.7-3.9l-4-3.4-7.3-6.4c-2.3-2.3-2.4-2.5-4.7-4.6s-2.4-2-4-3.5-2.6-2.6-4.9-5.5a59.8,59.8,0,0,1-3.6-5c-2.4-3.4-3.5-5.1-3.9-5.8a29.7,29.7,0,0,1-3.2-7.9,36.7,36.7,0,0,1-.8-6c-.1-1.4,0-1.6.4-8.6.2-4.8.2-5.7.2-6.3s0-2.6.1-4.1.5-2.6.6-5-.1-2.2.1-4.3.5-3.1.7-4.1.8-2.7,1.4-4.6c2.2-6.5,2.5-7,3.1-9s.4-1.8,1.2-4.8a63.5,63.5,0,0,1,2.6-8.4c1.2-3.2,1.3-2.8,2.9-6.7s2.5-7.1,2.8-8.2c1-3.6,1.5-5.5,1.5-8.1a20.1,20.1,0,0,0-.8-5.5,20.3,20.3,0,0,0-2.4-4.6c-1.2-1.5-2.6-2.7-9.1-6l-8.9-4.2c-5.3-2.4-5.3-2.3-7.4-3.4-4-2-3.5-2.2-8.3-4.7s-4.7-2.3-7.6-4.1l-4-2.8c-2.2-1.7-3.7-3.1-4.6-3.9a49.4,49.4,0,0,1-4.6-4.7,41.7,41.7,0,0,1-4.4-5.4c-2-3-2.8-5.6-4.2-9.8a62.1,62.1,0,0,1-2.1-8.2,52,52,0,0,1-1-7.2,74.9,74.9,0,0,1,.1-9.4c.2-2.9.3-4.4.5-6.2s.2-1.9.4-3.6.6-3.6.7-4.5a66.3,66.3,0,0,0,.4-7.4c.1-5.5.2-9.7.2-10.3.1-4.1.1-3.8.1-4.4a95.6,95.6,0,0,1,1.1-10.6c.6-4.7,1.1-8.7,1.9-14.1.5-3.5.8-5.5,1.2-8.5a58.2,58.2,0,0,0,.7-8.8,25.5,25.5,0,0,0-.3-4.2c-.4-2.3-.8-4.5-2.4-6.3a20.5,20.5,0,0,0-3.2-2.4,25.9,25.9,0,0,1-2.9-1.8c-1.2-.9-1.8-1.4-1.8-2.2s.4-1,1.4-2.2l1.3-1.6a8.4,8.4,0,0,0,1.4-2.2c.7-1.3,1.5-2.8.9-4s-.9-1.2-1.6-1.8a5.5,5.5,0,0,0-1.4-.9c-.9-.3-1.4-.2-3.7-.1h-2.3l-3.7.4-5.4,1.2-5.5,1.2c-3.3.6-4.2.7-5.9,1.4a19.9,19.9,0,0,0-3,1.5,16.5,16.5,0,0,0-3.9,3.3,18.6,18.6,0,0,0-1.6,2.7,40.5,40.5,0,0,0-2.4,6.7c-2,7.4-2.1,7.8-2.1,8.8a39.2,39.2,0,0,0,.3,5.4c.3,3.2.4,3,.4,4.2.1,2.9-.6,5.1-2,9.1s-1.8,4.6-2,5.1a49.9,49.9,0,0,1-3.4,5.8,145.9,145.9,0,0,1-12.2,14.8c-6.4,7-6.8,7-10.7,11.5a119.6,119.6,0,0,0-8,9.9,92.2,92.2,0,0,0-11.2,20.3,81.2,81.2,0,0,0-3.3,10.3A54.5,54.5,0,0,0,50.3,473a65.5,65.5,0,0,0,.7,6.8,79.7,79.7,0,0,0,1.6,9.4,113.2,113.2,0,0,0,3.3,11.1c2,6.4,3,9,3.4,10s1.4,3.3,2.6,5.8c3,6.1,4.4,6.6,8.3,13.5,1.3,2.4,2.5,4.8,4.8,9.6a38.1,38.1,0,0,1,2.6,6.2,33.1,33.1,0,0,0,1.1,4l.8,2.4c.8,2.3,1.2,2.8,1.6,3.9a15.5,15.5,0,0,1,.7,6c0,1.2-.1.7-.6,5.2-.2,1.9-.2,2.2-.4,3.6s-.4,2.8-.7,4.3a32.6,32.6,0,0,1-1.2,3.9c-2.1,6.3-1.9,7-3.4,10.2-.3.9-.6,1.5-1.2,2.9a45.9,45.9,0,0,0-1.7,4.4c-1.7,4.7-2.1,8.1-4.4,16.3a35.8,35.8,0,0,0-.9,3.5c-.2.8-.4,1.9-1.2,7.6a34.2,34.2,0,0,0-.5,4.9,22.8,22.8,0,0,1,.3,3.6,14.6,14.6,0,0,1,0,2.1c-.2,1.7-1.3,4.7-3.3,5.1s-2.7-.8-5.2-2.9l-2.2-2a34.3,34.3,0,0,0-2.8-2.8,39.2,39.2,0,0,0-5.4-4.3c-4.7-3.3-5.2-2.9-8-5.3-.6-.5-1.8-1.8-4.2-4.3-4.3-4.5-5.3-5.8-5.9-6.7a27.1,27.1,0,0,1-2.6-4.8c-1.1-2.7-1.1-4-1.9-7.4a56.9,56.9,0,0,0-3.1-9.6,84.3,84.3,0,0,0-3.7-7.7c-1.3-2.7-2.9-5.9-4.7-9.4" transform="translate(-12.4 -8.8)" fill="none" stroke="#000" stroke-linecap="round" stroke-linejoin="round" stroke-width="1.13"/><path d="M485.5,375.2a16,16,0,0,1-2.6-2.9,28,28,0,0,1-2.5-4.1s-1.8-3.7-5-9c-1.6-2.9-3.1-4.9-4.3-6.7a56.4,56.4,0,0,0-4.3-5.7c-1.2-1.4-2.4-2.5-4.6-4.6s-2.7-2.4-4-2.7l-2.8-.3-3.1-.4c-1.2,0-1.8.4-4,1.5s-3.5,1.5-5.2,2.5a32.9,32.9,0,0,0-4.4,3.3c-3.6,2.8-2.9,2.1-6.4,5-5.5,4.4-6.1,5.2-8.4,6.6a22,22,0,0,0-3,1.9c-1.3,1-1.5,1.4-2.8,2.4l-2.8,1.7c-2.1,1.3-2.2,1.5-3.5,2.2a12.8,12.8,0,0,1-2.8,1.3,5.9,5.9,0,0,0-2.1.5,3.6,3.6,0,0,0-1.4,1.9,7.8,7.8,0,0,0-.7,4.9c.5,2.1,1.9,3.3,4.6,5.6s2.6,1.7,3.8,3,1.5,2,2.6,5.3a42.3,42.3,0,0,1,1.6,7.5,88.1,88.1,0,0,1,1.1,11.9c.2,4.5-.1,4.7,0,10s.3,4.2.3,6.8a74.4,74.4,0,0,1-.7,9.5c-1.1,9.5-1.2,8.5-1.4,11.9-.4,6.1.2,5.4-.3,10.9a18.4,18.4,0,0,0,.1,6.2c.2,1.2.4,1.2,2,5.4s1.3,3.9,2,5.1a22,22,0,0,0,3,4.1,9.3,9.3,0,0,0,3.3,2.6l1.8.8a16.7,16.7,0,0,1,3,1.4,5.2,5.2,0,0,1,1.3,2.8s.5,1.7,2.1,6c.3.8,2.6,6.5,7.3,8.1l5.1.8c3.7.5,4.3.5,5.3,1a8.4,8.4,0,0,1,3.4,4.5,11.2,11.2,0,0,1,.2,4.8,31.8,31.8,0,0,1-1.1,4.7c-.8,2.7-.7,2.9-1.2,4.9-1.1,3.9-1.6,4.5-3.5,10.6-.8,2.5-1.2,3.7-1.6,5.2s-.6,3.6-1.4,8.3-1.2,5.7-1.7,9.7a50.5,50.5,0,0,0-.6,5.6c-.2,3.8.2,4.4.4,10.8.1,2.7.1,2.7.2,7.7.1,3.4.2,4.8.2,5.4.2,3.5.4,6.2.5,6.8.6,5.7.8,8.6,1.9,12.3a50.9,50.9,0,0,0,2.9,7.6,48.1,48.1,0,0,0,2.6,4.9c2.7,4.6,4.1,6.8,6.7,8.4a25.4,25.4,0,0,0,5.3,1.9,18.8,18.8,0,0,0,4.4.8c3,0,5.2-1.3,7.2-2.4a38.6,38.6,0,0,0,4.6-3.2l3.4-3.1" transform="translate(-12.4 -8.8)" fill="none" stroke="#000" stroke-linecap="round" stroke-linejoin="round" stroke-width="1.13"/><path d="M12.9,51.1a21.1,21.1,0,0,0,3.2-.8,15.8,15.8,0,0,0,3.3-1.1,21.6,21.6,0,0,0,3.1-1.9l3.1-2.4a43.2,43.2,0,0,0,4.1-3.3c1.3-1.3,1.8-2.3,3.4-3.8l.7-.6A7,7,0,0,1,35.6,36c2.6-1.2,7-.6,7-.6a81,81,0,0,1,11.7,2.4c6.3,1.5,6.3,1.6,7.3,1.7a68.6,68.6,0,0,0,10.4.8,60.8,60.8,0,0,0,8.8-.2,63.7,63.7,0,0,0,7.6-1.5A75.5,75.5,0,0,0,98.8,35c2.6-1.1,2.4-1.2,4.7-2.1a68.2,68.2,0,0,1,9.8-3.1c2.6-.6,6.1-1.1,13-2,1.6-.3,3.5-.5,5.9-.7l5.5-.5c5.6-.3,10.8.8,19.8,2.6,0,0,3.6.7,8.4,2a32.2,32.2,0,0,1,6.1,2c1.5.7,1.8,1,3.4,1.7a36,36,0,0,0,5,1.6,38.6,38.6,0,0,0,5.7.9c5.9.7,13.1-1.6,18.8-3.5L218.4,29l3.8-1.4,4.9-2a26.4,26.4,0,0,1,10.5-1.7,32.9,32.9,0,0,1,8.8,1.3c2.4.7,2.2.9,5.9,2.2s4.7,1.3,10.3,3.1c3.8,1.3,3.9,1.5,6.4,2.2a73.5,73.5,0,0,0,7.9,1.6c4.4.7,5.3.3,14.2.9l7,.5c5.7.4,8.6.6,10.7.6a112.8,112.8,0,0,0,13-.4c6.3-.6,5.6-1,11.1-1.4l12.3-.6a26.3,26.3,0,0,0,4.7-.4,49,49,0,0,0,7.2-1.6,91.4,91.4,0,0,1,12.3-2.3,44.1,44.1,0,0,1,8.1-.7,43.6,43.6,0,0,1,9.1,1.3c7.9,1.1,11.9,1.7,16.5,2.7s9.6,2.4,19.8,5.3c7,2,10.6,3.2,13.3,4.1,5.5,1.8,4.6,1.7,8,2.8s4.6,1.2,6.9,2.5a26.9,26.9,0,0,1,4.2,2.9,24.3,24.3,0,0,1,4.7,3.9c1,1.3,1.7,2.4,2.2,3.1a27,27,0,0,1,2.7,6.5c1.9,6.4,1.9,8.5,3.6,14.8a61.4,61.4,0,0,0,2.6,7.7,40.9,40.9,0,0,0,3.3,6.8,48.1,48.1,0,0,0,4.1,5.4,29.6,29.6,0,0,0,3.9,4.2,30,30,0,0,0,3.1,2.3" transform="translate(-12.4 -8.8)" fill="none" stroke="#000" stroke-miterlimit="10" stroke-width="1.13"/><path d="M141.2,178h6.9l.2-3h9.9v-3.7h7.5V175l6.6.2v-3.7h3.4l.4,14.6h-6.9v4l-18.3-.2v-4h-3.7v-3.2h-6.1Z" transform="translate(-12.4 -8.8)" fill="none" stroke="#000" stroke-linecap="round" stroke-linejoin="round" stroke-width="0.71"/><path d="M36.3,336.8l-16.2-.4a6,6,0,0,1,0-1.9c.1-.7.2-1.4.3-1.9l16,.4a5.7,5.7,0,0,1,.1,1.9A11.1,11.1,0,0,1,36.3,336.8Z" transform="translate(-12.4 -8.8)" fill="none" stroke="#000" stroke-linecap="round" stroke-linejoin="round" stroke-width="0.71"/><path d="M441.3,267.4c0-1.2.1-2.3.1-3.4h3.7c-.1-2.2-.1-4.4-.1-6.6h6.6v-3h3.7l.3-14.5H459v3.4l16.6.5.2,3.3h-9.5v6.7h3.2l.3,4.5,10,.3v2.6h3.1v7h-6.9V272l-9.9.2-.3-4h-6.7l-.4,4.2" transform="translate(-12.4 -8.8)" fill="none" stroke="#000" stroke-linecap="round" stroke-linejoin="round" stroke-width="0.71"/><path d="M233.3,626.5l.2-6.6,6.8.2c-.3,5.8-.6,11.5-1,17.2h-3.5c-.1,3.3-.3,6.5-.4,9.7l-.3,6.9-20.2-.8.6-9.5,2.4-.6c.1-3.2.1-6.4.2-9.5h5.4l.3-4H230v-3.1Z" transform="translate(-12.4 -8.8)" fill="none" stroke="#000" stroke-linecap="round" stroke-linejoin="round" stroke-width="0.71"/><path d="M232,549.9l10.1,1.3-1,21.9,3.6.2-.3,6.8,3.5.2c-.1,2.4-.3,4.8-.5,7.2l-10.2-.9v6.2h-2.6c-.1,2.6-.2,5.2-.4,7.8h4.2c0,2.1,0,4.1-.1,6.2h-4.5l-.4,7.1-11.2-.8c.1-2.3.3-4.7.4-7.1h-3.9l.3-6.1,10.6.3.3-7.3-3-.2.3-6.6h-2.7v-6h6.4l.7-11.6-3.5-.5v-6.2l3.7.2C231.9,557.9,232,553.9,232,549.9Z" transform="translate(-12.4 -8.8)" fill="none" stroke="#000" stroke-linecap="round" stroke-linejoin="round" stroke-width="0.71"/><path d="M103.4,426.5l293.1,3.4" transform="translate(-12.4 -8.8)" fill="none" stroke="#000" stroke-linecap="round" stroke-linejoin="round" stroke-width="0.28"/><path d="M385,286.4q-.3,140-.7,279.8" transform="translate(-12.4 -8.8)" fill="none" stroke="#000" stroke-linecap="round" stroke-linejoin="round" stroke-width="0.28"/><rect x="301" y="538.5" width="3.1" height="12.1" stroke-width="0.71" stroke="#000" stroke-linecap="round" stroke-linejoin="round" fill="none"/><path d="M291.3,544.3h-2.6c0-3.9.1-7.8.1-11.7l.4-3.4,2.7.2Z" transform="translate(-12.4 -8.8)" fill="none" stroke="#000" stroke-linecap="round" stroke-linejoin="round" stroke-width="0.71"/><path d="M300.5,547.2l-2.9-.2.3-15.5H301C300.9,536.8,300.7,542,300.5,547.2Z" transform="translate(-12.4 -8.8)" fill="none" stroke="#000" stroke-linecap="round" stroke-linejoin="round" stroke-width="0.71"/><path d="M226.2,279.9a4,4,0,0,1-1.7.3,3.8,3.8,0,0,1-1.5,0l-.2-17.1,1.5-.2h1.9Z" transform="translate(-12.4 -8.8)" fill="none" stroke="#000" stroke-linecap="round" stroke-linejoin="round" stroke-width="0.71"/><path d="M324.3,332.2h2.9c.1,2.5.2,5.1.2,7.7v7.7h4.1v6.9h-3.4v3.8l-12-.3-8.1-.2c-.1,4.7-.1,9.4-.2,14h4.6l-.3,7.5-3.9.3c0,1.7.1,3.4.1,5.1l-3.7.3v5.2h3.3v6.7l15.3,1c.1-1.2.1-2.3.1-3.5l20.2.5c0-1-.1-2-.1-2.9l-9.6-.3.2-8.9h6.4c.2-3.3.3-6.5.5-9.8h6.9v-6.9l-17.4-.5c0-1-.1-1.9-.1-2.9l-5.7-.3C324.5,352.6,324.4,342.4,324.3,332.2Z" transform="translate(-12.4 -8.8)" fill="none" stroke="#000" stroke-linecap="round" stroke-linejoin="round" stroke-width="0.71"/><path d="M324.6,391.8l9.1.2" transform="translate(-12.4 -8.8)" fill="none" stroke="#000" stroke-linecap="round" stroke-linejoin="round" stroke-width="0.71"/><path d="M186.9,377.5h-.7" transform="translate(-12.4 -8.8)" fill="none" stroke="#000" stroke-linecap="round" stroke-linejoin="round" stroke-width="0.71"/><path d="M184.4,376.9h-.2l-1.6-.3" transform="translate(-12.4 -8.8)" fill="none" stroke="#000" stroke-linecap="round" stroke-linejoin="round" stroke-width="0.71" stroke-dasharray="0.91 1.82"/><path d="M181.7,376.4a.5.5,0,0,1-.5-.3" transform="translate(-12.4 -8.8)" fill="none" stroke="#000" stroke-linecap="round" stroke-linejoin="round" stroke-width="0.71"/><path d="M283.8,316c-.6.3-1.2,0-2.4-.5s-1.1-.2-4.1-1.2L274,313l-3.7-1.1c-1.5-.4-3.2-.9-6.5-2.1l-8-2.8c-6-2.1-6.5-1.9-13-4l-3.1-.8a22.3,22.3,0,0,0-4.4-.5c-5-.3-7.5-.5-9-.4s-7.8.2-11.7,2.1-7.5,9.8-13.3,24.9c-2.2,5.8-3.7,10.3-4.6,12.9-1.6,4.9-2.8,8.5-4.2,13.5s-2.9,12.1-3.3,14.6a16,16,0,0,1-.4,2.6c-.3,1.3-.4,1.2-.8,3.1s-.5,2.1-.8,2.3l-.3.2" transform="translate(-12.4 -8.8)" fill="none" stroke="#000" stroke-linecap="round" stroke-linejoin="round" stroke-width="0.71"/><path d="M288.2,305.4c-.1.3-.2.8-.4,1.3" transform="translate(-12.4 -8.8)" fill="none" stroke="#000" stroke-linecap="round" stroke-linejoin="round" stroke-width="0.71"/><path d="M286.7,309.4a8.9,8.9,0,0,1-.6,1.5c-.2.8-.5,1.5-.9,2.7" transform="translate(-12.4 -8.8)" fill="none" stroke="#000" stroke-linecap="round" stroke-linejoin="round" stroke-width="0.71" stroke-dasharray="2.92 2.92"/><path d="M284.7,314.9a2.1,2.1,0,0,1-.9,1.1" transform="translate(-12.4 -8.8)" fill="none" stroke="#000" stroke-linecap="round" stroke-linejoin="round" stroke-width="0.71"/><path d="M181.2,376.1c-.1-.2-.4-.6-.1-2.5a28.4,28.4,0,0,1,.6-2.9s.4-1.7.7-3.9,0-2,.3-4.3.3-1.9.8-5.3.2-2,.5-3.6a37.9,37.9,0,0,1,.8-4.3c.4-2.1.5-3.8.9-7.2s.6-6.2.8-11.2-.1-7,.4-11.2c.2-2.5.4-3.8.5-4.8s.9-3.1.8-4.9,0-1-.1-2.6-.1-2.1-.1-2.4.6-1.9,2.2-5.3c.8-1.7.8-1.9,1.7-3.8a10.2,10.2,0,0,1,2-3.4,15.8,15.8,0,0,1,2.3-2l2.4-1.2,2.9-1.3c2.1-.9,2.1-1.1,3.3-1.5a10.7,10.7,0,0,1,2.6-.6h1.8c2.5.1,5.2.6,6.2.7s2,.1,5.4.4,4.1.7,7.9,1.2l7.9.8,8.7.8a55.9,55.9,0,0,1,7,1,98,98,0,0,1,11.6,3.8l6.5,2.4,4.8,2,5,2.1c2,.7,3.9,1.6,5.9,2.2s1.8.5,2.1,1.3a1.4,1.4,0,0,1,0,.9" transform="translate(-12.4 -8.8)" fill="none" stroke="#000" stroke-linecap="round" stroke-linejoin="round" stroke-width="0.71"/><path d="M231.2,514.4a1,1,0,0,1-.4.5,3.9,3.9,0,0,1-2.4.3,7.7,7.7,0,0,1-3-.8,22.1,22.1,0,0,1-2.3-1.3l-2.9-1.6c-3-1.7-7.7-4.8-14-8.9l-3.6-2.4c-9.5-6.3-9.6-7.1-17.2-12.2a41.2,41.2,0,0,1-6.9-5.1,29,29,0,0,1-4.9-5.8c-3.4-5-4.4-9.7-5.2-13.7a52,52,0,0,1-1-13.1,45.6,45.6,0,0,1,1.1-7.9c.4-2.1.7-2.6,1.1-4.4a50.4,50.4,0,0,0,1.1-9.5c.2-2.4.9-6,2.4-13.3s1.6-6.8,2.5-11.8c.5-2.9,1.1-6.9,1.9-10.2.2-.7.5-2.2.9-4.2.1-.2.3-1.2.6-2.6s.3-1.3.3-1.5.3-2.1.7-2.4h.4" transform="translate(-12.4 -8.8)" fill="none" stroke="#000" stroke-linecap="round" stroke-linejoin="round" stroke-width="0.71"/><path d="M233.5,505.5a1.9,1.9,0,0,1,.2.7" transform="translate(-12.4 -8.8)" fill="none" stroke="#000" stroke-linecap="round" stroke-linejoin="round" stroke-width="0.71"/><path d="M233.2,509.3c-.2.8-.6,1.8-1,3h0" transform="translate(-12.4 -8.8)" fill="none" stroke="#000" stroke-linecap="round" stroke-linejoin="round" stroke-width="0.71" stroke-dasharray="1.6 3.19"/><path d="M231.6,513.8a1.5,1.5,0,0,1-.4.6" transform="translate(-12.4 -8.8)" fill="none" stroke="#000" stroke-linecap="round" stroke-linejoin="round" stroke-width="0.71"/><path d="M185.1,383.6a.6.6,0,0,1,.1.4,3.4,3.4,0,0,1-.1,2.3l-.6,1.8c-.2.7-.5,1.6-.6,2.1a31.2,31.2,0,0,0-.9,4.4,19.4,19.4,0,0,1-.4,2.4c-.6,4-.3,4.5-.9,7.4s-.8,3.5-.8,3.5a21.5,21.5,0,0,0-.6,2.5c-.2,1.2-.1,1.4-.3,2.6a9.3,9.3,0,0,1-.6,2.4c-.2.9-.4,1.7-.7,3.4a50.5,50.5,0,0,0-1.1,5.6c-.8,4.3-1.3,7.3-1.7,11.4a25.4,25.4,0,0,0-.3,4.4s-.2,2.7-.3,9.7a12.7,12.7,0,0,0,.3,4.2c.3,1,.4,1.1,1,2.7,1.4,3.7,1,3.9,1.9,5.5a20.1,20.1,0,0,0,2.7,3.5l1.8,2a69.3,69.3,0,0,0,7.7,6.9c5.2,4.2,4,3.6,8.3,7s3.7,2.6,9,6.7l5.3,4.1a137.3,137.3,0,0,0,13.2,7.6l3,1.8a14.3,14.3,0,0,1,2.9,2,3.3,3.3,0,0,1,.9,1.1c.1.2.2.3.2.5" transform="translate(-12.4 -8.8)" fill="none" stroke="#000" stroke-linecap="round" stroke-linejoin="round" stroke-width="0.71"/><path d="M180.4,382.4h.7" transform="translate(-12.4 -8.8)" fill="none" stroke="#000" stroke-linecap="round" stroke-linejoin="round" stroke-width="0.71"/><path d="M182.6,382.5h1.5" transform="translate(-12.4 -8.8)" fill="none" stroke="#000" stroke-linecap="round" stroke-linejoin="round" stroke-width="0.71" stroke-dasharray="0.74 1.48"/><path d="M184.7,383a2.1,2.1,0,0,1,.4.6" transform="translate(-12.4 -8.8)" fill="none" stroke="#000" stroke-linecap="round" stroke-linejoin="round" stroke-width="0.71"/><path d="M350.6,463.7c-.4,3.1-.9,6.4-2.3,17.1-.1.6-.5,3.6-1.1,7.5a55.7,55.7,0,0,1-1.3,6.6,38,38,0,0,1-1.9,6.9,49.7,49.7,0,0,1-3.7,6.9,77.5,77.5,0,0,1-6.1,8.8,17.6,17.6,0,0,1-2.6,2.8,25.5,25.5,0,0,1-4.2,3.1l-4.3,2.6a65.6,65.6,0,0,1-8.1,4.4,44.5,44.5,0,0,1-7.6,2.5,72.1,72.1,0,0,1-13.9,1.7c-4,.3-3.5,0-8.3.3a31.3,31.3,0,0,1-5.3,0c-1.7-.2-1.8-.4-4.4-.8s-3.6-.3-5.5-.7a27,27,0,0,1-5.3-1.9c-5.7-2.4-6.3-3.1-11.6-5.4-2.3-1-3.5-1.5-5.8-2.7l-4.2-2.1a19.3,19.3,0,0,0-2.5-1.4l-2.9-1.5-.9-.4" transform="translate(-12.4 -8.8)" fill="none" stroke="#000" stroke-linecap="round" stroke-linejoin="round" stroke-width="0.71"/><path d="M340.9,463.1a6.6,6.6,0,0,1,.1-1.4" transform="translate(-12.4 -8.8)" fill="none" stroke="#000" stroke-linecap="round" stroke-linejoin="round" stroke-width="0.71"/><path d="M341.5,458.9a9.3,9.3,0,0,1,.6-1.8,41.7,41.7,0,0,0,1.4-8.1c.1-.7,2-16.2,2.4-19.3a7.9,7.9,0,0,1,.7-2,3.8,3.8,0,0,1,1.8-2c1.4-.5,3.3.8,4.3,2.2s.8,1.5.6,5.5c-.1,2.3-.3,3.7-.5,5.5a66.7,66.7,0,0,0-.7,7c-.6,6.3-.6,8.5-1,13,0,.8-.1,1.4-.1,2" transform="translate(-12.4 -8.8)" fill="none" stroke="#000" stroke-linecap="round" stroke-linejoin="round" stroke-width="0.71" stroke-dasharray="2.85 2.85"/><path d="M350.8,462.3a6.8,6.8,0,0,1-.2,1.4" transform="translate(-12.4 -8.8)" fill="none" stroke="#000" stroke-linecap="round" stroke-linejoin="round" stroke-width="0.71"/><path d="M239.6,507.3c.5-.3,1.3.1,3.2,1.3s2.6,1.6,3.2,2.1l3.5,1.9c2.1,1.1,2.9,1.3,4.9,2.3s2.7,1.5,4.9,2.5a40.2,40.2,0,0,0,11.4,3.8c.4.1,1.5.2,3,.6l2.7.9c2.1.7,4.8.8,10,.8a40.4,40.4,0,0,0,7.2-.2c.8,0,2.1-.3,4.7-.7a54.1,54.1,0,0,0,6.9-1.3,27.3,27.3,0,0,0,5-2l6.1-3.6c4.4-2.8,4.8-2.9,5.9-3.9a33.5,33.5,0,0,0,3.7-4.3,46,46,0,0,0,3.7-5.1,43,43,0,0,0,2.8-5.7c.7-1.6,1.3-3,2.3-5.9a41.3,41.3,0,0,0,1.8-5.1c.6-2.5.4-2.9,1.1-5.8s.7-2.3,1.2-4.2.2-2.4.6-5,1.1-3.3,1.4-6.1c0-.6.1-1.1.1-1.5" transform="translate(-12.4 -8.8)" fill="none" stroke="#000" stroke-linecap="round" stroke-linejoin="round" stroke-width="0.71"/><path d="M236.8,518a1.3,1.3,0,0,1-.5-.6,2.6,2.6,0,0,1,.1-.7" transform="translate(-12.4 -8.8)" fill="none" stroke="#000" stroke-linecap="round" stroke-linejoin="round" stroke-width="0.71"/><path d="M237.3,514a32.7,32.7,0,0,0,1.2-3.2,2.4,2.4,0,0,1,.2-.8" transform="translate(-12.4 -8.8)" fill="none" stroke="#000" stroke-linecap="round" stroke-linejoin="round" stroke-width="0.71" stroke-dasharray="2.86 2.86"/><path d="M239.1,508.6c.3-.9.3-1.1.5-1.3" transform="translate(-12.4 -8.8)" fill="none" stroke="#000" stroke-linecap="round" stroke-linejoin="round" stroke-width="0.71"/><path d="M347.2,420.3l-.2-.2c-.1-.3,0-.6.2-1.2a7.8,7.8,0,0,0,.2-1.6,31.1,31.1,0,0,1,.9-3.6c.6-2.1.3-2.4.9-5.2a36.6,36.6,0,0,1,2.1-7.2c.7-1.9.8-1.9,1.4-3.5a38.8,38.8,0,0,0,2-8.3c1.2-6.7,1.4-5.7,2.1-10s.3-4.7,1.1-9.4c.4-2.9.7-3.4,1.2-6.8.7-4.9.7-6.4.4-7.9a20.7,20.7,0,0,0-1.7-4.6,19.6,19.6,0,0,0-2.7-3.4,39.2,39.2,0,0,0-5.8-4.4,88.5,88.5,0,0,0-8.1-4.2l-3.9-1.8a49.7,49.7,0,0,0-5.4-2.5l-2.2-.8c-3.5-1.1-4.3-.9-6.6-1.9l-2.6-1.2-3.9-2-4-1.2-5-1.5-5.4-2.1a50.5,50.5,0,0,0-5.1-2l-4-1.3-1.9-.6c-.9-.2-1.3-.1-1.5-.5" transform="translate(-12.4 -8.8)" fill="none" stroke="#000" stroke-linecap="round" stroke-linejoin="round" stroke-width="0.71"/><path d="M352.9,421.7l-.6-.2" transform="translate(-12.4 -8.8)" fill="none" stroke="#000" stroke-linecap="round" stroke-linejoin="round" stroke-width="0.71"/><path d="M350.5,421.1h-.2l-1.6-.3" transform="translate(-12.4 -8.8)" fill="none" stroke="#000" stroke-linecap="round" stroke-linejoin="round" stroke-width="0.71" stroke-dasharray="0.9 1.8"/><path d="M347.9,420.6l-.7-.3" transform="translate(-12.4 -8.8)" fill="none" stroke="#000" stroke-linecap="round" stroke-linejoin="round" stroke-width="0.71"/><path d="M294.8,307.3a.5.5,0,0,0,.4.2l1.3.5,1.8.4,2.1.6,5.1,1.6,8.8,3c7.6,2.7,11.2,3.6,19.9,6.7a57.5,57.5,0,0,1,5.5,2.3c1.8.8,3.3,1.6,4.4,2.2l2.1,1.2a43,43,0,0,0,7,3.3l4.2,1.5a23.3,23.3,0,0,1,3.9,1.9l3.3,2.6,2.9,2.3a22.6,22.6,0,0,1,2.5,3.8,17.1,17.1,0,0,1,1.7,3.9,23.6,23.6,0,0,1,.5,4.9,59,59,0,0,1,.1,6,25.9,25.9,0,0,1-.5,4.7c-.7,2.9-1.7,3.7-3.3,7.4-.6,1.6-.3,1.1-1.9,5.4-2,5.8-2.3,5.8-3.3,9.1-.5,1.5-1.2,4-1.9,6.8s-.7,2.6-1.2,4.3-.9,2.2-1.4,3.9a47.2,47.2,0,0,0-1.1,5.2c-.2.8-.5,2.4-1,5.5s-.6,3.5-.7,4.6-.2,1.3-.3,2.8l-.3,2.6a4.8,4.8,0,0,1-.3,1.8,2.6,2.6,0,0,1-1.7,1.3h-.5" transform="translate(-12.4 -8.8)" fill="none" stroke="#000" stroke-linecap="round" stroke-linejoin="round" stroke-width="0.71"/><path d="M289.7,319.4c-.1-.2.1-.4.4-1.3" transform="translate(-12.4 -8.8)" fill="none" stroke="#000" stroke-linecap="round" stroke-linejoin="round" stroke-width="0.71"/><path d="M290.6,315.9c0-.1.1-.2.1-.4l.4-1.7c.3-1.3.8-2.5,1-3.8a6.2,6.2,0,0,1,.7-1.8" transform="translate(-12.4 -8.8)" fill="none" stroke="#000" stroke-linecap="round" stroke-linejoin="round" stroke-width="0.71" stroke-dasharray="2.28 2.28"/><path d="M293.4,307.2h.2c.2-.1.6,0,1.2.2" transform="translate(-12.4 -8.8)" fill="none" stroke="#000" stroke-linecap="round" stroke-linejoin="round" stroke-width="0.71"/><path d="M245.6,289.7a18.3,18.3,0,0,1-4.9-2.3l-1.5-.9a3.8,3.8,0,0,0-1.2-.4,14.2,14.2,0,0,0-2-.4,3.3,3.3,0,0,1-1.2-.5,9.4,9.4,0,0,1-1.8-1.1,6.6,6.6,0,0,0-2.1-.8c-3.6-1-5.3-1.5-6.1-1.6a78.2,78.2,0,0,0-9.3-1.5,46.5,46.5,0,0,0-7.3-.5,21,21,0,0,1-3.4-.1,7.4,7.4,0,0,0-1.9-.3c-1-.1-1.2.1-3,.5s-2,.2-3.3.6l-2,.8c-1.7.7-2.3.7-3.3,1.1a10.6,10.6,0,0,0-3.7,2.3c-.8.8-2,1.9-5.2,7.3a47.1,47.1,0,0,0-3.3,5.8c-.3.8-.5,1.5-1.8,6.6s-1.6,6.6-2.2,9.5-.6,3.2-1.2,5.9c-.9,4.4-1.2,4.3-1.4,6.3s.1,3.4-.4,6.9c-.1.6-.2,1-.5,3.7s-.3,2.1-.4,2.7-.3,1.6-.8,3.8-.5,2.8-.7,3.9a31.8,31.8,0,0,0-.4,3.4c-.1,2.1.1,2.7.3,7.3.1,1.4.1,2.1.1,2.8s-.1,3.1-.3,5.8-.3,4.4-.5,6c-.4,3.3-1,9.2-1.7,12a20.2,20.2,0,0,0-.5,2.5,13.6,13.6,0,0,0-.2,2,24.1,24.1,0,0,0-.2,3.3c-.1,1.9-.1,3-.1,3.8a40.2,40.2,0,0,1-.6,6.5c-.5,3.7-1,5.5-1.5,8.4s-.3,3-1.8,13.9c-.4,2.3-.9,6.5-1.1,9.7,0,.3-.1,1.6-.2,3.4s-.2,2.1-.2,3.3-.1,2.5-.2,3.4.2,2.6.4,4.8.7,9,.8,10a19,19,0,0,0,.3,2.8,7.9,7.9,0,0,0,.8,2.8l1.1,1.5,1.2,1.6c1.4,1.8,2.7,3.1,4.3,5.1s1.9,2.8,3.3,4.2a20.3,20.3,0,0,0,3.2,3" transform="translate(-12.4 -8.8)" fill="none" stroke="#000" stroke-linecap="round" stroke-linejoin="round" stroke-width="0.71"/></g><g id="scale-1:4000"><path d="M459.6,718.7v9.9l-141.8-.2v-10" transform="translate(-12.4 -8.8)" fill="none" stroke="#040000" stroke-miterlimit="10" stroke-width="0.57"/><line x1="333.9" y1="709.6" x2="333.8" y2="719.6" fill="none" stroke="#040000" stroke-miterlimit="10" stroke-width="0.57"/><line x1="362.2" y1="709.7" x2="362.2" y2="719.7" fill="none" stroke="#040000" stroke-miterlimit="10" stroke-width="0.57"/><line x1="390.5" y1="709.8" x2="390.5" y2="719.7" fill="none" stroke="#040000" stroke-miterlimit="10" stroke-width="0.57"/><line x1="418.9" y1="709.8" x2="418.9" y2="719.8" fill="none" stroke="#040000" stroke-miterlimit="10" stroke-width="0.57"/><text transform="translate(301.9 705.1) rotate(0.1)" font-size="14.17" fill="#040000" font-family="SimSun">0</text><text transform="translate(436.3 705.4) rotate(0.1)" font-size="14.17" fill="#040000" font-family="SimSun">200m</text></g><g id="texts"><text transform="translate(166.3 17.7)" font-size="14.17" font-family="SimSun">盤　　　　　龍　　　　　湖</text><text transform="translate(331.5 280.8)" font-size="14.17" font-family="SimSun">盤　　龍　　湖</text><text transform="translate(187.6 408.1)" font-size="17.01" font-family="SimSun">盤 龍 城 城 址</text><text transform="translate(456.9 425.2)" writing-mode="tb" glyph-orientation-vertical="0deg" font-size="11.34" font-family="SimSun" style="text-orientation:upright">李　　　家　　　嘴</text><text transform="translate(251.7 557.4)" writing-mode="tb" glyph-orientation-vertical="0deg" font-size="11.34" font-family="SimSun" style="text-orientation:upright">王　家　嘴</text><text transform="translate(28.6 421.1)" writing-mode="tb" glyph-orientation-vertical="0deg" font-size="11.34" font-family="SimSun" style="text-orientation:upright">小　　　嘴</text><text transform="translate(15.9 317.2)" font-size="11.34" font-family="SimSun">樓　子　灣</text><text transform="translate(380.4 216.1)" font-size="11.34" font-family="SimSun">楊　家　嘴</text><text transform="translate(58.8 216.1)" font-size="11.34" font-family="SimSun">楊　　家　　灣</text></g></svg>