<svg xmlns="http://www.w3.org/2000/svg" viewBox="0 0 942.1 1329.3"><g id="scale-1:4000"><path d="M820.5,1286v9.9l-141.8-.2v-10" transform="translate(-20.7 -18.4)" fill="none" stroke="#000" stroke-miterlimit="10" stroke-width="0.57"/><line x1="686.5" y1="1267.4" x2="686.4" y2="1277.3" fill="none" stroke="#000" stroke-miterlimit="10" stroke-width="0.57"/><line x1="714.8" y1="1267.4" x2="714.8" y2="1277.4" fill="none" stroke="#000" stroke-miterlimit="10" stroke-width="0.57"/><line x1="743.1" y1="1267.5" x2="743.1" y2="1277.4" fill="none" stroke="#000" stroke-miterlimit="10" stroke-width="0.57"/><line x1="771.5" y1="1267.5" x2="771.4" y2="1277.5" fill="none" stroke="#000" stroke-miterlimit="10" stroke-width="0.57"/><text transform="translate(654.5 1262.9) rotate(0.1)" font-size="14.17" font-family="SimSun">0</text><text transform="translate(788.8 1263.1) rotate(0.1)" font-size="14.17" font-family="SimSun">200m</text></g><g id="outline"><path d="M512.5,506l-36.1,6.8-4.8-31.4,36-5.8C509.2,485.7,510.9,495.9,512.5,506Z" transform="translate(-20.7 -18.4)" fill="none" stroke="#000" stroke-linecap="round" stroke-linejoin="round" stroke-width="1.13"/><path d="M21.4,434.6a35.8,35.8,0,0,1,6.4,3.3,35.7,35.7,0,0,1,7,5.5c6.4,6.1,12,13,16.1,17.8,6.9,8,6.4,6.3,12.3,13.3a210.9,210.9,0,0,1,14.1,18.7c4.3,6.4,7.8,12.4,14.1,23.2,1.2,2,3.6,6.1,7.1,11.3l5.2,7.3c3.4,4.6,5.1,6.9,6.7,8.5,3.1,3.1,5.9,4.6,10.1,7a78.1,78.1,0,0,0,17.7,7,126.1,126.1,0,0,0,13.8,2.4,223.4,223.4,0,0,0,23.1,2.5,120.2,120.2,0,0,0,14.4-.2c4.1-.3,5.4-.6,11.1-1.3,3.6-.4,12.3-1.5,22.1-2.1s9.4,0,16.8-.6c4.1-.4,6-.7,13.6-1.8,12.7-1.8,19.1-2.7,23.1-3s10.3-.4,22.6-.7l13.6-.2c13.3-.1,20-.2,25.8.1,10.4.5,9.7,1.2,16.6,1.2a99.8,99.8,0,0,0,20.4-2.2,106.6,106.6,0,0,0,14.7-4.4,193.8,193.8,0,0,0,23.1-9,199.4,199.4,0,0,0,21.5-12.1c4.4-2.8,5.9-3.9,12.6-8s8.5-5.1,12.5-7.6a156.3,156.3,0,0,0,14.8-10.9" transform="translate(-20.7 -18.4)" fill="none" stroke="#000" stroke-linecap="round" stroke-linejoin="round" stroke-width="1.13"/><path d="M21.4,547.7l31.1-1.1,2.4,9.7h5a63.2,63.2,0,0,0,9.1-.6c.8,3.2,1.5,6.6,2.1,10.3s1.1,7.5,1.4,10.8c-9.1.6-18.4,1.2-27.8,1.6l-23.3.9" transform="translate(-20.7 -18.4)" fill="none" stroke="#000" stroke-linecap="round" stroke-linejoin="round" stroke-width="1.13"/><path d="M433.6,509.9l-38.9.6c-6.2,2-12.6,4.3-19.1,6.7l-18.5,7.2-5.5-7.5a38.8,38.8,0,0,1-3.6,1.5l-7.1,3c-1.1-1.8-2.3-3.8-3.5-6a83.8,83.8,0,0,1-4.3-9.5l54.6-20.3,43.9-1.2c.4,3.9.8,7.9,1.1,12S433.4,505.5,433.6,509.9Z" transform="translate(-20.7 -18.4)" fill="none" stroke="#000" stroke-linecap="round" stroke-linejoin="round" stroke-width="1.13"/><path d="M564.5,573.8a20.5,20.5,0,0,1-.8,2" transform="translate(-20.7 -18.4)" fill="none" stroke="#000" stroke-linecap="round" stroke-linejoin="round" stroke-width="1.13"/><path d="M562.8,577.9c-.3.5-.5,1.1-.8,1.7s-.8,2-1.1,2.7" transform="translate(-20.7 -18.4)" fill="none" stroke="#000" stroke-linecap="round" stroke-linejoin="round" stroke-width="1.13" stroke-dasharray="3.53 2.35"/><path d="M560.4,583.3a2,2,0,0,1-1.1,1.1h-.5" transform="translate(-20.7 -18.4)" fill="none" stroke="#000" stroke-linecap="round" stroke-linejoin="round" stroke-width="1.13"/><path d="M446.7,634.5c.1-.7.3-1.9.7-4a25.2,25.2,0,0,0,.7-3.5c.3-1.6.3-2.6.5-3.8s.3-3.4.7-6.8.7-4.6,1-6.9c.5-4.1.2-4.4.6-10.7s.9-10.4,1.2-13.5.7-5.4.9-6.4c.7-3.2,1.4-4.5,1.3-7.1a19.5,19.5,0,0,1-.1-2.8,14,14,0,0,1,.4-3.3,12.8,12.8,0,0,1,1.6-3.8,25.9,25.9,0,0,1,3.4-4.7,27.6,27.6,0,0,1,4.1-3.7,38.8,38.8,0,0,1,6-4.5,19.7,19.7,0,0,1,5.8-2.3c1.9-.4,2.1-.2,5.7-.7s2.3-.5,4.7-.8a28.6,28.6,0,0,1,5.3-.6,26,26,0,0,1,5.2.8c8.8,2.3,19.5,6.5,19.5,6.5,3.7,1.4,5.2,2.1,8.2,3.1s4.4,1.3,7.8,2.3a165.9,165.9,0,0,1,19.6,7.3l4.3,1.9c2.7,1.1,3.7,1.1,5.6,2.2s2.8,1.6,3.3,2.6a2.8,2.8,0,0,1-.2,2.5" transform="translate(-20.7 -18.4)" fill="none" stroke="#000" stroke-linecap="round" stroke-linejoin="round" stroke-width="1.13"/><path d="M455.5,637a1,1,0,0,1-.4.5c-.1.2-.3.2-.7.3" transform="translate(-20.7 -18.4)" fill="none" stroke="#000" stroke-linecap="round" stroke-linejoin="round" stroke-width="1.13"/><path d="M451.8,637.4h-.1a23.9,23.9,0,0,1-3.8-.9" transform="translate(-20.7 -18.4)" fill="none" stroke="#000" stroke-linecap="round" stroke-linejoin="round" stroke-width="1.13" stroke-dasharray="2.66 2.66"/><path d="M446.8,635.9c0-.1,0-.1-.1-.1s-.2-.4,0-1.3" transform="translate(-20.7 -18.4)" fill="none" stroke="#000" stroke-linecap="round" stroke-linejoin="round" stroke-width="1.13"/><path d="M558.8,584.5c-1.2.1-2.6-.7-5.4-2.4l-7.9-4.3a100.2,100.2,0,0,0-9.3-4.3c-5.4-2.2-8.1-3.4-10.1-3.6s-4.9.3-8.4-.9-2-1-4.4-1.9a33.7,33.7,0,0,0-8.3-1.5l-6.4-.2-7.1-.2h-6a8.7,8.7,0,0,0-3.8,1.3,23,23,0,0,0-4.8,3.2,25.1,25.1,0,0,0-5.5,7.4c-1.1,2.1-1.1,2.6-3.8,9.4-1.8,4.7-1.7,4.2-2.6,6.6a97.8,97.8,0,0,0-3.9,12.4,101.3,101.3,0,0,0-2.1,12.7c-.1,1.5-.5,4.7-1.1,8.4a40.1,40.1,0,0,1-1.1,5.5c-.3,1.3-.2.7-.6,2.4s-.5,2.1-.7,2.5" transform="translate(-20.7 -18.4)" fill="none" stroke="#000" stroke-linecap="round" stroke-linejoin="round" stroke-width="1.13"/><path d="M571.9,586.7a3.5,3.5,0,0,1-1.2-.7" transform="translate(-20.7 -18.4)" fill="none" stroke="#000" stroke-linecap="round" stroke-linejoin="round" stroke-width="1.13"/><path d="M570.3,583.5c.1-.6.3-1.3.5-2.1a15.4,15.4,0,0,1,1.2-3.3c.7-1.2,1.2-2.3,2.2-2.8" transform="translate(-20.7 -18.4)" fill="none" stroke="#000" stroke-linecap="round" stroke-linejoin="round" stroke-width="1.13" stroke-dasharray="2.66 2.66"/><path d="M575.5,574.9l1.4.2" transform="translate(-20.7 -18.4)" fill="none" stroke="#000" stroke-linecap="round" stroke-linejoin="round" stroke-width="1.13"/><path d="M643.8,657.8a16,16,0,0,1-.5,2.1c-1.3,5.5-2.2,8.9-2.2,8.9-1.2,4.9-1.4,5.3-2,7.9s-.8,3.4-1.3,5.6c-.9,4-1.2,4.7-2,5.3s-4.2,1-5.2.9l-2.5-.6c-2.1-.4-2.3-.4-2.6-.7s-.2-1.2.4-3.9c.2-1.1.6-2.6.8-3.7a37.9,37.9,0,0,0,.7-4.5c.1-1.6,0-1.8.1-3.5a27.7,27.7,0,0,1,.5-3.6c.7-4.2.2-5.5.9-10.2s1.1-3.7,1.8-8.3c.1-.6.4-2.5.7-5.4.6-6,1-11.3.1-17.5a27.9,27.9,0,0,0-2-7.8,26.9,26.9,0,0,0-11-12.2c-1-.6-3.1-1.5-7.3-3.4l-6.7-2.7c-10.7-4.5-9.9-4.3-16.2-6.8l-8.5-3.5c-2.2-.9-4.2-2.1-6.4-2.9l-1.5-.6" transform="translate(-20.7 -18.4)" fill="none" stroke="#000" stroke-linecap="round" stroke-linejoin="round" stroke-width="1.13"/><path d="M649.3,631c-.2.8-.3,1.7-.5,2.8" transform="translate(-20.7 -18.4)" fill="none" stroke="#000" stroke-linecap="round" stroke-linejoin="round" stroke-width="1.13"/><path d="M648.3,636.9c-.3,1.5-.7,3.3-1.1,5.6s-1.2,5.9-2.4,11" transform="translate(-20.7 -18.4)" fill="none" stroke="#000" stroke-linecap="round" stroke-linejoin="round" stroke-width="1.13" stroke-dasharray="6.18 3.09"/><path d="M644.5,655a28.6,28.6,0,0,1-.7,2.8" transform="translate(-20.7 -18.4)" fill="none" stroke="#000" stroke-linecap="round" stroke-linejoin="round" stroke-width="1.13"/><path d="M576.9,575.1l1.3.2c2.3.6,4,1.3,5.2,1.7l5.5,1.9c6.4,2.3,11.7,4.9,20,8.2,4.7,1.9,3.8,1.4,10.5,4,2.6,1,7.6,3,13.8,5.7a78.3,78.3,0,0,1,11.2,5.9,26.9,26.9,0,0,1,5.1,4.2,12.6,12.6,0,0,1,2.9,4.3c.4,1,.8,2.7-.3,8a35,35,0,0,1-1.5,6.2,28.3,28.3,0,0,0-1.3,5.6" transform="translate(-20.7 -18.4)" fill="none" stroke="#000" stroke-linecap="round" stroke-linejoin="round" stroke-width="1.13"/><path d="M536.1,773.9a20.5,20.5,0,0,1,3.1,1.3l3,1.3,2.9,1a80.1,80.1,0,0,0,8.4,2.4c2.8.6,3.3.4,4.4,1.1s1.6,1.6,3.1,2.2a9.3,9.3,0,0,0,3.1.4c2.3.1,1.1.2,5.4.5a100.8,100.8,0,0,0,13.1.4c1.8-.1,3.3-.3,5.8-.3h2.8a14.6,14.6,0,0,0,3.1-.4,7.3,7.3,0,0,0,3.1-1.6,14.4,14.4,0,0,0,3.2-2.8l6.1-6.2c1.8-2.4,2.5-4.4,3.8-8.1.6-1.6,1.9-5.5,3.7-15.4.4-2.2.5-4.4,1.3-7.8.4-1.6.9-3.2,1.4-4.9s1.3-4.2,1.7-5.5" transform="translate(-20.7 -18.4)" fill="none" stroke="#000" stroke-linecap="round" stroke-linejoin="round" stroke-width="1.13"/><path d="M532,784.6a4.7,4.7,0,0,1-1-1" transform="translate(-20.7 -18.4)" fill="none" stroke="#000" stroke-linecap="round" stroke-linejoin="round" stroke-width="1.13"/><path d="M530.6,781.3c.1-.4.2-.9.4-1.6,1.3-4.7.9-5.2,1.7-5.8l.8-.3" transform="translate(-20.7 -18.4)" fill="none" stroke="#000" stroke-linecap="round" stroke-linejoin="round" stroke-width="1.13" stroke-dasharray="2.44 2.44"/><path d="M534.7,773.6l1.4.3" transform="translate(-20.7 -18.4)" fill="none" stroke="#000" stroke-linecap="round" stroke-linejoin="round" stroke-width="1.13"/><path d="M628.7,734.5c-.3,1.7-.6,3.2-.8,4.8-1.1,6.6-1.2,9.3-2.6,14.5-.6,2.2-1.3,4.3-2.5,8.2s-2.3,6.9-3.3,9.4l-3.6,7c-2,3.9-3,5.9-3.5,6.7-2,3.4-3.7,6.2-6.8,8.6-1.4,1.1-3,2.1-4.1,2.9l-4.3,2.4a26.7,26.7,0,0,1-6.3,1.8,47.9,47.9,0,0,1-8,.5,27.2,27.2,0,0,1-6.8-1c-2.1-.5-1.8-.7-6.2-2.3-2.9-1-4.7-1.5-5.8-1.8a28.9,28.9,0,0,0-4.3-1l-3.3-.4-2.9-.5c-1.1-.4-1.1-.7-2.8-1.5a21.8,21.8,0,0,0-2.7-1.1c-1.7-.4-2,0-3.4-.4s-1.1-.5-3.2-1.7l-3.7-1.8c-3.1-1.5-3.4-1.5-4.4-2.2l-1.4-1" transform="translate(-20.7 -18.4)" fill="none" stroke="#000" stroke-linecap="round" stroke-linejoin="round" stroke-width="1.13"/><path d="M618.6,731.4a17.6,17.6,0,0,0,.7-2.7" transform="translate(-20.7 -18.4)" fill="none" stroke="#000" stroke-linecap="round" stroke-linejoin="round" stroke-width="1.13"/><path d="M619.7,725.9c.2-1.8.5-4.3,1.1-8.2s.7-5.5.9-6.4c.8-4.3,1.2-4.8,1.6-8.1a42.9,42.9,0,0,0,.3-6.1v-2.4c0-1.3,0-1.6.2-1.8s1.1-.2,3.3,0l2.8.3c2.9.3,3.5.2,4,.8s.3.9.2,2,0,3.5-.1,5.2-.1,2.7-.3,4.8a50.8,50.8,0,0,1-1,7.4c-1.3,6.9-2.4,12.3-3.3,17" transform="translate(-20.7 -18.4)" fill="none" stroke="#000" stroke-linecap="round" stroke-linejoin="round" stroke-width="1.13" stroke-dasharray="5.52 2.76"/><path d="M629.2,731.7c-.2,1-.4,1.9-.5,2.8" transform="translate(-20.7 -18.4)" fill="none" stroke="#000" stroke-linecap="round" stroke-linejoin="round" stroke-width="1.13"/><path d="M454,647.5a20.7,20.7,0,0,1-.1,2.1v2.6a80.8,80.8,0,0,1-1.1,9.6c-.2,1.3-.1.9-.7,4.3s-.5,3.4-.8,5.5a36.9,36.9,0,0,0-.8,4.8,38.5,38.5,0,0,0-.1,5.4c0,2.2-.1,3.9-.2,5.9s-.3,3.4-.5,6.2-.1,4.4,0,6.2.2,4.4.5,8.4c.8,9.2.5,8.6.8,10,.9,3.8,2.3,6.2,4.6,10s4.4,7.6,8.2,10.4a75.8,75.8,0,0,0,6.5,3.9l7.4,4.2c2.9,1.6,6.5,3.7,10.8,6.5a89.1,89.1,0,0,0,7.7,4.7,20.7,20.7,0,0,0,4.6,2.1c2.1.7,2.6.5,4.4,1.1s2.5,1.2,5.1,2.7a57.6,57.6,0,0,0,6,2.9l3.2,1.2" transform="translate(-20.7 -18.4)" fill="none" stroke="#000" stroke-linecap="round" stroke-linejoin="round" stroke-width="1.13"/><path d="M447.3,645.7c.3-.2.6-.2,1.3-.1" transform="translate(-20.7 -18.4)" fill="none" stroke="#000" stroke-linecap="round" stroke-linejoin="round" stroke-width="1.13"/><path d="M450.2,645.8h.1l2.2.3" transform="translate(-20.7 -18.4)" fill="none" stroke="#000" stroke-linecap="round" stroke-linejoin="round" stroke-width="1.13" stroke-dasharray="1.58 1.58"/><path d="M453.3,646.4a.5.5,0,0,1,.5.3,1.5,1.5,0,0,1,.2.8" transform="translate(-20.7 -18.4)" fill="none" stroke="#000" stroke-linecap="round" stroke-linejoin="round" stroke-width="1.13"/><path d="M518.5,783.6l-2-1.2a27.4,27.4,0,0,0-4.3-2.3c-1.6-.7-1.8-.5-4.9-1.3a33.3,33.3,0,0,1-5.1-1.6c-2.6-1.1-3.7-2.4-5.5-3.6s-4.2-2-9.4-3.9c-.9-.3-5.6-2.6-14.9-7.2-4.6-2.3-6.9-3.5-8.6-5.1a52.5,52.5,0,0,0-4.7-4.6l-3.2-2.7-2.8-2.2a25,25,0,0,1-3.3-3.2c-3.9-4.2-5.8-6.3-7.2-8.5a31.5,31.5,0,0,1-3.7-9.8,38.5,38.5,0,0,1-.7-10.9,16.2,16.2,0,0,0,.3-2.5c.1-.7.1-1.7.2-3.2s-.2-3.3-.1-5.1a18.2,18.2,0,0,1,.7-4l2.5-11.7a122,122,0,0,0,2.4-16.7c.3-2.9.3-4,.6-7.9s.8-5.5.9-8.6.3-3.5.4-5.2c0,0,.1-.8.5-3.1s.4-1.5.7-1.8" transform="translate(-20.7 -18.4)" fill="none" stroke="#000" stroke-linecap="round" stroke-linejoin="round" stroke-width="1.13"/><path d="M521.7,769a3.1,3.1,0,0,1,1.6,1.3" transform="translate(-20.7 -18.4)" fill="none" stroke="#000" stroke-linecap="round" stroke-linejoin="round" stroke-width="1.13"/><path d="M523.5,773.7a28,28,0,0,1-.6,4.5l-.6,2.2" transform="translate(-20.7 -18.4)" fill="none" stroke="#000" stroke-linecap="round" stroke-linejoin="round" stroke-width="1.13" stroke-dasharray="5.12 3.42"/><path d="M521.8,782a5.1,5.1,0,0,1-1.2,1.8" transform="translate(-20.7 -18.4)" fill="none" stroke="#000" stroke-linecap="round" stroke-linejoin="round" stroke-width="1.13"/><path d="M509.6,549.6c-9.6-3.6-14.3-6.3-16.7-8.2a20.4,20.4,0,0,0-4-2.5,22.7,22.7,0,0,0-7.4-1.6,71.3,71.3,0,0,0-12.7,0,50.1,50.1,0,0,0-6.4.8c-6.2,2.1-9.8,7.9-12,11.5a37.6,37.6,0,0,0-2.5,4.7,56.1,56.1,0,0,0-4.3,12.9c-.8,4.1-.3,3.9-1.3,9.5s-1.3,5.7-2.1,9.5c-.4,2.3-.9,6.7-1.9,15.5s-1.1,11.2-1.6,14.5c-.1.6-.4,2.4-.9,5.9a37,37,0,0,0-.7,6.4c0,2.3.3,2.3.3,4.7a23.7,23.7,0,0,1-.6,5.4c-.5,2.8-1,3.7-1.5,5.8s-.7,3.7-.9,8.4c-.4,8.3-.5,10.9-.5,10.9-.4,12.9-.5,14.9-1.3,17.7a32.2,32.2,0,0,0-.9,4.3,36.7,36.7,0,0,0-.4,6.9c0,.5.1,2,.3,5.1a37.3,37.3,0,0,1,.4,4.9c.1,2.2,0,3.3,0,5.9a77,77,0,0,0-.1,8.1,35.4,35.4,0,0,0,2.5,10.2c.9,2.3,2.7,7.2,5.8,10.3,1.4,1.4,3.1,2.8,3.1,2.8l2.8,2a46.6,46.6,0,0,0,6.2,3.4" transform="translate(-20.7 -18.4)" fill="none" stroke="#000" stroke-linecap="round" stroke-linejoin="round" stroke-width="1.13"/><path d="M21.4,840.4a20.4,20.4,0,0,1,3.2,3.3,29.2,29.2,0,0,1,2.6,4.6,31.5,31.5,0,0,1,2.1,6.4c.7,3.2.7,5.4.8,10.5.1,11.7.2,12.6,0,15.6-.1,1.1-.4,3.9-1.2,9.5a13.3,13.3,0,0,1-1.3,4.8,17.5,17.5,0,0,1-2.2,3.4c-.9,1.1-2.3,2.7-4,4.5" transform="translate(-20.7 -18.4)" fill="none" stroke="#000" stroke-linecap="round" stroke-linejoin="round" stroke-width="1.42"/><path d="M962,1013.3v56.5a54.1,54.1,0,0,1-8.6,4.9c-2.8,1.3-3.9,1.6-10,3.8-8.2,3-7.1,2.9-13.3,5.1-4.4,1.6-6.7,2.3-10.5,3.9l-5.3,2.4c-2.8,1.4-3.4,1.8-5.1,2.5a38.4,38.4,0,0,1-6.5,2.2c-3.6,1-7,2.3-10.5,3.4-21.8,6.9-24.9,7.8-27,8.4l-9,2.4-11.9,3c-10.3,2.7-26,8.2-40.3,14.2-6.7,2.8-10.4,4.6-19.3,8.1l-12.3,4.6c-11.1,4.1-13.7,4.9-19.9,7.4s-9,3.5-11.3,4.6c-5.4,2.5-8.3,4.3-18.4,10.4,0,0-6.1,3.7-12.9,7.6-12.2,7.2-19.2,11.1-25.4,14.3-4.5,2.4-7.3,3.7-10.3,5l-8.3,3.4c-1.7.7-3.8,1.6-9.8,4.5l-16.4,8c-9.8,4.8-10.2,5-11.9,6s-2.8,1.9-11.4,7.7l-8.2,5.4a136.8,136.8,0,0,1-11.7,7.7c-1.3.8-3,1.6-6.3,3.2-9,4.4-10.7,4.9-15.4,7.6l-5.9,4-9.2,6.1-5.3,3.3c-1.5,1-4.1,2.6-7.2,5-4.6,3.4-4.2,3.6-6.6,4.9s-1.7.9-6.8,3.3l-4.8,2.3c-8.8,4.3-19.8,12.2-21.4,13.4l-9.2,7-19.1,14.6c-9.9,7.5-14.7,10-32.7,21.5-7.3,4.7-17.7,11.5-30.3,20.1H316.5l10.2-6.8,5.9-4.1c2.4-1.7,6.1-4.4,10-7.7,1.6-1.2,3-2.5,10.6-9.7,5.9-5.5,7.1-6.8,8.7-8.2,5.7-5.3,10.4-8.6,19.8-15.1,6.8-4.8,12.5-8.3,23.8-15.3,5.1-3.2,8.1-4.9,11.8-6.9s6.9-3.4,12.8-6.3c0,0,5.1-2.5,13.8-7.1,21.4-11.4,47.9-29.1,52.8-32.3l20-13.6c10.7-7.4,12.2-8.7,17.9-12.6,11.6-8,20.7-13.2,33.4-20.5,15.1-8.7,13.4-7.1,30.7-16.9s20-12,31.5-17.8c2.8-1.5,9.8-4.7,23.8-11.2l26.4-12.1c11.6-4.9,17-6.7,29.1-12.4l9.2-4.5c6.9-3.3,13.5-6.1,26.4-11.2l32.4-12.3,17.8-6.7c9.3-3.3,15.2-5.1,25.4-9.2l7.3-3c7.8-3.3,13.4-5.9,14.9-6.6,11.4-5.3,25.3-9.5,30.6-11.1,10.2-3.1,17.3-4.5,34.4-9.1l8.8-2.6c6.7-2,8.5-2.8,9.6-3.2,3.4-1.4,3.3-1.7,7.8-3.8s4-1.6,9.4-3.9,7.1-3,10.5-4.8A72.2,72.2,0,0,0,962,1013.3Z" transform="translate(-20.7 -18.4)" fill="#c1e0ea"/><path d="M962,762.8v74.6c-2.7-1.9-6.4-4.3-10.8-7.1s-11.8-7.6-20.6-12.8l-2.1-1.2a67.8,67.8,0,0,1,19.6-42.2A77.3,77.3,0,0,1,962,762.8Z" transform="translate(-20.7 -18.4)" fill="#c1e0ea"/><path d="M962,19.1V713.9c-1.5.3-3.7.8-6.5,1.2l-5.9.5c-12.1.5-18.2.8-21.6.6-5.6-.2-4.5-.5-15.3-1.3-4-.3-6.1-.3-9.6-.8s-4.7-.9-8.4-1.3-5-.2-8.7-.6l-7.8-1.7-3.7-.8c-5-1-6.9-1.2-9.1-1.6s-3-.8-13.7-5.4l-8-3.5c-11.5-5.3-20.6-12.1-27.1-17-4.4-3.3-5.6-4.6-8.7-6.5a21,21,0,0,1-4.5-3.1,28.1,28.1,0,0,1-3-3c-1.7-2.3-1.3-3-2.9-5.1a34.6,34.6,0,0,0-3.7-3.5l-4.6-4c-2.8-2.4-3.4-3.8-8.8-10.4a109,109,0,0,0-8.2-9.6c-2.8-2.7-3.4-2.8-7.5-6.5s-4.6-4.7-7.2-7.3a120.8,120.8,0,0,0-12-10.5,130.7,130.7,0,0,0-18.3-12,42.6,42.6,0,0,0-8.3-4.1c-1.3-.5-3.4-1.1-11.8-2.2-5.5-.8-9.9-1.2-12.4-1.5s-7.7-.7-12.9-.9-5.8,0-8.5-.3a48.4,48.4,0,0,1-13.6-3.2c-5.3-1.9-5.8-2.9-18.7-9.4-4.7-2.4-7-3.5-8-3.9-8.8-2.9-12.1,0-19.3-3.4a17.5,17.5,0,0,1-8-6.9,15.5,15.5,0,0,1-2.1-6.7c-.7-6.4,1.9-11.4,3.4-14.4.6-1.1,3.4-4.3,8.8-10.6s5.4-6.2,7.3-7.9a37.6,37.6,0,0,1,7.7-6.1,35.2,35.2,0,0,1,10.2-3.6,30.7,30.7,0,0,1,7.9-.5c4.6.3,8.1,1.6,13,3.8,11.3,5,11.9,6.3,20.4,9.8a96.8,96.8,0,0,0,12.4,4.2l10.5,2.4c5.6,1.2,8.3,1.9,10.3,2.4,4.5,1.1,7.6,2,12.5,3.4l18.6,5.6c9.1,1.8,15.9,1,29.1-.6,6.1-.8,10.1-1.7,14.1-4.1a35,35,0,0,0,7.2-6,26.4,26.4,0,0,0,4.7-6.1c3-5.6,2.6-11.2,2.2-17.2a58,58,0,0,0-2.5-13.3c-1.5-5.3-2.6-6.7-4.3-13.1-.8-3.1-.5-2.8-1.9-8.9s-1.2-5-4-16.3c-1.4-5.7-1.8-7.4-2.8-10.5s-1.6-4-2.8-7.4c-1.7-5.1-2.5-9.9-4.1-19.2-1-6-.6-4.8-1.1-7-1.4-7.1-3.4-12.2-5.8-18.4a121.2,121.2,0,0,0-4.9-11.1,57.9,57.9,0,0,0-7.3-11.1c-3.4-4-4-3.5-9-8.7s-4.3-5.2-9.2-10.7-6.7-7.2-9-9.4c-6.4-6.3-7.8-6.7-16.1-14.3-5.3-4.7-8.6-8.1-15.4-14.8s-8-8.3-9.2-10a89.1,89.1,0,0,0-6.4-9.3c-1.2-1.4-2.5-3-4.2-4.7s-3.6-3.4-4.1-3.8a47.2,47.2,0,0,0-9-5.9c-1.2-.6-10.2-5-20-4.3l-7.2.9c-3.6.4-4.6.4-6.3,1.1s-1.6.8-4.4,2.1l-4,1.9c-5,2.3-7.8,3.2-9.4,4s-1.3.8-7.4,5.1c-3.9,2.8-6.6,4.7-10.3,6.9a55.3,55.3,0,0,1-9.8,4.7,50.1,50.1,0,0,1-9.4,2.1,112.9,112.9,0,0,1-13.5.9c-6.9.2-10.6.3-16.1.1a104.8,104.8,0,0,1-15.3-1.3c-4.6-.7-7.8-1.4-14-2.9s-11.1-2.7-15.1-4a42.3,42.3,0,0,0-5.5-1.6,32.9,32.9,0,0,0-6.2-1c-4.3-.2-4.7,1-9,.7a43.4,43.4,0,0,1-5.5-.7c-3.1-.6-3.5-1-5-.9s-3,.5-5.5,1.4l-4.2,1.8c-4.5,2.1-4.9,2.8-8.2,4.4a66.2,66.2,0,0,1-7.1,2.6,63.4,63.4,0,0,1-7.6,2.2c-3.1.7-3.1.4-7.1,1.2l-7.1,1.6a38.5,38.5,0,0,1-6.8,1c-1.7.2-2,.1-7.8,0h-4.9c-4.3-.4-5.1-2-10.1-3.6a25.5,25.5,0,0,0-11.7-1.5c-3.2.5-3.1,1.3-6.3,1.6s-4.9-.9-8.6-.2c-.8.1-.2.1-6.8,2.3l-5,1.6c-2.8.6-3.9.6-5.5.9-3.2.7-4.5,2-8.2,4.3-2,1.2-6.7,3.3-16.1,7.5a35.4,35.4,0,0,1-6.4,2.3,20.4,20.4,0,0,1-5.8,1.1c-2.3.1-2.9-.3-6.8-.5h-4.2a29.9,29.9,0,0,0-9.1,1.2c-3.1,1.1-2.9,2-7.9,4.7-1.9,1-3.3,1.6-5.9,2.7-4.4,1.8-7.7,3-14.3,5.3l-11.2,4c-4.8,2.5-5.7,4.3-11.1,6.5-2.4,1-2.4.8-6.5,2.4s-6.6,2.5-8.7,4a30.9,30.9,0,0,0-6,6c-2.9,3.5-3,4.7-5.7,7.4a30,30,0,0,1-4.7,3.7c-3.5,2.3-6.5,3.1-10.2,4.1s-7.8,2-9.9.9-2.3-2.1-4.2-4.9-1.8-3.2-4.2-6.9c-1.3-2-1.9-2.7-4.1-6.1s-1.7-2.7-2.1-3.4a25.4,25.4,0,0,1-1.9-5.7c-1.6-6.4-2.4-9.6-2.3-11.2a18.6,18.6,0,0,1,1.6-6.7c2-4.3,5.7-7.1,13-12.6a65.7,65.7,0,0,1,7-4.9c4.2-2.6,6.2-3.2,10.5-6s2.3-2.1,5-3.8a51,51,0,0,1,13.1-5.9l5.3-1.6a96,96,0,0,0,18-7.6l4.7-2.6a71.4,71.4,0,0,1,6.6-3.4c3.1-1.4,3.6-1.3,7-2.7.7-.3,2.7-1.2,6.2-3.1,9.7-5.1,15.5-8.2,21.3-13.6,2.5-2.3.8-1.2,8.9-10.1,3.9-4.3,7.2-7.8,11.4-12.2,8.9-9.5,8.7-9,10.2-10.9a74.4,74.4,0,0,0,9.1-15.2c1.8-3.8,2.7-5.8,3.2-8.8s.2-7.4-.5-11.6c-.9-5.8-1.8-5.5-3.2-13-.6-3.4-.8-5.1-1.7-8.8a59.1,59.1,0,0,0-2.3-7,39,39,0,0,0-3.5-6.3c-1.4-2-3.1-4-7.6-8s-5.5-4.3-8.7-7.1a78.9,78.9,0,0,1-10.3-11.4,106.4,106.4,0,0,1-8.6-12.9c-5.6-9.1-5.3-9.7-8.3-13.4-1.3-1.7-4.4-4.5-10.3-10s-9.5-8.4-11.7-10.1c-6.6-5.2-9.6-6.6-12.9-7.1l-5.5-.2c-3.1-.1-6.4-.2-10.6-.1l-8.2.3c-2.9.1-4.4.2-6.5.1a48.1,48.1,0,0,1-8.7-.7c-3.7-.6-6.1-1-8.8-2.6l-4.5-3.5c-2.4-1.9-3.6-2.9-5.9-4.5a18.1,18.1,0,0,0-3.5-2.2,13.5,13.5,0,0,0-5.7-1.1c-2.6-.2-5.2-.5-7.8-.6l-10.1-.9c-8-.7-9.5-.9-11.4-2.1a13.3,13.3,0,0,1-4.6-5.1,15.8,15.8,0,0,1-1.7-6.8,34.5,34.5,0,0,1,.8-10.2A82.3,82.3,0,0,1,152.6,35,81.7,81.7,0,0,1,160,19.1H388.7a39.4,39.4,0,0,0,5.6,5.5c3.1,2.4,4.8,2.8,8.2,5.6a39.4,39.4,0,0,1,4.7,4.4c3.6,3.8,4.7,5.8,8.3,10.3s2.9,3.2,6.7,7.8,4.8,6.4,9.3,12,7.2,8.7,11.3,12a56.4,56.4,0,0,0,9.5,5.9,73.9,73.9,0,0,0,19.2,7,61.5,61.5,0,0,0,9.3,1.3c3.4.3,5.3.2,11.1.6l5.4.6a45.4,45.4,0,0,0,5.3,1.2,25.1,25.1,0,0,0,3.9.1h8.8a108.1,108.1,0,0,0,15.5-1.6c2.6-.5,1.6-.4,10.9-2.7s13.7-3.2,17.6-2.7a21.2,21.2,0,0,1,7.1,2.2,22.5,22.5,0,0,1,6.3,4.8,49.9,49.9,0,0,1,3.6,4c2.4,3.2,3.7,5.3,6.7,10s4.7,7.1,7,10.9,2.9,4.8,3.4,6.4a32.9,32.9,0,0,0,2.3,5.5,19.3,19.3,0,0,0,1.3,2.4c.5.7,2,2.6,6.4,4.7a36.1,36.1,0,0,0,10.8,2.9,22.1,22.1,0,0,0,8.5-.1c2-.5,4.8-1.1,6.6-3.5s1-1.9,2-5.6a61.2,61.2,0,0,1,2.2-7.5c.9-1.8,3-4,7.2-8.2s5.1-4.9,5.9-5.4a15.6,15.6,0,0,1,7.2-2.5c2.1-.2,4.3.1,16.3,7.2a103.5,103.5,0,0,1,9,5.6c3.9,2.9,4.7,4.2,8.9,6.9a27.4,27.4,0,0,0,7.6,3.9,39.1,39.1,0,0,0,7.6,1.2,45.8,45.8,0,0,0,6.1.3c5.4-.3,9.5-3,12.1-4.7,4.5-3,7.1-6.3,10.5-10.6.8-1,2.6-3.6,6.3-8.8,5.7-8.3,5.2-7.9,6.9-10s3.7-4.2,5.6-7.5a38.4,38.4,0,0,0,2.5-4.8c.9-2.1.9-2.4,2.1-5.9a55.5,55.5,0,0,1,3.2-8c1.1-2.3,1.2-2.3,2.2-4.4a50.8,50.8,0,0,0,2.1-5.8c.7-2.2.6-2.8,1.4-6.2a47.5,47.5,0,0,1,1.6-6.7,36.9,36.9,0,0,1,4.6-9c1.4-1.8,1.5-1.6,4-4.9,1.3-1.7,2.3-3.1,3.5-5s1.5-2.8,3-5.5,1.9-3.2,3.4-5.5Z" transform="translate(-20.7 -18.4)" fill="#c1e0ea"/><path d="M729,779.1a103.5,103.5,0,0,1,1.4,22.4l-12,5.5L680,824.4c-23.2,10.6-41.9,20.7-79.4,40.9l-20.4,11.2a57.2,57.2,0,0,1-3.5-19.8,49.6,49.6,0,0,1,.9-8.8c.9-4.3,1.3-6.5,2.7-8.7s4.1-3.9,15.6-9.3l8.1-3.8c7.3-4.1,11.5-10.1,14.7-14.5,1.6-2.2.5-.9,5.5-8.5s6-8.9,7.8-13.4a36.4,36.4,0,0,0,2-6.1,122.7,122.7,0,0,0,3.4-16.6c2.3-13.7,3.2-12.4,3.9-20,.3-4,.3-7.7.4-15.1s-.2-9.1.3-13.3,1.1-4.1,2.2-11.2c.6-3.9.9-7.1,2.2-10.9s1.8-4.5,1.8-4.5c1.2-2.7,1.5-2.5,2-4s.5-3.1.6-6.6,0-2.5.2-4.3a19.1,19.1,0,0,1,.8-6.1c.3-.9.3-.7,1.7-3.8s1.7-3.6,2.1-4.6c1.3-3.7.6-4.5,1.7-7a13.7,13.7,0,0,1,3.8-4.9,14.5,14.5,0,0,1,11.4-2.8c1.6.3,3.2,1.1,6.4,2.8s4.4,2.3,5.6,3.8,1.7,3.2,2.4,6.3A35.5,35.5,0,0,1,688,668c.3,6.4-.6,9.6-.9,15.2a75.3,75.3,0,0,0,.3,13c.5,5.4,1.1,4.8,3.8,18.5,0,0,.9,4.7,2.3,10.9a53.3,53.3,0,0,0,2.5,8.6,50.4,50.4,0,0,0,3.3,6.3c2.4,3.7,4.3,5.1,9.9,10.3a132.1,132.1,0,0,1,10.6,10.5c4.4,5,5.9,7.7,6.8,9.6A35.5,35.5,0,0,1,729,779.1Z" transform="translate(-20.7 -18.4)" fill="#c1e0ea"/><path d="M497.3,822.2c.2,3.1.2,5.9.2,8.2a41.1,41.1,0,0,1-.2,5.4c-.3,3.1-.8,3.9-1.8,8.3l-1.6,8.4c-1.3,7.1-1.3,7.1-1.5,7.8-1.1,3.8-2.1,4.5-2.4,7.6,0,.1,0,.1-.1,4.6s-.1,4.5-.1,5c-.2,3.3-.3,3.6-.3,5.3a22.8,22.8,0,0,0,.6,5.3c1.1,5.9,1.6,8.9,3.8,17.4a108.7,108.7,0,0,1,2.8,17.4q-22.5,13.4-45.2,26.5l-35.1,20.5-21.3,12.5c-24.5,14.4-25.9,15.5-36.7,21.7l-32.7,17.7c-32.7,17.6-34.7,18.6-38.2,20.1a322.5,322.5,0,0,1-41.6,15.8l-11.8,3.2c-5-4.3-9.2-8.1-12.7-11.5s-6.1-5.9-7.2-9.8a19.6,19.6,0,0,1-.7-6.7c.3-4.3,1.7-7.5,3.2-11.1a66.6,66.6,0,0,1,3.2-6c1.5-2.3,2-2.7,3.2-4.8a38.9,38.9,0,0,0,2.6-6c.3-1,.5-2,1.1-7.4s.6-6.4,1-8.3l2.1-7.8c1.1-4,1.2-4.2,1.4-5.2a26.3,26.3,0,0,0,.1-7.8,72,72,0,0,0-2.3-12.3c-.4-1.6-.7-2.7-2.8-9.9-2.8-9.8-3.2-10.8-4.1-14.2-1.8-6.8-1.7-7.1-2.9-11.4s-1.9-6-6.2-17.3c-1.5-4.2-.3-1-8-22.2l-3.6-10.4c-2.7-7.7-3.2-8.8-3.7-11.5a69.9,69.9,0,0,1-.7-10.8c0-3.3.2-5.7.3-8.1.4-7.3.6-10.9,1.7-13.9.4-1.3,1.9-3.9,4.9-9.3s3.7-6.3,4.7-8.8a56.2,56.2,0,0,0,3-9.8c.3-1.3,1.1-4.4,1.7-8.5s.7-5.9,1-9.4c.8-10.1,1.2-15.1.9-17.5-.8-5.5-2-4.4-4.2-14.4-.8-3.2-1.2-5.8-2.5-10a56.7,56.7,0,0,0-2.7-7.3c-2.1-4.6-2.9-4.6-3.7-7.3-.2-.7-2.1-7.3.7-9.9,1.2-1,2.5-.8,10.6.1s10.4,1,11.2,1c4.9-.3,5.4-1.4,10.5-1.5a32.6,32.6,0,0,1,8.4.9c2.9.8,6.7,1.8,9.7,4.9s4.4,10.1,4.9,15.4c.1,1.5,0,1.9.3,6.6a64.5,64.5,0,0,0,.8,8.3c1,3.6,2.2,3.9,3.6,8.1a29.8,29.8,0,0,1,1.3,6.7c.4,3.2-.4,8.4-1.8,18.7-.7,4.6-1,6.9-1.6,8.3-1.1,2.9-2.3,4.2-2.6,7.2a23.1,23.1,0,0,0,.2,5,72.1,72.1,0,0,0,1.1,7.2c.5,2.8,1.8,7.1,6,15,3.3,6,3.2,4.9,7.6,12.5s5.2,10.4,8.9,14.9,3.2,2.9,6.2,6.8,3.6,5.9,8.3,12.3c2.7,3.8,4.8,6.4,4.8,6.4,2.7,3.4,3.8,4.4,5,6.7a28.4,28.4,0,0,1,2.5,6.5c1.1,4.2,2.7,8.4,6,16.7s3.3,7.2,5.1,12.4,1.7,6.5,3.7,9.1a18.7,18.7,0,0,0,7.7,6c1.6.7,6.4,2.8,11.6,1.2,1-.3,1.9-.7,5.9-3.5,5.8-3.9,8.7-5.9,11.2-8.4s6.2-6.2,7.1-10.6a34.5,34.5,0,0,0,.5-5.5c.2-3.1,0-3.6.1-7.1.2-5.2.5-5,.4-8,0-.4-.2-2.7-.8-7.2s-.4-4.2-.7-5.8-.4-2.3-1-4.6a80.7,80.7,0,0,0-3.7-11.1,75.4,75.4,0,0,0-7.5-14.7c-2.6-4-3-3.6-9.9-12.5-3.8-5-5.8-7.4-7.6-10.2a63.1,63.1,0,0,1-8-16.5c-3.3-12.2-.2-23.1,2.5-32.5a115.3,115.3,0,0,1,6-15.4c2.1-4.4,4.1-7.7,8-14.4,7.2-12.3,7.6-11.7,9.2-15.9a115.3,115.3,0,0,0,4.5-16.1c.2-1,.9-4,2-8.6s1.3-6,1.5-6.8c1.4-5.2,1.8-5.3,2.3-8.1a30.8,30.8,0,0,0,.3-7.1c-.1-2.7-.3-2.7-.6-6.1a70.1,70.1,0,0,1-.2-10.4c0-1.5.1-2,.2-4.8a39.1,39.1,0,0,0,.2-5.3c-.1-3.3-.7-3.7-1-7.9a15.7,15.7,0,0,1,0-4.9c.2-1.2.6-2.2,3-6s2-3,3.1-4.9a53,53,0,0,0,3.8-7.5c1.6-3.3,2.5-5.8,2.8-6.5s1.4-3.8,2-6.1a56.1,56.1,0,0,0,1.2-7.2c.5-5.3.1-7.6.6-14.1,0-.5.1-1.8.2-3.5s.3-3.7.5-5.1.4-2.2,1.1-5.8c1.1-5.9.9-5.4,1.1-6.2a20.5,20.5,0,0,1,4.4-9,18.8,18.8,0,0,1,9.5-5.4,23.4,23.4,0,0,1,8.5-.7,18.9,18.9,0,0,1,9.3,3.4,16.7,16.7,0,0,1,5.6,7.6c.6,1.5.9,3.9,1.4,8.6s1,7.9.9,10.6-.4,3.4-.5,7.3.1,2.9.2,6.7a96.2,96.2,0,0,1-.1,11.1c-.4,4.7-1,4.5-.9,7.8s.5,4.2,0,6.9-.5,1.5-1.5,4.8-.7,3-1.5,6-1.3,3.7-2.1,6.6c-.1.7-.5,2.1-.7,3.7a30.9,30.9,0,0,0-.4,8.5,119.8,119.8,0,0,0,1.2,13.2c.4,3.5.8,6.5,1.2,9.3,1.4,11.5,1.6,12.2,1.5,14.6s-.3,3.9-.9,9.8a42.5,42.5,0,0,1-.9,6.2c-.6,2.2-1,2.9-1.5,5.1a46.2,46.2,0,0,0-.6,5.6c-.3,4.9-.4,7.4,0,10.2a33.2,33.2,0,0,0,2.6,8.8,46,46,0,0,0,5,8.8c2,2.6,3.6,4.6,6.5,6.3s3.6,1.5,7.6,2.7,5.7,1.3,8,2.1a38.7,38.7,0,0,1,10.6,5c3.5,2.1,6.7,4.8,13,10.1l10.1,8.9c5.8,5.2,8.8,7.8,9.5,8.8,3.9,5,5.4,10.2,7,15.8A63.4,63.4,0,0,1,497.3,822.2Z" transform="translate(-20.7 -18.4)" fill="#c1e0ea"/><path d="M157.4,1064.9c.6,2.5,1.4,5.8,2.3,9.9l-8.9,1.2c-8.7,1.1-9.6,1-24.9,2.7L93,1082.5c-7.4,1-10.2,1.4-15.9,1.9s-8.5.6-15.5,1.4c-4.2.4-7,.7-10.7,1.3s-7.8,1.6-14.9,3.3l-14.6,3.1v-293a33.7,33.7,0,0,1,5.4-6.2,66.4,66.4,0,0,1,6-4.5c2.4-1.5,3.1-1.7,4.7-2.6a24,24,0,0,0,2.9-1.6,52.8,52.8,0,0,1,5-2.9,13.1,13.1,0,0,1,3.9-1.5c.7-.1,2.3-.1,5.1,1.1a22.2,22.2,0,0,1,6.4,4.2,69.9,69.9,0,0,1,8.9,9.1,93.9,93.9,0,0,1,10.7,17.9c1,2.1,2.6,5.5,4.2,9.7a62.4,62.4,0,0,1,2.9,8.7c.6,2.6.9,4.5,1.8,7.6.1.3.4,1.3.7,2.6a18.7,18.7,0,0,1,.7,4c0,.9-.1,1.2-.3,3.3s-.3,2.8-.4,4.2c-.3,4.3-1,8.6-1.7,14.6-.2,2-.4,3.8-.6,5.2s-.2,2.5-.2,2.9c-.2,2.9,1.3,3.9,3.4,9.2a52,52,0,0,1,3.3,12.1c.7,4.9-.3,3.9.3,13.1.1,3.2.4,6.4.7,11.8,0,1.6.1,2.6.1,4,.1,3.9-.1,4.8.1,6.7a20.4,20.4,0,0,0,1.3,6.1,19.8,19.8,0,0,0,7.9,9.8,23.3,23.3,0,0,0,5.8,2.5c2.2.6,2.9.5,6.7,1.3a46.5,46.5,0,0,1,7.1,1.7c2.5,1,4,2.1,7,4.3a48.9,48.9,0,0,1,8.8,8.5c2.1,2.6,2.9,4.1,3,5.8s0,1.5-.8,4.4a63.8,63.8,0,0,1-3.5,10.1c-1.4,2.8-1.8,2.6-2.7,5a56,56,0,0,0-1.9,6.4c-.8,3.1-.9,3.9-.7,5a8.8,8.8,0,0,0,1.9,4c1.3,1.7,2.4,2.1,3.8,3.3s2.2,2.6,4.1,5.7a59.6,59.6,0,0,1,6,11.7c.2.7.8,2.3,1.8,5,.3,1,.9,2.6,1.6,4.6a45.5,45.5,0,0,1,1.7,5.2,9.1,9.1,0,0,1,.4,3c0,1-.3,1.1-.4,2.5s-.1,2.1-.1,2.8a25.1,25.1,0,0,0,.4,3,49.1,49.1,0,0,0,1.5,5.1C156.4,1060.9,156.7,1062.2,157.4,1064.9Z" transform="translate(-20.7 -18.4)" fill="#c1e0ea"/><polygon points="941.3 1051.4 941.3 1328.6 395.6 1328.6 295.8 1328.6 0.7 1328.6 0.7 1082.4 0.7 1075.1 0.7 884.6 0.7 822 0.7 782.1 0.7 0.7 139.3 0.7 368.1 0.7 763.6 0.7 941.3 0.7 941.3 695.5 941.3 744.4 941.3 819 941.3 828.8 941.3 994.9 941.3 1051.4" fill="none" stroke="#000" stroke-linecap="round" stroke-linejoin="round" stroke-width="1.42"/><path d="M388.7,19.1a39.4,39.4,0,0,0,5.6,5.5c3.1,2.4,4.8,2.8,8.2,5.6a39.4,39.4,0,0,1,4.7,4.4c3.6,3.8,4.7,5.8,8.3,10.3s2.9,3.2,6.7,7.8,4.8,6.4,9.3,12,7.2,8.7,11.3,12a56.4,56.4,0,0,0,9.5,5.9,73.9,73.9,0,0,0,19.2,7,61.5,61.5,0,0,0,9.3,1.3c3.4.3,5.3.2,11.1.6l5.4.6a45.4,45.4,0,0,0,5.3,1.2,25.1,25.1,0,0,0,3.9.1h8.8a108.1,108.1,0,0,0,15.5-1.6c2.6-.5,1.6-.4,10.9-2.7s13.7-3.2,17.6-2.7a21.2,21.2,0,0,1,7.1,2.2,22.5,22.5,0,0,1,6.3,4.8,49.9,49.9,0,0,1,3.6,4c2.4,3.2,3.7,5.3,6.7,10s4.7,7.1,7,10.9,2.9,4.8,3.4,6.4a32.9,32.9,0,0,0,2.3,5.5,19.3,19.3,0,0,0,1.3,2.4c.5.7,2,2.6,6.4,4.7a36.1,36.1,0,0,0,10.8,2.9,22.1,22.1,0,0,0,8.5-.1c2-.5,4.8-1.1,6.6-3.5s1-1.9,2-5.6a61.2,61.2,0,0,1,2.2-7.5c.9-1.8,3-4,7.2-8.2s5.1-4.9,5.9-5.4a15.6,15.6,0,0,1,7.2-2.5c2.1-.2,4.3.1,16.3,7.2a103.5,103.5,0,0,1,9,5.6c3.9,2.9,4.7,4.2,8.9,6.9a27.4,27.4,0,0,0,7.6,3.9,39.1,39.1,0,0,0,7.6,1.2,45.8,45.8,0,0,0,6.1.3c5.4-.3,9.5-3,12.1-4.7,4.5-3,7.1-6.3,10.5-10.6.8-1,2.6-3.6,6.3-8.8,5.7-8.3,5.2-7.9,6.9-10s3.7-4.2,5.6-7.5a38.4,38.4,0,0,0,2.5-4.8c.9-2.1.9-2.4,2.1-5.9a55.5,55.5,0,0,1,3.2-8c1.1-2.3,1.2-2.3,2.2-4.4a50.8,50.8,0,0,0,2.1-5.8c.7-2.2.6-2.8,1.4-6.2a47.5,47.5,0,0,1,1.6-6.7,36.9,36.9,0,0,1,4.6-9c1.4-1.8,1.5-1.6,4-4.9,1.3-1.7,2.3-3.1,3.5-5s1.5-2.8,3-5.5,1.9-3.2,3.4-5.5" transform="translate(-20.7 -18.4)" fill="none" stroke="#000" stroke-linecap="round" stroke-linejoin="round" stroke-width="1.42"/><path d="M316.5,1347l10.2-6.8,5.9-4.1c2.4-1.7,6.1-4.4,10-7.7,1.6-1.2,3-2.5,10.6-9.7,5.9-5.5,7.1-6.8,8.7-8.2,5.7-5.3,10.4-8.6,19.8-15.1,6.8-4.8,12.5-8.3,23.8-15.3,5.1-3.2,8.1-4.9,11.8-6.9s6.9-3.4,12.8-6.3c0,0,5.1-2.5,13.8-7.1,21.4-11.4,47.9-29.1,52.8-32.3l20-13.6c10.7-7.4,12.2-8.7,17.9-12.6,11.6-8,20.7-13.2,33.4-20.5,15.1-8.7,13.4-7.1,30.7-16.9s20-12,31.5-17.8c2.8-1.5,9.8-4.7,23.8-11.2l26.4-12.1c11.6-4.9,17-6.7,29.1-12.4l9.2-4.5c6.9-3.3,13.5-6.1,26.4-11.2l32.4-12.3,17.8-6.7c9.3-3.3,15.2-5.1,25.4-9.2l7.3-3c7.8-3.3,13.4-5.9,14.9-6.6,11.4-5.3,25.3-9.5,30.6-11.1,10.2-3.1,17.3-4.5,34.4-9.1l8.8-2.6c6.7-2,8.5-2.8,9.6-3.2,3.4-1.4,3.3-1.7,7.8-3.8s4-1.6,9.4-3.9,7.1-3,10.5-4.8a72.2,72.2,0,0,0,8-5.1" transform="translate(-20.7 -18.4)" fill="none" stroke="#000" stroke-linecap="round" stroke-linejoin="round" stroke-width="1.42"/><path d="M962,1069.8a54.1,54.1,0,0,1-8.6,4.9c-2.8,1.3-3.9,1.6-10,3.8-8.2,3-7.1,2.9-13.3,5.1-4.4,1.6-6.7,2.3-10.5,3.9l-5.3,2.4c-2.8,1.4-3.4,1.8-5.1,2.5a38.4,38.4,0,0,1-6.5,2.2c-3.6,1-7,2.3-10.5,3.4-21.8,6.9-24.9,7.8-27,8.4l-9,2.4-11.9,3c-10.3,2.7-26,8.2-40.3,14.2-6.7,2.8-10.4,4.6-19.3,8.1l-12.3,4.6c-11.1,4.1-13.7,4.9-19.9,7.4s-9,3.5-11.3,4.6c-5.4,2.5-8.3,4.3-18.4,10.4,0,0-6.1,3.7-12.9,7.6-12.2,7.2-19.2,11.1-25.4,14.3-4.5,2.4-7.3,3.7-10.3,5l-8.3,3.4c-1.7.7-3.8,1.6-9.8,4.5l-16.4,8c-9.8,4.8-10.2,5-11.9,6s-2.8,1.9-11.4,7.7l-8.2,5.4a136.8,136.8,0,0,1-11.7,7.7c-1.3.8-3,1.6-6.3,3.2-9,4.4-10.7,4.9-15.4,7.6l-5.9,4-9.2,6.1-5.3,3.3c-1.5,1-4.1,2.6-7.2,5-4.6,3.4-4.2,3.6-6.6,4.9s-1.7.9-6.8,3.3l-4.8,2.3c-8.8,4.3-19.8,12.2-21.4,13.4l-9.2,7-19.1,14.6c-9.9,7.5-14.7,10-32.7,21.5-7.3,4.7-17.7,11.5-30.3,20.1" transform="translate(-20.7 -18.4)" fill="none" stroke="#000" stroke-linecap="round" stroke-linejoin="round" stroke-width="1.42"/><path d="M160,19.1A81.7,81.7,0,0,0,152.6,35a82.3,82.3,0,0,0-3.2,11.6,34.5,34.5,0,0,0-.8,10.2,15.8,15.8,0,0,0,1.7,6.8,13.3,13.3,0,0,0,4.6,5.1c1.9,1.2,3.4,1.4,11.4,2.1l10.1.9c2.6.1,5.2.4,7.8.6a13.5,13.5,0,0,1,5.7,1.1,18.1,18.1,0,0,1,3.5,2.2c2.3,1.6,3.5,2.6,5.9,4.5l4.5,3.5c2.7,1.6,5.1,2,8.8,2.6a48.1,48.1,0,0,0,8.7.7c2.1.1,3.6,0,6.5-.1l8.2-.3c4.2-.1,7.5,0,10.6.1l5.5.2c3.3.5,6.3,1.9,12.9,7.1,2.2,1.7,4.5,3.6,11.7,10.1s9,8.3,10.3,10c3,3.7,2.7,4.3,8.3,13.4a106.4,106.4,0,0,0,8.6,12.9,78.9,78.9,0,0,0,10.3,11.4c3.2,2.8,4,2.9,8.7,7.1s6.2,6,7.6,8a39,39,0,0,1,3.5,6.3,59.1,59.1,0,0,1,2.3,7c.9,3.7,1.1,5.4,1.7,8.8,1.4,7.5,2.3,7.2,3.2,13,.7,4.2,1.2,7.4.5,11.6s-1.4,5-3.2,8.8a74.4,74.4,0,0,1-9.1,15.2c-1.5,1.9-1.3,1.4-10.2,10.9-4.2,4.4-7.5,7.9-11.4,12.2-8.1,8.9-6.4,7.8-8.9,10.1-5.8,5.4-11.6,8.5-21.3,13.6-3.5,1.9-5.5,2.8-6.2,3.1-3.4,1.4-3.9,1.3-7,2.7a71.4,71.4,0,0,0-6.6,3.4l-4.7,2.6a96,96,0,0,1-18,7.6l-5.3,1.6a51,51,0,0,0-13.1,5.9c-2.7,1.7-1.8,1.6-5,3.8s-6.3,3.4-10.5,6a65.7,65.7,0,0,0-7,4.9c-7.3,5.5-11,8.3-13,12.6a18.6,18.6,0,0,0-1.6,6.7c-.1,1.6.7,4.8,2.3,11.2a25.4,25.4,0,0,0,1.9,5.7c.4.7.7,1.3,2.1,3.4s2.8,4.1,4.1,6.1c2.4,3.7,2.1,3.9,4.2,6.9s2.9,4.2,4.2,4.9,4.8.4,9.9-.9,6.7-1.8,10.2-4.1a30,30,0,0,0,4.7-3.7c2.7-2.7,2.8-3.9,5.7-7.4a30.9,30.9,0,0,1,6-6c2.1-1.5,4.3-2.3,8.7-4s4.1-1.4,6.5-2.4c5.4-2.2,6.3-4,11.1-6.5l11.2-4c6.6-2.3,9.9-3.5,14.3-5.3,2.6-1.1,4-1.7,5.9-2.7,5-2.7,4.8-3.6,7.9-4.7a29.9,29.9,0,0,1,9.1-1.2h4.2c3.9.2,4.5.6,6.8.5a20.4,20.4,0,0,0,5.8-1.1,35.4,35.4,0,0,0,6.4-2.3c9.4-4.2,14.1-6.3,16.1-7.5,3.7-2.3,5-3.6,8.2-4.3,1.6-.3,2.7-.3,5.5-.9l5-1.6c6.6-2.2,6-2.2,6.8-2.3,3.7-.7,4.3.6,8.6.2s3.1-1.1,6.3-1.6a25.5,25.5,0,0,1,11.7,1.5c5,1.6,5.8,3.2,10.1,3.6H416c5.8.1,6.1.2,7.8,0a38.5,38.5,0,0,0,6.8-1l7.1-1.6c4-.8,4-.5,7.1-1.2a63.4,63.4,0,0,0,7.6-2.2,66.2,66.2,0,0,0,7.1-2.6c3.3-1.6,3.7-2.3,8.2-4.4l4.2-1.8c2.5-.9,3.8-1.4,5.5-1.4s1.9.3,5,.9a43.4,43.4,0,0,0,5.5.7c4.3.3,4.7-.9,9-.7a32.9,32.9,0,0,1,6.2,1,42.3,42.3,0,0,1,5.5,1.6c4,1.3,7.7,2.2,15.1,4s9.4,2.2,14,2.9a104.8,104.8,0,0,0,15.3,1.3c5.5.2,9.2.1,16.1-.1a112.9,112.9,0,0,0,13.5-.9,50.1,50.1,0,0,0,9.4-2.1,55.3,55.3,0,0,0,9.8-4.7c3.7-2.2,6.4-4.1,10.3-6.9,6.1-4.3,5.6-4.4,7.4-5.1s4.4-1.7,9.4-4l4-1.9c2.8-1.3,3.2-1.7,4.4-2.1s2.7-.7,6.3-1.1l7.2-.9c9.8-.7,18.8,3.7,20,4.3a47.2,47.2,0,0,1,9,5.9c.5.4,2.1,1.8,4.1,3.8s3,3.3,4.2,4.7a89.1,89.1,0,0,1,6.4,9.3c1.2,1.7,2.4,3.2,9.2,10s10.1,10.1,15.4,14.8c8.3,7.6,9.7,8,16.1,14.3,2.3,2.2,5.3,5.2,9,9.4s5.2,6.6,9.2,10.7,5.6,4.7,9,8.7a57.9,57.9,0,0,1,7.3,11.1,121.2,121.2,0,0,1,4.9,11.1c2.4,6.2,4.4,11.3,5.8,18.4.5,2.2.1,1,1.1,7,1.6,9.3,2.4,14.1,4.1,19.2,1.2,3.4,1.5,3.4,2.8,7.4s1.4,4.8,2.8,10.5c2.8,11.3,2.8,11,4,16.3s1.1,5.8,1.9,8.9c1.7,6.4,2.8,7.8,4.3,13.1a58,58,0,0,1,2.5,13.3c.4,6,.8,11.6-2.2,17.2A26.4,26.4,0,0,1,797,536a35,35,0,0,1-7.2,6c-4,2.4-8,3.3-14.1,4.1-13.2,1.6-20,2.4-29.1.6L728,541.1c-4.9-1.4-8-2.3-12.5-3.4-2-.5-4.7-1.2-10.3-2.4l-10.5-2.4a96.8,96.8,0,0,1-12.4-4.2c-8.5-3.5-9.1-4.8-20.4-9.8-4.9-2.2-8.4-3.5-13-3.8a30.7,30.7,0,0,0-7.9.5,35.2,35.2,0,0,0-10.2,3.6,37.6,37.6,0,0,0-7.7,6.1c-1.9,1.7-3.1,3.1-7.3,7.9s-8.2,9.5-8.8,10.6c-1.5,3-4.1,8-3.4,14.4a15.5,15.5,0,0,0,2.1,6.7,17.5,17.5,0,0,0,8,6.9c7.2,3.4,10.5.5,19.3,3.4,1,.4,3.3,1.5,8,3.9,12.9,6.5,13.4,7.5,18.7,9.4a48.4,48.4,0,0,0,13.6,3.2c2.7.3,2.8.1,8.5.3s9.1.6,12.9.9,6.9.7,12.4,1.5c8.4,1.1,10.5,1.7,11.8,2.2a42.6,42.6,0,0,1,8.3,4.1,130.7,130.7,0,0,1,18.3,12,120.8,120.8,0,0,1,12,10.5c2.6,2.6,3.9,4.1,7.2,7.3s4.7,3.8,7.5,6.5a109,109,0,0,1,8.2,9.6c5.4,6.6,6,8,8.8,10.4l4.6,4a34.6,34.6,0,0,1,3.7,3.5c1.6,2.1,1.2,2.8,2.9,5.1a28.1,28.1,0,0,0,3,3,21,21,0,0,0,4.5,3.1c3.1,1.9,4.3,3.2,8.7,6.5,6.5,4.9,15.6,11.7,27.1,17l8,3.5c10.7,4.6,11.7,5,13.7,5.4s4.1.6,9.1,1.6l3.7.8,7.8,1.7c3.7.4,4.2.1,8.7.6s4.3.7,8.4,1.3,5.6.5,9.6.8c10.8.8,9.7,1.1,15.3,1.3,3.4.2,9.5-.1,21.6-.6l5.9-.5c2.8-.4,5-.9,6.5-1.2" transform="translate(-20.7 -18.4)" fill="none" stroke="#000" stroke-linecap="round" stroke-linejoin="round" stroke-width="1.42"/><path d="M21.4,1093.5l14.6-3.1c7.1-1.7,9.7-2.4,14.9-3.3s6.5-.9,10.7-1.3c7-.8,9.7-.8,15.5-1.4s8.5-.9,15.9-1.9l32.9-3.8c15.3-1.7,16.2-1.6,24.9-2.7l8.9-1.2,13.5-2c17.6-2.8,31.3-5,48.9-9l12-2.9,11.8-3.2a322.5,322.5,0,0,0,41.6-15.8c3.5-1.5,5.5-2.5,38.2-20.1l32.7-17.7c10.8-6.2,12.2-7.3,36.7-21.7l21.3-12.5,35.1-20.5q22.7-13.2,45.2-26.5l10.6-6.1c5.3-3.1,11.7-6.9,20.6-11.9,11.9-6.7,20.7-11.3,25.3-13.7,12.5-6.7,18.8-10.2,27-14.7l20.4-11.2c37.5-20.2,56.2-30.3,79.4-40.9L718.4,807l12-5.5,8.7-3.9c14.6-6.8,15.3-7.2,18.8-8.6a130.9,130.9,0,0,1,27.9-7.1,157.8,157.8,0,0,1,30.8-1.3,211.9,211.9,0,0,1,44,6.8,234.3,234.3,0,0,1,24.4,7.8,293.2,293.2,0,0,1,27.9,12.4c6,3.1,10.6,5.7,15.6,8.7l2.1,1.2c8.8,5.2,15.8,9.7,20.6,12.8s8.1,5.2,10.8,7.1" transform="translate(-20.7 -18.4)" fill="none" stroke="#000" stroke-linecap="round" stroke-linejoin="round"/><path d="M962,847.2l-7.3-5.1c-3.2-2.3-9.2-6.4-17.4-11.6s-13.3-8.5-20-12.2a277.7,277.7,0,0,0-33.5-15.6c-6.6-2.6-12.5-4.5-17.4-6.1-8.3-2.5-16.6-5.1-27.5-6.9a149.2,149.2,0,0,0-24.3-2h-8.8a140.6,140.6,0,0,0-23.5,1.6,78,78,0,0,0-13.2,3.1c-2.8.9-4.8,1.7-8.2,3.1-9.9,4.2-17.7,7.8-21.1,9.4l-8.9,4.1-6.7,3.1c-30.2,14.1-46.6,21.7-68.5,32.7-24.7,12.4-42.9,22.2-48.4,25.2-8.7,4.7-12.5,6.9-22.4,12.4l-1.6.8c-30.5,17-42.5,23-60.7,33-5.6,3.1-13.1,7.4-24,13.8s-23.4,13.7-40.8,24l-80.7,47.6s-13.5,8-49.1,27.8c-6.5,3.6-14.4,8-25.1,13.2-14.9,7.3-25.9,11.7-29.4,13.1s-11,4.3-21.5,7.8l-12.4,3.6a486.4,486.4,0,0,1-65.2,13.8l-13.5,1.8-3.1.4c-8.1,1-12.2,1.5-16.7,1.9l-12.7,1-10.6,1-13.7,1.7c-8.4,1.1-14.6,1.7-26.4,2.9-9.3,1-14.2,1.4-23.1,2.5-5,.6-7.8,1.1-10.9,1.6-4.8.9-8.9,1.9-14.6,3.3l-7.7,1.9" transform="translate(-20.7 -18.4)" fill="none" stroke="#000" stroke-linecap="round" stroke-linejoin="round" stroke-width="1.13"/><path d="M21.4,800.5a33.7,33.7,0,0,1,5.4-6.2,66.4,66.4,0,0,1,6-4.5c2.4-1.5,3.1-1.7,4.7-2.6a24,24,0,0,0,2.9-1.6,52.8,52.8,0,0,1,5-2.9,13.1,13.1,0,0,1,3.9-1.5c.7-.1,2.3-.1,5.1,1.1a22.2,22.2,0,0,1,6.4,4.2,69.9,69.9,0,0,1,8.9,9.1,93.9,93.9,0,0,1,10.7,17.9c1,2.1,2.6,5.5,4.2,9.7a62.4,62.4,0,0,1,2.9,8.7c.6,2.6.9,4.5,1.8,7.6.1.3.4,1.3.7,2.6a18.7,18.7,0,0,1,.7,4c0,.9-.1,1.2-.3,3.3s-.3,2.8-.4,4.2c-.3,4.3-1,8.6-1.7,14.6-.2,2-.4,3.8-.6,5.2s-.2,2.5-.2,2.9c-.2,2.9,1.3,3.9,3.4,9.2a52,52,0,0,1,3.3,12.1c.7,4.9-.3,3.9.3,13.1.1,3.2.4,6.4.7,11.8,0,1.6.1,2.6.1,4,.1,3.9-.1,4.8.1,6.7a20.4,20.4,0,0,0,1.3,6.1,19.8,19.8,0,0,0,7.9,9.8,23.3,23.3,0,0,0,5.8,2.5c2.2.6,2.9.5,6.7,1.3a46.5,46.5,0,0,1,7.1,1.7c2.5,1,4,2.1,7,4.3a48.9,48.9,0,0,1,8.8,8.5c2.1,2.6,2.9,4.1,3,5.8s0,1.5-.8,4.4a63.8,63.8,0,0,1-3.5,10.1c-1.4,2.8-1.8,2.6-2.7,5a56,56,0,0,0-1.9,6.4c-.8,3.1-.9,3.9-.7,5a8.8,8.8,0,0,0,1.9,4c1.3,1.7,2.4,2.1,3.8,3.3s2.2,2.6,4.1,5.7a59.6,59.6,0,0,1,6,11.7c.2.7.8,2.3,1.8,5,.3,1,.9,2.6,1.6,4.6a45.5,45.5,0,0,1,1.7,5.2,9.1,9.1,0,0,1,.4,3c0,1-.3,1.1-.4,2.5s-.1,2.1-.1,2.8a25.1,25.1,0,0,0,.4,3,49.1,49.1,0,0,0,1.5,5.1c.3.9.6,2.2,1.3,4.9s1.4,5.8,2.3,9.9" transform="translate(-20.7 -18.4)" fill="none" stroke="#000" stroke-linecap="round" stroke-linejoin="round" stroke-width="1.42"/><path d="M234.1,1060.9h0c-5-4.3-9.2-8.1-12.7-11.5s-6.1-5.9-7.2-9.8a19.6,19.6,0,0,1-.7-6.7c.3-4.3,1.7-7.5,3.2-11.1a66.6,66.6,0,0,1,3.2-6c1.5-2.3,2-2.7,3.2-4.8a38.9,38.9,0,0,0,2.6-6c.3-1,.5-2,1.1-7.4s.6-6.4,1-8.3l2.1-7.8c1.1-4,1.2-4.2,1.4-5.2a26.3,26.3,0,0,0,.1-7.8,72,72,0,0,0-2.3-12.3c-.4-1.6-.7-2.7-2.8-9.9-2.8-9.8-3.2-10.8-4.1-14.2-1.8-6.8-1.7-7.1-2.9-11.4s-1.9-6-6.2-17.3c-1.5-4.2-.3-1-8-22.2l-3.6-10.4c-2.7-7.7-3.2-8.8-3.7-11.5a69.9,69.9,0,0,1-.7-10.8c0-3.3.2-5.7.3-8.1.4-7.3.6-10.9,1.7-13.9.4-1.3,1.9-3.9,4.9-9.3s3.7-6.3,4.7-8.8a56.2,56.2,0,0,0,3-9.8c.3-1.3,1.1-4.4,1.7-8.5s.7-5.9,1-9.4c.8-10.1,1.2-15.1.9-17.5-.8-5.5-2-4.4-4.2-14.4-.8-3.2-1.2-5.8-2.5-10a56.7,56.7,0,0,0-2.7-7.3c-2.1-4.6-2.9-4.6-3.7-7.3-.2-.7-2.1-7.3.7-9.9,1.2-1,2.5-.8,10.6.1s10.4,1,11.2,1c4.9-.3,5.4-1.4,10.5-1.5a32.6,32.6,0,0,1,8.4.9c2.9.8,6.7,1.8,9.7,4.9s4.4,10.1,4.9,15.4c.1,1.5,0,1.9.3,6.6a64.5,64.5,0,0,0,.8,8.3c1,3.6,2.2,3.9,3.6,8.1a29.8,29.8,0,0,1,1.3,6.7c.4,3.2-.4,8.4-1.8,18.7-.7,4.6-1,6.9-1.6,8.3-1.1,2.9-2.3,4.2-2.6,7.2a23.1,23.1,0,0,0,.2,5,72.1,72.1,0,0,0,1.1,7.2c.5,2.8,1.8,7.1,6,15,3.3,6,3.2,4.9,7.6,12.5s5.2,10.4,8.9,14.9,3.2,2.9,6.2,6.8,3.6,5.9,8.3,12.3c2.7,3.8,4.8,6.4,4.8,6.4,2.7,3.4,3.8,4.4,5,6.7a28.4,28.4,0,0,1,2.5,6.5c1.1,4.2,2.7,8.4,6,16.7s3.3,7.2,5.1,12.4,1.7,6.5,3.7,9.1a18.7,18.7,0,0,0,7.7,6c1.6.7,6.4,2.8,11.6,1.2,1-.3,1.9-.7,5.9-3.5,5.8-3.9,8.7-5.9,11.2-8.4s6.2-6.2,7.1-10.6a34.5,34.5,0,0,0,.5-5.5c.2-3.1,0-3.6.1-7.1.2-5.2.5-5,.4-8,0-.4-.2-2.7-.8-7.2s-.4-4.2-.7-5.8-.4-2.3-1-4.6a80.7,80.7,0,0,0-3.7-11.1,75.4,75.4,0,0,0-7.5-14.7c-2.6-4-3-3.6-9.9-12.5-3.8-5-5.8-7.4-7.6-10.2a63.1,63.1,0,0,1-8-16.5c-3.3-12.2-.2-23.1,2.5-32.5a115.3,115.3,0,0,1,6-15.4c2.1-4.4,4.1-7.7,8-14.4,7.2-12.3,7.6-11.7,9.2-15.9a115.3,115.3,0,0,0,4.5-16.1c.2-1,.9-4,2-8.6s1.3-6,1.5-6.8c1.4-5.2,1.8-5.3,2.3-8.1a30.8,30.8,0,0,0,.3-7.1c-.1-2.7-.3-2.7-.6-6.1a70.1,70.1,0,0,1-.2-10.4c0-1.5.1-2,.2-4.8a39.1,39.1,0,0,0,.2-5.3c-.1-3.3-.7-3.7-1-7.9a15.7,15.7,0,0,1,0-4.9c.2-1.2.6-2.2,3-6s2-3,3.1-4.9a53,53,0,0,0,3.8-7.5c1.6-3.3,2.5-5.8,2.8-6.5s1.4-3.8,2-6.1a56.1,56.1,0,0,0,1.2-7.2c.5-5.3.1-7.6.6-14.1,0-.5.1-1.8.2-3.5s.3-3.7.5-5.1.4-2.2,1.1-5.8c1.1-5.9.9-5.4,1.1-6.2a20.5,20.5,0,0,1,4.4-9,18.8,18.8,0,0,1,9.5-5.4,23.4,23.4,0,0,1,8.5-.7,18.9,18.9,0,0,1,9.3,3.4,16.7,16.7,0,0,1,5.6,7.6c.6,1.5.9,3.9,1.4,8.6s1,7.9.9,10.6-.4,3.4-.5,7.3.1,2.9.2,6.7a96.2,96.2,0,0,1-.1,11.1c-.4,4.7-1,4.5-.9,7.8s.5,4.2,0,6.9-.5,1.5-1.5,4.8-.7,3-1.5,6-1.3,3.7-2.1,6.6c-.1.7-.5,2.1-.7,3.7a30.9,30.9,0,0,0-.4,8.5,119.8,119.8,0,0,0,1.2,13.2c.4,3.5.8,6.5,1.2,9.3,1.4,11.5,1.6,12.2,1.5,14.6s-.3,3.9-.9,9.8a42.5,42.5,0,0,1-.9,6.2c-.6,2.2-1,2.9-1.5,5.1a46.2,46.2,0,0,0-.6,5.6c-.3,4.9-.4,7.4,0,10.2a33.2,33.2,0,0,0,2.6,8.8,46,46,0,0,0,5,8.8c2,2.6,3.6,4.6,6.5,6.3s3.6,1.5,7.6,2.7,5.7,1.3,8,2.1a38.7,38.7,0,0,1,10.6,5c3.5,2.1,6.7,4.8,13,10.1l10.1,8.9c5.8,5.2,8.8,7.8,9.5,8.8,3.9,5,5.4,10.2,7,15.8a63.4,63.4,0,0,1,2.1,11.6c.2,3.1.2,5.9.2,8.2a41.1,41.1,0,0,1-.2,5.4c-.3,3.1-.8,3.9-1.8,8.3l-1.6,8.4c-1.3,7.1-1.3,7.1-1.5,7.8-1.1,3.8-2.1,4.5-2.4,7.6,0,.1,0,.1-.1,4.6s-.1,4.5-.1,5c-.2,3.3-.3,3.6-.3,5.3a22.8,22.8,0,0,0,.6,5.3c1.1,5.9,1.6,8.9,3.8,17.4a108.7,108.7,0,0,1,2.8,17.4" transform="translate(-20.7 -18.4)" fill="none" stroke="#000" stroke-linecap="round" stroke-linejoin="round" stroke-width="1.42"/><path d="M580.2,876.5a57.2,57.2,0,0,1-3.5-19.8,49.6,49.6,0,0,1,.9-8.8c.9-4.3,1.3-6.5,2.7-8.7s4.1-3.9,15.6-9.3l8.1-3.8c7.3-4.1,11.5-10.1,14.7-14.5,1.6-2.2.5-.9,5.5-8.5s6-8.9,7.8-13.4a36.4,36.4,0,0,0,2-6.1,122.7,122.7,0,0,0,3.4-16.6c2.3-13.7,3.2-12.4,3.9-20,.3-4,.3-7.7.4-15.1s-.2-9.1.3-13.3,1.1-4.1,2.2-11.2c.6-3.9.9-7.1,2.2-10.9s1.8-4.5,1.8-4.5c1.2-2.7,1.5-2.5,2-4s.5-3.1.6-6.6,0-2.5.2-4.3a19.1,19.1,0,0,1,.8-6.1c.3-.9.3-.7,1.7-3.8s1.7-3.6,2.1-4.6c1.3-3.7.6-4.5,1.7-7a13.7,13.7,0,0,1,3.8-4.9,14.5,14.5,0,0,1,11.4-2.8c1.6.3,3.2,1.1,6.4,2.8s4.4,2.3,5.6,3.8,1.7,3.2,2.4,6.3A35.5,35.5,0,0,1,688,668c.3,6.4-.6,9.6-.9,15.2a75.3,75.3,0,0,0,.3,13c.5,5.4,1.1,4.8,3.8,18.5,0,0,.9,4.7,2.3,10.9a53.3,53.3,0,0,0,2.5,8.6,50.4,50.4,0,0,0,3.3,6.3c2.4,3.7,4.3,5.1,9.9,10.3a132.1,132.1,0,0,1,10.6,10.5c4.4,5,5.9,7.7,6.8,9.6a35.5,35.5,0,0,1,2.4,8.2,103.5,103.5,0,0,1,1.4,22.4" transform="translate(-20.7 -18.4)" fill="none" stroke="#000" stroke-linecap="round" stroke-linejoin="round" stroke-width="1.42"/><path d="M814.6,787.7a103,103,0,0,0,1.7,17.5,45.2,45.2,0,0,0,2.5,10.1,42.6,42.6,0,0,0,7.5,12.5,62.5,62.5,0,0,0,6.4,6.4c3.4,3.2,4.3,3.7,8.3,7.3s7.6,6.8,9.8,9.6a49.7,49.7,0,0,1,6,9.3,76.4,76.4,0,0,1,4.6,10.6,87.5,87.5,0,0,1,4.8,18.3,60.9,60.9,0,0,1,.4,17.1c-1.1,7.6-3.3,10.6-4.8,12.2a16.1,16.1,0,0,1-5.3,3.5,16.3,16.3,0,0,1-7.2.9,63.6,63.6,0,0,1-12.9-2.1c-8.5-2.4-11.6-5.1-21.7-8.2a31.1,31.1,0,0,0-5.7-1.4,34.8,34.8,0,0,0-9.5-.3c-2.7.3-5.5.9-11,3.1s-6.1,2.7-20.9,10.2l-8.8,4.4c-4,2.1-5.6,3.1-8.8,4.6s-6,2.8-7.4,3.1c-6,1-11-1.7-14.1-3.4s-4.9-4-5.2-4.6-.7-1.6-.9-5.8.1-6.2.2-8.5c.3-4.3.5-6.4.8-8.6.5-4.6,1.3-7.7,2.9-13.9,1.2-4.5,2-7.7,3.5-12s1.6-4.2,2.6-7.4,1.1-5.1,2.3-8.8c1.7-5.4,2.4-5,3.5-9a40.3,40.3,0,0,0,1.1-10.7,26.7,26.7,0,0,0-1.4-9.2c-1-2.8-1.8-3.4-3.5-7.6-.2-.7-1.1-2.9-1.8-5.7a48.8,48.8,0,0,1-1.7-12.3" transform="translate(-20.7 -18.4)" fill="none" stroke="#000" stroke-linecap="round" stroke-linejoin="round" stroke-width="1.42"/><path d="M583.3,883.1a82.5,82.5,0,0,1,4.5,14.5,22.4,22.4,0,0,1,.6,5.8,26.2,26.2,0,0,0-.2,3.8,14.2,14.2,0,0,0,1.4,5.2c1,2.4,1.7,2.4,3.6,5.5s1.6,3.3,3.5,6.4,2.5,3.5,3.9,5.3c4.6,5.7,5.3,5,6.2,7.3,1.7,4,.3,8.5-.3,10.3s-.7,1.5-2.7,6.3a62.7,62.7,0,0,0-2.4,6,25.8,25.8,0,0,0-.4,10.2c.5,4.4,1.4,4.5,1.6,8.1a50.6,50.6,0,0,1-1.2,8.4c-1.4,7.4-2.3,9.2-3.2,10.5s-2,2.8-3.6,3.4-3.2,1-10.9-2.9c-1.2-.6-3.2-1.6-7-3.9-7-4.3-7.7-5.4-10.8-6.6-.8-.3-3.2-1.1-9.7-1.3s-9.3.8-20,1.7-12.7.5-16.4-.6a23.9,23.9,0,0,1-6.7-3.3,22.7,22.7,0,0,1-8.2-12.6c-.8-2.6-.2-2.4-1.3-7.8s-1.6-5.5-2.1-8.5c-.8-4.6,0-6.3-.1-10.6a41.7,41.7,0,0,0-2.8-13.8" transform="translate(-20.7 -18.4)" fill="none" stroke="#000" stroke-linecap="round" stroke-linejoin="round" stroke-width="1.42"/><path d="M239.6,1067a76.1,76.1,0,0,0,9.6,13.9,40.3,40.3,0,0,1,9.3,15.1c.5,1.6,1.7,5.4,2.1,13.3.2,5.5-.1,8.8-.8,17.1-1,13.4-.6,10.6-1.2,17.6-1.2,13.7-1.8,14.5-3.2,29.8-.7,8.1-.7,9.4-1.4,13.7-1.2,7.6-3.1,15.2-3.6,17.5-.2.7-.2.6-1.9,7.6s-1.5,5.8-1.9,7.4c-3.5,14-2.9,10.7-4,15.3,0,0-.6,2.5-1.7,6.1l-1.1,2.8a15.5,15.5,0,0,1-1.9,3.7,7,7,0,0,1-2.3,1.7c-1.1.5-2,.6-5.3.5-5.3-.2-5.8-.5-6.2-.8a9.4,9.4,0,0,1-2.4-3.6,17.2,17.2,0,0,1-1.1-2.5c-1.6-4.6-2.6-8.5-4-12.5a52.3,52.3,0,0,0-2.2-5.1,42.9,42.9,0,0,0-6.2-8.4,105.6,105.6,0,0,0-13.2-11.7c-4.8-3.4-6.1-3.7-9.6-6.9s-4.7-4.2-6.4-7a28,28,0,0,1-4-14.7c0-2.1.3-2.4.4-6.1,0-1.4,0-4-.2-8.4-.5-6.7-1.2-11.8-1.4-13-.8-4.8-1.1-5.3-3.3-15.6-1.7-8-2.5-12-3.3-17s-.5-7.6-1.6-13.9c-.6-3.5-1.4-6.7-2.2-10.3s-1.8-7.6-2.5-10" transform="translate(-20.7 -18.4)" fill="none" stroke="#000" stroke-linecap="round" stroke-linejoin="round" stroke-width="1.42"/><path d="M962,762.8a77.3,77.3,0,0,0-13.9,11.3,67.8,67.8,0,0,0-19.6,42.2" transform="translate(-20.7 -18.4)" fill="none" stroke="#000" stroke-linecap="round" stroke-linejoin="round" stroke-width="1.42"/></g><g id="texts"><text transform="translate(514.1 44.3)" font-size="28.35" font-family="SimSun">童　家　嘴</text><text transform="translate(90.1 176.2)" font-size="28.35" font-family="SimSun">小　王　家　嘴</text><text transform="translate(177.1 454.3)" font-size="28.35" font-family="SimSun">楊　家　灣</text><text transform="translate(530.5 454.3)" font-size="28.35" font-family="SimSun">楊　家　嘴</text><text transform="translate(448.8 664.6)" font-size="28.35" font-family="SimSun">盤　龍　城</text><text transform="translate(491.8 514.5)" font-size="22.68" font-family="SimSun">工作站</text><text transform="translate(160.7 645.9)" font-size="28.35" font-family="SimSun">樓　子　灣</text><text transform="translate(760.6 733.6)" writing-mode="tb" glyph-orientation-vertical="0deg" font-size="22.68" font-family="SimSun" style="text-orientation:upright">李　家　嘴</text><text transform="translate(518.3 806.3)" writing-mode="tb" glyph-orientation-vertical="0deg" font-size="22.68" font-family="SimSun" style="text-orientation:upright">王　家　嘴</text><text transform="translate(290.1 782.7)" writing-mode="tb" glyph-orientation-vertical="0deg" font-size="22.68" font-family="SimSun" style="text-orientation:upright">小　嘴</text><text transform="translate(160.7 909.6)" writing-mode="tb" glyph-orientation-vertical="0deg" font-size="22.68" font-family="SimSun" style="text-orientation:upright">艾　家　嘴</text><text transform="translate(7 596.9)" font-size="28.35" font-family="SimSun">江家灣</text><text transform="translate(256.4 1065.4) rotate(-29)" font-size="22.68" font-family="SimSun">府　　 　　　　　　河　　　　　　　　堤</text><text transform="translate(532.4 1208.9) rotate(-25.9)" font-size="28.35" font-family="SimSun">府　　　　　　河</text><text transform="translate(485.1 208)" font-size="34.02" font-family="SimSun">盤　　　　龍　　　　湖</text></g></svg>