<svg xmlns="http://www.w3.org/2000/svg" xmlns:xlink="http://www.w3.org/1999/xlink" viewBox="0 0 1071.7 374.9"><defs><pattern id="_10_lpi_10_" data-name="10 lpi 10%" width="72" height="72" patternTransform="translate(-21.1 44.9) rotate(-45)" patternUnits="userSpaceOnUse" viewBox="0 0 72 72"><rect width="72" height="72" fill="none"/><line x1="71.8" y1="68.4" x2="144.3" y2="68.4" fill="none" stroke="#1d1d1b" stroke-width="0.28"/><line x1="71.8" y1="54" x2="144.3" y2="54" fill="none" stroke="#1d1d1b" stroke-width="0.28"/><line x1="71.8" y1="39.6" x2="144.3" y2="39.6" fill="none" stroke="#1d1d1b" stroke-width="0.28"/><line x1="71.8" y1="25.2" x2="144.3" y2="25.2" fill="none" stroke="#1d1d1b" stroke-width="0.28"/><line x1="71.8" y1="10.8" x2="144.3" y2="10.8" fill="none" stroke="#1d1d1b" stroke-width="0.28"/><line x1="71.8" y1="61.2" x2="144.3" y2="61.2" fill="none" stroke="#1d1d1b" stroke-width="0.28"/><line x1="71.8" y1="46.8" x2="144.3" y2="46.8" fill="none" stroke="#1d1d1b" stroke-width="0.28"/><line x1="71.8" y1="32.4" x2="144.3" y2="32.4" fill="none" stroke="#1d1d1b" stroke-width="0.28"/><line x1="71.8" y1="18" x2="144.3" y2="18" fill="none" stroke="#1d1d1b" stroke-width="0.28"/><line x1="71.8" y1="3.6" x2="144.3" y2="3.6" fill="none" stroke="#1d1d1b" stroke-width="0.28"/><line x1="71.8" y1="72" x2="144.3" y2="72" fill="none" stroke="#1d1d1b" stroke-width="0.28"/><line x1="71.8" y1="57.6" x2="144.3" y2="57.6" fill="none" stroke="#1d1d1b" stroke-width="0.28"/><line x1="71.8" y1="43.2" x2="144.3" y2="43.2" fill="none" stroke="#1d1d1b" stroke-width="0.28"/><line x1="71.8" y1="28.8" x2="144.3" y2="28.8" fill="none" stroke="#1d1d1b" stroke-width="0.28"/><line x1="71.8" y1="14.4" x2="144.3" y2="14.4" fill="none" stroke="#1d1d1b" stroke-width="0.28"/><line x1="71.8" y1="64.8" x2="144.3" y2="64.8" fill="none" stroke="#1d1d1b" stroke-width="0.28"/><line x1="71.8" y1="50.4" x2="144.3" y2="50.4" fill="none" stroke="#1d1d1b" stroke-width="0.28"/><line x1="71.8" y1="36" x2="144.3" y2="36" fill="none" stroke="#1d1d1b" stroke-width="0.28"/><line x1="71.8" y1="21.6" x2="144.3" y2="21.6" fill="none" stroke="#1d1d1b" stroke-width="0.28"/><line x1="71.8" y1="7.2" x2="144.3" y2="7.2" fill="none" stroke="#1d1d1b" stroke-width="0.28"/><line x1="-0.3" y1="68.4" x2="72.3" y2="68.4" fill="none" stroke="#1d1d1b" stroke-width="0.28"/><line x1="-0.3" y1="54" x2="72.3" y2="54" fill="none" stroke="#1d1d1b" stroke-width="0.28"/><line x1="-0.3" y1="39.6" x2="72.3" y2="39.6" fill="none" stroke="#1d1d1b" stroke-width="0.28"/><line x1="-0.3" y1="25.2" x2="72.3" y2="25.2" fill="none" stroke="#1d1d1b" stroke-width="0.28"/><line x1="-0.3" y1="10.8" x2="72.3" y2="10.8" fill="none" stroke="#1d1d1b" stroke-width="0.28"/><line x1="-0.3" y1="61.2" x2="72.3" y2="61.2" fill="none" stroke="#1d1d1b" stroke-width="0.28"/><line x1="-0.3" y1="46.8" x2="72.3" y2="46.8" fill="none" stroke="#1d1d1b" stroke-width="0.28"/><line x1="-0.3" y1="32.4" x2="72.3" y2="32.4" fill="none" stroke="#1d1d1b" stroke-width="0.28"/><line x1="-0.3" y1="18" x2="72.3" y2="18" fill="none" stroke="#1d1d1b" stroke-width="0.28"/><line x1="-0.3" y1="3.6" x2="72.3" y2="3.6" fill="none" stroke="#1d1d1b" stroke-width="0.28"/><line x1="-0.3" y1="72" x2="72.3" y2="72" fill="none" stroke="#1d1d1b" stroke-width="0.28"/><line x1="-0.3" y1="57.6" x2="72.3" y2="57.6" fill="none" stroke="#1d1d1b" stroke-width="0.28"/><line x1="-0.3" y1="43.2" x2="72.3" y2="43.2" fill="none" stroke="#1d1d1b" stroke-width="0.28"/><line x1="-0.3" y1="28.8" x2="72.3" y2="28.8" fill="none" stroke="#1d1d1b" stroke-width="0.28"/><line x1="-0.3" y1="14.4" x2="72.3" y2="14.4" fill="none" stroke="#1d1d1b" stroke-width="0.28"/><line x1="-0.3" y1="64.8" x2="72.3" y2="64.8" fill="none" stroke="#1d1d1b" stroke-width="0.28"/><line x1="-0.3" y1="50.4" x2="72.3" y2="50.4" fill="none" stroke="#1d1d1b" stroke-width="0.28"/><line x1="-0.3" y1="36" x2="72.3" y2="36" fill="none" stroke="#1d1d1b" stroke-width="0.28"/><line x1="-0.3" y1="21.6" x2="72.3" y2="21.6" fill="none" stroke="#1d1d1b" stroke-width="0.28"/><line x1="-0.3" y1="7.2" x2="72.3" y2="7.2" fill="none" stroke="#1d1d1b" stroke-width="0.28"/><line x1="-72.3" y1="68.4" x2="0.3" y2="68.4" fill="none" stroke="#1d1d1b" stroke-width="0.28"/><line x1="-72.3" y1="54" x2="0.3" y2="54" fill="none" stroke="#1d1d1b" stroke-width="0.28"/><line x1="-72.3" y1="39.6" x2="0.3" y2="39.6" fill="none" stroke="#1d1d1b" stroke-width="0.28"/><line x1="-72.3" y1="25.2" x2="0.3" y2="25.2" fill="none" stroke="#1d1d1b" stroke-width="0.28"/><line x1="-72.3" y1="10.8" x2="0.3" y2="10.8" fill="none" stroke="#1d1d1b" stroke-width="0.28"/><line x1="-72.3" y1="61.2" x2="0.3" y2="61.2" fill="none" stroke="#1d1d1b" stroke-width="0.28"/><line x1="-72.3" y1="46.8" x2="0.3" y2="46.8" fill="none" stroke="#1d1d1b" stroke-width="0.28"/><line x1="-72.3" y1="32.4" x2="0.3" y2="32.4" fill="none" stroke="#1d1d1b" stroke-width="0.28"/><line x1="-72.3" y1="18" x2="0.3" y2="18" fill="none" stroke="#1d1d1b" stroke-width="0.28"/><line x1="-72.3" y1="3.6" x2="0.3" y2="3.6" fill="none" stroke="#1d1d1b" stroke-width="0.28"/><line x1="-72.3" y1="72" x2="0.3" y2="72" fill="none" stroke="#1d1d1b" stroke-width="0.28"/><line x1="-72.3" y1="57.6" x2="0.3" y2="57.6" fill="none" stroke="#1d1d1b" stroke-width="0.28"/><line x1="-72.3" y1="43.2" x2="0.3" y2="43.2" fill="none" stroke="#1d1d1b" stroke-width="0.28"/><line x1="-72.3" y1="28.8" x2="0.3" y2="28.8" fill="none" stroke="#1d1d1b" stroke-width="0.28"/><line x1="-72.3" y1="14.4" x2="0.3" y2="14.4" fill="none" stroke="#1d1d1b" stroke-width="0.28"/><line x1="-72.3" y1="64.8" x2="0.3" y2="64.8" fill="none" stroke="#1d1d1b" stroke-width="0.28"/><line x1="-72.3" y1="50.4" x2="0.3" y2="50.4" fill="none" stroke="#1d1d1b" stroke-width="0.28"/><line x1="-72.3" y1="36" x2="0.3" y2="36" fill="none" stroke="#1d1d1b" stroke-width="0.28"/><line x1="-72.3" y1="21.6" x2="0.3" y2="21.6" fill="none" stroke="#1d1d1b" stroke-width="0.28"/><line x1="-72.3" y1="7.2" x2="0.3" y2="7.2" fill="none" stroke="#1d1d1b" stroke-width="0.28"/><line x1="71.8" x2="144.3" fill="none" stroke="#1d1d1b" stroke-width="0.28"/><line x1="-0.3" x2="72.3" fill="none" stroke="#1d1d1b" stroke-width="0.28"/><line x1="-72.3" x2="0.3" fill="none" stroke="#1d1d1b" stroke-width="0.28"/></pattern></defs><g id="scale-1:20"><path d="M906.2,384.6v9.9H764.4v-10" transform="translate(-24.4 -19.9)" fill="none" stroke="#040000" stroke-miterlimit="10" stroke-width="0.57"/><line x1="768.5" y1="364.7" x2="768.5" y2="374.7" fill="none" stroke="#040000" stroke-miterlimit="10" stroke-width="0.57"/><line x1="796.8" y1="364.7" x2="796.8" y2="374.7" fill="none" stroke="#040000" stroke-miterlimit="10" stroke-width="0.57"/><line x1="825.1" y1="364.7" x2="825.1" y2="374.7" fill="none" stroke="#040000" stroke-miterlimit="10" stroke-width="0.57"/><line x1="853.5" y1="364.7" x2="853.5" y2="374.7" fill="none" stroke="#040000" stroke-miterlimit="10" stroke-width="0.57"/><text transform="translate(736.5 360.2)" font-size="14.17" fill="#040000" font-family="SimSun">0</text><text transform="translate(871.5 360.2)" font-size="14.17" fill="#040000" font-family="SimSun">100cm</text></g><g id="outline"><path d="M74,155.5a54.6,54.6,0,0,1,7.3-4c3-1.2,5.1-2.2,8.1-2.7a90.3,90.3,0,0,0,9.1-1.3l2-.6,3.2-1.1,4-1.2c4.2-1.3,4.8-1.1,9-2.3s3-1,4.8-1.4,3.1-.5,5.2-1.1l2.8-1c3.7-1.6,7.8-2.3,13.7-3.3l6.3-.9c10.6-1.4,11.3-1.3,14.8-2.1s3.8-1,6.7-1.4a50.8,50.8,0,0,1,6.9-.7c.8-.1,9.6-.9,15-1.8l1.9-.3,5.2-.6c1.4-.2,3.3-.8,7-1.8l11.7-3.4a19.8,19.8,0,0,1,3.3-.6,22.3,22.3,0,0,1,5.8,0,51.1,51.1,0,0,0,8.3-.6c2.9-.2,4.8-.6,8.3-1.1,7.1-1.1,10.7-1.7,13.3-2.6s2.9-1.4,8.1-3.4l7.5-2.5,7.7-2.5c3.2-.8,3.7-.7,9.9-1.9,4-.8,6-1.2,8.5-1.9,4.2-1.1,4.3-1.5,10.3-3.4s4.3-1.2,10.5-3.1l7.5-2.3a29.9,29.9,0,0,1,6-1.7c1.6-.2,1.5,0,5-.3l5.5-.6,3.7-.5,12.4-2.1c4.6-.6,4.2-.4,7-.9a58.9,58.9,0,0,0,9-2.3c10.1-2.9,15.2-4.4,16.8-5a24.7,24.7,0,0,1,6.3-1.9c2.2-.3,3-.1,6-.5l5-1c4.3-.9,5.2-1.3,7.9-1.8s3.5-.6,5.9-.9c7.8-1.1,8.7-2.2,16.4-3.3a58.4,58.4,0,0,1,8.4-.9c4.3-.2,5.6.1,10.9,0,1.6-.1,4.6-.2,8.1-.6,6.2-.6,5.9-1.2,12.1-1.8,4-.5,5.7-.4,10-1l3.4-.5,6.1-.3,3.9-.4,9.3-.8c8.9-.7,8.3-.4,11.4-.8l9.2-1.7,13.4-2.5,8.2-1.7c7.7-1.6,11.6-2.4,14.5-2.8s6.4-.6,10.6-.9l7.7-.5c5.7-.2,6.1,0,11.7-.2,7.6-.2,7.7-.5,13.4-.5,3.4,0,4.3.1,7.7,0s5.9-.3,8.6-.5a91.8,91.8,0,0,1,12.7.2c10.6.6,11.8,1.6,20.9,1.7,4.5.1,7.8,0,9.1-.1,5.4-.3,7.2-.8,11.4-1.2s8.3-.2,17.1.1c4.2.1,8.8.2,15,.7,4.1.3,5.3.5,9.1.6s6,.2,10.7.2h8.6c4.1-.1,4.8-.4,10.1-.9,3.2-.3,8.1-.8,14-.8s4.3.2,10.1.2,6.2-.3,11.7-.3,6,.3,16.7.5l9.3.2,11.7.2c7,0,7-.1,10.5,0s5.3.3,10.3.6,6.7.2,12,.4c12.3.5,12.6,1.1,22.5,1.4,7.3.1,7.6-.2,12.4.2,6.4.6,7.3,1.3,12.4,1.2,2.9,0,4.8-.2,9,0l5.2.4a76.3,76.3,0,0,0,8.3.1l4.8-.3a93.3,93.3,0,0,0,9.6-1.8c2.5-.5,2.3-.3,14.1-1.2,7.2-.6,6.6-.7,9.2-.8s7.3-.4,14.4-.4c9.5,0,14.3,0,18.8.3,7.7.5,12.4,1.3,23.9,2.3l8.2.7c4.3.5,5.1.8,7.6.9a57.9,57.9,0,0,0,7.9-.6c2.3-.3,5.4-.7,9.1-1.5" transform="translate(-24.4 -19.9)" fill="none" stroke="#000" stroke-linecap="round" stroke-linejoin="round" stroke-width="1.13"/><path d="M73.9,231.9a40.6,40.6,0,0,1,5.8-1.6,58.3,58.3,0,0,1,8.2-1.1c4.8-.5,8.4-.7,10.6-.8l13.8-.8c6.4-.5,8.4-.8,10.6-1.4a29.5,29.5,0,0,1,3.9-.9,34.6,34.6,0,0,1,5.2-.6c3-.3,3.2-.2,4.8-.3a34.3,34.3,0,0,0,8.7-1.8c2.4-.8,2.3-1.2,5.9-2.5l4.8-1.6,10.1-3.4c5-1.6,7.5-2.4,9.4-2.6h13a67.1,67.1,0,0,0,6.7-.4l5.4-.9a34.5,34.5,0,0,1,4-.5c4.2-.5,4.9-.2,7.9-.8l3.7-.9,4.7-1.5a44.5,44.5,0,0,1,5.1-1.1,54.7,54.7,0,0,0,7.1-1.7c2.8-.8,5.6-2.4,11.3-5.6l5.2-3c3.5-2.3,3.8-3,7.6-5.6s5.2-3.7,8.1-4.7a33.1,33.1,0,0,1,6.2-1.4c3.2-.4,3.9,0,7.6-.5a44,44,0,0,0,5.2-1,63.1,63.1,0,0,0,7.3-2.3l5.1-2.1c4.1-1.7,3.9-1.4,5.2-2.1s4.5-2.6,8.2-5.4a34.8,34.8,0,0,0,5-4.1,22.9,22.9,0,0,1,3.1-3.5l2.7-1.8c4.5-2.5,9.4-2.6,12.3-2.6s3.7-.1,5.2.4,3.3,1.7,7.2,3.1l2.9.9a32.9,32.9,0,0,0,5.5.7c3.1.3,2.8.9,7,1.7l7.9.8,6.3.6,9.8,1.2a87.1,87.1,0,0,0,12.8.7c4.2,0,3.3-.3,9.4-.5s7.2,0,9.9-.8a48.5,48.5,0,0,0,6.4-2.9,34.7,34.7,0,0,0,4-2.4,126,126,0,0,0,11.4-7.5l5.5-4.7a48.2,48.2,0,0,1,4.6-3.9,24.1,24.1,0,0,1,5.9-2.9,52.6,52.6,0,0,1,10.4-2.6,74.3,74.3,0,0,1,11-1c18.8-.4,28.1-.5,37.9-.2l26.7,1.3,13.8.6,12.9.7c17.9,1.2,21.4,2.4,30.3,1.4,1.5-.1.4-.1,8.2-1.2l19.8-2.9c9.7-1.1,14.5-1.7,19.8-1.9,2.5,0,5.3,0,18.9.9l25.8,2c16.2,1.1,15,.5,24.1,1.4s12.5,1.8,20.4,2a102.6,102.6,0,0,1,11.2.6c3.5.4,5.2.8,10.5,1.7l12.2,1.8c12.4,1.8,13.7,2.2,29.3,4.5l18.1,2.5a167.3,167.3,0,0,0,21.4,1.3c9.4-.2,8.5-1.2,18.5-1.3a49,49,0,0,0,11.8-1.2c1.8-.4,2.2-.7,6.7-1.9l8.7-2.3,12.6-3.4c11.2-2.9,16.9-4.4,22.1-4.7h10a24.3,24.3,0,0,1,4.7.2,33.7,33.7,0,0,1,6.1,2.2l6.7,2.5c3,.7,3.6.3,6.9,1.2a33.2,33.2,0,0,1,4.9,1.6,107.4,107.4,0,0,1,11.2,5.2,115,115,0,0,1,21.5,14.4,113.6,113.6,0,0,1,9.4,8.9,96.5,96.5,0,0,1,8.3,9.7c2.8,3.7,4.2,5.5,5,7.6s1.3,6.2,1.8,13.6a86,86,0,0,0,1.3,11.1,21.1,21.1,0,0,0,1,3.7,26,26,0,0,0,1.8,3.9c1.9,3.4,3.7,3.8,8.1,8.8a59.4,59.4,0,0,1,3.7,4.8c1.1,1.7,1.9,3.2,2.5,4.2" transform="translate(-24.4 -19.9)" fill="none" stroke="#000" stroke-linecap="round" stroke-linejoin="round" stroke-width="0.85"/><path d="M1015.6,217.2l5,1,4.1,1.2c4.6,1.4,4.5,1.8,6.6,2.1a28.3,28.3,0,0,0,4.9.5,18.5,18.5,0,0,1,2.9.2,14,14,0,0,1,4.1,1.5c1.6.8,2.7,1.6,3.1,1.8,4,2.8,10.6,8.3,11.2,8.8" transform="translate(-24.4 -19.9)" fill="none" stroke="#000" stroke-linecap="round" stroke-linejoin="round" stroke-width="0.85"/><path d="M508.6,139.4c0,.5.2,5,.2,5.5a65.5,65.5,0,0,1,.3,7.8,48.6,48.6,0,0,1-.8,7.4c-.8,4.9-1.7,6.3-1.5,9.7,0,.6.1,1.5.2,3.3a38.3,38.3,0,0,1,.1,4.6,22.8,22.8,0,0,1-.5,4c-.2,1.6-.4,3-.6,5.7s-.6,7.6-.6,12.3.2,3.6.6,10.4c.2,4.9.2,8.6.3,12,0,.6,0,9.1-.3,15.2,0,1.3-.1,1.4-.2,3.6a35.8,35.8,0,0,1-.3,4.7c-.3,1.3-.4,1.4-.6,2.6a17,17,0,0,0-.1,3.6,34.1,34.1,0,0,0,1.1,6.4c.5,2.4,1.1,4,1.4,5.1s1.6,5.7,2.5,10" transform="translate(-24.4 -19.9)" fill="none" stroke="#000" stroke-linecap="round" stroke-linejoin="round" stroke-width="0.85"/><path d="M903.3,144.3a20.4,20.4,0,0,0,5.2,2.7,17.6,17.6,0,0,0,3.5.9c4.6.6,3.8,1,13.4,2.8,5.3,1,7.9,1.6,10.3,1.8s4.6.3,8.9.9l5.4.8,6.9,1a58.9,58.9,0,0,0,8.8.5,39.4,39.4,0,0,0,4.9-.5" transform="translate(-24.4 -19.9)" fill="none" stroke="#000" stroke-linecap="round" stroke-linejoin="round" stroke-width="0.85"/><path d="M892.2,147.2l15.3,7.5a21.7,21.7,0,0,0,6.2,2.2l4.1.4c2.3.2,4,.5,5.9.8,4.3.6,8.2,1.6,15.8,3.6,4.1,1,5.5,1.4,6.3,1.7,3.7,1.1,5.6,1.8,7.8,2.6,5.6,1.9,5.7,1.2,14.5,3.6,6.5,1.7,7.5,2.4,11.3,2.8s5.7.4,7.4.4a62.3,62.3,0,0,0,7.9-.2" transform="translate(-24.4 -19.9)" fill="none" stroke="#000" stroke-linecap="round" stroke-linejoin="round" stroke-width="0.85"/><path d="M1009.2,188.9l-11.9-4.4c-5.6-2.1-6.3-2.4-8.5-3.1-4.6-1.5-5.3-1.3-11.1-3s-5.5-2-8.2-2.6-4.8-.3-11.9-.6c-2.2-.2-6.2-.4-11.1-1.1a114.9,114.9,0,0,1-11.4-2.2l-9.5-3c-12.6-4.1-14.9-4.7-16.9-5.2-5.8-1.5-4.8-.8-9.7-2.1a87.6,87.6,0,0,1-16.3-6.1,77.2,77.2,0,0,1-6.9-4" transform="translate(-24.4 -19.9)" fill="none" stroke="#000" stroke-linecap="round" stroke-linejoin="round" stroke-width="0.85"/><path d="M673.8,139l18.7,5.8,4.6,1.2c2.7.6,4.2.7,10.5,1.6l3.6.5c6.7,1,12.2,2.8,20,5.3l3.1,1.1,8.9,2.9c9.4,3.1,14.2,4.7,20.1,5.8l4.5.7c5.1.6,6.1.1,11.6.7,3.5.3,7.1.9,7.5,1l4.6.7c2.9.4,4.9.4,5.6.5h13.6l16.2.5c11.6.3,11.8-.1,15.3.5s4.8,1,9.2,1.4a69.6,69.6,0,0,0,7.4.4c2.2.1,6,.2,10.6,0l4.2-.3,5-.4c4.7-.3,9.3,1,12.1,1.8,4.7,1.4,3.9,1.8,9.5,3.7a117.4,117.4,0,0,0,11.5,2.8c4.1.8,5.2.8,8.8,1.7l5.9,1.7,5.9,1.5a64.2,64.2,0,0,1,7.2,3.1c5.7,2.8,6.2,3.4,9.6,4.7s3.4,1.2,5.6,1.8a80.4,80.4,0,0,0,8.1,2.1c6,1.4,12.7,2.9,18.9,3.8a32,32,0,0,1,4.5,1c2.3.7,2.8,1.2,5.3,2.1a36.8,36.8,0,0,0,4.7,1.1,52,52,0,0,0,7.1.8,61.8,61.8,0,0,1,11.1,1.6" transform="translate(-24.4 -19.9)" fill="none" stroke="#000" stroke-linecap="round" stroke-linejoin="round" stroke-width="0.85"/><path d="M1016.4,221.1a44.6,44.6,0,0,1-13.6-3.1c-8.1-3.1-9.4-4.3-15.4-6.4l-7.1-2.2a88,88,0,0,1-9.3-3.1c-3.6-1.5-3.1-1.7-6.8-3.2s-4-1.4-9.7-3.3l-7.1-2.5-12.8-4.2c-3.4-1.1-5.1-1.7-6.1-1.9a94.2,94.2,0,0,0-11.3-2c-1.8-.2-6.4-1.1-15.6-2.9-12.8-2.5-11.1-2.4-15.6-3.1a207,207,0,0,0-26.4-2.6c-3-.2-8.6-.4-13.6-.9l-6.4-.6-4-.4c-6.1-.5-9.2-.7-10.1-.9-5.3-.9-4.8-2.2-10.4-3.3-2.4-.5-4.6-.5-8.9-.7s-5.3-.1-11.6,0-9.9.1-12.5-.1a90.3,90.3,0,0,1-12.1-1.3c-5.8-.9-5.9-1.4-12.4-2.5-5-.8-5.7-.6-9-1.5a81.1,81.1,0,0,1-9.1-3.1l-11.1-4.2s-1.9-.8-4.6-1.6a16.8,16.8,0,0,0-4.1-1.1c-1.7-.3-2,0-4.6-.2l-3.7-.4a30.7,30.7,0,0,1-5.6-1.2c-4.8-1.3-8.7-2.8-8.8-2.8-3.7-1.3-8.2-2.2-17-3.9l-14.6-2.7a24.9,24.9,0,0,1-8.1-1.8,31.6,31.6,0,0,1-5.6-3.3c-2.5-1.8-4.4-3.4-5.8-4.6" transform="translate(-24.4 -19.9)" fill="none" stroke="#000" stroke-linecap="round" stroke-linejoin="round" stroke-width="0.85"/><path d="M617.4,140.6a28.7,28.7,0,0,0,6.4,3.9c4,1.9,7.5,2.6,12.2,3.5l4.5.8c11.2,1.9,13,1.8,18.6,3.1,1.8.4,4.8,1.1,8.4,2.2a75.6,75.6,0,0,1,7.5,2.5c5.2,1.9,9.2,3.7,9.2,3.7a36.3,36.3,0,0,0,5.2,1.9,45.3,45.3,0,0,0,4.9.8,39.2,39.2,0,0,1,7.2,2.3c3.2,1.2,3.1,1.4,8.8,3.9,3,1.3,4.8,1.9,6,2.4a37.7,37.7,0,0,0,6,2c2.2.5,2.8.4,6.4.9l6.8,1.1,9.3,1.9a129.7,129.7,0,0,0,14.4,2.2c5.5.5,5.9.1,8.9.8a32.3,32.3,0,0,0,6.5,1.1l4-.3a67.8,67.8,0,0,1,7.8-.3l7.9.6,4.6.4,7,.6a59.7,59.7,0,0,1,8.3.9l3.4,1.1c6.4,2.1,7.4,1.8,10.8,3.3l3.6,1.5,3.9,1.6a38.8,38.8,0,0,0,4.4.4l6,.6,3.8.4c4.8.5,5.1.8,8.8,1.2s2.8.1,6.6.5l5.9.7c3.7.6,6.5,1.2,8.2,1.6,18.7,4.4,18.9,4.5,21.5,4.9a80.1,80.1,0,0,1,8.4,1.5c4.2,1.1,4.9,1.9,8.7,2.7,2.1.4,1.9.2,8.2.9a84,84,0,0,1,8.7,1.1l7.3,1.9c5.9,1.5,10.2,2.9,11.4,3.3l10.8,3.5c7.5,2.5,8.5,2.9,9.8,3.4,4.8,2,4.8,2.4,8.7,4,5.5,2.2,7.2,1.9,12.7,3.7a76.6,76.6,0,0,1,11.7,5.1,121,121,0,0,1,18.3,11.4" transform="translate(-24.4 -19.9)" fill="none" stroke="#000" stroke-linecap="round" stroke-linejoin="round" stroke-width="0.85"/><path d="M1006.6,241.5a25.4,25.4,0,0,0-4.7-4.1,27.9,27.9,0,0,0-5.8-2.7,34.8,34.8,0,0,0-6.7-1,35.5,35.5,0,0,1-5.7-.7l-3.1-.9c-5.3-1.8-6.7-1.9-10.1-3.3l-3.1-1.3c-1.3-.6-2.3-1.1-12.3-5.3-8.4-3.6-12.6-5.4-13.8-5.8s-5.6-1.1-9.9-1.9l-6.8-1.1-11.5-2a33.7,33.7,0,0,0-6.1-1.5l-3.6-.2-7.3-.4c-2.5-.1-4.6-.2-8.7-.6-9.3-.7-13.9-1-16.1-1.7s-4.4-1.6-7.9-2.1c-1.5-.2-1.8-.1-6.6-.3s-7.2-.3-8.7-.5-1.6-.4-8.3-2.3l-8.3-2.2c-3.7-.8-4.3-.7-8.1-1.5s-5.8-1.3-8.1-2c-5.8-1.6-6.6-2.2-14-4.5s-9.5-3-13.2-3.6c-2.1-.4-1.4-.2-9.7-1.1s-8.2-1.1-11.3-1.3-5.9-.2-9.6-.1c-18.5.5-20.2.8-25.6.6-3.7-.2-8.3-.6-13.6-1.4a91.5,91.5,0,0,1-22.3-6.2c-3.2-1.4-5.8-2.7-8-3.9-7.6-4-7.9-5.1-13.6-7.7-3.2-1.5-4.6-1.9-8.9-4l-5.6-3c-4.6-2.4-8.3-3.4-14.7-5.1a136.7,136.7,0,0,0-16.8-3.3l-10.5-1.1-10.8-1.1a82.1,82.1,0,0,1-20.5-5.6" transform="translate(-24.4 -19.9)" fill="none" stroke="#000" stroke-linecap="round" stroke-linejoin="round" stroke-width="0.85"/><path d="M548,141.1a108.5,108.5,0,0,0,11.1,5.7,75.4,75.4,0,0,0,15.3,5.1c3.8.8,3.1.4,8.1,1.3,6.8,1.4,8.2,2.3,14.8,3.6a73.1,73.1,0,0,0,9.1,1.3c9.3.8,12.7.8,12.7.8a12.4,12.4,0,0,1,9.5,3.5c2.8,2.4,5.9,4.6,8.9,6.9a71.3,71.3,0,0,0,10.4,6.9,129.7,129.7,0,0,0,11.8,5.8c3.9,1.7,8.3,3.4,17.2,6.8a108.7,108.7,0,0,0,13.1,4.5c3.2.9,6.2,1.5,7.1,1.7l7.7,1.3c7.7,1.2,14.2,2.2,23.1,2.9,6.6.5,6.5.2,10.9.7a113.6,113.6,0,0,1,14.5,2.6l6,1.4,8.1,2.5s6.8,2.3,14.9,4.8c6.5,2,6.4,1.7,15.6,4.4l6.9,2.1c5,1.1,6.3.9,13.6,2.1,4.5.8,4.6,1,8.7,1.7s5.8.7,9,1c7.7.8,11.7,1,15.7,1.4s8.4.9,17.3,2.1c15,2,22.5,3,28.5,4.2,7.7,1.5,10,2.4,16.3,3l13.6,1,12,.8c4.6.3,5.4.2,8.3.5s4.3.6,7,.7a45,45,0,0,1,5.3.1,14.9,14.9,0,0,1,5.6,1.4,13.8,13.8,0,0,1,3.5,2.5" transform="translate(-24.4 -19.9)" fill="none" stroke="#000" stroke-linecap="round" stroke-linejoin="round" stroke-width="0.85"/><path d="M762.3,185.4a99.2,99.2,0,0,0,13.1,5.5,62.8,62.8,0,0,0,8.9,2.6c3,.7,3.7.5,7.5,1.3a55.8,55.8,0,0,1,8.1,2.2c3.4,1.2,3.6,1.8,8,3.4A44.2,44.2,0,0,0,813,202c3.7.8,3.9.3,6.9,1s3.9,2,8,2.9l4.3,1.1,2.6.7c3,.9,4,1.7,6.6,2.7l6,1.8,7,1.9a56.5,56.5,0,0,0,6.5,1.1l3.9.4,4.9,1,4.2.7a42.7,42.7,0,0,0,5.5.7c1.4.1,2.6.2,6.5.2l9.8-.2h7.1l8,.8,8.4,1.3c4.2.8,7.6,1.7,10,2.3a77.2,77.2,0,0,1,13.9,5.3,16.5,16.5,0,0,1,5.5,4.2,15.7,15.7,0,0,1,2.2,3.8" transform="translate(-24.4 -19.9)" fill="none" stroke="#000" stroke-linecap="round" stroke-linejoin="round" stroke-width="0.85"/><path d="M626,151.2a14.2,14.2,0,0,0,4.7,4.8c1.2.7,1.5.6,6.7,2.9l3,1.4c2,1,3.3,1.8,4.8,2.7s3.1,1.7,6,3.4c9.8,5.8,11.4,7.9,17.4,10.3l5.9,1.9c11.9,3.9,12.9,4.4,16.9,5.5l5.5,1.6c4.1,1.3,4.8,1.9,7.3,2.7,4.4,1.4,4.7.4,11,1.7,4.3.9,4.2,1.4,8.7,2.2a77.6,77.6,0,0,0,8.3,1.1c5.1.6,6.8.6,9.4.9s7,1,13.5,2.4c10.1,2.1,17.4,4.1,19.6,4.7l8.7,2.7c2.8.9,3,1.1,8.1,3l12.5,4.7a46.1,46.1,0,0,1,6.7,3,39.2,39.2,0,0,1,6.9,4.9" transform="translate(-24.4 -19.9)" fill="none" stroke="#000" stroke-linecap="round" stroke-linejoin="round" stroke-width="0.85"/><path d="M508.9,147c2.3.2,5.4.5,9.2,1.1s5.2,1,11.1,2.5c9,2.3,13.5,3.4,19.3,5.2,4,1.2,7,2.1,11.1,3.6s5.2,2.2,8.4,3.1,4.4,1,10.5,2.4l8.1,2.1c2.6.8,5.2,1.7,12.1,4.4,4.3,1.7,8.7,3.4,15.1,6.1,8.9,3.9,9.1,4.3,14,6.1,3.2,1.2,2.9.9,11.9,3.9l13.8,4.6,12.2,4a43.9,43.9,0,0,0,8.9,2.8c2.8.5,2.7.1,6.3.7a59.8,59.8,0,0,1,9.8,2.3c3.7,1.1,3.2,1.3,5.8,2s5.2.9,9.9,1.4l9.6,1.1c15.1,1.4,55.5,12.4,64.5,12.4h11c3.1.3,4.1.9,9,2.2l5.2,1.2c11,2.4,26.3,10.9,40.6,14.4l7,1.6c6.2,1.4,9.3,2.1,11.3,2.4a84.6,84.6,0,0,0,11.1,1.1,99.8,99.8,0,0,0,11.1,0c11.8-.3,11.5.8,28.4.9,5.6.1,9.7,0,16.3.6,3.5.4,6.3.8,8.2,1.2" transform="translate(-24.4 -19.9)" fill="none" stroke="#000" stroke-linecap="round" stroke-linejoin="round" stroke-width="0.85"/><path d="M509,155.4l4.4.6,4.6.7c2.4.5,2.8.8,5.4,1.4s2.2.4,5.9,1.1l7.4,1.6,6.9,1.8,7,2.2c4.5,1.4,8,2.2,10.4,2.8,5.7,1.4,5.8,1.1,11.5,2.4l11.4,3.1c8,2.2,10.2,2.9,12.7,3.7a63.5,63.5,0,0,1,6.7,2.6c3.1,1.4,4.3,2.3,8.2,4l4,1.6c3,1.3,5,2.1,6.9,3.1,3.7,1.8,3.4,2.2,8.4,5.1,1.9,1,3.8,2.1,6.4,3.3a57.4,57.4,0,0,0,7.9,2.8,68.4,68.4,0,0,0,16.8,2.4h5.9c3.6-.2,4.6-.7,6.3,0a13.5,13.5,0,0,1,3.7,3,29,29,0,0,1,2.5,2.9c1.7,1.9,2.5,2.9,3.1,3.4a15,15,0,0,0,4,2.2,27.2,27.2,0,0,0,6.1,1.8,31.2,31.2,0,0,0,5.2.4h4.6c2.9.1,3.8.6,8.2,1.3,1.9.4,1.3.2,13.9,1.9l3.2.4c8.9,1.2,15.8,3.2,25.3,5.1s11.1,1.5,20.7,3.8l11.5,2.8c9.2,2.3,9.7,2.4,11.5,3a116.3,116.3,0,0,1,12.6,5.2l6.4,3c4,1.9,5.4,2.8,8.1,3.5s1.9.2,4.8.8a75.5,75.5,0,0,1,8.4,2.4c5.1,1.6,6.4,2.2,9.4,2.8l3.4.5a91.4,91.4,0,0,0,12.8.2l7.8-.3c4.6-.4,6.8-.9,10.5-1.5s8.3-.9,16.4-1.3,11.9-.3,14.3,0a66.8,66.8,0,0,1,6.7,1.3" transform="translate(-24.4 -19.9)" fill="none" stroke="#000" stroke-linecap="round" stroke-linejoin="round" stroke-width="0.85"/><path d="M609.6,158.4a6.8,6.8,0,0,0,1.5,2.7c.6.7,1.2,1.1,3.9,2.5l3.5,1.9,4.1,2.4,5.1,2.9,8.7,5.1a37.8,37.8,0,0,1,8.1,8.7,56.2,56.2,0,0,1,3.3,5.6" transform="translate(-24.4 -19.9)" fill="none" stroke="#000" stroke-linecap="round" stroke-linejoin="round" stroke-width="0.85"/><path d="M451.2,145a14.5,14.5,0,0,0,3.4,1.4,17.4,17.4,0,0,0,4.6.2h6.9c3.5,0,2.9.2,6.9.2l9-.2h3.7c3.3-.2,5-.2,6.8-.2l4.8.2,5.2.2,6.4.3" transform="translate(-24.4 -19.9)" fill="none" stroke="#000" stroke-linecap="round" stroke-linejoin="round" stroke-width="0.85"/><path d="M508.2,266.5l4-.5a46.2,46.2,0,0,1,7.6-.4,37.6,37.6,0,0,1,6.1,1.3l4,1.1a46.4,46.4,0,0,1,7.4,2.5,21,21,0,0,1,5.5,4" transform="translate(-24.4 -19.9)" fill="none" stroke="#000" stroke-linecap="round" stroke-linejoin="round" stroke-width="0.85"/><path d="M504.8,251.4c3.2,2,6,3.6,8,4.7,4.2,2.3,6.3,3.4,9.5,4.3s3.8.9,6.8,1.5l6.7.9c7.2.9,10.7,1.4,13.6,1.4s1.3,0,7,0h5.7c3.3.1,7,.1,11.4.4l6,.4h2.8l7.7.4,3.8.4a29,29,0,0,1,5.8,2.5c1.6.9,4,2.2,7.1,3.7" transform="translate(-24.4 -19.9)" fill="none" stroke="#000" stroke-linecap="round" stroke-linejoin="round" stroke-width="0.85"/><path d="M507.5,164.1a30.3,30.3,0,0,1,5.9,1.1c2.4.7,2.8,1.1,6.5,2.5s7.4,2.4,8.6,2.7c3.5,1,3.5.7,5.9,1.5l6.3,2.3,3.2,1.1,4.3.7,1.9.2,4.6.8a44.9,44.9,0,0,1,8.3,2,44,44,0,0,1,6,2.4c4,1.8,4.6,2.4,8.7,4.3,1.7.8,4.1,1.9,7.3,3.1,1.1.4,3.4,1.2,9,2.7s8.7,2.3,12.9,3a116.4,116.4,0,0,0,12.8,1.4,43.6,43.6,0,0,0,6.1.1,51.4,51.4,0,0,0,7.9-1.2" transform="translate(-24.4 -19.9)" fill="none" stroke="#000" stroke-linecap="round" stroke-linejoin="round" stroke-width="0.85"/><path d="M571.7,264.5a10.4,10.4,0,0,1,.3-2.1,5.8,5.8,0,0,1,1.3-3.4c.2-.3.9-1,3.6-1.3s3.7.3,7.4.4H589a46.7,46.7,0,0,0,6-.7c3.7-.5,7.4-.2,14.7.5,4.1.3,3.7.4,11.1,1.2s6.2.5,15.3,1.5,9.1,1,11.3,1.1c5.1.2,5.1-.2,14.5-.3,5.4-.1,9-.1,14.1.2,3,.2,3.8.4,7.9.6l9.8.4c3.4,0,6.8,0,11.1-.4,1.5-.1,2.9-.2,4.8-.5s3.2-.7,5.2-.9l4.5-.3,11.5-.3c6.3-.3,5.3-.9,11-1.1s8-.3,10.9.5a33.6,33.6,0,0,0,5.6,1.2l3.8.2h3.4l6.2-.5c3.6-.2,4-.1,7.2-.4l3.6-.3c4.6-.5,5-.8,8.1-1.1,4.7-.5,5.1.1,8.9-.5s2.6-.8,4.9-1.2,5.1-.5,9.5-.4a65.6,65.6,0,0,1,11.8,1c3.5.6,3.6,1,7.1,1.5s4,.3,8.7.8c6.5.7,7,1.5,11,1.4l6.3-.6,3.7-.5c4.5-.7,7.7-1.4,9.3-1.7a70.5,70.5,0,0,1,16.4-1.2,50,50,0,0,1,8.5.9" transform="translate(-24.4 -19.9)" fill="none" stroke="#000" stroke-linecap="round" stroke-linejoin="round" stroke-width="0.85"/><path d="M505.6,244.2l13.1,2.1c8.2,1.4,9.9,1.9,11.6,2.6a49.7,49.7,0,0,1,9.9,5.3,54.1,54.1,0,0,1,5.6,4.2,62.9,62.9,0,0,1,5.8,5.8" transform="translate(-24.4 -19.9)" fill="none" stroke="#000" stroke-linecap="round" stroke-linejoin="round" stroke-width="0.85"/><path d="M572.1,261.6c-1.9-1.1-3.5-2.1-4.6-2.9-4-2.6-5.2-3.8-8.6-5.9l-4.6-2.5c-1.1-.6-4.3-2.2-9.5-4.4l-8.2-3.4c-6-2.5-6.2-2.7-8.4-3.4a49.9,49.9,0,0,0-9.1-1.9c-3.3-.5-7.7-1.1-13-1.6" transform="translate(-24.4 -19.9)" fill="none" stroke="#000" stroke-linecap="round" stroke-linejoin="round" stroke-width="0.85"/><path d="M506.3,222.1c2.9,1,5.2,2.1,6.8,2.8,3.2,1.5,4.6,2.3,12.4,6.3a38.9,38.9,0,0,0,5,2.5c1.8.8,2.5.9,5.1,1.8l4.1,1.8c1.8.8,2.6,1,7.1,2.6l7.1,2.6c3.3,1.2,5.2,1.9,7.8,2.6l3.6,1c2.2.4,2.6.3,4.2.7s2.6,1,4.6,1.6a24.2,24.2,0,0,0,5.4.6c2.9.2,5.4.1,9.3,0l8.7-.4,8.7-1.1a42.5,42.5,0,0,1,8.4-.4l3.6.5,4.2.9,3.8.9,3.7.9,7.9,2.5,8.5,2.9,4.2,1.3,3.4,1.1a13.8,13.8,0,0,1,4.6,3.3" transform="translate(-24.4 -19.9)" fill="none" stroke="#000" stroke-linecap="round" stroke-linejoin="round" stroke-width="0.85"/><path d="M507.1,178.4a23.8,23.8,0,0,1,7.3,1.1l3.2,1.1,3.9,1.6c1.9.5,2.8.2,5.1.3a37.8,37.8,0,0,1,6.4,1.2c4.6,1,5.6,1.6,9.9,2.6l5.5,1.1a135.4,135.4,0,0,1,15.6,4.3l8.6,3.1,9.8,3.7c5,1.9,4.4,1.5,8.4,3s8.5,3.4,13.8,5.2a23.8,23.8,0,0,0,5,1,22.1,22.1,0,0,0,4.8,0c3.7-.2,4.6-.6,7.9-.8s4.3-.2,6-.2l8.6.3,4.9.2H646a48.4,48.4,0,0,0,6.7-.5l5.6-.9c3.5-.6,5.2-.9,7.1-1.4a65.4,65.4,0,0,0,8.7-2.7" transform="translate(-24.4 -19.9)" fill="none" stroke="#000" stroke-linecap="round" stroke-linejoin="round" stroke-width="0.85"/><path d="M506,212.3l7.7,2.8c3.1,1.3,3.7,1.6,6,2.4a61.1,61.1,0,0,0,7.3,2.1c3.4.8,3.5.4,7.3,1.3l5.3,1.4a42.6,42.6,0,0,1,4.3,1.2c5.3,1.6,5.6,1.5,8.3,2.4a46,46,0,0,1,4.7,1.9,37,37,0,0,1,3.6,1.8c1.9,1,2.4,1.4,4.1,2.4a46.7,46.7,0,0,0,4.5,2.3c2.5,1.2,4.6,2.3,7.5,3.4a47.6,47.6,0,0,0,8.1,2.4,51.2,51.2,0,0,0,6,.9,59,59,0,0,0,7.9-.2,28.3,28.3,0,0,0,9.1-1.8,38.9,38.9,0,0,0,5.4-3l4.1-2.8a28.3,28.3,0,0,1,3.7-2.4,10.5,10.5,0,0,1,7-.2,36.8,36.8,0,0,1,4.5,2.5l2.3,1.4a27.3,27.3,0,0,1,4.2,3.8,57.6,57.6,0,0,1,3.7,5,24.4,24.4,0,0,1,2.2,4.1,14.6,14.6,0,0,1,.2,7.9" transform="translate(-24.4 -19.9)" fill="none" stroke="#000" stroke-linecap="round" stroke-linejoin="round" stroke-width="0.85"/><path d="M505.5,202.4H510a45.7,45.7,0,0,1,5,.4,38.3,38.3,0,0,1,6.3,1.6l7.5,1.6,7.2,1.4c4.5.7,5.2.6,8.2,1.3a54.9,54.9,0,0,1,5.4,1.4c5,1.5,5.1,1.8,8.4,2.6s3.8.6,6,1.4,1.9,1.1,5.1,2.4l4.8,1.9c3.8,1.5,3.4,1.5,4.3,1.7a30.9,30.9,0,0,0,6.7,1.3h3.2a21.5,21.5,0,0,0,4.2-.9,40.3,40.3,0,0,1,8.6-1.5,76.4,76.4,0,0,1,8-.3h9c8.2.1,12.2.2,14.7,0s9.4-1,10.7-1.2h0l3.7-.5a13.1,13.1,0,0,1,3-.1,21.7,21.7,0,0,1,3.7.7l4,.9,4.4.9,6.7,1.1c3.9.7,4.1.9,6.5,1.2l5.1.5,8,.6,9.6.6" transform="translate(-24.4 -19.9)" fill="none" stroke="#000" stroke-linecap="round" stroke-linejoin="round" stroke-width="0.85"/><path d="M690.7,214.3a51.3,51.3,0,0,0,4.7,6.3,26.5,26.5,0,0,0,3.8,3.8c2.3,1.6,3.3,1.5,6.7,3.8l2.7,1.8,4,2.7a18.9,18.9,0,0,1,4.8,4.3c1.4,1.7,2,3.2,3.2,6.1a44.4,44.4,0,0,1,1.9,5.6,32.6,32.6,0,0,1,1,4.9,20,20,0,0,1,.3,2.8,39,39,0,0,0,.7,4" transform="translate(-24.4 -19.9)" fill="none" stroke="#000" stroke-linecap="round" stroke-linejoin="round" stroke-width="0.85"/><path d="M505.8,192.4H519c4.2,0,5.5.2,6.1.2l4.7.9,6.1.9c4.3.5,5.2.2,10.2.7a35.6,35.6,0,0,1,5.3.6c2.2.4,3.6.9,12.1,4.2l6.4,2.5,8,4.1c6.3,3.5,9.4,5.2,13.4,7.9s5.1,3.7,6.6,4.8" transform="translate(-24.4 -19.9)" fill="none" stroke="#000" stroke-linecap="round" stroke-linejoin="round" stroke-width="0.85"/><path d="M645.2,249.2l14.1-1.3a43.6,43.6,0,0,1,5-.3,30.1,30.1,0,0,1,4.4.3c4.8.4,5.4-.1,12.9.3l8.8.4a31.1,31.1,0,0,0,4.7.2l3.9-.5,3.5-.6a27.5,27.5,0,0,1,5.8,0c1,.1,4.9,0,12.8-.1l9-.2c4,.1,4.4.3,10.2.6s5.7.2,11.7.4l10.5.6c13.2.8,25.2,1.2,28.4,1.3l9.5.3c6.3.2,7.5.1,10,.5s4,1,8.9,2.4a81.9,81.9,0,0,1,8.3,2.7,56.1,56.1,0,0,1,6.6,3" transform="translate(-24.4 -19.9)" fill="none" stroke="#000" stroke-linecap="round" stroke-linejoin="round" stroke-width="0.85"/><path d="M636.7,236.1a44.6,44.6,0,0,1,4.8-1.1c.5,0,2.5-.3,5.4-.4l7.4.3,3.7.2c5.3.1,5.8,0,9.5.2s3.2.3,6,.3,3.4,0,5.7.2l4.8.4,3.9.5a63.3,63.3,0,0,0,8.3.4,43.8,43.8,0,0,0,9.1-1.4c4.6-1,4.7-1.4,9.5-2.4a32.8,32.8,0,0,1,7.9-.8l4,.5,6.4,1,5.6.4,6.6.7,7.8,1.1c9.4,1.5,14.1,2.2,16.7,2.8,5,1,8.8,2.1,12.4,3s6.7,1.8,9.2,2.7a62.7,62.7,0,0,1,12,6" transform="translate(-24.4 -19.9)" fill="none" stroke="#000" stroke-linecap="round" stroke-linejoin="round" stroke-width="0.85"/><path d="M1057.6,270.5c-.1,13.6-.3,25-.5,33.6a219,219,0,0,1-32.9,2.5c-5.4.1-12.7-.3-27.5-1L961.9,304a118.8,118.8,0,0,0-17.9,0c-6.9.6-9.8,3.3-16.3,2.6-2.4-.2-5.2-1-10.7-2.7-7.2-2.2-8.5-3.1-12.6-4.1s-7.4-1.4-15.3-1.6c-12.8-.3-19.2-.5-25.3,0-13.3,1.1-20.2,4.6-32.7,8.4-20.6,6.4-38.4,7.7-74,10.5-13.9,1-20,1-25.7.6-13.1-.8-15-2.7-27.8-3.2s-13.2,1.3-26.5.6c-9-.5-10.4-1.3-22.2-2.4-3.1-.3-8.9-.8-25.8-1.3-10.8-.3-17.3-.2-43.3-.5-20.4-.3-25.8-.3-34.8,0-17.8.6-17,1.6-31.6,2.1-12.1.4-26.1-.3-54.3-1.6-9.3-.4-15.2-.8-24.3-.5a195.5,195.5,0,0,0-25.9,2.1c-21.7,3.2-21.9,7.5-43.2,10.5-12.7,1.8-15.3.7-23.2,3.7s-11.7,7.3-19.5,7.4c-6.2.1-7.5-2.2-15.9-2.6-2.7-.2-6.1-.1-15.3,1.5-18.8,3.5-18.7,6-27.9,6.4s-15.5-1.4-22.2-3.2a78.5,78.5,0,0,1-17.4-6.3c-10-5.2-10.8-8.5-17.9-10-2.2-.5-6.6-.2-15.3.5s-12.7,1-17.4,1.6c-12.8,1.6-15,3.1-23.7,3.1-3.6,0-2.8-.2-10.1-.5-11.1-.4-16.7-.7-21.6,0s-4.9,1.4-14.7,3.2c-6.5,1.2-9.3,1.3-12.3,1s-4.7-1.3-9.8-2.8a108.6,108.6,0,0,0-13.4-3c0-10.8-.1-24.3-.2-39.9a52.2,52.2,0,0,1,5.8-2.2,15.6,15.6,0,0,1,3.2-.7c2-.2,2.9.2,5.5.4s2,0,4.1.1c4.8.2,6.1.9,11.7,1.3l4.5.2,12.3.8,17.9,1.7c7.1.6,10.9,1,15.9,1.3,12.8,1,19.1,1.5,23.2,1,10-1.1,17.3-2.4,17.3-2.4a23.2,23.2,0,0,1,6.5-.8c3.2.1,4.4.8,7.5.5s1.7-.5,4.6-1a57,57,0,0,1,6.1-.6,54.9,54.9,0,0,1,7,.6c3.8.3,6.9.6,10.4.7h5.9c3.1,0,7.3.6,24.6,8.4,6.2,2.8,9.3,4.4,14.7,5.7a40.7,40.7,0,0,0,7.4,1.4,44,44,0,0,0,11.1.1c1.7-.2,2.3-.4,7-1.6l14-3.4a84.4,84.4,0,0,1,12.8-1c7.4-.2,7.3.5,16.3.3,5.5,0,6.1-.3,11-.2a54,54,0,0,0,7.1-.1,33.3,33.3,0,0,0,8.3-2.3c2.7-1,7.1-2,15.8-4.2s7.1-1.3,16.9-3.6,12.9-2.9,16.7-4.4l12-4.6a35.9,35.9,0,0,1,6.1-1.8,44.4,44.4,0,0,1,5.9-.8c2.9-.2,5.1-.2,5.8-.2,5.6.1,8-.3,15.1-.3s12.3.1,23.4.6,15.2.7,19.8,1.1a132.6,132.6,0,0,0,16,1.1c4.2.1,4-.1,10.3-.3,11-.3,20.7.2,22.6.2,6.1.3,8.2.6,12.7.3s8.9-.8,9.6-.9c4.4-.7,6.1-1.2,10.6-1.6l5.7-.3c5.9-.2,10.3,0,11.4,0,9.6.3,15-.5,25.3-.5,4.2.1,10.6.6,23.4,1.7,23.5,2,26.2,2.5,39.1,3.4,9.2.6,15.5,1,24.4,1.1,11,.2,14-.3,28.4-.1h12.1c5.4-.1,6-.3,11.1-.5,8-.2,8.6.2,13.9,0a133.6,133.6,0,0,0,13.8-1.6c5.7-.8,5.3-.9,16.6-2.8l12.9-2,8.5-1.3,6.9-.8c5.5-.7,9.5-1.7,17.5-3.7L876,263c10.6-2.6,11.4-2.2,17-3.8s6-2.5,16.2-5.8c3.6-1.2,3.2-.9,13.5-4l1.3-.4,5.4,4a24.3,24.3,0,0,0,4.3,2.7c1.2.6,2.1.8,5.6,1.6,7.1,1.6,7.3,1.6,8.4,2,2.9.9,2.9,1.1,5.8,1.9a40.1,40.1,0,0,0,5.9,1.2,41.4,41.4,0,0,0,6.4.1c4.3,0,4.6-.2,7.1-.2a47.3,47.3,0,0,1,7.1.5c2.9.5,2.7,1,5.4,1.4a36.8,36.8,0,0,0,7.3.2h11.2l4.5.4c6.5.7,25.8,3.4,25.8,3.4C1039.8,269,1047.7,270,1057.6,270.5Z" transform="translate(-24.4 -19.9)" fill="url(#_10_lpi_10_)"/><path d="M74.2,124.6c-.2,22.8-.2,42-.3,56.1-.1,35.4-.1,67.4,0,95.5v7.4c.1,15.6.2,29.1.2,39.9,0,2.6.1,5,.1,7.3" transform="translate(-24.4 -19.9)" fill="none" stroke="#000" stroke-linecap="round" stroke-linejoin="round" stroke-width="1.13"/><path d="M1058.1,37c-.1,5.1-.3,12.9-.5,22.3-.2,21.1.1,33.5.3,51.3.1,12.2,0,24.8-.2,50-.2,30.2-.5,39.7-.3,63.1.1,12.9.2,13.7.2,24v1.4c.1,7.6.1,14.8,0,21.4-.1,13.6-.3,25-.5,33.6a6.1,6.1,0,0,1-.1,1.4" transform="translate(-24.4 -19.9)" fill="none" stroke="#000" stroke-linecap="round" stroke-linejoin="round" stroke-width="1.13"/><path d="M73.9,283.6a52.2,52.2,0,0,1,5.8-2.2,15.6,15.6,0,0,1,3.2-.7c2-.2,2.9.2,5.5.4s2,0,4.1.1c4.8.2,6.1.9,11.7,1.3l4.5.2,12.3.8,17.9,1.7c7.1.6,10.9,1,15.9,1.3,12.8,1,19.1,1.5,23.2,1,10-1.1,17.3-2.4,17.3-2.4a23.2,23.2,0,0,1,6.5-.8c3.2.1,4.4.8,7.5.5s1.7-.5,4.6-1a57,57,0,0,1,6.1-.6,54.9,54.9,0,0,1,7,.6c3.8.3,6.9.6,10.4.7h5.9c3.1,0,7.3.6,24.6,8.4,6.2,2.8,9.3,4.4,14.7,5.7a40.7,40.7,0,0,0,7.4,1.4,44,44,0,0,0,11.1.1c1.7-.2,2.3-.4,7-1.6l14-3.4a84.4,84.4,0,0,1,12.8-1c7.4-.2,7.3.5,16.3.3,5.5,0,6.1-.3,11-.2a54,54,0,0,0,7.1-.1,33.3,33.3,0,0,0,8.3-2.3c2.7-1,7.1-2,15.8-4.2s7.1-1.3,16.9-3.6,12.9-2.9,16.7-4.4l12-4.6a35.9,35.9,0,0,1,6.1-1.8,44.4,44.4,0,0,1,5.9-.8c2.9-.2,5.1-.2,5.8-.2,5.6.1,8-.3,15.1-.3s12.3.1,23.4.6,15.2.7,19.8,1.1a132.6,132.6,0,0,0,16,1.1c4.2.1,4-.1,10.3-.3,11-.3,20.7.2,22.6.2,6.1.3,8.2.6,12.7.3s8.9-.8,9.6-.9c4.4-.7,6.1-1.2,10.6-1.6l5.7-.3c5.9-.2,10.3,0,11.4,0,9.6.3,15-.5,25.3-.5,4.2.1,10.6.6,23.4,1.7,23.5,2,26.2,2.5,39.1,3.4,9.2.6,15.5,1,24.4,1.1,11,.2,14-.3,28.4-.1h12.1c5.4-.1,6-.3,11.1-.5,8-.2,8.6.2,13.9,0a133.6,133.6,0,0,0,13.8-1.6c5.7-.8,5.3-.9,16.6-2.8l12.9-2,8.5-1.3,6.9-.8c5.5-.7,9.5-1.7,17.5-3.7L876,263c10.6-2.6,11.4-2.2,17-3.8s6-2.5,16.2-5.8c3.6-1.2,3.2-.9,13.5-4l1.3-.4c10.9-3.2,10.6-3.3,14.2-4.2a173,173,0,0,1,17.1-3.1c6.7-1,10-1.5,13.9-1.5,1.5,0,5.4.3,13.1,1,3.9.3,7.9.5,11.7.9a33.3,33.3,0,0,0,5.7.3c3.4-.1,4.1-.7,6.9-.9s3.3.1,9.7,1.1l8.4,1.1c6.4.9,18,2.7,32.9,5.4h0" transform="translate(-24.4 -19.9)" fill="none" stroke="#000" stroke-linecap="round" stroke-linejoin="round" stroke-width="1.13"/><path d="M924,249l5.4,4a24.3,24.3,0,0,0,4.3,2.7c1.2.6,2.1.8,5.6,1.6,7.1,1.6,7.3,1.6,8.4,2,2.9.9,2.9,1.1,5.8,1.9a40.1,40.1,0,0,0,5.9,1.2,41.4,41.4,0,0,0,6.4.1c4.3,0,4.6-.2,7.1-.2a47.3,47.3,0,0,1,7.1.5c2.9.5,2.7,1,5.4,1.4a36.8,36.8,0,0,0,7.3.2h11.2l4.5.4c6.5.7,25.8,3.4,25.8,3.4,5.6.8,13.5,1.8,23.4,2.3h0" transform="translate(-24.4 -19.9)" fill="none" stroke="#000" stroke-linecap="round" stroke-linejoin="round" stroke-width="0.85"/><path d="M443.4,151.2c3.1.7,5.7,1.1,7.7,1.4a97.1,97.1,0,0,0,13.3,1.4h5.9c6.9,0,7.1.3,10.6.1l6.6-.4h2.2c1.8,0,5.6-.1,9.3.2a54.6,54.6,0,0,1,10,1.7" transform="translate(-24.4 -19.9)" fill="none" stroke="#000" stroke-miterlimit="10" stroke-width="0.85"/><path d="M430.3,160.7c2.5.4,7.7,1.2,13.1,1.6,1.2.1,3.4.3,6.2.3h4.3c3.7,0,5.3.3,8.6.5,1.6.2,5.1.2,12.2.2h8.6a80,80,0,0,0,8.2-.2l5.5-.5,5-.2a13.6,13.6,0,0,1,3,.4,9.4,9.4,0,0,1,2.6,1" transform="translate(-24.4 -19.9)" fill="none" stroke="#000" stroke-linecap="round" stroke-linejoin="round" stroke-width="0.85"/><path d="M320.1,162a48.1,48.1,0,0,0,11.2,5.6,40.7,40.7,0,0,0,5.8,1.7c3.2.8,5.2.9,11.1,1.5,10.6,1,10.1,1.1,13.3,1.3l9.6.3,12.1.2c4.8.2,5.3.3,8.2.3,5.9,0,8.2-.2,9.4-.3l3.7-.5,4.4-.4h2.9c3.5.2,6.3.6,8,.8l7.5.5c4.6.2,7.3,0,15.2-.4s11.5-.5,14.6-.5c.9-.1,5.8,0,15.5.1l8.4.2,9,.7,7.9.3a44.9,44.9,0,0,0,9.1-1.3" transform="translate(-24.4 -19.9)" fill="none" stroke="#000" stroke-linecap="round" stroke-linejoin="round" stroke-width="0.85"/><path d="M257.3,288.4c4.6,1.1,8.6,1.8,11.5,2.3,5,.7,7.6.8,8.3.9,2.3.1,3.2-.1,8-.2,10.3-.3,10.9-.5,14.8-.4l7.9.3h4.5l8.7.5a64.1,64.1,0,0,1,7.2.5,34.3,34.3,0,0,1,6.7,1.8" transform="translate(-24.4 -19.9)" fill="none" stroke="#000" stroke-miterlimit="10" stroke-width="0.85"/><path d="M73.9,262h8.7c3.4.2,5.4.5,7.7.7a85.4,85.4,0,0,0,9.7.6c4.2.1,5.2-.1,9.2.1l5.2.4c3.5.3,5.4.3,9.5.4,8.7.2,10.3.5,17.7.6h5.7l7.2-.2c7.7-.2,7,.1,11.5-.2s6.3-.7,11.1-.7l5.8.2c2.9.2,3.9.4,8.6.9l5.2.4c5.1.6,5.6.9,8.4.9H213c2.5.1,4,.4,5.9.6,0,0,4,.4,8.5.5,2.5,0,3.7-.1,7.4-.3,8.5-.4,8.1-.1,14.4-.4s6.9-.7,11.2-.7l8.2.2,6,.3c2.2.1,3.9.1,11.8,0l14.4-.3c5.7-.2,5.3-.4,9.5-.5a175.2,175.2,0,0,1,20.2.2c4,.3,7.3.8,13.4,1h4.7c5.8.1,8.3.3,13.9.6,7.9.4,11.9.5,16.2.5a90.5,90.5,0,0,1,9.2,0l5.7.2c3.3.2,6.1.3,9.7.8l3.4.4c5.7.7,6.9.3,11,.8s2.3.6,7.8,1.6a39.3,39.3,0,0,1,7.2,1.5,19.6,19.6,0,0,1,4.8,2.3" transform="translate(-24.4 -19.9)" fill="none" stroke="#000" stroke-linecap="round" stroke-linejoin="round" stroke-width="0.85"/><path d="M73.9,272c3.8-.3,7-.4,9.5-.5s5.2,0,6.7.4l3.9,1.3,3.2.9c2.2.6,5.4.9,15.3,1H121l6.1-.4c5.8-.3,10.3-.3,11.9-.3s7.4.1,12.3.6l6.4.5a27.3,27.3,0,0,0,3.8.1,37.1,37.1,0,0,0,5-.6l2.1-.3c1.6-.2,2.6-.1,4.2-.2h6.7c2.3,0,4.1.2,4.6.2a103.8,103.8,0,0,0,11,.1c3.6-.2,3.8-.4,7.4-.5h16.2c2.4.1,4.5.3,8.2.7l7.1.6,6.1.4,5.5.3c3.8.1,6.8,0,9.4,0s6.7-.1,12.7-.4,9.4-.5,11.2-.9a32.9,32.9,0,0,1,6.5-1.1c2.2-.1,4,0,5.2,0,3.3.2,3.4.5,6.2.6l5.9-.2,4.8-.2,12.3-.3a26.4,26.4,0,0,1,3.9.2c1.8.3,2.6.6,5.8,1.4l2.9.7c1.7.3,5.2,1.1,9.4,1.7a79.3,79.3,0,0,0,10.8,1.2c3.4.1,6-.1,6.6-.1l8.1-1.2,8.6-1.3,6.4-1.2,8.8-.8c2.6-.2,5.2-.4,8.8-.9a16.4,16.4,0,0,0,3.3-.6,17.4,17.4,0,0,0,5.8-2.8" transform="translate(-24.4 -19.9)" fill="none" stroke="#000" stroke-linecap="round" stroke-linejoin="round" stroke-width="0.85"/><path d="M256.2,288a105.7,105.7,0,0,1,11.5-1.6l5.3-.4c2.5,0,3.8-.1,5.7,0h3.6l2.3-.2a20.9,20.9,0,0,0,4.3-1.1l7.3-2,3.1-.9,4.3-1.1a34.1,34.1,0,0,0,6.8-2.3,26.9,26.9,0,0,0,7.8-5" transform="translate(-24.4 -19.9)" fill="none" stroke="#000" stroke-linecap="round" stroke-linejoin="round" stroke-width="0.85"/><path d="M310.3,170.8a23.9,23.9,0,0,0,6,2.7c1.3.4,1.9.5,8.8,1.8l2.9.6c4.1.7,5.7.6,8.5,1s3.4,1,7.3,1.6c.7.2,2.5.4,9.3.6h8.7l10.5.4,8,.3,14.1.6c5,.2,6.9.1,8.3.1,3.1-.1,4.1-.3,6.9-.5s6.7,0,9.8.1c5.8.2,5-.1,15.5-.1,12.3.1,16.3.5,22,.2a52.7,52.7,0,0,1,5.5-.2l6.3.2c6.1.4,11.9.3,17.6.2l10.4-.3,10.2-.6" transform="translate(-24.4 -19.9)" fill="none" stroke="#000" stroke-linecap="round" stroke-linejoin="round" stroke-width="0.85"/><path d="M277.1,183.9a47.3,47.3,0,0,0,12,2.5,61,61,0,0,0,6.6.3c3.5-.1,4.3-.4,8.4-.6s2.6,0,10-.2l8.6-.2c4,0,6.3,0,9.5.2s3.4.5,8.2.9,4.3.1,9.7.6c3,.2,4.1.4,6.9.5l5,.2a69.9,69.9,0,0,1,7.4.9c3.3.5,9,.8,20.2,1.4l9.7.3c5.2.1,9.9-.1,12.7-.2l8.8-.5c3.9,0,5.5.2,8.9.3s8.4-.1,18.7-.5l10.6-.4c4.3-.2,5.5-.4,8.1-.3l8,.5,7.1.5c3.7.3,6.4.7,9.4,1.2a58.3,58.3,0,0,1,8.5,1.6,45.6,45.6,0,0,1,5.4,2.3" transform="translate(-24.4 -19.9)" fill="none" stroke="#000" stroke-linecap="round" stroke-linejoin="round" stroke-width="0.85"/><path d="M301.7,176.4l6.1,1.9,3.9.9c2.4.6,6.6,2.2,14,6.5" transform="translate(-24.4 -19.9)" fill="none" stroke="#000" stroke-linecap="round" stroke-linejoin="round" stroke-width="0.85"/><path d="M250.8,195.2a4.1,4.1,0,0,0,.9,1.2,4.9,4.9,0,0,0,2,1.2,10,10,0,0,0,3.6.7,28.8,28.8,0,0,0,4-.1h3.9l12-.2h5.9l5,.3c2.6.2,3.4.5,5.7.8a64,64,0,0,0,7.2.5h9.2c6.7-.1,6.5-.3,10.4-.3l12.1.2h10.9a36.4,36.4,0,0,1,4.5-.1c3.4.2,4.1.9,8.1,1.4a59.6,59.6,0,0,0,6.8.5h14.7c4.3.2,3.8.4,7.7.6a76,76,0,0,0,8.8-.3c3.2-.1,4.1-.3,7.1-.6,9.9-.8,10.8,0,18-.9,2.8-.4,4-.7,7-.9h7.8l8.5.2,9.3.5c2.6.3,2.9.5,6.1.8l6.2.6a57,57,0,0,1,8,1.4c5.2,1.1,6.4,1.6,12,2.9s9,2.1,11.4,2.2a31.2,31.2,0,0,0,10.1-1.5" transform="translate(-24.4 -19.9)" fill="none" stroke="#000" stroke-linecap="round" stroke-linejoin="round" stroke-width="0.85"/><path d="M506.2,218.9a36,36,0,0,0-6.2.1h-2.3l-2.3-.2-3.1-.4a37.2,37.2,0,0,1-3.7-1,19.3,19.3,0,0,0-3.8-.1H472.7a39.6,39.6,0,0,1-6.1-.2l-2.5-.5-2-.6c-1.5-.5-2.9-.5-5.8-.5s-3,0-6,.1h-2.4c-2.9,0-4.3.1-5.7,0a24,24,0,0,1-4.6-.6c-4.4-.7-7.8-1.7-8.4-1.8-7.1-1.9-14.6-2.4-21.4-2.8-2.2-.2-4.9-.3-9-.8s-3.8-.6-6.2-.8a61.3,61.3,0,0,0-11.3-.1c-5.9.3-6.9.9-12.1.8l-4.7-.2-9.7-.4-13.2-.7c-6.3-.3-9.9-.5-15-.3s-5,.3-9.7.4-5.9-.2-13.6-.5c-9.5-.3-9.2.1-16.7-.4s-6.8-.6-10.9-.5-4.4.2-10.7.4c-4.1.1-6.2.2-8.4.1a90.4,90.4,0,0,1-9.2-1.3L235,203.9" transform="translate(-24.4 -19.9)" fill="none" stroke="#000" stroke-linecap="round" stroke-linejoin="round" stroke-width="0.85"/><path d="M144.3,223.1a130.2,130.2,0,0,0,13.4,1.1,121.8,121.8,0,0,0,17.5-.8l6.5-.8c4-.4,6.3-.5,12-.7l12-.6c9.3-.4,11.4-.3,13.2-.1s7.3,1,7.3,1c3.1.5,3.5.7,5.7.9s3.6.2,6.5.5a51.4,51.4,0,0,1,5.3,1c4.1.9,5.1,1.7,8.1,2.3s5.4.6,11.1.8h21c15.3-.2,20.8-1,35.4-1.1l21.3.2,19.9.2c5.8.1,9.3.3,15.2.2s5.6-.3,9.3-.2,4.9.3,7.5-.3a39.1,39.1,0,0,1,3.9-.9,30.8,30.8,0,0,1,4.6-.3c4.1,0,6.1,0,11.5.2l10,.2,10.6.2c8.4.2,10.3.6,19.3,1.1s5.2,0,19.3.4c6.3.2,12.5.5,19.5.4h15.1" transform="translate(-24.4 -19.9)" fill="none" stroke="#000" stroke-linecap="round" stroke-linejoin="round" stroke-width="0.85"/><path d="M211.1,210a36,36,0,0,0,8.4,2.7c1.8.3,3.1.4,7.3.7l10,.6c2.1.1,7.1.3,18,.4h17.8l16.3-.5h5.5c1.8,0,4,0,6.9.2s3.6.2,5.7.5,3.3.8,8.4,2.2,5.2,1.2,9.3,2.4l4.7,1.6a23.8,23.8,0,0,1,5.2,2.2,21.6,21.6,0,0,1,4.8,3.8" transform="translate(-24.4 -19.9)" fill="none" stroke="#000" stroke-linecap="round" stroke-linejoin="round" stroke-width="0.85"/><path d="M360.5,236.4h2c1.8-.1,7.2-.3,14.5-.2l5,.2c11.7.4,14.5.4,16.9.3s4.4-.2,6.2-.3c6.3-.4,7.4-.8,11.8-1.1a120.8,120.8,0,0,1,13.6-.2c2.3,0,5.6.1,10,.4l7.6.5a71.3,71.3,0,0,0,8.4.6c1.9,0,2.4-.2,5.9-.4l8.5-.4,15.3-.7a78.5,78.5,0,0,1,9.6.1,31.2,31.2,0,0,1,5.7.8,32.5,32.5,0,0,1,4.5,1.3" transform="translate(-24.4 -19.9)" fill="none" stroke="#000" stroke-linecap="round" stroke-linejoin="round" stroke-width="0.85"/><path d="M294.1,236.5h1.4" transform="translate(-24.4 -19.9)" fill="none" stroke="#000" stroke-linecap="round" stroke-linejoin="round" stroke-width="0.85"/><path d="M298.2,236.6c19.5.2,43.7.4,59.5-.1" transform="translate(-24.4 -19.9)" fill="none" stroke="#000" stroke-linecap="round" stroke-linejoin="round" stroke-width="0.85" stroke-dasharray="2.77 2.77"/><path d="M359.1,236.5h1.4" transform="translate(-24.4 -19.9)" fill="none" stroke="#000" stroke-linecap="round" stroke-linejoin="round" stroke-width="0.85"/><path d="M73.9,239.5a25.9,25.9,0,0,1,4.9-1.8,36,36,0,0,1,10-1.1h38.1l14.7-.4c10.6-.1,10.8.2,17.7-.1s4.6-.4,13.7-.9c5.8-.3,13.9-.9,19.9-.4l4.7.5c3.3.5,4,.8,6.1.8a24.1,24.1,0,0,0,3.9-.4l3.2-.4c3.5-.5,7-.2,11.5-.2s1.7-.1,8.8-.3a123.6,123.6,0,0,1,12.8.1l5.8.6a26.1,26.1,0,0,0,4.2.4l3.1-.2,4.7-.3a97.9,97.9,0,0,1,11.1-.3c4.8.2,5.3.6,11.1,1.2,3.7.3,6.6.4,10.2.4" transform="translate(-24.4 -19.9)" fill="none" stroke="#000" stroke-linecap="round" stroke-linejoin="round" stroke-width="0.85"/><path d="M360.5,249.9l-1.4-.3" transform="translate(-24.4 -19.9)" fill="none" stroke="#000" stroke-linecap="round" stroke-linejoin="round" stroke-width="0.85"/><path d="M356.2,248.9a151.2,151.2,0,0,1-26.3-10.8" transform="translate(-24.4 -19.9)" fill="none" stroke="#000" stroke-linecap="round" stroke-linejoin="round" stroke-width="0.85" stroke-dasharray="3 3"/><path d="M328.5,237.4l-1.2-.6" transform="translate(-24.4 -19.9)" fill="none" stroke="#000" stroke-linecap="round" stroke-linejoin="round" stroke-width="0.85"/><path d="M504.8,251.4a22.8,22.8,0,0,0-3.1-1,26.4,26.4,0,0,0-5.5-.7h-8.7c-3-.2-5.6-.2-10.1-.2s-9.1.2-13.1.3l-19.2.6c-13.6.4-20.6.6-29.6.6h-12c-5-.2-7-.4-11.2-.3l-6.3.2H375a104.6,104.6,0,0,1-11.8-.6,14.7,14.7,0,0,1-2.7-.4" transform="translate(-24.4 -19.9)" fill="none" stroke="#000" stroke-linecap="round" stroke-linejoin="round" stroke-width="0.85"/><path d="M73.9,249.3a103.1,103.1,0,0,0,10.6-.3c7.1-.5,9.2-1.1,16-1.3,3.3-.1,2.3.1,9,.1,8.7-.1,9-.4,13-.1s4.7.5,8.5.6h5.8a91.2,91.2,0,0,1,14.3.7c4.3.5,3.6.8,7.7,1.3s5.9.2,13.7.5,9,.6,15.5.6c2.6,0,4.5-.1,6.8-.3l6.3-.9,6.1-.6,14.5-1.2c5.4-.3,9.2-.2,15.2-.1a126.7,126.7,0,0,1,12.8.5c5,.4,4.6.7,9.2,1s4.9.2,14.9.5l8.5.4,8,.3,6.3.2a66,66,0,0,1,15.1,2.9l7.4,2.3a37.1,37.1,0,0,0,6.1,1.7,46.2,46.2,0,0,0,5.7.6h5c4.1.1,4,.4,6.6.4s3-.3,7.2-.6l5.8-.3c8.7-.2,6.8-.3,13.9-.4,10.5-.3,15.7-.4,17.9-.2,5.1.4,6.4,1,12.1,1.3,2.8.1,4.3,0,8.8.3s3.9.3,6.3.3a49,49,0,0,0,7.6-.1c3.4-.2,3.4-.5,7.3-.9a52.5,52.5,0,0,1,7.4-.3c1.2.1,1.9.1,6.6.8,8.3,1.1,9.7,1.4,12.4,1.5h5.6l8.8-.4c5.6-.3,8.4-.4,9.4-.6a35.5,35.5,0,0,1,8-.4l3.3.6,4.3,1.1c3.1.9,3.6.7,6.6,1.4a40,40,0,0,1,5.7,1.7" transform="translate(-24.4 -19.9)" fill="none" stroke="#000" stroke-linecap="round" stroke-linejoin="round" stroke-width="0.85"/></g><g id="texts"><text transform="translate(358.9 104.7)" font-size="19.84" font-family="SimSun">表　　土</text><text transform="translate(0 126.4)" font-size="19.84" font-family="SimSun">北</text><text transform="translate(1051.9 17.1)" font-size="19.84" font-family="SimSun">南</text><text transform="translate(967 240.5)" font-size="17.01" font-family="SimSun">灰土</text><rect x="210.7" y="215.9" width="62" height="25.58" rx="9.4" fill="#fff"/><text transform="translate(211.9 235.8)" font-size="19.84" font-family="SimSun">夯　土</text><rect x="695.7" y="184.5" width="62" height="25.58" rx="9.4" fill="#fff"/><text transform="translate(696.9 204.4)" font-size="19.84" font-family="SimSun">夯　土</text></g></svg>