<svg xmlns="http://www.w3.org/2000/svg" xmlns:xlink="http://www.w3.org/1999/xlink" viewBox="0 0 2027.9 399.7"><defs><pattern id="_10_lpi_10_" data-name="10 lpi 10%" width="72" height="72" patternTransform="translate(-16.7 62) rotate(-45)" patternUnits="userSpaceOnUse" viewBox="0 0 72 72"><rect width="72" height="72" fill="none"/><line x1="71.8" y1="68.4" x2="144.3" y2="68.4" fill="none" stroke="#1d1d1b" stroke-width="0.28"/><line x1="71.8" y1="54" x2="144.3" y2="54" fill="none" stroke="#1d1d1b" stroke-width="0.28"/><line x1="71.8" y1="39.6" x2="144.3" y2="39.6" fill="none" stroke="#1d1d1b" stroke-width="0.28"/><line x1="71.8" y1="25.2" x2="144.3" y2="25.2" fill="none" stroke="#1d1d1b" stroke-width="0.28"/><line x1="71.8" y1="10.8" x2="144.3" y2="10.8" fill="none" stroke="#1d1d1b" stroke-width="0.28"/><line x1="71.8" y1="61.2" x2="144.3" y2="61.2" fill="none" stroke="#1d1d1b" stroke-width="0.28"/><line x1="71.8" y1="46.8" x2="144.3" y2="46.8" fill="none" stroke="#1d1d1b" stroke-width="0.28"/><line x1="71.8" y1="32.4" x2="144.3" y2="32.4" fill="none" stroke="#1d1d1b" stroke-width="0.28"/><line x1="71.8" y1="18" x2="144.3" y2="18" fill="none" stroke="#1d1d1b" stroke-width="0.28"/><line x1="71.8" y1="3.6" x2="144.3" y2="3.6" fill="none" stroke="#1d1d1b" stroke-width="0.28"/><line x1="71.8" y1="72" x2="144.3" y2="72" fill="none" stroke="#1d1d1b" stroke-width="0.28"/><line x1="71.8" y1="57.6" x2="144.3" y2="57.6" fill="none" stroke="#1d1d1b" stroke-width="0.28"/><line x1="71.8" y1="43.2" x2="144.3" y2="43.2" fill="none" stroke="#1d1d1b" stroke-width="0.28"/><line x1="71.8" y1="28.8" x2="144.3" y2="28.8" fill="none" stroke="#1d1d1b" stroke-width="0.28"/><line x1="71.8" y1="14.4" x2="144.3" y2="14.4" fill="none" stroke="#1d1d1b" stroke-width="0.28"/><line x1="71.8" y1="64.8" x2="144.3" y2="64.8" fill="none" stroke="#1d1d1b" stroke-width="0.28"/><line x1="71.8" y1="50.4" x2="144.3" y2="50.4" fill="none" stroke="#1d1d1b" stroke-width="0.28"/><line x1="71.8" y1="36" x2="144.3" y2="36" fill="none" stroke="#1d1d1b" stroke-width="0.28"/><line x1="71.8" y1="21.6" x2="144.3" y2="21.6" fill="none" stroke="#1d1d1b" stroke-width="0.28"/><line x1="71.8" y1="7.2" x2="144.3" y2="7.2" fill="none" stroke="#1d1d1b" stroke-width="0.28"/><line x1="-0.3" y1="68.4" x2="72.3" y2="68.4" fill="none" stroke="#1d1d1b" stroke-width="0.28"/><line x1="-0.3" y1="54" x2="72.3" y2="54" fill="none" stroke="#1d1d1b" stroke-width="0.28"/><line x1="-0.3" y1="39.6" x2="72.3" y2="39.6" fill="none" stroke="#1d1d1b" stroke-width="0.28"/><line x1="-0.3" y1="25.2" x2="72.3" y2="25.2" fill="none" stroke="#1d1d1b" stroke-width="0.28"/><line x1="-0.3" y1="10.8" x2="72.3" y2="10.8" fill="none" stroke="#1d1d1b" stroke-width="0.28"/><line x1="-0.3" y1="61.2" x2="72.3" y2="61.2" fill="none" stroke="#1d1d1b" stroke-width="0.28"/><line x1="-0.3" y1="46.8" x2="72.3" y2="46.8" fill="none" stroke="#1d1d1b" stroke-width="0.28"/><line x1="-0.3" y1="32.4" x2="72.3" y2="32.4" fill="none" stroke="#1d1d1b" stroke-width="0.28"/><line x1="-0.3" y1="18" x2="72.3" y2="18" fill="none" stroke="#1d1d1b" stroke-width="0.28"/><line x1="-0.3" y1="3.6" x2="72.3" y2="3.6" fill="none" stroke="#1d1d1b" stroke-width="0.28"/><line x1="-0.3" y1="72" x2="72.3" y2="72" fill="none" stroke="#1d1d1b" stroke-width="0.28"/><line x1="-0.3" y1="57.6" x2="72.3" y2="57.6" fill="none" stroke="#1d1d1b" stroke-width="0.28"/><line x1="-0.3" y1="43.2" x2="72.3" y2="43.2" fill="none" stroke="#1d1d1b" stroke-width="0.28"/><line x1="-0.3" y1="28.8" x2="72.3" y2="28.8" fill="none" stroke="#1d1d1b" stroke-width="0.28"/><line x1="-0.3" y1="14.4" x2="72.3" y2="14.4" fill="none" stroke="#1d1d1b" stroke-width="0.28"/><line x1="-0.3" y1="64.8" x2="72.3" y2="64.8" fill="none" stroke="#1d1d1b" stroke-width="0.28"/><line x1="-0.3" y1="50.4" x2="72.3" y2="50.4" fill="none" stroke="#1d1d1b" stroke-width="0.28"/><line x1="-0.3" y1="36" x2="72.3" y2="36" fill="none" stroke="#1d1d1b" stroke-width="0.28"/><line x1="-0.3" y1="21.6" x2="72.3" y2="21.6" fill="none" stroke="#1d1d1b" stroke-width="0.28"/><line x1="-0.3" y1="7.2" x2="72.3" y2="7.2" fill="none" stroke="#1d1d1b" stroke-width="0.28"/><line x1="-72.3" y1="68.4" x2="0.3" y2="68.4" fill="none" stroke="#1d1d1b" stroke-width="0.28"/><line x1="-72.3" y1="54" x2="0.3" y2="54" fill="none" stroke="#1d1d1b" stroke-width="0.28"/><line x1="-72.3" y1="39.6" x2="0.3" y2="39.6" fill="none" stroke="#1d1d1b" stroke-width="0.28"/><line x1="-72.3" y1="25.2" x2="0.3" y2="25.2" fill="none" stroke="#1d1d1b" stroke-width="0.28"/><line x1="-72.3" y1="10.8" x2="0.3" y2="10.8" fill="none" stroke="#1d1d1b" stroke-width="0.28"/><line x1="-72.3" y1="61.2" x2="0.3" y2="61.2" fill="none" stroke="#1d1d1b" stroke-width="0.28"/><line x1="-72.3" y1="46.8" x2="0.3" y2="46.8" fill="none" stroke="#1d1d1b" stroke-width="0.28"/><line x1="-72.3" y1="32.4" x2="0.3" y2="32.4" fill="none" stroke="#1d1d1b" stroke-width="0.28"/><line x1="-72.3" y1="18" x2="0.3" y2="18" fill="none" stroke="#1d1d1b" stroke-width="0.28"/><line x1="-72.3" y1="3.6" x2="0.3" y2="3.6" fill="none" stroke="#1d1d1b" stroke-width="0.28"/><line x1="-72.3" y1="72" x2="0.3" y2="72" fill="none" stroke="#1d1d1b" stroke-width="0.28"/><line x1="-72.3" y1="57.6" x2="0.3" y2="57.6" fill="none" stroke="#1d1d1b" stroke-width="0.28"/><line x1="-72.3" y1="43.2" x2="0.3" y2="43.2" fill="none" stroke="#1d1d1b" stroke-width="0.28"/><line x1="-72.3" y1="28.8" x2="0.3" y2="28.8" fill="none" stroke="#1d1d1b" stroke-width="0.28"/><line x1="-72.3" y1="14.4" x2="0.3" y2="14.4" fill="none" stroke="#1d1d1b" stroke-width="0.28"/><line x1="-72.3" y1="64.8" x2="0.3" y2="64.8" fill="none" stroke="#1d1d1b" stroke-width="0.28"/><line x1="-72.3" y1="50.4" x2="0.3" y2="50.4" fill="none" stroke="#1d1d1b" stroke-width="0.28"/><line x1="-72.3" y1="36" x2="0.3" y2="36" fill="none" stroke="#1d1d1b" stroke-width="0.28"/><line x1="-72.3" y1="21.6" x2="0.3" y2="21.6" fill="none" stroke="#1d1d1b" stroke-width="0.28"/><line x1="-72.3" y1="7.2" x2="0.3" y2="7.2" fill="none" stroke="#1d1d1b" stroke-width="0.28"/><line x1="71.8" x2="144.3" fill="none" stroke="#1d1d1b" stroke-width="0.28"/><line x1="-0.3" x2="72.3" fill="none" stroke="#1d1d1b" stroke-width="0.28"/><line x1="-72.3" x2="0.3" fill="none" stroke="#1d1d1b" stroke-width="0.28"/></pattern></defs><g id="scale-1:20"><path d="M1869.2,465.5v9.9H1727.5v-9.9" transform="translate(-85.3 -88.1)" fill="none" stroke="#000" stroke-miterlimit="10" stroke-width="0.57"/><line x1="1670.6" y1="377.3" x2="1670.6" y2="387.3" fill="none" stroke="#000" stroke-miterlimit="10" stroke-width="0.57"/><line x1="1698.9" y1="377.3" x2="1698.9" y2="387.3" fill="none" stroke="#000" stroke-miterlimit="10" stroke-width="0.57"/><line x1="1727.3" y1="377.3" x2="1727.3" y2="387.3" fill="none" stroke="#000" stroke-miterlimit="10" stroke-width="0.57"/><line x1="1755.6" y1="377.3" x2="1755.6" y2="387.3" fill="none" stroke="#000" stroke-miterlimit="10" stroke-width="0.57"/><text transform="translate(1638.6 372.8)" font-size="14.17" font-family="SimSun">0</text><text transform="translate(1773.6 372.8)" font-size="14.17" font-family="SimSun">100cm</text></g><g id="outline"><path d="M121.3,182.3l8-.6a82.7,82.7,0,0,1,8.3-.2l5.3.4a89.2,89.2,0,0,0,9.2,0c3.2-.3,4.2-.7,9.3-1.6s7.2-1.2,13.2-2.1c0,0,6.3-.9,13.4-1.6,22.7-2.4,45.8-3,45.8-3,8.5-.1,10.5,0,28.5-.3l13-.3c13.5-.3,18.7-.7,30.8-.8h8.6c12.4-.3,18-1.4,29.2-2.2,4.4-.3,8.9-.5,17.8-.7,20.4-.6,29.4-.2,55.3-.4,20.5-.1,17.1-.3,24.6-.2,22.4.3,36.5,2.1,47,3,21.1,1.8,29.1-.6,51.3-2.1,13.8-1,11.3,0,25.7-1.1,10.6-.7,16.5-1.6,27.7-1.6,6.2,0,5.5.2,12.5.2,11.8.1,18-.7,28-1.2,16-.8,13,.5,27.4-.3,9-.5,13.3-1.1,36.8-3.1l9.7-.7c7.2-.4,9.6-.3,14.3-.5s6.1-.5,20.2-2.1l17.3-1.8c14.4-1.5,16.2-1.4,23.5-2.2,21.1-2.2,40.6-6.5,51.2-8.8,4.4-.9,7-1.5,11.6-2.3a143.8,143.8,0,0,1,27.7-1.9,84.8,84.8,0,0,1,15.2,1.7,59.1,59.1,0,0,1,19.9,6.9c6.8,4,5,5.2,14.9,12,5.9,4.1,8.1,4.7,14.6,9.6,4,3.1,4,3.4,8.6,7s10.5,7.5,14.5,10.1c7.5,4.8,12.2,7.8,18.5,10.7,8.5,3.9,7.5,2,22.9,7.7,9.4,3.4,13.8,5.7,22.9,7.6a67.6,67.6,0,0,0,9.2,1.6,98.3,98.3,0,0,0,19.9.5c6.9-.3,16.9-.7,26.3-.6,5.8,0,4.7.2,27,1.1l18.1.6c14.9.9,22,2.1,41.3,2.3,6.4.1,17.2.1,32,1.3,9.5.8,10.5,1.3,20.2,2s16,.9,31.6,1.3c13.5.3,20.3.5,26.8.3l13-.3c9.1,0,12.1.1,15.4.5,5,.6,7.7.9,11.2,2.3s5.2,3.1,12.3,7a81.4,81.4,0,0,0,9.4,4.6c3.6,1.7,4.4,1.8,15.2,6.1,7.8,3,8.6,3.4,11,4,4.1,1.1,5.5,1.1,11.1,2,13.1,2.2,14.3,4,23.3,4.5,2.6.2,1.6,0,10,.2s11.8.6,13.9.8c3.8.5,3.8.8,8.3,1.4s7.2.8,12.1,1c9.5.6,13.7.6,23.1,1l13.4.7c9.8.6,13.2,1.1,23.5,1.7l11.9.7a333.7,333.7,0,0,1,33.8,3.6,256,256,0,0,1,32,6.5c5.6,1.6,12.8,3.9,23.1,4.7,2.5.2,5.1.2,10.5.2,7,.1,10.5,0,24.8-.4l15-.3c13.6-.2,13.7,0,19.5-.3,7.8-.4,8.7-.9,17.1-1.3,5-.2,7.4-.1,12.3-.2,8.5,0,13.6-.4,23.4-.9,25.8-1.2,23.1-.6,41.9-1.7l30.1-1.3a89.9,89.9,0,0,1,11.7-.1l7.4.4c3.8.1,6.5-.1,9.2-.2s10.8-.6,16.6-.7,6.8.3,15,.3c6.2,0,6.6-.2,18.1-.5,16-.4,13.6,0,23.3-.4,7-.3,10.3-.6,16.1-.2l9,.7,10.1.7c10.7.6,16.5.5,35.5,1l6.3.2c14.4.5,22.9,1.2,33.3,1.9,14.8.9,13.9.5,26.9,1.3,8.2.5,20.2,1.4,34.8,3" transform="translate(-85.3 -88.1)" fill="none" stroke="#000" stroke-linecap="round" stroke-linejoin="round" stroke-width="1.13"/><path d="M121.3,405.2l23.5-7.5c10.3-3.3,12.1-3.9,15.7-4.8a140.3,140.3,0,0,1,24.8-3.2,132.1,132.1,0,0,1,20.3.7c1.4.1,2.5.3,18.8,3.3l18.6,3.5c12.9,2.4,13.1,2.6,15.9,2.9,4.7.7,9.5,1.1,20.3,1.3,8.7.2,14,.1,24.9,0,0,0,15.4-.1,37.6.2,8.1.1,13.1.3,19.6,1.6,4.2.9,5.8,1.6,10.8,2.3,1.9.2,4.6.6,14.3,1.1l11.3.5c5.2.1,12.3.4,21.7.5s10.3-.1,23.8-.1c18.8-.1,24.1.8,32.6-.7,1.3-.3,4.6-.9,9.5-1.6s7.7-1.1,12.9-1.5,9.1-.2,14-.1c10.8.3,11.1,1,17.3.9s5-.7,18.5-2.1c8.8-.9,16.2-1.3,21.1-1.5l9.9-.5c14.1-.5,32.3-2.4,45.5-4.3,24.6-3.6,19.3-5.6,39.2-8,14-1.8,19.9-1.2,52.3-4l12.7-1.2c9.9-1.3,19.9-3.6,39.5-8.2l13-3.1,16.7-4.7a96.6,96.6,0,0,1,9.5-2.3,52.3,52.3,0,0,1,14.1,0c11,1.3,22.2,1.5,33.2,2.9,15.6,1.9,34.7,4.2,54.8,4.6,13.8.2,21.8-.1,21.8-.1,6-.2,9.1-.4,15.8-.4l13.6.2c1.8,0,8.2,0,16.4-.4s9.4-1,18.9-1.6,10-.2,16.3-.9a81,81,0,0,0,15.6-2.8c4.5-1.3,4.3-1.7,13.4-4.9,5.3-1.9,9.5-3.4,15.1-5a81.4,81.4,0,0,1,13.7-2.8,82.4,82.4,0,0,1,12.1.1c9.8.4,10.6,1,17.2.9l10-.5,10.5-.5c6.2-.3,10.9-.2,12.3-.2a113.3,113.3,0,0,1,14.5.6,142.7,142.7,0,0,1,15.3,2.4l7.8,1.8c9.9,2.3,17,4.4,18.5,4.9l11.2,3.5c16,5,19.7,5.1,27.9,8.7a84.6,84.6,0,0,1,11.2,5.9" transform="translate(-85.3 -88.1)" fill="none" stroke="#000" stroke-linecap="round" stroke-linejoin="round" stroke-width="1.13"/><path d="M1193.8,292.9c-12.4-1.9-22.8-3.3-30.6-4.3-13.1-1.6-19-2.2-24.2-2.6a209.2,209.2,0,0,0-23.4-.5c-1.7.1-7.8.5-15.8,1.8-14.7,2.4-25.3,6.2-38.1,10.8-11.1,4-15.4,6.2-17.3,7.2a101.4,101.4,0,0,0-16,10.5c-15.8,12.6-45.1,22.6-71.2,24.9-8.7.8-16.7.5-32.6-.1L890.4,339c-9-.4-15.7-.7-24.7.1-6.7.6-13.1,1.6-14.1,1.7-8.2,1.4-10.3,2.2-16.8,3.2-3.6.5-5.8.6-16.3,1.2l-26.7,1.3c-4.6.3-13.2.8-24,2-2.2.3-6.5.8-25.5,3.7-22.1,3.4-24.1,3.9-33.6,5-13.4,1.6-21,2-23.4,2.1-8.2.4-15.4.3-19.3.2-12.9-.3-15.5-1.2-23.8-.7-6.2.4-8.1,1.1-16,2.3-14,2.1-17.9,1.4-32.7,2.7s-10.8,2-33.1,4.7c-19.1,2.3-26.5,2.4-36.8,4.4-1.4.3-6.8,1.4-14.1,2.3l-8.6.9c-4.3.3-7.1.3-11.5.4-17.3.3-20,.9-21.8,1.4-3.6,1-2.7,1.3-9.7,4.1-9.2,3.8-16,6.6-24.3,6.8-4,.1-7.9-.8-15.7-2.5s-12.3-3.3-20.3-5.9c-3.9-1.3-5.9-1.9-8.4-2.9a104.3,104.3,0,0,1-13.6-6.8,116.2,116.2,0,0,0-32.8-12.3,113.3,113.3,0,0,0-12.7-1.6c-9.1-.5-14.3.4-23.8,1.4s-26.2,2.6-42.2.9c-6.1-.7-10.9-1.7-12.8-2.1a112.8,112.8,0,0,1-15.1-4.4c-15.1-5.4-33.9-11.6-45.3-15a235.4,235.4,0,0,0-24.8-6.4,201.8,201.8,0,0,0-44.8-4" transform="translate(-85.3 -88.1)" fill="none" stroke="#000" stroke-linecap="round" stroke-linejoin="round" stroke-width="1.13"/><path d="M121.3,311.2c10.4-.3,19.2-.3,25.9-.1,9.7.1,14.5.4,17.1.6a149.2,149.2,0,0,1,17.5,2.2c7.5,1.6,8.8,2.8,18.6,5.5h0s7.9,2.1,15.4,3.4,15.1,1.2,26.4,1.3c6,0,14.7.1,26-.5a132.7,132.7,0,0,1,14.1-.2,124.1,124.1,0,0,1,15.9,2.1c11.8,2,29.7,5.1,43.8,2.7l11.4-2.1,11.2-1.9s5.4-.8,11.3-1.2c11.8-.9,26.1,2.2,40.4,3.5s23.2.5,39.5-.4c12.1-.7,21.6-1.9,24.4-2.2,8.9-1.1,11.3-1.7,27.2-3.9,19.3-2.8,16.6-2,21.1-2.9,12.1-2.5,14.6-4.7,32.3-8.8,8.6-2.1,12.3-2.6,13.5-2.7,6.8-1,9.6-.7,20.7-1.2,3.9-.2,10.9-.5,18.6-1.2s14.7-1.4,21.7-3c11.6-2.6,12.7-4.9,28.6-9.1,6-1.7,10.7-2.6,14.4-3.4,9.2-1.9,16.2-3.3,25.1-4,5.9-.4,4.8.1,20.6-.3,9.5-.2,9.4-.4,17-.5,13.8-.3,15.9.2,23.7-.1a170.6,170.6,0,0,0,23-2.6c22.5-3.5,32.3-1.3,84.8-3.1,3.4-.1,10.4-.4,19.8-1.3s15.8-2,22.4-2.9c12.9-1.7,28.2-1.9,58.7-2.2l17.7-.3c6.7-.3,18.7-.8,31.4-2.5,16.3-2.2,16.1-4.1,34.7-7.3,5.3-.9,14.8-1.9,33.9-4,23-2.4,34.5-3.7,39.8-4,7.4-.6,15-1,25.9-2.7l14-2.5c8.7-1.5,17.1-3,26.9-4l1.6-.2c7.4-.7,11.3-1,16.9-.7s6.2.8,14.7,1.3c3.7.2,5.7.2,9.5.7a59.9,59.9,0,0,1,9.5,1.5,32.3,32.3,0,0,1,10.6,4.1,31.8,31.8,0,0,1,3.9,3.2" transform="translate(-85.3 -88.1)" fill="none" stroke="#000" stroke-linecap="round" stroke-linejoin="round" stroke-width="1.13"/><path d="M164.3,311.7a182.9,182.9,0,0,0,25.1,12.2c3.4,1.3,11.9,4,28.8,9.3,4.5,1.4,7.8,2.4,12.4,3.4s9.8,1.7,15.6,2.6l7.9,1c10.3,1.1,14.8.4,22.3.8,5.7.3,3.5.7,18.9,2.9,10.1,1.4,20.2,3.4,30.4,4.7a26.3,26.3,0,0,1,8,2.1,27.3,27.3,0,0,1,7.2,4.5,33.1,33.1,0,0,1,3.3,3.5" transform="translate(-85.3 -88.1)" fill="none" stroke="#000" stroke-linecap="round" stroke-linejoin="round" stroke-width="1.13"/><path d="M121.3,263.2a78.1,78.1,0,0,1,15.2-4.3c11.3-2.1,20.9-1.4,33-.4,9.1.7,9.6,1.2,16.6,1.4,5.1.1,7.6-.1,18.3-.1l8.9.2a118.4,118.4,0,0,1,19.3,1.8c3.4.6,2.4.6,8.8,2.1,3.3.7,9.5,2.1,17,3.3s13.1,2,19.4,2,5.7-.6,14.2-.8c6.1-.2,10.6,0,14,.1,12.9.4,14.4,1.3,21.7,1,4.6-.1,4-.5,15.4-1.8s18.3-2.2,27.5-2.3a137.6,137.6,0,0,1,17.6,1.1c7.3.8,6.6,1.3,11.4,1.8,9.4.8,17.1-.7,25.1-2.4,5.4-1.1,10.3-2.4,12.2-2.9,5.9-1.6,7.5-2.4,12-3.5a106.6,106.6,0,0,1,13.2-2.4c10.7-1.5,11.6-.8,23.6-2.3,5.3-.7,7-1.1,11.6-1.5a118.4,118.4,0,0,1,12.4-.3c15.1.1,6.5-.3,37.3,0l21.6.4,10.4.5c11.4.6,14.5,0,32.6-.1,20.7-.2,26,.4,34.2-.9,1.2-.2,4.6-.8,9.3-1.3s6.6-.4,13.4-.4c11.7-.1,17.5-.1,20.9.2s5.9.9,12.5,2c10.9,1.8,10.1,2,14.8,2.6a147.6,147.6,0,0,0,20.4,1c3-.1,5.8-.2,11.4-.6,9-.5,13.6-.8,17.1-1.5,1.3-.3,5.3-1.8,13.3-4.7s10.2-3.7,12.2-6.4a14.5,14.5,0,0,0,2.5-7" transform="translate(-85.3 -88.1)" fill="none" stroke="#000" stroke-linecap="round" stroke-linejoin="round" stroke-width="1.42"/><path d="M121.3,226.5a203.7,203.7,0,0,0,20.9.5l14-.6c3.8-.2,5.6-.3,8.7-.3H173c2.2-.1,4.8-.2,8-.6s4.4-.8,8.3-1.3,5-.4,8-.5c4.8-.1,5.8.1,10.7.1l16-.5,8-.3c14-.5,24.6,1.3,47,2.1l21.2.5,13.8.4c10.3.1,12.3-.7,29.2-1.8,8.9-.6,7.6-.3,27.3-1.4l16-.9c14.4-.6,23.3-1,34.7-.2s10.7,1.8,20.1,2c6,.2,11.8-.1,22.3-.6l12.4-.7c37.6-2.3,42.3-3.4,57.5-3.5a319.5,319.5,0,0,1,36.3,1.4c10.1,1,13.3,1.7,26.6,2.8s14,.6,24.1,1.7c5.6.6,7.2,1,25.1,3.5l11.2,1.5a453.8,453.8,0,0,0,55.7,3.5c10.9-.1,9.4-.5,20.1-.5,8.2,0,17.5.3,35.5,1.6,33.6,2.6,30.7,3.8,43.4,3.6s28.9-1.7,34.4-2.3,11.4-1.3,20.4-2,18.2-1.2,22.5-1.4c22.8-.9,48.3-.4,75.9.5,30.9,1,25.4,1.3,34.4,1.3,46.1.1,55.6-7.8,99.4-8.1,9.1,0,2.7.4,45,1.8,0,0,36.6,1.3,57.3,2.8l9.3.6a43.1,43.1,0,0,0,7.4.7l3.6-.2c4.2-.3,5.6-.7,8.5-.9a45.1,45.1,0,0,1,6.4,0c6.3.3,8.8-.1,23.9-.1,9.4,0,15.5.2,23,.3s11.7.4,15.7.9l10.6,1.5c4.9.7,6.5.9,9.1,1.1a63.9,63.9,0,0,0,9.4-.3" transform="translate(-85.3 -88.1)" fill="none" stroke="#000" stroke-linecap="round" stroke-linejoin="round" stroke-width="1.13"/><path d="M121.3,162.2a81.8,81.8,0,0,1,27.7.3,87.4,87.4,0,0,0,16,2.2,73.5,73.5,0,0,0,13.8-.9c10.4-1.6,25-2.6,54.3-4.6,11.5-.8,5.2.2,50.8-.2,36.9-.3,49.7-1,56.7-1.5,12-.7,13.3-1.1,28-1.9,12.9-.8,15.8-.7,41.9-1.7,37.5-1.4,39.1-1.8,50-1.5,13.1.3,15.4,1,25.8.7s17.3-1.6,29.8-1.3c5.5.1,7.7.5,17.3,1.3,13.5,1.2,24.9,2.2,36.9,2.7,19.1.7,35.2,0,43.8-.4l14.6-.8c16-.8,24.8-.6,37-.8,16.6-.2,12.8-.6,47.9-1.8,24.5-.8,25.7-.6,33.4-1.4,10.1-1,21.6-2.2,36.3-6.2s18.2-6.7,32.9-9.3c5.4-1,6.2-.8,15.5-2.4s13.2-2.6,24-4.4c7.9-1.4,12-2,15.3-2.1a73.4,73.4,0,0,1,20.3,2.2c8.7,2.2,14.5,5.2,33.4,16.5,10.7,6.3,16.1,9.5,23,13.8,25,15.5,27.7,18.1,41.2,25.6s19.8,11,30,14.3c7.6,2.3,14.6,3.4,28.7,5.4,20.6,3,36.1,4,40.3,4.2,14.4.8,25.6.6,33.4.5,12.6-.2,13.7-.6,21.1-.7,18.9,0,25.9,2.8,44.5,4.8s32.4,1.5,46.2,1c11.9-.4,22.5-1.2,47.9-2.1,11.9-.3,15.5-.3,20.7.6,6.7,1.1,10.7,2.8,32.7,12.9,19.3,8.9,21.2,9.9,26.5,11.5,2.6.7,7.9,2.2,25.2,4.7,15.5,2.3,27.5,3.4,31.2,3.8,26.4,2.5,49.4,3.8,63.1,4.5,20.4,1.1,21.9.8,32.5,1.8,5.5.5,19.4,2,37.7,5.2,12,2.2,13.1,2.9,23.1,4.7s26.2,4.9,43.2,5.3,15-1.8,55-4.1c13.6-.8,20-.8,24.7-.8s10.4.2,31.7,1.3c6.2.3,13.5,1.5,22.3,1.1l9-.5,11-1a188.2,188.2,0,0,1,24-.5c19.8.5,26.1-1.6,51.6-1.1,34.1.7,36.2,3.9,56.6,2.4,13.3-1,19.5-1.1,32-1.3,3.6,0,8.7,0,15.3.5s7.2,1.2,13.4,1.7c4.5.4,6.5.3,20.5.1l13.6-.2c7.2.2,8.1.8,24.5,2.6,9.4,1,9.8.9,14.8,1.6,7.4,1.1,8.2,1.6,13.8,2.1,3,.3,4,.3,13.3.8l8.8.5" transform="translate(-85.3 -88.1)" fill="none" stroke="#000" stroke-linecap="round" stroke-linejoin="round" stroke-width="1.98"/><path d="M938.1,172.3c-6.5.7-11.9,1-16,1.2a93.3,93.3,0,0,1-10.5.1c-5.6-.2-6.6-.7-13-1-3.4-.2-5.8-.2-10.5-.2s-7.6.2-13.8.3l-13.7.3c-15.2.2-33.5-.1-40.7-.2-20.2-.3-24.9-.6-34.7.2a170.4,170.4,0,0,0-18.7,2.3c-5.9,1.1-8.3,2-16.1,3.5s-11.2,2-15.2,2.6-20.2,2.9-43.6,4.1c-12.9.7-19.4,1.1-28.4.7-4.5-.1-7.3-.4-29.1-2.7-26.1-2.9-29.5-3.4-37.4-3.6a164.8,164.8,0,0,0-25.6.8c-8.5,1.1-16,2.9-21.3,4.1-7.7,1.8-8.4,2.4-15.8,4.2a181.9,181.9,0,0,1-25.6,4.9c-1.1.2-10.1.3-28.1.6a107.4,107.4,0,0,1-14.1-.3c-6.3-.5-7.2-1.2-14.3-2-3.9-.4-4-.2-16-.8-8.3-.4-12.5-.6-15.6-.9-6.2-.7-6.7-1.2-15.8-2.6-3.2-.4-9.5-1.3-17.1-2-2.3-.2-9.5-.8-19.3-.9-12.6-.1-23.4.9-44.3,2.8l-20.5,2.1c-10.9,1.3-19.4,2.5-28.4,3.7-17.7,2.6-15.8,2.6-24.3,3.6-11.3,1.4-19.6,2.4-30.8,2.4-8.1,0-13.2,0-20.4-1-5-.6-8.6-1.5-15.1-1.8-4.6-.2-6.7.1-11.8.3-10.6.3-13.3-.4-31.5-.3a54.2,54.2,0,0,0-13.7,1.5,46,46,0,0,0-6,1.8" transform="translate(-85.3 -88.1)" fill="none" stroke="#000" stroke-linecap="round" stroke-linejoin="round" stroke-width="1.13"/><path d="M1302.8,232.5c-6.7,3.4-11.8,6.4-15.3,8.6l-7.3,4.3c-2.1,1.2-6.5,3.8-10,5.5-5.1,2.6-6.7,2.6-15.1,5.6a177,177,0,0,0-20,8.5c-3.1,1.7-6,3.4-11.7,7-8,4.9-12.1,7.8-13.5,8.8-3.2,2.3-5.7,4.3-5.7,4.3-3.9,3-4.9,4-8.2,6.2a25.7,25.7,0,0,1-7,3.9,36.9,36.9,0,0,1-3.9,1c-5.2,1-8.8,1.5-8.8,1.5-4.2.5-13.3,1.6-21.1,3s-12.1,2.7-16.1,3.7l-10.7,2.8-10.2,2.9c-5.5,1.3-5.4,1-8.9,2.1a96,96,0,0,0-9.3,3.2c-4.2,1.5-2.6,1-6.5,2.5s-6.2,2.2-9,4.8l-.4.4a40.8,40.8,0,0,0-6.5,7.6,37.4,37.4,0,0,0-3,6.6,63.2,63.2,0,0,0-3.7,16" transform="translate(-85.3 -88.1)" fill="none" stroke="#000" stroke-linecap="round" stroke-linejoin="round" stroke-width="1.13"/><path d="M1482,261.7l-7.4,5.9c-3.8,3-4.2,3.5-5.5,4.2s-2.3,1-10.3,3.6c-4.2,1.3-6.6,2.1-10,3l-3.8,1c-3.9.9-5.4,1.1-8.8,2l-3.3.9c-1.9.6-4.8,1.5-8.4,2.8a62.2,62.2,0,0,0-7.6,3.2c-1.8,1-3,1.8-4.9,3-3.7,2.4-4.4,3.2-6.5,4.5a35.9,35.9,0,0,1-8.1,3.6c-5.9,2-11.6,4.2-17.4,6.2-8.3,2.8-12.4,4.2-17.5,6.1s-9.9,4-14.9,6.2-13.8,5.9-23.4,10.7c-4.9,2.5-7.2,3.8-12.5,6.2s-10.5,4.4-11.5,4.8c-4.9,1.8-7.7,2.6-13.1,4.2l-18.7,6.1c-14,4.7-13.7,4.9-23,7.8l-9.9,3.3c-5.2,1.9-5.7,2.4-10,3.8s-4.8,1.4-8.1,2.6l-5.9,2.5" transform="translate(-85.3 -88.1)" fill="none" stroke="#000" stroke-linecap="round" stroke-linejoin="round" stroke-width="1.13"/><path d="M1194.7,364.9c13.3-5.2,22.9-9.6,25.4-11s4.5-2.7,4.5-2.7a8.8,8.8,0,0,1,2.3-1.7c1.5-.7,2.5-.5,4.7-.7a36.3,36.3,0,0,0,4.1-.9,73.4,73.4,0,0,0,9.5-3.1c4.1-1.6,4.4-1.8,8.4-3.5,7.6-3,9.3-3.3,14.5-5.7l4.7-2.3,6.9-3.5c4.3-2.3,9-3.9,15.6-6s7-2.1,20.7-6.4a108.5,108.5,0,0,0,10.6-3.6c.7-.3,2.7-1.1,9.6-4.4l9.5-4.6c4.7-2.2,6.5-2.9,14.5-6.4,3.1-1.3,8.9-3.8,15.7-6.9s12.3-5.5,18.7-8.7,7.2-3.8,14-7,10.7-5,15.3-7.1,12.5-5.4,20.9-8.7" transform="translate(-85.3 -88.1)" fill="none" stroke="#000" stroke-linecap="round" stroke-linejoin="round" stroke-width="1.13"/><path d="M1421.3,257.3a56.3,56.3,0,0,1-9.6,5.8,107.3,107.3,0,0,1-10.2,4.2c-6.3,2.5-9.4,3.8-11.8,4.9-5,2.2-4.3,2.3-13.8,6.9l-9.1,4.4-7.3,3.5c-12.4,5.8-12.1,5.1-17.3,7.9-2.7,1.5-5.5,3.2-11.1,6.6a31,31,0,0,1-5.4,3.3l-5.7,1.8-4.8,1.4c-3.3.8-5.2.5-11.7.4h-8.9a63,63,0,0,0-12,1.1c-4.2.7-7.1,1.5-7.1,1.5l-4.7,1.1a23.4,23.4,0,0,1-3.6.6c-4.5.5-6.8.1-11.5.3-2.6.1-4.5.4-6,.5-6,.8-7,1.5-13.6,2.6s-5.4.5-9.1,1.3-4.1,1.2-7.6,1.9-4.5.7-5.5.8c-6.5.8-10.3,2-15.8,2.9-4,.7-9.7,1-21.1,1.5-6.5.3-10.1.5-15.4.6-11.3.1-20.7-.3-28.1-.6l-5.7-.2c-16.5-.8-19.5-1.1-25.3-1.2-4.3-.2-10.6-.3-18.4,0" transform="translate(-85.3 -88.1)" fill="none" stroke="#000" stroke-linecap="round" stroke-linejoin="round" stroke-width="1.13"/><path d="M1307.7,308.5a75.8,75.8,0,0,1-12.9,5.4c-4,1.4-6.1,1.7-10.7,3.1-6.7,1.9-8.3,2.9-15,5.2-10.6,3.7-12.9,3.4-27.1,7.9a72.5,72.5,0,0,0-11.4,4.5c-2.9,1.4-3.4,1.9-6.5,3.4a103.1,103.1,0,0,1-10.4,4.2c-6.9,2.4-7.9,2.4-13,4.1s-7.1,2.9-13.4,5.5c-4.1,1.6-10,3.9-17.5,6.2" transform="translate(-85.3 -88.1)" fill="none" stroke="#000" stroke-linecap="round" stroke-linejoin="round" stroke-width="1.13"/><path d="M1073.7,339.9c1.7-.5,4.1-1.1,6.8-1.6,1-.1,3.3-.5,6-.7s5.8.1,9.6.3a100.7,100.7,0,0,0,11.1.1l14.2-1c1.8-.1,8.5-.6,13.8-.4h2.7l6.5.6,2.7.3a76.4,76.4,0,0,0,7.7.5c1.8,0,1.8-.2,9.4-1.4l6-.9c6.2-1,7.5-1.4,11.1-2l11.7-1.2,14.3-1.2c2.8-.1,4.6,0,8-.3s5-.5,7.2-.8c4-.6,7-1,11-1.9s3.9-1.2,6.1-1.4a51.2,51.2,0,0,1,6.8.1l4.9.2" transform="translate(-85.3 -88.1)" fill="none" stroke="#000" stroke-linecap="round" stroke-linejoin="round" stroke-width="1.13"/><path d="M1217.3,340.8c-8.6-.2-15.6-.6-20.4-1s-8.8-.7-15.4-1l-10.9-.3c-6.1-.1-11-.4-14.2-.5" transform="translate(-85.3 -88.1)" fill="none" stroke="#000" stroke-linecap="round" stroke-linejoin="round" stroke-width="1.13"/><path d="M1259.5,312.9c5.9-2.7,10.3-4.6,13.5-5.8a41.2,41.2,0,0,0,8.2-4.3c2.4-1.6,2-1.8,3.8-2.9s5.8-2.6,11.1-3.8,4.2-.6,6.8-1.4a54.4,54.4,0,0,0,7.8-3.3l6.8-3.3c6.2-3.2,10.7-4.7,16.3-7s4.8-2.6,22.8-11.5c8.9-4.4,11.9-5.7,19.4-9.7l10.7-5.8" transform="translate(-85.3 -88.1)" fill="none" stroke="#000" stroke-linecap="round" stroke-linejoin="round" stroke-width="1.13"/><path d="M1369.1,250.9a76.5,76.5,0,0,0-9,2.7,60.5,60.5,0,0,0-8.5,3.8,42.7,42.7,0,0,1-3.8,2.2,29.9,29.9,0,0,1-5.6,2.1c-7.2,2.2-7,1.9-9.1,2.8s-1.6.9-6.4,3.3l-5.8,2.8c-5.1,2.5-8.9,4-13.5,6-6.8,2.9-13.5,6-20.8,9.3-3.7,1.7-5.3,2.5-8.1,3.5s-5.2,1.5-10.2,3.3c-3,1-2.9,1.1-5.4,2s-2.7.9-8.4,2.4c-7.5,2-8.1,2.1-9.8,2.9s-5.2,3.2-5.2,3.2-1.6,1.2-3.5,2.4a22.8,22.8,0,0,1-3,1.7l-2.2.7-5,1.4-4.5,1.5c-2.5.9-3,1.3-5.4,2.2l-2.7.9-4.4,1.6a38.4,38.4,0,0,0-4.8,2.6,82.9,82.9,0,0,0-7.1,5" transform="translate(-85.3 -88.1)" fill="none" stroke="#000" stroke-linecap="round" stroke-linejoin="round" stroke-width="1.13"/><path d="M1152.1,325.1c.9-.5,7.4-3.8,13.6-6.8a9.8,9.8,0,0,1,3.9-1.3c1.8-.3,2.8,0,5,0a23.4,23.4,0,0,0,5.5-.3c2.7-.5,5-1.8,9.5-4.4l3.8-2.3c3.7-2.2,4.6-2.6,6.7-4l3-2.2c1.5-1.2,2-1.9,3.3-2.5l2.5-.7a39.3,39.3,0,0,1,5.5-.9l5.4-.8a48.3,48.3,0,0,0,5.2-.9c3.2-.7,6.6-1.4,10-3.6l3.2-2.1c2.1-1.4,2.6-1.9,3.8-2.2l2.4-.3h1.8a14.3,14.3,0,0,0,5.2-2.1,31.4,31.4,0,0,0,3.9-3c2.7-2.2,2.9-2.5,4-3.3a46,46,0,0,1,4.7-3c3.2-1.7,4.3-1.3,11-3.1,4.1-1.1,6.9-2.1,9-2.8a41.2,41.2,0,0,0,6.2-2.6,39.2,39.2,0,0,0,6.3-3.9c2.9-2,5.6-3.3,11-5.9a177.2,177.2,0,0,1,25.3-9.7,75,75,0,0,0,9.2-3.5,70.3,70.3,0,0,0,6.3-3.2" transform="translate(-85.3 -88.1)" fill="none" stroke="#000" stroke-linecap="round" stroke-linejoin="round" stroke-width="1.13"/><path d="M1330.9,236a115.8,115.8,0,0,1-10.7,5.9c-4.8,2.3-5.1,2-9.8,4.3s-5.7,3.3-12.5,6.7a49.5,49.5,0,0,1-6.6,2.8c-3.7,1.3-4.1.8-7.5,1.9a93,93,0,0,0-9.4,4.6,35.8,35.8,0,0,0-5.9,3.4l-3.5,2.7a27.9,27.9,0,0,1-2.4,1.9,15.3,15.3,0,0,1-3.1,1.6l-7.9,2.8a55.8,55.8,0,0,0-6.6,3,79.1,79.1,0,0,0-7.3,4.3,171.2,171.2,0,0,1-19.3,10.2l-10.3,4.4-7.3,2.9-6,2.3a72,72,0,0,1-10.2,2.7l-9.5,2.2a130.4,130.4,0,0,0-15.5,4.4l-5.4,2.1c-7.8,3.1-10.6,4.4-14.4,5.2l-3.8.7-4.8,1a31.5,31.5,0,0,0-9.7,4" transform="translate(-85.3 -88.1)" fill="none" stroke="#000" stroke-linecap="round" stroke-linejoin="round" stroke-width="1.13"/><path d="M1456.9,276a71.9,71.9,0,0,0,8.4-.7l9.2-1.4,3.6-.4a59.7,59.7,0,0,1,6,0l4.4-.3a35,35,0,0,0,6.5-.7l4.9-1.9,4-1.5c5.7-2.1,14.2-4.7,14.9-5" transform="translate(-85.3 -88.1)" fill="none" stroke="#000" stroke-linecap="round" stroke-linejoin="round" stroke-width="1.13"/><path d="M1405.5,295.8h5.4l8.3-.3c6.1-.4,9.2-.5,12.4-1s3-.8,7.4-1.6,6.4-.9,12-1.4l9.4-.8c2.3-.2,4.3-.3,7.2-.7l4.2-.8,7.8-1.2,7.4-1.3,18.6-3.7c1.7-.3,5.1-1,9.5-1.5l4.6-.4c2.1-.1,3,.1,7,.1h3.5c3-.1,4.2-.3,7.4-.5h4.7l16.1-.5a119.3,119.3,0,0,0,17.3-2.2c4-1,7.4-2,9.7-2.8" transform="translate(-85.3 -88.1)" fill="none" stroke="#000" stroke-linecap="round" stroke-linejoin="round" stroke-width="1.13"/><path d="M1552.2,267.9a73.4,73.4,0,0,1-12.5,5.3c-.6.1-2.4.5-4.8,1.2l-3.2,1.1-3.4,1c-2.2.6-2.5.4-3.4,1a6.9,6.9,0,0,0-2,1.7,8.1,8.1,0,0,0-1.6,2" transform="translate(-85.3 -88.1)" fill="none" stroke="#000" stroke-linecap="round" stroke-linejoin="round" stroke-width="1.42"/><path d="M1378.2,306.2h13.6c8.6-.1,10.8-.1,13.8-.3l5.5-.3,7.2-.3c3.2.2,3.1.6,7.5,1.1l6.7.3h6.3c8.1-.1,8.5.4,13.2.2,2.6-.2,2.9-.3,17-2.7l7.7-1.2,7.3-.9c4.3-.3,5.2-.1,8.4-.3a86.9,86.9,0,0,0,9.4-1.5c7.9-1.5,14.2-2.2,19-2.7.5-.1,7.9-.9,12.8-1.1l3.9-.2a31.3,31.3,0,0,0,4.6-.3l2.3-.4,6-1.1,2.4-.5a28.5,28.5,0,0,1,4-.4c3.2-.2,6-.2,8.8-.2,4.9-.2,8.9-.6,11.5-.8,6.3-.6,6.1-.9,14.3-1.9s8.9-.6,12.3-1.3a62.9,62.9,0,0,1,7.9-1h4.3a15.8,15.8,0,0,1,2.6.4c2.1.5,5.5.9,12.3,1.7,4.2.5,4.9.5,6.8.9a21.6,21.6,0,0,0,2.7.5,20.3,20.3,0,0,0,4.9-.1l3.4-.5a65.2,65.2,0,0,1,10.6-.3l11.2.5c5.8.3,12.8.6,20.9.5,5-.1,6.6-.3,8.6-.8s3.1-1.5,9-3.6a26,26,0,0,1,5.8-1.7l4.3-.3h3.2c7.9-.2,14.5,0,14.5,0,3.6.2,13.6,0,33.5-.2,11.7-.1,17.6-.2,20.5-.5,8.6-.8,17.8-2.3,23.6-3.3l7.7-1.4c4.5-.9,8-1.8,17.3-4.2l14-3.6" transform="translate(-85.3 -88.1)" fill="none" stroke="#000" stroke-linecap="round" stroke-linejoin="round" stroke-width="1.13"/><path d="M1339.1,321.6h11c5.7-.1,8.8-.2,27.1-1l16.9-.7a94.6,94.6,0,0,0,10.5-.1c3.2-.2,4.2-.4,8-.8,7.7-.8,13.7-1,16.7-1.1,8.3-.2,7.2.3,12.4,0,6.8-.4,6.4-1.1,19.7-2.9l15.2-1.8,6.1-.7c3-.3,8.9-.9,16.3-1.3,9.3-.4,9.5.1,14.4-.6,3.2-.4,3.9-.8,9.2-1.5s6.9-1,9.9-1.2c5.6-.3,6.6.2,11.9-.2a46.7,46.7,0,0,0,7.6-1.1s4.4-.8,21.2-2.5,43.2-.9,43.2-.9c49,1.5,83.7-1.9,114.7-1.9,2.9,0,11,0,20.5-.6,2.1-.2,2.9-.3,6-.4,9.1-.6,10.7-.5,14.7-1s3.2-.8,8.8-1.6a91.9,91.9,0,0,1,13.1-1.2h5.4a44,44,0,0,0,7.3-.7c2-.4,1.9-.6,4.3-1s2-.4,5.5-.8l5.7-.7c5.3-.5,5.9-.4,9.4-.8l9.3-1.3,10-1.4c4.6-.6,5.5-.6,18.7-1.7s13.6-1.2,17.4-1.3h19c19.1.6,20.1,1,26.1.7l12.1-.8,12-.8c8.9.1,12.7,2,18.7,1.2l5.4-.6c3.4-.3,4.3-.3,5.4.1l3.2,1c1.6.5,2.2.6,2.8.4s.9-.4,2.1-1l2.5-1a31,31,0,0,1,5.5-1.2,38.8,38.8,0,0,1,5.4-.2,63.6,63.6,0,0,1,6.7.3c2.8.6,3.1,1.3,6.4,1.9l3.9.4a75.5,75.5,0,0,0,7.6.2,61.4,61.4,0,0,0,7.9-.6,79.4,79.4,0,0,0,9.9-1.7c6.2-1.5,7.1-2.3,12.4-3.5a71.2,71.2,0,0,1,10.6-1.8" transform="translate(-85.3 -88.1)" fill="none" stroke="#000" stroke-linecap="round" stroke-linejoin="round" stroke-width="1.13"/><path d="M2072.8,302.5l-7.9-.9c-7.9-.8-11-.9-17.4-1.7s-4.7-.9-8.8-1.3-8-.4-18.5-.6l-9.9-.2c-4.4,0-6.3.2-18.5.7s-13.2.5-15.7.8c-4.4.5-6.2.9-13.1,1.6-1.9.3-5.7.7-9.6,1a198.8,198.8,0,0,1-21.7.2c-11-.2-10.7-.7-17.3-.6l-14.3.4h-3.7c-3.8.2-5.3.4-7.7,0l-2-.4a41.3,41.3,0,0,0-5.4-.6c-2.2-.1-2.1.1-5.9.1H1865c-3.6.2-5.4.8-9.1,1.4s-4.8.7-9.5,1.2c-11.4,1.2-18,0-29.2.7a43.1,43.1,0,0,0-9.6,1.4,38.5,38.5,0,0,1-4,1,32.6,32.6,0,0,1-6.4.4h-6.9c-1,.1-2.3.2-7.4,1l-7.4,1.3c-5.5.8-7,.6-14.5,1.3s-5.4.9-11,1.3-11.2.6-17.4.7h-4.8c-16.7.1-52.2,2.6-52.2,2.6s-29.4,2.1-61.6,2.1c-13.4.1-26.8,1.8-40.1.8a43,43,0,0,0-11.3.5c-2.8.6-5.6,1.4-5.6,1.4-2.6.7-2.9,1-4.4,1.3a30.6,30.6,0,0,1-7.3.7l-8.6.2c-6.9,0-12.2.8-18.5,1.3s-16.3.7-36.9,1h-28.2a100.3,100.3,0,0,0-10.3.9c-3,.4-3.3.7-5.6.9a46.7,46.7,0,0,1-8.8-.3c-2.4-.2-5.8,0-12.8.3-9.5.4-17.2,1.2-22,1.8-1.9.3-9.6,1.2-14.3,2.3l-3.8.9-5.1.9-4.9.8c-4.2.6-5.4.6-7.8,1.3l-1.7.5a22.9,22.9,0,0,1-4.7.9,37.9,37.9,0,0,1-5.1.2h-22.3a29.7,29.7,0,0,1-4-.3,19.7,19.7,0,0,1-6.4-2" transform="translate(-85.3 -88.1)" fill="none" stroke="#000" stroke-linecap="round" stroke-linejoin="round" stroke-width="1.13"/><path d="M1263.2,351.6c8.5-.6,15.2-.9,19.9-1l13-.7a74.3,74.3,0,0,0,9.3-.8c3.2-.5,3-.7,5.8-1.1s6.3-.5,13.2-.6a68.7,68.7,0,0,0,7.7-.3l5.6-.9c3.3-.6,5-.8,6-.9s1.7.1,6.2.2h14.2c11.3-.1,9.5-.3,16.8-.3a75.1,75.1,0,0,0,7.7-.3c3.5-.4,4.1-.9,8.6-1.7a76.8,76.8,0,0,1,10.3-1.3c4.2-.3,4.1,0,9.5-.4,2.3-.1,4.5-.3,7.5-.7l5.8-.9a54.6,54.6,0,0,1,6.9-.5c5.3-.3,10.5-.7,15.8-.8,12-.4,18.4-1.2,44.5-2.6l24.4-1.2,37.4-1.7c15.4-.6,16.1-.4,27.9-.9s13.5-.9,26.9-1.7c28-1.8,27-.9,45.3-2.3l32-3,16.6-1.4,16.8-1.5c6.4-.3,11.1-.2,20.7,0,7.1.1,10.7.2,13.7.4,6.7.6,8.8,1.4,16,1.7,2.1.1,5.4.3,8.9.3h11.5a40.5,40.5,0,0,0,6.3-.6c1.2-.3,1.9-.6,3.6-.9l3.2-.2,5.3-.3a84.8,84.8,0,0,0,8.8-.6c2.8-.3,4.9-.3,12.8-.4,13.2-.1,25.7,0,32.5-.2,3.8,0,6.8-.2,6.8-.2l5.1-.2c3.1,0,3.8.3,5.4-.2s1.4-.7,3.4-1.4a18.4,18.4,0,0,1,3.9-1c9.1-1.8,27.3-1.7,27.3-1.7s4.2,0,8.3.3l2.3.2a20,20,0,0,1,8.6,3.3" transform="translate(-85.3 -88.1)" fill="none" stroke="#000" stroke-linecap="round" stroke-linejoin="round" stroke-width="1.13"/><path d="M1781.6,336.7a60.2,60.2,0,0,0-7-.9,51.3,51.3,0,0,0-6.6-.4c-2.5-.1-4.5-.1-11,.2-8.3.3-7.3.4-10.3.4-5.4.2-8.1.2-11.2.1l-6.5-.2-4,.3c-5.5.3-5.5.5-7.8.5s-2.7-.1-7.5-.2h-6.4c-4,0-6.5.2-12.2.6-12.4.8-11.6.6-14.5,1-5.7.6-5.3.9-11.9,1.7s-13.4,1.1-15.7,1.2c-5.2.2-5.3,0-11.9.1l-16,.7-19.7.8h-8.6c-10,0-12.8-.4-18.9-.4a171.9,171.9,0,0,0-21.4,1.3c-5.6.6-10.6,1.5-19.2,2.1l-5.7.2c-2.7.1-7.5.2-15.3,0-11.2-.4-15.4-1.1-22.1-.5l-4.5.4-9.9.8c-6.6.7-10.7,1.7-17.1,2.6s-10.4,1.2-21.2,2l-23.2,1.4c-37.6,2-34.1,2-43.1,2.4-11.1.4-15.1.4-24.1,1.1s-18.6,1.8-19.9,1.9c-8.5,1-11.4,1.6-21.4,2.6l-11.2,1.1-14.8,1c-11.6.9-17.5,1.3-21.4,2.1s-7.2,1.7-12.1,2.5c-2.5.5-3.4.6-5.2,1.1a25.9,25.9,0,0,1-4.5,1.2l-2.2.2-6.5.6a23.4,23.4,0,0,0-7.2,2.1" transform="translate(-85.3 -88.1)" fill="none" stroke="#000" stroke-linecap="round" stroke-linejoin="round" stroke-width="1.13"/><path d="M2072.8,336.3c.1,12.3.2,24.6.2,36.8a133.7,133.7,0,0,1-24.7,1.6c-6.7-.1-10-.2-13-1.1-13.4-3.9-14.9-15.2-26.6-21-2.3-1.2-4.2-1.7-24.7-1.6-26.5.1-39.9.2-49.9,2.5-4.4.9-11.9,3.5-27,8.6s-24.1,8.4-28.1,9.9c-37.3,13.1-83.2,11.3-100,10.6-8.2-.3-18.5-1-32.7,1.2s-19.1,4.8-30.3,7.7c-14.9,3.9-25.6,4.6-46.7,5.9-33.7,2.2-37-1-72.8.1-33,1-29.3,3.7-59.6,4.1-26.4.4-39.4-1.5-63.9-.7-10.6.4-20.7,1.2-28.5,2s-13.3,1.4-14.4,1.6c-14.3,1.4-20.8,2.4-33.5,3.2s-14.4.3-32.2.9-36.5,1.1-57.8,4c-13.4,1.7-17.7,3-28.7,4.8-41.6,7-77.8,4.8-110.2,2.7-22-1.5-24.6-2.7-51.6-4.2-40.5-2.2-52.3-.5-59.7,1-21.4,4.4-28.3,11.7-49.1,21.3,0,0-43,19.7-98.1,20.4-32.7.4-29.1-10-96.4-22.6-21-4-31.6-6-43.9-6.9-9.4-.8-44.5-3-120.5,15.7-33.7,8.3-28,9-68.2,19-22.2,5.5-53.8,12.7-89.1,16.6-12.2,1.3-23.3,2.1-35,2.5s-22.5.5-36.4-.8c-23.2-2.4-23.2-6.9-44.3-8.6a252.7,252.7,0,0,0-45.6.9c-21.5,2.2-21.7,4.6-40.3,5.9s-16.4-.9-41.7-.3c-15.2.5-17.1,1.3-42.5,2.4-14.2.7-17.8.6-27.7,1-13.4.5-32.6,1.7-56.4,4.5,0-13.5,0-26.9.1-40.4V431.7c5.3,2.3,9.6,4.3,12.5,5.7s7.3,3.6,12.8,6.5c10,5.2,9.6,5.2,11,5.6,8,2.6,15.3,1.2,18.3.6,4.9-.9,4-1.7,14.3-4.7a87.4,87.4,0,0,1,11.8-2.7,60.7,60.7,0,0,1,11.4-.5c10.1.2,12.3,1.8,25.4,3.1,6.5.6,11.5.8,13.5.8a179.6,179.6,0,0,0,18.6-.6c8.6-.5,15.6-1.3,19.5-1.8,6.8-.9,15.7-2.3,33.1-5.3l11.2-1.8a149.5,149.5,0,0,1,22-.8c29.8.4,32.5.3,46.3.8,2.8.2,12.7.6,22.5,1.7l5.8.7c6.9,1,11.8,1.9,13.4,2.2,3.3.6,6.2.9,25.3,1.8l23.7,1c7.7-.3,7.8-.8,25.6-2.3,11.9-1,11.8-.7,17.5-1.4a200.7,200.7,0,0,0,22.6-4,129.4,129.4,0,0,0,19.6-6.1c7-2.8,8.1-4.1,14.3-5.9,4.1-1.3,7.7-1.9,14.7-3s9.5-1.2,14.8-2.4,6.2-1.8,11.2-3.3c10.8-3.2,11.6-2.2,19.2-4.5a123.9,123.9,0,0,0,25-11.4c4.4-2.6,7.1-4.6,12-5.5,2.9-.5,5.1-.4,12.9.4,13.5,1.4,13.2,1.7,15.8,1.7,8.2.2,12.3-2.7,20.4-5.4s14.7-3,29.4-4.2c24.1-1.9,41.3-3.2,60.7,2.9l30.2,11.1c9.7,3.6,11.1,4,14.4,5.4,6.2,2.4,8.6,3.7,13.3,5.2a102.4,102.4,0,0,0,12.2,2.8c17.5,2.9,41.8,1.2,41.8,1.2,21.1-1.4,42.8-3,67.6-9.3a225.6,225.6,0,0,0,24.3-8.1c13.9-5.6,17.9-8.8,19.8-10.5,3.4-3.2,3.9-4.6,10.1-10.6s7.9-7.5,11-9.2c1.5-.8,6.5-3.3,19.4-3.6a106.2,106.2,0,0,1,19.5,1.6s58.8,11.7,86.2,14.4c10.6,1.1,19.5,1.2,19.5,1.2h11.7c11.7-.2,13.3-.2,16.6-.1,7.7.1,7.8.6,13.9.8a100.7,100.7,0,0,0,28-2.6l15.1-4.8c12.7-4,14.5-4.6,18.1-5.2s6.6-.5,17.2-.5l21.1-.3c12.4-.1,23.9-.3,36.9-1.2s24.6-2.7,31.2-3.7c20.8-3.2,23.2-5,35.9-5.9,6.1-.4,4.8,0,29.3.8,15.1.5,29.8.9,48,.8,12-.2,11.7-.4,19.4-.3,13.4.2,18.2,1,29.2.3l12.7-1.3,19.2-2.2c24.7-2.8,46-1.8,64.3-3.6,1.4-.1,6.6-.6,13.6-1l9.1-.3c14.8-.6,17.7-2,28.3-2.1l10.2-.2,5.9-.3c6.7-.6,12.9-1.1,18.6-4.6l5-3.6c5.6-4.1,5.5-4.5,6.7-4.8,2.9-.9,4.4.7,12.5,3.8a69,69,0,0,0,10.8,3.3,63.6,63.6,0,0,0,12.4,1c6.3.2,8.4-.4,9.5-.8s2.2-1.2,5.2-2.3a52.9,52.9,0,0,1,7.9-2.4,96.4,96.4,0,0,1,10.8-1.7c4.6-.4,8.1-.5,8.9-.5,25.8-.7,43.2-4.1,43.2-4.1,11.7-2.3,20.2-5.5,29.3-9,14.4-5.5,17.2-8.3,30.4-12.5a140.5,140.5,0,0,1,25.2-5.7,125.2,125.2,0,0,1,35.8.6c12.9,2.3,22.5,6.4,31.3,10.2a166.3,166.3,0,0,1,15.7,7.7Z" transform="translate(-85.3 -88.1)" fill="url(#_10_lpi_10_)"/><polyline points="36 59.5 36 343.6 36 359.4" fill="none" stroke="#000" stroke-linecap="round" stroke-linejoin="round" stroke-width="1.98"/><polyline points="1987.6 168.7 1987.6 234.6 1987.6 248.2" fill="none" stroke="#000" stroke-linecap="round" stroke-linejoin="round" stroke-width="1.98"/><path d="M2072.8,322.8a166.3,166.3,0,0,0-15.7-7.7c-8.8-3.8-18.4-7.9-31.3-10.2a125.2,125.2,0,0,0-35.8-.6,140.5,140.5,0,0,0-25.2,5.7c-13.2,4.2-16,7-30.4,12.5-9.1,3.5-17.6,6.7-29.3,9,0,0-17.4,3.4-43.2,4.1-.8,0-4.3.1-8.9.5a96.4,96.4,0,0,0-10.8,1.7,52.9,52.9,0,0,0-7.9,2.4c-3,1.1-3.2,1.6-5.2,2.3s-3.2,1-9.5.8a63.6,63.6,0,0,1-12.4-1,69,69,0,0,1-10.8-3.3c-8.1-3.1-9.6-4.7-12.5-3.8-1.2.3-1.1.7-6.7,4.8l-5,3.6c-5.7,3.5-11.9,4-18.6,4.6l-5.9.3-10.2.2c-10.6.1-13.5,1.5-28.3,2.1l-9.1.3c-7,.4-12.2.9-13.6,1-18.3,1.8-39.6.8-64.3,3.6l-19.2,2.2-12.7,1.3c-11,.7-15.8-.1-29.2-.3-7.7-.1-7.4.1-19.4.3-18.2.1-32.9-.3-48-.8-24.5-.8-23.2-1.2-29.3-.8-12.7.9-15.1,2.7-35.9,5.9-6.6,1-17.3,2.6-31.2,3.7s-24.5,1.1-36.9,1.2l-21.1.3c-10.6,0-12.6-.2-17.2.5s-5.4,1.2-18.1,5.2l-15.1,4.8a100.7,100.7,0,0,1-28,2.6c-6.1-.2-6.2-.7-13.9-.8-3.3-.1-4.9-.1-16.6.1h-11.7s-8.9-.1-19.5-1.2c-27.4-2.7-86.2-14.4-86.2-14.4a106.2,106.2,0,0,0-19.5-1.6c-12.9.3-17.9,2.8-19.4,3.6-3.1,1.7-5.7,4.2-11,9.2s-6.7,7.4-10.1,10.6c-1.9,1.7-5.9,4.9-19.8,10.5a225.6,225.6,0,0,1-24.3,8.1c-24.8,6.3-46.5,7.9-67.6,9.3,0,0-24.3,1.7-41.8-1.2a102.4,102.4,0,0,1-12.2-2.8c-4.7-1.5-7.1-2.8-13.3-5.2-3.3-1.4-4.7-1.8-14.4-5.4l-30.2-11.1c-19.4-6.1-36.6-4.8-60.7-2.9-14.7,1.2-22,1.8-29.4,4.2s-12.2,5.6-20.4,5.4c-2.6,0-2.3-.3-15.8-1.7-7.8-.8-10-.9-12.9-.4-4.9.9-7.6,2.9-12,5.5a123.9,123.9,0,0,1-25,11.4c-7.6,2.3-8.4,1.3-19.2,4.5-5,1.5-6.6,2.2-11.2,3.3s-6.6,1-14.8,2.4-10.6,1.7-14.7,3c-6.2,1.8-7.3,3.1-14.3,5.9a129.4,129.4,0,0,1-19.6,6.1,200.7,200.7,0,0,1-22.6,4c-5.7.7-5.6.4-17.5,1.4-17.8,1.5-17.9,2-25.6,2.3L470,443c-19.1-.9-22-1.2-25.3-1.8-1.6-.3-6.5-1.2-13.4-2.2l-5.8-.7c-9.8-1.1-19.7-1.5-22.5-1.7-13.8-.5-16.5-.4-46.3-.8a149.5,149.5,0,0,0-22,.8l-11.2,1.8c-17.4,3-26.3,4.4-33.1,5.3-3.9.5-10.9,1.3-19.5,1.8a179.6,179.6,0,0,1-18.6.6c-2,0-7-.2-13.5-.8-13.1-1.3-15.3-2.9-25.4-3.1a60.7,60.7,0,0,0-11.4.5,87.4,87.4,0,0,0-11.8,2.7c-10.3,3-9.4,3.8-14.3,4.7-3,.6-10.3,2-18.3-.6-1.4-.4-1-.4-11-5.6-5.5-2.9-8.9-4.7-12.8-6.5s-7.2-3.4-12.5-5.7" transform="translate(-85.3 -88.1)" fill="none" stroke="#000" stroke-linecap="round" stroke-linejoin="round" stroke-width="1.98"/></g><g id="texts"><line x1="729.6" y1="19.5" x2="729.6" y2="44" fill="none" stroke="#000" stroke-linecap="round" stroke-linejoin="round" stroke-width="1.13"/><line x1="1426.1" y1="136" x2="1426.1" y2="160.5" fill="none" stroke="#000" stroke-linecap="round" stroke-linejoin="round" stroke-width="1.13"/><text transform="translate(1466.1 136)" font-size="22.68" font-family="SimSun">74HP4TR27</text><text transform="translate(769.6 19.5)" font-size="22.68" font-family="SimSun">74HP4TR26</text><text transform="translate(76 49.5)" font-size="22.68" font-family="SimSun">74HP4TR25</text><text transform="translate(0 43.9)" font-size="28.35" font-family="SimSun">南</text><text transform="translate(1999.6 156.7)" font-size="28.35" font-family="SimSun">北</text><text transform="translate(415.2 82.1)" font-size="22.68" font-family="SimSun">1</text><text transform="translate(777.4 78)" font-size="22.68" font-family="SimSun">2</text><text transform="translate(489.6 117.8)" font-size="22.68" font-family="SimSun">2A</text><text transform="translate(421.5 155.5)" font-size="22.68" font-family="SimSun">3</text><text transform="translate(421.5 204.8)" font-size="22.68" font-family="SimSun">4</text><text transform="translate(418.9 265)" font-size="22.68" font-family="SimSun">4A</text><text transform="translate(519.4 297.3)" font-size="22.68" font-family="SimSun">4C</text><text transform="translate(420.9 341.7)" font-size="22.68" font-family="SimSun">6</text><text transform="translate(177.7 270.2)" font-size="22.68" font-family="SimSun">4B</text><rect x="1494.9" y="207" width="12.9" height="25.07" rx="6.4" fill="#fff"/><text transform="translate(1495.6 227.7)" font-size="22.68" font-family="SimSun">5</text><rect x="1534" y="207" width="90.4" height="25.07" rx="5.4" fill="#fff"/><text transform="translate(1533.9 227.7)" font-size="22.68" font-family="SimSun">北垣東段</text></g></svg>